ply
format ascii 1.0
element vertex 969
property float x
property float y
property float z
property uchar red
property uchar green
property uchar blue
end_header
0.125 0.07500000000000001 0.0 66 83 101
0.125 0.025 0.0 89 111 132
0.125 -0.025 0.0 123 148 171
5.075 0.7250000000000001 0.0 1 1 1
5.075 -2.7750000000000004 0.0 169 171 173
5.025 0.525 0.0 230 230 230
6.025 -3.0250000000000004 0.0 1 1 1
6.025 -3.125 0.0 183 184 184
5.025 0.275 0.0 214 214 214
5.025 -2.825 0.0 177 179 179
5.025 0.17500000000000002 0.0 210 210 210
4.9750000000000005 0.125 0.0 229 229 229
5.925000000000001 -2.825 0.0 16 16 15
4.9750000000000005 0.025 0.0 209 209 209
4.9750000000000005 -0.275 0.0 235 235 235
5.875 -2.825 0.0 9 9 11
5.925000000000001 -3.075 0.0 185 186 186
5.925000000000001 -3.1750000000000003 0.0 170 172 174
4.9750000000000005 0.5750000000000001 0.0 239 239 239
4.925000000000001 0.525 0.0 228 228 228
4.925000000000001 0.025 0.0 229 229 229
4.925000000000001 -0.07500000000000001 0.0 222 222 222
4.875 -2.725 0.0 168 169 172
4.925000000000001 0.375 0.0 235 235 235
4.925000000000001 0.275 0.0 237 237 237
4.925000000000001 0.17500000000000002 0.0 223 224 223
4.925000000000001 0.125 0.0 228 228 228
4.875 -2.7750000000000004 0.0 187 188 188
4.925000000000001 0.5750000000000001 0.0 239 239 239
4.875 0.47500000000000003 0.0 137 137 137
4.925000000000001 -0.025 0.0 234 234 234
5.125 -0.17500000000000002 0.0 246 246 246
5.125 -0.07500000000000001 0.0 245 246 245
6.075 -3.125 0.0 190 190 189
5.025 -2.725 0.0 192 193 192
6.025 -3.1750000000000003 0.0 194 194 193
5.9750000000000005 -2.975 0.0 59 59 58
5.025 0.42500000000000004 0.0 246 246 246
4.9750000000000005 0.775 0.0 170 169 170
4.9750000000000005 -0.225 0.0 245 246 245
5.925000000000001 -3.0250000000000004 0.0 192 192 192
5.925000000000001 -2.875 0.0 47 47 47
5.925000000000001 -2.975 0.0 94 94 93
4.9750000000000005 -0.025 0.0 245 245 245
4.9750000000000005 -0.07500000000000001 0.0 245 245 245
4.925000000000001 -2.725 0.0 194 195 194
5.025 0.675 0.0 174 174 174
4.925000000000001 -2.825 0.0 196 196 196
4.925000000000001 -0.225 0.0 245 246 245
4.925000000000001 -0.275 0.0 245 245 245
5.875 -2.875 0.0 58 57 56
5.875 -3.225 0.0 194 195 194
4.925000000000001 -2.875 0.0 199 200 200
4.925000000000001 0.675 0.0 141 141 140
4.875 -2.875 0.0 206 206 206
4.075 0.525 0.0 246 246 246
5.075 0.275 0.0 246 246 246
5.125 0.675 0.0 212 212 212
5.175000000000001 0.7250000000000001 0.0 194 194 194
5.025 0.7250000000000001 0.0 164 164 164
5.925000000000001 -3.2750000000000004 0.0 194 194 194
5.875 -3.075 0.0 191 192 191
5.175000000000001 0.775 0.0 171 171 171
5.075 0.525 0.0 246 246 246
5.075 0.625 0.0 246 246 246
5.875 -2.975 0.0 120 119 119
5.875 -3.2750000000000004 0.0 195 195 195
5.075 0.42500000000000004 0.0 246 247 246
6.075 -3.225 0.0 193 194 193
4.875 0.625 0.0 246 246 246
5.9750000000000005 -2.825 0.0 48 47 47
5.9750000000000005 -2.875 0.0 56 54 54
4.9750000000000005 -2.875 0.0 201 202 201
5.875 -3.0250000000000004 0.0 189 189 189
4.875 -0.17500000000000002 0.0 246 246 246
4.875 -0.07500000000000001 0.0 246 246 246
4.775 0.5750000000000001 0.0 246 246 246
2.325 10.575000000000001 0.0 244 244 244
2.275 10.625 0.0 204 216 223
2.225 10.575000000000001 0.0 84 128 157
3.075 4.875 0.0 61 120 4
2.6750000000000003 4.925000000000001 0.0 86 142 5
2.825 5.025 0.0 100 152 11
4.9750000000000005 3.225 0.0 81 77 75
4.075 7.025 0.0 244 244 244
4.025 7.275 0.0 244 245 244
2.375 10.575000000000001 0.0 245 245 245
3.0250000000000004 4.825 0.0 74 123 4
2.125 10.525 0.0 83 128 159
2.225 10.525 0.0 149 166 177
2.6750000000000003 4.875 0.0 66 106 2
-1.8250000000000002 10.075000000000001 0.0 143 190 66
2.7750000000000004 5.425000000000001 0.0 87 138 21
0.775 10.275 0.0 55 56 56
1.125 10.375 0.0 49 50 49
-1.8250000000000002 9.725000000000001 0.0 218 227 205
3.475 10.225000000000001 0.0 246 246 246
4.075 10.275 0.0 9 9 9
2.575 10.875 0.0 245 246 245
2.875 10.925 0.0 245 246 245
2.275 10.525 0.0 246 246 246
2.4250000000000003 10.725000000000001 0.0 246 246 246
3.9250000000000003 10.225000000000001 0.0 246 246 246
-2.125 10.375 0.0 247 247 247
-1.975 10.225000000000001 0.0 246 246 246
-1.625 10.375 0.0 246 246 246
-1.2750000000000001 10.425 0.0 246 247 247
-0.9750000000000001 10.125 0.0 128 139 147
-0.5750000000000001 10.725000000000001 0.0 139 168 187
-0.375 10.375 0.0 142 169 188
1.225 10.725000000000001 0.0 130 160 181
-1.7750000000000001 10.375 0.0 246 246 246
0.7250000000000001 10.525 0.0 157 180 195
1.075 10.475000000000001 0.0 164 183 195
3.625 10.125 0.0 245 245 245
-1.5750000000000002 10.525 0.0 246 246 246
-1.175 10.525 0.0 146 171 188
0.17500000000000002 10.375 0.0 151 159 164
-1.0250000000000001 10.175 0.0 123 149 168
1.075 10.575000000000001 0.0 136 165 185
-1.475 10.475000000000001 0.0 246 246 246
0.42500000000000004 10.375 0.0 197 207 212
0.675 10.675 0.0 131 161 181
-1.725 10.375 0.0 246 246 246
0.525 10.625 0.0 141 168 188
-1.5250000000000001 10.025 0.0 245 245 245
-1.375 10.325000000000001 0.0 246 246 246
0.125 10.725000000000001 0.0 145 171 189
0.375 10.575000000000001 0.0 135 165 184
0.625 10.625 0.0 146 172 189
-1.625 9.825000000000001 0.0 85 135 19
-1.875 9.725000000000001 0.0 226 232 215
1.475 10.475000000000001 0.0 118 141 157
1.625 10.525 0.0 135 164 183
-1.5750000000000002 9.725000000000001 0.0 154 187 103
-0.325 10.375 0.0 149 163 172
0.47500000000000003 10.325000000000001 0.0 124 157 178
-0.42500000000000004 10.075000000000001 0.0 178 178 178
-1.675 9.675 0.0 122 155 85
-0.875 9.825000000000001 0.0 26 27 26
3.125 10.975000000000001 0.0 246 246 246
1.975 10.675 0.0 129 161 181
2.075 10.675 0.0 129 161 182
2.4250000000000003 10.675 0.0 246 246 246
2.9250000000000003 10.975000000000001 0.0 246 247 246
0.8250000000000001 10.425 0.0 157 180 195
1.175 10.525 0.0 140 166 183
1.725 10.575000000000001 0.0 132 162 183
1.8250000000000002 10.625 0.0 131 161 182
2.7750000000000004 10.875 0.0 246 246 246
3.0250000000000004 10.975000000000001 0.0 246 246 246
3.225 10.875 0.0 153 153 153
3.375 11.125 0.0 144 145 145
-0.125 10.325000000000001 0.0 144 170 188
0.325 10.675 0.0 144 170 188
0.47500000000000003 10.475000000000001 0.0 159 181 196
0.925 10.625 0.0 137 166 186
1.0250000000000001 10.475000000000001 0.0 139 164 180
1.475 10.575000000000001 0.0 134 164 184
1.625 10.625 0.0 128 160 181
1.975 10.625 0.0 126 159 180
2.075 10.725000000000001 0.0 127 160 181
2.5250000000000004 10.825000000000001 0.0 246 246 246
3.2750000000000004 11.075000000000001 0.0 210 210 210
3.325 10.925 0.0 141 141 142
-1.125 10.275 0.0 131 162 182
-0.275 10.225000000000001 0.0 143 169 188
0.775 10.625 0.0 137 164 184
1.125 10.625 0.0 131 160 180
1.725 10.675 0.0 130 162 183
3.0250000000000004 10.925 0.0 246 246 246
-1.725 10.275 0.0 246 246 246
-0.675 10.475000000000001 0.0 131 161 181
-0.275 10.325000000000001 0.0 133 163 183
-0.025 10.375 0.0 144 165 180
1.2750000000000001 10.675 0.0 140 168 186
1.375 10.625 0.0 134 164 184
2.6750000000000003 10.875 0.0 246 246 246
3.2750000000000004 10.375 0.0 143 143 143
-2.025 10.375 0.0 246 246 246
-1.7750000000000001 10.325000000000001 0.0 246 246 246
0.07500000000000001 10.525 0.0 193 207 215
1.925 10.625 0.0 130 161 182
-1.5250000000000001 10.425 0.0 246 246 246
0.07500000000000001 10.275 0.0 184 200 210
0.775 10.475000000000001 0.0 161 178 188
0.875 10.475000000000001 0.0 182 198 209
1.225 10.575000000000001 0.0 132 162 181
1.375 10.675 0.0 132 163 184
1.925 10.675 0.0 129 161 182
2.1750000000000003 10.675 0.0 125 158 179
3.225 10.975000000000001 0.0 232 232 232
-1.925 10.325000000000001 0.0 246 246 246
-0.675 10.375 0.0 128 157 177
0.07500000000000001 10.125 0.0 213 213 211
0.625 10.425 0.0 174 191 202
2.375 10.775 0.0 246 247 247
-0.07500000000000001 10.075000000000001 0.0 163 184 198
0.625 10.675 0.0 169 188 201
2.025 10.725000000000001 0.0 124 158 180
2.125 10.625 0.0 125 158 180
2.975 10.975000000000001 0.0 246 246 246
0.275 10.725000000000001 0.0 143 169 187
1.3250000000000002 10.575000000000001 0.0 132 162 182
2.975 10.925 0.0 246 246 246
0.275 10.775 0.0 145 171 189
2.275 10.675 0.0 147 175 193
-1.5250000000000001 10.075000000000001 0.0 246 246 246
-0.925 10.075000000000001 0.0 150 174 191
0.025 10.525 0.0 155 173 186
1.875 10.525 0.0 138 165 182
3.325 10.975000000000001 0.0 145 145 145
3.4250000000000003 10.625 0.0 219 220 220
-1.725 9.775 0.0 139 169 86
-1.5750000000000002 9.625 0.0 115 151 68
-0.5750000000000001 10.325000000000001 0.0 141 168 187
-0.125 10.475000000000001 0.0 152 176 192
0.47500000000000003 10.425 0.0 130 161 182
1.425 10.475000000000001 0.0 134 150 161
1.5250000000000001 10.425 0.0 97 118 132
1.7750000000000001 10.475000000000001 0.0 125 147 163
1.975 10.425 0.0 159 167 173
-1.675 9.525 0.0 151 176 109
-1.5750000000000002 9.525 0.0 104 126 83
0.5750000000000001 10.325000000000001 0.0 129 160 181
0.7250000000000001 10.325000000000001 0.0 120 150 170
0.925 10.275 0.0 111 112 110
1.875 10.425 0.0 208 208 208
3.375 10.175 0.0 246 246 246
3.7750000000000004 10.275 0.0 246 246 246
0.625 10.525 0.0 142 168 185
1.2750000000000001 10.525 0.0 140 166 184
3.225 11.075000000000001 0.0 246 246 246
3.375 10.475000000000001 0.0 139 139 139
3.4250000000000003 10.125 0.0 246 246 246
-1.975 10.325000000000001 0.0 246 246 246
-1.625 10.325000000000001 0.0 246 246 245
-1.425 10.425 0.0 246 246 246
-0.7250000000000001 10.325000000000001 0.0 136 164 184
-0.625 10.375 0.0 141 167 185
0.17500000000000002 10.875 0.0 143 169 188
0.525 10.725000000000001 0.0 151 174 191
0.7250000000000001 10.675 0.0 170 187 199
2.625 10.825000000000001 0.0 246 246 246
2.7750000000000004 10.975000000000001 0.0 246 246 246
3.0250000000000004 11.075000000000001 0.0 247 247 247
3.325 10.125 0.0 247 247 247
-1.175 10.225000000000001 0.0 136 165 185
-0.925 10.175 0.0 116 136 150
-0.7250000000000001 10.375 0.0 135 164 184
-0.525 10.525 0.0 145 171 188
3.2750000000000004 10.525 0.0 138 138 138
3.325 10.325000000000001 0.0 140 141 140
-5.425000000000001 10.025 0.0 193 193 193
-1.425 10.475000000000001 0.0 246 246 246
-1.075 10.275 0.0 133 163 183
-0.17500000000000002 10.325000000000001 0.0 144 169 187
0.07500000000000001 10.675 0.0 163 184 197
0.525 10.975000000000001 0.0 167 187 201
0.7250000000000001 10.775 0.0 194 202 207
1.075 10.675 0.0 189 203 211
1.625 10.675 0.0 133 163 183
1.8250000000000002 10.675 0.0 133 163 183
3.575 10.175 0.0 246 246 246
-1.7750000000000001 10.525 0.0 246 247 246
-1.3250000000000002 10.525 0.0 246 247 247
-0.525 10.425 0.0 136 165 185
0.17500000000000002 10.475000000000001 0.0 200 210 216
0.7250000000000001 10.575000000000001 0.0 169 188 201
1.2750000000000001 10.625 0.0 136 165 185
2.5250000000000004 10.875 0.0 246 246 246
-1.675 10.525 0.0 246 246 246
-1.3250000000000002 10.575000000000001 0.0 246 246 246
-0.025 10.025 0.0 203 206 208
3.6750000000000003 10.125 0.0 246 246 245
-5.4750000000000005 10.025 0.0 153 152 152
-0.42500000000000004 10.475000000000001 0.0 137 165 184
0.7250000000000001 10.375 0.0 149 167 178
2.1750000000000003 10.725000000000001 0.0 123 157 179
1.075 10.375 0.0 130 147 159
-2.075 10.525 0.0 247 247 247
-0.42500000000000004 10.875 0.0 143 169 187
0.17500000000000002 10.575000000000001 0.0 143 169 187
1.725 10.525 0.0 127 159 181
3.725 10.175 0.0 246 246 246
-1.725 10.075000000000001 0.0 196 219 120
-1.5750000000000002 9.975000000000001 0.0 226 234 198
-1.3250000000000002 10.275 0.0 246 247 246
-1.175 10.275 0.0 130 156 173
-0.07500000000000001 10.725000000000001 0.0 143 170 188
2.6750000000000003 10.825000000000001 0.0 246 246 246
3.225 10.525 0.0 141 142 141
3.5250000000000004 10.175 0.0 246 246 246
-1.175 10.125 0.0 144 172 189
0.9750000000000001 10.625 0.0 150 174 190
3.225 10.825000000000001 0.0 141 142 141
-5.575 10.025 0.0 208 208 208
-1.475 9.425 0.0 188 205 158
0.025 10.575000000000001 0.0 187 201 208
3.625 10.025 0.0 246 246 246
0.375 10.475000000000001 0.0 167 186 198
1.875 10.775 0.0 145 172 190
-0.375 10.175 0.0 149 175 191
3.575 10.225000000000001 0.0 247 247 247
-0.625 10.175 0.0 144 144 143
-0.17500000000000002 10.575000000000001 0.0 145 170 187
0.9750000000000001 10.425 0.0 130 144 153
1.075 10.325000000000001 0.0 130 130 130
1.175 10.425 0.0 135 149 158
1.725 10.425 0.0 169 169 169
1.975 10.475000000000001 0.0 169 179 185
2.075 10.425 0.0 141 141 141
2.325 10.725000000000001 0.0 246 246 246
2.575 10.725000000000001 0.0 246 246 246
3.7750000000000004 10.225000000000001 0.0 246 247 246
-5.775 10.025 0.0 242 242 242
-5.575 10.075000000000001 0.0 148 147 147
-0.42500000000000004 10.275 0.0 150 167 179
0.7250000000000001 10.175 0.0 8 8 7
-5.9750000000000005 9.925 0.0 243 243 243
-5.875 9.975000000000001 0.0 243 243 243
-5.675000000000001 10.025 0.0 244 244 244
-5.625 10.175 0.0 172 172 171
-1.7750000000000001 9.675 0.0 137 160 107
0.625 5.375 0.0 54 47 26
1.875 5.575 0.0 210 169 122
0.625 5.425000000000001 0.0 120 113 86
0.625 5.325 0.0 236 229 195
1.125 10.475000000000001 0.0 132 155 170
0.025 10.425 0.0 140 168 186
0.325 10.425 0.0 180 186 189
0.225 10.725000000000001 0.0 142 168 187
0.7250000000000001 10.725000000000001 0.0 145 171 188
-1.3250000000000002 10.425 0.0 246 246 246
1.0250000000000001 10.725000000000001 0.0 242 241 239
-0.7250000000000001 10.775 0.0 147 173 191
-0.275 10.475000000000001 0.0 145 170 188
-0.17500000000000002 10.375 0.0 143 169 188
0.925 10.775 0.0 245 244 242
1.175 10.325000000000001 0.0 145 171 190
-1.875 10.375 0.0 246 246 246
-1.5250000000000001 10.325000000000001 0.0 246 247 246
-1.375 10.225000000000001 0.0 245 245 245
-0.07500000000000001 10.375 0.0 148 171 187
1.2750000000000001 10.425 0.0 136 149 158
-0.225 10.525 0.0 137 166 185
0.025 10.075000000000001 0.0 245 244 242
0.125 10.225000000000001 0.0 162 169 172
0.375 10.275 0.0 154 154 153
-1.2750000000000001 10.575000000000001 0.0 237 239 240
-0.925 10.325000000000001 0.0 133 163 183
0.125 9.975000000000001 0.0 235 235 233
0.275 10.175 0.0 150 161 169
1.425 10.425 0.0 147 156 162
-0.8250000000000001 10.375 0.0 132 162 182
-0.025 10.275 0.0 152 174 187
-5.425000000000001 10.175 0.0 193 194 193
-1.2750000000000001 10.475000000000001 0.0 244 245 245
-0.8250000000000001 10.325000000000001 0.0 135 162 181
-0.125 10.775 0.0 142 169 188
1.3250000000000002 10.475000000000001 0.0 131 159 179
2.7750000000000004 11.125 0.0 246 246 246
-5.425000000000001 10.125 0.0 198 199 198
-0.675 10.625 0.0 134 164 184
-0.275 10.975000000000001 0.0 141 168 187
2.6750000000000003 11.075000000000001 0.0 246 245 246
-5.675000000000001 11.025 0.0 217 217 217
-5.575 11.125 0.0 217 218 217
-1.7750000000000001 10.225000000000001 0.0 245 245 245
-4.625 10.025 0.0 137 137 137
-1.475 10.175 0.0 246 246 246
-1.2750000000000001 10.275 0.0 246 247 246
-0.07500000000000001 10.575000000000001 0.0 138 167 186
0.275 10.475000000000001 0.0 157 179 193
0.675 10.575000000000001 0.0 162 184 198
-0.9750000000000001 10.325000000000001 0.0 127 158 180
-0.875 10.475000000000001 0.0 130 160 182
-0.675 10.225000000000001 0.0 122 137 147
-0.5750000000000001 10.525 0.0 140 168 187
-0.375 10.225000000000001 0.0 140 168 187
-1.125 10.475000000000001 0.0 134 162 182
0.125 10.425 0.0 139 167 186
0.925 10.425 0.0 120 145 162
1.3250000000000002 10.375 0.0 188 187 187
-0.9750000000000001 10.025 0.0 133 163 184
-5.4750000000000005 11.225000000000001 0.0 194 194 194
-4.7250000000000005 10.175 0.0 89 86 86
-1.5750000000000002 10.875 0.0 246 246 246
-0.775 10.175 0.0 94 112 124
-0.47500000000000003 10.075000000000001 0.0 212 213 213
0.225 10.175 0.0 163 171 177
-5.425000000000001 10.225000000000001 0.0 192 193 192
-5.525 11.175 0.0 192 192 192
-1.5250000000000001 10.625 0.0 247 247 247
-0.47500000000000003 10.225000000000001 0.0 150 157 162
-5.925000000000001 9.975000000000001 0.0 245 246 245
-5.775 9.925 0.0 247 247 247
-5.525 10.275 0.0 208 209 208
-2.1750000000000003 10.475000000000001 0.0 246 246 246
-0.775 9.925 0.0 204 204 204
-0.675 9.975000000000001 0.0 202 202 202
-1.675 9.625 0.0 176 192 150
-5.7250000000000005 9.925 0.0 246 246 246
-5.9750000000000005 10.025 0.0 242 242 242
-5.675000000000001 10.575000000000001 0.0 223 224 223
-6.275 10.025 0.0 242 242 242
-5.7250000000000005 10.075000000000001 0.0 246 246 246
-5.4750000000000005 10.075000000000001 0.0 199 199 199
0.675 5.375 0.0 136 123 84
0.675 5.4750000000000005 0.0 146 140 117
0.675 5.425000000000001 0.0 104 91 54
-0.625 10.575000000000001 0.0 123 156 178
0.125 10.575000000000001 0.0 173 191 202
0.325 10.625 0.0 135 165 184
0.675 10.475000000000001 0.0 151 174 189
-4.525 9.975000000000001 0.0 130 129 129
-2.025 10.125 0.0 242 243 241
-0.875 10.225000000000001 0.0 135 163 183
2.475 10.775 0.0 246 246 246
3.075 10.925 0.0 246 246 246
-1.5750000000000002 10.575000000000001 0.0 245 246 245
-0.9750000000000001 10.225000000000001 0.0 130 161 181
-0.7250000000000001 10.475000000000001 0.0 133 163 183
0.025 10.675 0.0 156 180 194
0.225 10.675 0.0 144 170 188
0.8250000000000001 10.675 0.0 140 168 187
-1.375 10.625 0.0 246 246 246
1.175 10.675 0.0 124 158 180
2.325 10.675 0.0 246 246 246
-0.8250000000000001 10.225000000000001 0.0 117 140 155
1.125 10.675 0.0 242 242 238
0.025 10.275 0.0 161 181 194
-5.625 10.825000000000001 0.0 210 210 210
-5.7250000000000005 11.175 0.0 178 179 179
0.025 10.025 0.0 244 243 241
-0.375 10.575000000000001 0.0 145 170 188
-0.275 10.575000000000001 0.0 136 164 183
1.475 10.675 0.0 124 158 180
-1.8250000000000002 10.175 0.0 246 246 246
2.7750000000000004 10.825000000000001 0.0 246 246 246
-1.5750000000000002 10.175 0.0 246 246 246
-1.075 10.125 0.0 70 85 95
-0.5750000000000001 10.675 0.0 133 162 182
-0.275 10.725000000000001 0.0 133 163 183
2.475 10.725000000000001 0.0 246 246 246
-5.4750000000000005 10.675 0.0 178 179 178
-1.3250000000000002 10.225000000000001 0.0 246 246 246
-0.47500000000000003 10.625 0.0 135 163 183
-1.8250000000000002 9.775 0.0 247 247 247
-1.375 10.075000000000001 0.0 246 246 246
-1.3250000000000002 10.175 0.0 246 246 246
-5.4750000000000005 10.425 0.0 176 176 175
-1.625 9.375 0.0 72 112 22
2.275 10.725000000000001 0.0 157 183 199
-1.725 9.425 0.0 182 208 120
-1.425 9.375 0.0 108 134 82
-0.8250000000000001 10.125 0.0 132 162 182
-0.225 10.225000000000001 0.0 140 168 187
-5.7250000000000005 10.875 0.0 225 225 225
-1.725 9.725000000000001 0.0 186 196 167
-1.5750000000000002 9.925 0.0 229 233 220
-0.7250000000000001 10.175 0.0 131 134 137
0.225 10.325000000000001 0.0 169 179 185
-1.625 10.125 0.0 246 246 246
0.42500000000000004 10.175 0.0 108 137 157
1.0250000000000001 10.275 0.0 108 108 108
1.5750000000000002 10.425 0.0 114 117 119
2.5250000000000004 10.725000000000001 0.0 246 246 246
-5.525 10.225000000000001 0.0 208 208 208
-1.975 9.875 0.0 246 247 246
-0.9750000000000001 9.875 0.0 10 11 10
0.775 5.425000000000001 0.0 215 215 215
0.675 5.325 0.0 142 124 71
3.325 10.725000000000001 0.0 186 186 185
0.525 10.675 0.0 132 161 182
3.375 10.375 0.0 189 190 189
-1.0250000000000001 10.375 0.0 130 160 180
-0.47500000000000003 10.325000000000001 0.0 141 168 187
0.625 10.775 0.0 141 170 190
3.375 10.325000000000001 0.0 196 197 197
-1.225 10.375 0.0 160 183 199
-0.775 10.475000000000001 0.0 131 162 182
-0.025 10.625 0.0 184 198 206
0.675 10.725000000000001 0.0 194 202 207
0.9750000000000001 10.675 0.0 190 203 212
-0.875 10.375 0.0 131 161 182
-0.025 10.075000000000001 0.0 168 188 200
-1.125 10.225000000000001 0.0 119 147 166
-0.025 10.175 0.0 135 164 184
-1.925 10.225000000000001 0.0 246 246 246
0.675 10.425 0.0 167 188 201
2.225 10.825000000000001 0.0 130 161 182
-1.675 10.225000000000001 0.0 245 245 245
-0.47500000000000003 10.875 0.0 146 172 190
-0.375 10.975000000000001 0.0 138 166 185
-0.17500000000000002 10.875 0.0 136 166 186
0.025 10.775 0.0 135 163 184
-1.725 10.025 0.0 193 219 118
-0.47500000000000003 10.675 0.0 132 163 183
0.125 10.825000000000001 0.0 139 168 187
-1.7750000000000001 9.925 0.0 194 221 110
-0.17500000000000002 10.675 0.0 135 165 185
-1.5750000000000002 9.675 0.0 150 174 124
-1.125 10.425 0.0 135 165 184
3.475 10.125 0.0 246 247 246
-1.675 9.475 0.0 230 234 221
-1.425 9.725000000000001 0.0 27 52 5
-1.375 9.975000000000001 0.0 226 233 214
3.4250000000000003 10.975000000000001 0.0 188 188 188
-1.7750000000000001 9.625 0.0 86 133 8
-0.7250000000000001 10.225000000000001 0.0 125 126 126
-0.025 10.525 0.0 181 196 205
1.7750000000000001 10.425 0.0 187 187 187
-0.675 10.275 0.0 130 148 160
0.875 10.175 0.0 40 41 40
-0.275 10.175 0.0 143 170 188
0.42500000000000004 10.675 0.0 139 167 185
-1.075 10.175 0.0 138 166 185
0.775 10.725000000000001 0.0 141 170 189
-1.975 10.175 0.0 247 247 247
0.17500000000000002 10.825000000000001 0.0 150 176 194
0.5750000000000001 10.725000000000001 0.0 203 204 205
0.07500000000000001 10.175 0.0 223 222 222
-1.625 10.225000000000001 0.0 246 246 246
-1.875 10.125 0.0 247 247 247
-1.725 9.875 0.0 223 234 191
-1.375 10.175 0.0 244 245 243
-5.575 11.025 0.0 224 224 224
-1.475 10.225000000000001 0.0 246 246 246
-1.2750000000000001 10.175 0.0 247 247 247
-4.9750000000000005 10.475000000000001 0.0 79 77 78
-5.7250000000000005 12.325000000000001 0.0 188 188 188
-1.8250000000000002 9.525 0.0 106 153 46
-1.475 9.725000000000001 0.0 29 52 7
-1.425 9.875 0.0 157 189 114
0.325 10.275 0.0 118 136 149
0.17500000000000002 10.225000000000001 0.0 116 129 137
0.42500000000000004 10.225000000000001 0.0 102 102 102
0.925 10.225000000000001 0.0 54 54 54
-0.675 10.175 0.0 182 182 182
0.325 10.075000000000001 0.0 65 65 65
0.675 10.275 0.0 75 94 107
0.7250000000000001 10.225000000000001 0.0 2 2 2
-5.575 10.625 0.0 189 189 189
-4.625 10.075000000000001 0.0 194 194 194
0.7250000000000001 5.425000000000001 0.0 199 199 194
-1.075 10.225000000000001 0.0 127 159 180
3.2750000000000004 10.775 0.0 187 188 187
-1.875 10.175 0.0 247 247 247
-1.975 9.975000000000001 0.0 247 247 247
-1.125 10.175 0.0 134 163 184
-1.5250000000000001 9.475 0.0 67 99 21
-1.425 9.575000000000001 0.0 141 151 130
-1.475 9.675 0.0 43 81 6
-0.225 10.175 0.0 141 169 188
-1.5250000000000001 9.925 0.0 241 241 239
-2.075 10.075000000000001 0.0 246 246 246
-3.125 10.675 0.0 119 78 34
-0.625 10.075000000000001 0.0 165 165 165
1.925 6.9750000000000005 0.0 236 39 39
1.625 10.725000000000001 0.0 129 162 183
1.725 10.725000000000001 0.0 124 157 180
1.875 10.725000000000001 0.0 119 155 177
2.6750000000000003 10.975000000000001 0.0 246 246 246
0.275 10.225000000000001 0.0 244 243 240
-6.025 12.675 0.0 172 173 172
-6.325 13.575000000000001 0.0 164 164 164
-2.275 10.775 0.0 247 247 247
-1.5250000000000001 9.825000000000001 0.0 241 243 238
-0.775 10.575000000000001 0.0 132 162 182
-1.3250000000000002 9.725000000000001 0.0 207 215 194
-1.875 9.625 0.0 195 212 169
0.925 10.125 0.0 50 50 50
-4.7250000000000005 10.675 0.0 175 176 175
-0.625 10.225000000000001 0.0 167 167 167
0.875 10.675 0.0 126 159 181
-2.075 10.325000000000001 0.0 246 246 246
-2.225 10.625 0.0 246 247 246
-1.675 10.175 0.0 246 246 246
2.475 10.875 0.0 247 247 247
0.375 10.025 0.0 130 130 130
-3.075 10.475000000000001 0.0 18 18 19
-0.7250000000000001 10.075000000000001 0.0 150 151 150
1.3250000000000002 10.675 0.0 118 153 177
1.8250000000000002 10.725000000000001 0.0 120 157 180
1.375 10.725000000000001 0.0 121 156 178
-6.325 13.975000000000001 0.0 187 187 188
-0.125 10.675 0.0 121 155 178
-6.125 13.025 0.0 219 219 219
-6.2250000000000005 13.575000000000001 0.0 216 216 216
-0.025 10.225000000000001 0.0 141 169 188
1.425 10.325000000000001 0.0 107 107 107
1.475 10.325000000000001 0.0 123 122 123
-6.2250000000000005 13.425 0.0 188 188 187
-6.175000000000001 13.475000000000001 0.0 183 183 183
-6.275 13.225000000000001 0.0 214 214 214
-6.125 13.175 0.0 188 188 188
-5.775 10.775 0.0 223 223 223
-5.625 10.925 0.0 234 234 234
-6.525 9.875 0.0 36 77 107
-1.475 9.625 0.0 154 171 131
-6.025 12.725000000000001 0.0 218 219 218
-6.025 11.425 0.0 230 230 230
-0.925 9.975000000000001 0.0 200 200 200
-5.625 10.225000000000001 0.0 235 236 235
-6.4750000000000005 9.825000000000001 0.0 89 124 132
-5.675000000000001 10.475000000000001 0.0 217 218 217
-6.4750000000000005 9.175 0.0 20 20 20
-1.075 10.425 0.0 105 143 168
-0.7250000000000001 10.625 0.0 118 152 175
-5.7250000000000005 10.825000000000001 0.0 237 237 237
-6.075 10.125 0.0 245 245 245
-5.925000000000001 10.275 0.0 242 243 242
-5.4750000000000005 10.975000000000001 0.0 230 231 230
-6.175000000000001 12.875 0.0 233 233 233
-6.575 10.025 0.0 244 244 244
-6.525 10.125 0.0 244 244 244
-5.925000000000001 10.225000000000001 0.0 242 242 242
-6.075 12.925 0.0 235 235 235
-5.9750000000000005 11.975000000000001 0.0 237 237 237
-5.875 11.825000000000001 0.0 230 230 230
-6.575 9.825000000000001 0.0 34 74 105
-6.575 9.925 0.0 43 84 114
-5.875 11.075000000000001 0.0 232 233 232
-6.575 9.725000000000001 0.0 58 109 143
-6.825 10.075000000000001 0.0 34 74 105
-5.825 11.025 0.0 231 231 231
-5.925000000000001 11.825000000000001 0.0 228 228 228
-6.075 12.775 0.0 231 231 231
-1.625 9.475 0.0 78 120 21
-6.4750000000000005 10.025 0.0 241 241 241
-6.275 9.725000000000001 0.0 239 241 236
-6.175000000000001 9.975000000000001 0.0 241 241 241
-6.125 12.725000000000001 0.0 232 232 232
-6.175000000000001 10.075000000000001 0.0 243 243 243
-6.175000000000001 9.175 0.0 55 104 121
-8.125 9.275 0.0 7 8 7
-7.875 9.375 0.0 3 3 3
-6.875 9.925 0.0 72 124 157
-8.975 9.025 0.0 21 21 21
-8.325000000000001 9.175 0.0 8 8 8
-8.025 9.425 0.0 3 3 3
-6.075 10.175 0.0 240 240 240
-5.9750000000000005 10.175 0.0 241 241 241
-5.825 10.575000000000001 0.0 241 241 241
-5.775 11.975000000000001 0.0 238 238 238
-6.175000000000001 13.225000000000001 0.0 240 240 240
-6.275 9.875 0.0 147 171 188
-5.625 10.675 0.0 239 240 239
-9.425 9.525 0.0 54 107 143
-5.075 11.075000000000001 0.0 235 235 235
-8.925 9.525 0.0 56 108 144
-5.775 10.325000000000001 0.0 238 238 238
-5.9750000000000005 10.075000000000001 0.0 244 244 244
-8.925 9.375 0.0 38 58 73
-5.9750000000000005 11.775 0.0 237 237 237
-6.7250000000000005 10.275 0.0 243 243 243
-6.125 10.025 0.0 243 244 243
-6.025 9.175 0.0 71 120 58
-6.175000000000001 13.325000000000001 0.0 240 241 240
-8.825000000000001 9.775 0.0 55 110 145
-5.9750000000000005 9.125 0.0 106 155 33
-6.025 9.025 0.0 68 119 114
-5.825 10.875 0.0 239 239 239
-5.9750000000000005 8.975 0.0 60 109 96
-7.7250000000000005 9.225 0.0 6 7 6
-9.275 9.075000000000001 0.0 27 28 27
-8.975 9.075000000000001 0.0 11 12 11
-8.625 9.175 0.0 7 8 7
-8.175 9.225 0.0 7 7 7
-9.175 9.175 0.0 4 4 4
-7.875 8.925 0.0 1 1 1
-7.825 9.425 0.0 6 7 6
-5.9750000000000005 8.925 0.0 84 109 98
-6.075 9.275 0.0 56 107 142
-8.525 8.825000000000001 0.0 9 9 9
-7.7250000000000005 9.025 0.0 7 7 7
-5.775 10.725000000000001 0.0 241 241 241
-5.9750000000000005 12.875 0.0 241 241 241
-6.2250000000000005 9.925 0.0 240 240 240
-5.9750000000000005 10.225000000000001 0.0 240 240 240
-5.675000000000001 10.175 0.0 243 243 243
-5.825 10.675 0.0 242 242 242
-6.125 13.425 0.0 241 241 241
-6.2250000000000005 14.175 0.0 241 241 241
-6.2250000000000005 14.375 0.0 242 242 242
-6.425000000000001 9.875 0.0 240 240 240
-6.175000000000001 9.825000000000001 0.0 241 241 241
-6.175000000000001 13.725000000000001 0.0 240 240 240
-6.175000000000001 14.325000000000001 0.0 241 241 241
-5.925000000000001 10.175 0.0 241 241 241
-5.925000000000001 12.625 0.0 242 242 242
-6.375 15.675 0.0 241 241 241
-6.275 9.825000000000001 0.0 149 173 155
-5.875 10.225000000000001 0.0 241 242 241
-6.375 15.275 0.0 241 241 241
-6.325 15.625 0.0 241 241 241
-5.325 11.375 0.0 54 54 54
-6.125 14.225000000000001 0.0 241 241 241
-6.375 15.225000000000001 0.0 241 241 241
-9.675 9.275 0.0 47 99 134
-5.775 10.475000000000001 0.0 241 241 241
-5.7250000000000005 10.675 0.0 242 242 242
-6.125 12.075000000000001 0.0 241 241 241
-5.825 12.525 0.0 241 241 241
-6.175000000000001 14.125 0.0 242 242 242
-9.225 9.325000000000001 0.0 99 93 82
-8.925 9.575000000000001 0.0 50 102 137
-5.9750000000000005 10.275 0.0 240 240 240
-5.775 10.225000000000001 0.0 243 243 242
-5.875 12.425 0.0 241 241 241
-9.975000000000001 9.275 0.0 108 103 92
-8.625 9.275 0.0 48 97 131
-6.125 14.025 0.0 241 241 241
-10.075000000000001 9.275 0.0 189 187 180
-9.825000000000001 9.325000000000001 0.0 76 85 88
-9.425 9.375 0.0 45 94 128
-7.175000000000001 10.125 0.0 51 102 136
-6.025 12.075000000000001 0.0 241 241 241
-9.925 9.325000000000001 0.0 49 102 137
-9.475 9.375 0.0 50 101 136
-9.675 9.625 0.0 50 102 137
-6.775 10.175 0.0 241 241 241
-5.675000000000001 10.325000000000001 0.0 241 241 241
-6.125 13.275 0.0 242 242 242
-6.2250000000000005 15.175 0.0 241 242 241
-7.125 9.725000000000001 0.0 51 100 133
-6.125 13.775 0.0 241 241 241
-6.2250000000000005 15.025 0.0 242 242 242
-8.525 9.925 0.0 50 101 136
-5.875 10.175 0.0 242 242 242
-6.075 11.975000000000001 0.0 241 241 241
-6.325 14.475000000000001 0.0 242 242 242
-8.525 9.775 0.0 50 103 138
-6.325 9.125 0.0 105 154 14
-5.925000000000001 9.175 0.0 78 134 9
-6.025 11.925 0.0 240 241 240
-5.7250000000000005 9.025 0.0 46 99 134
-6.4750000000000005 10.175 0.0 241 241 241
-9.775 9.425 0.0 48 100 135
-8.625 9.525 0.0 48 99 134
-5.875 9.025 0.0 50 103 139
-5.575 10.425 0.0 241 241 241
-7.7250000000000005 9.425 0.0 49 101 137
-6.325 9.325000000000001 0.0 49 101 136
-9.325000000000001 9.175 0.0 16 17 16
-8.375 9.125 0.0 5 5 5
-8.175 9.425 0.0 4 4 4
-6.125 9.925 0.0 241 241 241
-10.025 8.675 0.0 8 8 8
-7.875 9.325000000000001 0.0 8 8 8
-5.7250000000000005 10.725000000000001 0.0 241 241 241
-5.925000000000001 12.325000000000001 0.0 241 241 241
-6.775 9.625 0.0 51 102 136
-6.7250000000000005 9.725000000000001 0.0 51 102 137
-6.125 11.625 0.0 242 242 242
-5.925000000000001 12.375 0.0 242 242 242
-6.025 12.625 0.0 242 242 242
-5.925000000000001 12.725000000000001 0.0 241 241 241
-6.025 13.025 0.0 242 242 242
-9.525 9.375 0.0 30 36 41
-9.325000000000001 9.475 0.0 165 163 153
-5.925000000000001 12.175 0.0 241 241 241
-6.025 13.075000000000001 0.0 242 242 242
-6.325 14.825000000000001 0.0 242 242 242
-6.7250000000000005 9.675 0.0 50 100 135
-5.825 12.225000000000001 0.0 241 241 241
-6.2250000000000005 14.725000000000001 0.0 242 242 242
-9.625 9.275 0.0 219 216 208
-6.175000000000001 13.925 0.0 241 241 241
-9.475 9.175 0.0 92 92 88
-9.475 9.275 0.0 177 176 168
-9.725000000000001 9.425 0.0 48 99 134
-9.325000000000001 9.425 0.0 47 97 132
-9.125 9.475 0.0 50 102 137
-6.325 13.925 0.0 241 241 241
-6.2250000000000005 14.025 0.0 241 242 241
-8.075000000000001 9.625 0.0 50 102 138
-6.325 14.425 0.0 242 241 241
-8.875 9.775 0.0 48 99 134
-5.675000000000001 9.075000000000001 0.0 84 150 11
-5.675000000000001 10.425 0.0 242 242 242
-8.775 9.725000000000001 0.0 48 98 133
-6.175000000000001 9.025 0.0 69 122 76
-6.275 9.175 0.0 97 141 20
-5.925000000000001 11.075000000000001 0.0 242 242 242
-6.2250000000000005 13.775 0.0 241 242 241
-10.225000000000001 9.425 0.0 44 95 130
-10.175 9.525 0.0 46 98 133
-5.875 9.125 0.0 47 99 134
-5.825 9.175 0.0 57 106 140
-5.625 10.475000000000001 0.0 242 242 242
-6.125 13.925 0.0 241 242 241
-10.075000000000001 9.075000000000001 0.0 6 6 6
-9.825000000000001 9.125 0.0 7 8 7
-9.575000000000001 9.225 0.0 10 10 9
-5.875 8.825000000000001 0.0 74 122 7
-6.125 9.425 0.0 52 97 100
-6.325 10.175 0.0 241 242 241
-5.9750000000000005 11.475000000000001 0.0 242 242 242
-11.275 8.775 0.0 10 12 10
-9.475 9.075000000000001 0.0 10 10 10
-7.925000000000001 9.225 0.0 6 7 6
-5.775 8.725 0.0 54 102 21
-6.075 13.575000000000001 0.0 241 241 241
-9.525 8.975 0.0 9 9 9
-8.325000000000001 9.125 0.0 5 5 5
-9.475 8.925 0.0 5 5 5
-9.225 9.075000000000001 0.0 5 5 5
-8.625 9.025 0.0 6 7 6
-7.575 9.125 0.0 8 9 8
-7.625 9.275 0.0 9 10 9
-6.125 9.175 0.0 48 99 133
-5.825 8.875 0.0 13 13 13
-5.925000000000001 9.025 0.0 13 13 13
-5.375 9.875 0.0 212 212 212
-5.775 12.125 0.0 239 239 239
-5.925000000000001 12.775 0.0 240 240 240
-5.9750000000000005 13.175 0.0 240 240 240
-5.9750000000000005 13.375 0.0 240 240 240
-5.525 10.175 0.0 239 239 239
-5.525 11.125 0.0 239 239 239
-5.825 12.625 0.0 240 240 240
-6.425000000000001 15.925 0.0 241 241 241
-9.525 9.275 0.0 231 229 222
-6.275 14.725000000000001 0.0 240 240 240
-6.425000000000001 9.975000000000001 0.0 242 242 242
-6.275 14.925 0.0 241 241 241
-6.275 15.425 0.0 241 241 241
-6.2250000000000005 15.075000000000001 0.0 240 240 240
-10.775 9.425 0.0 51 103 138
-9.975000000000001 9.225 0.0 50 104 139
-9.125 9.425 0.0 52 104 138
-7.125 9.675 0.0 55 105 138
-11.375 9.325000000000001 0.0 52 104 139
-10.725000000000001 9.475 0.0 51 104 139
-8.325000000000001 10.025 0.0 51 106 141
-11.125 9.425 0.0 50 103 138
-6.075 9.025 0.0 73 123 50
-6.125 9.475 0.0 68 115 104
-6.375 10.125 0.0 242 242 242
-8.475 9.625 0.0 52 102 137
-5.525 9.925 0.0 243 243 243
-8.925 9.225 0.0 25 45 58
-8.525 9.275 0.0 25 44 56
-10.525 8.925 0.0 8 9 8
-10.275 8.925 0.0 6 7 6
-9.375 9.175 0.0 13 13 13
-8.175 9.325000000000001 0.0 6 7 6
-10.625 8.825000000000001 0.0 11 11 11
-10.025 8.825000000000001 0.0 7 7 7
-9.775 8.725 0.0 59 60 60
-9.225 8.975 0.0 6 6 6
-8.375 8.975 0.0 6 7 6
-7.875 9.125 0.0 7 8 7
-10.075000000000001 8.575000000000001 0.0 7 7 7
-7.925000000000001 9.025 0.0 8 8 8
-7.775 9.175 0.0 9 9 9
-9.725000000000001 8.475 0.0 7 7 7
-8.925 8.575000000000001 0.0 7 8 7
-5.825 8.975 0.0 12 12 12
-5.375 9.975000000000001 0.0 241 241 241
-5.775 11.175 0.0 240 240 240
-6.075 14.625 0.0 240 240 240
-5.925000000000001 13.275 0.0 240 240 240
-8.775 9.375 0.0 141 165 178
-5.925000000000001 12.525 0.0 240 240 240
-5.875 12.775 0.0 240 240 240
-6.075 13.475000000000001 0.0 239 239 239
-5.775 11.125 0.0 241 241 241
-6.2250000000000005 14.625 0.0 240 240 240
-4.825 10.925 0.0 241 241 241
-8.775 9.325000000000001 0.0 52 103 138
-9.575000000000001 9.475 0.0 51 103 138
-9.475 9.525 0.0 50 100 135
-9.525 9.525 0.0 52 104 139
-6.675000000000001 9.975000000000001 0.0 241 241 241
-9.225 9.775 0.0 50 103 139
-9.775 9.525 0.0 50 104 139
-9.625 9.525 0.0 51 104 140
-10.925 9.425 0.0 50 104 139
-9.175 9.725000000000001 0.0 51 103 138
-8.625 9.675 0.0 51 103 137
-5.875 9.925 0.0 241 241 241
-9.725000000000001 9.475 0.0 51 102 137
-7.9750000000000005 9.525 0.0 29 56 73
-6.125 14.275 0.0 241 241 241
-6.075 13.675 0.0 240 240 240
-7.925000000000001 9.575000000000001 0.0 51 102 137
-8.375 9.225 0.0 7 7 7
-7.825 9.325000000000001 0.0 6 7 6
-5.7250000000000005 8.775 0.0 55 100 48
-9.625 8.975 0.0 8 8 8
-8.325000000000001 9.275 0.0 5 5 5
-9.125 8.675 0.0 7 7 7
-7.925000000000001 8.975 0.0 10 11 10
-5.575 10.325000000000001 0.0 241 242 242
-6.025 13.725000000000001 0.0 242 242 242
-6.875 9.625 0.0 52 105 140
-5.875 12.175 0.0 241 241 241
-6.025 13.525 0.0 240 240 240
-6.275 14.625 0.0 242 242 242
-6.375 16.225 0.0 242 242 242
-6.4750000000000005 16.125 0.0 241 241 241
-9.275 9.525 0.0 36 60 75
-6.375 15.425 0.0 241 241 241
-8.025 9.725000000000001 0.0 52 105 139
-6.7250000000000005 9.625 0.0 51 101 136
-8.725 9.325000000000001 0.0 232 230 224
-9.125 9.325000000000001 0.0 230 228 222
-7.425000000000001 9.775 0.0 52 102 136
-10.225000000000001 9.275 0.0 51 103 138
-6.325 15.125 0.0 241 241 241
-7.125 9.775 0.0 52 105 139
-6.375 9.575000000000001 0.0 50 102 136
-6.2250000000000005 14.475000000000001 0.0 241 241 241
-6.075 9.075000000000001 0.0 56 105 121
-5.625 10.725000000000001 0.0 240 240 240
-7.7250000000000005 9.475 0.0 1 2 2
-6.375 9.425 0.0 74 103 67
-7.775 9.075000000000001 0.0 9 10 9
-6.125 10.225000000000001 0.0 241 241 241
-5.775 12.375 0.0 241 241 241
-6.775 9.675 0.0 53 103 137
-6.375 9.775 0.0 51 100 134
-5.675000000000001 11.075000000000001 0.0 241 241 241
-6.325 15.525 0.0 242 242 242
-6.4750000000000005 9.725000000000001 0.0 50 102 137
-5.875 12.575000000000001 0.0 241 241 241
-6.025 13.325000000000001 0.0 241 242 241
-6.275 15.675 0.0 241 241 241
-6.775 9.525 0.0 50 101 136
-4.525 9.925 0.0 242 242 242
-6.275 15.025 0.0 242 242 242
-7.875 9.675 0.0 51 101 136
-6.025 13.975000000000001 0.0 241 242 241
-6.175000000000001 9.325000000000001 0.0 49 100 136
-6.175000000000001 9.075000000000001 0.0 49 102 137
-5.9750000000000005 13.575000000000001 0.0 241 241 241
-8.975 9.575000000000001 0.0 49 103 138
-5.925000000000001 8.825000000000001 0.0 50 104 138
-9.425 8.925 0.0 10 11 10
-8.875 9.025 0.0 4 4 4
-5.925000000000001 9.875 0.0 241 241 241
-6.325 9.625 0.0 50 101 135
-8.225 8.725 0.0 6 6 6
-5.775 8.825000000000001 0.0 49 102 136
-5.325 9.925 0.0 240 240 241
-6.2250000000000005 9.725000000000001 0.0 240 240 240
-5.4750000000000005 9.775 0.0 240 240 240
-5.425000000000001 9.875 0.0 242 242 242
-6.125 14.375 0.0 242 243 242
-5.425000000000001 9.825000000000001 0.0 240 240 240
-7.875 9.725000000000001 0.0 49 100 136
-7.825 9.825000000000001 0.0 50 103 137
-7.825 9.725000000000001 0.0 49 99 134
-7.7250000000000005 9.825000000000001 0.0 50 101 136
-4.775 10.825000000000001 0.0 242 242 242
-5.875 10.875 0.0 242 242 242
-6.625 9.625 0.0 51 103 138
-6.125 14.075000000000001 0.0 241 241 241
-6.425000000000001 9.525 0.0 51 102 137
-6.4750000000000005 9.375 0.0 103 165 18
-6.425000000000001 8.975 0.0 58 110 100
-6.375 9.725000000000001 0.0 238 238 238
-9.425 9.125 0.0 6 6 6
-5.875 9.825000000000001 0.0 240 240 240
-8.475 9.025 0.0 6 7 6
-9.925 8.475 0.0 7 7 7
