ply
format ascii 1.0
element vertex 309
property float x
property float y
property float z
property uchar red
property uchar green
property uchar blue
end_header
0.125 0.07500000000000001 0.0 0 0 0
0.125 0.025 0.0 11 12 12
0.125 -0.025 0.0 2 2 2
5.125 0.775 0.0 228 228 228
5.025 -0.17500000000000002 0.0 246 246 246
5.025 0.525 0.0 246 246 246
5.025 0.42500000000000004 0.0 246 246 246
4.9750000000000005 0.5750000000000001 0.0 246 246 246
4.9750000000000005 0.7250000000000001 0.0 245 245 245
5.025 0.775 0.0 224 225 224
4.9750000000000005 0.325 0.0 246 246 246
4.9750000000000005 0.17500000000000002 0.0 245 246 245
4.925000000000001 0.42500000000000004 0.0 245 246 245
4.9750000000000005 0.125 0.0 245 246 245
4.925000000000001 0.325 0.0 246 246 246
4.925000000000001 0.07500000000000001 0.0 245 245 245
4.925000000000001 0.025 0.0 246 246 246
4.9750000000000005 -0.07500000000000001 0.0 246 246 246
4.925000000000001 0.17500000000000002 0.0 246 246 246
4.9750000000000005 0.025 0.0 246 246 246
4.925000000000001 0.8250000000000001 0.0 164 164 164
4.925000000000001 -0.125 0.0 246 246 246
4.925000000000001 -0.17500000000000002 0.0 245 245 245
5.075 0.625 0.0 246 246 246
5.075 0.525 0.0 246 246 245
5.075 0.675 0.0 246 246 246
5.025 0.675 0.0 246 246 246
4.9750000000000005 -0.025 0.0 246 246 246
4.925000000000001 -2.6750000000000003 0.0 199 199 199
5.925000000000001 -3.075 0.0 199 200 199
4.925000000000001 -2.825 0.0 226 226 226
4.925000000000001 0.7250000000000001 0.0 243 243 243
4.925000000000001 -0.025 0.0 246 246 246
4.925000000000001 0.625 0.0 245 246 245
4.125 0.42500000000000004 0.0 246 246 246
4.125 0.47500000000000003 0.0 245 245 245
4.075 0.5750000000000001 0.0 246 246 246
5.075 0.07500000000000001 0.0 246 246 246
5.075 0.025 0.0 245 245 245
5.075 -0.025 0.0 246 246 246
5.075 -0.125 0.0 246 246 246
5.175000000000001 0.7250000000000001 0.0 246 246 246
5.075 0.7250000000000001 0.0 246 246 246
4.925000000000001 0.47500000000000003 0.0 245 245 245
4.875 -0.025 0.0 246 246 246
5.075 0.42500000000000004 0.0 245 245 245
5.075 0.325 0.0 246 246 246
5.075 0.225 0.0 246 246 246
5.925000000000001 -2.725 0.0 69 68 68
5.925000000000001 -2.7750000000000004 0.0 57 54 54
5.925000000000001 -2.9250000000000003 0.0 197 197 196
4.925000000000001 -2.625 0.0 199 199 199
4.925000000000001 0.675 0.0 246 246 246
4.875 -2.625 0.0 198 199 198
4.875 -2.725 0.0 200 201 200
4.875 -2.7750000000000004 0.0 201 201 201
4.9750000000000005 -2.625 0.0 197 197 197
4.9750000000000005 -2.6750000000000003 0.0 200 200 200
4.9750000000000005 -2.7750000000000004 0.0 200 200 200
5.9750000000000005 -2.7750000000000004 0.0 51 50 50
5.9750000000000005 -2.9250000000000003 0.0 197 198 197
5.9750000000000005 -2.975 0.0 197 197 197
5.9750000000000005 -3.075 0.0 197 198 197
5.9750000000000005 -2.6750000000000003 0.0 9 8 7
4.9750000000000005 -2.875 0.0 246 246 246
5.925000000000001 -2.975 0.0 199 200 199
4.925000000000001 -2.875 0.0 246 246 246
5.925000000000001 -3.0250000000000004 0.0 201 201 201
5.075 -0.17500000000000002 0.0 246 246 246
3.5250000000000004 5.575 0.0 103 151 39
4.375 3.4250000000000003 0.0 239 239 239
4.575 7.025 0.0 20 18 18
1.875 7.325 0.0 215 218 218
3.1750000000000003 5.4750000000000005 0.0 208 217 193
3.4250000000000003 10.225000000000001 0.0 246 247 246
3.1750000000000003 10.125 0.0 246 246 246
-1.7750000000000001 9.775 0.0 155 174 125
-1.5750000000000002 9.875 0.0 92 143 19
-1.7750000000000001 9.675 0.0 149 179 114
-1.7750000000000001 9.725000000000001 0.0 206 216 201
-1.8250000000000002 9.625 0.0 220 218 203
4.175 10.575000000000001 0.0 81 100 113
-0.775 10.425 0.0 140 168 186
0.675 10.925 0.0 149 174 191
0.9750000000000001 10.975000000000001 0.0 139 166 185
2.575 11.225000000000001 0.0 245 246 246
3.725 9.925 0.0 247 247 247
3.975 10.275 0.0 111 107 108
-2.125 10.375 0.0 245 246 245
-2.025 10.375 0.0 244 244 244
-1.925 10.475000000000001 0.0 246 246 246
-1.8250000000000002 10.475000000000001 0.0 245 245 245
-1.425 10.525 0.0 246 246 246
-1.125 10.425 0.0 132 162 182
-0.9750000000000001 10.425 0.0 133 162 183
1.175 11.075000000000001 0.0 145 171 189
3.1750000000000003 10.925 0.0 186 186 186
-2.275 10.525 0.0 247 247 247
-2.075 10.525 0.0 245 245 245
-1.975 10.475000000000001 0.0 246 246 246
-1.625 10.425 0.0 245 245 245
-1.3250000000000002 10.375 0.0 149 174 191
-1.225 10.425 0.0 140 168 186
-1.0250000000000001 10.525 0.0 139 165 185
-0.8250000000000001 10.475000000000001 0.0 134 163 183
-0.7250000000000001 10.475000000000001 0.0 137 166 185
-0.47500000000000003 10.425 0.0 142 160 172
-0.07500000000000001 10.575000000000001 0.0 134 163 183
0.7250000000000001 10.875 0.0 143 170 189
-1.675 10.525 0.0 198 210 219
-1.5750000000000002 10.475000000000001 0.0 246 246 246
-0.625 10.525 0.0 141 167 186
0.42500000000000004 10.775 0.0 187 201 210
0.8250000000000001 10.725000000000001 0.0 243 242 239
1.975 11.025 0.0 141 170 189
-2.125 10.275 0.0 246 246 246
-1.475 10.425 0.0 246 246 246
-1.2750000000000001 10.425 0.0 135 163 183
-0.925 10.475000000000001 0.0 138 166 185
-0.525 10.525 0.0 133 163 183
-0.42500000000000004 10.475000000000001 0.0 132 160 180
-0.225 10.475000000000001 0.0 157 175 188
-0.125 10.475000000000001 0.0 243 243 240
0.125 10.475000000000001 0.0 181 181 180
0.42500000000000004 10.575000000000001 0.0 227 225 220
-2.025 10.575000000000001 0.0 245 245 245
-1.2750000000000001 10.475000000000001 0.0 126 158 180
-0.7250000000000001 10.425 0.0 133 161 182
-0.325 10.475000000000001 0.0 147 169 184
-0.025 10.525 0.0 167 181 191
-1.5250000000000001 10.475000000000001 0.0 186 187 187
-0.875 10.375 0.0 140 169 187
-0.625 10.425 0.0 139 166 185
0.07500000000000001 10.625 0.0 204 205 205
0.925 10.725000000000001 0.0 137 166 186
-1.8250000000000002 10.425 0.0 245 245 245
-1.725 10.375 0.0 246 246 246
-0.225 10.425 0.0 140 167 186
-1.925 10.375 0.0 246 246 246
-1.8250000000000002 10.325000000000001 0.0 246 247 246
-1.225 10.475000000000001 0.0 125 157 178
2.9250000000000003 10.875 0.0 246 246 246
3.075 10.675 0.0 184 185 185
-1.925 10.075000000000001 0.0 247 247 247
-1.925 10.325000000000001 0.0 239 241 232
-0.675 10.475000000000001 0.0 131 161 182
-0.375 10.425 0.0 141 168 187
-2.025 9.975000000000001 0.0 246 246 246
-1.725 9.875 0.0 122 175 41
-1.725 10.225000000000001 0.0 246 246 246
-1.675 9.775 0.0 124 168 49
-0.525 10.575000000000001 0.0 128 159 180
-1.5750000000000002 10.025 0.0 227 235 211
-0.325 10.575000000000001 0.0 143 171 189
0.225 10.775 0.0 134 164 183
1.7750000000000001 10.825000000000001 0.0 122 157 179
-1.875 9.725000000000001 0.0 215 224 198
-1.675 9.725000000000001 0.0 210 217 201
-1.475 10.325000000000001 0.0 184 194 202
-1.375 10.375 0.0 212 221 227
0.025 10.475000000000001 0.0 191 190 190
0.325 10.725000000000001 0.0 122 156 177
-1.8250000000000002 9.975000000000001 0.0 163 190 130
-1.5750000000000002 10.625 0.0 247 247 247
-1.3250000000000002 10.475000000000001 0.0 132 162 183
-0.625 10.275 0.0 122 122 122
-0.8250000000000001 10.075000000000001 0.0 163 163 163
2.625 11.325000000000001 0.0 246 246 246
2.475 11.225000000000001 0.0 246 246 246
3.575 10.325000000000001 0.0 246 246 246
1.5250000000000001 11.125 0.0 126 159 181
-0.125 10.425 0.0 143 169 187
3.075 10.975000000000001 0.0 237 237 237
0.8250000000000001 10.925 0.0 127 156 178
1.3250000000000002 11.025 0.0 124 156 178
-1.175 10.325000000000001 0.0 135 164 184
0.225 10.675 0.0 135 164 183
0.325 10.675 0.0 136 164 184
0.47500000000000003 10.875 0.0 130 160 181
1.175 10.925 0.0 134 164 184
2.125 11.125 0.0 123 158 180
0.17500000000000002 10.725000000000001 0.0 152 170 182
0.775 10.825000000000001 0.0 242 241 238
0.9750000000000001 10.875 0.0 241 240 237
2.575 10.975000000000001 0.0 246 246 246
2.7750000000000004 11.075000000000001 0.0 246 246 246
2.9250000000000003 11.125 0.0 246 246 246
-2.125 10.225000000000001 0.0 245 246 245
0.275 10.625 0.0 243 243 240
0.47500000000000003 10.725000000000001 0.0 162 182 193
2.6750000000000003 11.025 0.0 246 246 246
-2.025 10.325000000000001 0.0 247 247 247
-1.3250000000000002 10.325000000000001 0.0 246 246 246
0.7250000000000001 10.675 0.0 189 204 213
2.6750000000000003 11.075000000000001 0.0 246 246 246
-2.075 10.575000000000001 0.0 245 245 245
-0.925 10.325000000000001 0.0 134 164 184
3.475 10.225000000000001 0.0 246 246 246
-1.075 10.425 0.0 141 168 187
-0.675 10.425 0.0 139 167 186
0.07500000000000001 10.725000000000001 0.0 139 167 185
0.47500000000000003 10.775 0.0 131 161 180
3.6750000000000003 10.375 0.0 246 246 246
-2.275 10.625 0.0 246 246 247
3.1750000000000003 10.775 0.0 174 174 175
-2.5250000000000004 10.975000000000001 0.0 246 246 246
-0.225 10.575000000000001 0.0 130 161 182
-2.325 10.575000000000001 0.0 247 247 247
-1.675 10.025 0.0 236 240 218
-1.125 10.475000000000001 0.0 132 162 182
0.325 10.775 0.0 135 165 185
1.425 10.725000000000001 0.0 124 158 180
-1.925 10.025 0.0 212 228 171
-1.075 10.475000000000001 0.0 120 154 176
-0.375 10.575000000000001 0.0 131 161 181
-1.725 9.675 0.0 142 160 124
-1.725 9.425 0.0 61 94 18
-1.875 9.775 0.0 229 235 219
-1.675 9.475 0.0 67 116 14
-0.8250000000000001 10.275 0.0 153 153 153
-0.325 10.375 0.0 169 182 191
-1.675 10.825000000000001 0.0 246 246 246
-1.5250000000000001 10.625 0.0 246 246 246
-0.875 10.075000000000001 0.0 173 173 173
-2.225 10.225000000000001 0.0 223 229 212
-2.025 11.075000000000001 0.0 246 246 246
-1.8250000000000002 10.775 0.0 246 246 246
1.975 11.075000000000001 0.0 133 162 182
2.625 11.125 0.0 245 245 245
2.975 11.175 0.0 246 246 246
0.625 10.825000000000001 0.0 137 164 184
1.075 11.025 0.0 136 163 183
1.2750000000000001 11.025 0.0 138 167 186
1.375 10.975000000000001 0.0 139 167 185
1.925 10.925 0.0 132 162 184
0.375 10.675 0.0 129 160 181
2.7750000000000004 11.025 0.0 246 246 246
2.1750000000000003 10.875 0.0 132 163 184
-1.375 10.325000000000001 0.0 246 246 246
0.675 10.675 0.0 219 218 215
1.0250000000000001 10.675 0.0 149 170 186
1.3250000000000002 10.925 0.0 143 169 188
1.475 10.975000000000001 0.0 147 173 190
1.8250000000000002 10.975000000000001 0.0 133 162 182
2.125 10.875 0.0 129 161 182
0.225 10.425 0.0 243 242 240
0.375 10.525 0.0 234 233 232
0.675 10.825000000000001 0.0 139 168 187
-2.225 10.775 0.0 245 245 245
1.7750000000000001 10.875 0.0 130 162 182
2.9250000000000003 12.025 0.0 246 246 246
-0.025 10.625 0.0 133 162 183
2.725 12.025 0.0 246 246 246
-2.475 11.075000000000001 0.0 246 246 246
-2.225 10.725000000000001 0.0 245 245 245
-1.725 10.325000000000001 0.0 246 246 246
-1.5750000000000002 10.325000000000001 0.0 246 247 246
-0.775 10.575000000000001 0.0 135 165 185
0.025 10.575000000000001 0.0 136 165 185
0.375 10.725000000000001 0.0 131 161 182
1.5250000000000001 10.575000000000001 0.0 210 210 210
-1.625 10.075000000000001 0.0 243 243 243
-1.675 9.625 0.0 58 109 3
-1.625 9.775 0.0 156 192 84
0.625 10.725000000000001 0.0 133 164 184
-1.5750000000000002 9.525 0.0 238 241 231
-1.7750000000000001 9.475 0.0 179 197 150
-0.025 10.375 0.0 118 119 118
-1.675 10.575000000000001 0.0 192 207 216
-1.8250000000000002 9.875 0.0 215 222 211
-1.925 9.925 0.0 245 245 245
0.7250000000000001 10.975000000000001 0.0 145 171 189
-2.125 10.125 0.0 243 243 243
-2.1750000000000003 10.525 0.0 245 245 245
0.925 11.025 0.0 242 241 238
-2.275 10.725000000000001 0.0 245 245 245
-1.925 10.575000000000001 0.0 246 246 246
-2.325 10.825000000000001 0.0 246 246 246
0.17500000000000002 10.625 0.0 135 165 184
-2.1750000000000003 10.625 0.0 245 245 245
-1.675 10.075000000000001 0.0 244 245 244
0.025 10.675 0.0 125 157 178
-1.625 9.675 0.0 126 155 94
0.025 10.775 0.0 128 160 181
-1.475 9.875 0.0 149 185 93
-0.625 10.625 0.0 124 157 180
-0.025 10.675 0.0 125 159 180
0.125 10.675 0.0 121 157 179
-1.7750000000000001 10.125 0.0 238 240 236
-1.875 9.625 0.0 225 231 210
-2.275 10.875 0.0 245 245 245
-2.4250000000000003 10.925 0.0 244 244 244
-1.875 9.675 0.0 126 143 110
-1.975 9.825000000000001 0.0 244 244 244
-1.125 10.075000000000001 0.0 6 6 6
-1.0250000000000001 10.025 0.0 146 146 146
-1.0250000000000001 10.175 0.0 206 206 206
-1.8250000000000002 10.575000000000001 0.0 242 243 242
-2.375 10.975000000000001 0.0 243 243 243
-1.7750000000000001 9.525 0.0 186 201 155
-6.2250000000000005 8.975 0.0 242 242 242
-1.5250000000000001 10.675 0.0 100 136 162
-1.8250000000000002 10.225000000000001 0.0 243 244 243
-6.275 8.925 0.0 169 189 201
-1.5750000000000002 9.625 0.0 244 244 244
-2.025 10.225000000000001 0.0 242 242 242
-6.275 9.825000000000001 0.0 242 242 242
-6.025 8.975 0.0 242 242 242
-6.675000000000001 9.225 0.0 79 129 59
