ply
format ascii 1.0
element vertex 704
property float x
property float y
property float z
property uchar red
property uchar green
property uchar blue
end_header
4.875 -0.17500000000000002 0.0 135 137 136
4.925000000000001 -0.325 0.0 235 235 235
4.825 -0.125 0.0 134 135 134
4.9750000000000005 0.375 0.0 221 221 221
4.9750000000000005 0.525 0.0 186 186 186
4.925000000000001 0.525 0.0 152 152 152
4.925000000000001 0.42500000000000004 0.0 236 236 236
4.775 0.325 0.0 191 192 191
4.775 0.225 0.0 189 189 189
4.875 -0.325 0.0 231 231 231
4.7250000000000005 0.375 0.0 218 219 218
4.625 0.275 0.0 232 232 232
4.625 0.225 0.0 231 232 231
4.675 0.125 0.0 225 226 225
4.825 0.025 0.0 209 209 209
4.675 0.025 0.0 224 224 224
4.825 -0.275 0.0 232 232 232
4.875 0.025 0.0 137 138 137
4.675 0.17500000000000002 0.0 193 193 193
4.875 -0.125 0.0 228 228 228
4.625 0.07500000000000001 0.0 209 209 209
0.07500000000000001 0.07500000000000001 0.0 11 11 11
0.07500000000000001 0.025 0.0 9 10 10
0.07500000000000001 -0.025 0.0 4 4 4
0.07500000000000001 -0.07500000000000001 0.0 3 3 3
4.075 0.325 0.0 246 246 246
5.9750000000000005 -3.2750000000000004 0.0 184 184 184
4.075 -0.025 0.0 246 246 246
4.075 -0.07500000000000001 0.0 245 245 245
4.075 0.025 0.0 247 247 247
5.125 0.47500000000000003 0.0 238 238 238
5.925000000000001 -3.2750000000000004 0.0 187 188 187
6.075 -3.125 0.0 8 6 6
5.075 -0.375 0.0 246 247 246
5.025 -0.375 0.0 246 246 246
5.025 0.5750000000000001 0.0 213 213 213
4.9750000000000005 -0.47500000000000003 0.0 227 227 227
4.925000000000001 -0.47500000000000003 0.0 237 238 238
4.925000000000001 -0.375 0.0 246 246 246
5.925000000000001 -3.125 0.0 52 52 51
4.925000000000001 0.5750000000000001 0.0 161 161 160
5.875 -3.125 0.0 56 54 54
5.925000000000001 -3.225 0.0 63 63 63
4.875 0.42500000000000004 0.0 247 247 247
4.125 0.225 0.0 245 245 245
5.025 -0.325 0.0 245 245 245
5.9750000000000005 -3.225 0.0 55 53 54
5.025 0.17500000000000002 0.0 246 246 246
5.025 0.025 0.0 245 245 245
5.025 -0.225 0.0 246 246 246
5.9750000000000005 -3.375 0.0 189 190 188
4.925000000000001 0.275 0.0 246 246 246
5.025 0.125 0.0 246 246 246
5.925000000000001 -3.375 0.0 189 189 188
4.925000000000001 0.225 0.0 246 247 246
5.9750000000000005 -3.125 0.0 103 101 101
4.9750000000000005 -0.025 0.0 246 246 246
4.9750000000000005 -0.07500000000000001 0.0 246 246 246
4.925000000000001 -0.07500000000000001 0.0 245 245 245
4.875 0.125 0.0 247 247 247
4.925000000000001 0.025 0.0 246 246 246
4.925000000000001 -0.025 0.0 246 246 246
4.925000000000001 -0.225 0.0 246 245 246
5.875 -3.2750000000000004 0.0 189 190 189
4.925000000000001 0.125 0.0 246 246 246
4.875 0.17500000000000002 0.0 246 246 246
5.075 0.5750000000000001 0.0 230 230 230
4.825 -0.225 0.0 245 246 245
4.7250000000000005 0.275 0.0 246 246 246
4.825 0.375 0.0 245 246 245
4.825 -0.025 0.0 246 246 246
4.7250000000000005 0.125 0.0 246 246 246
4.775 0.125 0.0 246 246 246
5.075 0.325 0.0 246 246 246
5.075 0.225 0.0 246 246 246
5.025 0.325 0.0 246 246 246
4.9750000000000005 -2.9250000000000003 0.0 194 195 194
4.7250000000000005 -0.07500000000000001 0.0 245 245 245
4.925000000000001 -2.9250000000000003 0.0 192 192 192
4.7250000000000005 0.17500000000000002 0.0 245 246 245
4.7250000000000005 0.025 0.0 245 245 245
4.875 -2.9250000000000003 0.0 193 194 193
4.4750000000000005 0.275 0.0 246 246 246
4.525 0.17500000000000002 0.0 246 246 246
4.7250000000000005 -0.325 0.0 245 245 245
5.525 -3.1750000000000003 0.0 205 206 205
4.675 0.325 0.0 248 248 247
5.875 -3.0250000000000004 0.0 4 4 3
4.675 -0.025 0.0 246 246 246
4.875 0.47500000000000003 0.0 246 246 246
4.575 -0.17500000000000002 0.0 245 245 245
4.675 -0.225 0.0 246 246 246
4.625 0.025 0.0 246 246 246
4.675 -0.07500000000000001 0.0 247 247 247
5.7250000000000005 -3.125 0.0 163 164 163
4.7250000000000005 -0.025 0.0 245 246 246
5.675000000000001 -3.1750000000000003 0.0 194 195 195
4.625 0.375 0.0 246 246 246
4.7250000000000005 -0.17500000000000002 0.0 246 246 246
5.575 -3.1750000000000003 0.0 196 196 195
4.425 0.275 0.0 245 246 245
5.125 -2.9250000000000003 0.0 201 202 201
4.2250000000000005 0.325 0.0 246 246 246
5.425000000000001 0.5750000000000001 0.0 71 69 69
4.175 0.375 0.0 245 245 245
5.075 -2.975 0.0 219 219 219
5.825 -3.2750000000000004 0.0 199 199 199
5.025 -3.0250000000000004 0.0 192 192 193
4.425 0.225 0.0 245 245 245
5.025 -2.975 0.0 216 216 216
4.875 0.325 0.0 244 245 244
4.675 0.375 0.0 245 245 245
5.375 -3.2750000000000004 0.0 210 210 210
5.325 -3.2750000000000004 0.0 210 211 210
5.375 -3.125 0.0 208 209 208
5.2250000000000005 -3.375 0.0 247 247 247
5.175000000000001 -3.2750000000000004 0.0 219 220 219
5.025 -3.075 0.0 203 204 203
5.125 -3.125 0.0 200 200 200
5.575 -3.325 0.0 219 219 219
5.575 -3.125 0.0 214 214 214
5.325 -3.475 0.0 246 246 246
5.425000000000001 -3.125 0.0 229 229 229
5.375 -3.1750000000000003 0.0 217 218 217
5.125 -3.2750000000000004 0.0 245 246 245
5.4750000000000005 -3.075 0.0 217 217 217
5.325 -3.075 0.0 214 214 214
5.325 -3.1750000000000003 0.0 218 218 218
5.2250000000000005 -3.125 0.0 217 217 217
5.175000000000001 -3.1750000000000003 0.0 218 218 218
4.675 -0.275 0.0 246 246 246
5.125 -3.225 0.0 221 221 221
5.025 -3.2750000000000004 0.0 246 246 246
5.025 -3.875 0.0 242 242 242
5.125 -3.6750000000000003 0.0 245 245 245
5.025 -3.725 0.0 245 245 245
4.7250000000000005 -3.7750000000000004 0.0 242 242 242
3.725 -4.075 0.0 33 57 6
4.425 -4.575 0.0 153 189 79
4.275 0.325 0.0 245 245 245
4.375 -4.7250000000000005 0.0 68 88 58
4.825 -3.125 0.0 244 244 244
5.175000000000001 -3.0250000000000004 0.0 237 237 237
5.125 -3.0250000000000004 0.0 237 237 236
4.425 -4.675 0.0 16 38 1
4.825 -3.225 0.0 244 245 244
4.525 -4.525 0.0 78 128 4
3.075 -5.375 0.0 9 10 9
4.775 -3.7750000000000004 0.0 243 243 243
2.6750000000000003 -4.925000000000001 0.0 168 31 31
2.6750000000000003 -5.025 0.0 8 9 8
2.625 -5.075 0.0 139 132 109
1.3250000000000002 -5.275 0.0 28 28 28
5.125 -3.575 0.0 241 241 241
4.875 -3.6750000000000003 0.0 242 242 241
4.9750000000000005 -3.475 0.0 241 241 241
4.925000000000001 -3.4250000000000003 0.0 239 239 239
4.925000000000001 -3.475 0.0 241 241 241
3.975 -4.825 0.0 180 199 147
3.975 -4.925000000000001 0.0 95 82 46
3.825 -4.775 0.0 94 83 58
2.625 -4.925000000000001 0.0 12 11 11
5.775 -3.075 0.0 26 27 26
3.9250000000000003 -4.675 0.0 177 206 116
3.975 -4.7250000000000005 0.0 104 143 56
2.9250000000000003 -5.075 0.0 9 10 9
2.9250000000000003 -5.2250000000000005 0.0 9 9 9
2.575 -4.9750000000000005 0.0 212 199 148
6.175000000000001 -3.225 0.0 26 25 23
4.075 -4.925000000000001 0.0 143 187 51
2.4250000000000003 -4.825 0.0 7 7 7
3.0250000000000004 -5.275 0.0 17 17 17
2.6750000000000003 -5.075 0.0 79 66 34
1.425 -5.075 0.0 36 36 36
1.3250000000000002 -5.525 0.0 44 44 44
4.075 -4.875 0.0 129 186 22
3.5250000000000004 -4.375 0.0 91 110 70
1.225 -5.125 0.0 88 88 88
3.875 -4.825 0.0 72 112 28
3.125 -4.775 0.0 58 58 58
0.225 -5.4750000000000005 0.0 183 183 183
0.42500000000000004 -5.425000000000001 0.0 150 150 149
-1.7750000000000001 -3.2750000000000004 0.0 13 5 5
1.125 -5.075 0.0 136 136 137
-1.675 -3.225 0.0 30 16 16
-1.2750000000000001 -2.4250000000000003 0.0 154 138 136
-1.3250000000000002 -2.4250000000000003 0.0 55 31 31
-1.725 -3.325 0.0 16 7 7
-1.375 -2.375 0.0 66 39 40
-1.375 -2.325 0.0 80 47 49
-4.9750000000000005 -4.275 0.0 119 74 74
-4.675 -4.2250000000000005 0.0 108 66 68
-1.8250000000000002 -1.925 0.0 217 216 213
-1.675 -1.925 0.0 237 236 235
-3.2750000000000004 -1.8250000000000002 0.0 163 158 154
-3.325 -1.975 0.0 155 149 146
-3.225 -1.925 0.0 164 160 157
-3.2750000000000004 -1.875 0.0 163 158 155
-3.125 -1.975 0.0 155 150 147
-3.125 -1.925 0.0 169 165 161
-3.1750000000000003 -1.8250000000000002 0.0 163 158 155
-4.825 -4.275 0.0 90 51 51
-5.125 -4.025 0.0 141 114 113
-5.4750000000000005 -4.025 0.0 119 78 79
-5.575 -3.475 0.0 176 167 167
-4.275 -3.875 0.0 233 233 233
-5.325 -3.875 0.0 169 170 169
-5.775 -3.4250000000000003 0.0 59 59 59
-1.175 -2.4250000000000003 0.0 119 90 87
-1.925 -1.7750000000000001 0.0 9 9 8
-1.175 -2.475 0.0 74 40 40
-1.2750000000000001 -2.475 0.0 140 121 121
-3.0250000000000004 -1.875 0.0 141 138 135
-3.075 -1.8250000000000002 0.0 170 166 163
-1.925 -1.725 0.0 12 13 12
-6.525 -4.125 0.0 199 185 185
-5.325 -4.4750000000000005 0.0 110 66 66
-5.525 -4.175 0.0 118 76 76
-5.575 -4.075 0.0 119 80 80
-5.2250000000000005 -4.175 0.0 103 62 64
-4.625 -3.875 0.0 92 54 56
-4.775 -3.875 0.0 98 59 59
-5.425000000000001 -3.9250000000000003 0.0 124 82 83
-4.625 -3.825 0.0 95 56 56
-5.275 -3.975 0.0 240 240 240
-5.425000000000001 -3.6750000000000003 0.0 183 183 183
-2.275 -3.5250000000000004 0.0 93 54 56
-4.425 -3.725 0.0 234 233 230
-4.425 -3.875 0.0 232 232 232
-4.4750000000000005 -3.825 0.0 232 233 232
-1.875 -2.075 0.0 178 178 177
-1.875 -2.025 0.0 178 178 178
-1.375 -2.125 0.0 233 232 229
-1.875 -1.925 0.0 196 196 196
-1.425 -2.275 0.0 93 54 56
-1.425 -2.225 0.0 96 56 57
-5.425000000000001 -4.275 0.0 236 235 233
-2.825 -3.975 0.0 187 188 187
-2.5250000000000004 -4.075 0.0 188 188 188
-5.275 -4.125 0.0 115 72 72
-5.9750000000000005 -4.075 0.0 133 94 93
-5.7250000000000005 -3.625 0.0 4 4 4
-5.825 -3.575 0.0 89 80 81
-2.625 -3.7750000000000004 0.0 95 56 56
-4.925000000000001 -3.975 0.0 95 57 58
-5.925000000000001 -3.325 0.0 188 175 175
-4.425 -4.375 0.0 146 141 131
-4.525 -4.075 0.0 101 60 64
-5.925000000000001 -3.375 0.0 187 174 174
-5.2250000000000005 -3.575 0.0 212 213 212
-5.775 -3.475 0.0 25 25 25
-4.425 -4.025 0.0 233 233 233
-4.425 -3.5250000000000004 0.0 232 232 231
-1.8250000000000002 -2.075 0.0 185 185 185
-3.2750000000000004 -1.725 0.0 164 160 156
-3.325 -1.625 0.0 153 149 145
-3.475 -1.425 0.0 145 117 116
-3.475 -1.3250000000000002 0.0 158 136 135
-3.5250000000000004 -1.225 0.0 182 175 176
-3.225 -1.675 0.0 171 166 163
-3.225 -1.625 0.0 162 157 155
-5.575 -4.175 0.0 105 60 61
-6.125 -3.4250000000000003 0.0 3 3 3
-4.825 -4.2250000000000005 0.0 79 45 46
-5.875 -3.225 0.0 201 193 194
-4.875 -3.825 0.0 110 70 72
-3.225 -1.975 0.0 166 162 158
-4.875 -4.075 0.0 107 66 67
-3.375 -1.975 0.0 161 156 153
-3.125 -1.725 0.0 171 167 164
-3.125 -1.625 0.0 165 161 158
-1.675 -2.1750000000000003 0.0 178 178 177
-1.675 -2.125 0.0 178 179 178
-3.0250000000000004 -1.8250000000000002 0.0 167 162 159
-1.625 -2.1750000000000003 0.0 178 178 178
-3.4250000000000003 -1.075 0.0 191 194 177
-1.5250000000000001 -2.275 0.0 212 211 209
-0.925 -1.475 0.0 96 69 72
-4.375 -0.9750000000000001 0.0 238 237 237
-4.375 -0.925 0.0 235 234 234
-4.275 -1.225 0.0 175 159 160
-4.325 -1.125 0.0 197 188 188
-4.325 -0.9750000000000001 0.0 209 204 205
-4.275 -1.2750000000000001 0.0 193 180 180
-4.2250000000000005 -1.225 0.0 246 246 246
-4.325 -0.925 0.0 234 232 233
-4.275 -1.075 0.0 239 240 240
-4.325 -0.8250000000000001 0.0 228 225 225
-4.2250000000000005 -1.0250000000000001 0.0 214 209 209
-4.175 -1.225 0.0 180 164 165
-5.4750000000000005 -3.625 0.0 171 171 171
-4.625 -3.575 0.0 173 173 173
-4.175 -1.075 0.0 178 178 164
-4.125 -1.175 0.0 175 159 159
-4.175 -1.125 0.0 181 167 168
-4.2250000000000005 -0.925 0.0 187 175 175
-4.125 -1.125 0.0 205 197 196
-4.025 -1.475 0.0 167 157 157
-4.025 -1.425 0.0 170 170 169
-4.075 -1.375 0.0 169 169 169
-4.075 -1.3250000000000002 0.0 172 166 166
-3.1750000000000003 -0.8250000000000001 0.0 240 240 240
-3.2750000000000004 -0.525 0.0 179 179 180
-3.1750000000000003 -0.875 0.0 240 240 240
-0.9750000000000001 -1.425 0.0 147 122 122
-3.225 -0.7250000000000001 0.0 240 240 240
-3.225 -0.675 0.0 240 240 240
-3.375 -0.17500000000000002 0.0 241 241 241
-3.375 -0.125 0.0 241 241 241
-3.2750000000000004 -0.42500000000000004 0.0 237 237 237
-0.9750000000000001 -1.3250000000000002 0.0 119 87 89
-3.575 -1.225 0.0 178 163 163
-3.575 -1.2750000000000001 0.0 176 160 161
-3.5250000000000004 -1.2750000000000001 0.0 168 151 152
-3.4250000000000003 -1.225 0.0 157 137 137
-3.4250000000000003 -1.2750000000000001 0.0 75 84 42
-3.475 -1.125 0.0 165 145 144
-4.275 -1.675 0.0 121 123 130
-4.325 -1.625 0.0 133 121 126
-3.2750000000000004 -1.3250000000000002 0.0 226 226 226
-3.2750000000000004 -1.375 0.0 183 183 183
-3.325 -1.225 0.0 183 183 182
-3.225 -1.425 0.0 239 239 239
-3.325 -1.2750000000000001 0.0 240 239 239
-3.6750000000000003 -0.525 0.0 240 239 239
-3.6750000000000003 -0.42500000000000004 0.0 239 239 239
-3.625 -0.625 0.0 243 242 242
-3.625 -0.525 0.0 176 174 175
-3.575 -1.125 0.0 234 236 236
-3.575 -1.075 0.0 251 251 251
-3.5250000000000004 -1.075 0.0 245 246 247
-3.575 -0.675 0.0 235 234 234
-3.625 -0.325 0.0 173 171 172
-3.5250000000000004 -0.625 0.0 221 217 217
-3.575 -0.42500000000000004 0.0 236 235 235
-5.325 -3.375 0.0 3 3 3
-4.575 -4.125 0.0 46 24 24
-5.4750000000000005 -4.075 0.0 91 49 49
-5.425000000000001 -4.075 0.0 91 53 53
-3.0250000000000004 -1.5750000000000002 0.0 176 172 169
-4.175 -1.0250000000000001 0.0 173 156 155
-3.4250000000000003 -1.125 0.0 219 216 212
-4.375 -0.7250000000000001 0.0 170 151 150
-4.425 -0.625 0.0 167 149 148
-3.4250000000000003 -0.47500000000000003 0.0 196 198 197
-3.475 -0.42500000000000004 0.0 117 117 118
-3.125 -1.0250000000000001 0.0 240 240 240
-3.4250000000000003 -0.42500000000000004 0.0 201 200 200
-3.375 -0.625 0.0 240 240 240
-3.4250000000000003 -0.7250000000000001 0.0 238 238 238
-4.075 0.325 0.0 165 143 144
-4.325 0.275 0.0 148 121 122
-4.425 0.025 0.0 139 127 130
-4.2250000000000005 0.375 0.0 137 106 107
-4.175 0.375 0.0 136 106 107
-4.425 -0.025 0.0 133 100 102
-4.375 0.07500000000000001 0.0 138 114 115
-4.325 0.225 0.0 146 116 117
-4.375 0.17500000000000002 0.0 142 118 121
-4.2250000000000005 0.325 0.0 146 119 120
-4.175 0.325 0.0 122 89 90
-4.325 0.025 0.0 143 114 114
-4.325 -0.025 0.0 146 118 119
-4.175 0.07500000000000001 0.0 165 141 143
-4.2250000000000005 0.125 0.0 159 135 136
-4.2250000000000005 0.225 0.0 135 104 105
-4.125 0.375 0.0 130 95 98
-4.325 0.07500000000000001 0.0 155 134 133
-2.975 -1.925 0.0 174 169 166
-3.2750000000000004 -1.075 0.0 165 149 138
-4.175 -0.025 0.0 155 130 128
-2.975 -1.5750000000000002 0.0 179 175 172
-4.2250000000000005 -0.07500000000000001 0.0 166 148 148
-4.175 0.025 0.0 155 128 128
-3.975 0.42500000000000004 0.0 130 94 95
-4.025 0.47500000000000003 0.0 141 107 107
-3.225 -1.125 0.0 240 240 240
-4.125 -0.025 0.0 152 125 125
-4.075 0.07500000000000001 0.0 154 123 124
-4.125 0.025 0.0 179 176 176
-3.125 -1.125 0.0 240 240 240
-3.125 -1.075 0.0 240 240 240
-3.375 -0.325 0.0 181 180 181
-3.325 -0.225 0.0 238 238 238
-3.325 -0.025 0.0 210 210 209
-3.2750000000000004 0.025 0.0 208 208 208
-3.325 -0.07500000000000001 0.0 240 239 239
-3.225 0.125 0.0 240 240 240
-3.225 0.17500000000000002 0.0 240 240 240
-1.225 -1.175 0.0 163 144 145
-3.225 -0.07500000000000001 0.0 240 240 240
-1.225 -1.125 0.0 161 140 140
-3.225 -0.025 0.0 238 238 238
-1.225 -1.2750000000000001 0.0 192 195 197
-1.225 -1.075 0.0 157 135 135
-1.225 -1.0250000000000001 0.0 134 106 107
-1.2750000000000001 -0.9750000000000001 0.0 133 99 100
-3.975 0.775 0.0 115 72 73
-3.875 0.875 0.0 118 114 110
-3.975 0.925 0.0 138 133 130
-3.975 0.9750000000000001 0.0 138 133 129
-3.875 -0.025 0.0 114 77 77
-3.825 0.025 0.0 116 86 87
-3.9250000000000003 0.9750000000000001 0.0 142 137 133
-3.875 0.025 0.0 108 70 72
-3.975 1.075 0.0 134 129 125
-3.9250000000000003 1.075 0.0 117 112 109
-3.825 -0.07500000000000001 0.0 120 83 83
-3.825 -0.025 0.0 135 107 109
-3.975 -0.47500000000000003 0.0 94 109 117
-3.875 0.375 0.0 79 49 50
-3.825 1.475 0.0 132 132 131
-3.825 0.17500000000000002 0.0 0 0 0
-3.9250000000000003 0.8250000000000001 0.0 106 102 99
-3.7750000000000004 1.075 0.0 167 162 159
-4.325 -1.475 0.0 191 178 180
-6.7250000000000005 -3.475 0.0 131 100 99
-6.7250000000000005 -3.375 0.0 171 148 148
-3.975 0.675 0.0 126 84 84
-3.975 0.5750000000000001 0.0 124 84 86
-4.275 -1.425 0.0 177 162 162
-3.9250000000000003 0.7250000000000001 0.0 123 82 82
-3.325 -1.0250000000000001 0.0 101 119 81
-4.2250000000000005 -1.5750000000000002 0.0 176 159 160
-4.175 -1.5750000000000002 0.0 173 156 156
-4.125 -1.5250000000000001 0.0 172 153 152
-3.9250000000000003 0.675 0.0 121 81 81
-5.4750000000000005 3.2750000000000004 0.0 54 28 29
-3.325 -1.125 0.0 209 208 206
-4.025 0.225 0.0 125 85 88
-3.975 0.275 0.0 119 80 77
-3.825 0.775 0.0 93 89 86
-5.775 3.2750000000000004 0.0 175 176 174
-4.075 -1.625 0.0 162 143 143
-4.175 -1.2750000000000001 0.0 160 136 137
-4.025 -0.125 0.0 132 95 93
-3.825 0.675 0.0 120 80 79
-3.825 0.7250000000000001 0.0 118 78 79
-3.875 0.525 0.0 170 170 170
-3.6750000000000003 0.8250000000000001 0.0 141 136 133
-3.6750000000000003 0.925 0.0 94 90 86
-3.225 -1.175 0.0 172 172 171
-3.1750000000000003 -1.0250000000000001 0.0 173 173 172
-3.6750000000000003 0.9750000000000001 0.0 91 86 83
-3.225 -1.075 0.0 239 239 239
-3.625 0.925 0.0 90 85 82
-3.7750000000000004 1.125 0.0 167 163 159
-1.2750000000000001 -1.075 0.0 157 143 142
-3.625 0.375 0.0 144 112 113
-3.625 0.025 0.0 148 125 123
-3.7750000000000004 -0.375 0.0 208 209 210
-3.825 0.125 0.0 39 31 32
-4.075 0.47500000000000003 0.0 118 79 81
-4.325 0.775 0.0 135 101 101
-3.875 -0.325 0.0 125 138 145
-4.275 0.7250000000000001 0.0 130 93 94
-3.825 -0.325 0.0 161 144 143
-3.725 0.225 0.0 213 215 216
-3.7750000000000004 0.325 0.0 136 101 101
-4.375 0.325 0.0 140 104 107
-3.475 -1.5750000000000002 0.0 223 220 220
-4.375 0.375 0.0 140 104 103
-4.375 0.47500000000000003 0.0 140 105 105
-4.325 0.5750000000000001 0.0 134 99 102
-4.425 0.7250000000000001 0.0 138 104 104
-4.325 0.375 0.0 129 92 94
-4.325 0.47500000000000003 0.0 136 102 105
-4.375 0.625 0.0 140 104 103
-4.275 0.675 0.0 121 82 83
-3.375 -1.625 0.0 142 138 135
-3.475 -0.225 0.0 211 212 211
-3.5250000000000004 -0.025 0.0 211 211 211
-3.475 0.025 0.0 184 184 184
-3.375 0.325 0.0 225 225 225
-3.475 -0.325 0.0 240 239 239
-3.475 -0.07500000000000001 0.0 236 236 235
-3.375 0.375 0.0 239 239 239
-3.325 0.7250000000000001 0.0 115 110 107
-3.325 0.8250000000000001 0.0 150 146 142
-3.2750000000000004 0.925 0.0 170 165 162
-4.2250000000000005 0.675 0.0 122 80 80
-4.275 0.9750000000000001 0.0 123 85 86
-4.2250000000000005 0.875 0.0 121 79 81
-3.6750000000000003 -0.325 0.0 116 81 81
-4.275 0.925 0.0 121 79 78
-4.2250000000000005 1.0250000000000001 0.0 100 96 93
-4.175 0.7250000000000001 0.0 117 77 77
-4.2250000000000005 0.625 0.0 126 86 88
-4.175 1.075 0.0 97 93 90
-4.175 1.0250000000000001 0.0 100 96 93
-4.425 -0.07500000000000001 0.0 121 81 84
-4.175 0.925 0.0 126 119 116
-4.2250000000000005 0.47500000000000003 0.0 121 80 81
-4.125 1.0250000000000001 0.0 101 96 93
-4.175 0.47500000000000003 0.0 97 71 71
-4.175 0.675 0.0 121 78 79
-4.275 -0.17500000000000002 0.0 124 85 87
-4.275 -0.125 0.0 125 85 89
-5.575 3.225 0.0 66 35 36
-5.575 3.2750000000000004 0.0 61 34 34
-5.525 3.4250000000000003 0.0 59 31 30
-4.2250000000000005 -0.025 0.0 174 166 167
-4.125 0.7250000000000001 0.0 156 139 138
-3.475 -0.47500000000000003 0.0 240 247 246
-3.575 -0.225 0.0 118 76 72
-3.9250000000000003 -0.47500000000000003 0.0 146 138 138
-3.875 0.325 0.0 168 149 150
-3.825 0.375 0.0 108 66 67
-3.875 1.475 0.0 164 160 156
-3.875 0.225 0.0 117 86 87
-3.825 1.425 0.0 166 161 158
-4.425 -0.17500000000000002 0.0 118 78 79
-3.875 1.225 0.0 165 160 156
-3.875 1.2750000000000001 0.0 166 161 158
-3.825 1.3250000000000002 0.0 165 160 157
-3.825 1.2750000000000001 0.0 166 161 158
-4.425 -0.275 0.0 120 81 81
-5.125 3.075 0.0 91 53 54
-4.325 -0.275 0.0 121 80 80
-5.125 2.9250000000000003 0.0 226 225 225
-3.975 -0.025 0.0 112 74 77
-4.025 0.025 0.0 115 75 76
-3.825 0.9750000000000001 0.0 140 135 131
-3.9250000000000003 -0.07500000000000001 0.0 116 75 75
-3.725 1.3250000000000002 0.0 165 160 157
-3.7750000000000004 1.175 0.0 163 158 155
-1.925 0.625 0.0 52 51 50
-1.875 0.675 0.0 60 60 59
-1.875 0.7250000000000001 0.0 39 39 38
-3.475 -0.775 0.0 238 238 238
-3.4250000000000003 0.625 0.0 135 129 126
-1.8250000000000002 0.5750000000000001 0.0 21 20 20
-1.8250000000000002 0.675 0.0 19 19 18
-1.425 -0.7250000000000001 0.0 231 231 231
-1.425 -0.675 0.0 207 206 207
-1.425 -0.625 0.0 209 209 209
-1.425 -0.775 0.0 170 147 148
-5.375 2.725 0.0 104 62 64
-3.7750000000000004 0.925 0.0 147 143 139
-3.4250000000000003 -0.025 0.0 236 236 236
-1.8250000000000002 0.525 0.0 23 22 22
-1.725 0.675 0.0 176 177 176
-1.725 0.7250000000000001 0.0 173 174 173
-1.625 0.8250000000000001 0.0 137 118 117
-1.625 0.875 0.0 141 131 131
-1.725 0.625 0.0 177 178 177
-1.675 0.775 0.0 155 145 145
-1.5250000000000001 0.925 0.0 103 71 71
-1.625 0.7250000000000001 0.0 95 56 57
-1.3250000000000002 -0.5750000000000001 0.0 246 246 246
-1.3250000000000002 -0.525 0.0 244 244 244
-1.5250000000000001 0.8250000000000001 0.0 66 39 39
-3.475 1.075 0.0 145 131 129
-3.4250000000000003 1.075 0.0 165 163 160
-3.6750000000000003 1.375 0.0 218 216 215
-3.5250000000000004 1.175 0.0 159 156 153
-3.4250000000000003 0.8250000000000001 0.0 142 137 134
-3.4250000000000003 1.0250000000000001 0.0 131 126 123
-3.4250000000000003 1.125 0.0 148 144 141
-3.4250000000000003 1.175 0.0 112 73 71
-3.475 1.0250000000000001 0.0 141 130 128
-3.475 1.125 0.0 142 136 133
-5.175000000000001 3.1750000000000003 0.0 100 59 59
-3.1750000000000003 3.1750000000000003 0.0 89 51 53
-3.4250000000000003 0.925 0.0 146 141 137
-5.2250000000000005 2.875 0.0 129 130 129
-2.275 2.625 0.0 117 112 108
-1.8250000000000002 0.8250000000000001 0.0 50 50 49
-2.025 1.5750000000000002 0.0 235 234 233
-1.975 1.675 0.0 234 234 234
-1.925 1.725 0.0 234 234 234
-1.8250000000000002 0.7250000000000001 0.0 10 10 10
-1.925 1.625 0.0 236 236 235
-1.675 2.025 0.0 198 198 198
-2.075 1.475 0.0 232 233 232
-3.475 0.675 0.0 139 134 131
-3.475 0.8250000000000001 0.0 158 153 150
-1.675 0.9750000000000001 0.0 157 146 146
-3.575 0.675 0.0 223 222 222
-3.5250000000000004 0.875 0.0 152 147 144
-3.4250000000000003 0.675 0.0 155 150 146
-3.625 0.8250000000000001 0.0 157 152 149
-1.625 0.625 0.0 176 176 176
-1.5250000000000001 0.625 0.0 177 176 176
-1.5750000000000002 0.675 0.0 70 43 44
-1.225 -0.325 0.0 143 117 119
-1.3250000000000002 -0.375 0.0 101 102 101
-4.075 0.625 0.0 104 63 68
-4.075 0.925 0.0 145 141 137
-3.5250000000000004 3.375 0.0 86 50 50
-5.425000000000001 3.225 0.0 199 200 199
-2.375 1.7750000000000001 0.0 192 192 191
-5.125 2.975 0.0 220 220 220
-1.875 0.875 0.0 147 147 147
-5.125 2.6750000000000003 0.0 234 234 234
-4.925000000000001 2.875 0.0 233 234 233
-1.7750000000000001 1.0250000000000001 0.0 174 174 174
-1.725 1.125 0.0 196 198 200
-1.725 1.075 0.0 189 190 189
-1.7750000000000001 0.875 0.0 194 194 194
-3.575 0.7250000000000001 0.0 144 139 135
-1.875 0.8250000000000001 0.0 196 196 196
-1.725 0.925 0.0 191 191 190
-3.875 0.07500000000000001 0.0 90 54 56
-3.575 1.225 0.0 147 143 140
-3.575 1.125 0.0 147 142 139
-5.425000000000001 2.9250000000000003 0.0 104 64 65
-3.5250000000000004 3.1750000000000003 0.0 228 227 227
-5.4750000000000005 2.9250000000000003 0.0 193 191 190
-5.425000000000001 2.975 0.0 114 74 75
-5.325 3.125 0.0 193 178 178
-3.2750000000000004 3.1750000000000003 0.0 96 57 58
-3.125 3.2750000000000004 0.0 83 47 47
-2.9250000000000003 3.475 0.0 132 117 118
-2.325 2.7750000000000004 0.0 181 182 181
-2.4250000000000003 2.875 0.0 41 21 21
-1.975 2.125 0.0 182 183 182
-1.925 2.125 0.0 113 116 123
-1.875 2.1750000000000003 0.0 190 190 189
-2.225 3.225 0.0 182 182 180
-1.925 0.9750000000000001 0.0 235 235 235
-1.625 1.175 0.0 196 192 189
-1.8250000000000002 2.225 0.0 182 182 181
-1.5250000000000001 1.225 0.0 207 203 201
-1.5250000000000001 1.3250000000000002 0.0 225 223 221
-1.725 2.225 0.0 186 183 181
-1.5250000000000001 1.2750000000000001 0.0 201 199 199
-3.6750000000000003 1.2750000000000001 0.0 146 141 138
-1.875 0.525 0.0 67 66 66
-1.5750000000000002 1.125 0.0 198 194 191
-1.5250000000000001 1.125 0.0 214 213 211
-1.5750000000000002 1.075 0.0 149 136 135
-1.5750000000000002 1.0250000000000001 0.0 140 125 124
-1.5250000000000001 1.075 0.0 199 194 194
-3.575 1.3250000000000002 0.0 124 121 119
-3.575 1.2750000000000001 0.0 227 226 226
-5.825 3.1750000000000003 0.0 120 79 81
-5.375 2.975 0.0 121 78 79
-5.175000000000001 2.825 0.0 113 71 70
-5.075 2.825 0.0 221 221 221
-1.5750000000000002 1.425 0.0 210 211 210
-1.7750000000000001 1.075 0.0 220 220 220
-1.7750000000000001 1.125 0.0 182 182 184
-3.475 0.625 0.0 176 174 171
-3.5250000000000004 0.7250000000000001 0.0 166 161 158
-1.2750000000000001 -0.07500000000000001 0.0 211 211 211
-1.225 -0.07500000000000001 0.0 109 102 103
-1.375 -0.025 0.0 217 217 218
-3.575 3.325 0.0 173 174 173
-3.375 3.2750000000000004 0.0 140 106 106
-5.425000000000001 3.0250000000000004 0.0 124 80 82
-5.175000000000001 3.075 0.0 161 141 141
-2.825 3.225 0.0 94 55 56
-2.7750000000000004 3.075 0.0 97 57 58
-4.925000000000001 2.6750000000000003 0.0 202 202 202
-5.325 3.1750000000000003 0.0 202 202 202
-1.2750000000000001 -0.025 0.0 182 178 176
-1.225 -0.025 0.0 195 192 189
-1.5750000000000002 0.025 0.0 208 207 208
-1.5250000000000001 0.025 0.0 187 185 185
-1.425 0.07500000000000001 0.0 67 52 52
-1.425 -0.07500000000000001 0.0 211 211 211
-1.425 -0.17500000000000002 0.0 208 208 208
-1.375 0.025 0.0 234 234 234
-1.475 -0.225 0.0 197 196 197
-1.475 -0.275 0.0 196 195 196
-3.325 3.0250000000000004 0.0 118 76 76
-3.1750000000000003 3.2750000000000004 0.0 97 58 59
-2.5250000000000004 3.0250000000000004 0.0 101 68 68
-2.475 3.0250000000000004 0.0 205 202 197
-5.075 3.0250000000000004 0.0 113 69 70
-4.925000000000001 2.375 0.0 238 238 238
-2.025 1.125 0.0 239 240 239
-1.475 0.07500000000000001 0.0 108 99 99
-1.5250000000000001 -0.025 0.0 205 205 205
-1.5250000000000001 -0.07500000000000001 0.0 212 212 212
-5.375 3.0250000000000004 0.0 41 70 88
-5.2250000000000005 2.975 0.0 204 204 203
-5.275 2.975 0.0 205 206 205
-6.075 3.1750000000000003 0.0 87 133 161
-6.025 3.1750000000000003 0.0 65 120 155
-3.2750000000000004 3.325 0.0 123 122 122
-3.375 3.225 0.0 149 130 130
-2.5250000000000004 2.825 0.0 188 189 188
-1.725 1.175 0.0 214 214 214
-1.3250000000000002 0.17500000000000002 0.0 189 186 185
-1.3250000000000002 0.125 0.0 144 138 136
-6.025 3.325 0.0 16 17 17
-5.925000000000001 3.325 0.0 13 14 13
-5.325 3.325 0.0 7 7 7
-2.9250000000000003 3.575 0.0 202 203 203
-4.9750000000000005 2.5250000000000004 0.0 203 202 202
-2.325 1.7750000000000001 0.0 202 201 201
-2.475 2.825 0.0 41 46 61
-1.975 2.025 0.0 45 50 63
-1.875 1.075 0.0 165 165 165
-1.7750000000000001 1.175 0.0 121 125 134
-1.5750000000000002 1.2750000000000001 0.0 169 158 150
-1.975 0.925 0.0 187 188 186
-1.5250000000000001 1.0250000000000001 0.0 207 207 207
-1.425 0.17500000000000002 0.0 65 51 52
-1.2750000000000001 0.17500000000000002 0.0 208 208 208
-1.625 -0.025 0.0 208 207 208
-0.9750000000000001 -0.625 0.0 194 193 194
