ply
format ascii 1.0
element vertex 92
property float x
property float y
property float z
property uchar red
property uchar green
property uchar blue
end_header
0.125 0.07500000000000001 0.0 19 19 19
0.125 0.025 0.0 10 10 10
0.125 -0.025 0.0 2 2 2
5.075 -0.07500000000000001 0.0 246 246 246
5.125 0.775 0.0 214 214 214
5.075 0.7250000000000001 0.0 237 237 237
5.025 0.775 0.0 205 205 205
5.025 0.7250000000000001 0.0 227 227 227
4.9750000000000005 0.5750000000000001 0.0 246 246 246
4.875 0.5750000000000001 0.0 246 246 246
4.9750000000000005 -0.17500000000000002 0.0 246 246 246
4.9750000000000005 -0.275 0.0 151 152 154
4.9750000000000005 -2.725 0.0 199 199 198
4.9750000000000005 -2.7750000000000004 0.0 199 199 199
4.9750000000000005 -0.125 0.0 246 246 246
4.925000000000001 0.775 0.0 154 153 154
4.925000000000001 0.7250000000000001 0.0 217 217 217
4.925000000000001 0.625 0.0 246 246 246
4.925000000000001 -0.07500000000000001 0.0 246 246 246
4.925000000000001 -2.725 0.0 196 197 197
4.925000000000001 -2.7750000000000004 0.0 196 197 196
4.775 0.5750000000000001 0.0 246 246 246
5.125 -0.225 0.0 246 246 246
5.175000000000001 -0.07500000000000001 0.0 246 246 246
4.925000000000001 0.325 0.0 246 246 246
4.925000000000001 0.17500000000000002 0.0 246 246 246
4.9750000000000005 0.125 0.0 246 246 246
4.825 -0.07500000000000001 0.0 246 246 246
4.925000000000001 -0.225 0.0 245 245 245
4.925000000000001 0.125 0.0 246 246 246
5.025 0.225 0.0 246 246 245
5.025 -0.025 0.0 246 246 246
4.9750000000000005 0.025 0.0 246 246 246
4.075 0.5750000000000001 0.0 246 246 246
4.875 0.42500000000000004 0.0 246 246 246
4.825 0.525 0.0 246 245 245
4.9750000000000005 0.675 0.0 246 246 246
4.925000000000001 -0.025 0.0 246 246 246
5.075 0.675 0.0 246 246 246
4.875 0.525 0.0 246 246 246
4.925000000000001 0.375 0.0 246 246 246
4.9750000000000005 0.325 0.0 246 246 246
4.875 -0.07500000000000001 0.0 246 246 246
4.7250000000000005 0.42500000000000004 0.0 246 246 246
4.625 0.42500000000000004 0.0 245 245 245
4.625 0.47500000000000003 0.0 245 245 245
4.775 0.42500000000000004 0.0 246 246 246
4.675 0.42500000000000004 0.0 246 246 246
4.875 -0.025 0.0 246 246 246
4.875 0.07500000000000001 0.0 246 246 246
5.075 0.5750000000000001 0.0 245 245 245
4.875 0.275 0.0 246 246 246
4.825 0.325 0.0 245 245 245
4.9750000000000005 -2.875 0.0 239 239 239
4.925000000000001 0.025 0.0 246 246 246
4.925000000000001 -2.875 0.0 246 246 246
4.875 0.025 0.0 246 246 246
4.825 -0.025 0.0 246 246 245
4.675 0.275 0.0 245 245 245
4.825 0.025 0.0 246 246 246
4.7250000000000005 0.225 0.0 246 246 246
4.775 0.125 0.0 248 248 248
4.875 0.675 0.0 245 245 245
4.675 0.47500000000000003 0.0 245 245 245
4.775 0.17500000000000002 0.0 245 246 245
4.625 0.325 0.0 245 245 245
5.075 0.42500000000000004 0.0 246 246 246
5.075 0.325 0.0 246 246 246
5.075 0.225 0.0 245 246 245
5.075 0.07500000000000001 0.0 246 246 246
5.075 -2.6750000000000003 0.0 196 197 197
5.075 -2.7750000000000004 0.0 200 201 200
5.075 -2.875 0.0 204 204 204
4.7250000000000005 0.47500000000000003 0.0 246 246 246
4.875 0.225 0.0 245 245 245
4.7250000000000005 0.5750000000000001 0.0 245 245 245
5.025 0.47500000000000003 0.0 246 246 246
5.075 0.025 0.0 246 246 246
4.925000000000001 0.47500000000000003 0.0 246 246 246
4.7250000000000005 0.325 0.0 247 248 247
4.7250000000000005 3.375 0.0 135 135 135
4.675 3.375 0.0 139 140 139
4.925000000000001 0.675 0.0 244 244 244
4.675 0.225 0.0 245 245 245
4.4750000000000005 3.4250000000000003 0.0 137 138 137
4.425 3.4250000000000003 0.0 138 139 138
5.025 0.42500000000000004 0.0 246 246 246
4.275 3.875 0.0 247 247 247
4.2250000000000005 3.975 0.0 246 246 246
4.175 3.975 0.0 247 247 247
-0.225 0.025 0.0 82 87 91
-0.275 0.07500000000000001 0.0 109 110 110
