ply
format ascii 1.0
element vertex 79
property float x
property float y
property float z
property uchar red
property uchar green
property uchar blue
end_header
0.125 0.07500000000000001 0.0 119 151 183
0.125 0.025 0.0 126 158 188
0.125 -0.025 0.0 126 152 176
5.025 0.47500000000000003 0.0 205 205 205
5.025 0.375 0.0 223 223 223
5.025 0.275 0.0 163 164 163
5.025 0.17500000000000002 0.0 225 225 225
4.9750000000000005 0.7250000000000001 0.0 167 167 167
4.9750000000000005 0.625 0.0 221 221 221
4.9750000000000005 0.125 0.0 232 232 232
4.9750000000000005 0.025 0.0 232 233 232
4.9750000000000005 -0.125 0.0 225 225 225
4.9750000000000005 -0.17500000000000002 0.0 227 227 227
4.9750000000000005 -0.275 0.0 242 242 242
4.925000000000001 0.7250000000000001 0.0 120 120 120
4.925000000000001 0.625 0.0 193 193 193
4.925000000000001 0.525 0.0 222 222 222
4.925000000000001 0.325 0.0 222 222 222
4.925000000000001 0.17500000000000002 0.0 225 225 225
4.925000000000001 0.125 0.0 229 230 229
4.925000000000001 0.025 0.0 214 214 214
4.925000000000001 -0.07500000000000001 0.0 236 236 236
4.925000000000001 -0.17500000000000002 0.0 227 227 227
4.925000000000001 -0.275 0.0 233 233 233
4.925000000000001 0.375 0.0 227 227 227
4.925000000000001 -0.025 0.0 237 237 237
5.075 0.675 0.0 226 226 226
5.075 -0.225 0.0 246 246 246
5.025 0.675 0.0 224 224 224
4.9750000000000005 -0.025 0.0 246 246 246
5.925000000000001 -2.975 0.0 92 92 92
5.925000000000001 -3.125 0.0 195 195 194
5.925000000000001 -3.225 0.0 193 194 193
4.925000000000001 -2.875 0.0 198 199 198
4.925000000000001 0.675 0.0 154 153 153
4.925000000000001 -2.7750000000000004 0.0 195 196 195
4.875 -2.875 0.0 198 199 199
5.075 -0.275 0.0 246 246 246
5.925000000000001 -3.2750000000000004 0.0 194 194 194
5.875 -2.9250000000000003 0.0 54 50 49
5.875 -3.0250000000000004 0.0 194 194 194
4.875 -2.7750000000000004 0.0 194 194 193
4.125 0.225 0.0 246 246 246
5.075 -0.07500000000000001 0.0 246 246 246
5.075 0.17500000000000002 0.0 246 246 246
5.075 0.125 0.0 246 246 246
5.075 0.325 0.0 245 246 245
5.075 0.42500000000000004 0.0 246 246 246
5.075 0.625 0.0 246 246 246
5.075 0.525 0.0 248 248 248
5.925000000000001 -2.825 0.0 10 10 10
5.925000000000001 -2.875 0.0 50 50 50
5.925000000000001 -3.0250000000000004 0.0 193 194 193
4.925000000000001 -2.725 0.0 195 196 195
5.875 -2.825 0.0 26 25 25
5.875 -2.975 0.0 143 142 142
5.875 -3.125 0.0 194 193 193
5.875 -3.1750000000000003 0.0 196 196 196
5.875 -3.2750000000000004 0.0 197 198 197
4.9750000000000005 -2.725 0.0 194 194 194
4.9750000000000005 -2.7750000000000004 0.0 199 199 199
4.9750000000000005 -2.875 0.0 201 202 201
4.875 0.625 0.0 236 236 236
4.525 3.575 0.0 245 245 245
4.525 3.5250000000000004 0.0 247 247 247
4.575 3.475 0.0 202 202 202
4.425 3.5250000000000004 0.0 247 247 247
4.375 3.575 0.0 203 206 206
4.325 3.575 0.0 246 246 246
4.325 3.5250000000000004 0.0 246 246 246
4.2250000000000005 3.5250000000000004 0.0 247 247 247
4.125 3.5250000000000004 0.0 246 246 246
4.125 3.575 0.0 246 246 246
4.175 3.5250000000000004 0.0 247 247 247
0.375 0.275 0.0 125 126 125
3.475 5.275 0.0 244 244 244
0.42500000000000004 0.225 0.0 237 237 237
4.275 3.375 0.0 68 81 92
4.325 3.325 0.0 102 120 134
