ply
format ascii 1.0
element vertex 59
property float x
property float y
property float z
property uchar red
property uchar green
property uchar blue
end_header
4.9750000000000005 0.375 0.0 209 208 209
5.075 -0.125 0.0 132 132 133
4.9750000000000005 0.07500000000000001 0.0 237 237 237
4.925000000000001 0.42500000000000004 0.0 237 237 237
4.925000000000001 0.025 0.0 224 224 224
4.925000000000001 0.07500000000000001 0.0 239 239 239
4.875 0.375 0.0 232 232 232
4.825 0.375 0.0 192 192 192
4.775 0.325 0.0 231 231 231
4.9750000000000005 -0.275 0.0 242 243 242
4.925000000000001 -0.17500000000000002 0.0 241 241 241
4.925000000000001 -0.275 0.0 238 238 238
4.925000000000001 -0.375 0.0 211 212 213
4.7250000000000005 0.325 0.0 224 224 224
0.025 0.025 0.0 14 14 14
0.025 -0.025 0.0 6 6 6
0.025 -0.07500000000000001 0.0 4 4 4
4.875 -0.17500000000000002 0.0 246 246 246
4.9750000000000005 -0.125 0.0 246 246 246
4.9750000000000005 -0.225 0.0 246 246 246
5.025 -0.375 0.0 225 225 225
4.925000000000001 0.525 0.0 246 246 246
4.9750000000000005 0.525 0.0 245 246 245
4.9750000000000005 0.025 0.0 246 246 246
4.9750000000000005 -0.025 0.0 245 245 245
4.925000000000001 -0.025 0.0 246 246 245
4.925000000000001 0.275 0.0 246 246 246
4.925000000000001 0.225 0.0 246 246 246
4.9750000000000005 0.225 0.0 245 245 245
4.925000000000001 -0.125 0.0 246 246 246
4.875 0.225 0.0 245 245 245
4.875 0.525 0.0 247 247 247
4.875 0.275 0.0 245 246 245
4.875 -0.125 0.0 246 246 246
4.825 0.225 0.0 246 246 246
5.075 0.17500000000000002 0.0 247 247 247
5.075 0.125 0.0 245 245 245
5.075 -0.025 0.0 245 245 245
4.875 -0.275 0.0 246 246 246
4.875 -0.375 0.0 227 228 228
4.875 0.125 0.0 245 245 245
4.875 -0.025 0.0 245 245 245
4.875 0.025 0.0 246 246 246
4.825 -0.07500000000000001 0.0 246 246 246
4.9750000000000005 0.325 0.0 246 246 246
4.9750000000000005 0.675 0.0 225 225 225
4.925000000000001 -2.825 0.0 190 191 191
4.7250000000000005 0.17500000000000002 0.0 246 246 246
4.875 -2.825 0.0 193 193 193
4.675 0.325 0.0 245 246 246
4.875 -2.875 0.0 200 200 200
4.9750000000000005 0.625 0.0 234 233 234
4.9750000000000005 -2.875 0.0 195 195 195
4.925000000000001 -2.875 0.0 195 196 196
4.825 0.525 0.0 247 247 247
4.825 -0.17500000000000002 0.0 247 247 247
4.9750000000000005 -2.825 0.0 194 195 194
4.825 0.125 0.0 246 246 246
-0.47500000000000003 0.125 0.0 217 223 203
