ply
format ascii 1.0
element vertex 167
property float x
property float y
property float z
property uchar red
property uchar green
property uchar blue
end_header
4.875 -0.225 0.0 140 140 140
4.9750000000000005 -0.325 0.0 218 218 218
4.675 -0.07500000000000001 0.0 218 219 218
4.675 -0.17500000000000002 0.0 189 189 189
4.925000000000001 -0.325 0.0 225 225 225
4.525 0.275 0.0 220 220 220
4.525 -0.225 0.0 228 228 228
4.625 0.275 0.0 223 223 223
4.625 0.225 0.0 224 225 224
4.425 0.17500000000000002 0.0 230 230 230
4.7250000000000005 0.025 0.0 210 211 210
4.4750000000000005 0.17500000000000002 0.0 237 238 237
4.675 0.125 0.0 224 224 224
4.525 -0.275 0.0 208 209 208
5.775 -3.075 0.0 25 24 24
5.7250000000000005 -3.225 0.0 170 171 173
4.575 -0.17500000000000002 0.0 208 209 208
4.825 -0.275 0.0 232 232 232
0.07500000000000001 0.07500000000000001 0.0 11 11 11
0.07500000000000001 0.025 0.0 9 9 9
0.07500000000000001 -0.025 0.0 4 4 4
0.07500000000000001 -0.07500000000000001 0.0 3 3 3
4.125 -0.275 0.0 245 245 245
5.925000000000001 -3.1750000000000003 0.0 65 62 61
4.075 0.325 0.0 246 246 246
5.075 0.5750000000000001 0.0 228 229 229
5.775 -3.225 0.0 186 186 186
5.925000000000001 -3.325 0.0 185 186 185
5.025 0.47500000000000003 0.0 236 236 236
5.025 0.5750000000000001 0.0 211 212 211
4.925000000000001 0.47500000000000003 0.0 216 217 216
5.025 -0.42500000000000004 0.0 246 246 246
4.925000000000001 0.42500000000000004 0.0 246 246 246
4.875 0.47500000000000003 0.0 201 201 201
4.9750000000000005 -0.47500000000000003 0.0 225 225 225
4.925000000000001 -0.47500000000000003 0.0 234 234 234
4.925000000000001 -0.375 0.0 245 246 245
5.7250000000000005 -3.125 0.0 95 94 94
4.875 -0.47500000000000003 0.0 224 224 225
4.875 -0.42500000000000004 0.0 246 246 246
4.175 0.07500000000000001 0.0 246 246 246
4.175 -0.025 0.0 247 247 247
4.175 -0.07500000000000001 0.0 246 246 246
4.175 0.225 0.0 246 246 246
4.175 0.025 0.0 246 246 246
4.125 -0.025 0.0 246 246 246
4.125 0.07500000000000001 0.0 246 246 246
4.925000000000001 -0.125 0.0 247 247 247
4.025 0.325 0.0 247 246 247
4.9750000000000005 0.375 0.0 246 246 246
4.825 0.17500000000000002 0.0 245 245 245
4.525 -0.025 0.0 246 246 246
4.525 -0.07500000000000001 0.0 246 246 246
4.675 -0.275 0.0 246 246 245
4.775 0.42500000000000004 0.0 246 246 246
4.675 0.375 0.0 246 246 246
4.675 0.325 0.0 246 246 246
4.625 -0.275 0.0 246 246 246
4.925000000000001 -2.9250000000000003 0.0 192 192 192
4.625 -0.07500000000000001 0.0 245 246 245
4.875 -2.9250000000000003 0.0 194 195 194
4.925000000000001 0.5750000000000001 0.0 181 181 180
4.425 0.275 0.0 245 245 245
4.525 0.125 0.0 246 246 246
4.825 0.47500000000000003 0.0 196 195 195
4.625 0.42500000000000004 0.0 247 247 247
4.875 -0.325 0.0 245 245 245
4.7250000000000005 0.275 0.0 246 246 246
5.125 0.47500000000000003 0.0 236 236 236
5.075 0.42500000000000004 0.0 247 247 247
4.875 0.275 0.0 246 246 246
4.7250000000000005 -0.025 0.0 246 246 246
4.7250000000000005 -0.07500000000000001 0.0 246 246 246
4.875 0.42500000000000004 0.0 246 246 246
4.775 -0.225 0.0 246 246 246
4.775 0.325 0.0 246 245 246
4.525 0.025 0.0 246 246 246
4.775 -0.125 0.0 245 245 245
4.575 0.07500000000000001 0.0 246 246 246
4.575 0.025 0.0 246 246 246
4.575 -0.025 0.0 246 246 246
4.675 -0.025 0.0 245 245 245
4.675 0.025 0.0 246 246 246
4.775 0.025 0.0 246 246 246
4.775 -0.025 0.0 246 246 246
4.525 0.42500000000000004 0.0 247 247 247
4.7250000000000005 -0.225 0.0 246 246 246
4.625 0.47500000000000003 0.0 167 166 166
5.025 0.07500000000000001 0.0 246 246 246
5.025 -0.025 0.0 246 246 246
4.7250000000000005 -0.275 0.0 246 246 246
4.7250000000000005 0.225 0.0 245 245 245
4.9750000000000005 -2.9250000000000003 0.0 195 195 195
4.7250000000000005 0.375 0.0 246 246 246
4.9750000000000005 -0.125 0.0 245 245 245
4.9750000000000005 -0.17500000000000002 0.0 245 245 245
4.9750000000000005 0.275 0.0 246 246 246
4.9750000000000005 0.025 0.0 245 245 245
4.925000000000001 0.225 0.0 246 246 246
4.875 0.17500000000000002 0.0 247 247 247
4.875 0.07500000000000001 0.0 246 246 246
4.925000000000001 0.025 0.0 246 246 246
4.925000000000001 -0.17500000000000002 0.0 246 246 246
4.825 0.125 0.0 246 246 246
4.425 -0.125 0.0 246 246 246
5.275 -3.0250000000000004 0.0 192 192 192
5.275 -3.125 0.0 193 193 193
5.525 -3.1750000000000003 0.0 196 196 195
5.125 -2.975 0.0 200 200 200
5.125 -3.075 0.0 204 205 204
5.875 -3.1750000000000003 0.0 37 37 36
5.4750000000000005 0.5750000000000001 0.0 71 69 69
5.875 -3.325 0.0 198 199 198
5.375 -3.075 0.0 198 198 198
5.275 -2.975 0.0 195 194 194
5.2250000000000005 -3.0250000000000004 0.0 197 198 197
5.2250000000000005 -3.2750000000000004 0.0 201 201 201
5.2250000000000005 -3.1750000000000003 0.0 199 200 199
5.175000000000001 -3.075 0.0 200 201 200
5.025 -3.325 0.0 246 246 246
5.325 -3.1750000000000003 0.0 216 217 216
5.125 -3.225 0.0 221 221 221
5.125 -3.325 0.0 246 246 246
5.025 -3.225 0.0 225 226 225
-0.07500000000000001 -0.07500000000000001 0.0 0 0 0
3.075 -5.275 0.0 11 11 11
2.5250000000000004 -4.925000000000001 0.0 159 143 93
2.475 -5.025 0.0 10 9 9
2.5250000000000004 -4.9750000000000005 0.0 38 31 14
5.125 -3.475 0.0 241 241 241
4.925000000000001 -3.825 0.0 240 240 240
5.075 -3.575 0.0 241 241 241
4.825 -3.825 0.0 239 239 239
4.7250000000000005 -3.7750000000000004 0.0 241 241 241
3.875 -4.575 0.0 121 165 39
4.925000000000001 -3.1750000000000003 0.0 241 241 241
2.725 -5.175000000000001 0.0 10 11 11
4.9750000000000005 -3.825 0.0 241 240 241
5.2250000000000005 -3.375 0.0 243 243 243
3.9250000000000003 -4.7250000000000005 0.0 115 169 13
3.975 -4.775 0.0 86 133 24
3.7750000000000004 -4.675 0.0 174 206 81
3.7750000000000004 -4.825 0.0 239 239 239
2.4250000000000003 -4.675 0.0 26 20 7
2.6750000000000003 -5.025 0.0 235 35 33
3.575 -4.4750000000000005 0.0 38 61 14
3.1750000000000003 -4.825 0.0 16 16 16
2.025 -4.825 0.0 25 25 24
1.375 -5.275 0.0 39 39 39
1.2750000000000001 -5.575 0.0 44 44 44
4.025 -4.625 0.0 225 234 197
3.9250000000000003 -4.825 0.0 137 162 75
4.2250000000000005 -4.375 0.0 0 0 0
3.725 -4.425 0.0 75 84 62
1.0250000000000001 -5.4750000000000005 0.0 108 108 109
4.125 -4.375 0.0 0 0 0
2.575 -5.025 0.0 32 32 32
1.925 -4.9750000000000005 0.0 199 185 136
0.7250000000000001 -5.325 0.0 95 95 95
0.675 -5.325 0.0 100 100 100
0.375 -5.4750000000000005 0.0 137 137 137
0.275 -5.4750000000000005 0.0 124 125 124
1.925 -4.925000000000001 0.0 182 167 115
2.1750000000000003 -4.875 0.0 40 40 40
2.075 -4.875 0.0 45 46 45
0.9750000000000001 -5.375 0.0 77 77 77
0.625 -5.325 0.0 98 98 99
