ply
format ascii 1.0
element vertex 69
property float x
property float y
property float z
property uchar red
property uchar green
property uchar blue
end_header
0.07500000000000001 0.07500000000000001 0.0 0 0 0
0.07500000000000001 0.025 0.0 14 14 15
0.07500000000000001 -0.025 0.0 4 5 5
0.07500000000000001 -0.07500000000000001 0.0 1 1 2
0.325 -5.275 0.0 34 34 34
0.47500000000000003 -5.325 0.0 155 156 155
1.0250000000000001 -5.2250000000000005 0.0 48 48 48
0.925 -5.2250000000000005 0.0 71 69 71
0.7250000000000001 -5.275 0.0 106 107 106
1.475 -5.175000000000001 0.0 2 2 2
1.425 -5.175000000000001 0.0 4 4 4
1.225 -5.2250000000000005 0.0 102 102 102
1.3250000000000002 -5.175000000000001 0.0 78 78 78
1.2750000000000001 -5.175000000000001 0.0 80 80 80
1.3250000000000002 -5.125 0.0 134 134 134
1.7750000000000001 -5.125 0.0 51 51 51
1.725 -5.125 0.0 61 62 62
1.625 -5.175000000000001 0.0 61 62 61
0.925 -6.275 0.0 244 242 240
0.9750000000000001 -6.2250000000000005 0.0 244 243 242
0.925 -6.2250000000000005 0.0 245 244 243
1.0250000000000001 -6.125 0.0 245 245 245
0.925 -6.125 0.0 242 242 242
0.8250000000000001 -6.2250000000000005 0.0 245 245 245
1.075 -6.125 0.0 246 246 246
1.125 -6.075 0.0 245 246 245
1.175 -6.075 0.0 245 245 245
1.175 -6.025 0.0 246 246 246
1.125 -6.025 0.0 245 245 245
1.5250000000000001 -7.325 0.0 234 218 204
0.9750000000000001 -6.375 0.0 240 233 226
0.9750000000000001 -6.325 0.0 243 240 237
0.925 -6.375 0.0 245 245 245
1.075 -6.025 0.0 242 242 242
1.0250000000000001 -6.025 0.0 234 234 234
0.325 -5.625 0.0 71 71 71
0.7250000000000001 -6.4750000000000005 0.0 245 245 245
0.775 -6.4750000000000005 0.0 246 246 245
0.775 -6.425000000000001 0.0 246 246 246
0.8250000000000001 -6.325 0.0 244 244 244
1.125 -5.925000000000001 0.0 245 245 245
1.175 -5.925000000000001 0.0 246 246 246
1.175 -5.875 0.0 245 245 245
1.225 -5.825 0.0 245 245 245
0.375 -5.575 0.0 49 49 49
1.075 -6.325 0.0 241 238 234
0.5750000000000001 -6.425000000000001 0.0 246 246 246
1.125 -6.275 0.0 245 245 245
1.125 -6.2250000000000005 0.0 245 246 245
1.075 -6.2250000000000005 0.0 246 245 245
0.625 -6.4750000000000005 0.0 246 246 246
0.7250000000000001 -6.425000000000001 0.0 246 246 246
0.675 -6.425000000000001 0.0 246 246 246
0.7250000000000001 -6.325 0.0 216 216 216
0.275 -5.675000000000001 0.0 21 21 21
1.2750000000000001 -6.2250000000000005 0.0 246 247 246
1.225 -6.2250000000000005 0.0 246 246 246
1.225 -6.275 0.0 247 247 247
1.2750000000000001 -6.125 0.0 242 238 234
1.2750000000000001 -6.025 0.0 243 240 238
1.2750000000000001 -5.925000000000001 0.0 241 241 241
0.675 -6.4750000000000005 0.0 246 246 246
1.075 -6.375 0.0 232 221 214
1.3250000000000002 -6.025 0.0 245 245 245
1.3250000000000002 -5.925000000000001 0.0 243 242 240
1.375 -5.925000000000001 0.0 245 245 245
1.375 -5.875 0.0 245 245 245
1.3250000000000002 -5.875 0.0 235 235 235
1.2750000000000001 -5.875 0.0 5 6 5
