ply
format ascii 1.0
element vertex 1170
property float x
property float y
property float z
property uchar red
property uchar green
property uchar blue
end_header
5.025 0.07500000000000001 0.0 202 202 202
5.025 0.025 0.0 191 191 191
4.9750000000000005 -0.07500000000000001 0.0 231 231 231
5.075 0.125 0.0 133 133 133
5.075 0.17500000000000002 0.0 191 191 191
4.9750000000000005 0.275 0.0 219 219 219
4.9750000000000005 0.17500000000000002 0.0 239 239 239
5.025 -0.275 0.0 241 241 241
5.075 -0.325 0.0 229 229 229
4.925000000000001 0.17500000000000002 0.0 202 202 202
4.925000000000001 0.125 0.0 233 233 233
4.925000000000001 0.325 0.0 209 209 209
4.875 0.275 0.0 209 210 209
4.925000000000001 0.375 0.0 232 232 232
4.875 0.375 0.0 218 218 218
4.7250000000000005 0.375 0.0 208 208 208
4.925000000000001 0.025 0.0 232 233 232
4.825 0.325 0.0 136 137 136
4.875 0.125 0.0 227 227 227
4.7250000000000005 0.325 0.0 210 210 210
4.875 0.025 0.0 191 191 191
4.875 -0.17500000000000002 0.0 219 219 219
4.875 -0.07500000000000001 0.0 220 220 220
4.925000000000001 0.47500000000000003 0.0 240 240 240
4.925000000000001 -0.375 0.0 210 211 212
4.825 -0.07500000000000001 0.0 139 140 139
0.07500000000000001 0.07500000000000001 0.0 25 25 25
0.07500000000000001 0.025 0.0 12 12 12
0.07500000000000001 -0.025 0.0 4 4 4
0.07500000000000001 -0.07500000000000001 0.0 16 17 17
5.125 0.025 0.0 246 246 246
5.125 -0.025 0.0 245 245 245
5.125 -0.125 0.0 245 246 245
5.125 -0.17500000000000002 0.0 245 246 245
5.025 -0.225 0.0 245 246 245
5.025 -0.375 0.0 243 243 243
5.9750000000000005 -3.225 0.0 188 189 188
5.9750000000000005 -3.2750000000000004 0.0 192 193 192
5.9750000000000005 -3.125 0.0 188 187 187
4.9750000000000005 -0.025 0.0 246 246 246
5.9750000000000005 -2.9250000000000003 0.0 96 95 95
4.925000000000001 -0.07500000000000001 0.0 245 246 245
4.925000000000001 -0.17500000000000002 0.0 246 246 246
5.925000000000001 0.7250000000000001 0.0 170 169 170
4.925000000000001 -0.025 0.0 246 246 246
4.875 0.17500000000000002 0.0 246 246 246
4.875 -0.025 0.0 246 246 246
6.175000000000001 -3.325 0.0 190 190 190
5.075 0.375 0.0 246 246 246
5.075 0.325 0.0 247 247 247
5.025 0.47500000000000003 0.0 245 245 245
4.9750000000000005 0.375 0.0 246 246 246
5.9750000000000005 0.7250000000000001 0.0 172 173 172
4.925000000000001 -0.275 0.0 246 246 246
5.925000000000001 0.775 0.0 206 206 206
4.875 -0.375 0.0 222 222 223
4.7250000000000005 -0.17500000000000002 0.0 245 245 245
4.675 -0.225 0.0 246 246 246
5.075 0.675 0.0 232 232 232
5.025 0.675 0.0 227 228 227
5.075 0.525 0.0 245 246 245
4.825 -0.025 0.0 246 245 246
4.825 0.125 0.0 245 245 245
4.775 0.025 0.0 246 246 246
5.925000000000001 -3.225 0.0 191 191 191
5.925000000000001 -3.325 0.0 185 185 185
4.925000000000001 -2.825 0.0 192 193 192
5.925000000000001 -2.9250000000000003 0.0 90 88 89
4.825 0.225 0.0 246 246 246
5.925000000000001 -3.125 0.0 193 193 193
4.675 0.325 0.0 245 245 245
5.925000000000001 -3.0250000000000004 0.0 56 54 54
5.875 -3.125 0.0 191 191 191
5.875 -3.2750000000000004 0.0 190 191 191
5.875 -2.975 0.0 56 54 52
4.625 0.375 0.0 246 246 246
5.875 -2.9250000000000003 0.0 58 58 58
5.875 -3.225 0.0 196 197 196
4.875 -2.825 0.0 194 194 194
4.875 0.525 0.0 247 247 247
5.025 -2.875 0.0 193 194 193
6.025 -3.0250000000000004 0.0 54 55 53
5.025 -2.825 0.0 194 195 194
6.025 -2.975 0.0 70 69 69
4.9750000000000005 0.5750000000000001 0.0 246 246 246
5.875 0.675 0.0 216 216 216
4.825 -0.17500000000000002 0.0 245 246 245
5.075 7.275 0.0 34 33 32
5.075 7.2250000000000005 0.0 36 36 33
4.325 3.975 0.0 244 244 244
4.925000000000001 3.075 0.0 73 69 68
3.625 11.775 0.0 243 243 243
5.325 3.475 0.0 240 240 240
5.425000000000001 3.325 0.0 89 85 84
2.975 5.2250000000000005 0.0 166 199 92
3.2750000000000004 4.675 0.0 160 183 130
5.275 3.325 0.0 27 28 27
5.375 3.325 0.0 33 31 32
0.925 10.475000000000001 0.0 202 198 186
0.47500000000000003 11.275 0.0 90 133 161
-0.17500000000000002 10.725000000000001 0.0 136 165 184
-1.725 10.075000000000001 0.0 245 245 245
-1.225 10.375 0.0 246 246 246
-0.9750000000000001 10.375 0.0 143 170 188
2.725 4.7250000000000005 0.0 89 137 3
2.225 7.425000000000001 0.0 237 237 236
4.625 7.075 0.0 106 145 90
-1.225 10.675 0.0 246 246 246
-1.075 10.525 0.0 140 167 185
4.125 6.775 0.0 245 245 245
-1.075 10.675 0.0 148 173 190
-0.9750000000000001 10.575000000000001 0.0 147 171 188
-6.075 12.775 0.0 139 138 139
-0.675 10.875 0.0 135 163 183
-0.675 10.725000000000001 0.0 144 171 188
3.475 10.975000000000001 0.0 216 216 216
4.125 6.7250000000000005 0.0 245 245 245
-1.5750000000000002 10.575000000000001 0.0 246 246 246
-0.275 10.775 0.0 145 171 188
1.2750000000000001 10.775 0.0 151 176 192
1.7750000000000001 11.125 0.0 109 147 172
3.9250000000000003 6.825 0.0 219 219 219
2.225 11.275 0.0 121 155 178
-0.675 10.525 0.0 143 169 187
2.225 11.225000000000001 0.0 103 145 172
2.5250000000000004 10.625 0.0 246 246 246
-1.7750000000000001 10.075000000000001 0.0 177 194 151
-0.925 10.325000000000001 0.0 138 166 185
-0.625 10.475000000000001 0.0 140 166 184
-0.375 10.575000000000001 0.0 138 166 186
0.875 11.075000000000001 0.0 118 154 177
3.975 6.7250000000000005 0.0 246 246 246
-0.875 10.375 0.0 135 160 177
-0.375 10.425 0.0 140 166 183
-0.225 10.475000000000001 0.0 143 169 186
0.17500000000000002 10.575000000000001 0.0 149 174 191
2.375 11.025 0.0 117 154 178
-1.875 10.225000000000001 0.0 246 246 246
2.575 10.775 0.0 246 246 246
-1.475 9.775 0.0 199 211 184
2.7750000000000004 4.825 0.0 74 133 4
4.2250000000000005 6.675000000000001 0.0 245 245 245
-7.025 10.525 0.0 138 168 187
-6.325 9.825000000000001 0.0 172 180 186
-1.225 10.625 0.0 246 246 246
-0.8250000000000001 10.475000000000001 0.0 145 171 189
-7.9750000000000005 10.525 0.0 127 160 183
0.47500000000000003 10.575000000000001 0.0 161 183 197
1.425 10.875 0.0 143 171 190
-6.2250000000000005 10.225000000000001 0.0 247 247 247
0.775 10.725000000000001 0.0 145 171 189
1.0250000000000001 10.725000000000001 0.0 151 175 191
1.5750000000000002 10.925 0.0 148 174 191
0.47500000000000003 10.375 0.0 162 162 161
1.175 10.775 0.0 154 176 190
-6.125 9.425 0.0 81 128 40
-1.0250000000000001 10.725000000000001 0.0 149 173 190
0.625 10.575000000000001 0.0 151 174 189
1.175 10.675 0.0 156 179 193
1.175 10.625 0.0 164 182 194
1.3250000000000002 10.825000000000001 0.0 140 166 184
1.425 10.775 0.0 141 169 188
0.775 10.575000000000001 0.0 157 180 195
1.725 10.825000000000001 0.0 133 164 184
-5.625 10.275 0.0 247 247 247
-2.125 10.775 0.0 247 247 247
-1.425 9.575000000000001 0.0 153 179 122
-0.47500000000000003 10.475000000000001 0.0 143 169 188
0.925 10.625 0.0 157 180 195
-1.125 10.325000000000001 0.0 218 224 228
-0.7250000000000001 10.525 0.0 148 173 190
-0.5750000000000001 10.425 0.0 141 168 186
-0.07500000000000001 10.675 0.0 154 178 194
0.42500000000000004 10.625 0.0 149 174 191
2.375 10.475000000000001 0.0 247 247 247
-1.425 9.725000000000001 0.0 146 170 109
-1.3250000000000002 9.625 0.0 246 246 246
0.07500000000000001 10.525 0.0 143 170 188
0.675 10.625 0.0 168 188 201
-1.5250000000000001 9.625 0.0 131 158 103
-0.7250000000000001 10.425 0.0 140 168 187
-0.5750000000000001 10.325000000000001 0.0 167 173 176
-1.425 9.775 0.0 209 223 182
-0.8250000000000001 10.075000000000001 0.0 110 110 110
-0.42500000000000004 10.475000000000001 0.0 140 166 184
0.7250000000000001 10.525 0.0 168 189 201
0.9750000000000001 10.525 0.0 137 145 149
3.375 10.875 0.0 148 149 151
0.8250000000000001 10.525 0.0 132 163 184
2.125 10.725000000000001 0.0 141 169 187
-2.5250000000000004 3.1750000000000003 0.0 110 111 110
-2.275 2.625 0.0 112 110 109
-2.225 2.625 0.0 141 141 141
-2.1750000000000003 2.5250000000000004 0.0 109 108 109
-2.125 2.5250000000000004 0.0 134 133 134
-2.075 2.575 0.0 143 144 143
-2.025 2.375 0.0 110 111 110
-8.375 10.325000000000001 0.0 115 153 178
-8.075000000000001 10.425 0.0 118 156 180
-8.125 10.525 0.0 118 155 179
-5.675000000000001 10.425 0.0 247 247 247
-8.475 10.425 0.0 113 152 176
-8.175 10.575000000000001 0.0 114 153 178
-1.925 10.925 0.0 246 246 246
-0.125 10.425 0.0 157 170 179
-0.325 10.375 0.0 163 173 180
0.225 10.375 0.0 214 214 214
-8.225 10.425 0.0 112 152 177
-0.625 10.625 0.0 148 173 190
-6.075 9.575000000000001 0.0 241 243 238
-1.425 10.325000000000001 0.0 246 246 246
-1.075 10.575000000000001 0.0 143 170 188
-0.9750000000000001 10.475000000000001 0.0 145 170 188
-0.7250000000000001 10.575000000000001 0.0 153 176 193
-0.47500000000000003 10.625 0.0 156 178 194
-1.5250000000000001 10.275 0.0 239 242 230
-1.425 10.375 0.0 246 246 246
-1.2750000000000001 10.475000000000001 0.0 246 246 246
-6.075 9.325000000000001 0.0 77 124 36
-1.625 10.075000000000001 0.0 175 208 92
-1.475 9.925 0.0 198 218 155
-0.8250000000000001 10.675 0.0 151 175 191
-0.675 10.675 0.0 152 176 192
-0.325 10.675 0.0 151 175 191
-1.5250000000000001 9.375 0.0 130 166 78
-1.3250000000000002 9.875 0.0 244 245 244
-1.0250000000000001 10.325000000000001 0.0 146 172 189
-0.17500000000000002 10.675 0.0 162 183 197
-1.375 10.625 0.0 248 248 248
-1.125 10.375 0.0 239 240 240
-3.575 3.2750000000000004 0.0 121 78 77
-0.625 10.175 0.0 198 198 198
-0.525 10.225000000000001 0.0 198 198 198
0.025 10.625 0.0 144 170 188
-3.475 3.375 0.0 114 72 74
-3.2750000000000004 3.375 0.0 113 69 70
-3.375 3.375 0.0 107 68 69
-3.325 3.325 0.0 112 68 69
-3.225 3.325 0.0 112 70 69
-3.6750000000000003 3.325 0.0 126 81 82
-3.075 3.325 0.0 109 66 67
-6.2250000000000005 10.475000000000001 0.0 246 246 246
-5.575 10.375 0.0 214 214 214
-6.325 9.925 0.0 246 246 246
-5.925000000000001 11.775 0.0 154 155 155
-1.925 10.375 0.0 246 246 246
-1.0250000000000001 10.675 0.0 147 172 189
-1.425 10.875 0.0 247 247 247
-1.2750000000000001 10.875 0.0 246 246 246
-0.875 10.725000000000001 0.0 148 172 189
-6.625 9.975000000000001 0.0 116 153 175
-5.775 11.125 0.0 155 156 156
0.42500000000000004 10.775 0.0 166 186 200
-5.7250000000000005 10.125 0.0 246 246 246
0.07500000000000001 10.825000000000001 0.0 153 177 193
0.5750000000000001 10.725000000000001 0.0 240 239 238
-5.775 9.475 0.0 200 217 164
-5.425000000000001 10.075000000000001 0.0 165 165 165
-5.9750000000000005 11.925 0.0 176 176 176
-1.875 10.575000000000001 0.0 247 247 247
-1.475 10.475000000000001 0.0 246 246 246
-1.225 10.725000000000001 0.0 247 247 247
-0.07500000000000001 10.825000000000001 0.0 148 174 191
-6.275 9.225 0.0 66 111 27
-0.17500000000000002 10.825000000000001 0.0 159 181 195
0.07500000000000001 10.675 0.0 156 179 194
0.325 10.475000000000001 0.0 205 212 217
1.675 11.175 0.0 149 173 190
3.625 11.125 0.0 166 166 166
-5.575 10.175 0.0 246 246 246
-5.375 10.025 0.0 172 173 173
-6.025 11.725000000000001 0.0 160 161 160
-5.875 11.775 0.0 158 159 158
-0.42500000000000004 10.725000000000001 0.0 148 173 189
1.125 10.775 0.0 149 171 185
1.5250000000000001 10.925 0.0 148 173 190
1.975 11.225000000000001 0.0 139 167 186
2.075 11.225000000000001 0.0 141 169 188
2.325 11.225000000000001 0.0 141 169 188
3.6750000000000003 11.075000000000001 0.0 138 141 138
-7.825 10.525 0.0 116 155 179
-7.675000000000001 10.525 0.0 115 152 176
-7.525 10.525 0.0 116 154 178
-5.825 10.125 0.0 246 246 246
-1.5250000000000001 9.725000000000001 0.0 157 181 114
1.2750000000000001 10.975000000000001 0.0 155 178 193
1.3250000000000002 10.675 0.0 140 166 183
2.125 11.275 0.0 145 174 191
2.4250000000000003 10.675 0.0 246 246 246
-5.925000000000001 11.575000000000001 0.0 158 158 157
-0.42500000000000004 10.675 0.0 153 176 192
-0.275 10.575000000000001 0.0 151 175 191
-0.025 10.675 0.0 149 174 191
1.925 11.075000000000001 0.0 141 170 188
-1.625 9.825000000000001 0.0 182 199 161
-1.2750000000000001 9.975000000000001 0.0 207 219 190
-0.025 10.525 0.0 145 171 189
0.125 10.625 0.0 146 172 190
1.0250000000000001 10.825000000000001 0.0 149 174 192
1.425 10.975000000000001 0.0 146 172 190
2.125 11.175 0.0 145 172 189
2.225 11.025 0.0 140 169 187
2.375 11.175 0.0 135 165 186
2.475 11.175 0.0 115 151 176
-1.175 10.525 0.0 246 246 246
-0.775 10.175 0.0 145 172 189
-0.025 10.575000000000001 0.0 152 176 192
2.125 11.075000000000001 0.0 135 166 186
-0.025 10.325000000000001 0.0 192 201 208
1.975 11.075000000000001 0.0 136 165 185
-0.225 10.325000000000001 0.0 187 187 187
1.175 10.725000000000001 0.0 154 177 193
1.425 10.675 0.0 138 167 186
1.5250000000000001 10.725000000000001 0.0 137 166 185
1.7750000000000001 10.775 0.0 132 163 184
2.025 10.675 0.0 121 144 159
1.975 10.475000000000001 0.0 203 203 203
2.275 10.625 0.0 176 176 176
-9.075000000000001 9.975000000000001 0.0 102 142 169
-8.975 10.025 0.0 103 145 171
-8.775 10.175 0.0 105 147 173
-6.375 9.825000000000001 0.0 76 95 110
-6.2250000000000005 9.875 0.0 246 246 246
-5.625 10.125 0.0 246 246 246
1.5250000000000001 10.975000000000001 0.0 142 168 187
-7.625 10.575000000000001 0.0 119 155 178
-6.375 9.875 0.0 120 132 142
-5.675000000000001 10.175 0.0 246 246 246
0.675 10.725000000000001 0.0 145 171 190
0.925 10.725000000000001 0.0 144 171 189
-7.775 10.575000000000001 0.0 109 148 174
-7.675000000000001 10.625 0.0 118 156 179
-7.525 10.675 0.0 131 163 184
-1.725 10.625 0.0 246 246 246
-1.125 10.675 0.0 181 190 197
0.325 10.375 0.0 186 187 187
-8.525 10.275 0.0 104 145 172
-7.925000000000001 10.525 0.0 119 156 179
-7.4750000000000005 10.575000000000001 0.0 127 160 182
-7.325 10.625 0.0 129 163 183
-6.9750000000000005 10.575000000000001 0.0 120 157 180
-6.2250000000000005 9.825000000000001 0.0 246 246 246
-5.325 10.075000000000001 0.0 183 183 183
0.17500000000000002 10.325000000000001 0.0 216 216 215
1.0250000000000001 10.625 0.0 170 184 193
1.125 10.625 0.0 201 211 216
1.7750000000000001 10.925 0.0 139 167 186
-8.675 10.175 0.0 100 144 172
-8.275 10.375 0.0 114 151 175
-7.625 10.525 0.0 116 153 177
-1.3250000000000002 10.525 0.0 246 246 246
-1.125 10.875 0.0 130 160 180
-0.125 10.625 0.0 156 175 187
-8.275 10.325000000000001 0.0 109 149 174
-8.025 10.425 0.0 118 154 178
-6.675000000000001 10.075000000000001 0.0 122 158 180
-1.5750000000000002 10.275 0.0 243 245 238
-0.225 10.575000000000001 0.0 150 174 191
-9.275 9.925 0.0 93 140 168
-8.875 10.025 0.0 101 145 172
-8.775 10.125 0.0 101 144 170
-1.3250000000000002 10.375 0.0 246 247 246
1.2750000000000001 10.575000000000001 0.0 123 127 129
-8.375 10.225000000000001 0.0 112 151 176
-7.875 10.425 0.0 118 156 179
-7.025 10.175 0.0 126 160 179
-5.9750000000000005 8.775 0.0 101 152 22
-0.8250000000000001 10.425 0.0 141 167 184
0.375 10.525 0.0 169 188 201
-7.7250000000000005 10.425 0.0 121 155 178
-5.9750000000000005 9.625 0.0 247 247 247
-5.825 10.175 0.0 246 246 246
-5.575 10.225000000000001 0.0 246 246 246
-2.125 10.975000000000001 0.0 246 246 246
0.025 10.675 0.0 151 176 192
0.7250000000000001 10.625 0.0 150 175 192
-7.425000000000001 10.475000000000001 0.0 122 157 180
-6.2250000000000005 9.325000000000001 0.0 122 157 146
-6.175000000000001 9.725000000000001 0.0 170 198 128
-0.325 10.525 0.0 139 165 183
-7.825 9.525 0.0 52 76 93
-6.2250000000000005 10.375 0.0 246 246 246
-5.425000000000001 10.175 0.0 203 204 203
-1.7750000000000001 10.025 0.0 247 247 247
-1.175 10.225000000000001 0.0 246 246 246
0.275 10.625 0.0 175 192 203
0.375 10.675 0.0 146 172 189
1.5250000000000001 10.775 0.0 136 166 186
1.7750000000000001 10.725000000000001 0.0 131 162 183
-1.625 9.875 0.0 197 213 164
-0.675 10.375 0.0 129 147 159
0.625 10.525 0.0 190 204 213
1.875 10.725000000000001 0.0 131 162 183
2.225 10.825000000000001 0.0 130 162 183
0.07500000000000001 10.725000000000001 0.0 203 203 203
1.625 10.525 0.0 72 87 97
1.925 10.525 0.0 206 206 206
-2.975 3.1750000000000003 0.0 111 66 68
-3.125 3.375 0.0 117 70 72
-1.975 2.275 0.0 167 167 167
-8.625 10.325000000000001 0.0 99 142 170
-7.925000000000001 10.625 0.0 106 147 173
-7.775 10.675 0.0 106 147 173
-6.325 10.075000000000001 0.0 246 246 246
-6.175000000000001 10.075000000000001 0.0 246 246 246
-5.7250000000000005 11.425 0.0 225 225 225
-1.975 10.325000000000001 0.0 246 246 246
-1.8250000000000002 10.975000000000001 0.0 247 247 247
-0.8250000000000001 10.775 0.0 143 169 187
-0.7250000000000001 10.775 0.0 145 171 188
-8.875 10.175 0.0 94 140 169
-8.775 10.225000000000001 0.0 95 140 170
-8.525 10.425 0.0 101 144 171
-8.075000000000001 10.575000000000001 0.0 104 146 173
-6.275 9.975000000000001 0.0 220 225 213
-5.875 10.425 0.0 244 244 244
-5.7250000000000005 10.725000000000001 0.0 215 215 215
-0.925 10.525 0.0 139 166 185
-8.875 10.125 0.0 94 139 167
-6.025 10.425 0.0 246 247 246
-0.925 10.625 0.0 143 170 187
-0.8250000000000001 10.725000000000001 0.0 143 168 186
-1.125 10.525 0.0 244 244 244
-0.47500000000000003 10.925 0.0 150 174 190
-8.725 10.225000000000001 0.0 95 140 169
-7.7250000000000005 10.675 0.0 107 148 174
-6.125 9.775 0.0 246 246 246
-1.075 10.425 0.0 166 187 201
-0.5750000000000001 10.725000000000001 0.0 150 174 190
-8.975 10.075000000000001 0.0 93 139 167
-8.475 10.325000000000001 0.0 100 142 169
-0.775 10.575000000000001 0.0 142 168 186
-0.375 10.775 0.0 149 172 189
-9.325000000000001 9.975000000000001 0.0 90 137 168
-8.175 10.475000000000001 0.0 101 144 172
-5.775 10.025 0.0 246 246 246
-0.675 10.575000000000001 0.0 148 173 190
-0.5750000000000001 10.675 0.0 150 175 191
-5.7250000000000005 10.225000000000001 0.0 246 246 246
-5.575 10.475000000000001 0.0 222 222 222
-5.775 11.225000000000001 0.0 223 223 223
-9.225 9.825000000000001 0.0 81 133 165
-1.425 9.975000000000001 0.0 219 230 176
-1.3250000000000002 10.025 0.0 179 189 169
-6.125 9.525 0.0 137 163 104
-6.025 10.225000000000001 0.0 243 244 243
-5.875 10.225000000000001 0.0 246 246 246
-1.175 10.925 0.0 247 247 247
-6.175000000000001 9.625 0.0 241 242 240
-6.025 10.175 0.0 246 246 246
-1.475 9.525 0.0 62 106 12
-1.225 10.175 0.0 240 242 238
-1.7750000000000001 10.375 0.0 246 246 246
-0.47500000000000003 10.075000000000001 0.0 169 169 169
-3.1750000000000003 3.375 0.0 110 65 67
-6.075 10.275 0.0 247 247 247
-5.9750000000000005 10.325000000000001 0.0 246 246 246
-5.775 10.275 0.0 246 246 246
-5.7250000000000005 11.675 0.0 189 189 189
-1.725 10.525 0.0 246 246 246
-6.325 9.725000000000001 0.0 30 60 85
-0.125 10.475000000000001 0.0 145 171 189
0.925 10.675 0.0 164 185 199
1.075 10.775 0.0 158 179 192
-5.925000000000001 10.275 0.0 246 246 246
-2.025 10.375 0.0 246 246 246
-5.9750000000000005 9.025 0.0 111 154 141
-5.375 10.075000000000001 0.0 162 162 162
-5.875 12.175 0.0 191 191 191
-5.825 9.825000000000001 0.0 246 246 246
-6.075 9.125 0.0 86 133 37
-5.875 9.475 0.0 161 185 125
-1.2750000000000001 10.325000000000001 0.0 247 247 247
-0.525 10.725000000000001 0.0 150 173 190
-8.425 10.175 0.0 97 143 171
-6.125 9.675 0.0 246 246 246
-0.925 10.775 0.0 144 169 187
-1.5750000000000002 9.975000000000001 0.0 90 141 10
0.525 10.525 0.0 175 191 201
-7.775 9.575000000000001 0.0 1 1 1
-6.275 9.525 0.0 69 106 79
-1.975 10.475000000000001 0.0 246 246 246
0.07500000000000001 10.425 0.0 174 189 198
0.17500000000000002 10.525 0.0 154 177 193
-1.675 9.725000000000001 0.0 237 240 230
-1.425 9.875 0.0 146 176 94
-0.875 10.175 0.0 144 171 189
-1.675 9.975000000000001 0.0 247 247 247
-0.47500000000000003 10.375 0.0 178 182 186
1.225 10.525 0.0 132 142 148
1.625 10.725000000000001 0.0 132 162 182
1.875 10.775 0.0 129 161 182
0.675 10.425 0.0 135 165 184
-3.0250000000000004 3.325 0.0 109 64 65
-2.275 2.6750000000000003 0.0 153 152 151
-2.025 2.5250000000000004 0.0 155 156 155
-1.975 2.575 0.0 156 155 153
-9.325000000000001 10.325000000000001 0.0 95 139 168
-6.525 9.975000000000001 0.0 80 116 141
-5.4750000000000005 10.275 0.0 230 230 230
-10.175 9.775 0.0 83 137 168
-9.325000000000001 10.375 0.0 95 140 170
-1.2750000000000001 10.675 0.0 246 246 246
-0.625 10.775 0.0 155 177 193
-9.125 10.375 0.0 94 140 169
-8.725 10.575000000000001 0.0 98 143 170
-7.025 10.275 0.0 116 153 177
-5.775 11.575000000000001 0.0 222 222 222
-0.7250000000000001 10.675 0.0 152 176 191
-6.825 10.175 0.0 125 159 181
-5.825 10.425 0.0 244 245 244
-8.625 10.675 0.0 105 147 173
-6.9750000000000005 10.225000000000001 0.0 113 152 176
-8.975 10.425 0.0 91 138 168
-8.875 10.525 0.0 99 143 170
-7.125 10.175 0.0 117 153 177
-6.375 9.975000000000001 0.0 247 247 247
-5.775 11.675 0.0 223 223 223
-1.5750000000000002 10.725000000000001 0.0 247 247 247
-1.125 10.625 0.0 206 212 216
-6.275 9.375 0.0 117 175 21
-5.925000000000001 9.525 0.0 64 104 18
-5.7250000000000005 9.425 0.0 246 246 246
-1.975 10.575000000000001 0.0 246 246 246
-1.625 10.425 0.0 244 245 242
-1.2750000000000001 10.075000000000001 0.0 246 246 246
-9.675 10.075000000000001 0.0 80 132 164
-9.525 10.175 0.0 84 135 166
-1.5750000000000002 10.175 0.0 224 234 203
-8.875 9.475 0.0 52 53 52
-8.175 9.075000000000001 0.0 19 19 19
-5.525 10.175 0.0 235 235 235
-1.375 10.675 0.0 247 247 247
-2.9250000000000003 3.225 0.0 112 66 65
-2.125 2.475 0.0 154 153 154
-2.075 2.4250000000000003 0.0 155 155 155
-2.025 2.475 0.0 155 156 155
-1.925 2.5250000000000004 0.0 135 130 123
-7.875 10.275 0.0 112 151 177
-7.7250000000000005 10.275 0.0 115 154 179
-6.625 10.125 0.0 108 145 169
-0.675 10.775 0.0 147 172 189
-0.525 10.825000000000001 0.0 147 172 190
-5.525 10.075000000000001 0.0 246 246 246
-5.575 10.725000000000001 0.0 172 173 173
-1.125 10.775 0.0 227 230 231
-0.875 10.675 0.0 143 169 187
-0.025 10.775 0.0 154 177 193
0.325 10.725000000000001 0.0 142 168 187
1.625 11.025 0.0 144 171 190
-1.8250000000000002 10.525 0.0 246 246 246
1.7750000000000001 11.025 0.0 137 165 185
-0.7250000000000001 10.725000000000001 0.0 148 173 190
-1.8250000000000002 10.575000000000001 0.0 246 246 246
-1.675 10.425 0.0 246 246 246
-1.125 10.725000000000001 0.0 43 63 80
-5.875 12.275 0.0 175 175 175
-6.175000000000001 9.375 0.0 97 150 8
-1.3250000000000002 10.275 0.0 246 246 246
-5.7250000000000005 9.975000000000001 0.0 246 246 246
-6.525 9.525 0.0 112 150 176
-5.925000000000001 12.075000000000001 0.0 194 195 194
-1.8250000000000002 9.775 0.0 190 206 158
-1.925 10.475000000000001 0.0 246 246 246
-5.325 9.925 0.0 168 169 169
-0.8250000000000001 10.275 0.0 154 172 183
0.025 10.525 0.0 146 172 189
0.8250000000000001 10.675 0.0 151 175 191
1.075 10.725000000000001 0.0 140 167 186
2.325 11.125 0.0 136 166 185
2.4250000000000003 11.125 0.0 141 170 189
2.575 11.125 0.0 134 166 186
-1.475 9.675 0.0 179 198 161
-0.925 10.225000000000001 0.0 136 164 184
-0.675 10.275 0.0 114 114 114
-0.225 10.375 0.0 189 189 189
-5.375 10.175 0.0 193 194 193
-6.2250000000000005 10.325000000000001 0.0 246 246 246
-1.725 10.675 0.0 246 246 246
-1.2750000000000001 10.775 0.0 247 247 247
-1.075 10.725000000000001 0.0 153 177 193
0.17500000000000002 10.725000000000001 0.0 144 171 188
-5.925000000000001 10.375 0.0 244 244 244
-0.125 10.725000000000001 0.0 147 173 190
-6.275 10.425 0.0 247 247 247
-1.075 10.775 0.0 145 171 189
-6.525 10.125 0.0 54 78 96
-6.425000000000001 10.425 0.0 246 246 246
-5.525 10.225000000000001 0.0 239 240 239
-5.875 9.775 0.0 228 233 210
-6.075 10.375 0.0 246 246 246
-1.925 10.775 0.0 247 247 247
-1.7750000000000001 10.225000000000001 0.0 246 247 246
-5.9750000000000005 9.475 0.0 185 206 152
-5.775 9.375 0.0 211 220 192
-1.5250000000000001 10.025 0.0 173 205 106
0.275 10.675 0.0 148 173 190
-1.725 9.775 0.0 246 246 246
-7.7250000000000005 9.525 0.0 115 155 179
-5.625 10.975000000000001 0.0 198 198 198
-1.875 10.275 0.0 246 246 246
-1.675 9.575000000000001 0.0 163 187 116
-1.3250000000000002 10.175 0.0 246 246 246
-0.375 10.175 0.0 172 173 172
-0.275 10.275 0.0 186 186 186
0.025 10.375 0.0 200 200 200
0.07500000000000001 10.325000000000001 0.0 193 193 193
0.375 10.375 0.0 154 154 154
-5.9750000000000005 10.125 0.0 246 246 246
-7.375 10.825000000000001 0.0 119 156 180
-6.375 10.225000000000001 0.0 246 246 246
-1.625 10.475000000000001 0.0 246 246 246
-1.2750000000000001 10.625 0.0 246 246 246
-0.025 10.425 0.0 181 189 195
2.275 10.725000000000001 0.0 150 175 191
-7.325 10.725000000000001 0.0 121 158 181
-5.825 11.725000000000001 0.0 172 172 172
0.675 10.525 0.0 171 191 204
2.5250000000000004 10.825000000000001 0.0 242 243 244
-6.2250000000000005 9.975000000000001 0.0 246 246 246
-1.475 10.625 0.0 247 247 247
2.575 10.925 0.0 246 246 246
-5.7250000000000005 11.025 0.0 174 175 174
-6.025 8.875 0.0 113 171 50
-5.925000000000001 12.375 0.0 176 176 176
-5.925000000000001 11.725000000000001 0.0 176 177 176
-1.425 10.225000000000001 0.0 237 239 230
1.2750000000000001 10.725000000000001 0.0 158 181 196
-5.825 12.175 0.0 178 178 178
1.625 10.775 0.0 134 165 185
1.375 10.725000000000001 0.0 134 163 183
-8.125 10.325000000000001 0.0 107 146 172
-6.175000000000001 9.675 0.0 245 245 245
-5.775 11.475000000000001 0.0 175 176 175
-5.625 11.425 0.0 174 175 174
-1.2750000000000001 9.925 0.0 224 231 207
-5.575 11.325000000000001 0.0 156 157 157
-1.5750000000000002 9.625 0.0 236 237 231
1.2750000000000001 10.675 0.0 154 178 194
1.5250000000000001 10.675 0.0 121 146 163
0.9750000000000001 10.675 0.0 149 171 187
1.3250000000000002 10.725000000000001 0.0 135 165 185
-0.375 10.325000000000001 0.0 156 161 165
-0.47500000000000003 10.275 0.0 179 179 179
1.375 10.475000000000001 0.0 136 141 144
1.625 10.625 0.0 124 144 157
1.125 10.375 0.0 109 109 109
1.2750000000000001 10.425 0.0 117 117 117
1.475 10.425 0.0 125 125 125
1.8250000000000002 10.575000000000001 0.0 203 203 203
2.1750000000000003 10.725000000000001 0.0 144 164 177
-7.325 10.425 0.0 116 154 177
-7.025 10.375 0.0 118 155 178
-7.375 10.425 0.0 112 151 177
-6.075 10.075000000000001 0.0 246 246 246
-5.925000000000001 10.075000000000001 0.0 246 246 246
-5.325 10.025 0.0 212 212 212
-1.3250000000000002 10.875 0.0 246 246 246
-6.025 10.025 0.0 246 247 246
-5.875 12.375 0.0 217 217 217
-1.625 10.675 0.0 246 247 246
-5.875 9.975000000000001 0.0 246 246 246
-5.425000000000001 10.225000000000001 0.0 193 194 193
-5.9750000000000005 12.275 0.0 216 216 216
-6.025 9.125 0.0 106 161 5
-5.875 9.325000000000001 0.0 190 212 118
-5.7250000000000005 9.275 0.0 62 104 13
-6.175000000000001 9.175 0.0 47 84 8
0.47500000000000003 10.675 0.0 143 169 187
-1.3250000000000002 9.825000000000001 0.0 233 236 229
0.025 10.725000000000001 0.0 143 169 188
-5.825 12.275 0.0 214 214 214
-1.425 10.525 0.0 246 246 246
-5.775 11.925 0.0 198 198 198
-5.9750000000000005 12.075000000000001 0.0 175 176 175
-6.075 9.025 0.0 110 170 21
1.125 10.525 0.0 151 151 149
1.2750000000000001 10.875 0.0 243 242 239
-6.075 8.875 0.0 116 160 131
-6.175000000000001 9.525 0.0 96 148 24
-5.875 10.075000000000001 0.0 246 246 246
-1.475 10.375 0.0 247 247 246
-1.2750000000000001 10.425 0.0 246 246 246
1.125 10.675 0.0 169 189 203
-5.925000000000001 9.925 0.0 246 246 246
-1.225 10.325000000000001 0.0 246 246 246
-1.425 9.675 0.0 212 221 200
-1.3250000000000002 9.675 0.0 187 202 169
-1.225 10.125 0.0 225 231 212
1.075 10.675 0.0 157 179 193
-5.875 11.625 0.0 175 176 175
-1.225 9.875 0.0 217 228 196
2.375 10.875 0.0 127 160 182
-1.875 10.125 0.0 246 246 246
1.075 10.625 0.0 155 176 190
1.725 10.725000000000001 0.0 129 161 182
0.625 10.425 0.0 120 142 156
1.475 10.475000000000001 0.0 125 125 125
1.625 10.675 0.0 124 141 152
-6.075 10.025 0.0 246 246 246
-6.325 10.175 0.0 246 246 246
-5.4750000000000005 10.025 0.0 246 246 246
-1.8250000000000002 10.325000000000001 0.0 247 247 247
-5.7250000000000005 11.775 0.0 214 215 214
-1.5750000000000002 10.225000000000001 0.0 241 243 231
-1.475 10.125 0.0 222 234 187
-1.675 10.175 0.0 244 245 241
-5.675000000000001 11.175 0.0 211 212 211
-5.775 12.525 0.0 211 211 211
-1.875 9.975000000000001 0.0 199 213 165
-1.7750000000000001 9.925 0.0 247 247 247
-5.925000000000001 8.975 0.0 76 136 5
-1.5750000000000002 9.725000000000001 0.0 169 195 120
-1.225 9.975000000000001 0.0 226 233 212
-1.875 10.175 0.0 246 246 246
-6.025 9.225 0.0 64 106 8
-4.625 10.275 0.0 186 187 186
-5.675000000000001 11.275 0.0 215 216 215
-1.7750000000000001 10.175 0.0 245 246 245
2.125 10.775 0.0 128 161 182
2.475 10.875 0.0 124 158 181
2.025 10.775 0.0 132 163 183
2.4250000000000003 10.775 0.0 135 164 182
2.025 10.725000000000001 0.0 130 162 182
2.325 10.775 0.0 127 160 181
-6.4750000000000005 10.275 0.0 246 247 246
-6.325 10.225000000000001 0.0 245 245 245
1.125 10.725000000000001 0.0 155 179 195
-5.925000000000001 10.175 0.0 246 247 246
2.4250000000000003 10.725000000000001 0.0 160 177 187
2.325 10.725000000000001 0.0 126 160 181
-1.975 10.175 0.0 246 246 246
0.625 10.675 0.0 145 171 189
1.725 10.675 0.0 131 163 183
1.925 10.675 0.0 156 173 183
-1.875 9.775 0.0 119 163 48
-1.2750000000000001 9.625 0.0 247 247 247
0.7250000000000001 10.675 0.0 148 173 190
1.8250000000000002 10.675 0.0 134 161 179
-6.025 9.425 0.0 96 149 22
2.475 10.775 0.0 181 200 211
2.5250000000000004 10.725000000000001 0.0 248 248 248
-5.425000000000001 10.025 0.0 233 233 233
-5.775 10.225000000000001 0.0 246 247 246
-1.5750000000000002 9.675 0.0 158 186 112
-5.875 10.175 0.0 246 246 246
2.325 10.625 0.0 67 67 68
1.5750000000000002 10.425 0.0 145 145 145
-6.125 9.225 0.0 105 146 172
3.725 10.425 0.0 247 247 247
2.6750000000000003 10.925 0.0 246 246 246
2.975 11.125 0.0 247 247 247
3.125 11.175 0.0 246 247 246
3.375 11.225000000000001 0.0 246 246 246
3.475 11.275 0.0 246 246 246
3.575 10.975000000000001 0.0 188 188 188
-5.625 11.475000000000001 0.0 158 159 158
2.875 11.075000000000001 0.0 246 246 246
3.2750000000000004 11.225000000000001 0.0 247 247 247
3.625 10.875 0.0 188 188 187
2.225 10.875 0.0 128 161 182
2.725 10.975000000000001 0.0 246 246 246
3.125 11.225000000000001 0.0 247 247 247
1.3250000000000002 10.625 0.0 131 140 145
-1.425 10.125 0.0 245 245 243
3.225 11.175 0.0 246 246 246
2.325 10.875 0.0 127 160 181
3.575 11.175 0.0 187 188 187
3.625 10.425 0.0 230 230 230
2.875 11.025 0.0 247 247 247
3.625 10.475000000000001 0.0 241 241 240
3.6750000000000003 10.275 0.0 247 247 247
-4.775 10.825000000000001 0.0 148 149 148
-1.3250000000000002 9.725000000000001 0.0 54 94 3
2.975 11.025 0.0 246 246 246
2.825 10.975000000000001 0.0 246 246 246
1.075 10.475000000000001 0.0 44 44 44
1.2750000000000001 10.475000000000001 0.0 116 116 116
1.425 10.625 0.0 126 138 147
1.5250000000000001 10.575000000000001 0.0 111 112 111
1.725 10.525 0.0 126 126 126
2.275 10.675 0.0 215 215 215
-1.3250000000000002 10.675 0.0 246 246 246
-0.07500000000000001 10.325000000000001 0.0 215 215 215
0.42500000000000004 10.275 0.0 185 186 185
0.8250000000000001 5.425000000000001 0.0 136 127 96
0.8250000000000001 5.4750000000000005 0.0 187 181 159
0.8250000000000001 5.375 0.0 154 144 109
2.025 10.875 0.0 132 163 184
0.675 10.675 0.0 164 184 198
-2.125 10.675 0.0 242 242 242
-6.175000000000001 13.625 0.0 172 173 172
-5.4750000000000005 11.225000000000001 0.0 184 185 185
-1.725 10.325000000000001 0.0 246 247 246
-1.3250000000000002 10.125 0.0 247 247 247
-5.525 10.975000000000001 0.0 185 185 185
-1.125 10.125 0.0 246 246 246
-1.675 9.875 0.0 142 174 110
-5.4750000000000005 10.725000000000001 0.0 183 183 183
1.3250000000000002 10.875 0.0 218 218 218
1.725 10.875 0.0 139 167 186
-1.475 10.225000000000001 0.0 246 246 247
-1.2750000000000001 10.225000000000001 0.0 207 221 182
1.3250000000000002 10.525 0.0 150 151 150
1.875 10.575000000000001 0.0 216 216 216
2.075 10.675 0.0 196 196 196
3.0250000000000004 11.075000000000001 0.0 247 246 247
3.075 11.125 0.0 246 246 246
3.325 11.275 0.0 246 246 246
3.725 10.525 0.0 246 246 246
-6.125 14.175 0.0 138 138 138
3.225 11.225000000000001 0.0 247 247 247
3.5250000000000004 11.175 0.0 179 179 180
-1.3250000000000002 10.225000000000001 0.0 247 247 246
2.825 11.075000000000001 0.0 246 246 246
-6.075 14.625 0.0 137 136 137
2.1750000000000003 10.675 0.0 149 173 190
1.975 10.575000000000001 0.0 166 183 194
3.9250000000000003 10.525 0.0 246 246 246
1.675 10.625 0.0 97 98 97
2.1750000000000003 10.625 0.0 216 216 216
0.875 5.525 0.0 69 63 49
2.275 10.775 0.0 127 160 181
-5.625 10.025 0.0 246 246 246
2.5250000000000004 10.875 0.0 214 224 229
-6.125 13.925 0.0 173 173 173
-6.2250000000000005 14.425 0.0 175 175 175
-6.275 13.075000000000001 0.0 178 178 178
-1.425 9.525 0.0 238 240 237
2.325 10.675 0.0 126 161 183
-2.075 10.525 0.0 246 246 246
-0.7250000000000001 10.275 0.0 107 107 107
3.7750000000000004 10.425 0.0 247 247 247
2.275 10.875 0.0 129 162 183
4.075 10.475000000000001 0.0 247 247 247
-6.075 15.025 0.0 137 136 136
3.625 10.325000000000001 0.0 246 246 246
2.975 11.175 0.0 247 247 247
3.475 11.375 0.0 247 247 247
3.0250000000000004 11.175 0.0 247 247 247
-6.425000000000001 15.475000000000001 0.0 139 139 139
-1.675 10.225000000000001 0.0 235 240 215
3.575 11.275 0.0 199 200 199
-1.075 10.325000000000001 0.0 169 190 203
3.4250000000000003 11.175 0.0 246 246 246
3.075 11.025 0.0 246 246 246
3.1750000000000003 11.075000000000001 0.0 247 247 247
-1.3250000000000002 10.725000000000001 0.0 247 247 247
3.575 11.225000000000001 0.0 192 193 193
-0.47500000000000003 10.175 0.0 161 161 161
2.025 6.925000000000001 0.0 198 130 108
2.625 10.975000000000001 0.0 246 246 246
-1.375 10.175 0.0 246 246 246
-1.175 9.675 0.0 96 144 32
-1.125 9.875 0.0 247 246 247
-1.2750000000000001 9.725000000000001 0.0 228 232 221
2.875 10.925 0.0 246 246 246
2.975 10.925 0.0 246 246 246
1.875 10.875 0.0 131 162 183
2.125 10.875 0.0 136 166 186
2.7750000000000004 10.925 0.0 246 246 246
0.875 5.425000000000001 0.0 33 27 14
-6.325 13.925 0.0 161 161 161
-6.275 15.075000000000001 0.0 154 154 154
-6.425000000000001 13.775 0.0 164 164 164
-6.275 15.025 0.0 151 150 151
-6.525 14.375 0.0 161 161 161
3.5250000000000004 11.125 0.0 153 154 155
-6.325 13.725000000000001 0.0 166 167 166
2.075 10.575000000000001 0.0 178 189 196
-0.8250000000000001 10.225000000000001 0.0 114 114 114
3.475 11.225000000000001 0.0 247 247 247
-0.42500000000000004 10.225000000000001 0.0 190 190 189
3.4250000000000003 11.275 0.0 247 247 247
-1.475 10.175 0.0 246 246 246
2.5250000000000004 10.675 0.0 247 247 247
1.075 10.375 0.0 78 79 78
1.175 10.425 0.0 150 150 150
1.375 10.425 0.0 187 187 187
-2.075 10.625 0.0 246 246 246
-1.875 10.675 0.0 247 247 247
-9.475 9.875 0.0 16 17 16
-5.7250000000000005 10.625 0.0 237 237 237
-5.875 11.525 0.0 237 237 237
-9.475 9.825000000000001 0.0 62 118 152
-5.625 10.575000000000001 0.0 233 234 233
-5.675000000000001 10.275 0.0 243 243 243
-5.675000000000001 10.475000000000001 0.0 240 240 240
-5.7250000000000005 10.675 0.0 240 241 241
-6.425000000000001 14.925 0.0 241 241 241
-6.375 14.975000000000001 0.0 241 241 241
-6.125 11.575000000000001 0.0 241 241 241
-5.7250000000000005 11.525 0.0 230 230 230
-6.075 10.175 0.0 242 242 242
-6.125 13.725000000000001 0.0 240 240 240
-6.375 14.825000000000001 0.0 241 242 241
-5.925000000000001 11.675 0.0 242 243 243
-5.9750000000000005 11.575000000000001 0.0 243 243 243
-5.9750000000000005 11.475000000000001 0.0 243 243 243
-5.7250000000000005 11.925 0.0 242 242 242
-10.025 9.875 0.0 7 8 7
-10.675 9.975000000000001 0.0 201 199 188
-6.625 0.42500000000000004 0.0 240 240 240
-7.325 2.125 0.0 111 69 71
-3.975 0.275 0.0 184 164 164
-4.075 0.42500000000000004 0.0 132 92 91
-4.075 0.275 0.0 83 50 50
-4.075 0.525 0.0 130 91 91
-3.975 0.675 0.0 135 99 101
-6.875 0.325 0.0 89 172 182
-6.7250000000000005 0.525 0.0 231 232 232
-2.625 3.375 0.0 85 48 47
-2.6750000000000003 3.375 0.0 85 50 51
-3.875 -1.2750000000000001 0.0 81 78 39
-3.975 -0.9750000000000001 0.0 115 71 76
-3.625 -1.725 0.0 120 116 113
-3.9250000000000003 -1.225 0.0 119 75 74
-3.9250000000000003 -1.0250000000000001 0.0 123 76 78
-4.025 -0.775 0.0 96 57 58
-4.025 -0.675 0.0 78 50 51
-4.025 -0.5750000000000001 0.0 94 57 58
-4.075 -0.42500000000000004 0.0 80 51 51
-4.075 -0.925 0.0 89 52 53
-4.025 -0.47500000000000003 0.0 181 160 160
-4.175 -0.47500000000000003 0.0 85 60 61
-4.125 -1.175 0.0 92 55 56
-4.025 -0.42500000000000004 0.0 117 92 94
-3.975 -1.225 0.0 140 116 116
-3.975 -1.125 0.0 21 20 21
-4.075 -1.125 0.0 84 49 50
-4.075 -1.075 0.0 77 44 44
-4.125 -0.625 0.0 71 40 42
-4.2250000000000005 0.07500000000000001 0.0 82 50 51
-4.175 0.42500000000000004 0.0 87 54 55
-4.075 -0.775 0.0 64 38 38
-4.175 -0.5750000000000001 0.0 61 38 39
-4.075 -0.675 0.0 77 47 48
-4.075 -0.7250000000000001 0.0 106 65 66
-4.125 -0.47500000000000003 0.0 86 50 51
-4.2250000000000005 -0.325 0.0 95 56 59
-3.825 -1.175 0.0 86 104 26
-3.875 -1.125 0.0 96 63 53
-4.025 -1.075 0.0 73 50 53
-4.025 -0.7250000000000001 0.0 89 51 52
-1.725 1.375 0.0 95 88 88
-1.675 1.2750000000000001 0.0 127 128 127
-1.7750000000000001 1.5250000000000001 0.0 240 239 237
-2.625 3.2750000000000004 0.0 114 100 101
-3.975 -1.5750000000000002 0.0 104 76 75
-4.025 -0.275 0.0 110 68 70
-4.075 -0.325 0.0 68 40 41
-4.025 -0.17500000000000002 0.0 111 70 73
-4.075 -0.07500000000000001 0.0 107 65 65
-4.075 -1.625 0.0 137 114 112
-3.975 -1.375 0.0 95 55 55
-4.125 -0.225 0.0 77 44 45
-4.175 -0.17500000000000002 0.0 83 50 51
-4.075 -1.8250000000000002 0.0 77 43 44
-4.125 -1.725 0.0 125 95 95
-4.025 -1.3250000000000002 0.0 89 52 54
-4.175 -0.125 0.0 89 51 51
-4.2250000000000005 0.225 0.0 108 81 82
-3.9250000000000003 -1.875 0.0 141 132 130
-4.175 0.275 0.0 98 69 70
-3.9250000000000003 -1.8250000000000002 0.0 149 144 140
-4.2250000000000005 0.42500000000000004 0.0 92 65 64
-3.7750000000000004 1.0250000000000001 0.0 164 159 156
-4.025 -1.5250000000000001 0.0 112 66 71
-4.125 -1.5250000000000001 0.0 86 52 54
-3.625 1.0250000000000001 0.0 147 142 139
-3.7750000000000004 1.075 0.0 164 159 155
-4.275 0.325 0.0 116 72 72
-3.725 1.0250000000000001 0.0 155 150 147
-3.725 -1.875 0.0 147 143 138
-3.825 -1.8250000000000002 0.0 122 117 114
-3.6750000000000003 -1.5750000000000002 0.0 132 128 124
-3.475 -1.675 0.0 122 118 114
-4.175 0.125 0.0 79 46 48
-3.825 -1.375 0.0 96 67 56
-4.125 -0.025 0.0 64 42 43
-1.475 -0.42500000000000004 0.0 241 240 241
-3.9250000000000003 -1.075 0.0 110 68 68
-4.075 -1.0250000000000001 0.0 100 74 75
-1.425 -0.125 0.0 244 244 244
-1.5250000000000001 0.17500000000000002 0.0 119 94 94
-1.5750000000000002 0.47500000000000003 0.0 118 91 90
-1.675 0.325 0.0 235 233 231
-1.7750000000000001 0.375 0.0 153 153 152
-1.925 0.47500000000000003 0.0 154 155 154
-1.975 0.7250000000000001 0.0 59 59 59
-1.875 0.9750000000000001 0.0 17 17 17
-1.475 0.275 0.0 140 123 123
-7.375 2.075 0.0 66 37 36
-1.5250000000000001 0.025 0.0 85 49 50
-1.625 0.775 0.0 68 40 41
-1.625 1.675 0.0 119 90 90
-1.5750000000000002 1.8250000000000002 0.0 226 226 225
-1.675 1.975 0.0 132 111 111
-1.475 0.125 0.0 192 178 178
-1.725 1.925 0.0 115 71 72
-2.275 2.5250000000000004 0.0 173 156 158
-3.625 0.675 0.0 25 24 22
-3.6750000000000003 0.7250000000000001 0.0 25 24 22
-3.725 0.8250000000000001 0.0 25 24 22
-3.875 -0.8250000000000001 0.0 79 52 51
-3.9250000000000003 -0.42500000000000004 0.0 68 45 44
-3.975 0.025 0.0 85 53 52
-3.9250000000000003 0.17500000000000002 0.0 87 55 55
-3.9250000000000003 0.275 0.0 84 54 56
-3.6750000000000003 -1.7750000000000001 0.0 149 145 141
-4.075 0.225 0.0 95 56 58
-4.125 0.125 0.0 74 41 42
-4.425 0.325 0.0 98 58 58
-3.7750000000000004 0.925 0.0 151 146 142
-4.025 -1.925 0.0 156 148 145
-4.175 -0.42500000000000004 0.0 67 41 41
-4.025 -1.8250000000000002 0.0 93 53 55
-4.075 -1.2750000000000001 0.0 33 20 20
-4.2250000000000005 -1.3250000000000002 0.0 101 60 62
-4.375 -0.07500000000000001 0.0 99 59 58
-4.275 -0.07500000000000001 0.0 98 58 59
-3.4250000000000003 -2.025 0.0 149 144 141
-4.2250000000000005 -0.625 0.0 103 61 59
-4.2250000000000005 -0.07500000000000001 0.0 76 43 45
-4.025 -1.675 0.0 89 51 52
-4.025 -1.2750000000000001 0.0 75 41 42
-4.175 -0.9750000000000001 0.0 85 48 49
-4.075 -1.425 0.0 80 45 48
-4.175 -1.375 0.0 99 59 62
-1.375 -1.875 0.0 147 146 146
-1.675 -1.375 0.0 157 158 157
-3.5250000000000004 -1.875 0.0 152 147 143
-3.575 -1.8250000000000002 0.0 157 152 149
-4.175 0.025 0.0 66 36 37
-3.9250000000000003 -1.625 0.0 94 75 52
-4.175 -0.7250000000000001 0.0 71 40 41
-4.175 -0.025 0.0 79 45 46
-4.175 0.17500000000000002 0.0 72 43 43
-1.625 -0.625 0.0 214 213 214
-4.175 -0.275 0.0 72 41 42
-4.2250000000000005 0.325 0.0 101 77 76
-1.425 -0.325 0.0 230 230 230
-1.5750000000000002 0.225 0.0 147 136 137
-2.075 0.675 0.0 14 14 14
-2.075 0.8250000000000001 0.0 24 24 22
-4.125 0.025 0.0 67 38 39
-1.475 -1.725 0.0 93 55 58
-1.425 0.125 0.0 181 179 180
-1.5250000000000001 0.375 0.0 205 199 199
-1.5250000000000001 0.525 0.0 110 88 88
-1.925 0.775 0.0 11 11 11
-1.425 -0.5750000000000001 0.0 165 144 145
-1.5250000000000001 0.5750000000000001 0.0 83 55 56
-1.5750000000000002 0.7250000000000001 0.0 67 38 39
-1.675 0.675 0.0 237 236 234
-1.875 1.175 0.0 20 20 19
-3.9250000000000003 -0.875 0.0 101 59 59
-3.875 -0.675 0.0 237 246 245
-3.6750000000000003 -0.42500000000000004 0.0 149 148 149
-6.625 0.925 0.0 208 195 193
-1.5750000000000002 1.175 0.0 82 48 48
-1.5250000000000001 -0.025 0.0 87 51 51
-1.5750000000000002 0.625 0.0 92 65 66
-1.625 1.2750000000000001 0.0 67 37 38
-1.5750000000000002 0.025 0.0 98 56 55
-1.625 1.0250000000000001 0.0 69 39 40
-1.625 1.375 0.0 73 41 42
-1.675 1.475 0.0 113 91 91
-1.625 2.025 0.0 204 203 202
-1.5750000000000002 0.675 0.0 73 40 41
-1.625 1.5250000000000001 0.0 78 45 45
-1.675 2.075 0.0 139 116 117
-1.625 1.125 0.0 72 40 40
-1.625 1.3250000000000002 0.0 75 44 45
-1.675 2.1750000000000003 0.0 72 42 42
-1.675 1.225 0.0 98 57 58
-1.675 1.3250000000000002 0.0 95 57 57
-1.725 2.275 0.0 87 51 52
-1.725 2.325 0.0 86 51 52
-1.7750000000000001 2.325 0.0 104 64 65
-1.7750000000000001 2.375 0.0 90 53 54
-2.125 2.225 0.0 116 76 76
-2.125 2.275 0.0 113 74 75
-1.7750000000000001 2.475 0.0 88 52 54
-3.575 -0.025 0.0 25 23 22
-3.9250000000000003 -0.325 0.0 81 46 48
-3.975 -0.925 0.0 78 44 46
-3.9250000000000003 -1.475 0.0 69 37 38
-4.175 -0.775 0.0 68 37 38
-4.375 0.42500000000000004 0.0 96 67 67
-3.825 -1.725 0.0 164 159 155
-4.075 -1.875 0.0 80 45 45
-4.2250000000000005 -1.0250000000000001 0.0 75 42 43
-4.175 -0.875 0.0 78 43 43
-4.2250000000000005 -0.42500000000000004 0.0 75 42 43
-4.2250000000000005 -1.2750000000000001 0.0 84 49 50
-4.275 -1.175 0.0 84 48 49
-4.275 -0.17500000000000002 0.0 82 45 46
-4.2250000000000005 -0.025 0.0 75 41 42
-4.2250000000000005 0.525 0.0 84 47 47
-4.175 0.47500000000000003 0.0 79 45 46
-4.125 0.5750000000000001 0.0 79 42 46
-3.5250000000000004 -1.7750000000000001 0.0 162 157 154
-3.4250000000000003 -1.925 0.0 130 125 122
-3.875 -1.675 0.0 81 46 47
-1.425 -1.675 0.0 83 47 49
-1.375 -0.7250000000000001 0.0 83 47 48
-1.5750000000000002 -0.775 0.0 241 241 241
-4.175 -1.075 0.0 56 33 34
-1.725 0.375 0.0 156 148 148
-3.875 -0.7250000000000001 0.0 144 143 145
-3.875 -0.625 0.0 59 49 53
-1.425 -0.675 0.0 75 42 42
-3.725 0.925 0.0 126 117 114
-3.575 1.075 0.0 131 126 122
-1.5250000000000001 -0.625 0.0 77 43 42
-1.725 1.5750000000000002 0.0 229 227 224
-1.8250000000000002 1.875 0.0 237 237 236
-2.375 1.7750000000000001 0.0 236 236 236
-1.5750000000000002 0.325 0.0 81 44 46
-1.625 0.925 0.0 70 38 39
-1.625 1.075 0.0 60 34 35
-1.625 1.925 0.0 221 219 217
-1.725 2.375 0.0 87 51 52
-1.625 1.625 0.0 118 98 99
-1.7750000000000001 2.5250000000000004 0.0 92 59 60
-3.825 -0.275 0.0 25 24 22
-3.4250000000000003 -1.8250000000000002 0.0 106 102 98
-3.5250000000000004 -1.975 0.0 105 100 97
-3.9250000000000003 -1.975 0.0 168 163 160
-3.575 -1.875 0.0 167 162 159
-3.7750000000000004 -1.925 0.0 169 164 161
-3.475 -2.225 0.0 108 103 100
-4.175 -1.125 0.0 18 14 15
-1.425 -1.975 0.0 64 36 36
-1.475 -1.425 0.0 65 36 37
-1.425 -0.375 0.0 204 202 203
-1.975 0.875 0.0 9 9 9
-1.475 -0.125 0.0 150 135 135
-1.475 -0.275 0.0 230 230 230
-1.5250000000000001 0.675 0.0 63 34 34
-3.6750000000000003 -1.725 0.0 152 138 137
-4.175 -0.675 0.0 63 34 33
-4.275 0.07500000000000001 0.0 1 1 1
-4.175 -1.675 0.0 4 3 3
-4.2250000000000005 -0.875 0.0 226 227 227
-3.5250000000000004 -2.275 0.0 167 162 159
-4.125 -1.3250000000000002 0.0 62 34 34
-1.425 -1.475 0.0 232 231 232
-1.5750000000000002 -0.675 0.0 173 173 173
-4.2250000000000005 -0.775 0.0 67 36 36
-1.425 -2.075 0.0 67 37 37
-2.075 1.075 0.0 131 131 131
-1.725 0.625 0.0 138 139 138
-1.925 0.875 0.0 9 9 8
-1.5750000000000002 0.07500000000000001 0.0 65 35 35
-1.5750000000000002 0.42500000000000004 0.0 64 35 36
-3.9250000000000003 -1.425 0.0 166 164 155
-3.4250000000000003 -1.725 0.0 32 71 102
-4.175 -1.3250000000000002 0.0 64 34 35
-1.375 -2.225 0.0 246 246 246
-1.7750000000000001 -1.675 0.0 216 213 209
-1.725 -1.725 0.0 63 34 35
-1.925 1.075 0.0 144 144 144
-1.975 1.125 0.0 144 145 144
-1.5250000000000001 1.3250000000000002 0.0 65 35 37
-1.7750000000000001 1.3250000000000002 0.0 65 35 36
-1.475 -0.675 0.0 64 35 36
-1.5250000000000001 -0.225 0.0 67 36 37
-1.725 2.475 0.0 81 46 46
