ply
format ascii 1.0
element vertex 656
property float x
property float y
property float z
property uchar red
property uchar green
property uchar blue
end_header
0.125 0.07500000000000001 0.0 0 0 0
0.125 0.025 0.0 11 12 12
0.125 -0.025 0.0 2 2 2
5.125 0.775 0.0 228 228 228
5.025 -0.17500000000000002 0.0 246 246 246
5.025 0.525 0.0 246 246 246
5.025 0.42500000000000004 0.0 246 246 246
4.9750000000000005 0.5750000000000001 0.0 246 246 246
4.9750000000000005 0.7250000000000001 0.0 245 245 245
5.025 0.775 0.0 224 225 224
4.9750000000000005 0.325 0.0 246 246 246
4.9750000000000005 0.17500000000000002 0.0 245 246 245
4.925000000000001 0.42500000000000004 0.0 245 246 245
4.9750000000000005 0.125 0.0 245 246 245
4.925000000000001 0.325 0.0 246 246 246
4.925000000000001 0.07500000000000001 0.0 245 245 245
4.925000000000001 0.025 0.0 246 246 246
4.9750000000000005 -0.07500000000000001 0.0 246 246 246
4.925000000000001 0.17500000000000002 0.0 246 246 246
4.9750000000000005 0.025 0.0 246 246 246
4.925000000000001 0.8250000000000001 0.0 164 164 164
4.925000000000001 -0.125 0.0 246 246 246
4.925000000000001 -0.17500000000000002 0.0 245 245 245
5.075 0.625 0.0 246 246 246
5.075 0.525 0.0 246 246 245
5.075 0.675 0.0 246 246 246
5.025 0.675 0.0 246 246 246
4.9750000000000005 -0.025 0.0 246 246 246
4.925000000000001 -2.6750000000000003 0.0 199 199 199
5.925000000000001 -3.075 0.0 199 200 199
4.925000000000001 -2.825 0.0 226 226 226
4.925000000000001 0.7250000000000001 0.0 243 243 243
4.925000000000001 -0.025 0.0 246 246 246
4.925000000000001 0.625 0.0 245 246 245
4.125 0.42500000000000004 0.0 246 246 246
4.125 0.47500000000000003 0.0 245 245 245
4.075 0.5750000000000001 0.0 246 246 246
5.075 0.07500000000000001 0.0 246 246 246
5.075 0.025 0.0 245 245 245
5.075 -0.025 0.0 246 246 246
5.075 -0.125 0.0 246 246 246
5.175000000000001 0.7250000000000001 0.0 246 246 246
5.075 0.7250000000000001 0.0 246 246 246
4.925000000000001 0.47500000000000003 0.0 245 245 245
4.875 -0.025 0.0 246 246 246
5.075 0.42500000000000004 0.0 245 245 245
5.075 0.325 0.0 246 246 246
5.075 0.225 0.0 246 246 246
5.925000000000001 -2.725 0.0 69 68 68
5.925000000000001 -2.7750000000000004 0.0 57 54 54
5.925000000000001 -2.9250000000000003 0.0 197 197 196
4.925000000000001 -2.625 0.0 199 199 199
4.925000000000001 0.675 0.0 246 246 246
4.875 -2.625 0.0 198 199 198
4.875 -2.725 0.0 200 201 200
4.875 -2.7750000000000004 0.0 201 201 201
4.9750000000000005 -2.625 0.0 197 197 197
4.9750000000000005 -2.6750000000000003 0.0 200 200 200
4.9750000000000005 -2.7750000000000004 0.0 200 200 200
5.9750000000000005 -2.7750000000000004 0.0 51 50 50
5.9750000000000005 -2.9250000000000003 0.0 197 198 197
5.9750000000000005 -2.975 0.0 197 197 197
5.9750000000000005 -3.075 0.0 197 198 197
5.9750000000000005 -2.6750000000000003 0.0 9 8 7
4.9750000000000005 -2.875 0.0 246 246 246
5.925000000000001 -2.975 0.0 199 200 199
4.925000000000001 -2.875 0.0 246 246 246
5.925000000000001 -3.0250000000000004 0.0 201 201 201
5.075 -0.17500000000000002 0.0 246 246 246
3.5250000000000004 5.575 0.0 103 151 39
4.375 3.4250000000000003 0.0 239 239 239
1.175 11.075000000000001 0.0 110 146 171
1.175 10.825000000000001 0.0 89 106 116
0.275 10.675 0.0 184 184 184
4.575 7.025 0.0 20 18 18
1.075 10.775 0.0 103 143 169
-0.125 10.575000000000001 0.0 121 153 176
0.47500000000000003 10.675 0.0 236 235 229
0.625 10.925 0.0 232 230 224
0.42500000000000004 10.875 0.0 121 154 176
-1.625 10.225000000000001 0.0 242 243 241
1.875 7.325 0.0 215 218 218
-1.0250000000000001 9.825000000000001 0.0 104 105 104
-1.2750000000000001 10.425 0.0 137 164 184
-2.025 10.375 0.0 244 244 244
-1.175 10.475000000000001 0.0 131 161 182
-1.925 10.525 0.0 245 245 245
-1.625 10.375 0.0 245 245 245
-1.5250000000000001 10.425 0.0 247 247 247
-0.925 10.575000000000001 0.0 133 163 183
-0.775 10.425 0.0 140 167 186
-2.075 10.375 0.0 244 244 244
-1.925 10.225000000000001 0.0 241 243 232
-0.325 10.575000000000001 0.0 142 169 187
-2.275 10.575000000000001 0.0 246 246 246
-1.5750000000000002 9.675 0.0 247 247 247
3.1750000000000003 5.4750000000000005 0.0 208 217 193
-1.2750000000000001 10.275 0.0 144 171 189
-1.675 9.575000000000001 0.0 193 197 191
3.4250000000000003 10.225000000000001 0.0 246 247 246
3.125 10.775 0.0 165 166 167
2.975 11.025 0.0 246 246 246
3.0250000000000004 10.975000000000001 0.0 246 246 246
1.925 11.075000000000001 0.0 132 161 182
2.325 10.725000000000001 0.0 246 246 246
-1.175 10.375 0.0 145 171 188
0.925 10.825000000000001 0.0 241 240 237
-0.07500000000000001 10.475000000000001 0.0 243 243 240
0.925 10.725000000000001 0.0 182 195 203
2.875 11.025 0.0 247 247 247
-1.375 10.475000000000001 0.0 192 207 217
-1.225 10.275 0.0 148 173 190
-1.125 10.375 0.0 148 172 189
2.075 10.875 0.0 123 156 179
2.6750000000000003 11.025 0.0 246 247 246
2.9250000000000003 11.125 0.0 246 246 246
-2.225 10.525 0.0 247 247 247
-1.0250000000000001 10.375 0.0 148 173 190
-0.025 10.475000000000001 0.0 211 209 205
0.325 10.625 0.0 243 243 240
-1.7750000000000001 10.425 0.0 245 245 245
-1.8250000000000002 10.475000000000001 0.0 246 246 246
-1.675 10.375 0.0 245 245 245
-1.425 10.425 0.0 247 247 247
2.725 11.075000000000001 0.0 245 245 245
3.1750000000000003 10.125 0.0 246 246 246
-2.4250000000000003 10.725000000000001 0.0 246 246 246
-1.7750000000000001 10.325000000000001 0.0 244 244 244
-1.3250000000000002 10.375 0.0 144 170 189
1.075 11.325000000000001 0.0 128 158 179
-1.675 10.275 0.0 246 246 246
-0.5750000000000001 10.475000000000001 0.0 145 171 189
0.5750000000000001 10.975000000000001 0.0 139 167 186
-1.8250000000000002 10.225000000000001 0.0 243 244 242
0.07500000000000001 10.775 0.0 143 170 188
-1.5750000000000002 10.025 0.0 237 241 229
0.525 10.875 0.0 143 170 188
-1.8250000000000002 9.775 0.0 98 142 37
-1.725 9.775 0.0 84 130 23
-1.625 9.725000000000001 0.0 246 246 246
-1.075 10.425 0.0 134 162 182
-0.525 10.475000000000001 0.0 161 181 194
-1.5750000000000002 9.875 0.0 169 194 132
-1.475 10.325000000000001 0.0 247 247 247
-0.42500000000000004 10.625 0.0 139 167 186
-1.675 9.725000000000001 0.0 188 205 158
-1.125 10.275 0.0 156 172 182
-0.325 10.475000000000001 0.0 165 181 192
-1.7750000000000001 9.725000000000001 0.0 100 135 51
-1.125 9.975000000000001 0.0 10 10 10
-1.725 9.675 0.0 226 233 213
4.175 10.575000000000001 0.0 81 100 113
0.9750000000000001 10.975000000000001 0.0 139 166 185
2.575 11.225000000000001 0.0 245 246 246
3.725 9.925 0.0 247 247 247
3.975 10.275 0.0 111 107 108
-1.725 10.475000000000001 0.0 245 245 245
-1.5250000000000001 10.525 0.0 246 246 246
3.1750000000000003 10.925 0.0 186 186 186
-2.275 10.525 0.0 244 244 244
-1.5750000000000002 10.525 0.0 246 246 246
-1.125 10.475000000000001 0.0 143 169 187
-1.0250000000000001 10.525 0.0 117 150 174
-0.8250000000000001 10.475000000000001 0.0 137 165 184
-0.7250000000000001 10.475000000000001 0.0 130 160 181
-0.47500000000000003 10.425 0.0 143 169 187
0.7250000000000001 10.875 0.0 143 170 189
-2.075 10.525 0.0 246 246 246
-1.975 10.525 0.0 246 246 246
-1.3250000000000002 10.325000000000001 0.0 149 175 192
0.42500000000000004 10.775 0.0 243 243 240
0.8250000000000001 10.725000000000001 0.0 244 243 240
1.975 11.025 0.0 141 170 189
-2.125 10.275 0.0 246 246 246
-0.925 10.475000000000001 0.0 144 170 188
-0.42500000000000004 10.475000000000001 0.0 133 159 176
-0.225 10.475000000000001 0.0 157 175 188
0.125 10.475000000000001 0.0 181 181 180
0.225 10.475000000000001 0.0 207 207 204
0.42500000000000004 10.575000000000001 0.0 227 225 220
-0.7250000000000001 10.425 0.0 133 164 184
-0.875 10.375 0.0 140 168 187
-0.625 10.425 0.0 143 169 187
0.07500000000000001 10.625 0.0 204 205 205
-0.225 10.425 0.0 140 167 186
2.9250000000000003 10.875 0.0 246 246 246
3.075 10.675 0.0 184 185 185
-1.925 10.075000000000001 0.0 247 247 247
-1.925 10.325000000000001 0.0 243 243 242
-0.675 10.475000000000001 0.0 136 164 184
2.875 11.175 0.0 245 245 245
-2.025 9.975000000000001 0.0 246 246 246
-1.725 10.225000000000001 0.0 246 246 246
-0.675 10.375 0.0 142 169 188
3.075 10.975000000000001 0.0 210 210 210
-1.975 9.775 0.0 246 247 246
-1.5250000000000001 10.225000000000001 0.0 212 225 188
1.7750000000000001 10.825000000000001 0.0 122 157 179
-1.625 9.775 0.0 85 139 25
-0.7250000000000001 10.325000000000001 0.0 142 170 188
-1.075 10.325000000000001 0.0 96 97 96
-0.8250000000000001 10.075000000000001 0.0 163 163 163
3.2750000000000004 10.325000000000001 0.0 246 247 246
0.7250000000000001 10.975000000000001 0.0 146 172 190
0.8250000000000001 10.975000000000001 0.0 139 167 187
-0.125 10.425 0.0 143 169 187
0.7250000000000001 10.825000000000001 0.0 140 168 187
1.425 11.125 0.0 132 162 183
-0.17500000000000002 10.575000000000001 0.0 144 171 188
0.775 10.875 0.0 147 167 181
2.575 10.975000000000001 0.0 245 246 245
0.375 10.725000000000001 0.0 243 243 240
1.2750000000000001 11.125 0.0 133 163 183
2.7750000000000004 11.025 0.0 246 246 246
2.7750000000000004 11.075000000000001 0.0 246 246 246
-2.225 10.375 0.0 243 243 243
-1.225 10.575000000000001 0.0 119 152 174
0.42500000000000004 10.675 0.0 232 231 228
1.0250000000000001 10.775 0.0 134 164 185
1.7750000000000001 11.125 0.0 118 152 175
-1.875 10.575000000000001 0.0 246 247 246
0.17500000000000002 10.725000000000001 0.0 134 164 183
1.7750000000000001 10.925 0.0 119 154 177
-1.875 10.425 0.0 244 244 244
-1.625 10.325000000000001 0.0 246 246 246
1.875 10.875 0.0 119 153 175
1.975 10.875 0.0 121 155 177
-1.975 10.325000000000001 0.0 244 244 244
-1.975 10.225000000000001 0.0 246 246 246
0.025 10.725000000000001 0.0 134 162 183
0.125 10.725000000000001 0.0 136 166 185
-2.075 10.075000000000001 0.0 244 244 244
-1.7750000000000001 9.875 0.0 39 75 2
-1.8250000000000002 9.675 0.0 153 177 108
-1.5250000000000001 9.675 0.0 71 91 49
-0.125 10.675 0.0 129 161 182
-0.025 10.725000000000001 0.0 126 153 172
-3.1750000000000003 10.425 0.0 62 61 61
-1.625 10.625 0.0 246 246 246
-1.5250000000000001 10.675 0.0 246 246 246
-1.925 9.675 0.0 112 159 22
-1.7750000000000001 9.525 0.0 97 123 67
2.975 11.225000000000001 0.0 246 246 246
0.5750000000000001 10.775 0.0 139 167 186
2.975 11.175 0.0 246 246 246
2.5250000000000004 11.025 0.0 246 246 246
2.625 11.075000000000001 0.0 246 247 246
0.675 10.675 0.0 245 244 242
0.9750000000000001 10.725000000000001 0.0 241 240 237
2.1750000000000003 10.875 0.0 132 163 184
1.875 10.775 0.0 135 165 185
1.975 10.775 0.0 130 159 181
-1.075 10.725000000000001 0.0 140 169 188
1.8250000000000002 10.725000000000001 0.0 133 163 184
-2.275 10.725000000000001 0.0 246 246 246
-2.325 10.775 0.0 247 247 247
-2.125 10.575000000000001 0.0 246 246 246
-0.9750000000000001 10.575000000000001 0.0 123 155 177
0.025 10.675 0.0 142 170 188
0.225 10.775 0.0 140 168 187
0.275 10.775 0.0 137 165 184
-1.375 10.275 0.0 247 247 247
-5.525 9.875 0.0 211 211 211
-2.025 9.675 0.0 72 125 9
-0.47500000000000003 10.575000000000001 0.0 214 214 214
-1.7750000000000001 9.575000000000001 0.0 162 194 104
-5.7250000000000005 10.025 0.0 211 210 210
-5.4750000000000005 9.975000000000001 0.0 225 225 225
-5.925000000000001 9.975000000000001 0.0 244 244 244
-5.875 10.025 0.0 245 245 245
-2.275 10.375 0.0 245 245 245
-2.1750000000000003 10.675 0.0 246 247 246
-1.8250000000000002 10.575000000000001 0.0 246 246 246
-2.025 10.575000000000001 0.0 245 245 245
-5.775 10.275 0.0 232 232 232
-0.125 10.725000000000001 0.0 126 157 178
-1.725 9.925 0.0 222 233 193
0.025 10.775 0.0 125 157 179
-6.4750000000000005 9.825000000000001 0.0 242 242 242
-1.875 9.825000000000001 0.0 230 237 195
-6.575 9.675 0.0 41 83 114
-1.975 9.725000000000001 0.0 197 217 128
-6.4750000000000005 9.875 0.0 243 243 243
-1.925 9.625 0.0 178 196 147
-5.775 10.625 0.0 237 237 237
-6.525 9.675 0.0 45 88 119
-5.625 10.375 0.0 236 236 236
-8.175 9.275 0.0 11 12 11
-8.125 9.075000000000001 0.0 1 1 1
-7.925000000000001 9.075000000000001 0.0 3 3 3
-7.925000000000001 9.175 0.0 3 3 3
-7.775 9.225 0.0 4 4 4
-1.2750000000000001 10.625 0.0 109 144 169
-2.1750000000000003 10.575000000000001 0.0 245 245 245
-5.575 10.225000000000001 0.0 234 234 234
-5.575 10.575000000000001 0.0 235 236 235
-6.2250000000000005 9.775 0.0 242 242 242
-6.025 9.775 0.0 242 242 241
-5.675000000000001 10.675 0.0 237 237 237
-1.175 10.725000000000001 0.0 113 148 173
-1.7750000000000001 10.175 0.0 244 244 244
-1.175 10.675 0.0 107 145 170
-6.425000000000001 9.625 0.0 37 79 111
-6.125 9.825000000000001 0.0 242 242 242
-1.7750000000000001 9.975000000000001 0.0 208 226 147
-1.075 10.525 0.0 104 143 168
-6.4750000000000005 9.625 0.0 39 82 115
-2.1750000000000003 10.275 0.0 243 243 243
-6.7250000000000005 9.675 0.0 67 121 155
-2.325 10.175 0.0 157 188 63
-1.5750000000000002 9.625 0.0 171 191 159
-5.925000000000001 10.225000000000001 0.0 233 233 233
-5.575 10.025 0.0 237 237 237
-1.875 9.975000000000001 0.0 43 92 3
-1.925 9.875 0.0 206 222 170
-1.5750000000000002 9.525 0.0 54 91 25
-6.425000000000001 9.675 0.0 173 189 197
-6.175000000000001 9.725000000000001 0.0 242 242 242
-6.275 9.175 0.0 107 162 9
-6.2250000000000005 9.425 0.0 77 123 22
-6.025 9.875 0.0 239 239 239
-5.525 10.075000000000001 0.0 235 235 235
-6.075 9.125 0.0 53 102 78
-6.2250000000000005 9.875 0.0 240 240 240
-5.9750000000000005 10.125 0.0 244 244 244
-2.1750000000000003 10.175 0.0 243 244 243
-1.175 10.175 0.0 6 6 6
-6.125 8.825000000000001 0.0 60 105 52
-6.275 9.725000000000001 0.0 243 243 243
-5.775 10.075000000000001 0.0 91 88 90
-6.4750000000000005 9.725000000000001 0.0 227 231 233
-5.7250000000000005 10.175 0.0 235 235 235
-6.125 9.875 0.0 242 242 242
-1.725 10.675 0.0 244 244 244
-3.125 10.375 0.0 237 237 237
-5.625 10.525 0.0 237 237 237
-5.775 10.025 0.0 243 242 243
-5.775 10.525 0.0 238 238 238
-5.625 10.675 0.0 238 238 238
-5.7250000000000005 10.425 0.0 235 235 235
-6.2250000000000005 12.125 0.0 238 238 238
-6.175000000000001 12.275 0.0 236 236 236
-5.675000000000001 10.525 0.0 236 236 236
-3.2750000000000004 10.625 0.0 59 53 54
-2.125 10.175 0.0 243 243 243
-5.675000000000001 10.825000000000001 0.0 235 235 235
-5.925000000000001 11.825000000000001 0.0 234 234 234
-4.9750000000000005 10.825000000000001 0.0 173 174 173
-6.125 10.125 0.0 243 244 243
-1.5250000000000001 9.775 0.0 68 103 27
-5.625 10.725000000000001 0.0 236 236 236
-6.075 10.175 0.0 243 243 243
-6.025 11.675 0.0 237 237 237
-6.575 9.575000000000001 0.0 63 115 149
-6.375 9.825000000000001 0.0 243 243 243
-5.575 10.125 0.0 238 238 238
-5.875 11.475000000000001 0.0 237 237 238
-6.325 9.275 0.0 91 151 95
-6.275 9.825000000000001 0.0 242 242 242
-6.125 9.975000000000001 0.0 243 243 243
-1.875 9.725000000000001 0.0 190 207 168
-5.925000000000001 9.225 0.0 122 153 132
-5.9750000000000005 9.975000000000001 0.0 243 243 243
-5.775 9.925 0.0 243 243 243
-5.9750000000000005 11.125 0.0 237 237 237
-5.575 9.925 0.0 129 126 126
-8.075000000000001 9.175 0.0 6 7 6
-7.775 9.275 0.0 24 39 48
-8.375 9.025 0.0 13 14 13
-8.125 9.425 0.0 5 6 5
-7.7250000000000005 9.275 0.0 57 110 146
-7.925000000000001 8.975 0.0 5 6 5
-7.9750000000000005 9.175 0.0 5 6 5
-7.925000000000001 9.275 0.0 14 15 14
-6.125 8.925 0.0 23 23 23
-5.925000000000001 9.925 0.0 243 243 243
-5.625 10.175 0.0 236 237 236
-5.7250000000000005 10.575000000000001 0.0 238 238 238
-4.875 10.175 0.0 103 102 102
-6.075 12.975000000000001 0.0 238 238 238
-3.1750000000000003 10.575000000000001 0.0 238 238 238
-6.425000000000001 9.725000000000001 0.0 243 243 243
-9.375 9.925 0.0 55 109 144
-7.2250000000000005 9.825000000000001 0.0 57 109 143
-3.075 11.125 0.0 26 26 27
-6.625 9.725000000000001 0.0 43 90 125
-6.825 9.725000000000001 0.0 59 110 144
-6.575 9.825000000000001 0.0 243 243 243
-1.8250000000000002 10.075000000000001 0.0 237 240 224
-6.625 9.075000000000001 0.0 101 151 68
-5.675000000000001 10.325000000000001 0.0 235 235 235
-2.025 10.175 0.0 244 244 243
-6.275 9.375 0.0 85 134 115
-5.7250000000000005 9.925 0.0 243 243 243
-5.7250000000000005 10.875 0.0 237 237 237
-8.425 9.725000000000001 0.0 57 108 143
-6.125 9.225 0.0 82 125 74
-5.925000000000001 9.825000000000001 0.0 241 241 241
-6.2250000000000005 9.675 0.0 243 243 243
-5.875 9.875 0.0 242 242 242
-6.025 8.975 0.0 60 104 107
-5.925000000000001 9.075000000000001 0.0 55 106 140
-6.125 9.725000000000001 0.0 242 243 243
-5.775 10.675 0.0 236 236 236
-4.875 10.775 0.0 239 239 239
-6.075 9.025 0.0 110 155 89
-6.2250000000000005 9.275 0.0 48 93 98
-5.775 10.375 0.0 237 237 237
-9.025 9.375 0.0 8 9 8
-8.425 9.125 0.0 6 7 6
-5.9750000000000005 8.925 0.0 60 111 145
-5.7250000000000005 10.975000000000001 0.0 236 236 236
-8.475 9.025 0.0 2 2 2
-7.9750000000000005 8.975 0.0 5 6 5
-8.025 9.125 0.0 11 12 11
-5.025 10.425 0.0 239 239 239
-6.075 8.975 0.0 25 37 38
-5.9750000000000005 8.775 0.0 38 64 50
-4.7250000000000005 10.125 0.0 233 233 233
-3.0250000000000004 10.175 0.0 44 41 42
-5.875 9.825000000000001 0.0 242 242 242
-4.775 10.125 0.0 182 181 182
-6.125 12.175 0.0 240 240 240
-6.175000000000001 12.825000000000001 0.0 235 235 235
-6.075 13.375 0.0 236 236 236
-5.7250000000000005 10.725000000000001 0.0 236 237 236
-6.075 12.675 0.0 237 237 237
-6.175000000000001 13.025 0.0 236 236 236
-6.2250000000000005 13.325000000000001 0.0 236 237 236
-8.575000000000001 9.475 0.0 59 111 145
-6.925000000000001 9.825000000000001 0.0 62 114 149
-7.025 9.775 0.0 62 114 149
-6.825 9.775 0.0 62 117 151
-9.125 9.875 0.0 59 112 147
-6.325 9.875 0.0 240 240 240
-9.025 9.225 0.0 56 111 146
-7.425000000000001 9.675 0.0 58 113 147
-9.375 9.725000000000001 0.0 58 112 147
-6.025 8.725 0.0 94 154 53
-6.425000000000001 9.525 0.0 61 108 56
-6.375 9.875 0.0 243 243 243
-5.675000000000001 10.225000000000001 0.0 234 235 234
-6.175000000000001 11.925 0.0 236 236 236
-3.0250000000000004 10.075000000000001 0.0 59 57 57
-9.375 9.675 0.0 57 110 145
-9.275 9.725000000000001 0.0 58 113 149
-6.175000000000001 8.825000000000001 0.0 77 128 3
-6.025 9.125 0.0 105 150 33
-1.7750000000000001 9.475 0.0 131 167 70
-6.2250000000000005 9.025 0.0 127 178 49
-5.9750000000000005 9.175 0.0 55 102 47
-5.775 10.725000000000001 0.0 235 235 235
-1.5250000000000001 9.525 0.0 159 187 129
-6.375 9.025 0.0 48 89 6
-5.775 10.825000000000001 0.0 236 237 236
-8.275 9.625 0.0 60 112 147
-5.875 8.875 0.0 54 102 115
-8.725 9.075000000000001 0.0 8 8 8
-8.525 9.075000000000001 0.0 8 9 8
-8.275 9.275 0.0 7 7 7
-7.9750000000000005 9.325000000000001 0.0 7 10 11
-6.325 9.625 0.0 244 244 244
-2.275 10.325000000000001 0.0 243 243 243
-8.175 9.075000000000001 0.0 7 7 7
-7.925000000000001 9.375 0.0 4 4 4
-5.925000000000001 8.825000000000001 0.0 81 110 102
-7.925000000000001 8.875 0.0 5 6 5
-5.925000000000001 8.875 0.0 9 9 9
-5.9750000000000005 12.275 0.0 236 236 236
-5.9750000000000005 12.625 0.0 234 234 234
-6.275 14.125 0.0 235 236 236
-6.125 12.575000000000001 0.0 235 235 235
-5.525 10.875 0.0 234 234 234
-2.075 10.225000000000001 0.0 244 245 244
-5.625 10.775 0.0 234 235 234
-5.9750000000000005 11.825000000000001 0.0 235 235 235
-6.075 12.125 0.0 180 181 180
-6.375 14.125 0.0 235 236 235
-7.025 9.725000000000001 0.0 65 118 152
-5.025 10.325000000000001 0.0 124 122 122
-7.275 9.775 0.0 60 115 150
-5.9750000000000005 11.725000000000001 0.0 234 234 234
-7.075 9.725000000000001 0.0 63 115 150
-2.025 10.075000000000001 0.0 244 244 244
-7.275 9.725000000000001 0.0 65 118 152
-10.525 9.225 0.0 60 112 144
-9.375 9.475 0.0 59 109 142
-9.375 9.575000000000001 0.0 49 101 135
-6.775 9.625 0.0 54 103 137
-6.2250000000000005 13.675 0.0 236 236 236
-1.7750000000000001 11.025 0.0 244 244 244
-6.175000000000001 13.825000000000001 0.0 235 235 235
-8.075000000000001 9.825000000000001 0.0 66 118 143
-5.775 10.875 0.0 239 239 239
-9.775 9.575000000000001 0.0 57 113 148
-6.375 9.175 0.0 80 138 98
-4.875 10.225000000000001 0.0 235 235 235
-11.375 9.575000000000001 0.0 56 111 146
-6.2250000000000005 8.975 0.0 104 130 47
-6.175000000000001 9.125 0.0 98 152 60
-1.8250000000000002 10.775 0.0 244 244 244
-10.025 9.525 0.0 58 112 147
-6.275 8.925 0.0 81 137 24
-6.275 9.125 0.0 88 146 40
-5.825 11.125 0.0 234 234 234
-9.725000000000001 9.475 0.0 59 114 149
-9.675 9.575000000000001 0.0 57 112 147
-9.325000000000001 9.625 0.0 59 113 148
-8.425 9.475 0.0 64 118 153
-8.225 9.675 0.0 60 114 149
-6.025 9.025 0.0 26 46 48
-11.175 9.425 0.0 56 109 143
-10.025 9.125 0.0 6 7 6
-7.925000000000001 9.675 0.0 62 117 151
-9.225 9.025 0.0 16 17 16
-8.875 9.075000000000001 0.0 12 13 12
-9.525 9.025 0.0 32 32 32
-8.925 8.975 0.0 13 14 13
-8.675 8.975 0.0 12 13 12
-7.9750000000000005 8.925 0.0 5 5 5
-8.675 8.925 0.0 8 8 8
-9.125 8.625 0.0 9 10 9
-4.675 10.075000000000001 0.0 236 236 236
-5.825 9.825000000000001 0.0 241 241 241
-5.9750000000000005 12.075000000000001 0.0 234 234 234
-6.025 12.675 0.0 236 236 236
-7.7250000000000005 9.975000000000001 0.0 61 113 148
-6.125 12.225000000000001 0.0 235 235 235
-6.075 12.525 0.0 236 236 236
-8.275 9.675 0.0 59 112 147
-8.525 9.475 0.0 58 110 145
-7.525 9.925 0.0 60 114 149
-6.125 12.425 0.0 236 236 236
-8.425 9.575000000000001 0.0 57 110 145
-7.775 9.875 0.0 60 116 151
-4.875 10.125 0.0 122 119 120
-4.675 10.025 0.0 240 240 240
-8.225 9.625 0.0 57 111 146
-7.775 9.825000000000001 0.0 61 117 151
-5.875 11.025 0.0 236 237 236
-7.425000000000001 9.875 0.0 62 115 150
-8.325000000000001 9.525 0.0 58 113 148
-8.025 9.725000000000001 0.0 58 113 149
-7.875 9.775 0.0 60 115 150
-6.675000000000001 9.625 0.0 59 113 146
-8.075000000000001 9.675 0.0 59 114 149
-8.125 9.525 0.0 59 114 149
-6.275 8.825000000000001 0.0 76 133 42
-6.275 13.475000000000001 0.0 237 237 237
-2.075 10.025 0.0 245 245 244
-9.575000000000001 9.675 0.0 56 111 146
-5.875 9.075000000000001 0.0 67 121 59
-8.225 9.475 0.0 48 100 135
-6.575 9.875 0.0 243 243 243
-9.475 9.625 0.0 58 111 147
-5.925000000000001 9.025 0.0 68 120 81
-5.625 10.325000000000001 0.0 236 236 236
-9.625 9.575000000000001 0.0 57 112 147
-8.125 9.475 0.0 59 112 148
-9.175 9.625 0.0 28 56 75
-6.325 9.025 0.0 44 79 5
-8.475 9.175 0.0 11 11 11
-8.375 9.225 0.0 8 8 8
-8.175 9.175 0.0 11 12 11
-8.075000000000001 9.575000000000001 0.0 59 112 147
-6.4750000000000005 9.025 0.0 58 113 149
-7.925000000000001 9.475 0.0 61 115 150
-1.875 9.525 0.0 115 161 33
-6.175000000000001 8.875 0.0 15 15 15
-1.725 9.425 0.0 68 98 35
-5.875 12.125 0.0 233 234 233
-6.025 12.725000000000001 0.0 233 233 233
-3.225 11.425 0.0 81 74 71
-5.7250000000000005 9.825000000000001 0.0 243 243 243
-6.275 13.025 0.0 232 232 232
-6.425000000000001 14.275 0.0 231 231 231
-6.375 9.475 0.0 70 122 134
-1.675 10.075000000000001 0.0 226 234 199
-5.675000000000001 10.125 0.0 235 235 235
-6.325 13.775 0.0 233 233 233
-6.425000000000001 9.425 0.0 78 132 135
-6.275 13.425 0.0 232 232 232
-1.725 9.475 0.0 104 157 4
-1.5750000000000002 9.475 0.0 65 117 5
-6.7250000000000005 9.825000000000001 0.0 41 86 80
-1.725 9.525 0.0 87 136 23
-1.625 9.425 0.0 61 112 4
-6.125 13.175 0.0 232 232 232
-6.175000000000001 12.475000000000001 0.0 231 231 231
-6.175000000000001 9.225 0.0 66 117 150
-6.025 12.175 0.0 235 235 235
-6.275 14.425 0.0 236 236 236
-6.4750000000000005 15.425 0.0 235 235 235
-6.575 15.325000000000001 0.0 237 237 237
-5.925000000000001 11.875 0.0 160 160 160
-6.325 13.975000000000001 0.0 236 236 236
-4.825 10.175 0.0 235 235 235
-2.1750000000000003 10.125 0.0 244 245 244
-6.575 15.175 0.0 236 236 236
-7.125 9.775 0.0 60 115 150
-6.4750000000000005 14.975000000000001 0.0 236 236 236
-7.175000000000001 9.675 0.0 59 115 149
-7.025 9.575000000000001 0.0 58 113 148
-6.2250000000000005 13.925 0.0 236 237 236
-6.4750000000000005 15.475000000000001 0.0 236 236 236
-6.325 14.675 0.0 236 236 236
-5.825 9.125 0.0 72 124 86
-6.075 12.875 0.0 237 237 237
-6.025 13.025 0.0 237 237 237
-2.275 10.225000000000001 0.0 237 238 237
-8.425 9.375 0.0 13 13 13
-5.875 8.725 0.0 40 78 4
-8.325000000000001 9.175 0.0 7 7 7
-4.7250000000000005 10.025 0.0 130 129 129
-4.775 10.025 0.0 26 24 25
-6.525 9.325000000000001 0.0 59 112 147
-6.075 12.775 0.0 240 240 240
-6.175000000000001 13.575000000000001 0.0 241 241 241
-6.125 12.325000000000001 0.0 240 240 240
-6.125 13.075000000000001 0.0 240 240 240
-6.175000000000001 13.225000000000001 0.0 241 241 241
-6.4750000000000005 14.825000000000001 0.0 240 240 240
-6.2250000000000005 13.475000000000001 0.0 241 241 241
-6.275 13.925 0.0 241 241 241
-6.175000000000001 13.975000000000001 0.0 241 241 241
-8.525 9.525 0.0 54 107 141
-6.425000000000001 14.725000000000001 0.0 240 240 240
-8.425 9.525 0.0 53 108 143
-8.525 9.425 0.0 53 107 142
-8.475 9.525 0.0 53 107 142
-6.175000000000001 12.875 0.0 240 240 240
-4.9750000000000005 10.725000000000001 0.0 241 241 241
-5.875 10.375 0.0 239 239 239
-6.4750000000000005 9.525 0.0 54 105 139
-9.125 9.675 0.0 52 103 138
-6.4750000000000005 9.475 0.0 56 107 142
-6.625 9.525 0.0 56 107 141
-5.875 8.975 0.0 45 91 121
-6.025 12.375 0.0 243 243 243
-8.125 9.325000000000001 0.0 12 13 12
-10.575000000000001 9.375 0.0 70 66 58
-9.425 9.325000000000001 0.0 41 88 122
-8.275 9.475 0.0 42 90 123
-8.275 9.425 0.0 42 88 121
-9.275 9.525 0.0 40 84 116
-6.125 9.275 0.0 57 97 33
-7.275 9.375 0.0 39 86 113
-4.675 9.925 0.0 37 33 34
-9.625 9.525 0.0 35 76 107
-10.525 9.425 0.0 57 54 48
-10.775 9.375 0.0 216 213 203
-9.475 9.325000000000001 0.0 38 79 111
-10.525 9.275 0.0 35 75 105
-10.425 9.325000000000001 0.0 32 71 100
-9.575000000000001 9.175 0.0 5 6 5
-5.925000000000001 8.975 0.0 22 22 22
