ply
format ascii 1.0
element vertex 515
property float x
property float y
property float z
property uchar red
property uchar green
property uchar blue
end_header
0.125 0.07500000000000001 0.0 119 151 183
0.125 0.025 0.0 126 158 188
0.125 -0.025 0.0 126 152 176
5.025 0.47500000000000003 0.0 199 199 199
5.025 0.375 0.0 223 223 223
5.025 0.275 0.0 163 164 163
5.025 0.17500000000000002 0.0 225 225 225
4.9750000000000005 0.7250000000000001 0.0 167 167 167
4.9750000000000005 0.625 0.0 221 221 221
4.9750000000000005 0.125 0.0 232 232 232
4.9750000000000005 0.025 0.0 232 233 232
4.9750000000000005 -0.125 0.0 225 225 225
4.9750000000000005 -0.17500000000000002 0.0 227 227 227
4.9750000000000005 -0.275 0.0 242 242 242
4.925000000000001 0.7250000000000001 0.0 120 120 120
4.925000000000001 0.625 0.0 193 193 193
4.925000000000001 0.525 0.0 222 222 222
4.925000000000001 0.325 0.0 222 222 222
4.925000000000001 0.17500000000000002 0.0 225 225 225
4.925000000000001 0.125 0.0 229 230 229
4.925000000000001 0.025 0.0 214 214 214
4.925000000000001 -0.07500000000000001 0.0 236 236 236
4.925000000000001 -0.17500000000000002 0.0 227 227 227
4.925000000000001 -0.275 0.0 233 233 233
4.925000000000001 0.375 0.0 228 228 228
4.925000000000001 -0.025 0.0 237 237 237
5.075 0.675 0.0 226 226 226
5.075 -0.225 0.0 246 246 246
5.025 0.675 0.0 224 224 224
4.9750000000000005 -0.025 0.0 246 246 246
5.925000000000001 -2.975 0.0 91 91 90
5.925000000000001 -3.125 0.0 195 195 194
5.925000000000001 -3.225 0.0 193 194 193
4.925000000000001 -2.875 0.0 198 199 198
4.925000000000001 0.675 0.0 154 153 153
4.925000000000001 -2.7750000000000004 0.0 195 196 195
4.875 -2.875 0.0 198 199 199
5.075 -0.275 0.0 246 246 246
5.925000000000001 -3.2750000000000004 0.0 194 194 194
5.875 -2.9250000000000003 0.0 54 50 49
5.875 -3.0250000000000004 0.0 194 194 194
4.875 -2.7750000000000004 0.0 194 194 193
4.125 0.225 0.0 246 246 246
5.075 -0.07500000000000001 0.0 246 246 246
5.075 0.17500000000000002 0.0 246 246 246
5.075 0.125 0.0 246 246 246
5.075 0.325 0.0 245 246 245
5.075 0.42500000000000004 0.0 246 246 246
5.075 0.625 0.0 246 246 246
5.075 0.525 0.0 248 248 248
5.925000000000001 -2.825 0.0 10 10 10
5.925000000000001 -2.875 0.0 50 50 50
5.925000000000001 -3.0250000000000004 0.0 193 194 193
4.925000000000001 -2.725 0.0 195 196 195
5.875 -2.825 0.0 26 25 25
5.875 -2.975 0.0 143 142 142
5.875 -3.125 0.0 194 193 193
5.875 -3.1750000000000003 0.0 196 196 196
5.875 -3.2750000000000004 0.0 197 198 197
4.9750000000000005 -2.875 0.0 200 200 200
4.9750000000000005 -2.725 0.0 194 194 194
4.9750000000000005 -2.7750000000000004 0.0 199 199 199
4.875 0.625 0.0 236 236 236
1.975 5.9750000000000005 0.0 206 204 204
-1.925 9.875 0.0 152 166 125
0.775 5.4750000000000005 0.0 232 34 34
0.675 5.575 0.0 124 113 76
3.4250000000000003 10.175 0.0 247 247 247
3.5250000000000004 10.225000000000001 0.0 246 246 246
0.5750000000000001 10.475000000000001 0.0 142 168 187
1.925 10.625 0.0 134 163 184
2.225 10.575000000000001 0.0 189 204 214
3.575 10.275 0.0 246 246 246
3.7750000000000004 10.275 0.0 245 246 245
2.125 10.625 0.0 123 148 165
3.4250000000000003 10.775 0.0 132 132 132
3.6750000000000003 10.275 0.0 240 240 240
3.7750000000000004 10.225000000000001 0.0 246 246 246
3.375 10.525 0.0 140 141 140
3.6750000000000003 10.225000000000001 0.0 243 243 243
3.575 10.175 0.0 247 247 247
3.6750000000000003 10.175 0.0 247 247 247
3.325 10.325000000000001 0.0 166 167 166
3.475 10.125 0.0 246 246 246
0.125 10.275 0.0 243 243 240
3.325 10.625 0.0 139 140 139
3.2750000000000004 10.125 0.0 233 233 233
3.2750000000000004 10.175 0.0 246 247 246
-1.975 9.875 0.0 208 223 159
-1.675 9.625 0.0 41 78 12
-1.925 9.775 0.0 247 247 247
-1.7750000000000001 9.475 0.0 193 209 163
0.925 10.125 0.0 104 104 104
-1.675 9.525 0.0 147 146 144
0.625 5.375 0.0 63 54 30
1.925 5.575 0.0 29 22 8
1.975 5.525 0.0 212 212 212
0.625 5.425000000000001 0.0 132 118 81
1.8250000000000002 10.625 0.0 132 163 183
2.025 10.725000000000001 0.0 131 162 182
2.1750000000000003 10.725000000000001 0.0 129 160 181
2.625 10.975000000000001 0.0 245 245 245
1.075 10.525 0.0 127 155 173
1.375 10.575000000000001 0.0 130 161 182
1.8250000000000002 10.725000000000001 0.0 130 161 181
1.925 10.675 0.0 135 165 184
2.025 10.625 0.0 136 165 185
2.075 10.675 0.0 129 160 181
2.1750000000000003 10.675 0.0 130 161 182
-0.275 10.375 0.0 144 170 188
0.225 10.525 0.0 142 169 188
1.075 10.625 0.0 158 176 187
1.625 10.625 0.0 140 168 187
2.025 10.675 0.0 130 161 181
-0.47500000000000003 10.475000000000001 0.0 148 167 181
-0.375 10.325000000000001 0.0 142 169 187
-0.275 10.325000000000001 0.0 158 180 195
-0.07500000000000001 10.475000000000001 0.0 139 167 186
0.025 10.475000000000001 0.0 140 167 185
0.125 10.575000000000001 0.0 141 168 186
0.9750000000000001 10.675 0.0 188 201 210
1.225 10.525 0.0 136 165 185
2.125 10.725000000000001 0.0 131 162 182
2.475 10.775 0.0 245 245 245
-1.0250000000000001 10.525 0.0 139 167 186
0.5750000000000001 10.775 0.0 174 191 202
0.675 10.825000000000001 0.0 181 190 195
0.775 10.875 0.0 168 188 201
0.9750000000000001 10.725000000000001 0.0 190 205 213
1.175 10.625 0.0 142 168 188
1.2750000000000001 10.675 0.0 142 169 187
2.375 10.675 0.0 247 247 247
-2.125 10.425 0.0 247 247 247
-1.8250000000000002 10.525 0.0 246 246 246
-1.625 10.625 0.0 245 246 245
-1.475 10.675 0.0 246 246 246
-1.225 10.375 0.0 132 162 183
0.275 10.825000000000001 0.0 245 244 242
0.47500000000000003 10.575000000000001 0.0 205 214 218
0.675 10.725000000000001 0.0 245 244 242
0.775 10.625 0.0 238 237 234
0.875 10.675 0.0 213 220 223
1.8250000000000002 10.675 0.0 131 162 182
-1.725 10.575000000000001 0.0 246 246 246
-0.42500000000000004 10.475000000000001 0.0 156 174 187
0.375 10.525 0.0 170 189 202
0.875 10.625 0.0 195 208 216
0.9750000000000001 10.625 0.0 214 213 209
2.625 11.075000000000001 0.0 246 245 246
-2.075 10.625 0.0 246 246 246
-1.975 10.675 0.0 246 246 246
-1.725 10.525 0.0 246 246 246
-1.2750000000000001 10.425 0.0 178 196 192
-0.225 10.625 0.0 138 166 185
0.275 10.625 0.0 161 179 191
0.375 10.425 0.0 208 217 221
0.5750000000000001 10.575000000000001 0.0 187 202 210
0.675 10.525 0.0 168 188 200
1.225 10.675 0.0 140 168 188
2.475 10.875 0.0 221 228 233
-1.875 10.675 0.0 246 246 246
-1.175 10.475000000000001 0.0 143 169 187
-1.125 10.775 0.0 140 166 185
-0.9750000000000001 10.575000000000001 0.0 135 163 183
-0.125 10.425 0.0 167 176 181
0.17500000000000002 10.575000000000001 0.0 205 207 209
0.47500000000000003 10.525 0.0 161 182 197
0.8250000000000001 10.475000000000001 0.0 131 162 182
1.0250000000000001 10.475000000000001 0.0 134 163 184
1.125 10.575000000000001 0.0 139 162 177
2.7750000000000004 11.175 0.0 246 246 246
-2.075 10.475000000000001 0.0 246 246 246
-1.875 10.525 0.0 246 246 246
-1.125 10.675 0.0 136 165 185
-0.875 10.375 0.0 136 165 184
0.275 10.675 0.0 183 196 204
0.5750000000000001 10.725000000000001 0.0 143 170 188
1.125 10.525 0.0 121 145 162
2.275 10.625 0.0 226 232 235
2.725 11.125 0.0 246 246 246
-1.3250000000000002 10.475000000000001 0.0 246 246 246
-1.075 10.475000000000001 0.0 173 192 205
-0.07500000000000001 10.725000000000001 0.0 139 168 186
0.125 10.525 0.0 137 166 185
1.5250000000000001 10.625 0.0 126 159 180
1.725 10.675 0.0 134 164 183
2.025 10.775 0.0 135 165 184
-1.425 10.375 0.0 245 246 245
-1.3250000000000002 10.425 0.0 244 244 245
-1.175 10.325000000000001 0.0 200 212 220
-0.275 10.525 0.0 143 167 184
0.325 10.525 0.0 139 166 185
-1.625 10.225000000000001 0.0 247 247 247
-1.125 10.375 0.0 132 160 180
-0.775 10.425 0.0 133 163 182
0.7250000000000001 10.575000000000001 0.0 139 165 185
0.8250000000000001 10.425 0.0 132 161 182
1.675 10.625 0.0 129 160 182
-1.875 9.975000000000001 0.0 246 246 246
-1.725 10.175 0.0 181 213 106
-1.625 10.275 0.0 246 246 245
-1.5250000000000001 10.275 0.0 246 246 246
-1.3250000000000002 10.325000000000001 0.0 246 247 246
-1.0250000000000001 10.375 0.0 137 165 184
-0.225 10.775 0.0 138 167 186
-0.07500000000000001 10.625 0.0 141 168 186
1.2750000000000001 10.475000000000001 0.0 130 160 181
2.375 10.775 0.0 245 246 245
-1.7750000000000001 9.875 0.0 111 154 43
-1.675 9.875 0.0 67 115 6
-1.125 10.325000000000001 0.0 144 171 188
-0.925 10.325000000000001 0.0 140 168 187
0.125 10.425 0.0 145 171 189
0.7250000000000001 10.475000000000001 0.0 141 170 188
1.7750000000000001 10.525 0.0 158 174 185
2.5250000000000004 10.975000000000001 0.0 246 246 246
-1.425 10.125 0.0 203 220 169
-1.0250000000000001 10.225000000000001 0.0 169 190 204
-0.8250000000000001 10.275 0.0 136 165 184
-0.225 10.725000000000001 0.0 133 162 182
-0.025 10.575000000000001 0.0 143 170 188
0.225 10.375 0.0 148 168 181
1.5750000000000002 10.525 0.0 127 138 145
1.925 10.525 0.0 130 148 161
2.125 10.525 0.0 101 120 132
2.225 10.525 0.0 246 247 246
-1.0250000000000001 10.175 0.0 137 165 184
-0.7250000000000001 10.275 0.0 137 166 185
-0.625 10.325000000000001 0.0 140 148 153
-0.525 10.325000000000001 0.0 137 163 180
-0.025 10.475000000000001 0.0 138 163 181
0.375 10.275 0.0 75 84 90
0.675 10.375 0.0 127 161 182
0.875 10.225000000000001 0.0 62 62 62
0.17500000000000002 10.275 0.0 103 103 103
0.275 10.275 0.0 49 50 49
0.47500000000000003 10.275 0.0 107 130 148
0.775 10.175 0.0 57 58 57
-0.025 10.275 0.0 185 184 183
-1.8250000000000002 9.725000000000001 0.0 246 246 246
-1.675 9.675 0.0 245 245 245
-1.0250000000000001 10.025 0.0 17 17 17
0.675 5.425000000000001 0.0 185 181 165
0.675 5.4750000000000005 0.0 164 146 105
0.675 5.375 0.0 155 152 145
1.625 10.675 0.0 137 165 185
1.725 10.725000000000001 0.0 137 166 185
1.875 10.725000000000001 0.0 130 162 183
2.1750000000000003 10.825000000000001 0.0 126 158 178
2.325 10.675 0.0 246 246 246
2.575 10.925 0.0 246 246 246
2.6750000000000003 10.975000000000001 0.0 247 247 247
2.7750000000000004 11.025 0.0 246 246 246
2.875 11.025 0.0 245 246 245
2.975 11.075000000000001 0.0 246 246 246
3.075 11.025 0.0 246 246 246
-0.675 10.425 0.0 135 164 183
-0.47500000000000003 10.425 0.0 140 167 186
-0.07500000000000001 10.325000000000001 0.0 133 163 183
0.025 10.425 0.0 185 197 204
0.925 10.525 0.0 143 170 188
1.3250000000000002 10.525 0.0 127 147 160
2.6750000000000003 10.925 0.0 246 246 246
3.125 11.075000000000001 0.0 246 246 246
-1.875 10.375 0.0 246 246 246
-1.475 10.625 0.0 247 247 247
-1.0250000000000001 10.275 0.0 152 176 192
-0.5750000000000001 10.525 0.0 142 169 187
-0.375 10.225000000000001 0.0 174 188 197
0.675 10.625 0.0 142 169 187
0.775 10.675 0.0 145 171 189
1.3250000000000002 10.675 0.0 139 167 187
1.5250000000000001 10.675 0.0 132 161 183
2.125 10.775 0.0 130 160 182
2.375 10.725000000000001 0.0 246 246 246
3.0250000000000004 11.025 0.0 246 246 246
-1.425 10.625 0.0 246 246 246
-1.2750000000000001 10.475000000000001 0.0 182 200 211
-0.675 10.475000000000001 0.0 137 165 185
-0.5750000000000001 10.575000000000001 0.0 141 169 187
0.025 10.625 0.0 162 182 196
1.075 10.675 0.0 141 168 187
-2.025 10.275 0.0 246 246 246
-1.425 10.675 0.0 246 246 246
-1.125 10.175 0.0 137 164 184
-0.775 10.475000000000001 0.0 138 166 185
-0.375 10.425 0.0 141 169 187
-0.17500000000000002 10.225000000000001 0.0 151 175 192
0.025 10.725000000000001 0.0 155 178 194
0.225 10.925 0.0 222 225 226
0.275 10.725000000000001 0.0 230 232 233
0.42500000000000004 10.925 0.0 223 227 230
0.7250000000000001 10.975000000000001 0.0 206 210 213
0.9750000000000001 10.825000000000001 0.0 208 210 212
1.075 10.825000000000001 0.0 192 196 198
1.375 10.725000000000001 0.0 142 169 187
1.475 10.775 0.0 141 168 187
1.625 10.775 0.0 132 162 182
-1.5750000000000002 10.525 0.0 246 246 246
-0.375 10.625 0.0 141 168 186
1.8250000000000002 10.775 0.0 136 166 185
2.275 10.675 0.0 222 228 233
3.125 10.825000000000001 0.0 227 227 227
-2.025 10.225000000000001 0.0 247 247 247
-1.975 10.475000000000001 0.0 246 247 246
-1.7750000000000001 10.425 0.0 246 246 246
-1.475 10.525 0.0 246 246 246
-1.125 10.225000000000001 0.0 136 164 184
-0.47500000000000003 10.625 0.0 135 165 184
-0.375 10.725000000000001 0.0 142 168 186
-0.17500000000000002 10.325000000000001 0.0 145 171 189
0.275 10.425 0.0 228 228 226
1.375 10.675 0.0 134 163 183
2.5250000000000004 10.875 0.0 246 246 246
-1.975 10.425 0.0 184 185 184
-1.675 10.425 0.0 246 246 246
-0.275 10.575000000000001 0.0 134 164 184
-0.17500000000000002 10.425 0.0 147 173 190
0.9750000000000001 10.425 0.0 172 191 203
2.5250000000000004 10.825000000000001 0.0 246 246 246
1.875 10.775 0.0 128 160 181
2.625 10.825000000000001 0.0 246 246 246
-1.875 10.275 0.0 246 246 246
-1.675 10.325000000000001 0.0 246 247 246
-1.5750000000000002 10.375 0.0 246 246 246
1.675 10.775 0.0 130 161 183
2.825 10.925 0.0 246 246 246
-1.925 10.125 0.0 246 246 246
-1.725 10.225000000000001 0.0 233 239 219
-1.375 10.275 0.0 243 244 239
0.375 10.625 0.0 144 171 188
0.525 10.675 0.0 139 165 184
1.2750000000000001 10.625 0.0 116 140 156
1.5750000000000002 10.725000000000001 0.0 127 159 180
3.225 10.875 0.0 155 156 155
-1.975 9.975000000000001 0.0 246 247 246
-1.475 10.225000000000001 0.0 246 247 246
-1.2750000000000001 10.325000000000001 0.0 221 227 230
0.875 10.375 0.0 118 138 152
-5.525 9.975000000000001 0.0 92 91 91
-0.675 10.575000000000001 0.0 133 163 183
1.175 10.425 0.0 131 163 184
1.2750000000000001 10.725000000000001 0.0 123 155 176
2.325 10.625 0.0 245 245 246
2.875 10.925 0.0 246 246 246
2.975 10.925 0.0 246 246 246
-1.5250000000000001 9.675 0.0 246 247 246
-1.3250000000000002 10.175 0.0 246 246 246
-1.075 10.175 0.0 139 167 186
-0.775 10.225000000000001 0.0 135 151 161
-0.325 10.675 0.0 140 168 187
2.325 10.725000000000001 0.0 247 247 247
-2.025 10.125 0.0 244 245 241
-1.7750000000000001 9.575000000000001 0.0 206 221 170
-1.725 9.725000000000001 0.0 154 188 97
-1.425 9.675 0.0 246 246 246
-0.47500000000000003 10.075000000000001 0.0 129 160 180
0.9750000000000001 10.325000000000001 0.0 139 166 185
2.6750000000000003 10.825000000000001 0.0 246 246 246
-1.675 9.825000000000001 0.0 210 219 203
0.025 10.325000000000001 0.0 134 149 159
1.475 10.475000000000001 0.0 78 99 115
3.1750000000000003 10.975000000000001 0.0 208 208 208
-2.325 10.525 0.0 240 241 241
-1.7750000000000001 9.775 0.0 201 211 197
-1.675 10.125 0.0 246 246 246
-1.5250000000000001 10.425 0.0 246 246 246
-1.3250000000000002 10.575000000000001 0.0 240 241 242
0.675 10.175 0.0 102 126 143
1.725 10.475000000000001 0.0 192 192 192
-1.625 9.625 0.0 245 245 245
-0.5750000000000001 10.225000000000001 0.0 201 201 201
0.225 10.125 0.0 148 148 148
0.5750000000000001 10.125 0.0 2 2 2
-0.125 10.175 0.0 139 166 184
3.0250000000000004 11.075000000000001 0.0 245 245 245
0.375 10.725000000000001 0.0 143 170 189
2.9250000000000003 11.075000000000001 0.0 247 247 247
-1.425 10.525 0.0 246 246 246
-0.7250000000000001 10.475000000000001 0.0 141 168 187
0.47500000000000003 10.875 0.0 136 165 184
0.5750000000000001 10.925 0.0 141 170 190
-0.7250000000000001 10.425 0.0 133 163 183
0.125 10.675 0.0 184 196 203
0.275 10.925 0.0 241 240 237
1.125 10.725000000000001 0.0 140 155 168
1.225 10.775 0.0 138 168 187
1.3250000000000002 10.625 0.0 144 165 179
0.675 10.675 0.0 236 235 231
0.775 10.725000000000001 0.0 154 169 178
0.925 10.725000000000001 0.0 242 241 238
1.125 10.775 0.0 135 162 181
-2.075 10.325000000000001 0.0 246 246 246
-1.075 10.275 0.0 191 205 215
-0.925 10.625 0.0 136 165 185
0.5750000000000001 10.675 0.0 234 233 229
2.975 11.025 0.0 246 246 246
-1.3250000000000002 10.675 0.0 248 248 247
-0.925 10.475000000000001 0.0 140 168 187
0.375 10.775 0.0 137 166 186
3.125 10.925 0.0 246 246 246
-1.7750000000000001 10.225000000000001 0.0 246 246 246
-0.325 10.775 0.0 140 168 186
-1.8250000000000002 10.025 0.0 200 198 194
-0.025 10.825000000000001 0.0 136 165 185
0.7250000000000001 10.825000000000001 0.0 187 202 211
3.2750000000000004 10.975000000000001 0.0 189 190 189
3.325 10.875 0.0 186 186 186
-1.5250000000000001 10.075000000000001 0.0 246 246 246
-0.225 10.675 0.0 137 165 185
-0.125 10.825000000000001 0.0 132 162 183
0.8250000000000001 10.775 0.0 129 160 181
-0.625 10.675 0.0 129 160 181
-0.525 10.725000000000001 0.0 133 163 183
-0.325 10.725000000000001 0.0 134 162 183
-1.475 9.825000000000001 0.0 27 52 5
-1.475 9.875 0.0 78 125 11
-0.925 10.225000000000001 0.0 133 163 183
-0.775 10.125 0.0 132 163 184
-0.225 10.525 0.0 148 173 189
1.375 10.475000000000001 0.0 119 155 178
-1.5250000000000001 10.725000000000001 0.0 246 246 246
-0.925 10.175 0.0 131 163 184
1.975 10.525 0.0 179 179 179
2.025 10.425 0.0 205 205 204
0.675 10.325000000000001 0.0 94 122 141
-1.8250000000000002 9.675 0.0 99 146 41
0.42500000000000004 10.225000000000001 0.0 51 59 66
0.47500000000000003 10.175 0.0 30 36 41
0.5750000000000001 10.175 0.0 9 9 10
0.675 10.125 0.0 47 56 63
0.775 10.275 0.0 39 39 39
0.875 10.275 0.0 31 31 31
-1.125 10.025 0.0 6 6 6
-0.525 10.225000000000001 0.0 160 161 160
0.7250000000000001 5.525 0.0 96 89 74
-0.225 10.175 0.0 140 168 187
-0.325 10.225000000000001 0.0 137 165 184
0.47500000000000003 10.725000000000001 0.0 137 164 185
0.925 10.825000000000001 0.0 150 176 193
0.7250000000000001 10.875 0.0 243 242 240
-0.5750000000000001 10.425 0.0 141 168 187
-1.7750000000000001 10.575000000000001 0.0 246 246 246
-2.1750000000000003 10.475000000000001 0.0 246 246 246
1.5250000000000001 10.725000000000001 0.0 130 162 183
0.47500000000000003 10.425 0.0 131 162 182
-1.075 10.075000000000001 0.0 128 160 182
-0.7250000000000001 10.225000000000001 0.0 158 174 184
0.47500000000000003 10.225000000000001 0.0 131 162 183
1.625 10.425 0.0 208 208 208
-0.875 10.125 0.0 44 46 47
0.7250000000000001 10.175 0.0 2 2 2
0.875 10.175 0.0 50 51 50
-0.9750000000000001 10.075000000000001 0.0 157 157 157
-0.675 10.225000000000001 0.0 131 131 131
-2.275 10.575000000000001 0.0 246 246 246
-1.075 10.025 0.0 6 6 6
0.625 5.4750000000000005 0.0 40 32 13
-0.275 10.175 0.0 142 168 187
-0.07500000000000001 10.225000000000001 0.0 148 173 190
1.3250000000000002 10.825000000000001 0.0 141 170 188
0.875 10.875 0.0 147 165 177
1.225 10.875 0.0 133 163 183
0.525 10.775 0.0 242 240 238
1.3250000000000002 10.875 0.0 133 163 184
1.425 10.875 0.0 133 163 184
-1.375 10.725000000000001 0.0 246 246 246
1.225 10.725000000000001 0.0 140 170 189
3.225 10.825000000000001 0.0 187 188 188
1.425 10.825000000000001 0.0 127 159 181
-1.7750000000000001 10.325000000000001 0.0 246 246 246
-0.07500000000000001 10.675 0.0 156 175 188
0.7250000000000001 10.425 0.0 137 166 186
1.875 10.375 0.0 182 182 182
2.075 10.375 0.0 114 115 115
0.07500000000000001 10.925 0.0 143 170 188
1.2750000000000001 10.925 0.0 243 242 240
-0.025 10.675 0.0 142 170 188
-0.375 10.675 0.0 134 164 184
-0.625 10.725000000000001 0.0 170 191 204
-1.625 9.775 0.0 246 246 246
1.8250000000000002 10.375 0.0 193 193 193
-1.625 9.975000000000001 0.0 164 193 111
1.875 10.925 0.0 136 167 187
2.025 10.875 0.0 131 162 183
2.275 10.775 0.0 120 155 178
2.025 11.025 0.0 131 163 184
2.975 11.325000000000001 0.0 245 245 245
2.975 11.375 0.0 246 246 246
3.0250000000000004 11.325000000000001 0.0 245 246 245
3.125 11.375 0.0 185 202 213
-0.225 10.125 0.0 141 170 189
1.925 10.975000000000001 0.0 126 158 179
1.625 11.025 0.0 129 159 180
2.1750000000000003 10.975000000000001 0.0 125 158 180
2.725 11.175 0.0 191 207 217
-1.175 10.225000000000001 0.0 246 246 246
-0.025 10.725000000000001 0.0 137 166 185
2.725 11.225000000000001 0.0 204 216 223
2.9250000000000003 11.325000000000001 0.0 246 246 246
2.9250000000000003 11.225000000000001 0.0 246 246 246
2.875 11.175 0.0 246 246 246
2.075 10.925 0.0 125 159 182
2.325 10.825000000000001 0.0 119 154 178
-1.5250000000000001 9.975000000000001 0.0 57 99 10
0.325 10.225000000000001 0.0 171 171 171
1.225 11.225000000000001 0.0 140 167 186
3.125 11.325000000000001 0.0 123 157 179
0.025 10.825000000000001 0.0 134 163 183
2.5250000000000004 11.125 0.0 119 154 176
2.625 11.175 0.0 122 158 181
2.975 11.175 0.0 117 153 177
3.075 11.225000000000001 0.0 123 157 179
3.075 11.175 0.0 121 155 177
-0.525 10.675 0.0 126 158 179
