ply
format ascii 1.0
element vertex 1058
property float x
property float y
property float z
property uchar red
property uchar green
property uchar blue
end_header
0.125 0.07500000000000001 0.0 18 18 18
0.125 0.025 0.0 10 10 10
0.125 -0.025 0.0 3 3 3
4.275 0.47500000000000003 0.0 246 246 246
4.325 0.42500000000000004 0.0 246 246 246
5.075 0.775 0.0 217 217 217
5.075 0.7250000000000001 0.0 237 237 237
5.025 0.625 0.0 246 246 246
5.025 -0.275 0.0 138 139 140
5.025 -2.725 0.0 197 198 197
4.9750000000000005 -2.7750000000000004 0.0 198 199 198
5.025 0.7250000000000001 0.0 223 223 223
4.925000000000001 0.5750000000000001 0.0 246 246 246
5.9750000000000005 -2.7750000000000004 0.0 67 65 65
5.9750000000000005 -2.875 0.0 55 55 54
5.9750000000000005 -3.0250000000000004 0.0 198 198 198
5.9750000000000005 -3.125 0.0 199 200 199
5.9750000000000005 -3.1750000000000003 0.0 198 198 198
4.925000000000001 -2.725 0.0 196 197 197
4.925000000000001 -2.7750000000000004 0.0 197 197 197
5.125 -0.17500000000000002 0.0 246 246 246
5.125 -0.125 0.0 245 245 245
6.025 -2.975 0.0 196 196 196
5.025 -0.125 0.0 245 246 245
5.025 -0.17500000000000002 0.0 246 246 246
5.025 0.775 0.0 213 213 213
4.925000000000001 0.17500000000000002 0.0 246 246 246
4.925000000000001 0.125 0.0 246 246 246
4.925000000000001 -0.07500000000000001 0.0 246 246 246
4.925000000000001 -0.17500000000000002 0.0 245 246 246
5.125 0.375 0.0 247 248 248
5.125 0.325 0.0 246 246 246
5.125 0.225 0.0 245 245 245
5.125 -0.025 0.0 246 246 246
5.025 0.675 0.0 246 246 246
4.9750000000000005 0.07500000000000001 0.0 246 246 246
4.9750000000000005 -0.025 0.0 246 246 246
4.9750000000000005 0.375 0.0 246 246 246
4.9750000000000005 0.325 0.0 246 247 246
4.9750000000000005 0.225 0.0 246 246 246
4.9750000000000005 0.525 0.0 245 246 245
4.925000000000001 0.775 0.0 159 158 159
4.925000000000001 0.7250000000000001 0.0 246 246 246
5.075 0.675 0.0 246 246 246
5.075 0.5750000000000001 0.0 245 245 245
4.875 0.275 0.0 246 246 246
4.875 0.125 0.0 246 246 246
4.825 0.07500000000000001 0.0 245 245 245
4.575 0.375 0.0 246 246 246
4.9750000000000005 0.025 0.0 246 246 246
4.775 0.525 0.0 246 246 245
4.825 0.225 0.0 246 246 246
4.9750000000000005 -2.875 0.0 246 246 246
4.7250000000000005 0.275 0.0 245 246 245
4.7250000000000005 0.375 0.0 246 246 246
4.925000000000001 -0.025 0.0 245 245 245
4.825 0.275 0.0 246 246 246
4.875 0.225 0.0 246 246 246
4.925000000000001 0.025 0.0 246 246 246
4.825 0.375 0.0 246 246 246
4.875 -0.125 0.0 246 246 246
5.925000000000001 -3.075 0.0 202 201 202
5.925000000000001 -2.7750000000000004 0.0 86 85 85
5.925000000000001 -2.9250000000000003 0.0 197 197 197
5.925000000000001 -2.975 0.0 199 199 199
4.925000000000001 -2.875 0.0 246 246 246
4.675 0.525 0.0 245 246 245
4.7250000000000005 0.525 0.0 246 246 246
5.075 -2.6750000000000003 0.0 196 197 197
5.075 -2.7750000000000004 0.0 198 199 198
5.075 -2.875 0.0 204 204 204
6.075 -2.825 0.0 104 102 102
6.075 -2.875 0.0 60 58 58
6.075 -2.975 0.0 196 197 195
6.075 -3.0250000000000004 0.0 198 198 197
6.075 -3.125 0.0 200 201 201
4.875 0.625 0.0 247 247 247
4.875 -0.025 0.0 246 246 246
4.7250000000000005 0.17500000000000002 0.0 246 246 246
4.825 0.5750000000000001 0.0 246 246 246
4.675 0.42500000000000004 0.0 246 246 246
4.575 0.525 0.0 247 247 247
4.825 0.025 0.0 246 246 246
6.075 -3.1750000000000003 0.0 199 199 199
4.925000000000001 0.275 0.0 246 246 246
4.875 0.025 0.0 246 246 246
4.925000000000001 0.675 0.0 246 246 246
4.7250000000000005 0.5750000000000001 0.0 246 246 246
4.675 0.17500000000000002 0.0 246 246 246
4.7250000000000005 0.125 0.0 246 246 246
4.675 0.325 0.0 246 246 246
4.7250000000000005 3.225 0.0 94 95 94
4.775 -0.025 0.0 246 247 246
4.625 0.225 0.0 246 246 246
4.575 3.4250000000000003 0.0 137 137 137
4.525 3.4250000000000003 0.0 135 136 135
4.675 -0.025 0.0 245 246 245
4.7250000000000005 0.025 0.0 246 246 246
5.7250000000000005 0.925 0.0 133 133 133
3.4250000000000003 11.525 0.0 243 244 243
4.275 4.125 0.0 243 243 243
4.775 3.5250000000000004 0.0 241 241 241
-1.175 10.575000000000001 0.0 108 143 168
-1.175 10.525 0.0 135 164 183
3.725 7.925000000000001 0.0 238 238 238
4.375 3.5250000000000004 0.0 238 238 238
-2.325 11.125 0.0 246 246 246
1.0250000000000001 10.775 0.0 120 153 176
1.475 11.075000000000001 0.0 95 139 167
3.325 10.475000000000001 0.0 245 245 245
-2.025 10.975000000000001 0.0 246 246 246
3.2750000000000004 10.675 0.0 230 230 230
1.675 11.175 0.0 93 136 164
1.8250000000000002 11.225000000000001 0.0 105 146 172
3.225 10.625 0.0 230 230 230
1.625 11.175 0.0 93 137 165
-1.5750000000000002 11.025 0.0 245 245 244
3.125 5.175000000000001 0.0 175 204 96
1.5750000000000002 10.775 0.0 116 153 176
1.7750000000000001 7.025 0.0 49 41 22
2.875 5.525 0.0 111 156 54
0.675 11.375 0.0 120 157 179
3.375 10.525 0.0 246 246 246
-0.7250000000000001 11.475000000000001 0.0 137 165 185
0.925 10.675 0.0 173 191 202
0.9750000000000001 10.375 0.0 124 158 180
-1.975 11.275 0.0 246 246 246
2.025 10.975000000000001 0.0 117 153 177
-5.675000000000001 9.925 0.0 146 145 145
-0.5750000000000001 11.325000000000001 0.0 141 169 187
1.7750000000000001 11.025 0.0 115 152 176
1.975 10.725000000000001 0.0 101 120 132
-5.875 10.025 0.0 245 245 245
-0.7250000000000001 11.125 0.0 148 173 191
3.325 10.725000000000001 0.0 245 245 245
3.4250000000000003 10.625 0.0 245 245 245
-5.7250000000000005 10.125 0.0 210 210 210
-0.9750000000000001 10.725000000000001 0.0 71 77 82
1.875 11.425 0.0 107 149 175
-0.8250000000000001 10.275 0.0 154 176 193
-0.125 10.475000000000001 0.0 173 192 204
0.8250000000000001 10.675 0.0 145 166 180
1.5250000000000001 10.825000000000001 0.0 137 166 185
1.975 10.775 0.0 134 164 185
2.075 10.775 0.0 135 165 185
2.1750000000000003 10.825000000000001 0.0 247 247 247
2.325 10.825000000000001 0.0 247 247 247
-0.025 10.475000000000001 0.0 196 209 217
0.7250000000000001 10.725000000000001 0.0 162 184 198
1.425 10.875 0.0 144 171 189
1.7750000000000001 10.875 0.0 139 167 186
1.875 10.875 0.0 136 164 184
2.475 10.975000000000001 0.0 247 247 247
-1.8250000000000002 10.925 0.0 247 247 247
-1.125 10.525 0.0 143 169 187
-0.47500000000000003 10.375 0.0 148 173 190
-0.375 10.425 0.0 143 166 182
0.225 10.625 0.0 164 185 199
0.7250000000000001 10.625 0.0 239 238 236
1.625 10.875 0.0 139 167 186
-0.625 10.425 0.0 137 165 185
-0.275 10.425 0.0 145 171 189
-0.125 10.425 0.0 229 233 234
1.075 10.675 0.0 151 175 192
1.2750000000000001 10.775 0.0 139 167 186
1.7750000000000001 10.825000000000001 0.0 146 173 190
1.975 10.875 0.0 136 166 185
-2.325 11.325000000000001 0.0 247 247 247
0.925 10.725000000000001 0.0 140 168 187
1.175 10.825000000000001 0.0 141 169 188
1.3250000000000002 10.825000000000001 0.0 139 168 187
1.675 10.875 0.0 136 166 184
2.475 11.075000000000001 0.0 246 246 246
2.725 11.625 0.0 247 247 246
-0.775 10.675 0.0 147 171 189
-0.525 10.575000000000001 0.0 150 174 191
-0.375 10.675 0.0 150 174 190
-0.275 10.625 0.0 144 170 188
0.125 10.625 0.0 160 182 196
1.075 10.825000000000001 0.0 141 168 187
1.425 10.775 0.0 134 163 183
2.075 10.725000000000001 0.0 130 162 183
-5.675000000000001 9.975000000000001 0.0 168 167 167
-0.275 10.675 0.0 143 169 186
-0.025 10.675 0.0 150 174 191
0.325 10.675 0.0 149 173 190
0.5750000000000001 10.725000000000001 0.0 157 180 195
0.8250000000000001 10.725000000000001 0.0 165 186 199
-5.9750000000000005 10.025 0.0 245 245 245
-5.925000000000001 10.125 0.0 246 246 246
-1.0250000000000001 10.625 0.0 102 114 123
-0.375 10.625 0.0 143 171 189
-0.275 10.525 0.0 142 169 187
0.125 10.725000000000001 0.0 148 173 190
0.5750000000000001 10.675 0.0 175 192 204
0.675 10.675 0.0 144 169 186
1.175 10.725000000000001 0.0 141 168 187
1.5250000000000001 10.875 0.0 143 170 189
2.325 10.875 0.0 247 246 246
-6.125 9.975000000000001 0.0 245 245 245
-5.625 9.875 0.0 193 194 193
-2.4250000000000003 10.975000000000001 0.0 246 246 246
0.47500000000000003 10.625 0.0 177 191 200
-1.3250000000000002 10.975000000000001 0.0 149 173 190
-0.125 10.575000000000001 0.0 148 170 185
-0.025 10.575000000000001 0.0 159 181 196
0.225 10.675 0.0 144 170 188
0.47500000000000003 10.725000000000001 0.0 150 175 191
0.5750000000000001 10.825000000000001 0.0 152 176 192
0.925 10.775 0.0 163 182 195
1.0250000000000001 10.675 0.0 143 170 188
1.2750000000000001 10.675 0.0 139 169 188
1.5250000000000001 10.725000000000001 0.0 118 146 163
-0.375 10.475000000000001 0.0 141 167 184
0.925 10.525 0.0 113 128 138
0.675 5.525 0.0 90 83 64
-5.275 10.925 0.0 169 169 168
-2.275 11.075000000000001 0.0 247 247 247
-2.075 10.825000000000001 0.0 247 247 247
-1.725 10.875 0.0 247 247 247
-0.925 10.425 0.0 133 161 181
0.47500000000000003 10.675 0.0 140 167 186
0.7250000000000001 10.775 0.0 142 168 186
1.125 10.775 0.0 140 167 187
-1.0250000000000001 10.325000000000001 0.0 152 173 188
1.125 10.725000000000001 0.0 144 171 188
2.975 11.425 0.0 247 247 247
-1.5750000000000002 10.875 0.0 247 247 247
-1.175 10.375 0.0 135 163 183
-1.0250000000000001 10.425 0.0 138 166 185
0.375 10.625 0.0 199 209 215
-1.8250000000000002 10.825000000000001 0.0 247 247 247
-1.725 10.825000000000001 0.0 247 247 247
-1.125 10.325000000000001 0.0 135 165 185
0.775 10.775 0.0 150 176 193
1.125 10.875 0.0 153 177 193
2.875 11.475000000000001 0.0 247 247 247
-5.775 10.125 0.0 143 142 142
-1.0250000000000001 10.475000000000001 0.0 139 167 186
0.525 11.175 0.0 148 173 190
-5.625 9.975000000000001 0.0 229 229 229
-1.875 10.175 0.0 65 110 12
-5.775 10.025 0.0 197 197 197
-1.975 10.125 0.0 118 155 55
-0.925 10.625 0.0 144 171 189
-0.525 10.525 0.0 129 155 173
2.075 10.875 0.0 131 162 183
-1.075 10.725000000000001 0.0 149 175 192
0.375 10.975000000000001 0.0 145 172 189
2.1750000000000003 10.725000000000001 0.0 246 246 246
1.725 7.025 0.0 46 41 30
1.8250000000000002 11.075000000000001 0.0 140 167 185
-0.225 10.475000000000001 0.0 143 167 183
0.675 10.725000000000001 0.0 201 212 219
1.0250000000000001 10.875 0.0 148 174 191
-1.625 10.575000000000001 0.0 246 246 246
-1.375 10.475000000000001 0.0 168 188 201
0.025 10.625 0.0 170 189 202
0.125 10.675 0.0 173 192 204
1.0250000000000001 10.725000000000001 0.0 141 169 188
-1.2750000000000001 10.475000000000001 0.0 141 168 186
1.975 11.125 0.0 140 169 187
-5.925000000000001 9.975000000000001 0.0 244 244 244
-2.075 10.925 0.0 247 247 247
-1.925 10.825000000000001 0.0 247 247 247
-1.675 10.675 0.0 246 246 246
-0.775 10.425 0.0 133 162 181
-0.42500000000000004 10.275 0.0 168 188 201
-0.225 10.425 0.0 151 173 188
0.225 10.725000000000001 0.0 247 247 246
1.875 11.225000000000001 0.0 140 168 187
-2.225 10.875 0.0 247 247 247
-1.125 10.425 0.0 138 166 185
-0.675 10.475000000000001 0.0 137 165 185
0.375 10.775 0.0 142 169 187
1.2750000000000001 10.975000000000001 0.0 146 172 189
2.125 10.975000000000001 0.0 139 168 187
-2.325 10.875 0.0 247 247 247
-2.1750000000000003 10.775 0.0 248 248 248
-1.925 10.675 0.0 246 246 246
-1.7750000000000001 10.575000000000001 0.0 246 246 246
-1.625 10.425 0.0 246 246 246
-0.675 10.375 0.0 150 173 189
-0.5750000000000001 10.475000000000001 0.0 136 163 182
0.375 10.725000000000001 0.0 145 171 189
-2.375 10.925 0.0 247 247 247
-1.625 10.475000000000001 0.0 246 246 246
-1.375 10.425 0.0 149 169 183
0.375 10.675 0.0 140 167 186
-7.575 10.275 0.0 111 152 176
-6.525 9.925 0.0 244 245 245
-0.775 10.475000000000001 0.0 134 163 183
0.675 10.625 0.0 174 191 203
-1.675 9.775 0.0 146 167 126
-0.8250000000000001 10.625 0.0 144 170 188
-0.225 10.575000000000001 0.0 138 167 186
-0.675 10.575000000000001 0.0 138 166 184
0.325 10.525 0.0 191 204 213
0.5750000000000001 10.625 0.0 191 204 211
0.775 10.625 0.0 182 198 207
1.125 10.625 0.0 143 169 187
1.3250000000000002 10.725000000000001 0.0 120 145 161
1.875 10.825000000000001 0.0 100 102 104
-5.9750000000000005 11.025 0.0 193 193 193
-0.675 10.225000000000001 0.0 204 205 204
-6.425000000000001 9.675 0.0 231 233 225
2.275 10.825000000000001 0.0 246 246 246
-0.875 10.525 0.0 140 168 186
0.925 10.625 0.0 191 204 212
2.4250000000000003 10.925 0.0 246 246 246
-5.875 10.075000000000001 0.0 245 245 245
-2.225 11.225000000000001 0.0 247 247 247
-2.375 11.225000000000001 0.0 247 248 247
0.675 10.775 0.0 142 169 188
1.675 10.975000000000001 0.0 145 173 191
-2.4250000000000003 11.325000000000001 0.0 247 247 247
-1.975 10.275 0.0 168 196 118
0.07500000000000001 10.525 0.0 144 170 188
-5.9750000000000005 11.175 0.0 210 210 210
0.325 10.775 0.0 142 169 186
1.2750000000000001 10.725000000000001 0.0 143 170 189
-5.625 10.075000000000001 0.0 225 225 225
-1.8250000000000002 9.925 0.0 139 178 66
-1.675 9.875 0.0 247 247 247
-0.675 10.325000000000001 0.0 175 187 195
-0.875 10.275 0.0 172 184 192
1.075 10.875 0.0 144 170 189
-1.475 10.525 0.0 246 247 246
0.17500000000000002 10.525 0.0 220 225 228
1.3250000000000002 10.925 0.0 149 174 191
1.225 10.925 0.0 149 174 192
-5.675000000000001 10.175 0.0 226 226 226
-1.725 10.525 0.0 247 247 247
-1.2750000000000001 10.425 0.0 135 164 184
0.325 10.625 0.0 172 191 203
1.075 10.725000000000001 0.0 146 172 190
-5.875 10.675 0.0 204 204 204
-1.875 10.425 0.0 236 241 224
-1.5250000000000001 10.425 0.0 246 246 246
-1.2750000000000001 10.325000000000001 0.0 132 163 183
-6.025 11.225000000000001 0.0 187 187 187
-5.875 9.925 0.0 241 241 241
-6.025 10.925 0.0 193 193 193
-1.475 10.175 0.0 246 246 245
-0.7250000000000001 10.425 0.0 137 166 185
1.175 10.675 0.0 136 165 184
-6.025 11.475000000000001 0.0 200 200 200
-0.7250000000000001 10.475000000000001 0.0 134 162 180
0.275 10.725000000000001 0.0 139 167 186
0.7250000000000001 10.675 0.0 172 190 202
1.7750000000000001 10.675 0.0 133 166 187
1.875 10.675 0.0 130 162 184
-6.2250000000000005 8.825000000000001 0.0 65 115 51
-6.075 11.225000000000001 0.0 201 201 201
-5.875 11.175 0.0 219 219 219
-1.5250000000000001 10.225000000000001 0.0 245 246 245
-1.175 10.325000000000001 0.0 142 170 188
1.0250000000000001 10.575000000000001 0.0 165 166 165
-1.875 9.525 0.0 240 241 240
-1.725 9.475 0.0 246 247 246
-5.925000000000001 10.175 0.0 247 247 247
0.625 5.425000000000001 0.0 77 65 38
-1.075 10.475000000000001 0.0 142 169 187
0.025 10.725000000000001 0.0 174 191 203
-5.7250000000000005 10.325000000000001 0.0 230 230 230
-5.775 10.575000000000001 0.0 225 225 225
-5.775 10.725000000000001 0.0 202 203 202
0.025 10.675 0.0 149 165 175
-1.2750000000000001 10.575000000000001 0.0 144 170 188
-5.9750000000000005 10.075000000000001 0.0 246 246 246
-5.675000000000001 10.225000000000001 0.0 173 173 173
-5.825 10.675 0.0 220 220 220
-2.275 10.875 0.0 246 246 246
-0.17500000000000002 10.675 0.0 240 240 238
-5.875 11.325000000000001 0.0 139 139 139
-6.125 10.075000000000001 0.0 246 246 246
-1.925 10.925 0.0 246 246 246
-1.425 10.625 0.0 99 136 160
0.47500000000000003 10.775 0.0 141 168 187
-5.775 9.925 0.0 240 240 240
-2.325 11.175 0.0 247 247 247
-1.375 10.325000000000001 0.0 158 181 197
-5.925000000000001 10.675 0.0 163 163 163
-5.9750000000000005 11.675 0.0 172 172 172
-1.3250000000000002 10.525 0.0 141 168 186
-0.625 10.575000000000001 0.0 138 166 185
1.375 10.725000000000001 0.0 130 162 183
2.275 10.875 0.0 247 247 247
-6.4750000000000005 10.175 0.0 247 247 247
-6.2250000000000005 10.025 0.0 245 245 245
-6.175000000000001 10.075000000000001 0.0 246 246 246
-1.625 10.175 0.0 212 222 197
-1.475 10.075000000000001 0.0 234 238 225
-1.075 10.325000000000001 0.0 124 153 173
2.4250000000000003 11.075000000000001 0.0 246 246 247
-6.675000000000001 10.225000000000001 0.0 246 247 246
-6.275 10.075000000000001 0.0 246 246 246
-1.2750000000000001 10.225000000000001 0.0 139 169 188
-0.07500000000000001 10.675 0.0 146 172 189
1.125 10.675 0.0 140 168 187
-5.875 10.525 0.0 196 196 196
-1.7750000000000001 9.725000000000001 0.0 209 220 199
-0.625 10.275 0.0 142 142 141
0.5750000000000001 10.425 0.0 132 163 185
0.775 10.425 0.0 76 77 76
-1.8250000000000002 9.475 0.0 149 169 139
-1.075 10.375 0.0 134 164 183
-1.875 10.625 0.0 246 246 246
-0.025 10.425 0.0 245 245 244
-1.875 10.725000000000001 0.0 247 247 247
-1.125 10.625 0.0 147 172 189
-6.625 9.775 0.0 234 237 237
-6.575 9.725000000000001 0.0 244 244 244
-6.325 9.925 0.0 243 243 243
-1.7750000000000001 10.525 0.0 246 246 246
0.025 10.525 0.0 170 189 202
-6.625 9.875 0.0 241 241 239
-6.2250000000000005 9.925 0.0 235 235 235
-1.8250000000000002 10.225000000000001 0.0 239 242 229
-1.725 10.425 0.0 246 246 246
-1.7750000000000001 9.975000000000001 0.0 100 159 19
-0.7250000000000001 10.575000000000001 0.0 142 170 188
-6.375 9.925 0.0 244 245 244
-6.275 9.975000000000001 0.0 245 245 245
-6.675000000000001 9.925 0.0 245 245 245
-6.525 10.125 0.0 246 246 246
-1.725 9.375 0.0 118 159 63
-6.325 9.675 0.0 176 197 141
-1.925 9.975000000000001 0.0 246 246 246
0.675 10.525 0.0 150 176 193
-1.7750000000000001 9.675 0.0 223 229 216
-1.125 10.125 0.0 196 196 196
-6.525 10.225000000000001 0.0 247 247 247
-6.2250000000000005 8.875 0.0 89 140 64
-6.675000000000001 10.025 0.0 246 246 246
-1.975 10.625 0.0 246 246 246
-1.725 10.575000000000001 0.0 246 246 246
0.42500000000000004 10.525 0.0 243 243 241
-6.375 9.975000000000001 0.0 245 245 245
-2.025 10.875 0.0 246 246 246
-1.3250000000000002 10.575000000000001 0.0 153 176 193
-6.125 9.925 0.0 242 242 242
-1.975 10.725000000000001 0.0 246 246 246
-6.325 13.175 0.0 168 169 168
-2.075 10.575000000000001 0.0 246 246 246
-6.125 12.125 0.0 162 163 162
-1.8250000000000002 10.425 0.0 246 246 246
-6.4750000000000005 10.025 0.0 245 245 245
-5.9750000000000005 11.425 0.0 204 204 204
-1.675 10.175 0.0 246 246 246
-6.2250000000000005 12.075000000000001 0.0 164 164 163
-6.425000000000001 13.275 0.0 167 167 167
-1.375 10.225000000000001 0.0 150 167 181
-6.175000000000001 9.325000000000001 0.0 78 119 24
-5.175000000000001 10.625 0.0 146 146 146
-6.7250000000000005 10.275 0.0 246 246 246
-5.9750000000000005 10.725000000000001 0.0 195 196 195
-1.8250000000000002 9.625 0.0 68 115 20
-1.375 10.175 0.0 159 177 191
-0.025 10.725000000000001 0.0 135 164 183
-6.125 11.825000000000001 0.0 160 161 161
-2.275 10.275 0.0 246 246 246
-1.625 9.775 0.0 210 219 191
-6.375 9.375 0.0 52 88 50
-5.9750000000000005 11.075000000000001 0.0 215 216 215
-5.9750000000000005 11.275 0.0 203 203 203
-1.725 9.625 0.0 147 174 114
-1.5750000000000002 10.225000000000001 0.0 246 246 246
-1.3250000000000002 10.425 0.0 134 164 184
-2.225 10.575000000000001 0.0 246 247 246
-0.17500000000000002 10.275 0.0 248 247 245
-5.825 11.375 0.0 205 205 205
-4.875 10.075000000000001 0.0 69 67 66
-6.7250000000000005 9.725000000000001 0.0 41 81 110
-5.7250000000000005 10.675 0.0 205 206 205
-2.225 11.075000000000001 0.0 247 247 247
-2.075 10.725000000000001 0.0 247 248 247
-1.625 9.975000000000001 0.0 246 246 246
-6.375 10.075000000000001 0.0 247 247 247
-5.9750000000000005 9.925 0.0 242 242 242
-1.975 10.225000000000001 0.0 218 231 164
-1.375 10.125 0.0 247 247 247
-1.625 9.875 0.0 135 158 105
-1.3250000000000002 10.325000000000001 0.0 140 168 187
-6.4750000000000005 9.625 0.0 173 195 134
-1.925 9.725000000000001 0.0 68 112 10
-1.625 9.725000000000001 0.0 239 241 235
-1.225 10.175 0.0 133 164 183
0.8250000000000001 10.325000000000001 0.0 111 111 111
-6.2250000000000005 8.975 0.0 85 136 63
-5.325 11.325000000000001 0.0 190 190 190
-2.125 10.325000000000001 0.0 244 245 243
-1.7750000000000001 9.525 0.0 226 231 223
-1.8250000000000002 9.775 0.0 126 157 87
-5.825 10.425 0.0 222 222 222
0.925 10.875 0.0 137 166 186
-1.475 10.625 0.0 247 247 247
-6.7250000000000005 10.075000000000001 0.0 245 245 245
-6.525 13.725000000000001 0.0 168 168 168
-1.7750000000000001 10.675 0.0 246 246 246
0.025 10.425 0.0 246 246 244
-2.075 10.475000000000001 0.0 246 246 246
-1.875 10.525 0.0 247 247 247
-5.9750000000000005 11.575000000000001 0.0 200 200 200
-6.375 13.675 0.0 166 166 166
-1.975 10.375 0.0 245 246 246
-6.575 10.125 0.0 246 246 246
-1.625 10.275 0.0 246 246 246
-6.075 11.475000000000001 0.0 202 202 202
-6.075 11.425 0.0 200 200 200
-6.425000000000001 9.625 0.0 151 172 119
-6.275 10.175 0.0 246 246 246
-6.075 11.625 0.0 173 174 173
-1.5750000000000002 9.675 0.0 188 201 165
-1.5250000000000001 9.925 0.0 246 247 246
-6.575 9.625 0.0 58 98 71
-1.875 9.825000000000001 0.0 185 205 141
0.7250000000000001 10.525 0.0 78 79 78
0.8250000000000001 10.475000000000001 0.0 122 122 122
-2.275 10.575000000000001 0.0 246 246 246
-1.875 10.325000000000001 0.0 247 247 247
-1.7750000000000001 10.275 0.0 246 246 246
-6.575 9.675 0.0 118 148 138
-6.525 9.775 0.0 241 241 241
-1.675 10.225000000000001 0.0 246 246 246
-6.075 11.075000000000001 0.0 218 218 218
-1.5750000000000002 10.125 0.0 246 246 246
-1.5250000000000001 10.025 0.0 246 246 246
-1.5250000000000001 9.725000000000001 0.0 173 201 111
-6.075 9.325000000000001 0.0 240 241 236
-0.7250000000000001 10.325000000000001 0.0 147 173 190
-1.875 9.875 0.0 135 172 83
-1.225 10.225000000000001 0.0 139 168 187
-1.075 10.225000000000001 0.0 158 158 158
-0.875 10.225000000000001 0.0 194 194 194
-6.675000000000001 9.775 0.0 143 167 183
-6.525 9.725000000000001 0.0 234 236 230
-5.775 10.325000000000001 0.0 233 233 233
-5.825 10.775 0.0 222 223 223
-4.875 10.225000000000001 0.0 198 198 199
-2.325 10.525 0.0 245 245 245
-2.225 10.725000000000001 0.0 246 246 246
-1.8250000000000002 10.725000000000001 0.0 247 247 247
-1.625 10.675 0.0 247 247 247
-5.875 10.825000000000001 0.0 229 229 229
-5.875 10.425 0.0 218 218 218
-0.125 10.325000000000001 0.0 242 242 241
-8.075000000000001 10.375 0.0 92 138 167
-7.7250000000000005 10.125 0.0 95 138 167
-5.925000000000001 10.725000000000001 0.0 204 204 204
-5.925000000000001 10.875 0.0 216 216 216
-1.975 10.475000000000001 0.0 232 239 219
-1.675 10.325000000000001 0.0 246 246 246
-1.475 10.275 0.0 246 246 246
-6.425000000000001 9.525 0.0 95 138 34
-2.025 10.175 0.0 246 246 246
-1.925 10.225000000000001 0.0 120 172 29
-1.675 9.675 0.0 218 226 207
-6.125 8.875 0.0 116 143 119
-6.325 9.225 0.0 105 156 81
-2.075 9.925 0.0 236 239 231
-2.275 10.525 0.0 247 247 247
-5.775 10.475000000000001 0.0 236 236 236
-5.825 11.075000000000001 0.0 216 215 216
-5.925000000000001 9.925 0.0 224 224 224
-5.875 10.725000000000001 0.0 228 229 228
-5.825 10.875 0.0 227 227 227
-2.125 10.675 0.0 245 245 245
-2.1750000000000003 10.525 0.0 246 246 246
-1.675 10.025 0.0 242 243 238
-5.925000000000001 11.125 0.0 233 234 233
-2.125 10.175 0.0 246 246 246
-1.975 9.925 0.0 246 246 246
-6.425000000000001 12.875 0.0 213 213 213
-1.475 9.675 0.0 221 230 197
-6.025 8.725 0.0 105 165 52
-5.875 10.625 0.0 224 224 224
-1.975 9.825000000000001 0.0 188 203 168
-1.5250000000000001 9.775 0.0 247 247 247
-7.925000000000001 10.325000000000001 0.0 87 138 167
-4.925000000000001 10.225000000000001 0.0 143 143 143
-4.925000000000001 10.325000000000001 0.0 199 200 200
-5.925000000000001 10.625 0.0 204 204 204
-5.925000000000001 11.375 0.0 219 220 219
-6.675000000000001 13.975000000000001 0.0 195 195 195
-6.775 9.775 0.0 19 45 66
-2.075 10.375 0.0 247 247 247
-6.575 9.425 0.0 101 152 127
-6.425000000000001 9.775 0.0 237 239 233
-6.625 13.825000000000001 0.0 194 194 194
-6.075 11.675 0.0 199 199 199
-6.025 12.475000000000001 0.0 182 183 182
-6.325 9.475 0.0 176 197 151
-5.025 10.325000000000001 0.0 191 191 192
-2.325 10.275 0.0 246 246 246
-1.975 10.025 0.0 246 246 246
-1.725 9.525 0.0 65 113 12
-1.5250000000000001 9.625 0.0 183 203 147
-6.575 9.525 0.0 156 190 139
-2.225 10.275 0.0 247 247 247
-5.875 11.475000000000001 0.0 212 212 212
-6.275 12.725000000000001 0.0 211 211 211
-5.7250000000000005 10.575000000000001 0.0 209 209 209
-5.875 10.875 0.0 237 237 237
-5.7250000000000005 10.875 0.0 213 214 213
-6.375 13.375 0.0 214 215 214
-6.675000000000001 9.675 0.0 96 133 159
-6.425000000000001 13.775 0.0 213 213 213
-6.625 14.675 0.0 214 214 213
-5.7250000000000005 10.525 0.0 224 225 224
-6.675000000000001 14.725000000000001 0.0 213 213 213
-6.575 14.175 0.0 215 215 215
-6.575 9.975000000000001 0.0 244 244 244
-6.775 9.925 0.0 246 246 246
-2.025 9.675 0.0 122 166 56
-1.925 9.675 0.0 242 243 240
-6.4750000000000005 9.075000000000001 0.0 93 152 5
-6.375 9.075000000000001 0.0 51 80 7
-6.375 9.475 0.0 208 217 222
-5.875 11.125 0.0 227 227 227
-2.275 10.375 0.0 245 245 245
-5.7250000000000005 10.375 0.0 236 236 236
-6.125 8.975 0.0 68 115 97
-6.275 8.925 0.0 60 110 85
-2.225 10.425 0.0 245 245 245
-4.825 10.075000000000001 0.0 173 173 173
-6.525 14.625 0.0 210 210 210
-5.875 10.325000000000001 0.0 185 185 185
-5.925000000000001 11.625 0.0 222 222 222
-2.475 11.125 0.0 246 247 246
-6.425000000000001 12.725000000000001 0.0 182 183 182
-6.575 14.075000000000001 0.0 180 181 180
-6.675000000000001 15.175 0.0 177 177 177
-6.575 14.625 0.0 180 181 181
-6.525 13.925 0.0 181 181 181
-6.575 15.175 0.0 176 177 176
-4.875 10.175 0.0 175 176 176
-6.175000000000001 9.825000000000001 0.0 224 224 224
-7.425000000000001 9.725000000000001 0.0 76 127 159
-4.9750000000000005 10.225000000000001 0.0 99 99 98
-6.525 12.975000000000001 0.0 216 215 215
-6.4750000000000005 13.325000000000001 0.0 217 218 217
-6.425000000000001 13.225000000000001 0.0 219 219 219
-6.325 9.825000000000001 0.0 240 240 240
-6.625 14.375 0.0 210 210 210
-6.7250000000000005 14.925 0.0 219 219 219
-7.2250000000000005 9.725000000000001 0.0 81 130 161
-2.075 10.225000000000001 0.0 246 246 246
-8.125 10.075000000000001 0.0 82 132 163
-6.575 14.275 0.0 217 217 217
-6.325 13.275 0.0 228 229 228
-2.125 9.725000000000001 0.0 111 160 35
-6.525 14.075000000000001 0.0 218 218 218
-1.675 9.725000000000001 0.0 247 247 247
-1.975 9.725000000000001 0.0 223 230 207
-8.275 10.025 0.0 72 124 158
-5.875 11.375 0.0 212 212 212
-2.375 10.475000000000001 0.0 246 246 246
-6.125 8.775 0.0 49 94 10
-4.825 10.025 0.0 104 103 102
-4.875 10.275 0.0 202 202 202
-6.4750000000000005 13.475000000000001 0.0 220 220 220
-6.375 13.575000000000001 0.0 203 204 203
-6.2250000000000005 12.575000000000001 0.0 209 209 209
-5.775 10.225000000000001 0.0 222 222 222
-6.4750000000000005 13.425 0.0 203 203 203
-6.675000000000001 15.475000000000001 0.0 201 201 201
-6.425000000000001 13.525 0.0 222 223 222
-4.925000000000001 10.175 0.0 78 76 76
-6.775 9.725000000000001 0.0 78 119 147
-5.925000000000001 10.825000000000001 0.0 222 222 222
-5.925000000000001 10.975000000000001 0.0 233 233 233
-6.825 15.275 0.0 219 219 219
-6.575 14.525 0.0 225 225 225
-6.7250000000000005 15.025 0.0 218 218 218
-6.375 9.175 0.0 118 179 38
-6.2250000000000005 9.125 0.0 114 167 19
-6.2250000000000005 9.025 0.0 79 132 84
-6.325 9.525 0.0 243 244 244
-6.275 9.075000000000001 0.0 80 135 75
-6.525 9.675 0.0 228 234 218
-4.825 10.175 0.0 232 232 232
-4.925000000000001 10.125 0.0 61 61 60
-5.875 10.975000000000001 0.0 234 234 234
-4.9750000000000005 10.175 0.0 142 139 140
-6.2250000000000005 12.725000000000001 0.0 232 232 232
-8.075000000000001 9.975000000000001 0.0 69 121 155
-5.125 10.375 0.0 212 211 211
-8.075000000000001 9.925 0.0 69 122 156
-7.275 9.675 0.0 70 122 155
-7.9750000000000005 9.975000000000001 0.0 71 125 158
-7.875 10.025 0.0 72 123 157
-7.125 9.675 0.0 72 123 157
-6.525 14.225000000000001 0.0 233 233 233
-9.175 9.475 0.0 53 106 141
-10.375 9.275 0.0 55 111 147
-9.125 9.525 0.0 54 107 141
-6.525 14.425 0.0 232 232 232
-6.525 14.675 0.0 236 236 236
-6.775 9.675 0.0 117 149 171
-6.4750000000000005 14.325000000000001 0.0 236 237 237
-10.425 9.375 0.0 61 117 152
-6.175000000000001 9.475 0.0 244 244 244
-5.825 10.975000000000001 0.0 237 237 237
-5.875 11.225000000000001 0.0 237 237 237
-6.4750000000000005 15.225000000000001 0.0 233 233 233
-2.075 9.675 0.0 181 198 148
-8.175 10.175 0.0 71 122 155
-5.4750000000000005 11.525 0.0 209 209 209
-9.875 9.625 0.0 57 112 147
-6.2250000000000005 9.175 0.0 66 118 131
-2.325 10.375 0.0 245 245 245
-10.675 9.325000000000001 0.0 59 116 150
-9.375 9.125 0.0 17 19 17
-6.025 8.875 0.0 108 143 140
-6.4750000000000005 14.025 0.0 240 240 239
-6.775 16.675 0.0 240 240 240
-7.025 9.825000000000001 0.0 61 112 147
-6.875 9.825000000000001 0.0 73 123 155
-6.525 14.525 0.0 236 236 236
-9.225 9.375 0.0 53 104 139
-6.775 16.625 0.0 240 240 240
-9.725000000000001 9.275 0.0 85 112 129
-9.625 9.325000000000001 0.0 95 118 128
-6.7250000000000005 16.525000000000002 0.0 240 241 240
-6.425000000000001 12.825000000000001 0.0 143 143 143
-6.7250000000000005 16.575 0.0 240 240 240
-9.775 9.225 0.0 173 190 197
-6.575 15.125 0.0 239 239 239
-6.575 15.325000000000001 0.0 235 235 235
-6.275 9.425 0.0 152 186 94
-6.175000000000001 8.725 0.0 79 136 11
-10.725000000000001 9.325000000000001 0.0 56 110 145
-7.925000000000001 9.725000000000001 0.0 64 118 152
-6.525 9.475 0.0 75 122 152
-9.425 9.475 0.0 53 106 141
-7.625 9.775 0.0 57 108 141
-9.325000000000001 9.525 0.0 53 104 138
-7.075 9.775 0.0 59 112 147
-10.225000000000001 9.275 0.0 200 196 185
-9.675 9.325000000000001 0.0 94 118 129
-6.625 14.925 0.0 238 238 239
-6.7250000000000005 15.675 0.0 238 238 238
-9.675 9.225 0.0 162 164 162
-9.275 9.475 0.0 49 100 135
-9.125 9.475 0.0 52 104 138
-6.575 13.975000000000001 0.0 239 240 240
-6.625 14.975000000000001 0.0 238 238 238
-6.7250000000000005 15.775 0.0 238 238 238
-10.975000000000001 9.225 0.0 53 107 142
-10.825000000000001 9.425 0.0 54 108 143
-10.925 9.325000000000001 0.0 55 108 145
-6.675000000000001 14.175 0.0 240 240 240
-6.675000000000001 15.275 0.0 240 240 240
-6.175000000000001 8.625 0.0 97 149 41
-9.925 9.675 0.0 54 110 144
-9.775 9.675 0.0 53 106 141
-6.275 9.275 0.0 90 140 72
-6.275 9.625 0.0 236 238 230
-9.825000000000001 9.725000000000001 0.0 55 106 141
-6.275 9.025 0.0 112 166 33
-9.625 9.725000000000001 0.0 53 105 140
-8.875 9.625 0.0 54 105 139
-6.375 9.025 0.0 68 120 7
-8.875 9.375 0.0 53 105 140
-9.025 9.225 0.0 7 7 7
-6.4750000000000005 9.525 0.0 115 153 131
-5.925000000000001 11.275 0.0 237 237 237
-5.825 11.325000000000001 0.0 240 240 240
-5.125 10.925 0.0 90 90 91
-8.325000000000001 9.025 0.0 7 8 7
-6.525 9.025 0.0 51 103 118
-6.375 8.975 0.0 55 104 65
-4.875 10.025 0.0 41 39 39
-6.525 14.925 0.0 240 241 240
-9.875 9.375 0.0 148 174 188
-9.475 9.275 0.0 210 208 201
-6.9750000000000005 9.725000000000001 0.0 60 112 146
-12.525 9.125 0.0 52 107 143
-12.175 9.425 0.0 55 108 143
-10.375 9.175 0.0 132 132 128
-10.025 9.175 0.0 142 166 180
-9.275 9.375 0.0 54 106 141
-12.375 9.225 0.0 55 107 142
-10.225000000000001 9.375 0.0 55 108 143
-9.475 9.375 0.0 53 105 141
-9.925 9.475 0.0 55 109 143
-9.575000000000001 9.575000000000001 0.0 57 110 144
-9.425 9.625 0.0 60 114 150
-6.425000000000001 14.425 0.0 236 236 236
-6.625 16.075 0.0 240 240 240
-12.125 9.375 0.0 54 106 143
-11.025 9.325000000000001 0.0 57 111 146
-10.625 9.425 0.0 55 109 143
-6.4750000000000005 13.575000000000001 0.0 239 239 239
-12.075000000000001 9.325000000000001 0.0 54 109 145
-10.675 9.425 0.0 54 109 145
-9.275 9.575000000000001 0.0 55 107 142
-8.625 9.575000000000001 0.0 56 111 147
-9.775 9.325000000000001 0.0 121 146 160
-9.675 9.425 0.0 54 107 142
-9.125 9.225 0.0 31 56 74
-8.425 9.175 0.0 5 6 5
-8.275 9.225 0.0 6 6 6
-7.925000000000001 9.225 0.0 24 39 48
-6.375 8.925 0.0 53 102 135
-12.425 9.125 0.0 53 107 142
-9.025 9.475 0.0 51 102 137
-7.325 9.775 0.0 57 109 144
-7.2250000000000005 9.825000000000001 0.0 53 105 139
-10.325000000000001 9.175 0.0 60 55 48
-10.275 9.275 0.0 79 102 114
-9.625 9.175 0.0 111 145 166
-8.975 9.475 0.0 54 106 141
-9.925 9.225 0.0 230 227 221
-6.9750000000000005 9.875 0.0 55 106 140
-5.925000000000001 11.175 0.0 236 236 236
-8.975 9.525 0.0 54 106 141
-8.825000000000001 9.625 0.0 58 110 145
-13.125 8.975 0.0 53 106 141
-9.425 9.425 0.0 52 104 138
-9.025 9.525 0.0 54 109 145
-10.175 9.475 0.0 55 110 146
-9.175 9.525 0.0 48 100 135
-10.325000000000001 9.425 0.0 52 106 140
-10.225000000000001 9.475 0.0 54 108 144
-6.075 11.975000000000001 0.0 234 234 234
-13.325000000000001 9.325000000000001 0.0 52 104 139
-10.775 9.275 0.0 52 105 140
-10.475000000000001 9.375 0.0 52 107 142
-8.675 9.675 0.0 54 108 143
-6.125 8.675 0.0 134 176 101
-9.025 9.625 0.0 53 103 137
-6.775 16.025000000000002 0.0 238 239 238
-10.275 8.925 0.0 6 6 6
-8.975 9.375 0.0 49 100 134
-8.625 9.775 0.0 50 102 136
-7.375 9.525 0.0 55 103 136
-6.625 14.775 0.0 238 238 238
-10.075000000000001 9.025 0.0 15 16 15
-9.775 9.025 0.0 45 91 121
-9.925 9.325000000000001 0.0 26 44 56
-6.625 8.875 0.0 40 77 18
-6.025 11.775 0.0 241 241 241
-6.7250000000000005 15.975000000000001 0.0 239 239 239
-8.225 9.275 0.0 7 8 7
-8.125 9.325000000000001 0.0 11 15 17
-6.275 8.825000000000001 0.0 51 102 61
-6.025 8.775 0.0 66 113 92
-8.225 9.625 0.0 68 122 155
-8.125 9.675 0.0 68 121 155
-7.9750000000000005 9.725000000000001 0.0 58 106 140
-9.125 9.375 0.0 61 113 147
-9.275 9.325000000000001 0.0 152 150 143
-9.025 9.275 0.0 63 119 153
-8.025 9.675 0.0 67 120 154
-8.425 9.475 0.0 39 66 83
-8.375 9.525 0.0 64 119 154
-8.075000000000001 9.625 0.0 59 112 146
-7.875 9.775 0.0 58 110 144
-7.575 9.725000000000001 0.0 77 127 123
-6.275 8.625 0.0 86 136 46
-6.275 8.725 0.0 88 140 36
-6.075 11.725000000000001 0.0 232 233 232
-6.825 15.475000000000001 0.0 231 231 231
-6.425000000000001 9.275 0.0 109 170 31
-9.975000000000001 9.625 0.0 63 118 153
-8.725 9.575000000000001 0.0 58 109 144
-7.9750000000000005 9.625 0.0 57 107 141
-6.2250000000000005 12.875 0.0 233 234 234
-9.825000000000001 9.625 0.0 61 117 152
-6.025 11.725000000000001 0.0 232 232 232
-8.775 9.075000000000001 0.0 13 14 13
-8.625 9.125 0.0 12 13 12
-8.625 9.225 0.0 13 14 13
-6.325 8.975 0.0 72 121 24
-8.125 9.475 0.0 63 115 149
-10.075000000000001 9.175 0.0 141 167 182
-9.725000000000001 9.075000000000001 0.0 203 201 194
-9.525 9.375 0.0 112 146 167
-6.7250000000000005 15.875 0.0 232 232 232
-10.075000000000001 9.375 0.0 63 117 152
-9.825000000000001 9.475 0.0 65 119 153
-9.725000000000001 9.475 0.0 65 120 155
-7.275 9.925 0.0 74 127 160
-9.825000000000001 9.425 0.0 62 118 153
-9.675 9.475 0.0 65 120 154
-9.475 9.575000000000001 0.0 67 122 155
-7.125 10.025 0.0 75 125 156
-6.2250000000000005 9.575000000000001 0.0 237 238 230
-9.425 9.525 0.0 65 117 151
-5.775 8.975 0.0 241 242 240
-10.175 9.375 0.0 51 104 139
-7.125 9.575000000000001 0.0 77 129 127
-7.575 9.575000000000001 0.0 59 111 145
-6.125 12.975000000000001 0.0 232 232 232
-8.725 9.175 0.0 9 9 9
-8.575000000000001 9.325000000000001 0.0 8 9 8
-6.025 9.825000000000001 0.0 240 240 240
-7.675000000000001 9.725000000000001 0.0 53 104 138
-7.7250000000000005 9.625 0.0 68 121 154
-6.775 10.075000000000001 0.0 244 244 244
-5.925000000000001 11.225000000000001 0.0 237 237 236
-5.825 9.825000000000001 0.0 245 245 245
-10.975000000000001 9.425 0.0 59 114 148
-7.175000000000001 9.975000000000001 0.0 73 124 145
-6.125 9.825000000000001 0.0 240 240 240
-5.925000000000001 9.825000000000001 0.0 245 245 245
-6.325 9.725000000000001 0.0 242 242 242
-9.525 9.475 0.0 54 107 141
-5.875 9.225 0.0 241 241 240
-6.075 9.125 0.0 80 129 19
-7.2250000000000005 9.525 0.0 70 122 155
-10.425 8.975 0.0 8 9 8
-9.925 8.975 0.0 38 38 38
-7.025 9.375 0.0 68 121 156
-6.925000000000001 9.675 0.0 55 102 136
-6.875 9.625 0.0 52 100 134
-10.925 9.225 0.0 139 162 176
-9.725000000000001 9.175 0.0 90 85 75
-9.225 9.125 0.0 222 220 212
-7.825 9.675 0.0 50 100 135
-7.675000000000001 9.775 0.0 52 102 136
-12.875 8.875 0.0 46 97 131
-11.325000000000001 9.275 0.0 46 97 132
-9.675 9.125 0.0 104 99 89
-9.175 9.225 0.0 113 112 107
-7.825 9.725000000000001 0.0 48 98 133
-7.425000000000001 9.825000000000001 0.0 48 97 132
-11.375 9.175 0.0 46 95 130
-11.425 9.325000000000001 0.0 48 96 131
-9.525 9.325000000000001 0.0 42 75 97
-9.125 9.325000000000001 0.0 47 96 130
-12.775 9.175 0.0 47 98 133
-11.275 9.425 0.0 46 96 130
-10.025 9.325000000000001 0.0 49 99 134
-6.7250000000000005 9.625 0.0 165 185 198
-9.575000000000001 9.425 0.0 49 98 133
-8.675 9.775 0.0 49 100 134
-7.925000000000001 9.675 0.0 47 96 130
-7.525 9.825000000000001 0.0 55 105 139
-7.4750000000000005 9.875 0.0 54 103 136
-9.475 9.525 0.0 47 94 127
-5.875 9.275 0.0 240 240 240
-6.075 9.475 0.0 240 241 240
-6.125 9.725000000000001 0.0 242 242 242
-7.575 9.525 0.0 56 104 110
-5.925000000000001 9.025 0.0 61 111 6
-7.7250000000000005 9.525 0.0 51 99 133
-8.475 9.375 0.0 6 7 7
-8.075000000000001 9.375 0.0 50 99 133
-6.825 9.625 0.0 145 171 188
-6.875 9.725000000000001 0.0 50 97 131
-6.9750000000000005 9.675 0.0 147 171 188
-8.975 9.775 0.0 49 101 136
-9.175 9.275 0.0 48 100 137
-10.925 9.375 0.0 47 98 132
-8.975 9.675 0.0 49 100 134
-12.275 9.175 0.0 48 100 134
-7.7250000000000005 9.675 0.0 50 101 136
-9.425 9.325000000000001 0.0 48 98 133
-8.775 9.875 0.0 51 102 136
-12.125 9.225 0.0 47 101 135
-12.025 9.325000000000001 0.0 48 100 136
-9.225 9.575000000000001 0.0 49 100 134
-8.825000000000001 9.675 0.0 50 101 135
-8.725 9.725000000000001 0.0 51 102 137
-7.925000000000001 9.475 0.0 51 102 136
-7.425000000000001 9.625 0.0 50 100 134
-5.775 9.025 0.0 213 225 181
-8.975 9.625 0.0 50 101 135
-10.225000000000001 9.125 0.0 21 22 21
-6.2250000000000005 9.725000000000001 0.0 239 240 239
-7.775 9.625 0.0 50 100 135
-6.4750000000000005 9.425 0.0 66 116 150
-6.575 9.025 0.0 49 99 134
-8.925 9.675 0.0 51 101 135
-9.025 9.725000000000001 0.0 49 100 135
-10.075000000000001 9.125 0.0 220 217 209
-8.925 9.525 0.0 49 103 137
-10.525 9.225 0.0 80 77 78
-12.875 9.025 0.0 45 96 130
-12.625 9.125 0.0 45 97 131
-9.075000000000001 9.625 0.0 49 100 134
-10.575000000000001 9.175 0.0 137 163 176
-7.925000000000001 9.575000000000001 0.0 52 102 137
-8.025 9.425 0.0 52 101 136
-5.925000000000001 9.125 0.0 131 177 49
-7.125 9.475 0.0 50 101 134
-5.9750000000000005 9.075000000000001 0.0 239 239 239
-8.225 9.225 0.0 29 53 70
-5.925000000000001 11.725000000000001 0.0 242 242 242
-10.175 9.175 0.0 192 189 179
-8.325000000000001 9.525 0.0 45 93 127
-12.675 8.975 0.0 44 90 124
-12.525 9.175 0.0 43 91 125
-8.975 9.175 0.0 42 84 114
-8.375 9.575000000000001 0.0 45 95 130
-13.875 8.925 0.0 239 239 239
-11.475000000000001 9.125 0.0 44 92 126
-6.125 12.825000000000001 0.0 42 42 42
-11.375 9.075000000000001 0.0 44 92 126
-11.275 9.175 0.0 43 93 128
-11.075000000000001 9.275 0.0 45 94 128
-10.075000000000001 9.325000000000001 0.0 45 95 128
-6.375 8.825000000000001 0.0 82 138 47
-12.225000000000001 9.275 0.0 45 93 127
-5.875 9.125 0.0 230 235 220
-12.175 9.225 0.0 43 92 126
-11.775 9.325000000000001 0.0 43 91 125
-5.925000000000001 11.475000000000001 0.0 243 243 243
-6.075 12.725000000000001 0.0 241 242 241
-10.625 9.025 0.0 5 6 5
-8.475 9.575000000000001 0.0 44 95 130
-10.525 8.725 0.0 5 6 5
-9.575000000000001 9.075000000000001 0.0 10 10 10
-8.525 9.275 0.0 4 4 4
-8.275 9.675 0.0 46 95 129
-6.425000000000001 9.725000000000001 0.0 238 238 238
-6.9750000000000005 9.625 0.0 148 174 191
-9.425 9.175 0.0 139 164 177
-7.025 9.325000000000001 0.0 73 124 102
-6.125 9.225 0.0 162 190 105
-7.7250000000000005 9.475 0.0 53 105 139
-7.775 9.325000000000001 0.0 55 107 142
-7.525 9.525 0.0 54 105 140
-10.525 9.075000000000001 0.0 6 7 6
-8.175 9.525 0.0 52 103 137
-9.325000000000001 9.225 0.0 50 100 134
-8.625 9.475 0.0 50 101 136
-8.925 9.475 0.0 52 101 135
-13.025 9.075000000000001 0.0 47 98 132
-12.975000000000001 9.225 0.0 48 97 131
-5.825 9.125 0.0 241 241 241
-9.075000000000001 9.125 0.0 50 104 139
-10.625 9.075000000000001 0.0 211 208 199
-7.925000000000001 9.525 0.0 53 104 138
-11.975000000000001 9.375 0.0 48 98 133
-7.9750000000000005 9.325000000000001 0.0 54 102 136
-7.925000000000001 9.425 0.0 54 103 137
-6.625 9.475 0.0 241 241 241
-13.425 9.025 0.0 49 102 138
-10.025 9.475 0.0 50 102 138
-12.775 8.925 0.0 48 100 134
-10.825000000000001 8.875 0.0 5 6 5
-8.775 9.225 0.0 4 4 4
-8.475 9.325000000000001 0.0 49 99 133
-8.025 9.475 0.0 53 105 139
-7.9750000000000005 9.525 0.0 54 104 138
-7.575 9.925 0.0 57 107 140
-7.525 9.975000000000001 0.0 58 106 138
-8.775 9.325000000000001 0.0 50 104 139
-10.725000000000001 9.225 0.0 48 98 133
-8.875 9.725000000000001 0.0 51 104 140
-8.825000000000001 9.775 0.0 54 103 137
-7.925000000000001 9.325000000000001 0.0 54 104 138
-8.825000000000001 9.525 0.0 52 102 135
-7.325 9.525 0.0 55 106 140
