ply
format ascii 1.0
element vertex 659
property float x
property float y
property float z
property uchar red
property uchar green
property uchar blue
end_header
6.125 -3.075 0.0 168 170 171
5.075 -2.725 0.0 194 195 195
4.9750000000000005 -2.725 0.0 194 195 195
4.925000000000001 0.5750000000000001 0.0 234 234 234
5.9750000000000005 -3.075 0.0 192 192 193
4.925000000000001 0.375 0.0 189 189 189
5.025 0.775 0.0 127 127 127
4.825 0.42500000000000004 0.0 237 237 237
4.775 0.47500000000000003 0.0 228 229 229
4.825 0.325 0.0 215 215 215
5.9750000000000005 -2.825 0.0 43 43 43
5.925000000000001 -3.075 0.0 173 175 177
4.9750000000000005 -2.7750000000000004 0.0 198 198 198
4.7250000000000005 0.42500000000000004 0.0 210 211 210
4.875 0.375 0.0 239 239 238
4.925000000000001 -2.7750000000000004 0.0 191 192 192
4.825 0.5750000000000001 0.0 189 189 189
4.875 0.325 0.0 239 239 239
4.875 0.5750000000000001 0.0 234 234 234
0.07500000000000001 0.025 0.0 14 14 14
0.07500000000000001 -0.025 0.0 4 5 5
0.07500000000000001 -0.07500000000000001 0.0 5 5 5
5.075 -2.7750000000000004 0.0 201 201 201
5.125 0.775 0.0 221 221 221
6.125 -3.0250000000000004 0.0 196 197 196
5.175000000000001 0.775 0.0 215 215 215
6.025 -2.875 0.0 91 91 91
4.825 0.7250000000000001 0.0 202 202 202
4.925000000000001 0.125 0.0 245 246 245
5.9750000000000005 -3.0250000000000004 0.0 198 199 198
4.9750000000000005 -0.125 0.0 245 246 245
4.9750000000000005 -0.17500000000000002 0.0 246 246 245
4.925000000000001 -0.125 0.0 245 246 245
4.925000000000001 -0.17500000000000002 0.0 245 245 245
4.875 0.17500000000000002 0.0 246 246 246
4.875 -0.07500000000000001 0.0 246 246 246
4.875 0.47500000000000003 0.0 246 247 246
4.075 0.42500000000000004 0.0 246 246 246
6.175000000000001 -3.0250000000000004 0.0 199 200 199
4.075 0.5750000000000001 0.0 247 247 247
5.025 0.42500000000000004 0.0 245 245 245
5.025 0.525 0.0 246 246 246
5.925000000000001 -2.825 0.0 49 49 48
6.025 -2.975 0.0 200 200 200
5.025 0.325 0.0 245 245 245
4.9750000000000005 0.025 0.0 246 246 246
4.9750000000000005 0.225 0.0 246 246 246
4.9750000000000005 0.125 0.0 245 246 245
4.9750000000000005 0.625 0.0 246 246 246
4.925000000000001 0.17500000000000002 0.0 245 246 245
5.925000000000001 -2.975 0.0 199 199 199
4.925000000000001 0.325 0.0 245 245 245
5.875 -3.0250000000000004 0.0 200 201 200
5.875 -3.125 0.0 200 201 200
4.9750000000000005 0.7250000000000001 0.0 246 246 246
4.925000000000001 -2.6750000000000003 0.0 201 202 201
4.925000000000001 -0.025 0.0 245 245 245
5.875 -2.975 0.0 200 200 200
4.875 -2.6750000000000003 0.0 197 198 197
4.875 0.125 0.0 246 246 246
4.925000000000001 0.775 0.0 192 192 192
4.825 0.125 0.0 246 246 246
5.875 -2.7750000000000004 0.0 49 49 48
5.925000000000001 -2.9250000000000003 0.0 197 198 197
4.925000000000001 -2.875 0.0 245 245 245
5.925000000000001 -3.0250000000000004 0.0 198 199 199
5.875 -2.875 0.0 197 197 197
5.925000000000001 -2.6750000000000003 0.0 11 9 9
4.7250000000000005 0.525 0.0 245 245 245
4.675 0.47500000000000003 0.0 245 245 245
4.7250000000000005 0.275 0.0 246 246 246
5.825 -2.975 0.0 200 200 200
4.7250000000000005 0.625 0.0 247 247 247
4.875 -0.225 0.0 200 200 202
5.775 -3.0250000000000004 0.0 201 202 201
4.7250000000000005 0.025 0.0 245 245 245
5.025 -2.875 0.0 203 203 203
5.075 0.47500000000000003 0.0 246 246 246
6.025 -2.725 0.0 11 9 9
4.875 0.675 0.0 246 246 246
5.675000000000001 -2.725 0.0 202 202 202
5.825 -2.825 0.0 198 198 198
5.775 -2.725 0.0 53 51 50
4.775 -0.07500000000000001 0.0 245 245 245
4.775 0.025 0.0 246 246 246
6.075 -2.7750000000000004 0.0 108 107 106
5.025 -0.025 0.0 245 246 245
4.925000000000001 0.675 0.0 246 246 246
4.925000000000001 0.525 0.0 247 247 247
4.875 -0.025 0.0 245 246 245
4.875 0.025 0.0 246 246 246
4.825 0.675 0.0 246 246 246
4.925000000000001 0.025 0.0 246 246 246
4.7250000000000005 -0.025 0.0 246 246 246
4.825 -0.025 0.0 246 246 246
4.825 0.225 0.0 246 247 247
4.4750000000000005 0.625 0.0 246 246 246
4.9750000000000005 0.675 0.0 247 247 247
5.625 -2.725 0.0 238 238 238
6.4750000000000005 -2.975 0.0 40 41 40
4.125 -4.625 0.0 167 158 89
5.575 -2.7750000000000004 0.0 237 237 237
5.7250000000000005 -6.575 0.0 238 238 238
5.375 -2.975 0.0 237 237 237
5.275 -3.0250000000000004 0.0 243 243 243
5.525 -6.525 0.0 244 245 244
2.875 -4.875 0.0 102 85 44
2.875 -4.9750000000000005 0.0 8 7 4
2.825 -4.875 0.0 12 12 12
2.725 -4.925000000000001 0.0 16 16 16
2.725 -5.025 0.0 77 77 77
2.7750000000000004 -5.2250000000000005 0.0 11 11 11
2.575 -5.025 0.0 66 66 66
2.7750000000000004 -4.775 0.0 102 96 76
5.2250000000000005 -3.0250000000000004 0.0 236 236 236
5.375 -2.725 0.0 244 244 244
6.425000000000001 -3.075 0.0 233 233 233
2.725 -4.775 0.0 68 68 68
6.575 -6.625 0.0 244 245 244
5.675000000000001 -6.525 0.0 245 245 245
5.575 -6.675000000000001 0.0 226 226 226
5.625 -6.875 0.0 226 227 226
5.625 -6.775 0.0 205 205 205
5.525 -6.625 0.0 225 225 225
4.625 -6.275 0.0 203 41 36
3.9250000000000003 -4.4750000000000005 0.0 147 53 41
2.975 -4.875 0.0 33 26 26
2.625 -5.125 0.0 44 44 44
2.475 -5.025 0.0 65 65 65
2.275 -5.025 0.0 58 59 58
2.1750000000000003 -4.925000000000001 0.0 47 47 47
5.875 -6.525 0.0 245 245 245
5.775 -6.575 0.0 246 246 246
6.175000000000001 -7.525 0.0 200 200 200
5.825 -7.2250000000000005 0.0 199 200 200
5.925000000000001 -7.275 0.0 197 198 198
5.775 -7.275 0.0 198 198 198
5.9750000000000005 -6.925000000000001 0.0 214 215 214
-0.5750000000000001 -7.9750000000000005 0.0 43 44 43
2.725 -5.2250000000000005 0.0 99 99 99
3.225 -4.925000000000001 0.0 60 60 59
2.5250000000000004 -5.075 0.0 72 73 73
2.4250000000000003 -5.075 0.0 77 76 76
1.725 -5.175000000000001 0.0 96 97 96
1.725 -5.325 0.0 108 108 108
0.875 -5.375 0.0 135 135 134
0.8250000000000001 -5.425000000000001 0.0 130 131 130
0.5750000000000001 -5.525 0.0 146 146 146
5.075 -8.575000000000001 0.0 116 152 177
0.375 -5.675000000000001 0.0 153 153 153
1.425 -5.375 0.0 151 152 151
1.3250000000000002 -5.275 0.0 105 105 105
2.125 -5.125 0.0 199 199 199
1.675 -5.025 0.0 133 133 133
5.675000000000001 -6.675000000000001 0.0 185 184 185
-0.7250000000000001 -7.9750000000000005 0.0 0 0 0
5.625 -7.125 0.0 187 187 186
5.425000000000001 -6.4750000000000005 0.0 190 191 191
1.225 -5.525 0.0 168 168 168
1.175 -5.575 0.0 169 169 168
0.9750000000000001 -5.4750000000000005 0.0 158 158 158
0.875 -5.425000000000001 0.0 163 163 163
2.825 -4.925000000000001 0.0 1 1 1
2.225 -5.175000000000001 0.0 96 96 96
1.875 -5.375 0.0 149 149 149
2.225 -5.075 0.0 121 122 121
2.9250000000000003 -4.925000000000001 0.0 104 57 57
5.025 -9.125 0.0 52 88 23
-0.42500000000000004 -7.875 0.0 14 15 14
-0.525 -7.9750000000000005 0.0 101 102 102
1.875 -5.4750000000000005 0.0 112 111 112
0.8250000000000001 -5.325 0.0 152 152 152
0.775 -5.375 0.0 149 149 149
1.3250000000000002 -5.175000000000001 0.0 115 115 115
1.225 -5.075 0.0 134 134 133
-0.525 -9.875 0.0 137 171 90
-0.47500000000000003 -9.775 0.0 131 161 181
-0.625 -8.125 0.0 4 4 4
-0.525 -7.925000000000001 0.0 133 133 133
-0.675 -8.025 0.0 0 0 0
-0.8250000000000001 -7.925000000000001 0.0 138 138 138
0.7250000000000001 -5.275 0.0 158 158 157
0.675 -5.2250000000000005 0.0 159 159 159
0.5750000000000001 -5.275 0.0 156 156 155
1.7750000000000001 -5.175000000000001 0.0 107 107 107
1.5250000000000001 -5.125 0.0 151 151 151
1.2750000000000001 -5.175000000000001 0.0 150 151 150
0.775 -5.125 0.0 113 113 113
5.075 -9.225 0.0 116 154 162
5.375 -9.275 0.0 107 146 158
4.925000000000001 -9.125 0.0 77 124 30
5.025 -9.225 0.0 120 157 177
-0.525 -8.075000000000001 0.0 115 116 115
-0.5750000000000001 -7.875 0.0 37 37 37
-0.875 -8.125 0.0 128 128 128
1.375 -5.275 0.0 93 92 93
1.3250000000000002 -5.375 0.0 92 92 92
2.625 -5.2250000000000005 0.0 105 105 105
2.475 -5.075 0.0 86 86 86
2.225 -5.275 0.0 201 202 201
1.2750000000000001 -5.125 0.0 126 126 126
1.225 -5.275 0.0 141 141 141
1.175 -5.2250000000000005 0.0 144 144 144
0.775 -5.2250000000000005 0.0 148 149 148
0.7250000000000001 -5.175000000000001 0.0 143 144 143
0.525 -5.2250000000000005 0.0 155 155 155
2.5250000000000004 -5.025 0.0 66 66 66
1.7750000000000001 -5.075 0.0 114 114 114
-1.2750000000000001 -10.875 0.0 139 166 185
-0.5750000000000001 -10.825000000000001 0.0 141 169 187
-0.775 -10.775 0.0 143 169 188
-0.875 -10.775 0.0 141 168 186
-0.925 -10.725000000000001 0.0 143 170 189
-1.125 -10.775 0.0 134 164 183
-0.675 -10.775 0.0 139 167 186
-0.775 -10.725000000000001 0.0 140 167 186
-0.9750000000000001 -10.775 0.0 139 167 185
-1.075 -10.925 0.0 139 167 186
-1.175 -10.825000000000001 0.0 140 167 186
-1.375 -10.925 0.0 138 166 186
-0.675 -10.725000000000001 0.0 142 168 187
-1.075 -10.825000000000001 0.0 138 166 185
-0.47500000000000003 -10.725000000000001 0.0 139 166 185
-0.5750000000000001 -10.725000000000001 0.0 139 167 186
-0.325 -10.675 0.0 150 175 191
-0.42500000000000004 -10.625 0.0 142 170 169
-0.225 -10.575000000000001 0.0 146 172 189
-0.325 -10.625 0.0 147 173 190
0.5750000000000001 -10.275 0.0 150 174 191
-0.125 -10.525 0.0 145 171 189
-0.525 -10.575000000000001 0.0 139 167 186
-0.625 -10.575000000000001 0.0 145 171 189
-0.325 -10.475000000000001 0.0 156 182 175
-0.625 -10.525 0.0 134 164 162
-0.7250000000000001 -10.525 0.0 147 171 189
-0.8250000000000001 -10.625 0.0 139 165 185
-0.025 -10.475000000000001 0.0 137 165 185
-0.5750000000000001 -10.025 0.0 112 150 50
-0.225 -10.425 0.0 130 162 162
-0.5750000000000001 -10.075000000000001 0.0 105 142 115
-0.225 -10.475000000000001 0.0 138 167 169
-0.525 -10.375 0.0 134 166 164
-0.5750000000000001 -9.925 0.0 95 136 79
-0.7250000000000001 -10.275 0.0 134 163 184
-0.42500000000000004 -10.375 0.0 90 129 40
-0.625 -10.225000000000001 0.0 71 111 37
-0.525 -10.125 0.0 106 144 102
-0.625 -10.325000000000001 0.0 143 170 188
-0.375 -9.875 0.0 4 4 4
4.825 -6.9750000000000005 0.0 61 61 61
2.275 -5.275 0.0 1 1 1
1.5250000000000001 -5.275 0.0 114 114 114
1.2750000000000001 -5.325 0.0 154 154 154
1.075 -5.275 0.0 130 130 130
0.9750000000000001 -5.275 0.0 155 155 154
0.925 -5.275 0.0 156 155 156
0.7250000000000001 -5.375 0.0 156 156 156
0.675 -5.325 0.0 146 146 146
0.625 -5.375 0.0 162 162 161
0.525 -5.375 0.0 144 144 144
2.7750000000000004 -5.075 0.0 67 67 67
1.475 -5.175000000000001 0.0 123 123 123
0.325 -5.2250000000000005 0.0 107 107 107
4.425 -9.925 0.0 245 245 245
4.575 -9.975000000000001 0.0 246 246 246
4.325 -9.925 0.0 246 246 246
3.325 -9.975000000000001 0.0 11 11 11
0.9750000000000001 -10.175 0.0 146 171 189
3.4250000000000003 -9.925 0.0 224 225 224
3.2750000000000004 -9.775 0.0 12 12 12
4.575 -9.925 0.0 236 239 241
3.475 -9.975000000000001 0.0 246 246 246
4.4750000000000005 -9.925 0.0 246 246 246
4.4750000000000005 -9.825000000000001 0.0 246 246 246
5.275 -9.325000000000001 0.0 109 167 13
5.175000000000001 -9.725000000000001 0.0 115 153 161
4.875 -9.525 0.0 91 136 56
-0.42500000000000004 -10.025 0.0 97 155 11
5.175000000000001 -9.175 0.0 125 169 65
5.125 -9.375 0.0 129 180 44
4.825 -9.475 0.0 126 160 182
-0.525 -10.025 0.0 95 145 51
5.425000000000001 -9.375 0.0 109 150 176
5.075 -9.325000000000001 0.0 99 134 93
-0.8250000000000001 -7.9750000000000005 0.0 127 127 127
0.625 -5.425000000000001 0.0 155 155 155
2.275 -5.125 0.0 103 103 103
1.7750000000000001 -5.275 0.0 112 112 112
1.375 -5.2250000000000005 0.0 144 145 145
-1.3250000000000002 -10.825000000000001 0.0 136 164 184
-1.425 -10.775 0.0 141 168 187
-1.5250000000000001 -10.925 0.0 138 167 186
-1.675 -10.725000000000001 0.0 246 246 246
-1.8250000000000002 -10.925 0.0 246 246 246
-1.925 -10.975000000000001 0.0 246 246 246
-0.375 -10.825000000000001 0.0 144 170 188
-0.9750000000000001 -10.725000000000001 0.0 144 171 189
-1.5250000000000001 -10.725000000000001 0.0 133 163 183
0.5750000000000001 -10.625 0.0 149 174 191
0.47500000000000003 -10.675 0.0 149 173 190
0.375 -10.525 0.0 146 171 188
0.225 -10.625 0.0 147 172 190
-0.17500000000000002 -10.725000000000001 0.0 148 172 190
-0.275 -10.825000000000001 0.0 143 168 186
-1.175 -10.875 0.0 137 165 184
-1.375 -10.975000000000001 0.0 142 170 188
-1.625 -10.825000000000001 0.0 165 166 165
1.2750000000000001 -10.275 0.0 246 246 246
1.175 -10.425 0.0 247 247 247
1.075 -10.325000000000001 0.0 246 246 246
0.9750000000000001 -10.475000000000001 0.0 144 170 188
0.5750000000000001 -10.475000000000001 0.0 152 177 193
0.47500000000000003 -10.575000000000001 0.0 148 173 190
0.275 -10.675 0.0 146 171 189
0.025 -10.725000000000001 0.0 144 170 188
-0.07500000000000001 -10.725000000000001 0.0 148 174 191
-0.275 -10.725000000000001 0.0 144 170 188
-0.47500000000000003 -10.825000000000001 0.0 141 168 187
-0.9750000000000001 -10.925 0.0 142 168 186
-1.175 -11.025 0.0 134 163 183
-1.475 -10.975000000000001 0.0 142 169 187
-1.925 -10.925 0.0 247 247 247
0.375 -10.625 0.0 145 170 188
0.275 -10.625 0.0 146 171 189
-1.625 -10.875 0.0 155 156 155
1.075 -10.225000000000001 0.0 247 247 247
0.675 -10.425 0.0 152 176 192
0.17500000000000002 -10.675 0.0 146 172 189
-0.025 -10.775 0.0 149 174 191
-0.125 -10.675 0.0 143 169 187
-0.375 -10.725000000000001 0.0 141 168 186
-0.525 -10.675 0.0 143 170 188
0.875 -10.325000000000001 0.0 154 176 193
0.07500000000000001 -10.675 0.0 148 173 190
-0.42500000000000004 -10.675 0.0 139 166 185
-0.7250000000000001 -10.775 0.0 147 173 190
0.07500000000000001 -10.625 0.0 148 173 190
-0.025 -10.675 0.0 150 174 192
-0.125 -10.625 0.0 146 172 189
-0.875 -10.875 0.0 147 173 190
0.9750000000000001 -10.275 0.0 143 170 189
-0.7250000000000001 -10.675 0.0 151 175 192
1.125 -10.325000000000001 0.0 246 246 246
0.675 -10.525 0.0 154 177 193
-1.675 -10.625 0.0 247 247 247
-0.025 -10.575000000000001 0.0 142 169 187
-0.8250000000000001 -10.875 0.0 145 172 190
-1.375 -11.075000000000001 0.0 137 165 185
-0.9750000000000001 -10.975000000000001 0.0 136 164 184
-1.075 -10.975000000000001 0.0 148 174 191
-1.875 -10.825000000000001 0.0 246 246 246
-0.125 -10.325000000000001 0.0 131 161 160
-0.675 -10.075000000000001 0.0 144 171 181
-1.725 -10.825000000000001 0.0 246 246 246
-1.7750000000000001 -10.675 0.0 246 246 246
1.125 -10.225000000000001 0.0 247 247 247
-0.325 -10.375 0.0 133 169 144
-0.675 -10.175 0.0 100 143 41
-1.7750000000000001 -10.775 0.0 247 247 247
-0.375 -10.225000000000001 0.0 119 163 96
-0.47500000000000003 -10.325000000000001 0.0 139 167 185
5.175000000000001 -9.075000000000001 0.0 107 165 11
-1.3250000000000002 -10.975000000000001 0.0 131 162 183
0.325 -10.525 0.0 142 168 186
0.225 -10.525 0.0 137 165 185
1.0250000000000001 -10.225000000000001 0.0 247 247 247
0.42500000000000004 -10.375 0.0 142 169 188
-0.47500000000000003 -9.425 0.0 5 5 5
5.175000000000001 -8.475 0.0 2 2 2
0.375 -5.325 0.0 144 145 145
0.325 -5.325 0.0 14 14 14
1.625 -5.275 0.0 120 120 120
1.5750000000000002 -5.2250000000000005 0.0 105 105 105
4.675 -10.025 0.0 119 154 177
4.2250000000000005 -9.925 0.0 246 246 246
4.025 -9.975000000000001 0.0 246 246 246
3.9250000000000003 -10.025 0.0 246 245 246
3.725 -10.025 0.0 246 247 246
3.325 -10.125 0.0 125 125 125
3.2750000000000004 -10.225000000000001 0.0 247 247 247
3.1750000000000003 -10.275 0.0 246 246 246
3.0250000000000004 -10.275 0.0 170 170 170
2.9250000000000003 -10.275 0.0 246 246 246
1.2750000000000001 -10.575000000000001 0.0 245 245 245
1.0250000000000001 -10.375 0.0 246 246 246
0.525 -10.475000000000001 0.0 149 174 190
-1.075 -10.725000000000001 0.0 143 169 188
4.875 -10.175 0.0 125 157 179
4.7250000000000005 -10.075000000000001 0.0 126 159 181
4.025 -9.925 0.0 246 246 246
3.825 -10.075000000000001 0.0 247 247 247
3.5250000000000004 -10.125 0.0 246 246 246
3.2750000000000004 -10.275 0.0 246 246 246
3.075 -10.275 0.0 170 170 170
2.475 -10.475000000000001 0.0 246 246 246
0.625 -10.425 0.0 152 176 192
-1.5250000000000001 -10.775 0.0 140 168 187
5.075 -10.225000000000001 0.0 126 158 180
4.7250000000000005 -10.025 0.0 117 152 176
4.075 -10.075000000000001 0.0 246 246 246
3.825 -10.025 0.0 246 246 246
3.6750000000000003 -10.125 0.0 247 247 247
3.575 -10.125 0.0 247 247 247
3.375 -9.975000000000001 0.0 4 4 4
3.125 -10.175 0.0 66 66 66
2.5250000000000004 -9.975000000000001 0.0 40 40 40
2.4250000000000003 -10.275 0.0 137 137 137
2.375 -10.475000000000001 0.0 160 160 160
0.8250000000000001 -10.575000000000001 0.0 142 168 186
4.875 -10.125 0.0 124 158 180
4.175 -10.025 0.0 246 246 246
3.125 -10.125 0.0 13 13 13
3.0250000000000004 -10.075000000000001 0.0 10 10 10
0.925 -10.525 0.0 144 170 188
0.7250000000000001 -10.525 0.0 148 173 190
4.125 -9.925 0.0 247 247 247
4.075 -10.025 0.0 246 246 246
3.225 -10.075000000000001 0.0 66 66 66
3.1750000000000003 -10.225000000000001 0.0 12 12 12
2.225 -10.425 0.0 53 53 53
1.075 -10.575000000000001 0.0 248 248 247
0.7250000000000001 -10.375 0.0 144 169 187
4.025 -10.075000000000001 0.0 246 246 246
3.875 -10.125 0.0 246 246 246
3.825 -10.175 0.0 246 246 246
3.725 -10.225000000000001 0.0 246 246 246
4.425 -9.825000000000001 0.0 247 247 247
4.275 -9.975000000000001 0.0 246 246 246
3.625 -10.225000000000001 0.0 246 246 246
3.4250000000000003 -10.075000000000001 0.0 57 57 57
4.775 -10.025 0.0 118 154 177
4.375 -9.975000000000001 0.0 246 246 246
3.875 -10.225000000000001 0.0 247 247 247
3.625 -10.175 0.0 246 247 246
-0.42500000000000004 -10.475000000000001 0.0 143 170 187
-0.675 -10.675 0.0 144 170 188
5.625 -9.825000000000001 0.0 117 155 178
5.075 -10.125 0.0 121 156 179
4.2250000000000005 -10.025 0.0 246 246 246
3.225 -10.025 0.0 50 50 50
2.575 -10.375 0.0 11 11 11
-0.675 -10.625 0.0 149 174 191
5.425000000000001 -9.475 0.0 138 173 159
4.875 -10.025 0.0 122 157 180
3.875 -10.175 0.0 246 246 246
3.075 -10.225000000000001 0.0 246 246 246
2.975 -10.275 0.0 247 247 247
0.8250000000000001 -10.475000000000001 0.0 138 165 183
-0.675 -10.525 0.0 141 177 121
-1.625 -10.675 0.0 247 247 247
5.025 -8.825000000000001 0.0 115 168 37
5.2250000000000005 -9.325000000000001 0.0 100 158 12
4.825 -9.525 0.0 110 149 148
4.925000000000001 -10.075000000000001 0.0 121 156 179
3.325 -10.175 0.0 186 186 186
-0.325 -10.175 0.0 128 161 183
4.9750000000000005 -9.525 0.0 129 163 185
4.825 -10.075000000000001 0.0 124 158 180
4.4750000000000005 -9.975000000000001 0.0 246 246 246
4.275 -10.075000000000001 0.0 246 246 246
4.175 -10.125 0.0 246 246 246
-0.325 -10.325000000000001 0.0 143 173 166
-0.775 -10.375 0.0 134 165 184
-0.47500000000000003 -10.475000000000001 0.0 43 75 14
4.9750000000000005 -9.325000000000001 0.0 110 150 176
-0.125 -10.425 0.0 134 161 181
5.125 -9.925 0.0 114 150 174
0.275 -10.325000000000001 0.0 136 166 185
0.07500000000000001 -10.425 0.0 131 160 181
-0.5750000000000001 -9.425 0.0 7 7 7
1.475 -5.425000000000001 0.0 4 4 4
0.225 -10.725000000000001 0.0 149 174 190
0.125 -10.725000000000001 0.0 149 174 191
0.025 -10.825000000000001 0.0 150 173 191
-0.225 -10.825000000000001 0.0 147 171 188
-1.3250000000000002 -10.925 0.0 136 165 185
1.3250000000000002 -10.525 0.0 246 246 246
0.125 -10.775 0.0 148 173 190
-0.07500000000000001 -10.825000000000001 0.0 147 173 190
-0.775 -10.675 0.0 142 169 188
2.5250000000000004 -10.475000000000001 0.0 247 247 247
2.225 -10.325000000000001 0.0 247 247 247
2.125 -10.375 0.0 246 246 246
1.425 -10.525 0.0 246 246 246
0.525 -10.725000000000001 0.0 155 179 195
-0.07500000000000001 -10.875 0.0 144 169 187
-0.625 -10.675 0.0 136 164 184
3.625 -10.025 0.0 246 246 246
2.975 -10.225000000000001 0.0 247 247 247
2.575 -10.325000000000001 0.0 247 247 247
2.475 -10.425 0.0 246 246 246
2.375 -10.375 0.0 153 153 153
1.225 -10.475000000000001 0.0 247 247 247
0.42500000000000004 -10.675 0.0 155 178 194
-0.225 -10.675 0.0 145 171 188
2.725 -10.075000000000001 0.0 107 107 107
2.225 -10.175 0.0 6 6 6
2.7750000000000004 -10.225000000000001 0.0 125 125 125
1.925 -10.325000000000001 0.0 247 247 247
0.7250000000000001 -10.575000000000001 0.0 147 172 189
-0.025 -10.725000000000001 0.0 146 172 190
3.475 -9.925 0.0 247 247 247
2.275 -10.375 0.0 6 6 6
2.025 -10.175 0.0 246 246 246
0.375 -10.725000000000001 0.0 147 172 190
0.275 -10.725000000000001 0.0 148 173 190
3.0250000000000004 -10.175 0.0 125 125 125
2.9250000000000003 -10.225000000000001 0.0 166 166 166
2.275 -10.325000000000001 0.0 65 65 65
1.975 -10.325000000000001 0.0 246 246 246
1.875 -10.475000000000001 0.0 247 247 247
3.825 -9.925 0.0 246 246 246
2.825 -10.275 0.0 5 5 5
1.975 -10.425 0.0 247 247 247
-0.525 -10.225000000000001 0.0 126 158 180
2.725 -10.275 0.0 185 186 185
2.325 -10.125 0.0 38 37 38
1.7750000000000001 -10.575000000000001 0.0 246 246 246
-0.5750000000000001 -10.425 0.0 139 180 47
-0.875 -10.625 0.0 138 166 185
-1.2750000000000001 -11.025 0.0 135 164 184
2.575 -10.175 0.0 166 166 166
2.475 -10.225000000000001 0.0 246 246 246
2.325 -10.375 0.0 246 247 246
2.075 -10.325000000000001 0.0 246 246 246
1.7750000000000001 -10.525 0.0 246 246 246
0.5750000000000001 -10.675 0.0 149 173 190
-0.925 -10.675 0.0 130 160 181
1.675 -10.475000000000001 0.0 247 247 247
1.175 -10.325000000000001 0.0 246 246 246
0.875 -10.575000000000001 0.0 138 166 185
0.675 -10.625 0.0 149 173 190
-0.525 -10.175 0.0 82 117 88
4.875 -9.475 0.0 121 156 179
1.2750000000000001 -10.425 0.0 247 247 247
0.07500000000000001 -10.525 0.0 136 164 184
-0.42500000000000004 -9.825000000000001 0.0 5 5 5
-0.7250000000000001 -8.125 0.0 1 1 1
-0.8250000000000001 -8.125 0.0 166 166 166
-0.675 -8.075000000000001 0.0 1 1 1
0.375 -5.525 0.0 33 34 33
2.975 -10.175 0.0 125 125 125
2.6750000000000003 -10.225000000000001 0.0 247 247 247
1.075 -10.475000000000001 0.0 247 247 247
0.375 -10.775 0.0 148 173 191
-0.525 -10.875 0.0 145 171 188
-1.225 -10.725000000000001 0.0 140 168 187
-0.025 -10.925 0.0 150 174 191
-1.2750000000000001 -10.825000000000001 0.0 144 170 188
-1.675 -10.675 0.0 246 247 246
2.975 -10.075000000000001 0.0 5 5 5
2.825 -10.025 0.0 4 4 4
2.725 -10.025 0.0 4 4 4
2.125 -10.175 0.0 248 248 248
2.025 -10.225000000000001 0.0 247 247 247
1.075 -10.425 0.0 246 246 246
0.47500000000000003 -10.825000000000001 0.0 145 170 187
3.1750000000000003 -9.875 0.0 4 4 4
0.8250000000000001 -10.325000000000001 0.0 144 170 187
3.7750000000000004 -10.225000000000001 0.0 246 246 246
0.8250000000000001 -10.425 0.0 141 168 187
3.6750000000000003 -10.175 0.0 247 247 247
1.125 -10.425 0.0 246 246 246
3.1750000000000003 -9.775 0.0 4 4 4
2.875 -10.175 0.0 4 4 4
1.125 -10.475000000000001 0.0 247 247 247
-1.125 -10.875 0.0 135 164 184
0.525 -10.375 0.0 141 168 187
0.025 -10.525 0.0 142 169 188
-1.5750000000000002 -10.725000000000001 0.0 138 139 138
-1.625 -10.575000000000001 0.0 246 246 246
4.7250000000000005 -9.925 0.0 120 156 180
4.175 -9.925 0.0 246 246 246
3.375 -10.225000000000001 0.0 246 246 246
1.975 -10.525 0.0 248 248 248
4.925000000000001 -9.675 0.0 115 154 172
0.8250000000000001 -10.675 0.0 141 168 187
-0.42500000000000004 -10.325000000000001 0.0 54 100 10
5.275 -9.125 0.0 87 131 122
-0.325 -10.225000000000001 0.0 111 148 99
-0.42500000000000004 -10.175 0.0 137 166 181
-0.7250000000000001 -10.575000000000001 0.0 140 168 187
2.025 -10.575000000000001 0.0 246 246 246
0.7250000000000001 -10.675 0.0 143 169 187
-1.725 -10.875 0.0 247 247 247
1.0250000000000001 -10.125 0.0 190 204 214
5.325 -8.725 0.0 3 3 3
5.2250000000000005 -8.725 0.0 5 5 6
2.6750000000000003 -5.075 0.0 43 43 43
1.625 -5.075 0.0 75 75 75
0.025 -10.675 0.0 150 174 191
2.575 -10.525 0.0 246 247 246
0.875 -10.675 0.0 147 173 190
0.025 -10.875 0.0 149 174 191
-0.275 -10.875 0.0 146 172 190
3.475 -10.225000000000001 0.0 134 134 134
1.875 -10.425 0.0 246 246 246
2.325 -10.525 0.0 103 103 103
1.7750000000000001 -10.375 0.0 246 246 246
1.925 -10.175 0.0 247 247 247
0.875 -10.425 0.0 142 169 187
1.675 -10.425 0.0 246 246 246
1.375 -10.425 0.0 247 247 247
3.325 -9.925 0.0 247 247 247
2.9250000000000003 -10.125 0.0 126 126 126
1.175 -10.225000000000001 0.0 247 247 247
4.425 -10.125 0.0 247 247 247
3.375 -10.175 0.0 246 246 246
1.3250000000000002 -10.325000000000001 0.0 245 245 245
4.775 -10.175 0.0 118 153 176
3.825 -10.275 0.0 246 246 246
3.975 -10.175 0.0 246 246 246
-0.025 -10.325000000000001 0.0 134 164 184
3.6750000000000003 -10.275 0.0 247 247 247
-0.525 -8.675 0.0 0 0 0
0.675 -5.375 0.0 63 64 63
0.525 -5.325 0.0 147 146 147
0.225 -5.2250000000000005 0.0 4 4 4
1.475 -10.475000000000001 0.0 247 247 247
2.475 -10.275 0.0 246 247 246
1.5750000000000002 -10.475000000000001 0.0 247 247 247
2.625 -10.075000000000001 0.0 94 94 94
2.1750000000000003 -10.675 0.0 246 246 246
0.025 -10.625 0.0 144 171 189
1.7750000000000001 -10.325000000000001 0.0 246 247 246
1.625 -10.375 0.0 246 246 246
1.5250000000000001 -10.425 0.0 247 247 247
1.725 -10.325000000000001 0.0 247 247 247
1.625 -10.325000000000001 0.0 247 247 247
3.125 -10.025 0.0 246 246 246
-1.125 -10.725000000000001 0.0 133 163 184
3.0250000000000004 -10.225000000000001 0.0 246 247 246
-0.17500000000000002 -10.275 0.0 129 160 182
0.375 -5.425000000000001 0.0 125 125 124
0.275 -5.425000000000001 0.0 3 3 3
4.9750000000000005 -10.075000000000001 0.0 118 155 178
3.1750000000000003 -10.175 0.0 247 247 247
0.675 -10.725000000000001 0.0 149 173 190
0.5750000000000001 -10.725000000000001 0.0 153 176 193
2.5250000000000004 -10.425 0.0 5 5 5
0.675 -10.675 0.0 144 170 188
2.725 -10.375 0.0 13 13 13
3.0250000000000004 -10.025 0.0 4 4 4
5.325 -9.825000000000001 0.0 119 162 102
-0.625 -10.175 0.0 112 152 85
-1.2750000000000001 -11.075000000000001 0.0 129 160 182
-0.325 -10.125 0.0 132 162 183
1.075 -5.375 0.0 116 116 116
0.925 -10.775 0.0 139 165 183
0.07500000000000001 -10.925 0.0 148 172 190
0.925 -10.725000000000001 0.0 144 169 187
0.8250000000000001 -10.825000000000001 0.0 146 170 188
-1.625 -10.975000000000001 0.0 162 162 162
2.325 -10.675 0.0 27 27 27
-1.5750000000000002 -11.075000000000001 0.0 134 164 184
-0.9750000000000001 -10.675 0.0 141 168 186
-1.5250000000000001 -11.125 0.0 135 166 186
2.375 -10.225000000000001 0.0 247 247 247
-0.7250000000000001 -7.925000000000001 0.0 1 1 1
