ply
format ascii 1.0
element vertex 537
property float x
property float y
property float z
property uchar red
property uchar green
property uchar blue
end_header
4.4750000000000005 0.5750000000000001 0.0 1 1 1
4.625 0.5750000000000001 0.0 71 72 71
4.575 0.125 0.0 136 135 135
4.575 0.275 0.0 139 140 139
4.625 -0.225 0.0 136 137 136
4.575 0.42500000000000004 0.0 134 135 134
4.525 0.325 0.0 156 156 156
4.575 0.225 0.0 135 135 135
4.625 0.47500000000000003 0.0 134 135 134
4.525 0.42500000000000004 0.0 139 140 139
4.525 0.17500000000000002 0.0 136 136 136
4.925000000000001 -0.325 0.0 137 138 137
5.875 -3.1750000000000003 0.0 147 152 155
4.9750000000000005 -2.825 0.0 140 144 147
4.4750000000000005 0.125 0.0 136 136 136
4.4750000000000005 -0.125 0.0 137 138 137
5.925000000000001 -3.225 0.0 146 150 155
4.4750000000000005 -0.225 0.0 137 137 137
5.9750000000000005 -3.0250000000000004 0.0 1 1 1
4.9750000000000005 -2.875 0.0 143 146 149
4.775 0.625 0.0 1 1 1
4.925000000000001 -2.825 0.0 141 144 148
4.425 0.325 0.0 139 139 139
5.025 -0.125 0.0 134 135 134
4.2250000000000005 0.125 0.0 135 135 135
4.175 0.375 0.0 136 137 136
4.675 0.025 0.0 132 133 133
5.675000000000001 -3.0250000000000004 0.0 137 139 142
4.275 0.325 0.0 136 137 136
4.575 -0.07500000000000001 0.0 137 137 137
4.675 -0.025 0.0 136 137 136
5.175000000000001 0.7250000000000001 0.0 1 1 1
4.7250000000000005 0.47500000000000003 0.0 135 135 135
5.875 -2.975 0.0 1 1 1
4.675 0.225 0.0 135 135 135
5.175000000000001 -2.875 0.0 141 144 148
4.925000000000001 0.625 0.0 12 12 12
4.775 0.525 0.0 138 139 138
4.675 0.42500000000000004 0.0 135 135 135
4.625 -0.025 0.0 136 137 136
5.9750000000000005 -2.9250000000000003 0.0 14 14 16
4.675 -0.07500000000000001 0.0 136 135 136
6.075 -3.325 0.0 140 143 146
4.525 -0.025 0.0 137 138 137
4.675 -0.17500000000000002 0.0 139 140 139
5.9750000000000005 -2.975 0.0 2 2 2
4.7250000000000005 0.5750000000000001 0.0 140 141 140
4.875 0.625 0.0 1 1 1
4.675 0.525 0.0 136 136 136
6.025 -3.1750000000000003 0.0 136 139 142
4.7250000000000005 -0.17500000000000002 0.0 139 139 139
4.175 0.325 0.0 134 135 134
4.925000000000001 -0.07500000000000001 0.0 136 136 136
4.9750000000000005 -0.17500000000000002 0.0 133 133 133
4.925000000000001 -0.025 0.0 136 137 136
5.925000000000001 -2.975 0.0 2 2 2
5.075 -0.225 0.0 138 140 139
4.775 -0.07500000000000001 0.0 135 135 135
5.025 0.675 0.0 1 1 1
4.875 -0.275 0.0 136 136 136
5.9750000000000005 -3.325 0.0 142 145 149
4.525 -0.275 0.0 139 141 139
4.775 -0.325 0.0 134 135 135
4.775 0.275 0.0 136 137 136
4.825 0.225 0.0 134 135 134
4.775 0.125 0.0 133 133 133
4.7250000000000005 0.025 0.0 132 132 133
4.925000000000001 -2.875 0.0 142 144 147
4.925000000000001 0.675 0.0 1 1 1
5.925000000000001 -3.0250000000000004 0.0 1 1 1
4.575 0.025 0.0 136 137 136
5.875 -3.0250000000000004 0.0 142 143 144
4.875 -0.025 0.0 136 137 136
5.575 -3.125 0.0 144 147 150
4.775 -0.025 0.0 135 135 135
4.925000000000001 -0.17500000000000002 0.0 136 137 137
5.075 -2.875 0.0 142 144 146
4.9750000000000005 0.625 0.0 1 1 1
4.9750000000000005 -0.375 0.0 140 147 150
5.875 -2.875 0.0 18 19 22
4.375 0.375 0.0 161 161 161
4.7250000000000005 -0.07500000000000001 0.0 137 138 137
5.925000000000001 -3.075 0.0 86 87 88
5.775 -3.225 0.0 139 143 146
4.7250000000000005 -0.275 0.0 137 138 137
4.575 -0.275 0.0 139 141 139
5.825 -3.0250000000000004 0.0 1 1 1
4.525 0.025 0.0 134 136 135
5.875 -3.2750000000000004 0.0 142 145 149
4.875 -2.9250000000000003 0.0 142 144 147
4.825 -2.875 0.0 143 146 149
4.375 -0.17500000000000002 0.0 137 138 137
4.875 -2.7750000000000004 0.0 141 144 146
4.7250000000000005 0.125 0.0 134 133 134
5.7250000000000005 -3.075 0.0 143 145 150
4.9750000000000005 -0.325 0.0 140 140 140
4.875 0.525 0.0 134 134 134
5.825 -3.075 0.0 143 145 147
5.925000000000001 -2.9250000000000003 0.0 5 5 5
5.7250000000000005 -2.9250000000000003 0.0 1 1 1
4.7250000000000005 0.375 0.0 131 131 131
5.825 -2.975 0.0 1 1 1
4.875 -0.375 0.0 167 168 169
4.925000000000001 -0.375 0.0 72 75 80
5.925000000000001 -3.325 0.0 141 144 148
4.425 -0.025 0.0 134 135 134
4.825 3.0250000000000004 0.0 213 215 217
4.425 0.025 0.0 190 190 190
4.375 0.07500000000000001 0.0 134 135 134
4.175 0.47500000000000003 0.0 192 192 192
4.375 -0.125 0.0 135 136 135
4.425 0.47500000000000003 0.0 244 244 244
4.425 0.225 0.0 244 245 244
4.175 3.4250000000000003 0.0 246 246 246
4.125 3.4250000000000003 0.0 245 245 245
4.025 3.475 0.0 245 245 245
5.025 3.2750000000000004 0.0 85 81 82
5.075 3.375 0.0 37 37 35
5.125 3.2750000000000004 0.0 74 70 69
4.825 7.075 0.0 133 131 132
4.675 7.025 0.0 24 24 23
4.7250000000000005 6.925000000000001 0.0 117 115 115
4.425 6.525 0.0 176 187 139
4.525 4.075 0.0 236 236 236
4.525 4.025 0.0 236 236 236
4.775 7.175000000000001 0.0 242 242 242
4.7250000000000005 7.125 0.0 164 165 164
4.625 7.125 0.0 244 244 244
4.625 7.025 0.0 243 243 243
0.7250000000000001 5.325 0.0 214 96 75
-1.5250000000000001 9.575000000000001 0.0 197 208 185
-1.425 9.575000000000001 0.0 167 193 118
-6.075 9.025 0.0 80 128 12
0.375 10.525 0.0 147 171 189
-0.8250000000000001 10.325000000000001 0.0 132 159 177
-0.5750000000000001 10.375 0.0 122 147 163
-0.47500000000000003 10.375 0.0 129 156 174
-0.275 10.375 0.0 155 173 186
-0.025 10.375 0.0 131 152 166
0.275 10.525 0.0 145 171 188
0.5750000000000001 10.575000000000001 0.0 145 170 187
0.775 10.575000000000001 0.0 147 172 189
-0.7250000000000001 10.375 0.0 126 155 175
-0.375 10.375 0.0 136 156 169
-0.275 10.475000000000001 0.0 135 163 183
0.07500000000000001 10.475000000000001 0.0 180 197 208
0.47500000000000003 10.525 0.0 147 172 190
1.0250000000000001 10.725000000000001 0.0 217 218 219
-0.17500000000000002 10.475000000000001 0.0 139 167 186
-0.17500000000000002 10.375 0.0 131 161 181
-0.17500000000000002 10.575000000000001 0.0 140 167 186
0.47500000000000003 10.425 0.0 245 244 242
0.675 10.625 0.0 196 208 215
0.17500000000000002 10.475000000000001 0.0 146 172 189
1.075 10.625 0.0 145 172 190
-0.07500000000000001 10.475000000000001 0.0 139 166 186
-0.07500000000000001 10.425 0.0 134 164 183
0.47500000000000003 10.575000000000001 0.0 140 168 187
-1.675 9.625 0.0 116 147 85
0.5750000000000001 10.475000000000001 0.0 137 166 185
-1.475 9.725000000000001 0.0 246 246 246
0.225 10.325000000000001 0.0 113 127 135
0.625 5.325 0.0 174 158 103
-0.375 10.475000000000001 0.0 134 163 183
-1.125 10.425 0.0 129 160 181
-0.625 10.475000000000001 0.0 137 164 184
-2.025 10.525 0.0 245 245 245
-1.875 10.675 0.0 245 245 245
-1.225 10.475000000000001 0.0 208 212 214
-0.47500000000000003 10.525 0.0 131 161 181
-0.7250000000000001 10.475000000000001 0.0 137 166 185
-0.375 10.575000000000001 0.0 138 165 185
-1.875 10.575000000000001 0.0 245 246 245
-1.5250000000000001 10.525 0.0 245 246 245
-1.225 10.575000000000001 0.0 141 171 190
-1.725 10.575000000000001 0.0 246 246 246
-1.625 10.475000000000001 0.0 245 246 245
-1.3250000000000002 10.475000000000001 0.0 246 246 246
-1.225 10.675 0.0 140 169 187
-0.925 10.575000000000001 0.0 135 164 184
-0.7250000000000001 10.325000000000001 0.0 139 161 175
-0.675 10.575000000000001 0.0 143 170 189
-2.025 10.725000000000001 0.0 247 247 247
-1.725 10.525 0.0 246 246 246
-0.8250000000000001 10.525 0.0 134 163 183
-1.725 10.375 0.0 245 245 245
-1.5250000000000001 10.375 0.0 246 246 246
-0.675 10.475000000000001 0.0 122 148 166
-0.5750000000000001 10.575000000000001 0.0 139 167 185
-1.8250000000000002 10.325000000000001 0.0 246 246 246
-1.725 10.225000000000001 0.0 245 246 245
-1.425 10.325000000000001 0.0 246 246 246
-0.925 10.475000000000001 0.0 127 157 178
-0.675 10.425 0.0 129 160 180
-1.5750000000000002 9.925 0.0 180 196 155
-1.3250000000000002 10.325000000000001 0.0 246 246 246
-0.925 10.425 0.0 128 159 180
-0.8250000000000001 10.425 0.0 128 159 180
-1.475 9.925 0.0 245 245 243
-1.0250000000000001 10.525 0.0 136 164 183
-0.47500000000000003 10.575000000000001 0.0 138 167 186
-1.5250000000000001 9.825000000000001 0.0 244 245 244
-1.075 10.675 0.0 138 167 186
-1.625 9.625 0.0 246 246 246
-1.0250000000000001 10.375 0.0 127 158 179
-0.47500000000000003 10.325000000000001 0.0 143 158 168
-0.125 10.575000000000001 0.0 150 165 175
-1.725 9.675 0.0 136 153 119
-1.625 9.725000000000001 0.0 181 195 160
-1.5750000000000002 9.825000000000001 0.0 239 241 237
-0.925 10.225000000000001 0.0 153 166 175
-0.675 10.325000000000001 0.0 110 132 146
-0.47500000000000003 10.225000000000001 0.0 138 138 138
-1.425 10.375 0.0 245 246 245
-1.375 10.525 0.0 245 245 245
-1.2750000000000001 10.425 0.0 245 245 245
-1.675 9.825000000000001 0.0 224 223 223
-0.025 10.475000000000001 0.0 119 145 162
0.375 10.575000000000001 0.0 142 168 187
-1.975 10.075000000000001 0.0 246 246 246
-1.925 10.475000000000001 0.0 245 246 245
-1.8250000000000002 10.425 0.0 245 246 245
-1.175 10.425 0.0 120 150 171
-1.075 10.475000000000001 0.0 127 158 179
0.275 10.425 0.0 154 174 190
0.675 10.525 0.0 140 167 184
-2.075 10.625 0.0 246 246 246
-1.975 10.625 0.0 246 246 246
-1.8250000000000002 10.475000000000001 0.0 245 245 245
-1.5750000000000002 10.425 0.0 245 245 245
0.025 10.475000000000001 0.0 147 169 184
0.225 10.425 0.0 244 244 241
-1.2750000000000001 10.475000000000001 0.0 245 246 245
-1.475 10.325000000000001 0.0 246 246 246
0.8250000000000001 10.525 0.0 245 244 242
1.075 10.525 0.0 244 243 241
-1.5750000000000002 10.275 0.0 246 246 246
-1.2750000000000001 10.325000000000001 0.0 246 246 246
0.925 10.575000000000001 0.0 144 169 187
1.0250000000000001 10.575000000000001 0.0 149 174 190
1.125 10.625 0.0 144 172 189
-1.925 10.375 0.0 246 247 246
-1.675 10.075000000000001 0.0 166 196 122
1.125 10.725000000000001 0.0 142 170 187
-1.7750000000000001 10.175 0.0 151 183 84
-1.5750000000000002 9.675 0.0 109 164 29
-1.475 9.675 0.0 241 241 238
1.175 10.725000000000001 0.0 144 171 188
-1.7750000000000001 9.975000000000001 0.0 178 200 139
-1.3250000000000002 10.175 0.0 246 246 246
-1.125 10.325000000000001 0.0 128 159 181
-6.275 8.975 0.0 86 141 30
-1.5750000000000002 9.475 0.0 246 246 246
-1.3250000000000002 9.925 0.0 245 245 245
0.025 10.425 0.0 168 184 195
-1.225 10.225000000000001 0.0 247 247 247
-1.0250000000000001 10.275 0.0 119 151 173
-0.925 10.325000000000001 0.0 125 152 170
0.125 10.425 0.0 192 204 210
-0.07500000000000001 10.325000000000001 0.0 129 156 175
-1.5250000000000001 10.575000000000001 0.0 245 245 245
1.2750000000000001 10.775 0.0 129 129 129
-1.8250000000000002 9.625 0.0 246 246 246
-0.5750000000000001 10.325000000000001 0.0 143 157 165
-0.375 10.325000000000001 0.0 193 193 193
-0.275 10.225000000000001 0.0 183 184 183
-0.17500000000000002 10.225000000000001 0.0 154 154 154
0.225 10.175 0.0 113 113 112
0.325 10.225000000000001 0.0 54 54 54
-1.125 10.475000000000001 0.0 128 159 180
-1.075 10.575000000000001 0.0 137 164 184
-2.1750000000000003 10.625 0.0 246 246 246
-1.8250000000000002 10.575000000000001 0.0 245 245 245
-1.625 10.575000000000001 0.0 246 247 246
-1.3250000000000002 10.425 0.0 245 246 245
-1.075 10.425 0.0 125 157 178
-1.075 10.325000000000001 0.0 128 159 179
-2.275 10.875 0.0 246 246 246
-1.5750000000000002 10.125 0.0 245 245 244
-1.5250000000000001 10.225000000000001 0.0 245 245 245
-1.875 10.125 0.0 246 246 246
-1.875 10.025 0.0 246 246 246
-1.7750000000000001 9.875 0.0 188 205 158
-1.975 10.025 0.0 130 172 50
-1.175 10.275 0.0 135 164 184
-1.875 9.875 0.0 224 232 205
-6.025 9.025 0.0 109 159 6
-1.625 10.025 0.0 245 245 245
-1.075 10.175 0.0 35 43 48
-0.9750000000000001 10.225000000000001 0.0 155 155 155
-0.625 10.175 0.0 189 189 189
-1.7750000000000001 9.775 0.0 145 176 101
-6.025 8.925 0.0 60 83 95
-6.2250000000000005 9.825000000000001 0.0 244 244 244
-5.775 9.975000000000001 0.0 245 245 245
-5.375 9.975000000000001 0.0 213 213 213
-6.125 9.875 0.0 245 245 245
-2.1750000000000003 10.825000000000001 0.0 245 245 245
-5.425000000000001 10.025 0.0 210 210 211
-5.375 9.925 0.0 223 223 223
-1.725 10.325000000000001 0.0 245 245 245
-1.5750000000000002 10.175 0.0 244 244 241
-1.475 10.125 0.0 245 245 245
-2.075 10.325000000000001 0.0 245 245 245
-1.7750000000000001 10.075000000000001 0.0 221 232 191
-1.475 10.025 0.0 245 245 245
-6.175000000000001 9.275 0.0 97 156 11
-6.175000000000001 9.625 0.0 206 218 169
-2.025 10.225000000000001 0.0 181 203 141
-1.425 9.775 0.0 245 245 245
-1.375 10.125 0.0 245 245 245
-6.075 8.975 0.0 103 141 48
-6.075 9.275 0.0 77 127 30
-1.2750000000000001 10.025 0.0 245 245 244
-6.325 9.575000000000001 0.0 33 69 81
-1.725 9.725000000000001 0.0 231 234 220
-1.375 9.925 0.0 246 246 246
-6.075 8.875 0.0 94 137 35
-2.075 10.475000000000001 0.0 245 245 245
-1.675 10.025 0.0 156 182 124
-1.475 10.175 0.0 245 245 245
-0.775 10.225000000000001 0.0 117 117 117
-2.275 10.775 0.0 245 245 245
-2.025 10.425 0.0 246 246 246
-6.025 9.975000000000001 0.0 245 245 245
-5.825 9.925 0.0 245 245 245
-5.575 10.075000000000001 0.0 209 210 209
-2.125 10.675 0.0 247 247 247
-6.525 9.875 0.0 26 56 81
-6.375 9.875 0.0 245 245 245
-5.9750000000000005 9.875 0.0 246 246 246
-5.925000000000001 10.025 0.0 245 245 245
-5.525 10.025 0.0 193 193 193
-6.375 9.825000000000001 0.0 246 246 246
-5.675000000000001 10.025 0.0 245 245 245
-1.875 10.275 0.0 246 246 246
-6.375 9.975000000000001 0.0 245 245 245
-1.425 10.225000000000001 0.0 246 246 246
-6.2250000000000005 9.925 0.0 245 245 245
-2.225 10.725000000000001 0.0 197 215 149
-5.525 10.075000000000001 0.0 149 148 147
-1.5750000000000002 9.525 0.0 247 247 247
-5.7250000000000005 10.125 0.0 245 245 245
-1.2750000000000001 10.625 0.0 246 246 246
-5.9750000000000005 8.675 0.0 96 154 40
-6.075 9.075000000000001 0.0 106 158 8
-6.2250000000000005 9.425 0.0 130 181 46
-5.875 9.925 0.0 245 245 245
-5.775 10.125 0.0 245 245 245
-1.7750000000000001 9.725000000000001 0.0 102 148 34
-0.325 10.325000000000001 0.0 136 136 136
-0.17500000000000002 10.325000000000001 0.0 137 151 159
-0.9750000000000001 10.175 0.0 93 93 93
-6.275 9.775 0.0 246 246 245
-7.825 8.825000000000001 0.0 5 7 8
-5.925000000000001 9.925 0.0 245 245 245
0.275 10.575000000000001 0.0 139 167 186
-7.025 10.325000000000001 0.0 87 135 165
-6.075 9.975000000000001 0.0 245 245 245
-5.425000000000001 10.075000000000001 0.0 222 223 223
-8.575000000000001 9.925 0.0 77 128 160
-5.625 9.975000000000001 0.0 245 245 245
-5.675000000000001 11.075000000000001 0.0 208 209 208
-2.025 10.675 0.0 245 245 245
-8.275 10.175 0.0 80 130 162
-8.175 10.225000000000001 0.0 79 129 162
-6.325 10.025 0.0 245 245 245
-2.075 10.775 0.0 245 245 245
-0.025 10.325000000000001 0.0 244 244 241
-7.4750000000000005 10.425 0.0 85 132 162
-7.375 10.525 0.0 86 132 163
0.07500000000000001 10.325000000000001 0.0 244 243 241
-8.075000000000001 10.275 0.0 81 133 164
-7.825 10.325000000000001 0.0 80 129 159
-7.7250000000000005 10.375 0.0 83 131 162
-7.625 10.375 0.0 85 133 164
-6.175000000000001 10.025 0.0 244 245 244
-5.825 11.025 0.0 224 224 224
-5.875 10.875 0.0 222 223 222
-2.1750000000000003 10.925 0.0 246 246 246
-1.625 10.225000000000001 0.0 246 246 246
-8.325000000000001 10.025 0.0 75 128 161
-8.225 10.075000000000001 0.0 79 130 161
-7.675000000000001 10.275 0.0 80 130 161
-5.875 10.125 0.0 245 245 245
-5.675000000000001 10.175 0.0 245 245 245
-1.875 10.175 0.0 246 246 246
-8.425 9.975000000000001 0.0 76 126 159
-8.025 10.125 0.0 80 131 161
-6.4750000000000005 9.825000000000001 0.0 59 89 97
-5.9750000000000005 10.075000000000001 0.0 245 245 245
-1.725 9.925 0.0 207 225 158
-1.2750000000000001 10.225000000000001 0.0 246 246 246
-8.275 10.075000000000001 0.0 76 128 160
-8.125 10.075000000000001 0.0 80 129 161
-7.825 10.225000000000001 0.0 80 130 162
-5.925000000000001 9.475 0.0 246 246 246
-7.425000000000001 10.125 0.0 80 129 160
-6.425000000000001 10.275 0.0 246 246 246
-1.3250000000000002 10.075000000000001 0.0 125 163 61
-5.575 10.175 0.0 128 127 126
-4.7250000000000005 10.175 0.0 81 79 79
-7.4750000000000005 10.325000000000001 0.0 78 130 161
-5.925000000000001 8.975 0.0 81 127 137
-5.875 10.025 0.0 246 246 246
-8.125 10.025 0.0 77 129 161
-7.525 10.125 0.0 80 129 160
-5.825 10.875 0.0 222 222 222
-7.425000000000001 10.175 0.0 82 130 161
-5.675000000000001 10.625 0.0 220 221 220
-4.625 10.125 0.0 220 221 221
-7.825 9.175 0.0 3 3 3
-0.375 10.225000000000001 0.0 155 155 155
0.275 10.275 0.0 93 94 93
-1.375 10.575000000000001 0.0 246 246 246
-2.125 10.725000000000001 0.0 245 245 245
-5.625 10.775 0.0 225 225 225
-5.375 10.075000000000001 0.0 222 223 223
-5.7250000000000005 10.875 0.0 219 219 219
-7.9750000000000005 10.325000000000001 0.0 84 132 164
-9.175 9.725000000000001 0.0 68 119 152
-8.775 9.975000000000001 0.0 75 127 159
-8.375 10.175 0.0 74 127 160
-8.275 10.225000000000001 0.0 77 129 160
-8.125 10.225000000000001 0.0 82 131 162
-6.575 9.875 0.0 25 59 87
-5.875 11.475000000000001 0.0 226 227 226
-4.875 10.475000000000001 0.0 77 77 75
-9.025 9.875 0.0 73 126 159
-8.775 9.925 0.0 68 121 156
-8.175 10.275 0.0 78 129 162
-7.775 10.375 0.0 84 132 163
-1.3250000000000002 10.025 0.0 245 245 245
-8.975 9.925 0.0 71 125 159
-8.375 10.125 0.0 76 128 161
-1.425 9.725000000000001 0.0 246 246 246
-1.225 10.075000000000001 0.0 246 246 246
-0.7250000000000001 10.625 0.0 138 165 184
-8.625 10.025 0.0 74 126 159
-7.875 10.425 0.0 85 134 164
-6.275 9.875 0.0 245 245 245
-1.5250000000000001 9.525 0.0 245 245 245
-5.925000000000001 9.625 0.0 245 245 245
-1.075 10.225000000000001 0.0 71 86 95
-6.525 9.975000000000001 0.0 224 228 224
-6.575 10.325000000000001 0.0 246 246 246
-5.825 10.725000000000001 0.0 222 222 222
-0.9750000000000001 10.075000000000001 0.0 11 12 11
-0.775 9.875 0.0 210 210 209
-5.7250000000000005 11.175 0.0 220 221 220
-7.925000000000001 9.525 0.0 67 113 141
-7.825 9.575000000000001 0.0 71 125 158
-7.7250000000000005 9.325000000000001 0.0 2 2 2
-7.075 10.325000000000001 0.0 83 131 162
-7.125 10.375 0.0 88 135 165
-2.225 10.975000000000001 0.0 246 246 246
0.025 10.325000000000001 0.0 221 220 219
-4.7250000000000005 10.225000000000001 0.0 77 75 75
-1.3250000000000002 10.625 0.0 245 245 245
-6.375 9.725000000000001 0.0 24 57 83
-5.925000000000001 10.125 0.0 245 245 245
-7.275 10.275 0.0 82 133 164
-6.2250000000000005 10.075000000000001 0.0 246 246 246
-5.825 10.175 0.0 245 245 245
-6.025 8.775 0.0 92 150 74
-6.125 10.075000000000001 0.0 245 245 245
-6.175000000000001 8.875 0.0 100 158 39
-6.175000000000001 9.725000000000001 0.0 231 235 226
-5.775 11.125 0.0 220 221 221
-1.375 10.175 0.0 245 246 245
-5.825 8.775 0.0 84 144 59
-5.825 11.325000000000001 0.0 221 221 221
-5.9750000000000005 11.725000000000001 0.0 221 221 221
-5.925000000000001 8.825000000000001 0.0 58 110 38
-5.875 11.325000000000001 0.0 218 218 218
-1.8250000000000002 9.675 0.0 226 233 211
-6.425000000000001 10.075000000000001 0.0 245 245 245
-5.625 10.625 0.0 208 208 208
-1.125 10.225000000000001 0.0 111 149 173
-0.7250000000000001 10.225000000000001 0.0 129 129 129
-0.8250000000000001 10.025 0.0 116 117 117
-0.7250000000000001 10.125 0.0 176 176 176
-0.625 10.125 0.0 180 180 180
-5.625 10.975000000000001 0.0 224 224 224
-5.625 11.075000000000001 0.0 206 207 206
-5.7250000000000005 11.025 0.0 203 204 203
-4.675 10.275 0.0 223 223 223
-7.9750000000000005 10.175 0.0 75 128 161
-5.7250000000000005 9.925 0.0 245 245 245
-6.125 12.225000000000001 0.0 223 223 223
-6.125 12.175 0.0 224 224 224
-1.5250000000000001 9.425 0.0 105 140 64
-1.875 9.825000000000001 0.0 164 197 104
-6.325 9.725000000000001 0.0 108 134 152
-5.925000000000001 11.875 0.0 223 223 223
-5.7250000000000005 10.825000000000001 0.0 207 207 208
-5.775 11.225000000000001 0.0 225 225 225
-5.9750000000000005 11.925 0.0 222 223 222
-6.025 9.075000000000001 0.0 65 103 16
-0.775 10.125 0.0 130 130 130
-8.475 9.775 0.0 74 125 158
-7.9750000000000005 9.475 0.0 2 2 2
-6.425000000000001 9.325000000000001 0.0 87 134 163
-7.875 9.375 0.0 2 2 2
-7.9750000000000005 9.225 0.0 3 3 3
-7.675000000000001 8.825000000000001 0.0 26 26 26
-5.775 10.825000000000001 0.0 199 200 199
-5.875 11.875 0.0 208 208 208
-6.075 9.625 0.0 144 180 90
-6.275 10.125 0.0 244 244 244
-5.675000000000001 11.625 0.0 209 209 209
-4.675 10.175 0.0 108 107 107
-5.675000000000001 10.725000000000001 0.0 202 202 202
-1.5250000000000001 10.725000000000001 0.0 246 246 246
-1.675 10.675 0.0 246 246 246
-1.5750000000000002 10.725000000000001 0.0 245 245 245
-1.425 10.725000000000001 0.0 246 246 246
-1.5750000000000002 10.675 0.0 246 246 246
-1.425 10.675 0.0 245 246 245
-5.925000000000001 11.775 0.0 193 194 193
-5.775 11.775 0.0 195 195 195
-5.925000000000001 11.575000000000001 0.0 195 196 195
-5.825 11.725000000000001 0.0 191 192 191
-5.925000000000001 11.525 0.0 195 196 195
-6.075 12.025 0.0 192 193 192
-4.7250000000000005 10.275 0.0 189 190 190
-1.225 10.725000000000001 0.0 246 246 246
-6.175000000000001 11.975000000000001 0.0 191 191 191
-0.8250000000000001 10.575000000000001 0.0 118 153 177
-5.825 12.075000000000001 0.0 187 187 188
-1.3250000000000002 10.225000000000001 0.0 245 245 245
-1.975 10.275 0.0 247 247 247
-5.575 9.925 0.0 245 245 245
-1.875 9.625 0.0 120 165 52
-0.775 10.725000000000001 0.0 119 155 177
-5.425000000000001 9.925 0.0 198 198 198
-5.9750000000000005 11.675 0.0 191 191 191
