ply
format ascii 1.0
element vertex 334
property float x
property float y
property float z
property uchar red
property uchar green
property uchar blue
end_header
0.125 0.07500000000000001 0.0 13 12 12
0.125 0.025 0.0 10 10 10
0.125 -0.025 0.0 4 4 4
5.125 -2.7750000000000004 0.0 200 200 200
5.125 -2.6750000000000003 0.0 197 198 198
6.125 -3.0250000000000004 0.0 201 202 201
6.125 -3.125 0.0 200 200 200
5.075 0.8250000000000001 0.0 220 220 220
6.125 -2.875 0.0 57 57 56
6.125 -2.975 0.0 47 48 46
6.075 -2.7750000000000004 0.0 65 64 64
4.925000000000001 0.5750000000000001 0.0 245 246 245
4.9750000000000005 0.525 0.0 246 246 246
5.025 -2.725 0.0 197 197 197
5.025 -2.7750000000000004 0.0 198 198 198
6.025 -2.7750000000000004 0.0 89 89 88
6.025 -2.875 0.0 69 69 69
4.9750000000000005 0.42500000000000004 0.0 245 246 245
5.025 -0.125 0.0 245 246 245
6.025 -3.0250000000000004 0.0 196 196 196
4.9750000000000005 0.7250000000000001 0.0 246 246 246
4.9750000000000005 0.625 0.0 246 245 245
4.925000000000001 0.525 0.0 246 246 246
4.925000000000001 0.375 0.0 246 246 246
4.925000000000001 0.275 0.0 246 246 245
4.925000000000001 -0.125 0.0 246 246 246
6.025 -2.975 0.0 197 198 197
4.925000000000001 0.7250000000000001 0.0 245 245 245
4.925000000000001 0.17500000000000002 0.0 246 246 246
4.9750000000000005 0.07500000000000001 0.0 246 246 246
4.875 0.5750000000000001 0.0 247 247 247
4.875 -0.125 0.0 246 246 246
4.875 0.025 0.0 246 246 246
4.925000000000001 -0.17500000000000002 0.0 246 246 246
5.925000000000001 -2.7750000000000004 0.0 54 53 53
4.7250000000000005 0.625 0.0 247 247 247
4.775 0.5750000000000001 0.0 245 245 245
4.875 0.375 0.0 246 246 246
4.825 0.025 0.0 246 246 246
4.925000000000001 -2.6750000000000003 0.0 198 198 198
4.925000000000001 -2.7750000000000004 0.0 200 201 200
4.925000000000001 0.125 0.0 246 246 246
4.925000000000001 0.775 0.0 159 158 157
4.875 0.275 0.0 246 246 246
4.875 -0.025 0.0 245 246 245
4.125 0.5750000000000001 0.0 246 246 246
5.175000000000001 0.775 0.0 240 240 240
4.125 0.525 0.0 246 246 246
5.125 0.17500000000000002 0.0 246 246 246
5.125 0.125 0.0 246 246 246
5.125 0.325 0.0 246 246 246
5.125 -0.125 0.0 246 246 246
5.125 -0.225 0.0 246 247 246
5.075 0.375 0.0 246 246 246
5.075 0.025 0.0 246 246 246
5.075 -0.025 0.0 246 246 246
5.025 0.17500000000000002 0.0 245 245 245
5.025 0.025 0.0 246 247 246
5.025 -0.025 0.0 246 246 246
5.275 0.875 0.0 224 224 224
5.025 -0.225 0.0 230 230 230
5.9750000000000005 -3.075 0.0 196 196 196
4.875 0.125 0.0 246 245 245
4.925000000000001 -0.025 0.0 245 246 245
4.875 0.17500000000000002 0.0 246 246 246
5.9750000000000005 -2.725 0.0 141 141 140
4.825 -0.07500000000000001 0.0 245 245 245
5.925000000000001 -2.975 0.0 194 195 194
4.825 0.47500000000000003 0.0 246 246 246
5.925000000000001 -2.725 0.0 193 194 194
5.925000000000001 -2.9250000000000003 0.0 196 196 196
5.825 -2.825 0.0 193 193 193
5.875 -2.9250000000000003 0.0 193 193 193
4.775 0.42500000000000004 0.0 246 246 246
4.4750000000000005 0.625 0.0 247 247 247
4.825 -0.025 0.0 245 245 245
5.075 0.47500000000000003 0.0 246 246 246
5.025 0.325 0.0 246 246 246
5.025 0.675 0.0 246 246 246
4.925000000000001 0.025 0.0 246 246 246
4.9750000000000005 0.8250000000000001 0.0 197 197 197
4.925000000000001 0.675 0.0 246 246 246
5.925000000000001 -3.0250000000000004 0.0 197 197 196
4.875 -0.17500000000000002 0.0 246 246 246
4.875 0.525 0.0 246 246 246
5.025 -2.875 0.0 209 209 209
4.9750000000000005 -2.625 0.0 196 197 196
4.7250000000000005 0.675 0.0 246 246 246
4.875 0.675 0.0 246 247 247
4.125 0.42500000000000004 0.0 246 246 246
4.125 0.325 0.0 245 245 245
5.125 0.7250000000000001 0.0 246 246 246
5.075 0.675 0.0 246 246 246
5.075 0.5750000000000001 0.0 245 245 245
5.875 -3.0250000000000004 0.0 196 196 196
5.875 -2.825 0.0 200 200 200
4.425 0.625 0.0 246 246 246
4.825 0.7250000000000001 0.0 146 146 146
4.675 0.7250000000000001 0.0 186 186 186
4.425 0.525 0.0 246 246 246
5.2250000000000005 0.875 0.0 103 104 102
4.275 0.5750000000000001 0.0 246 246 246
4.275 3.4250000000000003 0.0 228 228 228
4.175 3.5250000000000004 0.0 244 244 244
4.2250000000000005 3.475 0.0 245 245 245
4.425 3.7750000000000004 0.0 244 244 244
4.4750000000000005 3.725 0.0 244 244 244
4.325 3.6750000000000003 0.0 244 245 244
4.375 3.6750000000000003 0.0 244 244 244
4.375 3.575 0.0 243 243 243
4.325 3.625 0.0 244 244 244
4.4750000000000005 3.575 0.0 244 244 244
4.2250000000000005 3.6750000000000003 0.0 243 244 243
4.2250000000000005 3.625 0.0 243 243 243
4.175 3.6750000000000003 0.0 244 244 244
4.275 3.5250000000000004 0.0 243 243 243
4.175 3.575 0.0 244 244 244
2.975 4.575 0.0 162 188 115
4.125 3.475 0.0 243 243 243
4.175 3.4250000000000003 0.0 243 244 243
4.025 3.575 0.0 244 244 244
5.275 3.575 0.0 29 27 27
5.325 3.5250000000000004 0.0 96 91 92
3.875 7.025 0.0 244 244 244
4.625 7.125 0.0 69 63 63
3.6750000000000003 7.075 0.0 230 230 230
3.7750000000000004 6.925000000000001 0.0 244 244 244
3.6750000000000003 6.925000000000001 0.0 229 229 229
3.725 6.825 0.0 244 245 244
3.575 6.575 0.0 245 245 245
3.0250000000000004 4.775 0.0 63 112 5
2.575 5.2250000000000005 0.0 68 119 6
3.0250000000000004 5.025 0.0 168 195 99
3.225 5.375 0.0 73 134 4
4.375 6.775 0.0 7 7 7
3.625 5.525 0.0 8 8 8
-2.225 2.575 0.0 194 194 193
-2.125 2.625 0.0 57 31 32
-2.125 2.5250000000000004 0.0 64 34 35
-2.325 2.575 0.0 193 193 192
-1.5250000000000001 1.875 0.0 194 195 194
-1.675 1.5250000000000001 0.0 180 165 163
-1.5750000000000002 1.725 0.0 223 223 221
-1.625 1.5750000000000002 0.0 238 237 235
-1.5250000000000001 1.725 0.0 150 129 131
-1.625 1.5250000000000001 0.0 222 222 222
-1.475 1.8250000000000002 0.0 96 58 59
-1.675 1.425 0.0 112 71 72
-1.425 1.875 0.0 109 65 65
-1.425 1.8250000000000002 0.0 95 60 62
-1.625 1.425 0.0 114 74 75
-1.425 1.725 0.0 104 61 64
-3.825 0.875 0.0 170 165 162
-6.825 2.825 0.0 101 60 59
-6.825 2.875 0.0 94 54 54
-3.825 1.225 0.0 174 171 167
-1.7750000000000001 1.175 0.0 127 89 89
-1.7750000000000001 1.125 0.0 115 82 83
-1.7750000000000001 1.075 0.0 108 81 82
-4.075 0.8250000000000001 0.0 178 175 172
-4.125 1.175 0.0 171 166 163
-4.025 1.225 0.0 173 168 164
-3.975 1.0250000000000001 0.0 178 174 171
-3.975 1.075 0.0 177 173 170
-3.975 0.875 0.0 172 168 164
-3.9250000000000003 1.075 0.0 174 170 167
-3.7750000000000004 -1.0250000000000001 0.0 72 63 63
-3.9250000000000003 1.175 0.0 176 172 168
-3.825 -1.3250000000000002 0.0 124 87 86
-3.9250000000000003 0.8250000000000001 0.0 129 123 121
-3.975 0.8250000000000001 0.0 52 49 47
-3.9250000000000003 0.875 0.0 175 171 168
-3.875 1.125 0.0 179 175 172
-3.9250000000000003 0.9750000000000001 0.0 169 165 162
-4.025 0.525 0.0 190 178 178
-3.825 1.0250000000000001 0.0 172 167 164
-3.825 1.125 0.0 175 171 168
-3.9250000000000003 0.7250000000000001 0.0 170 151 150
-1.925 0.675 0.0 76 71 70
-1.875 0.7250000000000001 0.0 196 196 196
-1.875 0.775 0.0 196 196 196
-1.8250000000000002 0.775 0.0 186 172 170
-1.7750000000000001 0.675 0.0 139 112 113
-1.7750000000000001 0.7250000000000001 0.0 130 103 105
-1.7750000000000001 0.875 0.0 130 94 95
-1.7750000000000001 1.0250000000000001 0.0 105 83 85
-1.7750000000000001 0.625 0.0 134 100 99
-1.8250000000000002 1.2750000000000001 0.0 129 93 97
-1.725 0.675 0.0 124 86 89
-1.725 0.7250000000000001 0.0 93 78 83
-1.725 0.625 0.0 127 89 91
-4.125 0.375 0.0 176 160 161
-3.875 -0.325 0.0 147 119 120
-4.175 0.325 0.0 156 139 139
-6.825 1.5250000000000001 0.0 190 191 190
-3.5250000000000004 -1.475 0.0 239 239 239
-1.975 0.625 0.0 29 29 29
-1.5750000000000002 -0.525 0.0 245 245 245
-1.875 0.625 0.0 126 91 92
-1.5250000000000001 -0.5750000000000001 0.0 182 160 161
-3.825 -1.125 0.0 114 74 76
-3.875 -1.0250000000000001 0.0 107 65 67
-3.9250000000000003 -0.8250000000000001 0.0 116 77 78
-3.875 -1.125 0.0 118 78 77
-3.825 -1.175 0.0 108 67 68
-3.875 -1.075 0.0 117 74 77
-3.725 -1.175 0.0 142 112 114
-3.825 -1.075 0.0 76 55 57
-3.875 -0.875 0.0 118 81 84
-3.725 -1.125 0.0 231 232 231
-4.125 -0.42500000000000004 0.0 9 12 13
-3.725 -1.075 0.0 116 73 75
-3.7750000000000004 -0.8250000000000001 0.0 114 72 75
-3.825 -0.675 0.0 114 75 78
-3.825 -0.625 0.0 118 79 78
-3.725 -0.925 0.0 107 95 53
-3.7750000000000004 -0.7250000000000001 0.0 119 78 83
-4.125 -1.925 0.0 89 52 51
-3.725 -0.8250000000000001 0.0 121 78 80
-4.4750000000000005 -1.3250000000000002 0.0 116 75 74
-4.7250000000000005 -4.575 0.0 73 41 41
-4.025 -0.125 0.0 117 79 81
-4.825 -4.575 0.0 110 67 68
-4.275 -1.975 0.0 105 67 67
-3.725 -0.525 0.0 52 51 54
-3.625 -1.0250000000000001 0.0 189 189 189
-3.575 -0.925 0.0 189 189 189
-3.625 -0.8250000000000001 0.0 190 190 190
-4.7250000000000005 -4.525 0.0 225 225 225
-3.475 -1.375 0.0 238 238 238
-3.5250000000000004 -1.3250000000000002 0.0 216 216 216
-3.625 -0.7250000000000001 0.0 238 238 238
-3.6750000000000003 -0.625 0.0 237 237 237
-3.9250000000000003 -0.225 0.0 238 238 238
-1.725 -0.125 0.0 219 219 219
-1.725 -0.225 0.0 216 215 216
-1.7750000000000001 -0.07500000000000001 0.0 216 215 216
-1.7750000000000001 -0.025 0.0 219 219 219
-1.725 -0.025 0.0 228 227 228
-1.625 -0.125 0.0 152 125 126
-1.625 0.025 0.0 248 248 248
-1.625 -0.17500000000000002 0.0 169 153 154
-1.675 0.025 0.0 214 203 203
-1.625 -0.025 0.0 204 205 206
-1.725 0.17500000000000002 0.0 114 73 73
-3.7750000000000004 -1.2750000000000001 0.0 103 63 60
-3.875 -1.175 0.0 103 59 58
-3.375 -1.725 0.0 141 136 132
-3.625 -1.625 0.0 142 138 134
-3.575 -1.675 0.0 139 134 131
-3.7750000000000004 -1.475 0.0 105 63 62
-3.7750000000000004 -1.375 0.0 104 64 63
-3.5250000000000004 -1.675 0.0 140 135 132
-3.725 -1.3250000000000002 0.0 106 64 62
-3.325 -1.675 0.0 158 153 149
-3.475 -1.625 0.0 141 136 132
-4.2250000000000005 -1.975 0.0 99 60 63
-4.325 -1.925 0.0 103 62 63
-4.275 -1.8250000000000002 0.0 102 63 63
-3.7750000000000004 -0.875 0.0 106 63 70
-4.2250000000000005 -1.725 0.0 104 64 64
-4.875 -4.4750000000000005 0.0 148 120 120
-3.375 -1.625 0.0 140 135 132
-4.7250000000000005 -4.025 0.0 180 161 161
-3.325 -1.625 0.0 140 135 131
-4.2250000000000005 -1.5750000000000002 0.0 106 64 63
-4.175 -1.725 0.0 101 60 62
-4.125 -1.7750000000000001 0.0 105 77 76
-3.625 -1.075 0.0 229 229 229
-4.025 -1.7750000000000001 0.0 188 188 186
-3.5250000000000004 -1.2750000000000001 0.0 191 191 190
-3.475 -1.225 0.0 235 235 234
-1.675 -0.275 0.0 216 215 216
-1.625 -0.275 0.0 159 146 145
-1.475 -0.42500000000000004 0.0 118 118 118
-1.5250000000000001 -0.325 0.0 153 125 124
-1.5250000000000001 -0.225 0.0 105 76 80
-3.725 -1.0250000000000001 0.0 7 8 9
-3.875 -1.2750000000000001 0.0 47 30 32
-4.025 -1.375 0.0 90 53 54
-4.075 -1.3250000000000002 0.0 88 53 53
-1.8250000000000002 -1.675 0.0 21 20 19
-4.7250000000000005 -4.275 0.0 234 234 234
-1.7750000000000001 -1.625 0.0 13 13 13
-1.425 -0.7250000000000001 0.0 136 109 110
-1.375 -0.675 0.0 244 244 245
-1.3250000000000002 -2.275 0.0 90 51 53
-4.075 -2.025 0.0 160 155 152
-4.175 -1.975 0.0 76 42 45
-4.175 -1.925 0.0 79 45 44
-4.175 -1.8250000000000002 0.0 79 45 47
-5.425000000000001 -4.4750000000000005 0.0 132 96 97
-3.975 -1.875 0.0 155 146 143
-3.9250000000000003 -1.875 0.0 161 156 153
-2.375 -3.7750000000000004 0.0 154 133 132
-1.8250000000000002 -1.7750000000000001 0.0 11 10 10
-1.875 -1.675 0.0 16 15 15
-1.875 -1.625 0.0 10 10 9
-4.675 -4.425 0.0 225 225 225
-1.3250000000000002 -1.975 0.0 244 243 243
-1.5250000000000001 -1.7750000000000001 0.0 194 194 194
-1.2750000000000001 -1.925 0.0 221 220 217
-1.625 -1.725 0.0 195 196 195
-1.2750000000000001 -1.975 0.0 226 227 226
-1.3250000000000002 -1.875 0.0 234 234 233
-1.2750000000000001 -2.075 0.0 137 123 122
-1.375 -1.875 0.0 173 157 157
-1.375 -1.7750000000000001 0.0 86 52 53
-1.175 -0.925 0.0 82 49 51
-1.2750000000000001 -0.875 0.0 80 46 45
-1.475 -0.7250000000000001 0.0 241 240 241
-1.475 -0.675 0.0 232 231 232
-1.2750000000000001 -2.1750000000000003 0.0 74 39 41
-1.375 -1.725 0.0 81 45 45
-1.425 -1.625 0.0 85 50 49
-1.475 -1.5750000000000002 0.0 77 43 46
-1.425 -0.775 0.0 84 47 46
-1.3250000000000002 -1.8250000000000002 0.0 237 237 237
-1.225 -0.8250000000000001 0.0 84 47 49
-1.475 -1.5250000000000001 0.0 81 46 46
-1.425 -1.5250000000000001 0.0 71 46 47
-1.425 -1.425 0.0 80 46 45
-4.825 -4.4750000000000005 0.0 114 71 74
-2.275 -3.875 0.0 99 58 60
-2.325 -3.825 0.0 102 62 62
-4.675 -4.275 0.0 60 32 33
-1.5750000000000002 -3.0250000000000004 0.0 193 193 193
-4.575 -3.7750000000000004 0.0 192 193 192
-1.3250000000000002 -2.075 0.0 213 213 213
-1.375 -1.975 0.0 239 239 239
-1.2750000000000001 -2.4250000000000003 0.0 16 6 7
-1.3250000000000002 -2.4250000000000003 0.0 15 6 6
0.8250000000000001 -5.7250000000000005 0.0 143 143 142
0.17500000000000002 -4.9750000000000005 0.0 127 127 127
