ply
format ascii 1.0
element vertex 395
property float x
property float y
property float z
property uchar red
property uchar green
property uchar blue
end_header
4.9750000000000005 0.375 0.0 209 208 209
5.075 -0.125 0.0 132 132 133
4.9750000000000005 0.07500000000000001 0.0 237 237 237
4.925000000000001 0.42500000000000004 0.0 237 237 237
4.925000000000001 0.025 0.0 226 226 226
4.925000000000001 0.07500000000000001 0.0 239 239 239
4.875 0.375 0.0 232 232 232
4.825 0.375 0.0 192 192 192
4.775 0.325 0.0 228 229 229
4.9750000000000005 -0.275 0.0 241 241 241
4.925000000000001 -0.17500000000000002 0.0 240 241 240
4.925000000000001 -0.275 0.0 237 237 237
4.925000000000001 -0.375 0.0 211 212 213
4.7250000000000005 0.325 0.0 208 209 208
0.025 0.025 0.0 14 14 14
0.025 -0.025 0.0 6 6 6
0.025 -0.07500000000000001 0.0 4 4 4
4.875 -0.17500000000000002 0.0 246 246 246
4.9750000000000005 -0.125 0.0 246 246 246
4.9750000000000005 -0.225 0.0 246 246 246
5.025 -0.375 0.0 245 245 245
4.925000000000001 0.525 0.0 246 246 246
4.9750000000000005 0.525 0.0 245 246 245
4.9750000000000005 0.025 0.0 246 246 246
4.9750000000000005 -0.025 0.0 245 245 245
4.925000000000001 -0.025 0.0 246 246 245
4.925000000000001 0.275 0.0 246 246 246
4.925000000000001 0.225 0.0 246 246 246
5.9750000000000005 -3.325 0.0 192 193 192
4.9750000000000005 0.225 0.0 245 245 245
5.9750000000000005 -3.1750000000000003 0.0 191 191 190
5.925000000000001 -3.325 0.0 189 189 189
4.925000000000001 -0.125 0.0 246 246 246
5.9750000000000005 -2.9250000000000003 0.0 107 106 106
5.925000000000001 -3.1750000000000003 0.0 187 186 186
4.875 0.225 0.0 245 245 245
5.925000000000001 -2.9250000000000003 0.0 14 12 12
5.925000000000001 -3.0250000000000004 0.0 46 46 46
4.875 0.525 0.0 247 247 247
4.875 0.275 0.0 245 245 245
4.875 -0.125 0.0 246 246 246
4.825 0.225 0.0 246 246 246
5.075 0.17500000000000002 0.0 247 247 247
5.075 0.125 0.0 245 245 245
5.075 0.025 0.0 246 246 246
5.075 -0.025 0.0 245 245 245
4.875 -0.275 0.0 246 246 246
4.875 -0.375 0.0 227 228 228
4.875 0.125 0.0 245 245 245
4.875 -0.025 0.0 245 245 245
4.875 0.025 0.0 246 246 246
4.9750000000000005 0.325 0.0 246 246 246
4.9750000000000005 0.675 0.0 225 225 225
5.875 -3.325 0.0 190 191 191
5.875 -3.225 0.0 193 193 193
4.925000000000001 -2.825 0.0 190 191 191
4.875 -2.825 0.0 193 193 193
5.875 -2.9250000000000003 0.0 78 76 77
5.875 -3.0250000000000004 0.0 58 55 55
5.875 -3.075 0.0 191 191 191
4.875 -2.875 0.0 200 200 200
4.9750000000000005 0.625 0.0 234 233 234
4.9750000000000005 -2.875 0.0 195 195 195
5.9750000000000005 -3.125 0.0 190 190 189
5.9750000000000005 -2.975 0.0 80 79 79
5.9750000000000005 -3.0250000000000004 0.0 53 53 52
5.925000000000001 -2.975 0.0 91 90 90
4.925000000000001 -2.875 0.0 195 196 196
5.925000000000001 -3.125 0.0 195 196 196
5.875 0.775 0.0 212 212 212
4.825 -0.125 0.0 247 247 247
4.825 0.525 0.0 247 247 247
4.825 -0.17500000000000002 0.0 246 246 246
4.9750000000000005 -2.825 0.0 194 195 194
5.825 0.675 0.0 241 241 241
5.875 0.7250000000000001 0.0 226 226 226
5.875 0.675 0.0 228 228 227
4.825 0.125 0.0 246 246 246
2.475 6.325 0.0 28 34 35
0.925 5.4750000000000005 0.0 205 28 28
5.425000000000001 3.475 0.0 236 236 236
5.4750000000000005 3.4250000000000003 0.0 30 29 28
5.425000000000001 3.375 0.0 73 69 70
2.875 5.275 0.0 132 183 28
3.7750000000000004 5.4750000000000005 0.0 151 180 103
5.425000000000001 3.325 0.0 137 134 134
5.375 3.325 0.0 33 30 32
-1.8250000000000002 9.825000000000001 0.0 101 137 39
-1.425 9.975000000000001 0.0 200 213 185
4.025 6.425000000000001 0.0 190 211 143
3.975 7.825 0.0 218 218 218
4.075 7.925000000000001 0.0 212 213 213
4.325 7.7250000000000005 0.0 220 220 220
4.175 7.675000000000001 0.0 224 225 224
2.625 4.825 0.0 68 108 25
-3.725 3.375 0.0 129 83 82
-3.475 3.2750000000000004 0.0 123 80 81
-3.325 3.325 0.0 115 72 71
-3.725 3.325 0.0 122 78 79
-3.475 3.375 0.0 116 73 74
-3.225 3.325 0.0 109 65 65
-3.225 3.375 0.0 111 67 68
-2.975 3.225 0.0 106 63 64
-2.825 3.375 0.0 136 137 136
0.525 10.075000000000001 0.0 28 32 34
-3.0250000000000004 3.125 0.0 114 68 70
-3.2750000000000004 3.375 0.0 112 69 69
-2.225 2.5250000000000004 0.0 161 161 161
-0.875 10.725000000000001 0.0 146 171 189
-0.525 10.825000000000001 0.0 147 171 189
-0.7250000000000001 10.625 0.0 146 172 189
-0.625 10.725000000000001 0.0 147 171 188
-0.925 10.625 0.0 147 172 189
-0.8250000000000001 10.625 0.0 160 181 196
-0.8250000000000001 10.675 0.0 147 172 189
-0.875 10.475000000000001 0.0 149 173 190
-0.5750000000000001 10.475000000000001 0.0 149 173 190
-0.47500000000000003 10.625 0.0 144 170 188
-1.5250000000000001 10.325000000000001 0.0 246 247 246
-1.375 10.125 0.0 246 246 246
-0.775 10.475000000000001 0.0 147 173 190
-1.475 9.825000000000001 0.0 157 194 72
-0.675 10.475000000000001 0.0 147 172 189
-0.5750000000000001 10.425 0.0 147 173 190
-0.375 10.625 0.0 144 169 188
-1.7750000000000001 9.975000000000001 0.0 246 246 246
-0.9750000000000001 10.525 0.0 147 172 189
-0.325 10.625 0.0 142 169 187
-1.425 9.675 0.0 242 243 241
-0.7250000000000001 10.475000000000001 0.0 151 175 192
-0.325 10.525 0.0 148 173 190
-0.225 10.725000000000001 0.0 137 165 184
-1.425 9.575000000000001 0.0 243 244 242
-0.8250000000000001 10.425 0.0 147 172 189
-0.225 10.425 0.0 148 174 191
-0.925 10.325000000000001 0.0 85 102 114
-0.7250000000000001 10.425 0.0 149 173 190
-0.625 10.325000000000001 0.0 144 169 188
-0.525 10.425 0.0 99 117 131
-0.42500000000000004 10.475000000000001 0.0 142 169 187
-1.3250000000000002 10.225000000000001 0.0 247 247 247
-0.7250000000000001 10.325000000000001 0.0 68 68 68
-0.675 10.075000000000001 0.0 174 174 174
-0.525 10.075000000000001 0.0 169 169 169
-0.375 10.375 0.0 157 171 179
-3.4250000000000003 3.375 0.0 113 70 70
-1.925 2.475 0.0 166 164 161
-1.925 2.4250000000000003 0.0 170 170 168
-1.5250000000000001 9.525 0.0 244 244 244
-1.5250000000000001 9.675 0.0 237 239 236
-1.375 10.525 0.0 247 247 247
-0.9750000000000001 10.625 0.0 152 175 191
-0.675 10.625 0.0 152 176 192
-0.17500000000000002 10.475000000000001 0.0 147 172 189
-0.07500000000000001 10.425 0.0 149 174 191
-0.17500000000000002 10.675 0.0 159 181 196
-0.525 10.725000000000001 0.0 155 178 193
-0.625 10.575000000000001 0.0 145 170 188
-0.325 10.725000000000001 0.0 145 170 188
-0.025 10.625 0.0 149 174 191
-0.325 10.425 0.0 139 166 185
-0.125 10.525 0.0 149 174 190
-1.5250000000000001 10.375 0.0 246 247 246
-1.3250000000000002 10.175 0.0 247 247 247
-0.42500000000000004 10.675 0.0 143 170 188
-1.625 10.275 0.0 213 227 173
-1.125 10.575000000000001 0.0 174 189 199
-1.225 10.375 0.0 248 248 248
-0.17500000000000002 10.575000000000001 0.0 149 173 190
-0.07500000000000001 10.625 0.0 151 175 191
-1.475 9.725000000000001 0.0 247 247 247
-1.375 9.725000000000001 0.0 61 98 15
-1.2750000000000001 9.925 0.0 67 116 17
-0.875 10.425 0.0 148 172 190
-1.675 9.775 0.0 52 90 11
-1.5750000000000002 9.725000000000001 0.0 170 193 127
-1.2750000000000001 10.125 0.0 247 247 247
-1.075 10.575000000000001 0.0 146 172 189
-0.675 10.325000000000001 0.0 166 177 185
-1.375 10.175 0.0 247 247 247
-1.175 10.525 0.0 246 246 246
-0.9750000000000001 10.325000000000001 0.0 141 170 188
-0.375 10.225000000000001 0.0 200 200 200
-0.5750000000000001 10.025 0.0 211 211 211
-0.375 10.175 0.0 199 199 199
-2.225 2.475 0.0 155 155 155
-2.025 2.575 0.0 156 157 156
-2.125 2.4250000000000003 0.0 156 156 156
-1.975 2.5250000000000004 0.0 158 154 151
-6.025 8.975 0.0 148 187 64
-6.175000000000001 9.175 0.0 102 144 91
-1.675 10.025 0.0 226 235 190
-1.5250000000000001 9.925 0.0 84 136 15
-1.3250000000000002 9.925 0.0 68 118 12
-1.375 9.875 0.0 245 245 245
-0.125 10.125 0.0 215 216 215
-0.025 10.175 0.0 215 215 215
0.525 10.025 0.0 78 78 78
-1.975 10.475000000000001 0.0 246 246 246
-1.625 10.525 0.0 247 247 247
-1.425 10.625 0.0 246 246 246
-0.875 10.675 0.0 135 162 182
0.025 10.525 0.0 149 173 190
0.225 10.625 0.0 156 178 194
-1.625 10.575000000000001 0.0 247 247 247
-1.425 10.675 0.0 246 246 246
-1.3250000000000002 10.775 0.0 247 247 247
-0.47500000000000003 10.525 0.0 148 172 189
0.125 10.575000000000001 0.0 143 171 188
0.325 10.625 0.0 147 171 188
0.42500000000000004 10.575000000000001 0.0 156 179 195
-1.5250000000000001 10.675 0.0 248 248 248
-1.3250000000000002 10.725000000000001 0.0 247 247 247
-0.9750000000000001 10.425 0.0 155 178 194
0.025 10.625 0.0 153 176 192
-1.5250000000000001 10.525 0.0 247 247 247
0.125 10.675 0.0 243 243 242
0.325 10.775 0.0 235 235 235
0.42500000000000004 10.725000000000001 0.0 203 212 217
-1.2750000000000001 10.625 0.0 247 247 247
0.375 10.825000000000001 0.0 250 249 248
-1.8250000000000002 10.525 0.0 247 247 247
-1.625 10.425 0.0 247 246 247
-1.2750000000000001 10.475000000000001 0.0 246 246 246
0.125 10.375 0.0 249 248 247
0.325 10.675 0.0 203 213 220
0.42500000000000004 10.525 0.0 199 205 209
-1.2750000000000001 10.425 0.0 247 247 247
0.025 10.375 0.0 149 174 191
0.225 10.325000000000001 0.0 249 247 247
-1.375 10.275 0.0 247 247 247
-1.2750000000000001 10.325000000000001 0.0 247 247 247
-1.075 10.725000000000001 0.0 155 178 194
0.225 10.475000000000001 0.0 147 172 189
-1.5750000000000002 9.975000000000001 0.0 210 227 160
-0.9750000000000001 10.725000000000001 0.0 147 172 190
-0.025 10.525 0.0 156 178 192
-1.7750000000000001 10.175 0.0 247 247 247
-0.7250000000000001 10.675 0.0 150 175 192
-0.025 10.675 0.0 149 173 190
0.47500000000000003 10.675 0.0 150 175 191
-1.8250000000000002 9.475 0.0 91 137 26
0.47500000000000003 10.575000000000001 0.0 146 172 190
-1.3250000000000002 9.575000000000001 0.0 143 169 100
0.275 10.725000000000001 0.0 152 178 194
-1.625 9.675 0.0 115 157 53
-1.125 10.425 0.0 247 247 246
0.275 10.525 0.0 148 173 190
-0.8250000000000001 10.325000000000001 0.0 131 143 151
-1.875 10.075000000000001 0.0 246 246 246
-1.625 9.825000000000001 0.0 190 201 183
-1.3250000000000002 10.125 0.0 246 247 246
-1.225 10.275 0.0 247 247 247
-0.325 10.175 0.0 193 194 193
0.275 10.325000000000001 0.0 159 172 181
-2.4250000000000003 2.725 0.0 152 150 148
-2.275 2.6750000000000003 0.0 150 150 149
0.9750000000000001 10.575000000000001 0.0 156 179 194
1.225 10.775 0.0 140 169 188
1.3250000000000002 10.675 0.0 137 167 186
1.225 10.725000000000001 0.0 148 172 190
1.3250000000000002 10.825000000000001 0.0 143 170 188
1.475 10.875 0.0 145 171 188
1.075 10.625 0.0 133 159 177
1.3250000000000002 10.725000000000001 0.0 143 170 188
1.925 10.875 0.0 136 166 186
0.775 10.575000000000001 0.0 159 182 197
1.225 10.625 0.0 189 204 213
1.3250000000000002 10.625 0.0 133 164 184
1.5750000000000002 10.775 0.0 143 170 189
2.025 10.925 0.0 136 167 187
1.425 10.675 0.0 143 170 189
1.725 10.875 0.0 140 167 187
0.325 10.375 0.0 203 214 220
1.2750000000000001 10.475000000000001 0.0 149 174 191
1.8250000000000002 10.875 0.0 139 167 186
-5.625 9.375 0.0 246 246 246
-1.675 10.325000000000001 0.0 247 247 247
-0.675 10.425 0.0 148 172 189
0.525 10.425 0.0 141 168 187
0.675 10.525 0.0 146 172 190
1.475 10.725000000000001 0.0 136 166 186
1.8250000000000002 10.825000000000001 0.0 135 165 185
-6.125 9.175 0.0 76 123 62
-6.125 9.375 0.0 22 50 71
-6.2250000000000005 9.125 0.0 114 152 176
-1.8250000000000002 9.525 0.0 149 179 85
-1.7750000000000001 9.925 0.0 246 246 246
-1.3250000000000002 9.675 0.0 247 247 247
0.5750000000000001 10.675 0.0 143 170 189
0.925 10.575000000000001 0.0 146 172 191
1.2750000000000001 10.675 0.0 137 166 186
1.475 10.675 0.0 129 160 181
-6.025 9.025 0.0 95 139 112
-6.2250000000000005 9.525 0.0 24 51 73
-1.5250000000000001 9.625 0.0 57 106 18
-1.375 9.425 0.0 246 246 246
-1.625 9.525 0.0 239 241 234
0.7250000000000001 10.575000000000001 0.0 139 167 186
1.8250000000000002 10.725000000000001 0.0 141 169 187
1.075 10.675 0.0 135 166 186
-0.325 10.325000000000001 0.0 150 172 187
0.7250000000000001 10.475000000000001 0.0 134 165 185
0.8250000000000001 10.525 0.0 133 164 185
1.0250000000000001 10.525 0.0 102 118 129
1.125 10.325000000000001 0.0 94 95 95
1.3250000000000002 10.325000000000001 0.0 107 117 124
1.675 10.525 0.0 142 171 190
1.875 10.575000000000001 0.0 134 164 185
1.175 10.225000000000001 0.0 117 117 117
1.5750000000000002 10.475000000000001 0.0 153 152 153
1.725 10.575000000000001 0.0 179 179 179
-1.3250000000000002 10.575000000000001 0.0 246 247 246
-0.8250000000000001 10.775 0.0 147 171 189
-1.5250000000000001 10.625 0.0 246 246 246
-0.8250000000000001 10.875 0.0 158 180 195
-1.7750000000000001 10.725000000000001 0.0 247 247 247
-1.3250000000000002 10.675 0.0 246 246 246
-1.125 10.275 0.0 176 182 187
0.125 10.525 0.0 218 224 227
-1.975 10.675 0.0 246 246 246
-1.975 10.625 0.0 247 247 247
-1.875 10.675 0.0 247 247 247
-1.725 10.425 0.0 246 246 246
-0.07500000000000001 10.725000000000001 0.0 152 176 193
-1.075 10.425 0.0 147 173 192
-0.9750000000000001 10.675 0.0 140 167 186
-1.675 9.925 0.0 245 245 245
-6.075 9.025 0.0 108 150 176
-0.025 10.425 0.0 148 174 190
-0.375 10.275 0.0 190 190 190
-0.17500000000000002 10.325000000000001 0.0 199 199 199
-6.325 9.925 0.0 246 247 246
-5.425000000000001 10.075000000000001 0.0 119 118 119
-6.375 9.925 0.0 245 245 245
-1.175 10.675 0.0 246 246 246
-6.125 9.625 0.0 244 244 243
-6.075 9.725000000000001 0.0 209 221 174
-2.075 10.575000000000001 0.0 246 246 246
0.17500000000000002 10.675 0.0 199 210 217
1.2750000000000001 10.775 0.0 127 160 182
1.425 10.875 0.0 131 164 183
1.075 10.775 0.0 131 162 183
1.625 10.875 0.0 132 163 184
1.2750000000000001 10.725000000000001 0.0 128 159 181
-5.825 10.225000000000001 0.0 247 247 247
-5.575 10.175 0.0 247 247 247
-1.8250000000000002 10.875 0.0 247 247 247
1.475 10.775 0.0 133 165 184
0.5750000000000001 10.625 0.0 245 244 241
0.9750000000000001 10.675 0.0 216 214 208
-6.375 10.025 0.0 247 247 247
-5.575 10.125 0.0 246 246 246
1.725 10.825000000000001 0.0 122 157 180
1.375 10.725000000000001 0.0 135 166 186
-6.4750000000000005 9.975000000000001 0.0 8 25 40
-1.0250000000000001 10.775 0.0 135 163 184
-6.4750000000000005 9.925 0.0 9 26 41
-6.2250000000000005 9.975000000000001 0.0 246 246 246
-5.425000000000001 10.025 0.0 239 239 239
1.2750000000000001 10.625 0.0 129 160 181
-5.4750000000000005 10.025 0.0 246 246 246
-5.425000000000001 10.375 0.0 172 173 172
-1.7750000000000001 10.225000000000001 0.0 247 247 247
-1.225 10.225000000000001 0.0 246 247 246
1.5750000000000002 10.675 0.0 122 157 179
0.42500000000000004 10.675 0.0 133 164 184
1.375 10.625 0.0 135 166 186
-5.775 9.525 0.0 244 245 244
-5.4750000000000005 10.175 0.0 93 91 91
-1.125 10.125 0.0 246 246 246
0.47500000000000003 10.525 0.0 141 168 187
1.475 10.575000000000001 0.0 129 162 183
-6.075 10.125 0.0 246 247 246
-5.7250000000000005 9.975000000000001 0.0 246 246 246
-5.875 9.975000000000001 0.0 247 247 247
0.625 10.325000000000001 0.0 117 152 176
1.425 10.325000000000001 0.0 91 92 91
1.475 10.325000000000001 0.0 95 95 95
0.225 10.225000000000001 0.0 214 214 214
-5.775 10.025 0.0 247 247 247
1.125 10.725000000000001 0.0 143 171 189
1.175 10.675 0.0 132 139 142
-1.225 10.625 0.0 247 247 247
-6.675000000000001 10.075000000000001 0.0 125 161 183
0.225 10.375 0.0 240 239 237
-5.925000000000001 10.025 0.0 247 247 247
-5.575 10.025 0.0 246 246 246
1.125 10.625 0.0 126 158 180
-6.2250000000000005 9.875 0.0 247 247 247
-0.7250000000000001 10.725000000000001 0.0 140 167 186
-0.525 10.675 0.0 144 170 189
-5.775 9.475 0.0 214 222 199
0.125 10.325000000000001 0.0 204 204 204
-5.825 9.875 0.0 246 246 246
