ply
format ascii 1.0
element vertex 156
property float x
property float y
property float z
property uchar red
property uchar green
property uchar blue
end_header
4.375 0.325 0.0 190 189 189
4.575 0.17500000000000002 0.0 135 136 135
4.775 0.625 0.0 1 1 1
4.4750000000000005 -0.17500000000000002 0.0 160 160 160
4.7250000000000005 0.375 0.0 134 135 134
4.7250000000000005 0.125 0.0 136 136 136
4.625 0.07500000000000001 0.0 134 135 134
4.625 0.025 0.0 136 137 136
4.7250000000000005 -0.125 0.0 135 136 136
4.625 -0.17500000000000002 0.0 143 144 143
4.625 0.375 0.0 138 138 138
4.7250000000000005 0.625 0.0 1 1 1
4.675 0.125 0.0 135 136 135
4.675 -0.17500000000000002 0.0 135 136 135
4.525 0.275 0.0 143 144 143
4.9750000000000005 -2.825 0.0 142 145 149
4.375 0.42500000000000004 0.0 134 135 134
4.625 -0.125 0.0 131 132 131
4.575 0.275 0.0 135 136 135
5.025 -0.125 0.0 134 135 134
4.9750000000000005 -0.225 0.0 133 134 133
4.775 -0.025 0.0 130 131 130
4.2250000000000005 0.42500000000000004 0.0 156 157 156
4.175 0.375 0.0 129 129 129
5.625 -2.975 0.0 132 134 136
4.175 0.275 0.0 137 138 138
4.675 0.025 0.0 134 135 135
5.7250000000000005 -3.0250000000000004 0.0 137 139 142
4.675 -0.025 0.0 138 139 138
5.175000000000001 0.7250000000000001 0.0 1 1 1
4.575 0.525 0.0 137 138 137
4.525 0.375 0.0 137 137 137
4.525 0.07500000000000001 0.0 147 148 148
4.625 -0.025 0.0 134 135 134
4.675 -0.07500000000000001 0.0 136 136 136
4.675 0.275 0.0 139 139 139
4.675 0.17500000000000002 0.0 134 134 134
4.925000000000001 -0.325 0.0 137 138 137
4.675 0.525 0.0 136 136 136
4.775 0.47500000000000003 0.0 136 136 136
4.675 0.42500000000000004 0.0 135 135 135
4.525 0.225 0.0 140 141 140
5.675000000000001 -2.9250000000000003 0.0 73 74 75
4.7250000000000005 0.525 0.0 137 137 137
4.9750000000000005 -0.325 0.0 137 138 137
4.925000000000001 0.625 0.0 13 13 13
4.525 -0.07500000000000001 0.0 156 157 156
4.525 -0.025 0.0 148 148 148
4.9750000000000005 0.625 0.0 1 1 1
4.2250000000000005 0.325 0.0 129 130 129
4.925000000000001 -2.825 0.0 141 143 147
4.925000000000001 -0.025 0.0 137 138 137
4.925000000000001 -0.07500000000000001 0.0 137 137 137
4.7250000000000005 0.17500000000000002 0.0 138 139 138
5.675000000000001 -2.825 0.0 1 1 1
4.7250000000000005 -0.225 0.0 137 138 138
5.7250000000000005 -2.975 0.0 86 87 88
4.9750000000000005 0.7250000000000001 0.0 1 1 1
4.875 0.5750000000000001 0.0 130 130 130
4.7250000000000005 -0.325 0.0 134 134 135
4.525 -0.275 0.0 173 175 173
4.9750000000000005 0.675 0.0 1 1 1
4.925000000000001 0.675 0.0 1 1 1
5.775 -2.875 0.0 1 1 1
4.775 -0.275 0.0 138 139 138
4.7250000000000005 -0.025 0.0 136 136 136
5.075 0.675 0.0 1 1 1
4.825 0.225 0.0 137 137 137
5.075 0.7250000000000001 0.0 1 1 1
4.7250000000000005 0.025 0.0 135 136 135
4.525 0.47500000000000003 0.0 134 135 134
4.9750000000000005 -2.875 0.0 140 142 145
5.075 -2.9250000000000003 0.0 142 144 148
4.525 0.025 0.0 145 146 145
4.625 -0.275 0.0 134 135 134
5.625 -3.125 0.0 144 146 148
4.875 -0.07500000000000001 0.0 136 139 136
4.875 -2.875 0.0 142 145 147
4.875 -0.225 0.0 138 138 138
4.925000000000001 -2.9250000000000003 0.0 137 139 142
4.9750000000000005 -0.375 0.0 137 138 138
5.7250000000000005 -3.1750000000000003 0.0 142 144 149
4.775 0.375 0.0 134 136 134
4.7250000000000005 0.325 0.0 137 138 137
4.875 -0.325 0.0 136 136 136
4.625 0.5750000000000001 0.0 138 139 139
4.825 -2.875 0.0 143 146 149
4.425 -0.17500000000000002 0.0 177 178 178
4.875 -2.7750000000000004 0.0 141 144 148
4.925000000000001 0.42500000000000004 0.0 132 132 133
4.775 -0.17500000000000002 0.0 136 137 136
4.875 -0.375 0.0 120 125 130
4.675 0.5750000000000001 0.0 49 49 49
4.375 -0.125 0.0 138 139 138
4.375 0.125 0.0 137 138 137
4.375 0.17500000000000002 0.0 136 136 136
4.325 0.07500000000000001 0.0 139 139 139
5.875 -2.975 0.0 1 1 1
4.675 -0.275 0.0 137 137 137
4.325 0.025 0.0 192 192 192
4.325 -0.025 0.0 134 134 134
4.325 -0.07500000000000001 0.0 136 136 136
4.2250000000000005 0.07500000000000001 0.0 140 141 140
4.275 -0.17500000000000002 0.0 188 188 188
4.375 -0.275 0.0 137 137 138
4.325 -0.275 0.0 134 135 134
4.325 0.42500000000000004 0.0 190 191 190
4.2250000000000005 -0.325 0.0 141 143 145
4.2250000000000005 0.47500000000000003 0.0 210 210 210
4.275 3.9250000000000003 0.0 243 244 243
4.2250000000000005 3.9250000000000003 0.0 245 246 245
4.325 3.4250000000000003 0.0 246 246 246
4.375 3.2750000000000004 0.0 220 220 220
5.275 3.4250000000000003 0.0 34 35 34
4.175 3.9250000000000003 0.0 243 243 243
4.125 3.9250000000000003 0.0 245 245 244
4.325 3.2750000000000004 0.0 240 240 240
4.125 3.825 0.0 245 245 245
4.325 3.1750000000000003 0.0 231 231 231
4.275 3.125 0.0 171 171 170
4.2250000000000005 3.225 0.0 245 245 245
4.175 3.325 0.0 244 244 244
4.125 3.375 0.0 236 236 236
5.175000000000001 0.675 0.0 111 111 111
4.275 0.325 0.0 246 246 246
4.375 3.225 0.0 231 231 231
4.2250000000000005 3.075 0.0 128 129 128
4.525 0.5750000000000001 0.0 129 128 128
4.175 0.47500000000000003 0.0 245 245 245
4.175 3.575 0.0 243 243 243
4.2250000000000005 3.4250000000000003 0.0 211 212 211
4.125 3.575 0.0 246 246 246
4.125 3.475 0.0 212 212 212
4.175 3.4250000000000003 0.0 229 229 229
4.2250000000000005 3.325 0.0 209 210 209
4.425 3.375 0.0 228 228 228
5.025 3.325 0.0 1 1 1
4.925000000000001 3.2750000000000004 0.0 237 237 238
4.075 3.325 0.0 213 213 213
4.275 0.47500000000000003 0.0 165 182 193
4.575 3.125 0.0 228 229 229
5.275 0.675 0.0 141 142 141
4.075 0.47500000000000003 0.0 126 124 124
5.325 0.7250000000000001 0.0 237 241 241
4.375 0.025 0.0 246 246 246
4.375 -0.025 0.0 245 246 245
4.4750000000000005 3.325 0.0 213 213 213
4.2250000000000005 3.5250000000000004 0.0 246 246 246
4.4750000000000005 3.375 0.0 223 224 224
4.575 3.1750000000000003 0.0 245 246 245
4.525 3.125 0.0 245 245 245
5.175000000000001 0.625 0.0 237 241 241
4.4750000000000005 3.225 0.0 246 246 246
4.075 0.42500000000000004 0.0 70 90 105
4.925000000000001 3.475 0.0 245 245 245
4.9750000000000005 0.47500000000000003 0.0 223 228 229
