ply
format ascii 1.0
element vertex 513
property float x
property float y
property float z
property uchar red
property uchar green
property uchar blue
end_header
0.125 0.07500000000000001 0.0 8 8 8
0.125 0.025 0.0 9 9 10
0.125 -0.025 0.0 4 4 4
5.025 -0.07500000000000001 0.0 246 246 246
5.075 0.125 0.0 245 246 245
5.025 0.025 0.0 246 246 246
5.025 0.07500000000000001 0.0 246 246 245
5.025 0.7250000000000001 0.0 218 218 218
4.9750000000000005 0.5750000000000001 0.0 246 246 246
5.025 0.525 0.0 246 246 246
5.025 0.17500000000000002 0.0 246 246 246
5.025 0.42500000000000004 0.0 246 246 245
4.925000000000001 0.325 0.0 246 246 246
4.925000000000001 0.525 0.0 245 245 245
4.9750000000000005 0.275 0.0 246 246 246
4.9750000000000005 -0.17500000000000002 0.0 246 246 246
4.9750000000000005 -0.275 0.0 239 239 240
4.925000000000001 -0.125 0.0 245 245 245
4.925000000000001 0.375 0.0 246 246 246
4.925000000000001 0.125 0.0 246 246 246
4.875 -0.125 0.0 246 246 246
4.925000000000001 -0.275 0.0 244 244 244
4.925000000000001 -2.725 0.0 194 193 194
4.825 0.07500000000000001 0.0 246 246 246
4.925000000000001 -2.7750000000000004 0.0 199 199 199
4.925000000000001 0.5750000000000001 0.0 245 245 245
5.175000000000001 -0.275 0.0 246 246 246
5.125 -0.125 0.0 245 245 245
5.175000000000001 -0.17500000000000002 0.0 245 244 245
5.125 -0.17500000000000002 0.0 246 246 246
5.125 0.775 0.0 220 220 220
5.125 -0.275 0.0 246 246 246
5.025 -0.025 0.0 245 245 245
5.075 0.325 0.0 246 246 246
4.875 0.07500000000000001 0.0 246 246 246
4.875 0.275 0.0 247 247 247
4.875 0.17500000000000002 0.0 246 246 246
4.675 -0.07500000000000001 0.0 245 246 245
4.925000000000001 -0.17500000000000002 0.0 246 246 246
4.775 -0.025 0.0 247 247 247
4.775 -0.07500000000000001 0.0 246 246 246
4.825 0.375 0.0 247 247 247
4.875 -0.17500000000000002 0.0 245 245 245
4.125 0.375 0.0 245 245 245
4.125 0.325 0.0 246 246 246
5.125 0.025 0.0 246 246 246
5.125 -0.025 0.0 246 246 246
5.075 0.525 0.0 246 246 246
5.075 0.42500000000000004 0.0 245 245 245
5.075 0.625 0.0 246 246 246
5.075 0.675 0.0 235 235 235
5.025 0.775 0.0 204 204 204
5.025 0.675 0.0 233 233 233
4.925000000000001 0.7250000000000001 0.0 164 163 163
4.925000000000001 -0.025 0.0 246 246 246
4.9750000000000005 -2.6750000000000003 0.0 197 197 197
4.9750000000000005 -2.7750000000000004 0.0 197 197 197
4.9750000000000005 -2.875 0.0 220 220 220
4.925000000000001 0.225 0.0 246 246 246
5.9750000000000005 -3.0250000000000004 0.0 196 196 196
5.9750000000000005 -3.075 0.0 196 196 196
5.9750000000000005 -3.1750000000000003 0.0 196 197 196
5.9750000000000005 -2.7750000000000004 0.0 19 17 17
5.9750000000000005 -2.9250000000000003 0.0 132 133 132
5.925000000000001 -3.1750000000000003 0.0 198 198 198
5.925000000000001 -2.7750000000000004 0.0 150 149 149
5.925000000000001 -2.9250000000000003 0.0 195 196 195
5.925000000000001 -3.0250000000000004 0.0 197 198 197
5.925000000000001 -3.075 0.0 196 196 196
4.925000000000001 -2.875 0.0 244 244 244
5.925000000000001 -2.975 0.0 196 197 196
4.925000000000001 0.675 0.0 240 240 240
4.875 0.47500000000000003 0.0 245 245 245
4.825 0.025 0.0 246 246 246
4.875 -0.025 0.0 246 246 246
5.075 -2.875 0.0 200 201 200
5.075 -2.725 0.0 197 197 197
5.075 -2.7750000000000004 0.0 196 197 196
6.075 -3.1750000000000003 0.0 196 197 196
6.075 -2.975 0.0 148 148 148
6.075 -3.0250000000000004 0.0 196 196 196
6.075 -3.125 0.0 195 195 195
6.075 -2.875 0.0 60 58 58
5.075 0.7250000000000001 0.0 235 235 235
6.075 -2.825 0.0 92 92 91
6.025 -2.975 0.0 198 198 198
5.075 0.17500000000000002 0.0 246 246 246
4.875 0.025 0.0 246 246 246
4.875 0.42500000000000004 0.0 247 247 247
4.2250000000000005 3.4250000000000003 0.0 247 247 247
4.175 3.4250000000000003 0.0 246 246 246
4.125 3.4250000000000003 0.0 246 246 246
4.925000000000001 0.025 0.0 246 246 246
5.925000000000001 0.875 0.0 101 100 99
4.825 7.2250000000000005 0.0 35 36 27
-0.275 0.025 0.0 88 90 92
4.775 7.525 0.0 240 240 240
4.775 7.325 0.0 239 239 239
4.7250000000000005 7.275 0.0 238 238 238
4.575 7.275 0.0 239 239 239
4.075 8.075000000000001 0.0 189 203 169
3.1750000000000003 5.2250000000000005 0.0 52 91 11
4.125 6.925000000000001 0.0 244 244 244
4.175 6.875 0.0 242 242 242
5.075 7.525 0.0 54 51 46
2.7750000000000004 5.275 0.0 106 148 34
1.475 10.575000000000001 0.0 145 172 191
2.025 10.725000000000001 0.0 132 166 187
0.775 5.675000000000001 0.0 46 38 20
0.775 5.525 0.0 219 51 51
-1.675 9.775 0.0 213 225 185
1.925 10.875 0.0 139 167 186
0.47500000000000003 10.425 0.0 149 174 191
0.7250000000000001 10.525 0.0 141 162 176
0.8250000000000001 10.525 0.0 142 169 188
1.375 10.875 0.0 160 182 198
1.725 10.925 0.0 144 170 188
-0.42500000000000004 10.375 0.0 156 179 194
-0.325 10.525 0.0 148 173 190
-0.17500000000000002 10.525 0.0 150 174 191
-0.07500000000000001 10.525 0.0 157 179 195
0.275 10.575000000000001 0.0 160 182 197
0.47500000000000003 10.525 0.0 145 171 188
0.8250000000000001 10.625 0.0 147 172 190
1.5250000000000001 10.975000000000001 0.0 140 168 186
1.625 10.925 0.0 149 175 192
1.725 11.075000000000001 0.0 150 175 192
1.875 11.175 0.0 139 167 185
-1.125 10.325000000000001 0.0 150 175 191
-0.875 10.275 0.0 146 171 189
-0.525 10.375 0.0 149 173 189
-0.42500000000000004 10.475000000000001 0.0 148 173 190
-0.325 10.425 0.0 152 175 192
-0.07500000000000001 10.575000000000001 0.0 147 172 189
0.17500000000000002 10.675 0.0 171 189 202
0.375 10.675 0.0 165 185 199
0.5750000000000001 10.675 0.0 161 183 198
0.7250000000000001 10.675 0.0 170 188 201
1.2750000000000001 10.775 0.0 187 202 213
1.425 10.975000000000001 0.0 148 174 191
1.625 11.025 0.0 140 167 186
1.7750000000000001 11.075000000000001 0.0 143 170 188
-1.0250000000000001 10.325000000000001 0.0 146 170 188
-0.675 10.325000000000001 0.0 146 171 188
-0.525 10.325000000000001 0.0 144 170 188
-0.42500000000000004 10.325000000000001 0.0 150 174 191
0.025 10.625 0.0 146 171 189
0.375 10.625 0.0 167 187 201
0.47500000000000003 10.675 0.0 158 181 196
0.5750000000000001 10.625 0.0 151 176 193
0.925 10.825000000000001 0.0 146 173 190
1.175 10.925 0.0 146 172 190
-1.125 10.225000000000001 0.0 152 175 191
-0.775 10.325000000000001 0.0 148 173 190
-0.225 10.425 0.0 152 176 192
0.125 10.625 0.0 196 210 218
0.275 10.675 0.0 193 205 213
1.625 11.075000000000001 0.0 140 168 187
-0.675 10.375 0.0 146 171 189
-0.5750000000000001 10.275 0.0 179 195 205
-0.42500000000000004 10.225000000000001 0.0 145 171 189
0.125 10.675 0.0 173 191 204
0.47500000000000003 10.725000000000001 0.0 162 184 199
0.675 10.575000000000001 0.0 163 184 199
1.0250000000000001 10.625 0.0 173 190 200
-0.325 10.275 0.0 145 172 190
0.025 10.525 0.0 181 197 208
0.225 10.625 0.0 184 199 210
1.225 10.725000000000001 0.0 158 181 197
-0.5750000000000001 10.375 0.0 145 171 188
0.125 10.525 0.0 146 172 189
1.125 10.625 0.0 146 172 190
1.375 10.825000000000001 0.0 141 168 187
-0.8250000000000001 10.375 0.0 154 177 193
0.47500000000000003 10.575000000000001 0.0 159 181 196
0.925 10.625 0.0 158 181 195
1.725 11.025 0.0 136 165 185
1.0250000000000001 10.725000000000001 0.0 146 172 190
1.225 10.775 0.0 139 168 187
-0.125 10.425 0.0 149 174 191
-0.025 10.525 0.0 161 182 197
0.325 10.525 0.0 147 172 190
1.125 10.725000000000001 0.0 132 156 173
1.3250000000000002 10.775 0.0 166 186 200
1.475 10.775 0.0 194 208 217
0.225 10.425 0.0 150 175 191
0.5750000000000001 10.525 0.0 162 184 198
1.0250000000000001 10.675 0.0 172 190 201
1.3250000000000002 10.725000000000001 0.0 148 173 190
1.5750000000000002 10.775 0.0 132 162 183
-0.225 10.275 0.0 157 179 195
0.07500000000000001 10.425 0.0 142 170 189
1.225 10.575000000000001 0.0 149 175 191
-1.5750000000000002 9.525 0.0 241 242 240
-0.025 10.275 0.0 170 182 190
0.07500000000000001 10.275 0.0 151 176 192
0.17500000000000002 10.225000000000001 0.0 161 183 198
1.175 10.425 0.0 121 136 148
1.2750000000000001 10.525 0.0 95 115 127
1.425 10.575000000000001 0.0 48 52 54
-1.475 9.775 0.0 246 246 246
-0.47500000000000003 10.175 0.0 193 193 193
-0.375 10.175 0.0 198 199 198
-0.125 10.325000000000001 0.0 137 144 148
-6.2250000000000005 9.875 0.0 247 247 247
-5.775 9.925 0.0 245 245 245
-5.675000000000001 10.025 0.0 245 245 245
-1.625 10.325000000000001 0.0 247 247 247
-6.325 9.825000000000001 0.0 245 246 245
-5.875 9.875 0.0 247 247 247
-5.525 9.925 0.0 131 131 131
-6.375 9.875 0.0 247 247 247
-6.275 9.875 0.0 246 246 246
1.0250000000000001 10.425 0.0 242 241 238
-6.025 9.875 0.0 247 247 247
-1.2750000000000001 10.275 0.0 175 190 200
-5.625 9.975000000000001 0.0 203 203 203
-6.2250000000000005 9.725000000000001 0.0 245 245 245
-1.475 10.025 0.0 247 247 247
-1.375 10.275 0.0 246 246 246
-6.325 9.675 0.0 246 246 246
-6.075 9.825000000000001 0.0 247 247 247
-1.875 10.025 0.0 222 234 184
0.875 10.425 0.0 144 172 189
-6.375 9.525 0.0 142 177 68
-5.875 9.175 0.0 65 109 18
-5.825 9.825000000000001 0.0 246 246 246
-5.925000000000001 9.775 0.0 246 246 246
-1.375 9.875 0.0 247 247 247
-0.325 10.225000000000001 0.0 142 168 188
0.17500000000000002 10.275 0.0 144 171 188
0.42500000000000004 10.375 0.0 145 171 188
-0.925 10.225000000000001 0.0 147 172 189
0.275 10.325000000000001 0.0 162 183 197
1.625 10.425 0.0 102 126 144
-6.325 9.625 0.0 245 246 245
-0.5750000000000001 10.175 0.0 185 185 185
0.625 10.725000000000001 0.0 154 177 193
-0.5750000000000001 10.625 0.0 152 176 192
-0.275 10.625 0.0 153 176 192
-0.025 10.775 0.0 149 174 191
0.07500000000000001 10.725000000000001 0.0 155 178 193
0.17500000000000002 10.725000000000001 0.0 147 172 189
1.475 10.875 0.0 143 171 189
-0.025 10.675 0.0 150 174 191
0.7250000000000001 10.625 0.0 153 177 193
0.925 10.675 0.0 183 200 210
-1.425 10.525 0.0 247 247 247
-1.2750000000000001 10.425 0.0 175 193 204
-0.7250000000000001 10.425 0.0 146 171 188
-0.025 10.575000000000001 0.0 156 179 195
0.7250000000000001 10.725000000000001 0.0 180 197 208
0.8250000000000001 10.675 0.0 180 192 198
-1.2750000000000001 10.225000000000001 0.0 232 234 236
-1.175 10.325000000000001 0.0 150 174 191
-0.925 10.575000000000001 0.0 152 175 191
-0.8250000000000001 10.475000000000001 0.0 145 171 188
-0.625 10.475000000000001 0.0 146 171 189
0.375 10.525 0.0 158 181 196
-1.5250000000000001 10.525 0.0 246 246 246
-1.175 10.525 0.0 158 181 196
-1.075 10.375 0.0 147 173 190
-1.5750000000000002 10.575000000000001 0.0 247 246 246
-1.175 10.425 0.0 147 172 190
-0.9750000000000001 10.475000000000001 0.0 148 173 190
-0.525 10.475000000000001 0.0 145 171 188
0.675 10.675 0.0 174 192 204
0.8250000000000001 10.725000000000001 0.0 165 186 200
1.0250000000000001 10.825000000000001 0.0 164 186 200
-1.3250000000000002 10.525 0.0 248 248 248
-0.9750000000000001 10.575000000000001 0.0 154 178 193
-1.075 10.475000000000001 0.0 148 173 190
-0.875 10.525 0.0 146 171 189
-0.525 10.575000000000001 0.0 146 172 189
0.8250000000000001 10.775 0.0 173 191 202
1.8250000000000002 11.225000000000001 0.0 139 167 186
-1.675 10.425 0.0 247 247 247
-1.3250000000000002 10.625 0.0 247 247 247
-0.17500000000000002 10.675 0.0 144 170 188
0.675 10.725000000000001 0.0 144 170 188
-1.5250000000000001 10.275 0.0 246 246 246
0.025 10.425 0.0 144 170 188
1.7750000000000001 11.025 0.0 136 165 185
-0.17500000000000002 10.575000000000001 0.0 148 173 190
1.075 10.675 0.0 144 172 190
-0.875 10.425 0.0 147 172 190
0.325 10.425 0.0 147 172 190
0.875 10.725000000000001 0.0 153 176 192
1.175 10.675 0.0 195 209 218
1.2750000000000001 10.625 0.0 142 169 189
1.425 10.675 0.0 144 171 189
1.5250000000000001 10.675 0.0 135 166 185
1.7750000000000001 10.875 0.0 142 169 188
-1.675 9.575000000000001 0.0 113 157 45
-1.5750000000000002 9.325000000000001 0.0 246 246 246
0.675 10.525 0.0 184 201 211
1.2750000000000001 10.675 0.0 190 205 215
1.475 10.525 0.0 137 167 186
1.5750000000000002 10.675 0.0 131 164 185
-1.475 9.525 0.0 245 246 244
-0.775 10.225000000000001 0.0 139 167 186
-0.325 10.175 0.0 140 168 187
-0.025 10.425 0.0 147 173 190
-1.5250000000000001 9.925 0.0 246 246 246
-0.675 9.925 0.0 190 190 190
-0.5750000000000001 10.025 0.0 202 203 202
-0.42500000000000004 10.025 0.0 166 166 166
-0.325 10.025 0.0 203 203 203
-1.625 9.725000000000001 0.0 246 246 246
-0.07500000000000001 10.675 0.0 147 171 188
1.3250000000000002 10.875 0.0 146 172 190
-1.8250000000000002 10.475000000000001 0.0 247 247 247
-1.475 10.575000000000001 0.0 247 247 247
-1.375 10.725000000000001 0.0 247 247 247
0.275 10.775 0.0 149 173 190
2.025 10.925 0.0 139 167 187
-6.4750000000000005 9.725000000000001 0.0 152 163 172
-6.4750000000000005 9.925 0.0 247 247 247
-5.875 10.175 0.0 246 246 246
-0.9750000000000001 10.125 0.0 149 173 190
0.275 10.725000000000001 0.0 147 172 190
1.875 11.125 0.0 145 172 189
2.225 11.125 0.0 136 166 185
2.325 10.825000000000001 0.0 247 246 247
2.7750000000000004 11.125 0.0 247 247 247
0.17500000000000002 10.775 0.0 187 201 211
1.075 10.775 0.0 150 175 192
-6.4750000000000005 9.825000000000001 0.0 246 246 246
1.125 10.875 0.0 217 216 215
2.5250000000000004 11.075000000000001 0.0 247 246 247
-1.125 10.375 0.0 144 170 188
-0.675 10.475000000000001 0.0 143 169 187
1.125 10.775 0.0 174 180 183
-1.125 10.625 0.0 148 173 190
-0.17500000000000002 10.225000000000001 0.0 152 175 192
-5.675000000000001 10.075000000000001 0.0 198 198 198
-5.575 10.125 0.0 170 170 170
-0.775 10.575000000000001 0.0 143 169 188
-0.42500000000000004 10.575000000000001 0.0 146 172 189
-5.525 10.025 0.0 139 140 140
2.275 10.925 0.0 160 184 199
-6.325 9.525 0.0 247 247 247
-5.525 10.075000000000001 0.0 138 138 138
-1.8250000000000002 10.325000000000001 0.0 174 196 175
1.875 11.025 0.0 132 163 183
-5.925000000000001 9.425 0.0 227 232 216
-1.425 9.775 0.0 241 242 237
1.975 10.975000000000001 0.0 133 164 185
-0.675 10.575000000000001 0.0 146 172 190
1.075 10.625 0.0 140 166 185
-1.5250000000000001 9.625 0.0 246 246 246
1.175 10.525 0.0 132 164 184
1.3250000000000002 10.625 0.0 133 165 186
1.425 10.525 0.0 127 162 184
-1.8250000000000002 10.025 0.0 235 237 233
-1.475 10.125 0.0 247 247 247
-0.775 10.075000000000001 0.0 182 182 181
-0.225 10.025 0.0 205 205 205
0.025 10.275 0.0 208 208 208
-1.075 10.325000000000001 0.0 138 165 183
0.625 10.775 0.0 197 209 217
0.025 10.675 0.0 146 171 188
0.42500000000000004 10.725000000000001 0.0 148 173 190
0.525 10.775 0.0 146 172 190
0.7250000000000001 10.825000000000001 0.0 144 170 188
-1.225 10.725000000000001 0.0 154 179 194
-0.9750000000000001 10.175 0.0 152 176 191
-0.7250000000000001 10.325000000000001 0.0 152 171 184
0.42500000000000004 10.775 0.0 200 212 220
0.925 10.875 0.0 183 196 205
-1.375 10.375 0.0 247 247 247
-1.0250000000000001 10.375 0.0 146 172 189
0.17500000000000002 10.525 0.0 170 190 202
-0.7250000000000001 10.525 0.0 149 174 191
-1.5750000000000002 10.425 0.0 247 247 247
-1.375 10.225000000000001 0.0 246 246 246
-1.425 9.625 0.0 74 127 8
1.0250000000000001 10.475000000000001 0.0 158 158 158
-0.675 10.025 0.0 200 201 200
-6.125 9.275 0.0 236 238 234
-6.175000000000001 8.725 0.0 110 151 148
-0.125 10.725000000000001 0.0 166 186 199
-1.0250000000000001 10.225000000000001 0.0 145 170 189
-6.025 10.225000000000001 0.0 246 246 246
-5.775 10.175 0.0 246 246 246
-6.175000000000001 10.225000000000001 0.0 246 246 246
-6.025 10.125 0.0 247 247 247
-2.025 10.825000000000001 0.0 247 247 247
-1.725 10.525 0.0 247 247 247
-1.625 10.475000000000001 0.0 245 246 245
1.475 11.125 0.0 139 168 187
-1.725 10.575000000000001 0.0 246 246 246
-6.525 10.325000000000001 0.0 246 246 246
-6.175000000000001 10.175 0.0 246 246 246
-5.775 10.125 0.0 245 245 245
-5.625 10.275 0.0 136 137 137
-2.025 10.975000000000001 0.0 247 247 247
1.3250000000000002 10.975000000000001 0.0 145 171 189
-5.925000000000001 10.125 0.0 246 246 246
-2.075 11.025 0.0 247 247 247
1.075 10.725000000000001 0.0 142 166 182
-6.175000000000001 10.125 0.0 246 247 246
-1.7750000000000001 10.575000000000001 0.0 211 220 227
-5.775 9.975000000000001 0.0 246 246 246
-1.175 10.575000000000001 0.0 139 167 186
-6.525 10.225000000000001 0.0 246 246 246
-2.1750000000000003 10.875 0.0 247 247 247
-5.925000000000001 9.975000000000001 0.0 246 246 246
-1.5750000000000002 9.625 0.0 207 217 191
-1.3250000000000002 10.325000000000001 0.0 178 195 207
1.675 10.775 0.0 134 165 184
-5.875 10.075000000000001 0.0 210 210 210
-1.375 10.075000000000001 0.0 211 221 188
-1.2750000000000001 10.075000000000001 0.0 247 247 247
-0.7250000000000001 10.225000000000001 0.0 169 182 191
1.975 10.825000000000001 0.0 130 164 185
-1.3250000000000002 10.375 0.0 246 246 246
-0.875 9.975000000000001 0.0 59 70 78
-0.7250000000000001 9.875 0.0 61 67 71
-0.625 9.825000000000001 0.0 54 55 55
-0.525 9.975000000000001 0.0 116 116 115
-0.325 10.075000000000001 0.0 200 200 200
-1.625 9.975000000000001 0.0 246 246 246
-1.925 10.625 0.0 247 247 247
-1.925 10.475000000000001 0.0 246 246 246
-1.375 10.675 0.0 247 247 247
1.075 10.975000000000001 0.0 247 246 245
-1.8250000000000002 10.675 0.0 247 247 247
-1.2750000000000001 10.525 0.0 164 185 198
-6.375 9.775 0.0 246 246 246
-1.425 10.575000000000001 0.0 247 247 247
-6.525 9.675 0.0 17 40 60
-1.8250000000000002 10.375 0.0 229 236 212
-1.5750000000000002 10.075000000000001 0.0 188 209 136
-1.5750000000000002 9.675 0.0 247 247 248
0.875 10.475000000000001 0.0 135 165 185
-1.475 9.725000000000001 0.0 94 141 27
0.42500000000000004 10.325000000000001 0.0 127 153 172
0.775 10.425 0.0 173 173 173
-6.125 8.975 0.0 97 149 10
-1.2750000000000001 10.575000000000001 0.0 138 166 186
-6.075 8.775 0.0 60 106 10
-6.125 8.925 0.0 57 98 14
-6.2250000000000005 9.275 0.0 60 102 6
2.225 10.975000000000001 0.0 129 161 182
2.5250000000000004 10.925 0.0 247 247 247
2.6750000000000003 11.125 0.0 247 247 247
-1.225 10.675 0.0 145 171 190
-1.3250000000000002 10.675 0.0 247 247 247
2.575 11.025 0.0 247 247 247
-2.375 11.425 0.0 246 247 246
1.125 10.675 0.0 147 167 181
2.025 11.075000000000001 0.0 129 162 184
-2.125 11.175 0.0 247 247 247
2.625 11.175 0.0 246 246 246
2.075 11.025 0.0 127 158 179
-6.025 10.175 0.0 246 246 246
-5.9750000000000005 10.275 0.0 246 246 246
-5.625 10.175 0.0 158 159 159
2.075 11.075000000000001 0.0 126 159 182
-6.375 10.175 0.0 246 247 246
-2.375 11.325000000000001 0.0 247 247 247
-1.375 10.775 0.0 247 247 247
2.325 10.875 0.0 247 247 247
-1.2750000000000001 10.675 0.0 138 166 186
-6.075 10.025 0.0 246 246 246
2.475 10.975000000000001 0.0 247 247 247
-6.175000000000001 9.425 0.0 100 136 47
-5.775 9.175 0.0 246 246 246
-5.775 10.675 0.0 139 140 140
1.5750000000000002 10.725000000000001 0.0 123 156 179
-0.7250000000000001 9.975000000000001 0.0 174 174 174
-0.525 10.075000000000001 0.0 167 168 167
-1.3250000000000002 10.825000000000001 0.0 247 247 247
-1.875 10.825000000000001 0.0 247 247 247
-1.725 11.075000000000001 0.0 247 248 247
-6.575 10.125 0.0 246 246 246
-2.025 10.575000000000001 0.0 247 247 247
-1.3250000000000002 9.925 0.0 242 243 239
-0.225 10.175 0.0 131 159 179
-5.875 10.025 0.0 175 175 175
-5.575 9.875 0.0 185 186 185
-5.7250000000000005 9.925 0.0 183 184 184
-2.1750000000000003 11.075000000000001 0.0 246 246 246
-5.775 10.725000000000001 0.0 185 185 185
-6.575 9.925 0.0 246 246 246
-6.425000000000001 10.075000000000001 0.0 204 204 204
-2.1750000000000003 11.025 0.0 246 246 246
-6.2250000000000005 9.975000000000001 0.0 189 190 190
-1.125 10.475000000000001 0.0 130 160 180
-2.025 9.975000000000001 0.0 75 123 18
-1.475 9.675 0.0 138 168 187
-1.125 10.175 0.0 150 164 173
-0.325 10.675 0.0 143 171 189
-1.075 10.225000000000001 0.0 141 168 187
1.2750000000000001 10.725000000000001 0.0 186 204 214
-1.925 11.175 0.0 150 175 192
-6.075 10.175 0.0 140 140 141
-2.325 11.375 0.0 195 209 217
-1.5750000000000002 10.775 0.0 146 171 188
-1.5750000000000002 10.725000000000001 0.0 146 170 189
-0.7250000000000001 10.575000000000001 0.0 136 165 184
-6.325 9.475 0.0 140 141 140
-1.225 10.225000000000001 0.0 145 171 189
-6.4750000000000005 9.625 0.0 140 140 140
-1.8250000000000002 10.075000000000001 0.0 150 151 150
0.7250000000000001 10.425 0.0 137 166 186
-2.025 10.725000000000001 0.0 248 248 248
0.07500000000000001 10.825000000000001 0.0 138 167 187
0.17500000000000002 10.875 0.0 140 168 186
-5.925000000000001 11.025 0.0 136 137 136
-5.525 10.275 0.0 151 152 152
-5.775 10.975000000000001 0.0 201 201 201
