ply
format ascii 1.0
element vertex 731
property float x
property float y
property float z
property uchar red
property uchar green
property uchar blue
end_header
4.775 0.625 0.0 1 1 1
4.7250000000000005 0.625 0.0 1 1 1
4.675 0.5750000000000001 0.0 1 1 1
4.7250000000000005 0.17500000000000002 0.0 135 136 135
4.625 0.125 0.0 136 137 136
5.9750000000000005 -3.075 0.0 47 48 48
4.675 0.07500000000000001 0.0 138 139 138
4.625 0.025 0.0 137 137 137
4.625 0.275 0.0 137 137 137
4.675 0.025 0.0 131 131 131
4.7250000000000005 0.47500000000000003 0.0 138 138 138
4.575 0.42500000000000004 0.0 134 135 134
6.025 -2.975 0.0 17 18 21
4.675 0.47500000000000003 0.0 137 138 137
4.925000000000001 -0.325 0.0 137 137 137
6.025 -3.0250000000000004 0.0 1 1 1
4.9750000000000005 0.7250000000000001 0.0 2 2 2
4.625 0.47500000000000003 0.0 135 136 135
4.525 0.42500000000000004 0.0 135 135 135
4.525 0.225 0.0 156 157 156
4.525 -0.17500000000000002 0.0 153 154 153
4.7250000000000005 -0.225 0.0 135 136 136
5.9750000000000005 -3.1750000000000003 0.0 141 144 148
4.425 0.42500000000000004 0.0 162 162 162
4.4750000000000005 0.275 0.0 149 150 149
5.925000000000001 -3.225 0.0 145 148 152
4.525 -0.07500000000000001 0.0 150 151 150
4.925000000000001 -0.17500000000000002 0.0 134 135 134
4.175 0.275 0.0 135 136 135
5.925000000000001 -2.975 0.0 2 1 1
4.925000000000001 0.625 0.0 2 2 2
5.825 -3.075 0.0 139 142 145
4.675 0.375 0.0 135 136 135
5.575 -3.0250000000000004 0.0 140 142 147
5.075 -2.825 0.0 141 144 148
4.675 0.17500000000000002 0.0 135 135 135
4.675 -0.025 0.0 133 133 133
5.075 0.7250000000000001 0.0 1 1 1
4.675 -0.07500000000000001 0.0 134 134 134
4.775 0.225 0.0 136 137 136
4.675 0.275 0.0 137 138 137
6.075 -3.1750000000000003 0.0 131 133 133
4.775 0.125 0.0 132 132 132
5.925000000000001 -2.9250000000000003 0.0 3 3 3
4.9750000000000005 -0.325 0.0 137 138 137
4.775 0.47500000000000003 0.0 138 139 138
4.825 -0.325 0.0 136 136 136
4.2250000000000005 0.42500000000000004 0.0 135 135 135
4.325 0.42500000000000004 0.0 162 163 162
4.9750000000000005 -0.17500000000000002 0.0 136 136 136
4.425 -0.17500000000000002 0.0 136 136 136
5.925000000000001 -3.125 0.0 137 140 141
4.9750000000000005 0.675 0.0 1 1 1
5.075 0.625 0.0 1 1 1
4.775 0.275 0.0 132 131 132
4.825 0.025 0.0 136 138 137
4.7250000000000005 0.125 0.0 132 133 132
4.9750000000000005 0.625 0.0 26 26 26
4.875 -0.125 0.0 132 132 132
4.625 0.17500000000000002 0.0 134 135 134
4.775 -0.025 0.0 135 136 135
6.175000000000001 -3.1750000000000003 0.0 124 125 125
6.175000000000001 -3.2750000000000004 0.0 140 144 148
4.875 0.625 0.0 1 1 1
4.575 -0.275 0.0 139 141 139
4.625 -0.07500000000000001 0.0 136 136 136
4.825 -0.225 0.0 133 132 132
4.925000000000001 -0.07500000000000001 0.0 135 136 135
5.025 -0.375 0.0 168 170 172
5.025 -2.875 0.0 141 143 147
4.925000000000001 -2.825 0.0 140 142 145
5.625 -3.075 0.0 142 146 150
5.9750000000000005 -2.9250000000000003 0.0 19 20 22
5.7250000000000005 -2.9250000000000003 0.0 1 1 1
4.925000000000001 -2.875 0.0 142 144 147
5.775 -2.9250000000000003 0.0 1 1 1
4.525 0.47500000000000003 0.0 138 140 138
4.525 0.125 0.0 135 136 135
4.425 0.325 0.0 150 150 150
4.425 0.17500000000000002 0.0 172 172 172
4.525 0.025 0.0 136 138 137
4.625 -0.17500000000000002 0.0 137 138 138
4.525 -0.025 0.0 137 138 137
4.675 -0.325 0.0 134 135 135
4.7250000000000005 -0.275 0.0 136 136 136
4.925000000000001 0.47500000000000003 0.0 134 134 134
4.675 -0.225 0.0 139 140 139
4.875 -2.875 0.0 142 145 148
4.9750000000000005 -2.825 0.0 141 144 147
5.825 -3.1750000000000003 0.0 142 145 149
5.625 -2.875 0.0 7 7 7
5.525 -3.075 0.0 142 144 149
5.075 -2.9250000000000003 0.0 142 146 150
5.875 -3.1750000000000003 0.0 142 145 149
5.175000000000001 -2.9250000000000003 0.0 141 144 149
5.275 -2.9250000000000003 0.0 141 144 147
4.875 0.525 0.0 132 132 132
4.925000000000001 0.42500000000000004 0.0 132 132 133
5.025 -0.125 0.0 133 133 133
4.875 -0.225 0.0 136 136 136
5.875 -3.075 0.0 136 139 140
5.775 -3.0250000000000004 0.0 143 145 147
4.575 -0.025 0.0 132 131 132
4.875 -0.375 0.0 172 173 175
4.875 -0.275 0.0 134 134 134
4.925000000000001 -0.375 0.0 72 75 80
4.425 0.125 0.0 160 160 160
4.925000000000001 0.675 0.0 1 1 1
4.925000000000001 3.125 0.0 11 12 13
4.425 -0.07500000000000001 0.0 136 137 135
5.075 0.675 0.0 1 1 1
4.425 0.025 0.0 230 230 230
4.325 -0.225 0.0 139 140 139
4.2250000000000005 3.375 0.0 246 246 246
4.125 3.4250000000000003 0.0 245 245 245
4.025 3.4250000000000003 0.0 244 244 244
4.175 3.225 0.0 245 245 245
4.825 3.225 0.0 227 228 227
4.2250000000000005 0.47500000000000003 0.0 245 245 245
4.175 0.47500000000000003 0.0 245 245 245
4.275 0.47500000000000003 0.0 246 246 246
4.7250000000000005 6.9750000000000005 0.0 81 79 78
4.275 3.225 0.0 235 235 235
4.9750000000000005 3.225 0.0 88 84 84
4.125 3.0250000000000004 0.0 235 235 235
4.075 3.125 0.0 235 235 234
4.025 3.075 0.0 235 235 235
4.675 7.025 0.0 50 50 49
4.4750000000000005 4.175 0.0 242 242 242
4.375 4.175 0.0 241 241 241
0.7250000000000001 5.625 0.0 11 12 11
4.575 4.2250000000000005 0.0 237 237 237
4.575 4.175 0.0 236 237 236
0.7250000000000001 10.725000000000001 0.0 235 233 228
4.575 4.075 0.0 237 238 238
4.525 4.075 0.0 236 236 236
4.525 4.025 0.0 237 237 237
-1.7750000000000001 10.575000000000001 0.0 246 246 246
-1.5250000000000001 10.575000000000001 0.0 245 246 245
4.525 6.825 0.0 11 11 9
-1.175 10.475000000000001 0.0 110 140 161
-1.5750000000000002 9.875 0.0 103 153 21
-1.625 9.825000000000001 0.0 77 117 9
-0.875 10.425 0.0 125 154 173
-0.775 10.425 0.0 131 161 181
-0.42500000000000004 10.475000000000001 0.0 135 163 183
-0.275 10.425 0.0 150 170 183
-0.17500000000000002 10.425 0.0 144 169 187
-0.025 10.425 0.0 151 168 180
0.07500000000000001 10.575000000000001 0.0 142 167 185
0.325 10.525 0.0 148 173 190
-1.075 10.475000000000001 0.0 127 158 180
-0.675 10.425 0.0 130 159 178
-0.5750000000000001 10.475000000000001 0.0 132 160 179
0.325 10.725000000000001 0.0 146 172 189
0.5750000000000001 10.775 0.0 150 175 193
0.675 10.725000000000001 0.0 144 172 190
0.8250000000000001 10.875 0.0 146 172 191
-1.075 10.425 0.0 129 159 180
-0.925 10.475000000000001 0.0 128 159 180
0.675 10.775 0.0 245 244 242
3.5250000000000004 11.225000000000001 0.0 154 155 155
-5.4750000000000005 10.175 0.0 216 217 216
-1.475 10.475000000000001 0.0 245 245 245
-1.075 10.625 0.0 134 163 183
-0.07500000000000001 10.425 0.0 147 168 181
0.07500000000000001 10.475000000000001 0.0 192 204 211
0.42500000000000004 10.575000000000001 0.0 232 231 227
-6.425000000000001 9.925 0.0 228 231 233
-0.9750000000000001 10.525 0.0 132 161 181
-0.47500000000000003 10.475000000000001 0.0 133 161 179
-0.225 10.475000000000001 0.0 138 160 175
0.675 10.525 0.0 243 242 239
3.7750000000000004 11.325000000000001 0.0 246 246 246
-0.7250000000000001 10.525 0.0 135 164 183
-0.47500000000000003 10.425 0.0 139 166 185
0.17500000000000002 10.375 0.0 142 155 163
0.275 10.425 0.0 143 169 187
-1.3250000000000002 10.375 0.0 246 246 246
0.42500000000000004 10.525 0.0 143 170 188
0.925 10.725000000000001 0.0 135 165 185
-1.5750000000000002 10.275 0.0 246 246 246
-1.375 10.325000000000001 0.0 246 246 246
-0.225 10.575000000000001 0.0 136 164 183
-0.125 10.575000000000001 0.0 138 166 185
3.875 11.175 0.0 245 245 245
-6.525 9.925 0.0 45 71 82
-1.225 10.325000000000001 0.0 246 246 246
-1.0250000000000001 10.575000000000001 0.0 134 163 182
0.025 10.525 0.0 137 165 184
1.0250000000000001 10.775 0.0 188 203 212
1.175 10.925 0.0 135 165 185
-6.325 9.825000000000001 0.0 245 246 245
0.275 10.575000000000001 0.0 174 192 204
-1.625 9.625 0.0 148 168 122
-1.375 10.175 0.0 245 246 245
-1.2750000000000001 10.475000000000001 0.0 246 246 246
-0.875 10.575000000000001 0.0 134 163 183
-5.4750000000000005 10.125 0.0 193 193 193
-1.2750000000000001 10.425 0.0 246 245 245
-6.075 9.575000000000001 0.0 46 82 11
-5.7250000000000005 10.275 0.0 247 247 247
-1.675 9.725000000000001 0.0 124 148 100
-1.0250000000000001 10.325000000000001 0.0 109 132 149
-0.675 10.475000000000001 0.0 116 136 150
-0.375 10.425 0.0 138 161 177
-0.275 10.525 0.0 142 167 185
0.7250000000000001 5.375 0.0 231 48 48
-0.5750000000000001 10.375 0.0 143 169 187
-1.0250000000000001 10.425 0.0 124 154 175
-0.8250000000000001 10.325000000000001 0.0 141 155 165
-0.025 10.475000000000001 0.0 146 170 188
-1.425 10.425 0.0 246 246 246
-1.175 10.425 0.0 100 129 149
-0.7250000000000001 10.425 0.0 125 153 172
0.47500000000000003 10.425 0.0 245 244 242
0.5750000000000001 10.525 0.0 245 245 243
0.675 10.575000000000001 0.0 176 193 205
0.925 10.575000000000001 0.0 237 236 234
-1.175 10.575000000000001 0.0 115 142 162
-1.075 10.675 0.0 145 171 188
0.375 10.425 0.0 141 168 187
-1.675 10.425 0.0 246 246 246
-1.5250000000000001 10.325000000000001 0.0 245 246 245
-0.8250000000000001 10.525 0.0 130 160 181
0.47500000000000003 10.525 0.0 146 172 190
-1.5250000000000001 10.225000000000001 0.0 246 246 246
-1.375 9.975000000000001 0.0 247 247 247
-1.725 9.925 0.0 165 205 82
-6.025 9.125 0.0 82 124 58
-1.8250000000000002 9.825000000000001 0.0 246 246 246
-1.675 9.675 0.0 141 154 127
-1.725 10.625 0.0 245 245 245
-0.375 10.575000000000001 0.0 135 163 183
-1.925 10.525 0.0 246 246 245
-1.8250000000000002 10.525 0.0 245 245 245
-1.625 10.625 0.0 246 246 246
-1.625 10.525 0.0 246 246 246
-1.3250000000000002 10.525 0.0 245 246 245
-1.125 10.625 0.0 135 164 183
-6.425000000000001 9.825000000000001 0.0 150 164 175
-6.2250000000000005 10.025 0.0 243 243 243
-5.775 10.275 0.0 245 245 245
-1.0250000000000001 10.675 0.0 136 165 185
-1.625 10.375 0.0 245 245 245
-1.5250000000000001 10.375 0.0 245 245 245
-1.2750000000000001 10.325000000000001 0.0 246 246 246
-5.575 10.225000000000001 0.0 197 197 196
-1.675 10.125 0.0 232 239 215
-1.5750000000000002 10.125 0.0 243 244 240
-6.325 9.875 0.0 219 223 227
-1.925 10.225000000000001 0.0 245 245 245
-1.5250000000000001 9.925 0.0 231 237 214
-0.8250000000000001 10.625 0.0 136 165 184
-0.625 10.575000000000001 0.0 128 159 179
-1.875 9.925 0.0 181 200 162
-0.7250000000000001 10.625 0.0 136 165 184
-1.5250000000000001 9.775 0.0 177 203 132
-6.325 9.725000000000001 0.0 239 241 233
-6.075 8.975 0.0 88 136 30
-1.675 10.025 0.0 180 200 138
-0.525 10.275 0.0 115 115 115
-0.375 10.275 0.0 116 116 116
-6.075 9.175 0.0 53 98 5
0.17500000000000002 10.575000000000001 0.0 142 168 186
0.925 10.675 0.0 151 175 191
-2.025 10.425 0.0 245 245 245
-1.725 10.475000000000001 0.0 245 245 245
-0.07500000000000001 10.475000000000001 0.0 134 163 183
0.625 10.675 0.0 142 166 184
0.8250000000000001 10.775 0.0 144 170 188
-7.275 10.275 0.0 93 137 165
-7.175000000000001 10.325000000000001 0.0 92 137 165
-5.625 10.725000000000001 0.0 215 215 215
-1.375 10.575000000000001 0.0 245 245 245
-6.4750000000000005 9.825000000000001 0.0 25 57 82
-5.7250000000000005 10.175 0.0 245 245 245
-5.425000000000001 10.175 0.0 214 214 214
-5.625 10.675 0.0 215 215 215
-5.625 10.875 0.0 215 216 215
-1.375 10.475000000000001 0.0 245 245 245
-0.07500000000000001 10.325000000000001 0.0 144 170 188
1.225 10.675 0.0 140 169 188
-6.125 10.125 0.0 243 243 243
-5.575 10.125 0.0 204 203 203
-5.425000000000001 10.125 0.0 220 221 221
-4.775 10.375 0.0 142 141 142
-6.4750000000000005 9.975000000000001 0.0 226 229 232
-5.925000000000001 10.225000000000001 0.0 245 245 245
-5.775 10.175 0.0 244 244 244
-6.075 10.175 0.0 243 243 243
-2.125 10.725000000000001 0.0 245 245 245
0.225 10.525 0.0 147 173 190
-5.9750000000000005 10.225000000000001 0.0 245 245 245
-1.8250000000000002 10.425 0.0 245 245 245
-1.125 10.475000000000001 0.0 125 157 179
0.525 10.575000000000001 0.0 141 167 186
0.9750000000000001 10.725000000000001 0.0 148 172 190
-6.325 10.275 0.0 246 246 246
-5.825 10.225000000000001 0.0 245 245 245
-5.625 10.175 0.0 224 224 224
-2.075 10.475000000000001 0.0 245 245 245
-1.975 10.575000000000001 0.0 245 246 246
-1.675 10.175 0.0 239 241 232
-1.5250000000000001 10.125 0.0 245 245 245
-1.3250000000000002 10.325000000000001 0.0 246 246 246
0.5750000000000001 10.575000000000001 0.0 144 171 189
1.175 10.825000000000001 0.0 144 171 188
-6.325 9.275 0.0 98 157 22
-6.075 9.125 0.0 101 151 23
-5.925000000000001 9.525 0.0 202 216 172
-5.7250000000000005 10.225000000000001 0.0 245 245 245
-1.475 9.675 0.0 246 247 246
-1.125 10.425 0.0 129 160 181
-1.7750000000000001 9.725000000000001 0.0 242 243 240
-1.5750000000000002 9.725000000000001 0.0 213 224 195
-6.2250000000000005 10.325000000000001 0.0 245 245 245
-6.075 10.275 0.0 244 244 244
-5.875 10.175 0.0 245 245 245
-5.525 10.325000000000001 0.0 216 217 216
-1.725 9.825000000000001 0.0 202 216 161
-1.5250000000000001 10.025 0.0 246 246 246
-6.375 10.225000000000001 0.0 245 245 245
-6.025 10.175 0.0 243 243 243
-5.9750000000000005 10.325000000000001 0.0 246 246 246
-2.075 10.425 0.0 245 245 245
-1.7750000000000001 9.575000000000001 0.0 245 245 245
-1.125 10.325000000000001 0.0 118 153 176
-8.125 9.425 0.0 10 11 10
-1.3250000000000002 10.575000000000001 0.0 245 246 245
-1.875 10.425 0.0 246 246 246
-0.275 10.575000000000001 0.0 133 162 182
-1.925 10.625 0.0 246 246 246
-1.875 10.675 0.0 246 246 246
-6.125 10.025 0.0 244 244 244
-6.025 10.075000000000001 0.0 243 243 243
-5.925000000000001 10.175 0.0 246 246 246
-5.7250000000000005 10.125 0.0 245 245 245
-5.575 10.575000000000001 0.0 220 221 220
-1.975 10.725000000000001 0.0 246 246 246
-6.325 10.025 0.0 201 215 223
-6.175000000000001 10.075000000000001 0.0 245 245 245
-5.925000000000001 10.125 0.0 244 244 244
-2.075 10.675 0.0 245 245 245
-1.725 10.325000000000001 0.0 245 245 245
-6.575 9.875 0.0 42 78 105
-6.375 10.025 0.0 242 242 242
-6.275 10.125 0.0 243 243 243
-5.775 10.025 0.0 245 245 245
-1.975 10.175 0.0 246 246 246
-5.375 10.125 0.0 227 227 227
-1.3250000000000002 9.675 0.0 198 216 161
-5.375 10.025 0.0 225 226 225
-1.3250000000000002 9.625 0.0 245 246 245
-5.875 10.125 0.0 245 245 245
-0.5750000000000001 10.325000000000001 0.0 135 135 135
-1.7750000000000001 9.875 0.0 185 204 157
-1.625 9.675 0.0 197 207 181
-5.825 10.075000000000001 0.0 244 245 245
-1.975 10.475000000000001 0.0 245 245 245
0.025 10.575000000000001 0.0 137 165 185
-8.525 10.025 0.0 84 132 163
-7.875 10.175 0.0 84 133 164
-7.075 10.375 0.0 89 135 165
-6.025 9.975000000000001 0.0 245 245 245
-5.575 11.025 0.0 218 219 218
-8.625 9.975000000000001 0.0 81 130 162
-8.025 10.175 0.0 81 131 162
-7.525 10.325000000000001 0.0 88 136 166
-5.525 10.925 0.0 219 219 219
-2.125 10.775 0.0 245 245 245
-7.925000000000001 10.225000000000001 0.0 83 131 162
-7.775 10.275 0.0 88 135 164
-5.925000000000001 9.975000000000001 0.0 243 243 243
-2.025 10.825000000000001 0.0 245 245 245
-8.975 9.575000000000001 0.0 76 126 159
-7.675000000000001 10.275 0.0 87 135 164
-7.375 10.275 0.0 84 133 164
-5.875 10.025 0.0 245 245 245
-5.7250000000000005 10.025 0.0 244 244 244
-4.875 10.475000000000001 0.0 156 155 156
-7.775 10.375 0.0 84 133 164
-7.575 10.325000000000001 0.0 85 133 162
-1.8250000000000002 10.275 0.0 245 245 245
-6.575 9.975000000000001 0.0 72 111 81
-6.125 9.925 0.0 245 245 245
-5.575 10.425 0.0 220 220 220
-6.075 9.025 0.0 73 130 25
-8.075000000000001 10.075000000000001 0.0 77 128 161
-7.575 10.225000000000001 0.0 84 131 162
-6.275 9.025 0.0 83 139 18
-6.2250000000000005 9.725000000000001 0.0 101 135 55
-0.675 10.575000000000001 0.0 129 161 182
-6.425000000000001 10.375 0.0 245 245 245
-1.3250000000000002 9.975000000000001 0.0 246 246 246
-7.525 10.125 0.0 81 131 162
-0.47500000000000003 10.575000000000001 0.0 121 152 174
-7.925000000000001 9.375 0.0 44 45 44
-5.9750000000000005 8.975 0.0 59 94 37
-6.325 10.175 0.0 245 245 245
-5.4750000000000005 10.225000000000001 0.0 219 219 219
-5.7250000000000005 10.875 0.0 216 216 216
-4.675 10.225000000000001 0.0 162 162 162
-2.225 10.675 0.0 246 246 246
-8.425 9.375 0.0 12 12 12
-0.875 10.225000000000001 0.0 105 105 105
-5.675000000000001 11.775 0.0 224 224 224
-2.075 10.575000000000001 0.0 246 245 246
-5.625 11.125 0.0 221 222 221
-1.5750000000000002 10.225000000000001 0.0 246 246 246
-6.025 9.925 0.0 245 245 245
-5.425000000000001 10.025 0.0 231 231 231
-5.625 10.825000000000001 0.0 221 221 221
-5.825 11.575000000000001 0.0 220 220 220
-1.8250000000000002 10.175 0.0 241 243 230
-5.575 10.025 0.0 245 245 245
-1.875 10.075000000000001 0.0 246 246 246
-5.675000000000001 10.775 0.0 216 216 216
-5.675000000000001 11.025 0.0 221 221 221
-1.925 10.175 0.0 244 245 243
-1.475 9.725000000000001 0.0 208 219 185
-1.2750000000000001 10.075000000000001 0.0 232 236 221
-5.7250000000000005 11.325000000000001 0.0 223 223 223
-1.425 9.775 0.0 74 123 7
-5.825 11.425 0.0 225 225 225
-1.2750000000000001 10.575000000000001 0.0 245 246 245
-0.875 10.325000000000001 0.0 127 160 180
-7.875 10.325000000000001 0.0 83 132 162
-5.9750000000000005 8.725 0.0 96 154 40
-6.175000000000001 9.775 0.0 180 204 139
-6.025 9.775 0.0 246 246 246
-5.675000000000001 10.725000000000001 0.0 219 219 219
-5.675000000000001 10.675 0.0 218 219 219
-1.875 9.725000000000001 0.0 185 209 149
-1.075 10.325000000000001 0.0 117 152 176
-0.7250000000000001 10.325000000000001 0.0 167 167 167
-7.9750000000000005 10.325000000000001 0.0 84 132 164
-6.175000000000001 9.025 0.0 63 110 4
-6.125 9.525 0.0 245 245 245
-7.425000000000001 10.225000000000001 0.0 90 138 167
-6.2250000000000005 9.925 0.0 245 245 245
-8.675 9.925 0.0 78 128 160
-8.375 10.075000000000001 0.0 77 127 159
-8.275 10.125 0.0 78 129 161
-8.125 10.275 0.0 78 129 161
-5.875 11.875 0.0 221 221 221
-4.7250000000000005 10.325000000000001 0.0 206 206 206
-8.225 10.175 0.0 78 129 161
0.025 10.425 0.0 227 226 224
-5.675000000000001 10.625 0.0 223 223 223
-7.175000000000001 10.425 0.0 87 132 162
0.07500000000000001 10.425 0.0 207 206 205
-7.325 10.425 0.0 85 134 164
-5.775 11.025 0.0 224 224 224
-5.625 11.175 0.0 219 220 219
-5.775 11.825000000000001 0.0 219 219 219
-1.875 10.325000000000001 0.0 245 245 245
-6.125 9.775 0.0 225 231 213
-5.775 11.175 0.0 220 220 221
-1.8250000000000002 10.075000000000001 0.0 246 246 246
-5.775 11.125 0.0 218 218 218
-5.825 11.725000000000001 0.0 217 217 217
-4.775 10.325000000000001 0.0 74 72 73
-6.025 9.025 0.0 63 110 19
-6.125 9.325000000000001 0.0 76 127 158
-1.5250000000000001 9.625 0.0 245 245 245
-1.225 10.175 0.0 246 246 246
-7.625 10.175 0.0 80 130 162
-5.775 11.325000000000001 0.0 219 219 219
-1.425 9.725000000000001 0.0 92 129 58
-8.475 9.675 0.0 44 69 86
-7.9750000000000005 10.375 0.0 85 133 164
-6.425000000000001 10.075000000000001 0.0 239 239 239
-8.075000000000001 9.575000000000001 0.0 2 2 2
-7.4750000000000005 10.175 0.0 78 128 159
-6.375 10.175 0.0 246 246 246
0.225 10.325000000000001 0.0 121 121 121
-5.525 11.075000000000001 0.0 173 172 173
-2.225 10.875 0.0 246 246 246
-7.125 10.325000000000001 0.0 90 136 166
-2.025 10.675 0.0 246 246 246
-5.875 11.775 0.0 224 224 224
-7.7250000000000005 10.425 0.0 86 133 163
-6.875 10.125 0.0 91 139 168
-1.625 10.175 0.0 244 245 240
-1.5250000000000001 10.175 0.0 246 246 246
-8.375 10.175 0.0 76 128 161
-1.375 9.925 0.0 61 93 24
-1.875 9.625 0.0 210 218 203
-1.375 10.225000000000001 0.0 245 246 245
-8.475 10.025 0.0 76 127 159
-5.825 11.675 0.0 226 226 226
-1.625 9.975000000000001 0.0 211 228 180
-5.675000000000001 11.225000000000001 0.0 219 219 219
-8.075000000000001 10.175 0.0 79 131 162
-1.725 9.525 0.0 100 146 35
-1.0250000000000001 10.225000000000001 0.0 138 167 186
-0.8250000000000001 10.225000000000001 0.0 86 87 86
-8.425 10.025 0.0 75 128 161
-1.975 10.275 0.0 245 245 245
-8.275 10.025 0.0 78 131 162
-8.125 10.225000000000001 0.0 76 129 161
-7.9750000000000005 10.225000000000001 0.0 79 129 162
-7.825 10.225000000000001 0.0 82 132 164
-8.475 9.325000000000001 0.0 15 15 15
-8.025 9.625 0.0 67 113 141
-7.925000000000001 9.275 0.0 3 4 3
-5.7250000000000005 11.125 0.0 217 218 218
-5.525 10.025 0.0 242 242 242
-7.625 10.375 0.0 82 130 162
-4.675 10.175 0.0 84 82 82
-4.925000000000001 10.525 0.0 71 71 69
-7.525 10.475000000000001 0.0 84 131 160
-7.375 10.575000000000001 0.0 81 130 160
-7.875 10.375 0.0 81 131 162
-5.575 10.525 0.0 221 222 221
-6.375 9.625 0.0 109 164 68
-5.775 11.525 0.0 220 220 220
-6.2250000000000005 9.575000000000001 0.0 74 120 26
-2.025 9.975000000000001 0.0 107 162 17
-6.2250000000000005 9.175 0.0 60 96 15
-1.8250000000000002 9.675 0.0 198 218 146
-1.7750000000000001 9.975000000000001 0.0 244 245 244
-1.2750000000000001 10.025 0.0 245 245 245
-2.1750000000000003 10.575000000000001 0.0 246 246 246
-2.1750000000000003 10.475000000000001 0.0 241 241 241
-5.525 10.375 0.0 221 221 221
-5.625 11.225000000000001 0.0 218 218 218
-6.175000000000001 13.625 0.0 220 220 220
-7.525 10.425 0.0 81 131 163
-6.075 13.625 0.0 220 220 220
-5.7250000000000005 11.375 0.0 224 224 224
-7.425000000000001 10.375 0.0 86 134 164
-1.975 9.925 0.0 128 169 55
-1.875 9.975000000000001 0.0 214 227 185
-1.3250000000000002 9.825000000000001 0.0 224 231 204
-5.325 11.775 0.0 222 222 222
-4.9750000000000005 10.675 0.0 74 72 72
-1.3250000000000002 10.875 0.0 246 246 246
-1.475 10.675 0.0 245 245 245
-8.025 10.125 0.0 78 128 161
-6.325 9.675 0.0 29 61 44
-2.075 10.325000000000001 0.0 246 246 246
-1.725 9.475 0.0 109 154 40
-1.0250000000000001 10.175 0.0 124 159 181
-0.775 10.125 0.0 130 130 130
-7.675000000000001 10.175 0.0 76 127 159
-5.7250000000000005 11.175 0.0 220 221 220
-8.475 9.725000000000001 0.0 68 124 158
-5.925000000000001 9.025 0.0 56 99 116
-2.225 10.775 0.0 171 171 171
-5.675000000000001 10.475000000000001 0.0 214 215 214
-5.575 10.325000000000001 0.0 217 217 217
-5.9750000000000005 11.775 0.0 213 213 213
-6.075 13.125 0.0 202 203 202
-5.925000000000001 11.725000000000001 0.0 209 209 209
-6.175000000000001 13.825000000000001 0.0 206 206 206
-6.2250000000000005 14.225000000000001 0.0 208 208 208
-6.125 12.975000000000001 0.0 211 211 211
-4.625 10.125 0.0 53 51 51
-6.275 13.925 0.0 208 209 208
-5.925000000000001 11.625 0.0 206 206 206
-1.725 10.225000000000001 0.0 218 231 191
-6.2250000000000005 13.475000000000001 0.0 211 212 212
-6.2250000000000005 13.725000000000001 0.0 209 209 209
-6.4750000000000005 10.075000000000001 0.0 245 245 245
-1.3250000000000002 9.725000000000001 0.0 83 130 33
-6.175000000000001 10.175 0.0 245 245 245
-1.725 9.625 0.0 240 240 239
-1.5750000000000002 10.675 0.0 245 245 245
-5.875 12.375 0.0 214 214 214
-6.025 13.175 0.0 219 220 219
-4.625 10.225000000000001 0.0 201 202 202
-6.075 14.225000000000001 0.0 216 216 216
-6.575 9.825000000000001 0.0 55 100 130
-5.775 10.725000000000001 0.0 216 216 216
-5.775 10.675 0.0 215 216 215
-5.875 12.275 0.0 214 214 214
-6.025 12.825000000000001 0.0 217 217 217
-6.075 12.075000000000001 0.0 215 215 215
-4.525 10.075000000000001 0.0 214 215 214
-6.175000000000001 14.125 0.0 215 216 215
-6.175000000000001 14.325000000000001 0.0 219 219 219
-5.9750000000000005 11.975000000000001 0.0 216 216 216
-5.9750000000000005 11.925 0.0 213 213 213
-7.675000000000001 10.225000000000001 0.0 94 152 24
-6.4750000000000005 10.175 0.0 246 246 246
-6.4750000000000005 9.725000000000001 0.0 80 128 160
-4.675 10.275 0.0 213 213 213
-5.925000000000001 12.275 0.0 221 221 221
-5.925000000000001 12.675 0.0 215 216 215
-5.9750000000000005 12.875 0.0 213 213 213
-6.025 13.125 0.0 217 218 217
-6.125 13.925 0.0 212 213 212
-5.875 9.925 0.0 225 226 225
-6.375 14.875 0.0 212 212 212
-6.275 14.925 0.0 223 223 223
-6.275 15.275 0.0 216 216 216
-6.325 14.775 0.0 212 213 212
-6.125 12.825000000000001 0.0 215 216 216
-6.325 14.725000000000001 0.0 213 213 213
-6.375 14.775 0.0 214 214 214
-6.275 15.175 0.0 211 211 211
-5.525 10.975000000000001 0.0 216 216 216
-4.925000000000001 11.175 0.0 215 216 215
-6.325 15.025 0.0 223 223 223
-5.825 9.925 0.0 232 232 232
-6.175000000000001 13.975000000000001 0.0 213 214 214
-1.7750000000000001 10.225000000000001 0.0 245 245 245
-5.825 12.025 0.0 215 215 215
-5.525 10.825000000000001 0.0 223 223 223
-5.7250000000000005 12.075000000000001 0.0 215 215 215
-6.375 14.975000000000001 0.0 212 212 211
-5.925000000000001 11.875 0.0 213 213 213
-6.325 14.625 0.0 214 214 214
-6.125 13.775 0.0 213 213 213
-6.325 15.125 0.0 211 211 211
-5.025 11.225000000000001 0.0 108 108 108
-6.2250000000000005 14.925 0.0 225 226 226
-6.2250000000000005 14.375 0.0 212 213 212
-6.175000000000001 14.575000000000001 0.0 210 211 211
-5.9750000000000005 12.625 0.0 221 222 221
-6.025 12.975000000000001 0.0 219 220 219
-6.025 13.325000000000001 0.0 203 204 203
-4.7250000000000005 10.225000000000001 0.0 45 45 44
-6.2250000000000005 14.675 0.0 221 221 221
-5.825 12.275 0.0 226 226 226
-6.075 13.375 0.0 220 220 220
-5.875 12.225000000000001 0.0 208 209 208
-6.175000000000001 13.875 0.0 226 226 226
-4.9750000000000005 11.025 0.0 211 211 212
-5.7250000000000005 12.425 0.0 220 220 220
-6.125 13.325000000000001 0.0 207 208 207
-5.2250000000000005 11.475000000000001 0.0 118 118 118
-6.125 13.675 0.0 228 228 228
-1.425 9.625 0.0 178 198 126
-5.2250000000000005 11.425 0.0 216 216 216
-6.275 14.125 0.0 221 221 221
-1.475 9.525 0.0 108 152 44
-6.075 13.175 0.0 220 220 220
-5.525 10.675 0.0 232 232 232
-6.2250000000000005 13.125 0.0 214 214 214
-6.175000000000001 13.175 0.0 219 220 220
-1.425 10.725000000000001 0.0 245 245 245
-4.625 10.175 0.0 90 89 90
-6.375 9.725000000000001 0.0 63 108 139
-6.375 9.675 0.0 77 129 162
-5.9750000000000005 12.225000000000001 0.0 193 192 192
-5.925000000000001 13.375 0.0 210 211 210
-6.425000000000001 16.425 0.0 187 189 188
-5.9750000000000005 12.125 0.0 198 199 198
-5.875 12.075000000000001 0.0 197 198 198
-5.925000000000001 13.275 0.0 189 189 188
-6.275 14.175 0.0 188 189 188
-5.925000000000001 13.225000000000001 0.0 193 194 193
-5.925000000000001 12.125 0.0 199 200 199
-6.275 15.375 0.0 188 189 188
-6.425000000000001 16.175 0.0 187 187 187
-6.125 14.125 0.0 186 187 186
-6.4750000000000005 15.925 0.0 185 184 185
-6.4750000000000005 15.975000000000001 0.0 190 190 190
-6.325 14.025 0.0 192 193 192
-1.8250000000000002 10.725000000000001 0.0 245 245 245
-5.925000000000001 11.975000000000001 0.0 197 198 197
-5.7250000000000005 11.925 0.0 192 192 193
-5.925000000000001 12.625 0.0 222 223 222
-5.525 10.725000000000001 0.0 228 228 228
-5.7250000000000005 12.025 0.0 217 217 217
-6.575 10.175 0.0 245 245 245
-6.125 14.025 0.0 223 223 223
-6.575 10.125 0.0 245 245 245
-5.775 10.425 0.0 230 230 230
-6.9750000000000005 9.775 0.0 63 117 151
-6.425000000000001 16.125 0.0 235 235 235
-6.925000000000001 9.725000000000001 0.0 63 116 150
-6.9750000000000005 9.725000000000001 0.0 61 113 147
-6.125 13.475000000000001 0.0 234 234 234
-6.925000000000001 9.675 0.0 59 115 150
-5.025 11.175 0.0 89 89 88
-6.825 9.725000000000001 0.0 62 114 148
-6.675000000000001 9.775 0.0 61 115 150
-6.825 9.625 0.0 120 170 104
-5.525 10.525 0.0 234 234 234
-5.525 10.575000000000001 0.0 231 232 231
-7.825 9.825000000000001 0.0 63 119 131
-5.875 8.975 0.0 47 86 36
-4.525 10.025 0.0 47 45 46
-5.925000000000001 8.975 0.0 59 114 5
-6.625 9.725000000000001 0.0 63 120 155
-5.825 9.025 0.0 88 144 48
-6.175000000000001 15.275 0.0 240 240 240
-6.175000000000001 15.225000000000001 0.0 239 239 239
-8.025 9.875 0.0 54 105 140
-8.025 9.825000000000001 0.0 53 106 141
-6.2250000000000005 14.975000000000001 0.0 239 239 239
-7.9750000000000005 9.725000000000001 0.0 54 105 140
-7.925000000000001 9.825000000000001 0.0 55 108 143
-6.575 17.675 0.0 239 240 239
-7.875 9.675 0.0 53 108 143
-5.575 11.875 0.0 240 240 240
-5.825 8.975 0.0 73 97 20
-5.875 9.125 0.0 137 140 145
-5.625 9.925 0.0 239 239 239
-5.525 9.925 0.0 238 238 238
-5.775 10.525 0.0 241 241 241
-5.7250000000000005 9.225 0.0 110 165 14
-5.775 9.175 0.0 119 167 41
-5.875 9.025 0.0 31 68 97
-5.7250000000000005 8.975 0.0 32 70 100
-9.075000000000001 9.575000000000001 0.0 31 68 97
-11.325000000000001 9.475 0.0 31 67 96
-11.375 9.475 0.0 31 66 95
-12.325000000000001 9.425 0.0 31 66 94
-11.025 9.625 0.0 29 64 92
-7.775 9.875 0.0 55 108 7
-7.7250000000000005 9.925 0.0 33 71 97
-5.875 8.925 0.0 32 71 102
-9.875 9.625 0.0 30 67 96
-7.775 9.475 0.0 3 4 3
-7.925000000000001 9.175 0.0 4 4 3
-7.775 9.375 0.0 19 20 19
-5.675000000000001 9.075000000000001 0.0 107 107 110
-5.925000000000001 9.925 0.0 223 224 224
-9.075000000000001 9.675 0.0 30 66 94
-11.125 9.625 0.0 28 62 89
-10.025 9.675 0.0 29 65 93
-8.925 9.725000000000001 0.0 29 64 92
-5.875 9.375 0.0 90 127 63
-5.925000000000001 9.175 0.0 42 80 47
-5.875 9.325000000000001 0.0 123 172 39
-5.7250000000000005 9.875 0.0 224 225 225
