ply
format ascii 1.0
element vertex 120
property float x
property float y
property float z
property uchar red
property uchar green
property uchar blue
end_header
4.9750000000000005 -0.325 0.0 219 219 219
4.575 0.17500000000000002 0.0 230 230 230
4.625 0.025 0.0 205 205 205
4.675 -0.07500000000000001 0.0 233 233 233
4.4750000000000005 -0.07500000000000001 0.0 135 136 135
4.875 0.47500000000000003 0.0 172 172 172
4.425 0.025 0.0 132 131 132
4.425 -0.07500000000000001 0.0 135 136 135
4.4750000000000005 0.275 0.0 242 242 242
4.7250000000000005 0.47500000000000003 0.0 112 113 112
4.525 0.17500000000000002 0.0 236 236 236
4.575 0.275 0.0 238 238 238
4.525 0.125 0.0 230 231 230
4.625 0.125 0.0 234 234 234
4.575 -0.125 0.0 219 219 219
4.425 0.275 0.0 236 236 236
4.625 0.375 0.0 191 191 191
4.875 -0.325 0.0 226 226 227
4.825 -0.275 0.0 177 179 181
4.825 0.375 0.0 224 224 224
0.07500000000000001 0.07500000000000001 0.0 10 10 10
0.07500000000000001 0.025 0.0 9 9 9
0.07500000000000001 -0.025 0.0 4 4 4
0.07500000000000001 -0.07500000000000001 0.0 3 3 3
4.125 0.375 0.0 245 245 245
5.075 0.5750000000000001 0.0 232 232 232
4.825 0.47500000000000003 0.0 227 227 227
4.925000000000001 0.47500000000000003 0.0 214 214 214
4.9750000000000005 0.42500000000000004 0.0 246 246 246
4.9750000000000005 0.47500000000000003 0.0 215 215 215
4.9750000000000005 0.5750000000000001 0.0 200 200 200
4.9750000000000005 -0.42500000000000004 0.0 236 236 236
4.9750000000000005 -0.47500000000000003 0.0 212 212 213
4.925000000000001 -0.375 0.0 245 246 246
4.925000000000001 -0.47500000000000003 0.0 232 232 232
4.925000000000001 0.5750000000000001 0.0 165 165 165
4.7250000000000005 0.325 0.0 246 246 246
4.125 0.125 0.0 246 246 246
4.175 0.125 0.0 246 247 246
4.125 0.025 0.0 246 246 246
4.125 0.225 0.0 247 247 247
4.075 0.275 0.0 245 245 245
4.175 0.225 0.0 246 246 246
4.9750000000000005 -0.225 0.0 245 245 245
4.925000000000001 0.375 0.0 246 246 246
4.575 -0.025 0.0 245 246 245
4.675 -0.275 0.0 229 229 229
4.575 -0.275 0.0 245 245 245
4.925000000000001 -2.9250000000000003 0.0 192 193 192
4.4750000000000005 0.025 0.0 247 247 247
4.875 -2.9250000000000003 0.0 194 195 194
4.525 -0.025 0.0 246 246 246
4.425 0.225 0.0 246 246 246
4.625 -0.17500000000000002 0.0 245 246 245
4.675 0.375 0.0 246 246 246
4.825 0.275 0.0 246 246 246
4.875 0.275 0.0 246 247 246
4.775 -0.07500000000000001 0.0 246 246 246
4.675 0.225 0.0 246 246 246
4.875 -0.225 0.0 243 243 243
4.7250000000000005 0.42500000000000004 0.0 246 246 246
4.925000000000001 -0.325 0.0 245 245 245
4.675 -0.025 0.0 246 246 246
4.7250000000000005 -0.025 0.0 246 246 246
4.675 0.125 0.0 246 246 246
4.7250000000000005 0.025 0.0 246 246 246
4.7250000000000005 -0.275 0.0 246 246 245
4.525 0.375 0.0 246 246 246
4.875 -0.42500000000000004 0.0 246 246 246
4.775 -0.225 0.0 180 182 184
4.875 -0.47500000000000003 0.0 228 228 228
4.9750000000000005 -0.125 0.0 247 247 247
5.025 -0.025 0.0 246 246 246
4.675 -0.17500000000000002 0.0 246 246 246
4.9750000000000005 -2.9250000000000003 0.0 194 195 194
4.675 0.325 0.0 245 245 245
4.7250000000000005 -0.17500000000000002 0.0 246 246 246
5.025 0.275 0.0 246 246 246
5.025 0.07500000000000001 0.0 246 247 246
5.025 0.025 0.0 245 245 245
5.025 0.17500000000000002 0.0 247 247 246
4.875 0.17500000000000002 0.0 245 245 245
4.775 0.07500000000000001 0.0 246 246 246
4.675 0.025 0.0 246 246 246
4.775 -0.025 0.0 246 246 246
4.875 0.42500000000000004 0.0 246 246 246
4.7250000000000005 0.225 0.0 246 247 246
4.525 -0.275 0.0 246 246 246
4.425 0.125 0.0 246 246 246
5.075 0.525 0.0 224 224 224
4.525 -0.225 0.0 246 246 246
4.675 0.47500000000000003 0.0 212 213 212
4.925000000000001 -0.07500000000000001 0.0 245 245 245
4.875 -0.125 0.0 246 246 246
4.4750000000000005 3.325 0.0 148 149 149
4.7250000000000005 -0.07500000000000001 0.0 246 246 246
4.375 3.2750000000000004 0.0 149 150 150
4.325 3.225 0.0 147 147 147
4.325 3.2750000000000004 0.0 149 150 149
4.375 3.225 0.0 148 149 148
4.775 -0.375 0.0 88 94 98
4.2250000000000005 3.2750000000000004 0.0 152 153 153
4.175 3.375 0.0 157 157 158
-0.275 0.07500000000000001 0.0 152 153 153
-0.225 0.025 0.0 1 1 1
4.925000000000001 0.325 0.0 246 246 246
4.525 2.975 0.0 233 233 235
4.925000000000001 0.17500000000000002 0.0 246 246 246
4.925000000000001 -0.17500000000000002 0.0 0 0 0
4.425 3.0250000000000004 0.0 30 29 29
4.775 0.225 0.0 247 247 247
4.325 3.075 0.0 129 129 130
4.2250000000000005 3.4250000000000003 0.0 246 245 246
4.2250000000000005 3.225 0.0 151 152 151
4.7250000000000005 -0.375 0.0 81 92 96
4.425 0.375 0.0 245 245 245
4.675 -0.375 0.0 107 119 123
4.7250000000000005 -0.47500000000000003 0.0 93 108 118
4.325 3.0250000000000004 0.0 159 160 159
4.7250000000000005 0.125 0.0 246 246 246
