ply
format ascii 1.0
element vertex 758
property float x
property float y
property float z
property uchar red
property uchar green
property uchar blue
end_header
4.875 -0.17500000000000002 0.0 135 137 136
4.925000000000001 -0.325 0.0 235 235 235
4.825 -0.125 0.0 134 135 134
4.9750000000000005 0.375 0.0 221 221 221
4.9750000000000005 0.525 0.0 186 186 186
4.925000000000001 0.525 0.0 152 152 152
4.925000000000001 0.42500000000000004 0.0 236 236 236
4.775 0.325 0.0 191 192 191
4.775 0.225 0.0 189 189 189
4.875 -0.325 0.0 231 231 231
4.7250000000000005 0.375 0.0 218 219 218
4.625 0.275 0.0 232 232 232
4.625 0.225 0.0 231 232 231
4.675 0.125 0.0 225 226 225
4.825 0.025 0.0 209 209 209
4.675 0.025 0.0 224 224 224
4.825 -0.275 0.0 232 232 232
4.875 0.025 0.0 137 138 137
4.675 0.17500000000000002 0.0 193 193 193
4.875 -0.125 0.0 228 228 228
4.625 0.07500000000000001 0.0 209 209 209
0.07500000000000001 0.07500000000000001 0.0 11 11 11
0.07500000000000001 0.025 0.0 9 10 10
0.07500000000000001 -0.025 0.0 4 4 4
0.07500000000000001 -0.07500000000000001 0.0 3 3 3
4.075 0.325 0.0 246 246 246
5.9750000000000005 -3.2750000000000004 0.0 184 184 184
4.075 -0.025 0.0 246 246 246
4.075 -0.07500000000000001 0.0 245 245 245
4.075 0.025 0.0 247 247 247
5.125 0.47500000000000003 0.0 238 238 238
5.925000000000001 -3.2750000000000004 0.0 187 188 187
6.075 -3.125 0.0 8 6 6
5.075 -0.375 0.0 246 247 246
5.025 -0.375 0.0 246 246 246
5.025 0.5750000000000001 0.0 213 213 213
4.9750000000000005 -0.47500000000000003 0.0 227 227 227
4.925000000000001 -0.47500000000000003 0.0 237 238 238
4.925000000000001 -0.375 0.0 246 246 246
5.925000000000001 -3.125 0.0 52 52 51
4.925000000000001 0.5750000000000001 0.0 161 161 160
5.875 -3.125 0.0 56 54 54
5.925000000000001 -3.225 0.0 63 63 63
4.875 0.42500000000000004 0.0 247 247 247
4.125 0.225 0.0 245 245 245
5.025 -0.325 0.0 245 245 245
5.9750000000000005 -3.225 0.0 55 53 54
5.025 0.17500000000000002 0.0 246 246 246
5.025 0.025 0.0 245 245 245
5.025 -0.225 0.0 246 246 246
5.9750000000000005 -3.375 0.0 189 190 188
4.925000000000001 0.275 0.0 246 246 246
5.025 0.125 0.0 246 246 246
5.925000000000001 -3.375 0.0 189 189 188
4.925000000000001 0.225 0.0 246 247 246
5.9750000000000005 -3.125 0.0 103 101 101
4.9750000000000005 -0.025 0.0 246 246 246
4.9750000000000005 -0.07500000000000001 0.0 246 246 246
4.925000000000001 -0.07500000000000001 0.0 245 245 245
4.875 0.125 0.0 247 247 247
4.925000000000001 0.025 0.0 246 246 246
4.925000000000001 -0.025 0.0 246 246 246
4.925000000000001 -0.225 0.0 246 245 246
5.875 -3.2750000000000004 0.0 189 190 189
4.925000000000001 0.125 0.0 246 246 246
4.875 0.17500000000000002 0.0 246 246 246
5.075 0.5750000000000001 0.0 230 230 230
4.825 -0.225 0.0 245 246 245
4.7250000000000005 0.275 0.0 246 246 246
4.825 0.375 0.0 245 246 245
4.825 -0.025 0.0 246 246 246
4.7250000000000005 0.125 0.0 246 246 246
4.775 0.125 0.0 246 246 246
5.075 0.325 0.0 246 246 246
5.075 0.225 0.0 246 246 246
5.025 0.325 0.0 246 246 246
4.9750000000000005 -2.9250000000000003 0.0 194 195 194
4.7250000000000005 -0.07500000000000001 0.0 245 245 245
4.925000000000001 -2.9250000000000003 0.0 192 192 192
4.7250000000000005 0.17500000000000002 0.0 245 246 245
4.7250000000000005 0.025 0.0 245 245 245
4.875 -2.9250000000000003 0.0 193 194 193
4.4750000000000005 0.275 0.0 246 246 246
4.525 0.17500000000000002 0.0 246 246 246
4.7250000000000005 -0.325 0.0 245 245 245
5.525 -3.1750000000000003 0.0 205 206 205
4.675 0.325 0.0 248 248 247
5.875 -3.0250000000000004 0.0 4 4 3
4.675 -0.025 0.0 246 246 246
4.875 0.47500000000000003 0.0 246 246 246
4.575 -0.17500000000000002 0.0 245 245 245
4.675 -0.225 0.0 246 246 246
4.625 0.025 0.0 246 246 246
4.675 -0.07500000000000001 0.0 247 247 247
5.7250000000000005 -3.125 0.0 163 164 163
4.7250000000000005 -0.025 0.0 245 246 246
5.675000000000001 -3.1750000000000003 0.0 194 195 195
4.625 0.375 0.0 246 246 246
4.7250000000000005 -0.17500000000000002 0.0 246 246 246
5.575 -3.1750000000000003 0.0 196 196 195
4.425 0.275 0.0 245 246 245
5.125 -2.9250000000000003 0.0 201 202 201
4.2250000000000005 0.325 0.0 246 246 246
5.425000000000001 0.5750000000000001 0.0 71 69 69
4.175 0.375 0.0 245 245 245
5.075 -2.975 0.0 219 219 219
5.825 -3.2750000000000004 0.0 199 199 199
5.025 -3.0250000000000004 0.0 192 192 193
4.425 0.225 0.0 245 245 245
5.025 -2.975 0.0 216 216 216
4.875 0.325 0.0 244 245 244
4.675 0.375 0.0 245 245 245
5.375 -3.2750000000000004 0.0 210 210 210
5.325 -3.2750000000000004 0.0 210 211 210
5.375 -3.125 0.0 208 209 208
5.2250000000000005 -3.375 0.0 247 247 247
5.175000000000001 -3.2750000000000004 0.0 219 220 219
5.025 -3.075 0.0 203 204 203
5.125 -3.125 0.0 200 200 200
5.575 -3.325 0.0 219 219 219
5.575 -3.125 0.0 214 214 214
5.325 -3.475 0.0 246 246 246
5.425000000000001 -3.125 0.0 229 229 229
5.375 -3.1750000000000003 0.0 217 218 217
5.125 -3.2750000000000004 0.0 245 246 245
5.4750000000000005 -3.075 0.0 217 217 217
5.325 -3.075 0.0 214 214 214
5.325 -3.1750000000000003 0.0 218 218 218
5.2250000000000005 -3.125 0.0 217 217 217
5.175000000000001 -3.1750000000000003 0.0 218 218 218
4.675 -0.275 0.0 246 246 246
5.125 -3.225 0.0 221 221 221
5.025 -3.2750000000000004 0.0 246 246 246
5.025 -3.875 0.0 242 242 242
5.125 -3.6750000000000003 0.0 245 245 245
5.025 -3.725 0.0 245 245 245
4.7250000000000005 -3.7750000000000004 0.0 242 242 242
3.725 -4.075 0.0 33 57 6
4.425 -4.575 0.0 153 189 79
4.275 0.325 0.0 245 245 245
4.375 -4.7250000000000005 0.0 68 88 58
4.825 -3.125 0.0 244 244 244
6.2250000000000005 -3.2750000000000004 0.0 36 36 35
5.175000000000001 -3.0250000000000004 0.0 237 237 237
5.125 -3.0250000000000004 0.0 237 237 236
4.425 -4.675 0.0 16 38 1
4.825 -3.225 0.0 244 245 244
4.525 -4.525 0.0 78 128 4
4.375 -4.825 0.0 47 57 42
3.075 -5.375 0.0 9 10 9
4.775 -3.7750000000000004 0.0 243 243 243
6.075 -3.225 0.0 28 27 27
4.625 -4.775 0.0 100 141 60
2.6750000000000003 -4.925000000000001 0.0 168 31 31
2.6750000000000003 -5.025 0.0 8 9 8
2.625 -5.075 0.0 139 132 109
2.625 -5.275 0.0 16 16 16
1.3250000000000002 -5.275 0.0 28 28 28
5.125 -3.575 0.0 241 241 241
4.875 -3.6750000000000003 0.0 242 242 241
5.275 -6.7250000000000005 0.0 241 241 241
4.9750000000000005 -3.475 0.0 241 241 241
4.925000000000001 -3.4250000000000003 0.0 239 239 239
5.875 -3.1750000000000003 0.0 32 32 30
4.925000000000001 -3.475 0.0 241 241 241
3.975 -4.825 0.0 180 199 147
3.975 -4.925000000000001 0.0 95 82 46
3.825 -4.775 0.0 94 83 58
2.625 -4.925000000000001 0.0 12 11 11
5.775 -3.075 0.0 26 27 26
3.9250000000000003 -4.675 0.0 177 206 116
3.975 -4.7250000000000005 0.0 104 143 56
2.9250000000000003 -5.075 0.0 9 10 9
2.9250000000000003 -5.2250000000000005 0.0 9 9 9
2.575 -4.9750000000000005 0.0 212 199 148
6.175000000000001 -3.225 0.0 26 25 23
4.075 -4.925000000000001 0.0 143 187 51
2.4250000000000003 -4.825 0.0 7 7 7
3.0250000000000004 -5.275 0.0 17 17 17
2.6750000000000003 -5.075 0.0 79 66 34
1.425 -5.075 0.0 36 36 36
1.3250000000000002 -5.525 0.0 44 44 44
4.075 -4.875 0.0 129 186 22
3.5250000000000004 -4.375 0.0 91 110 70
1.225 -5.125 0.0 88 88 88
5.525 -6.825 0.0 246 246 246
5.775 -7.625 0.0 192 193 192
5.375 -7.525 0.0 194 194 194
3.875 -4.825 0.0 72 112 28
3.125 -4.775 0.0 58 58 58
0.225 -5.4750000000000005 0.0 183 183 183
0.42500000000000004 -5.425000000000001 0.0 150 150 149
-1.7750000000000001 -3.2750000000000004 0.0 13 5 5
1.125 -5.075 0.0 136 136 137
-1.675 -3.225 0.0 12 5 5
-1.2750000000000001 -2.4250000000000003 0.0 119 101 100
-1.3250000000000002 -2.4250000000000003 0.0 55 31 31
-1.725 -3.2750000000000004 0.0 25 13 13
-1.375 -2.375 0.0 64 38 39
-1.375 -2.325 0.0 76 48 49
-5.075 -4.375 0.0 108 65 64
-5.375 -4.2250000000000005 0.0 117 74 76
-4.875 -4.275 0.0 100 59 61
-4.925000000000001 -3.9250000000000003 0.0 91 54 55
-4.4750000000000005 -3.725 0.0 182 178 172
-1.675 -1.925 0.0 237 236 235
-1.7750000000000001 -1.925 0.0 206 206 206
-3.2750000000000004 -1.925 0.0 161 157 153
-3.225 -1.925 0.0 164 159 156
-3.475 -2.075 0.0 155 150 147
-3.125 -1.925 0.0 171 166 163
-3.2750000000000004 -1.8250000000000002 0.0 160 155 152
-3.225 -1.7750000000000001 0.0 163 158 155
-3.225 -1.975 0.0 155 150 147
-3.225 -1.725 0.0 163 159 156
-3.125 -1.8250000000000002 0.0 170 166 163
-5.2250000000000005 -4.175 0.0 107 64 68
-5.525 -4.175 0.0 118 76 76
-5.525 -4.125 0.0 115 74 76
-5.575 -4.025 0.0 103 62 62
-2.275 -3.625 0.0 179 176 173
-5.125 -4.025 0.0 141 114 113
-4.775 -4.075 0.0 235 233 232
-6.675000000000001 -3.375 0.0 179 174 174
-1.175 -2.4250000000000003 0.0 96 65 63
-1.975 -1.725 0.0 19 17 17
-3.575 -2.075 0.0 166 161 157
-1.2750000000000001 -2.475 0.0 162 148 147
-1.925 -1.725 0.0 15 15 15
-3.0250000000000004 -1.875 0.0 106 104 101
-5.825 -4.125 0.0 122 82 83
-5.325 -4.325 0.0 108 65 67
-5.575 -4.075 0.0 106 67 67
-6.075 -3.875 0.0 167 148 148
-4.625 -3.825 0.0 92 54 56
-5.275 -3.975 0.0 109 67 69
-5.425000000000001 -3.875 0.0 124 82 83
-4.375 -4.375 0.0 92 77 40
-4.525 -4.075 0.0 97 59 59
-4.575 -3.725 0.0 171 156 156
-0.775 -8.625 0.0 11 12 11
-4.425 -3.725 0.0 234 233 230
-1.7750000000000001 -3.075 0.0 186 186 186
-4.425 -3.875 0.0 232 232 232
-4.4750000000000005 -3.825 0.0 232 233 232
-1.225 -2.475 0.0 91 67 66
-1.375 -2.125 0.0 233 232 230
-1.625 -3.125 0.0 53 29 30
-1.375 -2.275 0.0 86 58 62
-1.375 -2.225 0.0 93 53 55
-1.3250000000000002 -2.325 0.0 84 48 48
-5.675000000000001 -4.4750000000000005 0.0 236 235 233
-5.825 -4.375 0.0 232 230 229
-6.125 -3.575 0.0 4 4 4
-5.325 -4.2250000000000005 0.0 101 61 62
-2.5250000000000004 -4.075 0.0 188 188 188
-2.875 -3.9250000000000003 0.0 112 74 73
-5.275 -4.075 0.0 102 62 62
-5.425000000000001 -4.125 0.0 119 77 78
-5.7250000000000005 -3.6750000000000003 0.0 146 121 122
-6.075 -3.325 0.0 182 169 168
-2.475 -3.725 0.0 82 46 48
-4.875 -3.975 0.0 95 57 58
-5.7250000000000005 -3.7750000000000004 0.0 142 109 109
-5.875 -3.325 0.0 188 175 175
-5.875 -3.5250000000000004 0.0 244 244 244
-6.025 -3.375 0.0 184 170 170
-6.025 -3.2750000000000004 0.0 175 157 159
-5.925000000000001 -3.375 0.0 56 56 56
-2.7750000000000004 -3.825 0.0 117 83 83
-1.975 -1.7750000000000001 0.0 7 7 7
-1.725 -1.975 0.0 191 191 191
-1.925 -1.7750000000000001 0.0 6 6 6
-3.5250000000000004 -1.375 0.0 25 23 22
-3.5250000000000004 -1.3250000000000002 0.0 110 93 92
-3.4250000000000003 -2.025 0.0 163 159 155
-3.325 -1.625 0.0 114 109 106
-3.5250000000000004 -1.2750000000000001 0.0 141 118 118
-3.125 -1.625 0.0 166 162 159
-3.1750000000000003 -1.625 0.0 170 166 163
-3.125 -1.675 0.0 173 169 166
-4.375 -1.5750000000000002 0.0 136 119 121
-4.325 -1.675 0.0 139 108 110
-4.375 -1.2750000000000001 0.0 163 141 142
-4.325 -1.475 0.0 164 143 145
-4.375 -1.475 0.0 141 114 114
-4.325 -1.375 0.0 152 126 122
-5.425000000000001 -3.4250000000000003 0.0 3 3 3
-6.075 -3.475 0.0 3 3 3
-4.325 -1.3250000000000002 0.0 164 143 144
-4.9750000000000005 -4.2250000000000005 0.0 81 46 47
-5.675000000000001 -3.375 0.0 75 68 68
-5.825 -3.375 0.0 115 112 112
-5.825 -3.225 0.0 201 193 194
-5.875 -4.125 0.0 119 78 78
-5.825 -3.725 0.0 131 97 97
-6.625 -3.4250000000000003 0.0 202 193 193
-6.7250000000000005 -3.1750000000000003 0.0 163 140 142
-4.825 -4.025 0.0 107 66 67
-5.575 -3.575 0.0 181 181 181
-5.575 -3.475 0.0 161 162 161
-3.225 -1.175 0.0 41 79 7
-4.675 -3.725 0.0 234 233 233
-4.275 -1.175 0.0 116 118 79
-3.2750000000000004 -1.125 0.0 155 174 122
-1.7750000000000001 -2.075 0.0 178 178 178
-1.675 -2.1750000000000003 0.0 178 178 177
-1.675 -2.125 0.0 177 178 177
-1.625 -2.1750000000000003 0.0 178 178 178
-3.325 -1.075 0.0 158 160 138
-1.5250000000000001 -2.275 0.0 212 211 209
-4.275 -1.2750000000000001 0.0 135 102 103
-4.075 -1.5750000000000002 0.0 162 162 161
-3.225 -1.425 0.0 211 210 209
-3.1750000000000003 -1.2750000000000001 0.0 239 239 239
-0.925 -1.475 0.0 110 68 70
-1.475 -2.225 0.0 238 236 234
-0.925 -1.425 0.0 102 77 79
-3.475 -1.625 0.0 128 121 119
-4.375 -0.925 0.0 227 225 225
-4.325 -0.925 0.0 235 233 233
-4.275 -0.8250000000000001 0.0 222 218 218
-4.375 -0.5750000000000001 0.0 223 219 220
-3.125 -1.175 0.0 117 135 91
-4.2250000000000005 -0.875 0.0 201 198 192
-4.675 -4.125 0.0 48 26 26
-5.875 -3.225 0.0 160 137 138
-4.925000000000001 -4.275 0.0 125 86 85
-6.025 -3.9250000000000003 0.0 111 69 68
-6.2250000000000005 -3.375 0.0 161 139 139
-3.0250000000000004 -1.7750000000000001 0.0 173 168 166
-4.2250000000000005 -0.8250000000000001 0.0 208 201 202
-5.875 -3.375 0.0 13 13 13
-1.875 -2.075 0.0 172 171 170
-1.875 -2.025 0.0 171 171 171
-4.325 -0.525 0.0 198 189 189
-4.025 -1.625 0.0 166 146 146
-3.375 -1.125 0.0 240 240 240
-3.225 -1.075 0.0 223 223 223
-3.225 -1.125 0.0 170 192 138
-4.175 -0.925 0.0 182 165 164
-4.275 -0.225 0.0 187 175 174
-1.875 -1.925 0.0 182 182 182
-3.225 -0.775 0.0 241 241 240
-3.1750000000000003 -0.675 0.0 232 232 232
-3.225 -0.525 0.0 179 179 180
-3.2750000000000004 -0.525 0.0 240 240 240
-3.325 -0.17500000000000002 0.0 232 232 232
-3.375 -0.125 0.0 234 234 234
-0.9750000000000001 -1.425 0.0 160 143 142
-3.225 -0.325 0.0 241 241 241
-3.225 -0.625 0.0 240 240 240
-3.1750000000000003 -0.7250000000000001 0.0 220 220 219
-0.9750000000000001 -1.3250000000000002 0.0 119 87 89
-3.4250000000000003 -1.625 0.0 147 122 124
-3.575 -1.375 0.0 169 151 152
-3.575 -1.2750000000000001 0.0 174 158 158
-3.575 -1.3250000000000002 0.0 166 149 149
-3.625 -1.225 0.0 213 206 206
-3.475 -2.025 0.0 179 176 173
-3.6750000000000003 -1.125 0.0 220 215 214
-3.5250000000000004 -1.075 0.0 235 236 237
-3.475 -1.175 0.0 183 167 167
-4.4750000000000005 -1.5750000000000002 0.0 142 112 111
-3.575 -0.925 0.0 179 164 164
-3.4250000000000003 -1.225 0.0 190 189 179
-4.425 -1.425 0.0 148 121 123
-3.325 -1.225 0.0 139 152 121
-3.5250000000000004 -1.125 0.0 168 149 151
-3.6750000000000003 -0.8250000000000001 0.0 174 158 159
-5.525 -4.025 0.0 96 58 58
-6.775 -3.325 0.0 193 183 183
-5.9750000000000005 -3.825 0.0 119 78 78
-6.175000000000001 -3.625 0.0 139 127 127
-6.7250000000000005 -3.125 0.0 178 160 160
-4.375 -1.675 0.0 159 154 158
-4.4750000000000005 -1.3250000000000002 0.0 99 69 71
-4.9750000000000005 -3.9250000000000003 0.0 131 96 97
-5.825 -3.5250000000000004 0.0 78 79 79
-3.4250000000000003 -1.075 0.0 100 131 73
-3.4250000000000003 -1.0250000000000001 0.0 85 128 30
-4.875 -4.175 0.0 117 75 77
-5.2250000000000005 -3.875 0.0 222 222 222
-5.275 -3.825 0.0 239 239 239
-4.325 -1.5750000000000002 0.0 139 108 110
-4.4750000000000005 -3.625 0.0 240 240 240
-4.2250000000000005 -1.675 0.0 125 92 90
-4.175 -1.425 0.0 134 100 99
-3.2750000000000004 -1.375 0.0 183 183 183
-3.1750000000000003 -1.0250000000000001 0.0 184 183 184
-3.225 -1.3250000000000002 0.0 235 235 235
-3.325 -1.2750000000000001 0.0 240 239 239
-3.2750000000000004 -1.975 0.0 178 174 172
-3.725 -0.47500000000000003 0.0 239 240 240
-3.7750000000000004 -0.375 0.0 241 239 240
-3.725 -1.675 0.0 190 180 182
-3.725 -1.625 0.0 208 202 202
-3.6750000000000003 -0.375 0.0 212 215 217
-3.575 -1.075 0.0 241 242 242
-3.575 -1.125 0.0 250 250 250
-3.625 -0.625 0.0 234 233 233
-3.625 -0.42500000000000004 0.0 242 244 244
-3.575 -0.525 0.0 185 185 185
-3.475 -1.0250000000000001 0.0 223 220 221
-3.5250000000000004 -0.42500000000000004 0.0 219 219 219
-3.5250000000000004 -0.47500000000000003 0.0 245 247 247
-5.825 -3.7750000000000004 0.0 114 73 74
-5.7250000000000005 -3.225 0.0 118 103 104
-6.275 -3.5250000000000004 0.0 159 138 138
-6.775 -3.125 0.0 189 177 177
-5.2250000000000005 -3.725 0.0 214 214 214
-3.0250000000000004 -1.725 0.0 169 165 162
-2.975 -1.625 0.0 173 169 165
-4.375 -0.7250000000000001 0.0 170 150 152
-3.075 -1.075 0.0 234 235 234
-4.2250000000000005 -0.525 0.0 159 148 149
-3.375 -0.8250000000000001 0.0 211 211 211
-3.4250000000000003 -0.7250000000000001 0.0 184 183 183
-3.325 -0.8250000000000001 0.0 241 241 240
-3.325 -0.675 0.0 240 240 240
-3.4250000000000003 -0.375 0.0 200 200 200
-3.475 -0.325 0.0 159 159 159
-3.375 -0.675 0.0 240 240 240
-3.0250000000000004 -1.125 0.0 239 239 239
-3.5250000000000004 -0.025 0.0 25 23 22
-3.5250000000000004 0.07500000000000001 0.0 25 24 22
-4.4750000000000005 -0.025 0.0 117 132 139
-3.9250000000000003 -0.325 0.0 109 98 99
-3.975 -0.47500000000000003 0.0 6 7 8
-4.175 0.275 0.0 2 3 3
-4.425 -0.025 0.0 155 129 129
-4.425 0.025 0.0 145 116 115
-4.425 -0.17500000000000002 0.0 153 125 125
-4.425 -0.125 0.0 164 143 143
-4.2250000000000005 0.47500000000000003 0.0 146 120 121
-6.825 -3.475 0.0 143 114 115
-5.275 -3.625 0.0 180 180 179
-4.275 0.125 0.0 155 131 131
-4.275 0.17500000000000002 0.0 159 133 131
-4.625 -3.625 0.0 195 195 195
-4.325 -0.125 0.0 134 101 102
-4.325 0.025 0.0 91 114 122
-4.2250000000000005 -1.625 0.0 183 171 171
-4.325 -0.275 0.0 168 149 149
-3.975 -1.5250000000000001 0.0 178 161 162
-4.2250000000000005 -0.225 0.0 143 114 116
-4.2250000000000005 0.07500000000000001 0.0 152 125 126
-4.2250000000000005 0.42500000000000004 0.0 131 95 96
-3.0250000000000004 -1.5750000000000002 0.0 179 175 172
-4.175 -0.9750000000000001 0.0 161 138 140
-4.2250000000000005 -0.275 0.0 132 104 104
-4.2250000000000005 -0.07500000000000001 0.0 157 136 136
-4.175 -0.025 0.0 140 108 107
-4.275 0.275 0.0 133 98 99
-4.175 0.375 0.0 124 91 87
-4.075 0.525 0.0 122 85 87
-3.125 -1.0250000000000001 0.0 181 181 180
-3.4250000000000003 -0.17500000000000002 0.0 200 200 200
-1.2750000000000001 -1.225 0.0 93 92 92
-1.225 -1.225 0.0 132 106 107
-3.375 -0.025 0.0 219 218 218
-3.325 0.025 0.0 217 217 216
-3.1750000000000003 -0.42500000000000004 0.0 240 240 240
-3.2750000000000004 0.07500000000000001 0.0 240 240 240
-3.325 -0.025 0.0 239 239 239
-1.225 -1.125 0.0 145 119 120
-1.225 -1.2750000000000001 0.0 192 195 197
-1.225 -1.075 0.0 137 110 111
-1.225 -1.0250000000000001 0.0 126 90 91
-3.625 -0.225 0.0 124 85 85
-3.875 -0.47500000000000003 0.0 150 122 125
-3.875 -0.42500000000000004 0.0 83 78 79
-3.825 -0.17500000000000002 0.0 136 104 105
-4.025 0.8250000000000001 0.0 122 82 82
-4.025 0.875 0.0 104 100 97
-3.9250000000000003 0.025 0.0 104 70 73
-3.875 -0.025 0.0 112 74 74
-3.875 -0.5750000000000001 0.0 149 122 120
-3.7750000000000004 -0.325 0.0 133 97 99
-3.7750000000000004 1.0250000000000001 0.0 136 131 127
-3.9250000000000003 0.375 0.0 126 104 104
-3.975 -0.025 0.0 108 69 68
-3.875 0.17500000000000002 0.0 122 106 107
-3.7750000000000004 1.075 0.0 174 169 166
-3.9250000000000003 1.225 0.0 173 168 165
-3.825 1.375 0.0 166 161 158
-3.975 -0.07500000000000001 0.0 118 81 81
-6.825 -3.4250000000000003 0.0 171 148 148
-4.075 0.675 0.0 109 70 72
-3.875 1.2750000000000001 0.0 159 154 151
-6.7250000000000005 -3.325 0.0 117 82 84
-4.2250000000000005 -1.475 0.0 178 163 163
-4.175 0.025 0.0 129 91 92
-4.375 -1.3250000000000002 0.0 160 137 139
-3.875 0.8250000000000001 0.0 92 89 85
-3.975 0.7250000000000001 0.0 121 79 81
-5.7250000000000005 3.1750000000000003 0.0 95 58 58
-3.875 0.875 0.0 92 88 85
-4.025 0.47500000000000003 0.0 115 74 78
-4.125 0.025 0.0 115 76 78
-3.825 0.875 0.0 94 90 87
-4.075 -1.375 0.0 170 169 169
-3.875 -0.07500000000000001 0.0 201 201 201
-3.825 0.8250000000000001 0.0 94 90 87
-3.725 0.9750000000000001 0.0 94 90 86
-3.7750000000000004 1.125 0.0 172 167 164
-3.825 -0.125 0.0 235 236 235
-3.725 0.8250000000000001 0.0 91 86 83
-3.6750000000000003 0.925 0.0 90 85 82
-3.5250000000000004 0.675 0.0 141 138 134
-3.5250000000000004 0.7250000000000001 0.0 91 86 83
-3.6750000000000003 1.3250000000000002 0.0 172 169 167
-3.825 1.175 0.0 172 167 164
-1.2750000000000001 -1.075 0.0 155 138 138
-1.2750000000000001 -1.0250000000000001 0.0 161 143 142
-1.2750000000000001 -1.125 0.0 175 176 175
-3.6750000000000003 -0.225 0.0 173 156 155
-3.6750000000000003 0.275 0.0 140 110 113
-3.6750000000000003 0.42500000000000004 0.0 138 106 104
-4.375 0.7250000000000001 0.0 131 94 95
-4.325 0.775 0.0 127 91 91
-3.825 0.17500000000000002 0.0 242 243 242
-4.375 0.675 0.0 132 95 96
-4.375 0.8250000000000001 0.0 133 97 96
-4.275 0.5750000000000001 0.0 138 102 104
-4.4750000000000005 0.675 0.0 135 99 98
-4.425 0.275 0.0 131 115 118
-4.4750000000000005 0.375 0.0 120 103 107
-4.525 0.7250000000000001 0.0 121 93 91
-4.275 -0.9750000000000001 0.0 128 131 105
-4.375 -1.225 0.0 144 176 124
-4.375 0.625 0.0 126 88 91
-4.2250000000000005 -1.175 0.0 171 152 152
-4.375 0.42500000000000004 0.0 128 92 92
-4.375 0.47500000000000003 0.0 158 138 139
-4.325 0.675 0.0 120 81 82
-4.2250000000000005 0.17500000000000002 0.0 147 125 126
-3.575 -0.325 0.0 88 86 89
-3.4250000000000003 0.325 0.0 225 225 225
-3.4250000000000003 0.42500000000000004 0.0 221 221 220
-3.4250000000000003 -0.325 0.0 237 237 237
-3.325 0.17500000000000002 0.0 240 240 239
-3.2750000000000004 -1.0250000000000001 0.0 240 240 240
-3.475 0.275 0.0 239 239 239
-3.375 0.775 0.0 107 102 98
-3.6750000000000003 -0.625 0.0 141 105 105
-3.325 0.8250000000000001 0.0 170 166 163
-3.5250000000000004 0.775 0.0 127 122 119
-3.2750000000000004 1.0250000000000001 0.0 169 165 161
-4.2250000000000005 0.8250000000000001 0.0 128 84 83
-4.275 0.925 0.0 113 73 73
-4.325 0.9750000000000001 0.0 118 79 80
-3.325 0.875 0.0 171 166 163
-3.375 0.875 0.0 170 166 163
-4.2250000000000005 0.9750000000000001 0.0 108 103 100
-4.425 0.125 0.0 129 91 93
-4.425 0.17500000000000002 0.0 118 85 86
-4.275 0.525 0.0 153 151 153
-4.175 0.925 0.0 123 81 83
-4.4750000000000005 -0.07500000000000001 0.0 126 91 91
-4.275 0.7250000000000001 0.0 123 80 79
-4.075 1.075 0.0 101 97 93
-4.2250000000000005 0.875 0.0 119 76 77
-4.125 1.125 0.0 101 97 94
-3.875 1.425 0.0 166 162 159
-4.175 0.9750000000000001 0.0 100 95 92
-3.975 1.475 0.0 171 167 163
-3.9250000000000003 1.475 0.0 170 165 162
-4.175 1.075 0.0 101 96 93
-4.125 1.0250000000000001 0.0 101 96 93
-4.2250000000000005 0.7250000000000001 0.0 121 80 79
-5.675000000000001 3.375 0.0 66 37 38
-3.975 1.225 0.0 169 165 161
-5.825 3.4250000000000003 0.0 67 36 37
-5.625 3.375 0.0 79 46 45
-5.625 3.325 0.0 78 45 46
-4.125 0.925 0.0 116 111 108
-4.2250000000000005 -0.025 0.0 174 166 167
-4.075 0.8250000000000001 0.0 187 187 187
-3.375 -0.47500000000000003 0.0 184 184 183
-3.375 0.025 0.0 220 220 219
-3.325 -0.7250000000000001 0.0 240 239 239
-3.575 0.7250000000000001 0.0 100 95 92
-3.325 -0.07500000000000001 0.0 238 237 238
-3.7750000000000004 -0.5750000000000001 0.0 125 89 89
-3.6750000000000003 -0.275 0.0 117 81 80
-3.875 0.275 0.0 236 236 236
-4.025 0.225 0.0 112 103 102
-4.075 0.275 0.0 112 71 71
-4.025 0.325 0.0 117 75 79
-3.875 1.3250000000000002 0.0 165 160 157
-4.425 -0.275 0.0 122 80 80
-5.9750000000000005 3.625 0.0 82 47 48
-4.275 -0.025 0.0 116 76 77
-5.575 3.125 0.0 89 51 52
-4.075 0.5750000000000001 0.0 111 66 67
-3.825 1.2750000000000001 0.0 159 154 150
-5.875 3.325 0.0 183 184 183
-4.025 0.025 0.0 115 75 76
-3.975 0.07500000000000001 0.0 101 63 64
-4.075 -0.125 0.0 117 77 76
-4.025 0.42500000000000004 0.0 165 154 153
-3.975 0.625 0.0 184 184 184
-3.825 0.025 0.0 191 191 191
-1.925 0.625 0.0 53 52 52
-1.925 0.675 0.0 37 35 35
-1.875 0.7250000000000001 0.0 89 89 89
-3.625 -0.025 0.0 244 244 244
-3.575 0.925 0.0 139 134 131
-1.425 -0.625 0.0 210 210 210
-1.425 -0.7250000000000001 0.0 233 233 233
-1.425 -0.675 0.0 220 219 220
-1.425 -0.775 0.0 184 166 166
-3.6750000000000003 -0.125 0.0 108 65 62
-4.075 0.375 0.0 105 64 64
-5.425000000000001 3.2750000000000004 0.0 237 237 237
-5.2250000000000005 3.575 0.0 182 167 112
-3.475 3.325 0.0 82 47 48
-3.475 3.375 0.0 97 58 59
-4.2250000000000005 0.025 0.0 110 66 66
-3.575 0.9750000000000001 0.0 139 135 131
-4.175 0.07500000000000001 0.0 107 67 69
-2.375 1.5750000000000002 0.0 39 39 37
-2.325 1.5750000000000002 0.0 33 31 31
-2.275 1.725 0.0 202 202 201
-2.225 1.725 0.0 230 230 230
-1.975 0.675 0.0 21 21 20
-2.125 1.725 0.0 88 88 86
-3.5250000000000004 -0.5750000000000001 0.0 236 236 236
-3.475 -0.07500000000000001 0.0 236 235 235
-2.275 1.5750000000000002 0.0 221 221 220
-2.225 1.5750000000000002 0.0 178 176 175
-1.675 0.9750000000000001 0.0 173 174 173
-1.625 0.925 0.0 176 176 176
-1.8250000000000002 0.8250000000000001 0.0 178 178 178
-1.725 0.7250000000000001 0.0 177 177 177
-1.725 0.775 0.0 177 177 177
-1.625 0.8250000000000001 0.0 121 90 89
-1.3250000000000002 -0.525 0.0 240 240 240
-1.3250000000000002 -0.5750000000000001 0.0 245 245 245
-1.375 -0.525 0.0 244 244 244
-3.9250000000000003 1.0250000000000001 0.0 151 146 143
-4.025 0.9750000000000001 0.0 149 144 141
-3.575 1.225 0.0 146 141 138
-3.5250000000000004 1.225 0.0 114 72 70
-3.625 1.2750000000000001 0.0 123 118 115
-3.575 3.325 0.0 194 181 181
-5.575 3.1750000000000003 0.0 233 233 233
-3.125 3.375 0.0 84 47 49
-3.725 1.2750000000000001 0.0 147 142 139
-5.4750000000000005 3.075 0.0 172 152 153
-2.275 2.7750000000000004 0.0 173 173 173
-2.275 2.875 0.0 172 171 171
-2.025 1.725 0.0 238 238 238
-1.975 1.7750000000000001 0.0 173 174 173
-1.875 0.8250000000000001 0.0 25 25 25
-1.8250000000000002 1.875 0.0 219 219 219
-2.025 1.175 0.0 235 235 235
-2.1750000000000003 1.5250000000000001 0.0 235 235 235
-1.925 1.7750000000000001 0.0 176 176 176
-1.675 0.925 0.0 176 177 176
-1.625 0.9750000000000001 0.0 171 171 171
-1.8250000000000002 0.625 0.0 68 68 68
-1.675 1.5750000000000002 0.0 236 235 234
-1.725 1.675 0.0 235 235 235
-1.725 1.875 0.0 230 231 230
-1.7750000000000001 1.675 0.0 235 235 235
-1.225 -0.325 0.0 182 167 168
-4.075 0.7250000000000001 0.0 104 60 60
-3.475 0.875 0.0 150 146 142
-3.9250000000000003 0.07500000000000001 0.0 95 58 59
-4.025 -0.42500000000000004 0.0 243 243 243
-3.975 1.075 0.0 144 139 136
-4.175 0.47500000000000003 0.0 98 59 59
-3.975 -0.325 0.0 52 37 39
-6.325 3.5250000000000004 0.0 107 64 64
-5.925000000000001 3.475 0.0 111 68 67
-5.675000000000001 3.575 0.0 95 56 57
-3.625 3.6750000000000003 0.0 91 52 50
-1.875 0.875 0.0 41 41 41
-1.975 0.625 0.0 77 75 76
-1.7750000000000001 0.9750000000000001 0.0 188 189 188
-1.8250000000000002 1.075 0.0 188 189 188
-1.875 1.175 0.0 189 189 189
-1.725 1.075 0.0 182 182 182
-1.8250000000000002 0.925 0.0 179 179 179
-3.625 -0.07500000000000001 0.0 240 240 240
-3.625 0.025 0.0 185 185 184
-1.8250000000000002 0.47500000000000003 0.0 61 59 59
-3.7750000000000004 1.475 0.0 240 241 240
-5.875 3.5250000000000004 0.0 115 69 68
-3.475 3.0250000000000004 0.0 203 203 202
-3.725 1.175 0.0 148 143 139
-5.925000000000001 3.325 0.0 175 168 167
-3.075 3.625 0.0 81 47 47
-5.175000000000001 2.875 0.0 232 232 232
-2.475 2.975 0.0 126 121 115
-2.375 2.975 0.0 181 182 181
-2.025 1.125 0.0 119 119 119
-1.975 2.125 0.0 182 183 182
-1.975 2.1750000000000003 0.0 181 181 181
-1.925 2.1750000000000003 0.0 182 183 182
-1.975 1.075 0.0 234 235 234
-1.925 2.125 0.0 182 183 182
-3.825 1.3250000000000002 0.0 147 142 139
-1.5250000000000001 1.3250000000000002 0.0 231 229 227
-1.7750000000000001 2.275 0.0 228 226 223
-3.725 1.375 0.0 214 212 211
-1.5250000000000001 1.375 0.0 230 230 230
-3.825 -0.025 0.0 206 205 206
-1.5250000000000001 1.2750000000000001 0.0 179 176 173
-3.4250000000000003 3.0250000000000004 0.0 25 26 25
-5.275 3.2750000000000004 0.0 118 88 88
-2.875 3.5250000000000004 0.0 80 43 44
-5.175000000000001 2.625 0.0 221 222 221
-1.625 1.5250000000000001 0.0 218 216 213
-1.675 2.075 0.0 198 198 197
-1.8250000000000002 1.125 0.0 185 185 185
-1.8250000000000002 1.225 0.0 191 191 191
-1.725 1.125 0.0 176 176 175
-1.875 1.125 0.0 175 176 175
-1.8250000000000002 0.7250000000000001 0.0 173 174 173
-1.8250000000000002 0.675 0.0 176 176 175
-1.3250000000000002 -0.07500000000000001 0.0 198 197 198
-1.2750000000000001 -0.07500000000000001 0.0 218 217 217
-1.2750000000000001 -0.025 0.0 192 189 188
-2.975 3.2750000000000004 0.0 108 72 72
-1.625 1.5750000000000002 0.0 134 133 131
-2.125 1.625 0.0 239 239 239
-1.975 0.7250000000000001 0.0 9 9 9
-1.5250000000000001 1.175 0.0 194 189 184
-1.225 -0.025 0.0 207 204 200
-1.3250000000000002 -0.025 0.0 211 210 211
-3.325 3.4250000000000003 0.0 109 66 67
-5.4750000000000005 3.2750000000000004 0.0 109 68 68
-3.375 3.125 0.0 179 171 166
-2.075 1.225 0.0 239 240 239
-2.225 3.1750000000000003 0.0 180 181 179
-1.8250000000000002 2.225 0.0 180 180 179
-1.625 1.2750000000000001 0.0 182 183 182
-1.5750000000000002 1.3250000000000002 0.0 155 151 147
-1.725 1.225 0.0 241 241 241
-1.625 1.225 0.0 205 204 202
-1.7750000000000001 2.125 0.0 202 202 201
-1.7750000000000001 2.4250000000000003 0.0 167 162 155
2.1750000000000003 6.875 0.0 221 220 217
2.125 6.825 0.0 194 183 143
0.875 5.325 0.0 93 80 48
4.275 7.175000000000001 0.0 217 217 217
2.975 5.075 0.0 77 126 16
2.025 6.775 0.0 120 109 77
4.325 7.4750000000000005 0.0 223 223 224
4.325 7.425000000000001 0.0 223 224 223
4.075 7.4750000000000005 0.0 223 223 223
2.125 6.875 0.0 110 56 32
4.2250000000000005 7.575 0.0 222 222 222
0.875 5.2250000000000005 0.0 164 50 36
-1.375 9.475 0.0 157 185 118
