ply
format ascii 1.0
element vertex 143
property float x
property float y
property float z
property uchar red
property uchar green
property uchar blue
end_header
0.125 0.07500000000000001 0.0 0 0 0
0.125 0.025 0.0 11 12 12
0.125 -0.025 0.0 2 2 2
5.125 0.775 0.0 228 228 228
5.025 -0.17500000000000002 0.0 246 246 246
5.025 0.525 0.0 246 246 246
5.025 0.42500000000000004 0.0 246 246 246
4.9750000000000005 0.5750000000000001 0.0 246 246 246
4.9750000000000005 0.7250000000000001 0.0 245 245 245
5.025 0.775 0.0 224 225 224
4.9750000000000005 0.325 0.0 246 246 246
4.9750000000000005 0.17500000000000002 0.0 245 246 245
4.925000000000001 0.42500000000000004 0.0 245 246 245
4.9750000000000005 0.125 0.0 245 246 245
4.925000000000001 0.325 0.0 246 246 246
4.925000000000001 0.07500000000000001 0.0 245 245 245
4.925000000000001 0.025 0.0 246 246 246
4.9750000000000005 -0.07500000000000001 0.0 246 246 246
4.925000000000001 0.17500000000000002 0.0 246 246 246
4.9750000000000005 0.025 0.0 246 246 246
4.925000000000001 0.8250000000000001 0.0 164 164 164
4.925000000000001 -0.125 0.0 246 246 246
4.925000000000001 -0.17500000000000002 0.0 245 245 245
5.075 0.625 0.0 246 246 246
5.075 0.525 0.0 246 246 245
5.075 0.675 0.0 246 246 246
5.025 0.675 0.0 246 246 246
4.9750000000000005 -0.025 0.0 246 246 246
4.925000000000001 -2.6750000000000003 0.0 199 199 199
5.925000000000001 -3.075 0.0 199 200 199
4.925000000000001 -2.825 0.0 226 226 226
4.925000000000001 0.7250000000000001 0.0 243 243 243
4.925000000000001 -0.025 0.0 246 246 246
4.925000000000001 0.625 0.0 245 246 245
4.125 0.42500000000000004 0.0 246 246 246
4.125 0.47500000000000003 0.0 245 245 245
4.075 0.5750000000000001 0.0 246 246 246
5.075 0.07500000000000001 0.0 246 246 246
5.075 0.025 0.0 245 245 245
5.075 -0.025 0.0 246 246 246
5.075 -0.125 0.0 246 246 246
5.175000000000001 0.7250000000000001 0.0 246 246 246
5.075 0.7250000000000001 0.0 246 246 246
4.925000000000001 0.47500000000000003 0.0 245 245 245
4.875 -0.025 0.0 246 246 246
5.075 0.42500000000000004 0.0 245 245 245
5.075 0.325 0.0 246 246 246
5.075 0.225 0.0 246 246 246
5.925000000000001 -2.725 0.0 69 68 68
5.925000000000001 -2.7750000000000004 0.0 57 54 54
5.925000000000001 -2.9250000000000003 0.0 197 197 196
4.925000000000001 -2.625 0.0 199 199 199
4.925000000000001 0.675 0.0 246 246 246
4.875 -2.625 0.0 198 199 198
4.875 -2.725 0.0 200 201 200
4.875 -2.7750000000000004 0.0 201 201 201
4.9750000000000005 -2.625 0.0 197 197 197
4.9750000000000005 -2.6750000000000003 0.0 200 200 200
4.9750000000000005 -2.7750000000000004 0.0 200 200 200
5.9750000000000005 -2.7750000000000004 0.0 51 50 50
5.9750000000000005 -2.9250000000000003 0.0 197 198 197
5.9750000000000005 -2.975 0.0 197 197 197
5.9750000000000005 -3.075 0.0 197 198 197
5.9750000000000005 -2.6750000000000003 0.0 9 8 7
4.9750000000000005 -2.875 0.0 246 246 246
5.925000000000001 -2.975 0.0 199 200 199
4.925000000000001 -2.875 0.0 246 246 246
5.925000000000001 -3.0250000000000004 0.0 201 201 201
5.075 -0.17500000000000002 0.0 246 246 246
4.7250000000000005 3.375 0.0 206 206 206
4.925000000000001 3.375 0.0 78 94 103
5.025 3.325 0.0 6 6 6
4.675 3.475 0.0 178 179 178
4.875 3.375 0.0 113 114 113
4.9750000000000005 3.375 0.0 67 75 81
4.675 3.375 0.0 110 124 136
4.925000000000001 3.2750000000000004 0.0 144 148 151
4.875 3.2750000000000004 0.0 110 114 118
4.825 3.375 0.0 163 164 164
4.775 3.325 0.0 116 126 133
4.7250000000000005 3.325 0.0 185 185 185
4.775 3.225 0.0 104 105 107
4.7250000000000005 3.225 0.0 68 65 66
4.4750000000000005 3.575 0.0 111 122 132
4.425 3.475 0.0 171 172 171
4.625 3.2750000000000004 0.0 162 163 162
4.525 3.2750000000000004 0.0 198 198 198
4.375 3.225 0.0 220 221 220
4.4750000000000005 3.225 0.0 168 169 167
4.675 3.125 0.0 75 75 75
4.675 3.2750000000000004 0.0 133 134 131
4.525 3.825 0.0 224 224 224
4.525 3.725 0.0 246 246 246
4.625 3.725 0.0 205 205 205
4.425 3.825 0.0 246 246 246
4.425 3.725 0.0 246 245 246
4.325 3.725 0.0 225 228 229
4.275 3.625 0.0 187 198 207
4.2250000000000005 3.625 0.0 245 245 245
4.175 3.6750000000000003 0.0 246 246 246
4.175 3.975 0.0 139 141 142
4.175 3.9250000000000003 0.0 238 240 241
4.275 3.325 0.0 225 226 225
4.575 3.375 0.0 228 230 230
3.975 3.7750000000000004 0.0 126 135 139
4.525 3.375 0.0 235 235 235
4.4750000000000005 3.5250000000000004 0.0 173 185 192
4.425 3.325 0.0 238 238 238
4.325 3.5250000000000004 0.0 244 244 244
3.2750000000000004 5.625 0.0 233 233 233
4.2250000000000005 3.4250000000000003 0.0 240 240 240
4.175 3.2750000000000004 0.0 238 239 238
4.2250000000000005 3.9250000000000003 0.0 225 230 231
4.025 4.125 0.0 187 187 187
4.075 4.075 0.0 176 176 176
4.125 3.975 0.0 137 154 164
4.125 3.9250000000000003 0.0 46 70 89
4.175 3.825 0.0 223 226 231
4.125 3.825 0.0 170 172 174
4.075 4.175 0.0 22 21 21
4.425 3.575 0.0 115 132 145
3.9250000000000003 3.975 0.0 120 149 71
2.9250000000000003 4.675 0.0 242 242 242
4.025 3.875 0.0 74 105 52
4.075 3.725 0.0 229 232 237
4.025 3.725 0.0 171 172 173
3.9250000000000003 3.875 0.0 152 166 175
4.175 3.575 0.0 137 154 165
4.175 3.5250000000000004 0.0 54 65 75
4.2250000000000005 3.5250000000000004 0.0 62 70 75
4.325 3.975 0.0 123 124 123
4.375 3.9250000000000003 0.0 142 142 142
4.2250000000000005 3.975 0.0 120 119 119
4.2250000000000005 3.6750000000000003 0.0 207 214 220
3.075 4.925000000000001 0.0 236 237 236
2.975 5.2250000000000005 0.0 243 243 243
3.9250000000000003 3.825 0.0 242 242 242
3.0250000000000004 5.125 0.0 237 237 237
4.925000000000001 3.5250000000000004 0.0 134 153 164
4.4750000000000005 3.875 0.0 125 125 125
4.575 3.7750000000000004 0.0 218 218 218
5.075 3.375 0.0 173 188 195
4.2250000000000005 3.825 0.0 50 50 49
