ply
format ascii 1.0
element vertex 1232
property float x
property float y
property float z
property uchar red
property uchar green
property uchar blue
end_header
5.175000000000001 -2.725 0.0 145 147 152
5.175000000000001 -2.7750000000000004 0.0 172 173 174
4.925000000000001 0.025 0.0 237 237 237
5.125 -2.7750000000000004 0.0 192 193 192
5.025 -0.07500000000000001 0.0 224 224 224
5.025 0.125 0.0 230 230 230
4.9750000000000005 0.025 0.0 233 233 233
5.075 -2.725 0.0 166 168 171
5.025 -2.725 0.0 189 191 191
4.925000000000001 -2.725 0.0 157 159 162
4.925000000000001 0.5750000000000001 0.0 218 218 218
4.875 0.525 0.0 218 218 218
4.9750000000000005 0.42500000000000004 0.0 228 228 228
5.9750000000000005 -3.0250000000000004 0.0 185 186 187
4.925000000000001 0.325 0.0 231 231 231
4.9750000000000005 0.275 0.0 217 217 217
5.025 -2.7750000000000004 0.0 195 196 196
4.825 0.5750000000000001 0.0 201 201 201
4.875 0.325 0.0 141 141 141
4.9750000000000005 0.7250000000000001 0.0 207 208 207
4.9750000000000005 0.775 0.0 180 180 180
4.925000000000001 -0.07500000000000001 0.0 240 240 240
4.9750000000000005 -0.17500000000000002 0.0 239 239 239
6.025 -2.975 0.0 170 172 173
4.925000000000001 -2.7750000000000004 0.0 188 189 190
4.925000000000001 0.775 0.0 134 134 134
4.925000000000001 0.7250000000000001 0.0 186 186 186
4.875 0.42500000000000004 0.0 231 231 231
4.925000000000001 0.375 0.0 241 241 241
4.925000000000001 0.17500000000000002 0.0 229 229 229
4.9750000000000005 0.625 0.0 239 239 239
4.875 0.5750000000000001 0.0 233 233 233
4.925000000000001 0.125 0.0 236 236 236
4.925000000000001 0.525 0.0 235 235 235
4.925000000000001 -0.17500000000000002 0.0 239 239 239
0.07500000000000001 0.07500000000000001 0.0 0 0 0
0.07500000000000001 0.025 0.0 14 15 15
0.07500000000000001 -0.025 0.0 4 5 5
0.07500000000000001 -0.07500000000000001 0.0 1 1 2
6.125 -2.875 0.0 57 57 56
6.025 -2.7750000000000004 0.0 95 94 93
4.9750000000000005 0.47500000000000003 0.0 246 246 246
5.9750000000000005 -2.875 0.0 106 106 106
4.9750000000000005 0.17500000000000002 0.0 246 246 246
5.925000000000001 -2.875 0.0 169 168 168
4.925000000000001 0.675 0.0 246 246 246
5.825 -2.975 0.0 201 201 201
4.875 0.07500000000000001 0.0 245 245 245
4.875 0.025 0.0 246 246 246
4.875 -0.07500000000000001 0.0 245 245 245
4.875 -0.17500000000000002 0.0 246 246 246
4.075 0.42500000000000004 0.0 246 246 246
4.075 0.47500000000000003 0.0 246 246 246
5.075 -0.025 0.0 245 245 245
5.075 -0.07500000000000001 0.0 246 246 246
5.075 0.025 0.0 246 246 246
5.025 -0.025 0.0 246 246 246
5.075 0.5750000000000001 0.0 245 245 245
5.075 0.525 0.0 246 246 246
4.825 0.47500000000000003 0.0 246 246 246
4.925000000000001 -0.025 0.0 245 246 245
5.875 -2.975 0.0 199 199 199
5.825 -3.0250000000000004 0.0 202 202 202
4.875 -2.6750000000000003 0.0 201 202 201
4.9750000000000005 0.675 0.0 246 246 246
4.9750000000000005 -2.875 0.0 245 246 245
5.925000000000001 -2.7750000000000004 0.0 46 45 45
4.925000000000001 -2.875 0.0 246 246 246
5.925000000000001 -2.6750000000000003 0.0 9 7 8
5.9750000000000005 -3.075 0.0 198 198 197
4.875 -0.025 0.0 246 246 246
5.925000000000001 -3.075 0.0 201 202 201
5.925000000000001 -3.1750000000000003 0.0 197 198 197
5.875 -3.075 0.0 201 202 201
4.875 0.17500000000000002 0.0 246 246 246
5.575 -2.6750000000000003 0.0 153 152 152
6.025 -2.725 0.0 20 18 18
5.125 0.875 0.0 225 225 225
5.075 0.775 0.0 234 234 234
4.875 0.675 0.0 246 246 246
5.4750000000000005 -2.625 0.0 209 209 209
5.925000000000001 -3.0250000000000004 0.0 199 199 199
4.825 0.42500000000000004 0.0 245 245 245
5.875 -2.9250000000000003 0.0 197 198 197
5.275 -2.825 0.0 202 202 202
5.675000000000001 -2.725 0.0 218 218 218
5.875 -2.7750000000000004 0.0 53 52 50
5.075 0.225 0.0 246 247 246
5.175000000000001 -0.025 0.0 245 246 245
5.7250000000000005 -2.975 0.0 198 198 198
5.825 -2.825 0.0 197 197 197
5.2250000000000005 0.8250000000000001 0.0 93 92 92
5.625 -2.7750000000000004 0.0 237 237 237
5.625 -2.875 0.0 238 238 238
5.425000000000001 -2.975 0.0 238 238 238
5.4750000000000005 -2.975 0.0 237 237 237
5.275 -3.0250000000000004 0.0 243 243 243
6.2250000000000005 -7.775 0.0 244 244 244
5.4750000000000005 -2.875 0.0 237 238 237
5.425000000000001 -2.825 0.0 238 238 238
5.375 -2.5250000000000004 0.0 33 32 31
5.4750000000000005 -2.725 0.0 238 238 238
5.425000000000001 -2.725 0.0 238 239 238
5.375 -2.875 0.0 238 238 238
5.2250000000000005 -2.875 0.0 237 237 237
2.725 -5.125 0.0 9 9 9
4.625 -9.875 0.0 120 155 178
4.675 -10.025 0.0 62 110 143
5.525 -2.5250000000000004 0.0 55 49 49
4.075 -4.7250000000000005 0.0 150 191 37
4.825 -9.025 0.0 58 106 107
5.7250000000000005 -5.875 0.0 139 125 73
2.825 -4.875 0.0 12 12 12
2.7750000000000004 -4.925000000000001 0.0 70 70 70
2.7750000000000004 -4.825 0.0 12 12 11
2.325 -4.9750000000000005 0.0 13 13 13
2.125 -5.025 0.0 141 141 141
5.525 -2.825 0.0 243 243 243
5.275 -2.975 0.0 242 242 242
2.575 -10.175 0.0 165 165 165
5.925000000000001 -7.4750000000000005 0.0 238 238 238
1.8250000000000002 -10.725000000000001 0.0 245 245 245
5.425000000000001 -2.625 0.0 140 140 139
1.7750000000000001 -10.675 0.0 246 246 246
2.1750000000000003 -10.175 0.0 244 244 244
2.025 -10.375 0.0 245 245 245
4.775 -4.4750000000000005 0.0 146 184 45
5.875 -7.425000000000001 0.0 237 238 237
2.125 -10.375 0.0 245 245 245
1.725 -10.575000000000001 0.0 245 245 245
4.525 -4.425 0.0 94 146 39
1.5750000000000002 -10.625 0.0 246 246 246
2.6750000000000003 -4.925000000000001 0.0 64 64 64
2.075 -4.825 0.0 42 42 42
1.675 -5.275 0.0 34 34 34
5.525 -6.825 0.0 227 228 228
3.4250000000000003 -9.975000000000001 0.0 222 223 222
5.875 -8.675 0.0 82 128 158
2.9250000000000003 -9.975000000000001 0.0 185 185 185
2.475 -10.275 0.0 165 165 165
2.025 -10.275 0.0 246 246 246
5.525 -6.7250000000000005 0.0 227 228 227
3.1750000000000003 -9.875 0.0 210 210 210
2.375 -10.225000000000001 0.0 165 165 165
1.725 -10.725000000000001 0.0 246 247 247
5.775 -7.325 0.0 227 227 227
1.925 -10.475000000000001 0.0 246 246 246
-0.375 -10.225000000000001 0.0 129 172 96
6.025 -7.625 0.0 204 204 204
1.075 -10.475000000000001 0.0 246 246 246
0.925 -10.075000000000001 0.0 139 167 186
1.5250000000000001 -10.575000000000001 0.0 246 246 246
1.425 -10.675 0.0 246 246 246
4.175 -4.675 0.0 152 190 66
3.875 -4.375 0.0 147 53 41
2.625 -4.9750000000000005 0.0 59 59 59
2.375 -4.875 0.0 40 40 40
2.825 -4.7250000000000005 0.0 37 38 38
1.3250000000000002 -5.125 0.0 94 94 94
6.175000000000001 -7.4750000000000005 0.0 200 200 200
3.9250000000000003 -9.875 0.0 246 246 246
3.625 -10.075000000000001 0.0 246 246 246
3.1750000000000003 -10.025 0.0 246 246 246
3.075 -10.125 0.0 246 246 246
1.3250000000000002 -10.075000000000001 0.0 246 246 246
-0.525 -10.625 0.0 137 166 185
-1.075 -10.675 0.0 135 164 184
-1.175 -10.675 0.0 135 164 184
-1.2750000000000001 -10.575000000000001 0.0 138 165 184
3.325 -10.025 0.0 208 208 208
2.475 -10.225000000000001 0.0 216 216 216
2.325 -10.075000000000001 0.0 198 198 198
-0.625 -10.625 0.0 138 166 185
-0.875 -10.575000000000001 0.0 135 164 184
-1.625 -10.575000000000001 0.0 246 246 246
-1.725 -10.625 0.0 246 246 246
2.825 -10.075000000000001 0.0 9 8 8
-0.775 -10.725000000000001 0.0 147 172 190
-0.875 -10.725000000000001 0.0 142 169 187
-0.9750000000000001 -10.575000000000001 0.0 130 161 182
5.9750000000000005 -7.525 0.0 194 195 195
4.325 -9.825000000000001 0.0 246 246 246
-1.7750000000000001 -10.675 0.0 246 246 246
-0.42500000000000004 -10.675 0.0 143 169 187
2.725 -10.125 0.0 125 125 125
2.475 -10.125 0.0 86 86 86
0.17500000000000002 -10.675 0.0 148 173 190
6.075 -7.275 0.0 201 202 201
3.0250000000000004 -9.925 0.0 216 216 216
0.525 -10.675 0.0 142 168 187
-0.325 -10.725000000000001 0.0 147 173 190
5.9750000000000005 -7.325 0.0 195 196 196
1.075 -10.325000000000001 0.0 246 246 246
0.375 -10.625 0.0 142 169 187
0.125 -10.525 0.0 140 168 187
5.9750000000000005 -7.175000000000001 0.0 202 203 202
0.125 -10.625 0.0 140 167 186
-0.325 -10.125 0.0 121 160 111
-1.5250000000000001 -10.975000000000001 0.0 161 182 196
5.025 -9.425 0.0 110 147 131
2.075 -10.175 0.0 246 246 246
-0.225 -10.475000000000001 0.0 130 163 176
-1.5250000000000001 -10.875 0.0 127 160 181
4.175 -4.625 0.0 164 198 90
5.075 -9.275 0.0 69 112 36
1.3250000000000002 -10.225000000000001 0.0 246 246 246
-0.325 -10.225000000000001 0.0 109 154 84
1.475 -10.325000000000001 0.0 247 247 247
1.3250000000000002 -10.175 0.0 246 246 246
-1.425 -10.875 0.0 134 165 185
-1.875 -10.825000000000001 0.0 247 247 247
1.225 -10.425 0.0 245 246 245
-0.42500000000000004 -9.625 0.0 12 14 14
-1.125 -10.975000000000001 0.0 142 169 186
-2.025 -10.925 0.0 247 247 247
4.575 -6.425000000000001 0.0 43 44 43
2.725 -4.775 0.0 67 66 62
2.725 -5.025 0.0 72 71 72
2.475 -4.9750000000000005 0.0 72 73 73
2.325 -5.075 0.0 76 77 76
2.275 -5.075 0.0 77 77 77
2.1750000000000003 -5.075 0.0 55 55 55
0.875 -5.425000000000001 0.0 145 145 145
1.675 -4.9750000000000005 0.0 93 92 92
1.175 -5.125 0.0 87 87 87
0.9750000000000001 -5.175000000000001 0.0 86 86 85
4.775 -10.025 0.0 125 159 181
4.375 -9.675 0.0 246 246 246
4.2250000000000005 -9.875 0.0 246 246 246
4.025 -9.875 0.0 246 246 246
3.6750000000000003 -9.925 0.0 246 246 246
2.9250000000000003 -10.225000000000001 0.0 217 217 217
1.375 -10.625 0.0 247 247 247
-0.525 -10.675 0.0 137 166 185
-1.5750000000000002 -10.725000000000001 0.0 155 162 165
-1.625 -10.525 0.0 246 246 246
-1.8250000000000002 -10.725000000000001 0.0 246 247 246
4.125 -9.925 0.0 246 246 246
3.7750000000000004 -9.875 0.0 246 246 246
2.825 -10.375 0.0 164 164 164
-0.42500000000000004 -10.575000000000001 0.0 136 164 184
-1.7750000000000001 -10.625 0.0 246 246 246
5.775 -10.375 0.0 124 157 179
5.675000000000001 -10.475000000000001 0.0 132 161 181
4.325 -9.725000000000001 0.0 246 246 246
4.275 -9.925 0.0 246 246 246
4.125 -9.825000000000001 0.0 246 246 246
3.0250000000000004 -9.775 0.0 23 23 23
-1.0250000000000001 -10.675 0.0 134 164 184
-1.675 -10.525 0.0 247 247 247
5.625 -10.325000000000001 0.0 131 163 184
5.175000000000001 -10.225000000000001 0.0 129 162 183
5.025 -10.175 0.0 129 160 181
3.5250000000000004 -9.825000000000001 0.0 246 246 246
5.775 -10.325000000000001 0.0 132 163 183
5.075 -10.225000000000001 0.0 127 160 181
4.675 -9.925 0.0 122 155 178
1.375 -10.475000000000001 0.0 247 247 247
4.4750000000000005 -9.775 0.0 246 246 246
3.575 -9.875 0.0 246 246 246
5.7250000000000005 -10.175 0.0 137 167 186
5.575 -10.175 0.0 133 164 183
5.375 -10.075000000000001 0.0 132 163 183
0.9750000000000001 -10.325000000000001 0.0 138 166 185
6.075 -10.325000000000001 0.0 124 158 180
5.825 -10.125 0.0 122 156 179
4.7250000000000005 -9.975000000000001 0.0 119 154 176
3.625 -10.025 0.0 246 246 246
3.325 -9.825000000000001 0.0 89 89 89
1.725 -10.325000000000001 0.0 246 246 246
5.525 -10.025 0.0 134 168 166
4.925000000000001 -10.125 0.0 124 157 179
3.5250000000000004 -10.075000000000001 0.0 246 246 246
2.575 -10.125 0.0 246 247 246
2.125 -10.275 0.0 246 246 246
5.125 -9.125 0.0 98 150 53
5.025 -9.325000000000001 0.0 118 157 122
5.125 -9.725000000000001 0.0 123 159 139
2.375 -10.275 0.0 166 166 166
4.825 -9.425 0.0 135 166 186
-0.625 -10.025 0.0 97 136 66
1.375 -10.225000000000001 0.0 246 246 246
0.625 -10.325000000000001 0.0 145 170 188
3.7750000000000004 -9.975000000000001 0.0 246 246 246
5.125 -9.475 0.0 115 157 131
4.875 -9.875 0.0 121 156 178
4.675 -9.725000000000001 0.0 127 159 181
4.425 -9.725000000000001 0.0 246 246 246
3.9250000000000003 -9.975000000000001 0.0 246 246 246
-0.47500000000000003 -9.625 0.0 1 1 1
-0.525 -9.125 0.0 3 3 3
5.025 -8.475 0.0 116 152 177
-0.625 -8.025 0.0 2 2 2
-0.7250000000000001 -7.9750000000000005 0.0 61 61 61
0.42500000000000004 -5.575 0.0 153 153 153
0.5750000000000001 -5.4750000000000005 0.0 147 147 147
0.525 -5.4750000000000005 0.0 150 150 150
2.125 -5.125 0.0 199 199 199
1.725 -5.175000000000001 0.0 128 128 127
1.2750000000000001 -5.075 0.0 106 106 106
0.875 -5.125 0.0 105 104 105
0.225 -5.075 0.0 120 121 120
2.625 -4.925000000000001 0.0 95 95 95
-1.175 -10.625 0.0 130 162 183
-2.225 -10.925 0.0 246 246 246
-2.475 -11.075000000000001 0.0 246 246 246
0.225 -10.375 0.0 145 171 189
-0.17500000000000002 -10.625 0.0 133 163 184
-1.075 -10.725000000000001 0.0 134 163 183
-1.3250000000000002 -10.825000000000001 0.0 137 166 185
-1.425 -10.625 0.0 137 166 186
-1.5250000000000001 -10.625 0.0 139 161 175
-1.975 -10.825000000000001 0.0 246 246 246
-0.025 -10.725000000000001 0.0 148 173 190
-0.8250000000000001 -10.675 0.0 138 166 185
-0.9750000000000001 -10.775 0.0 134 164 184
-1.075 -10.875 0.0 137 166 185
3.6750000000000003 -9.825000000000001 0.0 246 246 246
3.4250000000000003 -9.875 0.0 246 246 246
2.275 -10.325000000000001 0.0 230 230 230
1.8250000000000002 -10.475000000000001 0.0 246 246 246
1.675 -10.475000000000001 0.0 246 246 246
-0.125 -10.625 0.0 138 167 186
-0.525 -10.725000000000001 0.0 142 169 188
-0.625 -10.725000000000001 0.0 143 169 187
-0.7250000000000001 -10.725000000000001 0.0 145 172 189
-1.225 -10.875 0.0 134 164 184
3.475 -9.975000000000001 0.0 246 246 246
3.325 -9.925 0.0 167 167 167
2.225 -9.975000000000001 0.0 41 41 41
-0.875 -10.775 0.0 143 170 188
-1.175 -10.775 0.0 136 165 185
-1.5250000000000001 -10.675 0.0 130 162 183
-1.725 -10.675 0.0 246 246 246
4.2250000000000005 -9.825000000000001 0.0 246 246 246
4.175 -9.925 0.0 246 246 246
3.2750000000000004 -10.075000000000001 0.0 166 166 166
3.075 -9.825000000000001 0.0 5 5 5
2.475 -9.975000000000001 0.0 166 166 166
2.375 -10.025 0.0 199 199 199
0.325 -10.725000000000001 0.0 143 169 187
-0.375 -10.725000000000001 0.0 143 169 187
-1.425 -10.725000000000001 0.0 135 165 185
-1.5250000000000001 -10.725000000000001 0.0 133 163 183
-1.725 -10.725000000000001 0.0 246 246 246
-2.125 -10.875 0.0 247 247 247
3.075 -9.875 0.0 224 224 224
2.7750000000000004 -10.025 0.0 166 166 166
1.5750000000000002 -10.525 0.0 246 246 246
0.225 -10.575000000000001 0.0 139 167 186
-0.275 -10.775 0.0 136 165 185
-0.625 -10.675 0.0 139 166 185
-1.875 -10.725000000000001 0.0 246 246 246
5.675000000000001 -6.825 0.0 186 187 186
5.575 -6.825 0.0 188 189 189
4.425 -9.875 0.0 246 246 246
1.925 -10.325000000000001 0.0 246 246 246
1.8250000000000002 -10.425 0.0 246 246 246
1.725 -10.425 0.0 246 246 246
-0.5750000000000001 -10.475000000000001 0.0 132 162 183
3.6750000000000003 -10.025 0.0 246 246 246
2.5250000000000004 -10.125 0.0 126 126 126
-0.675 -10.475000000000001 0.0 137 166 185
5.575 -6.7250000000000005 0.0 188 190 188
2.975 -9.875 0.0 166 166 166
1.225 -10.475000000000001 0.0 247 247 247
0.025 -10.725000000000001 0.0 145 171 189
-0.325 -10.175 0.0 123 165 121
-2.325 -10.875 0.0 246 246 246
2.225 -10.325000000000001 0.0 187 187 187
1.975 -10.225000000000001 0.0 246 246 246
1.625 -10.425 0.0 246 246 246
0.375 -10.675 0.0 140 167 186
0.275 -10.675 0.0 153 178 193
0.125 -10.675 0.0 135 165 184
-0.125 -10.525 0.0 139 167 186
-0.42500000000000004 -10.175 0.0 125 165 106
-0.525 -9.825000000000001 0.0 144 172 185
-1.2750000000000001 -10.775 0.0 130 162 183
5.675000000000001 -6.625 0.0 195 195 195
5.775 -7.125 0.0 186 188 186
3.075 -10.025 0.0 247 247 247
2.725 -10.175 0.0 246 246 246
1.875 -10.425 0.0 246 246 246
0.275 -10.625 0.0 140 168 186
-0.225 -10.225000000000001 0.0 119 157 115
-0.42500000000000004 -9.925 0.0 62 87 44
-0.525 -10.025 0.0 95 133 61
-2.1750000000000003 -10.825000000000001 0.0 246 246 246
-2.4250000000000003 -10.925 0.0 247 247 247
-2.575 -10.975000000000001 0.0 246 246 246
2.875 -10.175 0.0 246 246 246
0.775 -10.525 0.0 134 164 184
-0.42500000000000004 -10.025 0.0 92 127 53
4.7250000000000005 -9.725000000000001 0.0 139 168 187
0.775 -10.425 0.0 137 165 185
-1.975 -10.725000000000001 0.0 246 246 246
5.525 -6.525 0.0 191 191 191
5.275 -9.225 0.0 63 101 12
4.9750000000000005 -8.975 0.0 108 154 53
-0.07500000000000001 -10.275 0.0 135 163 183
-0.17500000000000002 -10.175 0.0 147 174 192
5.2250000000000005 -9.125 0.0 106 148 173
4.875 -8.975 0.0 52 91 9
-0.47500000000000003 -7.925000000000001 0.0 30 30 30
-0.7250000000000001 -7.875 0.0 16 16 16
5.325 -6.275 0.0 187 189 187
5.4750000000000005 -6.375 0.0 201 201 201
0.325 -5.675000000000001 0.0 195 195 195
0.8250000000000001 -5.2250000000000005 0.0 135 135 135
0.775 -5.4750000000000005 0.0 157 158 157
0.42500000000000004 -5.425000000000001 0.0 161 161 161
1.625 -5.425000000000001 0.0 155 155 155
1.2750000000000001 -5.175000000000001 0.0 112 112 112
0.925 -5.325 0.0 151 150 151
2.875 -4.825 0.0 224 158 119
2.6750000000000003 -5.175000000000001 0.0 107 108 107
2.275 -5.025 0.0 104 103 104
2.1750000000000003 -5.025 0.0 42 42 42
3.1750000000000003 -4.925000000000001 0.0 70 70 70
3.125 -4.925000000000001 0.0 79 79 79
0.9750000000000001 -9.925 0.0 193 206 214
5.325 -10.475000000000001 0.0 136 165 185
5.125 -10.275 0.0 131 162 182
4.875 -10.075000000000001 0.0 127 159 181
4.775 -10.125 0.0 127 160 182
4.175 -9.825000000000001 0.0 246 246 246
2.9250000000000003 -9.875 0.0 246 246 246
1.375 -10.075000000000001 0.0 246 246 246
1.225 -9.825000000000001 0.0 246 246 246
0.675 -10.175 0.0 154 176 192
0.42500000000000004 -10.225000000000001 0.0 149 174 190
-0.675 -10.775 0.0 144 170 188
5.575 -10.475000000000001 0.0 128 161 181
5.325 -10.425 0.0 133 163 183
5.175000000000001 -10.325000000000001 0.0 132 163 183
4.125 -9.975000000000001 0.0 246 246 246
3.825 -10.125 0.0 246 246 246
2.275 -10.075000000000001 0.0 228 228 228
2.225 -10.225000000000001 0.0 224 224 224
0.325 -10.375 0.0 143 169 187
-0.275 -10.575000000000001 0.0 136 166 185
-0.42500000000000004 -10.525 0.0 137 165 185
-0.675 -10.725000000000001 0.0 144 170 188
-1.125 -10.625 0.0 133 163 183
-2.325 -10.975000000000001 0.0 247 247 247
4.875 -10.225000000000001 0.0 127 158 180
1.075 -10.575000000000001 0.0 244 244 245
0.42500000000000004 -10.525 0.0 140 168 187
-0.275 -10.525 0.0 135 164 184
4.125 -9.725000000000001 0.0 246 247 246
2.975 -9.975000000000001 0.0 148 148 148
0.325 -10.525 0.0 134 164 184
-1.475 -10.475000000000001 0.0 142 169 188
5.575 -10.575000000000001 0.0 133 163 183
5.325 -10.325000000000001 0.0 124 158 180
5.025 -10.275 0.0 126 158 180
4.175 -9.725000000000001 0.0 246 246 246
3.2750000000000004 -9.725000000000001 0.0 8 8 8
-0.775 -10.775 0.0 141 168 187
-0.925 -10.925 0.0 150 175 192
-1.0250000000000001 -10.725000000000001 0.0 136 165 184
3.875 -10.075000000000001 0.0 246 246 246
2.075 -10.125 0.0 246 246 246
1.3250000000000002 -10.525 0.0 246 246 246
0.325 -10.775 0.0 152 176 192
5.2250000000000005 -10.175 0.0 128 160 181
4.575 -9.825000000000001 0.0 123 157 180
0.47500000000000003 -10.625 0.0 144 171 189
-1.0250000000000001 -10.525 0.0 132 162 183
-1.7750000000000001 -10.525 0.0 246 246 246
3.975 -10.025 0.0 246 246 246
3.4250000000000003 -9.825000000000001 0.0 246 246 246
3.125 -9.575000000000001 0.0 76 76 76
2.9250000000000003 -10.125 0.0 246 247 246
2.6750000000000003 -10.425 0.0 247 247 247
1.175 -10.325000000000001 0.0 246 246 246
4.7250000000000005 -9.875 0.0 125 158 180
3.225 -9.825000000000001 0.0 92 92 92
2.125 -10.225000000000001 0.0 246 246 246
1.7750000000000001 -10.325000000000001 0.0 246 246 246
-0.17500000000000002 -10.425 0.0 140 168 186
3.1750000000000003 -10.125 0.0 246 246 246
3.075 -10.175 0.0 211 211 211
2.475 -10.175 0.0 246 246 246
-1.075 -10.775 0.0 135 164 184
-1.8250000000000002 -10.775 0.0 246 246 246
5.125 -9.425 0.0 120 162 109
4.7250000000000005 -9.825000000000001 0.0 120 155 178
4.575 -9.725000000000001 0.0 128 161 183
4.4750000000000005 -9.725000000000001 0.0 229 233 236
3.125 -10.375 0.0 246 247 246
0.07500000000000001 -10.775 0.0 142 169 187
3.0250000000000004 -10.375 0.0 246 246 246
2.575 -10.425 0.0 246 246 246
2.4250000000000003 -10.375 0.0 247 247 247
2.1750000000000003 -10.375 0.0 246 246 246
2.075 -10.475000000000001 0.0 247 247 247
1.2750000000000001 -10.225000000000001 0.0 246 246 246
0.42500000000000004 -10.375 0.0 148 173 190
4.025 -10.075000000000001 0.0 246 246 246
3.1750000000000003 -10.375 0.0 188 188 188
1.3250000000000002 -10.325000000000001 0.0 246 247 246
3.5250000000000004 -10.275 0.0 246 246 246
3.2750000000000004 -10.275 0.0 246 246 246
3.0250000000000004 -10.325000000000001 0.0 246 246 246
2.9250000000000003 -10.475000000000001 0.0 246 246 246
2.7750000000000004 -10.325000000000001 0.0 208 207 208
-0.275 -10.325000000000001 0.0 116 140 157
-0.325 -9.325000000000001 0.0 1 1 1
-0.42500000000000004 -8.675 0.0 1 1 1
-0.625 -7.875 0.0 1 1 1
-0.775 -7.825 0.0 105 105 105
2.7750000000000004 -5.125 0.0 120 121 120
1.8250000000000002 -5.2250000000000005 0.0 115 115 115
-1.625 -10.675 0.0 210 210 210
-2.075 -10.725000000000001 0.0 246 246 246
-1.125 -10.675 0.0 133 163 183
-1.225 -10.475000000000001 0.0 144 171 189
0.525 -10.525 0.0 138 167 186
0.07500000000000001 -10.725000000000001 0.0 149 172 189
-0.125 -10.725000000000001 0.0 144 170 188
-0.675 -10.575000000000001 0.0 135 164 184
-0.775 -10.575000000000001 0.0 133 164 184
-1.925 -10.675 0.0 246 247 246
1.2750000000000001 -10.675 0.0 246 246 246
0.9750000000000001 -10.075000000000001 0.0 215 222 227
-1.125 -10.875 0.0 139 167 187
-2.325 -11.075000000000001 0.0 246 246 246
4.025 -9.825000000000001 0.0 246 246 246
1.875 -10.725000000000001 0.0 247 247 247
-1.125 -10.725000000000001 0.0 135 164 184
0.42500000000000004 -10.725000000000001 0.0 145 171 189
-1.225 -10.725000000000001 0.0 135 164 184
-1.5750000000000002 -10.875 0.0 125 158 180
-1.975 -10.675 0.0 246 246 246
4.775 -9.925 0.0 133 163 183
3.575 -9.825000000000001 0.0 246 246 246
2.7750000000000004 -10.175 0.0 125 125 125
2.5250000000000004 -10.175 0.0 130 130 130
1.125 -10.275 0.0 246 246 246
-0.025 -10.625 0.0 137 166 185
-0.125 -10.675 0.0 143 170 188
-2.075 -10.775 0.0 246 246 246
2.325 -10.225000000000001 0.0 173 173 173
1.125 -10.425 0.0 247 247 247
0.5750000000000001 -10.475000000000001 0.0 150 174 191
-1.0250000000000001 -10.925 0.0 135 165 184
4.375 -9.825000000000001 0.0 246 246 246
0.47500000000000003 -10.725000000000001 0.0 146 172 190
-0.325 -10.675 0.0 140 169 181
4.525 -9.925 0.0 246 246 246
1.475 -10.925 0.0 247 247 247
1.0250000000000001 -10.475000000000001 0.0 192 206 215
0.7250000000000001 -10.725000000000001 0.0 146 172 188
0.5750000000000001 -10.625 0.0 147 173 190
0.025 -10.475000000000001 0.0 141 169 188
-0.42500000000000004 -10.125 0.0 113 159 53
-0.5750000000000001 -9.775 0.0 123 161 122
2.325 -10.175 0.0 247 247 247
0.025 -10.625 0.0 139 166 186
-0.7250000000000001 -10.325000000000001 0.0 132 163 174
3.475 -10.225000000000001 0.0 246 246 246
2.9250000000000003 -10.425 0.0 247 247 247
-0.47500000000000003 -9.925 0.0 81 114 83
-1.125 -10.775 0.0 135 164 184
-1.425 -10.775 0.0 130 162 183
5.325 -9.725000000000001 0.0 130 176 58
5.175000000000001 -9.725000000000001 0.0 130 160 181
4.925000000000001 -9.775 0.0 131 163 183
3.725 -10.125 0.0 246 246 246
3.225 -10.175 0.0 246 246 246
3.125 -10.275 0.0 246 246 246
2.875 -10.325000000000001 0.0 246 246 246
2.6750000000000003 -10.525 0.0 194 194 194
1.975 -10.725000000000001 0.0 247 247 247
0.7250000000000001 -10.625 0.0 141 169 187
0.125 -10.425 0.0 145 171 189
-1.0250000000000001 -10.975000000000001 0.0 123 156 179
-1.2750000000000001 -10.525 0.0 133 163 183
5.175000000000001 -9.225 0.0 91 151 7
4.925000000000001 -9.475 0.0 136 166 186
3.625 -10.175 0.0 246 246 246
3.375 -10.125 0.0 246 246 246
0.47500000000000003 -10.375 0.0 148 173 191
-0.925 -11.075000000000001 0.0 144 171 190
3.7750000000000004 -10.225000000000001 0.0 246 246 246
3.6750000000000003 -10.275 0.0 246 246 246
3.4250000000000003 -10.275 0.0 246 247 246
0.5750000000000001 -10.425 0.0 144 170 188
-0.375 -9.325000000000001 0.0 5 5 5
-0.625 -9.175 0.0 2 2 2
3.9250000000000003 -10.175 0.0 246 246 246
3.6750000000000003 -10.225000000000001 0.0 247 247 247
3.1750000000000003 -10.275 0.0 246 246 246
1.0250000000000001 -9.975000000000001 0.0 246 246 246
-0.47500000000000003 -8.675 0.0 3 3 3
-0.675 -8.075000000000001 0.0 1 1 1
-0.875 -8.475 0.0 162 162 162
-0.675 -8.025 0.0 1 1 1
1.475 -4.875 0.0 187 186 187
1.375 -4.875 0.0 174 174 174
1.3250000000000002 -5.2250000000000005 0.0 136 136 136
0.8250000000000001 -5.075 0.0 132 131 131
2.5250000000000004 -5.025 0.0 91 92 92
2.625 -5.425000000000001 0.0 110 110 110
1.375 -5.325 0.0 150 151 151
1.175 -5.175000000000001 0.0 155 155 154
0.8250000000000001 -4.9750000000000005 0.0 145 145 145
0.7250000000000001 -5.175000000000001 0.0 107 107 107
0.375 -5.025 0.0 138 138 138
3.1750000000000003 -4.9750000000000005 0.0 68 68 68
3.1750000000000003 -5.075 0.0 71 72 71
5.175000000000001 -10.125 0.0 128 160 182
5.025 -10.075000000000001 0.0 130 163 184
4.875 -9.975000000000001 0.0 130 160 181
0.9750000000000001 -10.175 0.0 214 221 227
0.625 -10.175 0.0 153 177 193
-0.7250000000000001 -10.625 0.0 136 165 185
-2.275 -10.975000000000001 0.0 247 247 247
-2.4250000000000003 -11.025 0.0 247 247 247
-2.575 -11.075000000000001 0.0 246 246 246
5.7250000000000005 -9.975000000000001 0.0 126 160 182
5.625 -10.025 0.0 124 159 181
-1.3250000000000002 -10.625 0.0 149 174 191
5.075 -10.125 0.0 126 157 179
4.675 -9.825000000000001 0.0 125 157 178
2.875 -9.625 0.0 14 14 14
2.825 -9.825000000000001 0.0 12 12 12
2.625 -9.875 0.0 195 195 195
2.5250000000000004 -9.975000000000001 0.0 181 181 181
-0.47500000000000003 -10.525 0.0 131 161 181
-0.7250000000000001 -10.675 0.0 139 167 186
-1.475 -10.775 0.0 136 165 185
0.675 -10.475000000000001 0.0 137 165 185
-1.3250000000000002 -10.675 0.0 146 171 189
-2.1750000000000003 -10.975000000000001 0.0 247 247 247
5.425000000000001 -10.075000000000001 0.0 127 160 182
2.375 -10.775 0.0 54 54 54
1.875 -9.925 0.0 246 246 246
1.875 -10.675 0.0 246 246 246
-0.025 -10.375 0.0 151 175 192
5.925000000000001 -10.475000000000001 0.0 124 158 180
5.625 -10.375 0.0 127 158 181
1.7750000000000001 -10.125 0.0 247 247 247
-0.8250000000000001 -10.525 0.0 137 167 186
6.175000000000001 -10.575000000000001 0.0 125 160 182
5.4750000000000005 -10.325000000000001 0.0 126 159 181
4.375 -9.625 0.0 246 246 246
0.775 -10.175 0.0 154 178 193
-0.875 -10.675 0.0 144 170 188
-1.3250000000000002 -10.725000000000001 0.0 144 171 189
5.325 -10.225000000000001 0.0 129 161 183
4.275 -9.675 0.0 246 246 246
3.475 -9.925 0.0 246 246 246
-0.025 -10.475000000000001 0.0 141 169 188
-0.375 -10.375 0.0 141 174 159
-0.47500000000000003 -10.225000000000001 0.0 104 146 49
5.175000000000001 -9.025 0.0 119 170 72
2.975 -10.175 0.0 150 150 150
2.325 -10.475000000000001 0.0 246 246 246
1.075 -10.075000000000001 0.0 246 246 246
0.8250000000000001 -10.925 0.0 147 172 189
0.675 -10.725000000000001 0.0 149 174 191
0.17500000000000002 -10.275 0.0 144 170 188
5.025 -9.675 0.0 48 88 8
4.925000000000001 -10.175 0.0 126 159 181
4.2250000000000005 -9.725000000000001 0.0 246 246 246
4.075 -9.675 0.0 246 246 246
2.6750000000000003 -10.325000000000001 0.0 167 167 167
2.475 -10.475000000000001 0.0 247 247 247
1.975 -10.475000000000001 0.0 248 248 248
1.7750000000000001 -10.575000000000001 0.0 247 247 247
0.775 -10.775 0.0 147 173 191
-0.875 -10.525 0.0 136 166 185
-2.475 -10.975000000000001 0.0 247 247 247
6.4750000000000005 -10.375 0.0 115 153 176
3.375 -10.225000000000001 0.0 246 246 246
3.125 -10.225000000000001 0.0 210 210 210
-0.5750000000000001 -9.675 0.0 116 154 93
-2.475 -10.925 0.0 247 247 247
-2.725 -11.025 0.0 247 247 247
3.375 -10.175 0.0 247 247 247
2.5250000000000004 -10.275 0.0 247 247 247
1.875 -10.625 0.0 247 247 247
0.875 -10.425 0.0 140 168 187
0.775 -10.675 0.0 140 167 186
5.025 -9.225 0.0 115 155 151
3.2750000000000004 -10.225000000000001 0.0 246 246 246
2.325 -10.325000000000001 0.0 188 188 188
1.225 -10.125 0.0 246 246 246
0.775 -10.275 0.0 144 170 187
-0.5750000000000001 -9.725000000000001 0.0 90 122 103
1.3250000000000002 -5.325 0.0 92 92 92
1.2750000000000001 -5.275 0.0 78 78 78
2.875 -4.9750000000000005 0.0 42 40 35
1.375 -5.2250000000000005 0.0 121 120 121
1.125 -5.175000000000001 0.0 144 144 144
1.075 -5.175000000000001 0.0 116 116 116
0.925 -5.175000000000001 0.0 113 113 113
0.625 -5.175000000000001 0.0 155 156 155
0.525 -5.2250000000000005 0.0 139 138 138
1.8250000000000002 -5.125 0.0 40 40 41
1.125 -5.125 0.0 97 97 97
0.9750000000000001 -5.125 0.0 86 86 86
0.7250000000000001 -5.125 0.0 108 108 108
-0.125 -10.775 0.0 144 171 190
1.3250000000000002 -10.425 0.0 246 246 246
1.175 -10.175 0.0 246 246 246
1.075 -10.225000000000001 0.0 246 246 246
-0.47500000000000003 -10.775 0.0 146 171 189
0.675 -10.425 0.0 146 172 189
0.17500000000000002 -10.775 0.0 149 174 191
-0.375 -10.825000000000001 0.0 142 168 186
5.525 -10.075000000000001 0.0 125 159 181
0.8250000000000001 -10.725000000000001 0.0 146 171 189
0.17500000000000002 -10.725000000000001 0.0 147 171 189
5.325 -10.025 0.0 130 163 183
-0.225 -10.725000000000001 0.0 139 167 186
5.675000000000001 -10.075000000000001 0.0 124 158 180
2.075 -9.975000000000001 0.0 246 246 246
1.0250000000000001 -10.675 0.0 144 171 190
-0.025 -10.675 0.0 141 169 187
4.4750000000000005 -9.975000000000001 0.0 246 247 247
3.225 -9.725000000000001 0.0 4 4 4
-1.175 -10.975000000000001 0.0 139 167 186
-1.2750000000000001 -11.025 0.0 137 166 185
5.075 -9.975000000000001 0.0 125 158 180
4.2250000000000005 -9.975000000000001 0.0 246 246 246
0.7250000000000001 -10.525 0.0 136 166 185
5.2250000000000005 -10.025 0.0 125 158 181
0.625 -10.675 0.0 146 172 189
4.925000000000001 -9.975000000000001 0.0 128 160 181
2.975 -10.325000000000001 0.0 246 247 246
0.7250000000000001 -10.675 0.0 139 167 186
4.175 -9.975000000000001 0.0 246 246 246
3.725 -10.175 0.0 246 246 246
2.4250000000000003 -10.475000000000001 0.0 246 246 246
1.0250000000000001 -10.425 0.0 203 215 222
0.925 -10.475000000000001 0.0 141 168 187
-0.5750000000000001 -9.925 0.0 110 149 96
3.325 -10.175 0.0 247 247 247
2.275 -10.425 0.0 246 246 246
0.7250000000000001 -10.425 0.0 142 170 188
5.075 -9.225 0.0 121 157 175
4.925000000000001 -9.375 0.0 123 157 179
3.625 -10.225000000000001 0.0 247 247 247
2.5250000000000004 -10.375 0.0 247 247 247
2.225 -10.525 0.0 247 247 247
1.375 -10.425 0.0 247 247 247
0.375 -10.325000000000001 0.0 145 171 189
0.17500000000000002 -10.475000000000001 0.0 139 168 187
5.025 -9.125 0.0 90 130 121
3.325 -10.375 0.0 246 246 246
-1.175 -9.375 0.0 83 95 104
-0.675 -7.925000000000001 0.0 1 1 1
-0.7250000000000001 -7.825 0.0 60 60 60
5.625 -6.875 0.0 207 207 206
0.8250000000000001 -5.275 0.0 108 108 108
0.325 -5.425000000000001 0.0 147 148 148
1.725 -5.125 0.0 61 61 61
1.475 -5.125 0.0 75 75 75
0.325 -5.275 0.0 50 50 50
3.0250000000000004 -10.025 0.0 247 247 247
2.975 -10.125 0.0 247 247 247
2.6750000000000003 -10.225000000000001 0.0 246 246 246
2.025 -9.875 0.0 224 225 224
3.125 -9.675 0.0 8 8 8
2.4250000000000003 -10.125 0.0 169 169 169
-0.675 -10.675 0.0 139 167 186
1.425 -10.325000000000001 0.0 247 247 247
0.325 -10.325000000000001 0.0 145 171 188
6.175000000000001 -10.425 0.0 121 157 179
1.2750000000000001 -10.525 0.0 246 247 246
0.675 -10.575000000000001 0.0 141 169 187
0.47500000000000003 -10.225000000000001 0.0 153 177 192
5.525 -10.375 0.0 128 161 182
4.2250000000000005 -9.675 0.0 246 246 246
1.675 -10.225000000000001 0.0 247 247 247
3.1750000000000003 -9.675 0.0 5 5 5
2.875 -10.575000000000001 0.0 25 25 25
0.125 -10.325000000000001 0.0 151 176 192
5.775 -10.175 0.0 124 158 180
5.625 -10.125 0.0 125 159 181
4.9750000000000005 -10.025 0.0 120 155 178
1.7750000000000001 -10.175 0.0 246 247 246
0.225 -10.125 0.0 148 173 191
-1.875 -10.625 0.0 246 246 246
5.325 -10.175 0.0 125 158 181
3.075 -9.725000000000001 0.0 116 115 116
0.675 -10.675 0.0 141 168 186
-0.525 -10.325000000000001 0.0 129 165 116
-0.625 -10.375 0.0 154 178 173
4.9750000000000005 -9.925 0.0 125 157 179
3.0250000000000004 -10.125 0.0 217 217 217
2.025 -10.175 0.0 246 246 246
-0.9750000000000001 -10.425 0.0 120 155 178
5.2250000000000005 -9.375 0.0 109 162 11
1.7750000000000001 -10.225000000000001 0.0 246 246 246
-0.625 -10.175 0.0 67 109 20
5.275 -9.075000000000001 0.0 109 150 176
4.9750000000000005 -9.475 0.0 125 158 181
3.475 -10.175 0.0 246 246 246
1.5750000000000002 -10.225000000000001 0.0 247 247 247
1.475 -10.175 0.0 247 247 247
-0.275 -10.025 0.0 116 155 100
-1.2750000000000001 -10.875 0.0 130 161 182
-1.725 -10.775 0.0 247 247 247
-1.125 -10.525 0.0 133 163 184
-1.625 -10.775 0.0 170 170 170
-0.225 -9.175 0.0 0 0 0
-0.42500000000000004 -8.975 0.0 1 1 1
-0.7250000000000001 -8.525 0.0 4 4 4
-0.525 -8.175 0.0 70 70 70
-0.525 -7.825 0.0 100 100 100
-0.775 -7.875 0.0 110 111 111
-0.625 -7.825 0.0 1 1 1
-0.875 -7.875 0.0 5 5 5
1.625 -5.2250000000000005 0.0 139 139 140
1.5750000000000002 -5.275 0.0 123 122 122
-1.5250000000000001 -10.375 0.0 143 144 143
2.075 -9.925 0.0 211 211 211
1.375 -10.175 0.0 246 246 246
1.675 -10.075000000000001 0.0 246 246 246
1.2750000000000001 -10.125 0.0 246 246 246
1.175 -10.025 0.0 246 246 246
1.925 -9.675 0.0 247 247 247
1.125 -10.625 0.0 247 247 247
-0.225 -10.675 0.0 138 166 186
4.275 -9.625 0.0 247 247 247
2.275 -10.175 0.0 167 167 167
2.025 -10.075000000000001 0.0 247 247 247
1.8250000000000002 -9.525 0.0 247 247 247
1.125 -10.475000000000001 0.0 247 247 247
-0.025 -10.775 0.0 151 175 192
3.225 -9.625 0.0 34 34 34
1.225 -10.575000000000001 0.0 247 247 247
-1.925 -10.875 0.0 246 247 246
3.2750000000000004 -9.675 0.0 4 4 4
1.725 -10.175 0.0 247 246 246
0.8250000000000001 -11.075000000000001 0.0 144 170 187
-0.675 -10.275 0.0 143 170 188
-1.375 -11.025 0.0 135 165 184
-0.025 -10.325000000000001 0.0 148 174 191
3.125 -9.525 0.0 247 247 247
-0.17500000000000002 -9.925 0.0 151 178 169
5.9750000000000005 -10.325000000000001 0.0 124 158 181
4.2250000000000005 -9.625 0.0 247 247 247
2.575 -10.225000000000001 0.0 246 247 246
1.875 -10.175 0.0 247 247 247
-0.7250000000000001 -10.075000000000001 0.0 134 165 185
-1.625 -10.375 0.0 246 246 246
3.875 -9.825000000000001 0.0 246 246 246
2.575 -10.275 0.0 246 246 246
2.225 -10.125 0.0 246 246 246
5.075 -8.775 0.0 112 156 92
5.025 -8.875 0.0 107 165 11
4.125 -9.625 0.0 247 247 247
0.07500000000000001 -11.025 0.0 139 168 186
-1.3250000000000002 -10.925 0.0 131 162 183
1.125 -10.175 0.0 246 246 246
0.925 -10.325000000000001 0.0 139 166 186
-0.125 -10.875 0.0 131 163 183
-0.375 -9.825000000000001 0.0 84 109 91
5.575 -9.475 0.0 110 150 174
5.375 -9.325000000000001 0.0 99 138 123
1.125 -10.225000000000001 0.0 246 246 246
0.925 -10.225000000000001 0.0 135 164 184
0.625 -10.775 0.0 143 168 186
-0.675 -9.325000000000001 0.0 1 1 1
-0.47500000000000003 -8.325000000000001 0.0 0 0 0
6.575 -9.625 0.0 105 147 173
5.2250000000000005 -8.725 0.0 0 0 0
4.9750000000000005 -8.525 0.0 110 150 176
1.225 -5.325 0.0 142 142 142
2.7750000000000004 -4.9750000000000005 0.0 62 62 62
-1.075 -10.625 0.0 131 162 183
5.125 -10.375 0.0 124 156 178
-0.025 -10.875 0.0 154 177 193
-0.225 -10.775 0.0 151 175 192
-1.2750000000000001 -10.675 0.0 134 163 184
-0.225 -10.875 0.0 150 175 191
2.025 -9.975000000000001 0.0 246 246 246
3.1750000000000003 -10.525 0.0 12 12 12
2.875 -10.725000000000001 0.0 11 11 11
2.4250000000000003 -10.625 0.0 31 31 31
-3.075 -11.225000000000001 0.0 246 246 246
-3.475 -11.375 0.0 246 246 246
0.9750000000000001 -10.625 0.0 142 170 188
-2.825 -11.025 0.0 247 247 247
-3.325 -11.325000000000001 0.0 247 247 247
-0.42500000000000004 -10.275 0.0 125 175 69
-3.475 -11.325000000000001 0.0 247 247 247
5.425000000000001 -9.725000000000001 0.0 113 164 91
-0.525 -10.125 0.0 122 157 147
4.9750000000000005 -8.825000000000001 0.0 115 168 37
5.2250000000000005 -9.275 0.0 100 158 12
0.875 -10.875 0.0 144 170 188
-0.225 -10.075000000000001 0.0 118 161 59
-2.725 -11.075000000000001 0.0 247 247 247
4.875 -9.375 0.0 129 163 185
4.075 -10.075000000000001 0.0 246 246 246
0.07500000000000001 -10.875 0.0 149 174 192
-0.775 -10.375 0.0 134 165 184
3.7750000000000004 -10.175 0.0 247 247 247
-0.275 -9.525 0.0 0 0 0
-0.7250000000000001 -8.675 0.0 4 5 4
-0.47500000000000003 -8.075000000000001 0.0 85 85 85
-0.525 -7.9750000000000005 0.0 97 97 97
0.47500000000000003 -4.9750000000000005 0.0 155 155 155
0.325 -5.625 0.0 139 139 138
0.42500000000000004 -4.925000000000001 0.0 138 138 138
-0.625 -10.775 0.0 137 165 184
0.7250000000000001 -10.275 0.0 148 173 190
1.925 -10.125 0.0 246 246 246
0.525 -10.275 0.0 146 171 188
0.925 -10.575000000000001 0.0 139 167 186
2.825 -10.625 0.0 5 5 5
2.975 -10.425 0.0 5 5 5
1.925 -9.775 0.0 246 246 246
-0.47500000000000003 -10.425 0.0 134 169 163
2.725 -10.625 0.0 5 5 5
0.675 -10.825000000000001 0.0 153 177 193
-0.675 -9.975000000000001 0.0 133 164 184
-0.8250000000000001 -10.275 0.0 134 164 184
0.875 -10.675 0.0 144 172 189
0.47500000000000003 -10.825000000000001 0.0 147 172 190
-0.17500000000000002 -10.325000000000001 0.0 132 162 182
-0.675 -9.775 0.0 145 171 189
-1.175 -11.075000000000001 0.0 140 168 187
6.325 -10.425 0.0 111 151 176
2.825 -10.525 0.0 246 246 246
-0.17500000000000002 -10.025 0.0 145 172 190
-0.925 -10.375 0.0 130 161 181
5.175000000000001 -9.525 0.0 131 176 69
5.025 -9.725000000000001 0.0 63 107 28
1.725 -10.675 0.0 246 246 246
0.9750000000000001 -10.775 0.0 142 169 187
-0.125 -10.425 0.0 139 167 186
-0.625 -10.325000000000001 0.0 127 157 160
2.475 -10.425 0.0 246 246 246
2.275 -10.525 0.0 246 246 246
3.225 -10.225000000000001 0.0 246 246 246
-0.625 -9.525 0.0 6 6 6
-0.625 -8.975 0.0 1 1 1
6.025 -10.125 0.0 115 153 177
-0.47500000000000003 -7.7250000000000005 0.0 92 93 93
0.42500000000000004 -5.275 0.0 127 128 127
0.325 -5.2250000000000005 0.0 38 38 39
0.675 -5.125 0.0 98 98 98
0.42500000000000004 -5.175000000000001 0.0 118 118 119
0.225 -5.175000000000001 0.0 3 3 3
6.325 -10.325000000000001 0.0 108 148 174
1.8250000000000002 -9.975000000000001 0.0 246 246 246
1.725 -10.025 0.0 246 246 246
1.625 -10.125 0.0 246 246 246
-1.5250000000000001 -10.325000000000001 0.0 135 135 135
2.375 -9.825000000000001 0.0 5 5 5
5.125 -10.175 0.0 119 156 179
1.625 -10.175 0.0 246 246 246
2.275 -9.825000000000001 0.0 5 5 5
1.7750000000000001 -9.825000000000001 0.0 246 247 246
-1.2750000000000001 -10.725000000000001 0.0 133 163 184
-1.375 -10.675 0.0 134 165 185
5.875 -10.325000000000001 0.0 110 150 175
3.0250000000000004 -9.625 0.0 247 247 247
2.325 -10.425 0.0 246 246 246
0.42500000000000004 -10.875 0.0 138 166 186
4.4750000000000005 -9.675 0.0 120 156 179
2.275 -10.225000000000001 0.0 246 247 246
-0.8250000000000001 -9.875 0.0 137 166 185
-1.375 -10.475000000000001 0.0 140 167 185
2.325 -10.575000000000001 0.0 246 246 246
0.025 -10.675 0.0 144 171 189
3.625 -10.325000000000001 0.0 247 247 247
2.475 -10.575000000000001 0.0 248 248 248
5.125 -9.675 0.0 91 130 121
2.025 -10.675 0.0 246 246 246
1.925 -10.775 0.0 246 246 246
5.125 -9.925 0.0 109 148 173
-0.375 -9.425 0.0 0 1 0
-0.375 -8.875 0.0 1 1 1
-0.5750000000000001 -8.475 0.0 6 6 6
2.6750000000000003 -4.7250000000000005 0.0 33 31 25
1.375 -5.125 0.0 122 122 123
1.625 -5.025 0.0 71 71 71
1.2750000000000001 -5.025 0.0 91 92 92
0.525 -5.275 0.0 140 140 140
2.1750000000000003 -4.875 0.0 49 49 50
0.675 -5.175000000000001 0.0 96 97 96
-1.875 -10.525 0.0 247 247 247
3.0250000000000004 -10.575000000000001 0.0 243 243 243
1.475 -10.375 0.0 246 246 246
2.5250000000000004 -9.825000000000001 0.0 168 168 168
1.875 -9.575000000000001 0.0 247 247 247
1.5750000000000002 -10.275 0.0 246 246 246
-0.325 -10.425 0.0 145 173 178
1.2750000000000001 -10.275 0.0 246 246 246
0.5750000000000001 -10.925 0.0 146 172 189
1.475 -10.225000000000001 0.0 246 246 246
0.8250000000000001 -10.625 0.0 142 168 187
-0.17500000000000002 -9.775 0.0 98 134 93
-0.47500000000000003 -9.675 0.0 50 72 23
1.925 -10.225000000000001 0.0 246 246 246
-0.9750000000000001 -11.225000000000001 0.0 136 165 185
0.925 -10.775 0.0 148 174 192
1.0250000000000001 -10.225000000000001 0.0 233 236 239
-0.275 -9.725000000000001 0.0 32 39 44
-0.47500000000000003 -9.225 0.0 3 3 3
-0.625 -9.375 0.0 6 6 6
-0.42500000000000004 -8.825000000000001 0.0 1 1 1
-0.42500000000000004 -8.175 0.0 0 0 0
-0.8250000000000001 -7.9750000000000005 0.0 86 86 86
0.225 -5.275 0.0 6 6 6
-0.7250000000000001 -10.475000000000001 0.0 138 168 187
3.375 -9.725000000000001 0.0 247 247 247
2.075 -9.825000000000001 0.0 199 199 199
1.5250000000000001 -10.475000000000001 0.0 246 246 246
2.025 -9.825000000000001 0.0 246 246 246
0.025 -10.425 0.0 146 172 190
1.725 -9.875 0.0 88 88 88
-0.47500000000000003 -10.175 0.0 130 173 93
-0.5750000000000001 -10.075000000000001 0.0 95 137 71
-0.125 -10.175 0.0 127 163 121
-1.5750000000000002 -10.325000000000001 0.0 247 247 247
-0.125 -9.875 0.0 127 160 150
-0.275 -9.925 0.0 111 148 95
-0.47500000000000003 -9.525 0.0 125 161 156
2.325 -10.025 0.0 246 246 246
-0.325 -9.425 0.0 1 1 1
-0.525 -9.375 0.0 11 12 13
-0.7250000000000001 -9.375 0.0 1 1 1
-0.7250000000000001 -9.025 0.0 6 6 7
-0.275 -9.225 0.0 1 1 1
3.875 -10.225000000000001 0.0 248 248 248
6.075 -10.125 0.0 118 155 179
-0.42500000000000004 -7.875 0.0 1 1 1
0.675 -5.325 0.0 5 5 5
0.625 -5.375 0.0 4 4 4
0.375 -5.4750000000000005 0.0 161 160 161
1.125 -5.275 0.0 3 3 3
0.9750000000000001 -5.275 0.0 12 12 12
1.5250000000000001 -5.175000000000001 0.0 109 109 109
0.625 -5.125 0.0 81 81 80
2.4250000000000003 -4.925000000000001 0.0 54 54 54
0.5750000000000001 -10.125 0.0 150 175 191
-2.325 -10.825000000000001 0.0 246 246 246
-2.4250000000000003 -10.825000000000001 0.0 246 246 246
-2.5250000000000004 -10.825000000000001 0.0 246 247 246
3.825 -9.825000000000001 0.0 246 246 246
1.925 -9.725000000000001 0.0 246 246 246
1.7750000000000001 -9.575000000000001 0.0 247 247 247
2.6750000000000003 -11.175 0.0 73 73 73
2.625 -11.025 0.0 56 56 56
0.7250000000000001 -10.775 0.0 149 174 191
2.7750000000000004 -10.975000000000001 0.0 25 25 26
3.0250000000000004 -10.175 0.0 167 167 167
3.4250000000000003 -10.375 0.0 247 247 247
-0.375 -9.525 0.0 2 2 2
-0.42500000000000004 -7.7250000000000005 0.0 8 8 8
0.325 -5.4750000000000005 0.0 3 3 3
0.275 -5.375 0.0 3 3 3
1.075 -9.975000000000001 0.0 246 246 246
2.725 -10.025 0.0 186 186 186
1.8250000000000002 -9.925 0.0 246 246 246
1.725 -10.825000000000001 0.0 246 246 246
1.625 -10.825000000000001 0.0 246 246 246
1.875 -9.975000000000001 0.0 246 247 246
2.475 -10.775 0.0 9 9 9
1.075 -10.425 0.0 246 246 246
-0.07500000000000001 -10.125 0.0 132 163 175
4.175 -10.075000000000001 0.0 246 246 246
4.375 -9.975000000000001 0.0 246 246 246
1.175 -10.225000000000001 0.0 246 246 246
-0.8250000000000001 -11.125 0.0 121 155 177
-1.3250000000000002 -11.025 0.0 126 159 181
-1.975 -10.975000000000001 0.0 247 247 247
4.825 -9.275 0.0 114 148 67
4.7250000000000005 -9.275 0.0 114 152 177
4.025 -9.525 0.0 246 247 246
2.825 -10.225000000000001 0.0 246 246 246
2.075 -10.575000000000001 0.0 246 247 246
4.275 -9.525 0.0 247 247 247
2.5250000000000004 -10.225000000000001 0.0 246 246 246
-0.375 -9.175 0.0 1 1 1
-0.47500000000000003 -9.325000000000001 0.0 2 2 2
-0.675 -8.775 0.0 1 1 1
-0.42500000000000004 -8.625 0.0 2 2 2
-0.42500000000000004 -7.825 0.0 1 1 1
-0.875 -8.025 0.0 108 108 108
-0.325 -7.9750000000000005 0.0 1 1 1
0.675 -10.275 0.0 145 172 189
3.0250000000000004 -10.225000000000001 0.0 25 25 25
2.625 -9.825000000000001 0.0 38 38 38
2.575 -10.575000000000001 0.0 55 55 55
2.6750000000000003 -10.775 0.0 29 29 29
3.0250000000000004 -9.675 0.0 6 6 6
0.375 -10.825000000000001 0.0 150 175 191
-1.075 -10.475000000000001 0.0 130 161 182
1.2750000000000001 -10.575000000000001 0.0 246 246 246
-0.5750000000000001 -10.225000000000001 0.0 126 159 179
-0.675 -10.225000000000001 0.0 113 151 112
2.975 -10.475000000000001 0.0 246 246 246
1.5750000000000002 -10.675 0.0 246 247 246
1.475 -10.725000000000001 0.0 247 247 247
-1.425 -11.075000000000001 0.0 132 162 183
1.975 -10.625 0.0 246 246 246
1.2750000000000001 -10.375 0.0 247 247 247
0.5750000000000001 -10.225000000000001 0.0 142 169 187
-0.675 -10.075000000000001 0.0 98 134 88
-0.775 -10.875 0.0 129 161 182
-2.075 -10.625 0.0 247 247 247
4.175 -9.625 0.0 247 247 247
-0.5750000000000001 -9.325000000000001 0.0 2 2 2
-0.42500000000000004 -9.075000000000001 0.0 1 1 1
-0.42500000000000004 -8.125 0.0 1 1 1
-0.675 -7.825 0.0 1 1 1
0.42500000000000004 -5.125 0.0 83 83 83
0.925 -5.025 0.0 90 90 90
0.47500000000000003 -10.125 0.0 153 176 192
1.475 -10.125 0.0 246 246 246
-0.675 -10.425 0.0 133 161 181
2.975 -10.225000000000001 0.0 127 127 127
4.375 -10.125 0.0 246 246 246
1.2750000000000001 -10.175 0.0 246 246 246
2.025 -9.725000000000001 0.0 247 247 247
0.525 -10.875 0.0 143 170 188
2.975 -9.625 0.0 76 76 76
2.9250000000000003 -9.525 0.0 5 5 5
2.625 -10.525 0.0 246 246 246
3.0250000000000004 -10.475000000000001 0.0 247 247 247
5.175000000000001 -9.575000000000001 0.0 157 192 81
3.075 -10.475000000000001 0.0 247 247 247
-0.325 -9.825000000000001 0.0 110 150 118
-0.5750000000000001 -8.425 0.0 3 3 3
4.825 -8.975 0.0 37 62 23
4.925000000000001 -8.475 0.0 93 137 165
1.075 -5.075 0.0 83 83 83
4.125 -10.175 0.0 246 246 246
4.075 -10.225000000000001 0.0 247 247 247
4.275 -10.075000000000001 0.0 246 246 246
-1.675 -10.425 0.0 246 246 246
2.825 -9.625 0.0 8 8 8
0.675 -10.925 0.0 142 168 186
2.625 -9.725000000000001 0.0 246 246 246
2.4250000000000003 -10.175 0.0 247 247 247
0.925 -10.175 0.0 148 174 191
-0.675 -10.175 0.0 98 136 92
1.125 -10.075000000000001 0.0 246 246 246
-2.4250000000000003 -11.125 0.0 247 247 247
1.125 -10.025 0.0 246 246 246
-0.42500000000000004 -9.025 0.0 1 1 1
-0.47500000000000003 -8.625 0.0 1 1 1
-0.42500000000000004 -7.9750000000000005 0.0 0 0 0
1.375 -10.025 0.0 247 247 247
2.1750000000000003 -9.925 0.0 184 184 184
4.275 -9.975000000000001 0.0 246 246 246
2.025 -9.625 0.0 13 13 13
-1.075 -10.375 0.0 125 158 180
-0.9750000000000001 -10.275 0.0 114 152 176
0.925 -9.975000000000001 0.0 137 166 186
-0.375 -9.675 0.0 63 78 82
-0.675 -9.625 0.0 1 1 1
-0.7250000000000001 -9.475 0.0 2 2 2
4.875 -9.225 0.0 119 157 173
-0.875 -8.125 0.0 97 97 97
2.975 -9.675 0.0 5 5 5
4.025 -10.225000000000001 0.0 247 247 247
-0.7250000000000001 -10.375 0.0 135 163 184
2.875 -9.675 0.0 125 125 125
0.775 -9.975000000000001 0.0 142 170 189
0.325 -10.225000000000001 0.0 140 167 186
0.225 -10.225000000000001 0.0 142 168 186
4.525 -10.075000000000001 0.0 246 246 246
4.2250000000000005 -10.175 0.0 246 246 246
1.3250000000000002 -10.575000000000001 0.0 246 246 246
0.875 -9.875 0.0 137 165 185
0.625 -10.725000000000001 0.0 132 161 182
-2.1750000000000003 -10.675 0.0 247 247 247
-0.375 -8.525 0.0 1 1 1
-0.325 -7.925000000000001 0.0 2 2 2
2.275 -10.025 0.0 212 212 212
2.825 -10.825000000000001 0.0 5 5 5
1.075 -10.175 0.0 246 246 246
-0.125 -9.775 0.0 144 171 190
-0.7250000000000001 -10.025 0.0 79 119 20
-0.775 -9.425 0.0 3 3 3
-0.675 -8.925 0.0 1 1 1
-0.525 -8.875 0.0 1 1 1
-0.525 -8.375 0.0 1 1 1
2.625 -10.025 0.0 239 239 239
2.4250000000000003 -9.625 0.0 32 32 32
-2.225 -11.125 0.0 247 247 247
4.2250000000000005 -10.075000000000001 0.0 247 247 247
2.9250000000000003 -9.825000000000001 0.0 126 126 126
1.125 -9.925 0.0 247 247 247
1.2750000000000001 -10.025 0.0 246 246 246
2.275 -9.925 0.0 247 247 248
2.325 -9.875 0.0 246 246 246
-0.775 -9.075000000000001 0.0 3 3 3
0.775 -10.225000000000001 0.0 140 167 185
2.725 -9.925 0.0 246 246 246
2.475 -9.925 0.0 12 12 12
3.9250000000000003 -9.725000000000001 0.0 246 246 246
3.825 -9.725000000000001 0.0 246 246 246
2.825 -9.925 0.0 125 125 125
-0.9750000000000001 -10.225000000000001 0.0 117 153 177
-0.7250000000000001 -9.625 0.0 3 3 3
2.975 -9.825000000000001 0.0 85 85 85
-0.625 -9.475 0.0 1 1 1
2.5250000000000004 -9.925 0.0 132 132 132
-0.5750000000000001 -9.025 0.0 4 4 4
-0.875 -10.175 0.0 127 160 182
-0.275 -10.875 0.0 130 162 183
1.075 -9.925 0.0 246 246 246
-0.42500000000000004 -11.025 0.0 119 156 179
-0.375 -10.875 0.0 124 157 179
-0.325 -9.125 0.0 1 1 1
1.475 -10.025 0.0 246 246 246
2.725 -9.825000000000001 0.0 247 247 247
1.3250000000000002 -10.025 0.0 246 246 246
1.625 -9.975000000000001 0.0 246 246 246
1.425 -9.925 0.0 246 246 246
1.475 -9.925 0.0 246 246 246
3.725 -9.725000000000001 0.0 246 246 246
2.375 -9.925 0.0 246 246 246
-0.7250000000000001 -9.925 0.0 109 141 73
1.625 -9.925 0.0 246 246 246
2.475 -9.825000000000001 0.0 246 246 246
1.3250000000000002 -9.925 0.0 247 247 247
1.2750000000000001 -9.925 0.0 246 246 246
1.225 -9.925 0.0 247 247 247
