ply
format ascii 1.0
element vertex 255
property float x
property float y
property float z
property uchar red
property uchar green
property uchar blue
end_header
0.125 0.07500000000000001 0.0 19 19 19
0.125 0.025 0.0 10 10 10
0.125 -0.025 0.0 2 2 2
5.075 -0.07500000000000001 0.0 246 246 246
5.125 0.775 0.0 214 214 214
5.075 0.7250000000000001 0.0 236 236 236
5.025 0.775 0.0 204 204 204
5.025 0.7250000000000001 0.0 228 228 228
4.9750000000000005 0.5750000000000001 0.0 246 246 246
4.875 0.5750000000000001 0.0 246 246 246
4.9750000000000005 -0.17500000000000002 0.0 246 246 246
4.9750000000000005 -0.275 0.0 154 155 156
5.9750000000000005 -2.7750000000000004 0.0 63 61 61
5.9750000000000005 -2.875 0.0 50 50 49
5.9750000000000005 -3.0250000000000004 0.0 197 198 198
4.9750000000000005 -2.725 0.0 199 199 198
4.9750000000000005 -2.7750000000000004 0.0 199 199 199
4.9750000000000005 -0.125 0.0 246 246 246
5.9750000000000005 -3.125 0.0 200 200 200
5.9750000000000005 -3.1750000000000003 0.0 198 198 198
4.925000000000001 0.775 0.0 156 155 156
4.925000000000001 0.7250000000000001 0.0 217 217 217
4.925000000000001 0.625 0.0 246 246 246
4.925000000000001 -0.07500000000000001 0.0 246 246 246
4.925000000000001 -2.725 0.0 196 197 197
4.925000000000001 -2.7750000000000004 0.0 196 197 196
4.775 0.5750000000000001 0.0 246 246 246
5.125 -0.225 0.0 246 246 246
6.025 -2.975 0.0 196 196 196
4.825 -0.025 0.0 246 246 246
4.925000000000001 0.325 0.0 246 246 246
4.925000000000001 0.17500000000000002 0.0 246 246 246
4.9750000000000005 0.125 0.0 246 246 246
4.825 -0.07500000000000001 0.0 246 246 246
4.925000000000001 -0.225 0.0 245 245 245
4.925000000000001 0.125 0.0 246 246 246
5.025 -0.025 0.0 246 246 246
4.075 0.5750000000000001 0.0 246 246 246
4.9750000000000005 0.675 0.0 246 246 246
4.9750000000000005 0.025 0.0 245 245 245
4.925000000000001 -0.025 0.0 246 246 246
4.875 0.525 0.0 247 247 246
4.9750000000000005 0.325 0.0 246 246 246
4.9750000000000005 0.47500000000000003 0.0 247 247 247
4.9750000000000005 0.375 0.0 245 245 245
4.9750000000000005 0.225 0.0 246 246 246
4.875 -0.07500000000000001 0.0 247 247 247
4.925000000000001 0.375 0.0 246 246 246
4.7250000000000005 0.42500000000000004 0.0 246 246 246
4.775 0.42500000000000004 0.0 246 246 246
4.675 0.42500000000000004 0.0 246 246 246
4.875 0.675 0.0 246 246 246
4.875 0.07500000000000001 0.0 246 246 246
4.875 -0.025 0.0 246 246 246
5.075 0.675 0.0 246 246 246
4.775 0.525 0.0 246 246 246
4.9750000000000005 -2.875 0.0 239 239 239
5.925000000000001 -3.1750000000000003 0.0 200 199 200
5.925000000000001 -2.825 0.0 44 44 44
5.925000000000001 -2.9250000000000003 0.0 197 197 197
5.925000000000001 -2.975 0.0 198 199 198
5.925000000000001 -3.075 0.0 202 201 202
4.925000000000001 -2.875 0.0 246 246 246
4.875 0.025 0.0 246 246 246
4.675 0.47500000000000003 0.0 247 247 247
5.075 0.42500000000000004 0.0 246 246 246
5.075 -2.6750000000000003 0.0 196 197 197
5.075 -2.7750000000000004 0.0 200 201 200
5.075 -2.875 0.0 204 204 204
6.075 -2.825 0.0 108 106 106
6.075 -2.875 0.0 60 58 58
6.075 -2.975 0.0 194 195 194
6.075 -3.0250000000000004 0.0 198 198 197
6.075 -3.125 0.0 200 201 201
5.075 0.625 0.0 246 246 246
4.875 0.375 0.0 245 245 245
4.875 0.275 0.0 246 246 246
4.625 0.525 0.0 246 246 246
6.075 -3.1750000000000003 0.0 199 199 199
4.925000000000001 0.47500000000000003 0.0 246 246 246
4.925000000000001 0.025 0.0 246 246 246
4.7250000000000005 0.525 0.0 246 246 246
4.825 0.325 0.0 245 245 245
4.825 0.675 0.0 247 247 247
4.7250000000000005 0.325 0.0 247 248 247
4.625 0.42500000000000004 0.0 245 245 245
4.925000000000001 0.675 0.0 246 246 246
5.075 0.17500000000000002 0.0 246 246 246
5.075 -0.025 0.0 246 246 246
4.775 0.225 0.0 247 247 247
5.075 0.07500000000000001 0.0 247 247 247
5.875 0.925 0.0 145 145 145
2.025 5.925000000000001 0.0 253 252 244
4.425 6.775 0.0 50 46 47
4.375 3.5250000000000004 0.0 238 238 238
0.625 5.4750000000000005 0.0 104 93 61
0.675 5.425000000000001 0.0 9 9 9
0.625 5.325 0.0 176 162 112
0.675 5.525 0.0 133 124 96
0.675 5.575 0.0 77 77 73
2.025 10.825000000000001 0.0 132 164 184
2.075 10.725000000000001 0.0 130 162 183
0.275 10.375 0.0 147 173 191
-1.7750000000000001 9.725000000000001 0.0 60 99 5
-1.625 9.525 0.0 234 238 230
-1.7750000000000001 9.625 0.0 230 234 228
-1.625 9.425 0.0 242 243 241
0.625 5.425000000000001 0.0 77 65 38
0.675 10.725000000000001 0.0 198 210 217
1.2750000000000001 10.825000000000001 0.0 149 173 191
1.375 10.875 0.0 142 168 187
1.875 10.775 0.0 138 168 186
-1.375 10.375 0.0 128 158 179
-0.8250000000000001 10.425 0.0 143 170 187
-0.42500000000000004 10.575000000000001 0.0 148 173 189
-0.17500000000000002 10.425 0.0 203 210 214
-0.07500000000000001 10.525 0.0 210 217 221
0.025 10.525 0.0 185 200 210
0.275 10.675 0.0 200 212 219
0.375 10.625 0.0 197 205 209
-1.375 10.525 0.0 129 159 178
-0.42500000000000004 10.425 0.0 139 156 168
-0.275 10.525 0.0 140 167 186
0.025 10.625 0.0 191 205 214
0.47500000000000003 10.675 0.0 237 236 232
0.5750000000000001 10.725000000000001 0.0 242 241 239
1.125 10.775 0.0 143 170 188
2.125 10.825000000000001 0.0 130 162 183
2.1750000000000003 10.775 0.0 246 246 246
-5.925000000000001 10.025 0.0 246 246 246
-5.775 10.025 0.0 246 246 246
0.125 10.525 0.0 169 187 198
0.225 10.475000000000001 0.0 209 218 222
0.47500000000000003 10.625 0.0 244 243 241
1.125 10.725000000000001 0.0 146 171 189
-5.675000000000001 9.975000000000001 0.0 125 124 124
0.275 10.625 0.0 139 167 186
0.5750000000000001 10.575000000000001 0.0 143 170 188
-5.775 9.925 0.0 246 246 246
-5.625 9.875 0.0 60 57 56
-2.025 10.125 0.0 246 247 246
-1.675 9.875 0.0 222 229 203
0.675 10.625 0.0 147 173 190
0.925 10.675 0.0 138 166 185
-0.525 10.475000000000001 0.0 144 170 188
0.125 10.575000000000001 0.0 142 168 186
0.8250000000000001 10.625 0.0 193 207 215
-5.675000000000001 9.925 0.0 139 138 138
-1.475 10.125 0.0 247 247 247
-1.375 10.125 0.0 125 148 164
-0.17500000000000002 10.475000000000001 0.0 195 205 211
0.925 10.575000000000001 0.0 140 168 188
1.125 10.575000000000001 0.0 141 168 187
1.675 10.725000000000001 0.0 126 159 181
-0.625 10.425 0.0 140 168 186
0.775 10.525 0.0 139 167 186
1.0250000000000001 10.575000000000001 0.0 128 162 183
-1.725 9.525 0.0 246 247 247
0.17500000000000002 10.625 0.0 144 172 190
0.42500000000000004 10.675 0.0 196 208 218
0.625 10.675 0.0 177 194 206
-0.025 10.525 0.0 199 211 219
0.775 10.675 0.0 211 218 221
-0.9750000000000001 10.425 0.0 148 172 190
-0.325 10.425 0.0 152 176 193
0.17500000000000002 10.675 0.0 198 212 220
0.7250000000000001 10.775 0.0 188 201 210
-0.025 10.575000000000001 0.0 174 192 204
-1.3250000000000002 10.675 0.0 146 172 190
-1.125 10.725000000000001 0.0 147 172 189
-0.7250000000000001 10.275 0.0 147 173 190
0.7250000000000001 10.675 0.0 231 231 230
-1.125 10.325000000000001 0.0 143 169 187
-1.0250000000000001 10.775 0.0 163 183 197
-0.925 10.325000000000001 0.0 150 174 191
-0.525 10.375 0.0 149 174 191
-0.125 10.425 0.0 148 174 192
0.42500000000000004 10.525 0.0 142 169 187
-1.425 10.625 0.0 241 242 242
-0.525 10.275 0.0 147 173 190
-0.225 10.625 0.0 140 166 185
-0.025 10.675 0.0 142 168 187
-1.475 10.625 0.0 247 247 247
-0.325 10.625 0.0 144 170 188
-0.125 10.625 0.0 140 166 184
0.07500000000000001 10.675 0.0 147 172 189
0.5750000000000001 10.525 0.0 139 166 186
0.9750000000000001 10.675 0.0 160 174 182
-1.875 10.425 0.0 66 114 6
-0.8250000000000001 10.675 0.0 145 171 189
-0.7250000000000001 10.525 0.0 145 170 188
-0.42500000000000004 10.525 0.0 136 164 184
-1.8250000000000002 9.475 0.0 246 246 246
-0.925 10.675 0.0 133 163 183
-0.7250000000000001 10.675 0.0 154 179 195
0.325 10.525 0.0 135 166 186
-1.0250000000000001 10.525 0.0 168 188 202
-0.8250000000000001 10.625 0.0 133 165 186
-0.7250000000000001 10.625 0.0 137 164 183
0.025 10.425 0.0 196 196 196
-1.8250000000000002 9.325000000000001 0.0 241 242 241
-0.9750000000000001 10.325000000000001 0.0 141 168 187
-0.875 10.375 0.0 153 177 192
0.9750000000000001 10.725000000000001 0.0 131 162 182
1.875 10.875 0.0 129 161 183
-5.875 10.125 0.0 246 246 246
1.075 10.825000000000001 0.0 144 171 189
1.3250000000000002 10.875 0.0 140 168 187
0.775 10.775 0.0 242 241 238
0.875 10.725000000000001 0.0 226 225 222
1.125 10.875 0.0 137 165 185
1.225 10.875 0.0 139 167 186
-1.5750000000000002 10.825000000000001 0.0 247 247 247
-1.875 10.775 0.0 247 247 247
-0.675 10.325000000000001 0.0 142 167 185
0.47500000000000003 10.525 0.0 139 167 186
-1.3250000000000002 10.625 0.0 140 168 187
-0.775 10.475000000000001 0.0 143 171 189
-0.125 10.675 0.0 140 168 187
-0.5750000000000001 10.475000000000001 0.0 137 164 184
-0.47500000000000003 10.575000000000001 0.0 146 171 189
0.675 10.675 0.0 144 170 188
-1.2750000000000001 10.425 0.0 137 166 186
-0.875 10.475000000000001 0.0 148 173 191
-0.5750000000000001 10.625 0.0 140 167 186
-1.2750000000000001 10.325000000000001 0.0 137 165 185
-0.9750000000000001 10.575000000000001 0.0 136 164 184
-0.675 10.525 0.0 132 162 183
-1.875 9.325000000000001 0.0 245 246 244
-1.675 10.125 0.0 246 246 246
-1.075 10.475000000000001 0.0 139 165 182
2.075 10.625 0.0 245 245 245
1.5250000000000001 10.925 0.0 135 164 185
1.5250000000000001 10.975000000000001 0.0 138 168 187
-0.7250000000000001 10.425 0.0 146 172 189
-0.675 10.375 0.0 149 174 190
0.525 10.775 0.0 239 238 235
-1.2750000000000001 10.725000000000001 0.0 147 173 190
-1.3250000000000002 10.775 0.0 152 177 193
-0.375 10.325000000000001 0.0 149 174 191
0.675 10.525 0.0 144 170 187
-0.875 10.575000000000001 0.0 140 167 186
0.025 10.675 0.0 149 174 191
-1.225 10.625 0.0 151 176 192
-1.125 10.625 0.0 142 168 186
-1.3250000000000002 10.475000000000001 0.0 142 168 186
-0.5750000000000001 10.675 0.0 145 172 189
0.875 10.525 0.0 130 162 182
-1.075 10.325000000000001 0.0 147 172 189
0.42500000000000004 10.775 0.0 248 248 247
0.07500000000000001 10.425 0.0 148 174 192
0.7250000000000001 10.575000000000001 0.0 143 170 189
-0.07500000000000001 10.275 0.0 146 172 190
-1.875 10.925 0.0 243 245 240
-0.47500000000000003 10.725000000000001 0.0 130 161 183
