ply
format ascii 1.0
element vertex 11
property float x
property float y
property float z
property uchar red
property uchar green
property uchar blue
end_header
0.07500000000000001 0.025 0.0 14 14 14
0.07500000000000001 -0.025 0.0 4 5 5
0.07500000000000001 -0.07500000000000001 0.0 5 5 5
4.075 0.42500000000000004 0.0 246 246 246
4.075 0.5750000000000001 0.0 247 247 247
4.7250000000000005 0.025 0.0 245 245 245
4.375 0.625 0.0 245 245 245
4.7250000000000005 0.07500000000000001 0.0 245 245 245
4.7250000000000005 0.225 0.0 246 246 246
0.025 -0.17500000000000002 0.0 19 21 22
-0.025 -0.17500000000000002 0.0 0 0 0
