ply
format ascii 1.0
element vertex 71
property float x
property float y
property float z
property uchar red
property uchar green
property uchar blue
end_header
0.125 0.07500000000000001 0.0 8 8 8
0.125 0.025 0.0 9 9 10
0.125 -0.025 0.0 4 4 4
5.025 -0.07500000000000001 0.0 246 246 246
5.075 0.125 0.0 246 246 245
5.025 0.025 0.0 246 246 246
5.025 0.07500000000000001 0.0 245 246 245
5.025 0.7250000000000001 0.0 222 222 222
4.9750000000000005 0.5750000000000001 0.0 246 246 246
5.025 0.525 0.0 246 246 246
5.025 0.42500000000000004 0.0 246 246 245
4.925000000000001 0.325 0.0 246 246 246
4.925000000000001 0.525 0.0 245 245 245
4.9750000000000005 0.275 0.0 246 246 246
4.9750000000000005 0.17500000000000002 0.0 246 246 246
4.9750000000000005 -0.17500000000000002 0.0 245 245 245
4.9750000000000005 -0.275 0.0 239 240 240
4.925000000000001 -0.125 0.0 245 245 245
4.925000000000001 0.375 0.0 246 246 246
4.925000000000001 0.125 0.0 246 246 246
4.875 -0.125 0.0 246 246 246
4.925000000000001 -0.275 0.0 244 244 244
4.925000000000001 -2.725 0.0 194 193 194
4.825 0.07500000000000001 0.0 246 246 246
4.925000000000001 -2.7750000000000004 0.0 199 199 199
4.925000000000001 0.5750000000000001 0.0 245 245 245
5.175000000000001 -0.125 0.0 246 246 246
5.175000000000001 -0.275 0.0 246 246 246
5.125 -0.125 0.0 245 245 245
5.175000000000001 -0.17500000000000002 0.0 245 244 245
5.125 -0.17500000000000002 0.0 246 246 246
5.125 0.775 0.0 220 220 220
5.125 -0.275 0.0 246 246 246
5.025 -0.025 0.0 245 245 245
5.075 0.325 0.0 246 246 246
4.925000000000001 0.17500000000000002 0.0 246 246 246
4.875 0.275 0.0 247 247 247
4.875 0.17500000000000002 0.0 246 246 246
4.875 0.125 0.0 246 246 246
4.675 -0.07500000000000001 0.0 245 246 245
4.925000000000001 -0.17500000000000002 0.0 246 246 246
4.875 0.375 0.0 245 245 245
4.775 -0.025 0.0 247 247 247
4.775 -0.07500000000000001 0.0 246 246 246
4.925000000000001 0.7250000000000001 0.0 146 146 145
4.875 -0.17500000000000002 0.0 245 245 245
4.125 0.47500000000000003 0.0 245 246 245
4.125 0.375 0.0 245 245 245
4.125 0.325 0.0 246 246 246
5.075 -0.025 0.0 246 246 246
5.075 0.525 0.0 246 246 246
5.075 0.42500000000000004 0.0 245 245 245
5.075 0.625 0.0 246 246 246
5.075 0.675 0.0 235 235 235
5.025 0.775 0.0 204 204 204
5.025 0.675 0.0 236 236 236
4.925000000000001 -0.025 0.0 246 246 246
5.075 0.225 0.0 246 246 246
4.9750000000000005 -2.6750000000000003 0.0 197 197 197
4.9750000000000005 -2.7750000000000004 0.0 197 198 197
4.9750000000000005 -2.875 0.0 220 220 220
4.925000000000001 -2.875 0.0 244 244 244
4.875 0.47500000000000003 0.0 246 246 246
5.075 -2.875 0.0 200 201 200
5.075 -2.725 0.0 197 197 197
5.075 -2.7750000000000004 0.0 196 197 196
5.075 0.7250000000000001 0.0 233 233 233
4.875 0.025 0.0 246 246 246
4.825 0.025 0.0 246 247 246
5.075 0.025 0.0 247 247 247
-0.275 0.025 0.0 56 58 55
