ply
format ascii 1.0
element vertex 874
property float x
property float y
property float z
property uchar red
property uchar green
property uchar blue
end_header
0.125 0.07500000000000001 0.0 8 8 8
0.125 0.025 0.0 9 9 9
0.125 -0.025 0.0 4 4 4
5.175000000000001 -0.17500000000000002 0.0 245 245 245
5.125 -0.17500000000000002 0.0 245 245 245
4.9750000000000005 0.7250000000000001 0.0 181 181 181
4.9750000000000005 -0.07500000000000001 0.0 246 246 246
5.025 -0.17500000000000002 0.0 246 246 246
4.9750000000000005 -0.275 0.0 236 236 237
4.9750000000000005 0.625 0.0 245 246 245
4.9750000000000005 0.325 0.0 246 246 246
4.9750000000000005 0.17500000000000002 0.0 246 246 246
4.9750000000000005 0.125 0.0 246 246 246
4.9750000000000005 0.375 0.0 245 245 245
4.9750000000000005 0.025 0.0 246 246 246
5.925000000000001 -2.7750000000000004 0.0 170 170 170
4.9750000000000005 -2.725 0.0 197 198 197
4.9750000000000005 -2.7750000000000004 0.0 198 198 198
4.925000000000001 0.7250000000000001 0.0 151 150 150
4.925000000000001 0.625 0.0 246 246 246
4.925000000000001 0.375 0.0 246 246 246
4.925000000000001 0.325 0.0 245 245 245
4.925000000000001 0.17500000000000002 0.0 245 245 245
4.925000000000001 0.125 0.0 246 246 246
4.925000000000001 0.025 0.0 246 246 246
4.925000000000001 -0.125 0.0 245 245 245
4.925000000000001 -0.17500000000000002 0.0 246 246 246
4.925000000000001 -0.275 0.0 244 244 244
4.925000000000001 -2.725 0.0 198 197 197
4.925000000000001 -2.7750000000000004 0.0 199 199 199
4.925000000000001 0.525 0.0 245 245 245
4.925000000000001 -0.025 0.0 246 246 246
5.175000000000001 -0.125 0.0 245 245 245
5.175000000000001 -0.275 0.0 247 247 247
5.175000000000001 0.07500000000000001 0.0 245 245 245
5.175000000000001 -0.025 0.0 245 245 245
5.125 -0.275 0.0 246 246 246
5.125 -0.07500000000000001 0.0 245 245 245
5.125 0.775 0.0 218 218 218
5.075 0.025 0.0 246 246 246
4.9750000000000005 0.675 0.0 245 245 245
4.875 0.375 0.0 245 245 245
4.925000000000001 0.675 0.0 242 243 242
4.875 0.07500000000000001 0.0 246 246 246
4.875 0.025 0.0 246 246 246
5.075 0.42500000000000004 0.0 246 246 246
5.075 -0.025 0.0 246 246 246
5.075 0.625 0.0 247 247 247
5.075 0.525 0.0 246 246 246
5.075 0.7250000000000001 0.0 224 224 224
5.025 -0.025 0.0 246 246 246
5.025 0.775 0.0 206 206 206
5.025 0.525 0.0 246 246 246
4.925000000000001 0.775 0.0 157 158 157
4.9750000000000005 -2.875 0.0 223 223 223
5.9750000000000005 -2.975 0.0 196 196 196
5.9750000000000005 -3.075 0.0 196 196 196
5.9750000000000005 -2.7750000000000004 0.0 33 32 31
5.9750000000000005 -2.9250000000000003 0.0 132 133 132
5.9750000000000005 -3.225 0.0 195 195 195
5.925000000000001 -2.9250000000000003 0.0 195 196 195
5.925000000000001 -2.975 0.0 196 197 196
5.925000000000001 -3.075 0.0 196 196 196
5.925000000000001 -3.225 0.0 198 198 198
4.925000000000001 -2.875 0.0 245 245 245
4.825 0.42500000000000004 0.0 246 246 246
5.075 -2.7750000000000004 0.0 197 197 197
5.075 -2.875 0.0 200 200 200
5.075 -2.725 0.0 197 197 197
6.075 -2.975 0.0 138 138 138
6.075 -3.0250000000000004 0.0 196 197 196
6.075 -3.1750000000000003 0.0 196 197 196
6.075 -3.125 0.0 196 196 196
6.075 -2.875 0.0 58 57 57
6.075 -2.7750000000000004 0.0 135 134 133
6.025 -3.0250000000000004 0.0 194 195 194
4.875 -0.025 0.0 246 246 246
4.875 0.525 0.0 245 245 245
4.825 0.47500000000000003 0.0 245 245 245
4.875 0.325 0.0 246 246 246
4.175 3.4250000000000003 0.0 246 245 246
4.125 3.475 0.0 247 247 247
4.875 0.17500000000000002 0.0 246 247 246
4.125 3.1750000000000003 0.0 246 246 246
4.125 3.125 0.0 191 192 192
4.875 -0.07500000000000001 0.0 246 247 246
4.825 0.325 0.0 247 247 247
3.875 6.875 0.0 230 231 231
3.875 6.825 0.0 228 228 228
3.9250000000000003 6.7250000000000005 0.0 229 229 229
3.475 5.325 0.0 99 151 13
5.9750000000000005 0.875 0.0 102 100 102
3.125 5.775 0.0 140 183 62
3.9250000000000003 11.275 0.0 239 239 239
-0.275 -0.025 0.0 37 37 38
0.125 11.175 0.0 85 129 157
0.375 11.125 0.0 88 130 159
-1.475 10.975000000000001 0.0 246 246 246
3.6750000000000003 10.325000000000001 0.0 244 244 244
4.525 6.925000000000001 0.0 243 243 243
4.875 7.025 0.0 84 105 118
0.375 10.725000000000001 0.0 171 184 191
0.625 10.675 0.0 144 169 186
-1.875 11.025 0.0 235 240 221
0.07500000000000001 10.875 0.0 111 148 173
0.225 10.925 0.0 105 144 169
0.525 10.825000000000001 0.0 139 165 178
0.375 10.975000000000001 0.0 104 144 169
-2.125 10.325000000000001 0.0 246 246 246
-1.625 10.175 0.0 223 229 213
0.925 11.025 0.0 118 152 175
0.07500000000000001 10.575000000000001 0.0 169 188 201
4.625 6.925000000000001 0.0 21 20 19
0.775 10.725000000000001 0.0 185 193 196
2.825 5.175000000000001 0.0 118 160 33
2.9250000000000003 5.075 0.0 140 192 52
3.225 4.9750000000000005 0.0 96 139 10
0.7250000000000001 10.425 0.0 33 46 55
3.875 5.825 0.0 79 129 15
2.975 4.9750000000000005 0.0 71 112 27
-1.3250000000000002 10.825000000000001 0.0 137 165 184
3.325 10.725000000000001 0.0 229 229 229
1.225 11.225000000000001 0.0 99 140 167
3.6750000000000003 10.425 0.0 245 245 245
-1.925 10.825000000000001 0.0 246 246 246
-1.075 10.725000000000001 0.0 135 164 184
-1.8250000000000002 10.775 0.0 247 247 247
-0.47500000000000003 11.525 0.0 118 154 176
0.775 10.825000000000001 0.0 175 181 183
2.275 10.725000000000001 0.0 245 245 246
-1.475 10.675 0.0 246 246 246
-1.725 10.775 0.0 245 245 244
0.07500000000000001 11.375 0.0 109 145 169
4.625 7.2250000000000005 0.0 244 244 244
4.675 7.175000000000001 0.0 244 245 244
-2.075 10.775 0.0 246 246 246
-1.375 10.875 0.0 246 246 246
2.225 10.475000000000001 0.0 245 245 245
-2.075 10.725000000000001 0.0 247 247 247
-1.675 10.075000000000001 0.0 242 243 237
2.9250000000000003 5.325 0.0 82 130 3
0.325 10.975000000000001 0.0 103 143 169
3.475 6.4750000000000005 0.0 197 209 174
-2.025 10.725000000000001 0.0 165 185 138
-0.125 10.825000000000001 0.0 150 150 150
-1.875 10.675 0.0 247 247 247
1.175 11.175 0.0 133 164 185
1.8250000000000002 11.025 0.0 128 161 182
2.275 10.625 0.0 246 246 246
2.7750000000000004 11.025 0.0 246 246 246
3.075 11.125 0.0 246 246 246
3.125 10.925 0.0 246 246 246
-6.525 9.825000000000001 0.0 246 246 245
-5.7250000000000005 10.025 0.0 245 246 246
0.325 11.075000000000001 0.0 135 164 185
0.47500000000000003 11.175 0.0 140 168 186
0.925 11.375 0.0 134 163 183
1.3250000000000002 11.225000000000001 0.0 128 160 181
1.5750000000000002 11.125 0.0 122 157 180
2.9250000000000003 11.075000000000001 0.0 246 246 246
0.775 11.275 0.0 120 155 178
3.575 10.325000000000001 0.0 246 246 246
-5.925000000000001 9.875 0.0 246 246 246
-5.825 9.925 0.0 246 246 246
0.025 10.575000000000001 0.0 170 189 201
1.5750000000000002 11.225000000000001 0.0 125 158 181
4.175 10.825000000000001 0.0 245 245 245
-1.7750000000000001 10.875 0.0 247 247 247
-1.625 10.725000000000001 0.0 246 246 246
-1.075 10.825000000000001 0.0 142 169 187
0.5750000000000001 10.925 0.0 170 165 153
0.8250000000000001 10.625 0.0 168 187 199
1.2750000000000001 10.975000000000001 0.0 130 163 184
-2.075 11.125 0.0 246 246 246
-1.625 10.675 0.0 246 246 246
0.5750000000000001 10.725000000000001 0.0 157 174 186
0.675 10.625 0.0 152 170 181
2.975 11.175 0.0 246 246 246
-2.1750000000000003 10.725000000000001 0.0 247 247 247
-1.075 10.875 0.0 147 172 189
0.9750000000000001 10.775 0.0 183 198 208
1.725 11.175 0.0 132 163 184
-1.725 10.675 0.0 196 215 142
0.47500000000000003 10.975000000000001 0.0 137 165 185
2.125 10.475000000000001 0.0 118 153 177
-0.625 10.625 0.0 142 168 186
-0.525 10.675 0.0 138 167 186
0.42500000000000004 10.775 0.0 172 190 202
0.9750000000000001 10.725000000000001 0.0 175 193 204
-5.7250000000000005 9.925 0.0 246 246 246
-5.625 10.025 0.0 150 150 149
-0.925 10.725000000000001 0.0 141 167 186
1.375 10.775 0.0 137 166 186
1.5750000000000002 11.025 0.0 128 160 182
-6.275 9.375 0.0 81 113 48
-6.075 10.075000000000001 0.0 246 246 246
-5.675000000000001 10.425 0.0 166 166 166
0.47500000000000003 11.075000000000001 0.0 131 162 183
1.5250000000000001 10.625 0.0 116 151 175
1.125 10.625 0.0 134 163 183
1.375 10.475000000000001 0.0 124 159 182
1.675 10.875 0.0 144 171 189
1.925 11.025 0.0 139 167 187
2.025 10.975000000000001 0.0 140 167 186
-0.225 10.575000000000001 0.0 151 175 191
-0.125 10.525 0.0 149 173 190
0.025 10.525 0.0 150 175 192
0.275 10.575000000000001 0.0 148 173 191
0.875 10.675 0.0 163 184 198
1.225 10.775 0.0 147 173 190
-1.375 10.975000000000001 0.0 247 247 247
-1.225 10.725000000000001 0.0 157 179 194
-0.8250000000000001 10.475000000000001 0.0 139 166 185
-0.5750000000000001 10.525 0.0 150 175 191
-0.325 10.575000000000001 0.0 147 172 190
0.125 10.525 0.0 155 178 194
0.9750000000000001 10.675 0.0 167 186 199
1.075 10.725000000000001 0.0 157 180 195
1.175 10.675 0.0 144 170 188
1.5750000000000002 10.925 0.0 144 171 190
-5.525 9.925 0.0 136 136 135
-1.125 10.525 0.0 148 173 190
-0.9750000000000001 10.625 0.0 155 178 194
-0.7250000000000001 10.525 0.0 149 174 191
0.375 10.675 0.0 163 184 199
1.075 10.675 0.0 215 216 215
-5.875 9.975000000000001 0.0 246 246 246
-0.47500000000000003 10.475000000000001 0.0 140 167 186
-0.375 10.375 0.0 137 160 176
-0.125 10.375 0.0 143 170 188
1.075 10.625 0.0 225 229 232
-6.425000000000001 9.825000000000001 0.0 241 242 239
-1.375 10.575000000000001 0.0 246 246 246
-0.7250000000000001 10.375 0.0 136 164 184
0.925 10.625 0.0 171 190 202
1.2750000000000001 10.725000000000001 0.0 145 172 190
-0.47500000000000003 10.575000000000001 0.0 146 171 188
0.7250000000000001 10.725000000000001 0.0 153 177 193
0.925 10.525 0.0 150 175 192
1.925 11.075000000000001 0.0 142 169 188
-6.375 9.725000000000001 0.0 247 247 247
-5.9750000000000005 9.875 0.0 246 246 246
-5.775 9.975000000000001 0.0 246 246 246
-0.47500000000000003 10.425 0.0 136 163 182
-0.375 10.575000000000001 0.0 150 174 191
1.425 10.875 0.0 142 168 188
-2.025 11.125 0.0 246 246 246
-0.375 10.525 0.0 146 171 189
0.7250000000000001 10.675 0.0 189 202 210
-1.125 10.675 0.0 145 170 188
-0.875 10.525 0.0 149 173 190
-0.275 10.525 0.0 145 170 188
-1.675 10.525 0.0 247 247 247
-0.025 10.425 0.0 179 194 203
1.2750000000000001 10.775 0.0 150 175 192
1.5250000000000001 10.825000000000001 0.0 135 165 185
-5.925000000000001 9.175 0.0 57 104 9
-5.825 9.275 0.0 245 245 245
-5.675000000000001 10.075000000000001 0.0 187 188 187
1.0250000000000001 10.575000000000001 0.0 143 169 187
1.125 10.675 0.0 153 176 191
-1.375 9.975000000000001 0.0 247 247 247
-0.525 10.225000000000001 0.0 145 170 188
-0.375 10.225000000000001 0.0 176 193 205
0.775 10.525 0.0 122 140 152
1.725 10.725000000000001 0.0 139 168 188
-6.025 10.075000000000001 0.0 247 247 247
-2.225 10.525 0.0 247 247 247
0.525 10.325000000000001 0.0 133 162 183
-5.525 10.075000000000001 0.0 201 201 201
-6.375 9.675 0.0 246 246 246
0.675 5.325 0.0 137 121 74
1.3250000000000002 10.725000000000001 0.0 143 170 188
2.725 11.025 0.0 247 247 247
3.125 10.725000000000001 0.0 171 172 171
-5.625 9.925 0.0 243 243 243
-1.725 11.175 0.0 247 247 247
-1.375 10.425 0.0 246 246 246
-0.9750000000000001 10.525 0.0 146 171 188
-0.5750000000000001 10.375 0.0 136 165 184
-0.225 10.475000000000001 0.0 141 168 187
-0.07500000000000001 10.575000000000001 0.0 146 171 188
0.42500000000000004 10.525 0.0 165 182 193
0.5750000000000001 10.575000000000001 0.0 137 166 184
3.375 10.725000000000001 0.0 179 179 178
-6.075 9.975000000000001 0.0 246 246 246
-5.925000000000001 9.975000000000001 0.0 246 246 246
-1.875 11.325000000000001 0.0 247 247 247
2.225 10.675 0.0 219 226 230
3.125 11.175 0.0 246 246 246
-1.225 10.075000000000001 0.0 151 175 191
-0.9750000000000001 10.425 0.0 134 163 183
-0.8250000000000001 10.425 0.0 135 165 184
-0.7250000000000001 10.575000000000001 0.0 145 171 188
3.1750000000000003 11.225000000000001 0.0 246 247 246
-6.675000000000001 10.275 0.0 246 246 246
-1.875 11.225000000000001 0.0 247 247 247
-1.225 10.225000000000001 0.0 118 142 159
-0.47500000000000003 10.325000000000001 0.0 145 163 175
-0.07500000000000001 10.275 0.0 209 209 208
2.225 10.725000000000001 0.0 217 225 229
3.375 10.775 0.0 180 180 179
-1.375 10.675 0.0 247 247 247
0.025 10.675 0.0 156 178 192
0.325 10.725000000000001 0.0 163 184 198
2.275 10.775 0.0 237 239 240
-6.375 9.975000000000001 0.0 243 244 241
-6.2250000000000005 9.925 0.0 246 246 246
-1.2750000000000001 10.625 0.0 152 175 191
0.47500000000000003 10.875 0.0 149 174 190
1.225 10.725000000000001 0.0 149 173 191
3.075 11.325000000000001 0.0 247 247 247
-5.875 9.825000000000001 0.0 246 246 246
-1.375 10.525 0.0 246 246 246
-1.2750000000000001 10.875 0.0 154 177 193
-1.125 10.375 0.0 134 164 184
-1.0250000000000001 10.675 0.0 146 171 189
3.225 11.325000000000001 0.0 247 247 247
-5.775 9.825000000000001 0.0 246 246 246
0.675 10.725000000000001 0.0 152 176 192
0.8250000000000001 10.675 0.0 163 183 195
2.4250000000000003 10.925 0.0 247 247 247
3.325 11.175 0.0 175 176 175
-1.725 10.175 0.0 151 174 128
-1.5250000000000001 10.325000000000001 0.0 229 234 222
-1.2750000000000001 10.475000000000001 0.0 137 161 177
1.625 10.825000000000001 0.0 133 163 183
3.2750000000000004 11.125 0.0 181 182 181
-5.775 10.775 0.0 185 185 185
-0.875 10.625 0.0 142 168 186
-0.775 10.725000000000001 0.0 154 177 193
-0.375 10.875 0.0 152 176 192
0.17500000000000002 10.525 0.0 148 172 189
0.42500000000000004 10.575000000000001 0.0 140 168 186
1.5750000000000002 10.625 0.0 147 174 191
-5.525 9.975000000000001 0.0 164 164 164
-1.5750000000000002 9.875 0.0 246 246 246
1.725 10.575000000000001 0.0 193 193 193
2.025 10.775 0.0 216 216 216
-5.9750000000000005 9.625 0.0 246 246 246
1.475 10.875 0.0 140 168 187
1.725 10.975000000000001 0.0 142 169 187
1.925 10.875 0.0 141 168 187
-0.325 10.425 0.0 135 161 179
1.425 11.025 0.0 148 173 191
1.5250000000000001 11.075000000000001 0.0 138 166 185
-1.725 10.425 0.0 246 246 246
-1.175 10.775 0.0 153 176 192
1.675 11.125 0.0 141 167 186
-0.775 10.575000000000001 0.0 150 174 191
-0.675 10.675 0.0 149 174 191
-0.225 10.425 0.0 148 172 189
0.025 10.375 0.0 170 189 202
0.8250000000000001 10.875 0.0 215 223 228
0.9750000000000001 10.875 0.0 148 174 191
0.625 10.775 0.0 160 182 197
0.7250000000000001 10.825000000000001 0.0 191 204 212
-6.2250000000000005 10.075000000000001 0.0 246 246 246
-1.7750000000000001 10.625 0.0 246 246 246
0.275 10.825000000000001 0.0 183 199 210
1.2750000000000001 10.925 0.0 144 172 190
0.47500000000000003 10.675 0.0 189 203 213
0.925 10.725000000000001 0.0 163 184 199
-6.4750000000000005 9.675 0.0 143 156 167
-1.675 10.575000000000001 0.0 246 246 246
0.225 10.775 0.0 153 176 193
0.47500000000000003 10.625 0.0 172 189 200
-5.875 9.875 0.0 246 246 246
-5.825 10.075000000000001 0.0 246 247 246
0.225 10.675 0.0 153 176 192
0.325 10.675 0.0 157 179 194
-5.575 10.125 0.0 164 164 164
0.675 10.675 0.0 150 175 192
-6.625 9.775 0.0 19 45 67
-1.925 10.325000000000001 0.0 243 244 238
-0.025 10.525 0.0 176 193 204
1.125 10.825000000000001 0.0 143 170 189
-5.9750000000000005 9.725000000000001 0.0 246 247 246
0.525 10.475000000000001 0.0 146 172 189
0.675 10.525 0.0 163 185 199
1.225 10.625 0.0 153 178 194
1.3250000000000002 10.675 0.0 144 172 190
1.625 10.675 0.0 130 161 183
0.42500000000000004 10.375 0.0 141 167 187
0.525 10.375 0.0 138 166 186
0.9750000000000001 10.425 0.0 157 180 196
-6.175000000000001 9.525 0.0 247 247 247
-1.5750000000000002 10.275 0.0 246 246 246
-0.7250000000000001 9.875 0.0 186 186 186
0.07500000000000001 10.275 0.0 201 201 201
1.075 10.325000000000001 0.0 153 153 153
1.175 10.475000000000001 0.0 178 178 177
-0.925 10.375 0.0 133 162 180
-0.675 10.575000000000001 0.0 148 172 189
1.3250000000000002 10.825000000000001 0.0 148 174 191
0.675 10.775 0.0 160 177 188
1.8250000000000002 10.925 0.0 139 167 187
2.975 11.125 0.0 247 247 247
-0.675 10.525 0.0 145 171 189
-0.17500000000000002 10.675 0.0 149 174 190
3.225 11.175 0.0 220 220 220
-1.5750000000000002 10.875 0.0 247 246 246
-0.325 10.775 0.0 156 178 193
0.225 10.975000000000001 0.0 230 230 229
0.925 10.825000000000001 0.0 244 244 241
-6.025 9.825000000000001 0.0 246 246 246
-0.42500000000000004 10.325000000000001 0.0 150 168 179
2.7750000000000004 11.125 0.0 247 247 247
-5.925000000000001 9.825000000000001 0.0 246 246 246
0.17500000000000002 10.725000000000001 0.0 145 170 188
2.7750000000000004 11.175 0.0 247 247 247
2.075 10.875 0.0 141 169 188
-6.275 9.725000000000001 0.0 245 245 245
-6.125 9.675 0.0 246 246 246
-5.675000000000001 9.825000000000001 0.0 245 246 245
-1.075 10.575000000000001 0.0 149 173 190
2.475 11.075000000000001 0.0 246 246 246
-5.875 11.125 0.0 178 178 177
-1.075 10.675 0.0 143 168 186
1.2750000000000001 10.625 0.0 138 166 185
1.425 10.725000000000001 0.0 140 167 187
-1.475 9.825000000000001 0.0 239 241 236
0.17500000000000002 10.625 0.0 163 184 198
1.5750000000000002 10.725000000000001 0.0 130 161 182
1.675 10.775 0.0 134 163 183
1.8250000000000002 10.775 0.0 139 168 187
-5.825 9.225 0.0 246 246 246
-1.925 10.375 0.0 236 239 225
-1.5250000000000001 9.175 0.0 201 217 170
-1.475 9.725000000000001 0.0 205 213 193
-1.075 10.425 0.0 135 164 183
1.425 10.675 0.0 150 175 192
1.5250000000000001 10.675 0.0 135 164 184
1.675 10.675 0.0 138 166 186
-5.7250000000000005 11.025 0.0 179 179 179
-1.175 10.425 0.0 133 162 183
1.125 10.475000000000001 0.0 133 161 180
-5.7250000000000005 10.775 0.0 183 183 183
-2.075 10.575000000000001 0.0 245 246 246
-1.3250000000000002 10.725000000000001 0.0 220 226 230
-0.925 10.075000000000001 0.0 92 92 92
-0.775 9.775 0.0 160 160 160
-0.675 9.725000000000001 0.0 156 157 156
0.625 10.325000000000001 0.0 141 169 188
0.875 10.225000000000001 0.0 43 43 43
1.475 10.375 0.0 187 188 187
1.725 10.375 0.0 210 210 210
-6.325 9.675 0.0 246 246 246
-0.025 10.675 0.0 148 172 189
1.475 10.975000000000001 0.0 143 171 189
-1.925 10.625 0.0 246 246 246
-0.925 10.275 0.0 109 125 136
1.175 10.925 0.0 142 165 180
-1.175 10.525 0.0 145 171 188
0.7250000000000001 10.625 0.0 185 197 203
-1.975 10.975000000000001 0.0 247 247 247
-6.175000000000001 10.025 0.0 247 247 247
-1.2750000000000001 10.175 0.0 163 170 176
-5.925000000000001 10.075000000000001 0.0 246 246 246
-2.1750000000000003 11.275 0.0 247 247 247
-1.725 10.875 0.0 247 247 247
-0.07500000000000001 10.125 0.0 218 219 220
-1.625 10.825000000000001 0.0 247 247 247
-1.475 10.625 0.0 246 246 246
0.125 10.375 0.0 151 175 192
1.125 10.725000000000001 0.0 144 170 188
-6.4750000000000005 9.725000000000001 0.0 188 201 181
-6.275 10.075000000000001 0.0 247 247 247
-1.475 10.475000000000001 0.0 246 246 246
0.025 10.325000000000001 0.0 165 182 194
1.375 10.625 0.0 143 170 188
-6.575 10.225000000000001 0.0 247 247 247
-6.275 10.025 0.0 246 246 246
1.2750000000000001 10.525 0.0 142 169 189
0.325 10.525 0.0 193 206 214
1.5750000000000002 10.475000000000001 0.0 131 164 185
-6.075 9.425 0.0 75 117 27
-5.675000000000001 10.475000000000001 0.0 200 200 200
-1.475 10.375 0.0 246 246 246
-0.025 10.325000000000001 0.0 207 217 222
0.325 10.375 0.0 86 89 91
0.8250000000000001 10.425 0.0 65 66 66
0.925 10.425 0.0 106 106 106
-0.9750000000000001 10.125 0.0 100 100 100
-0.125 10.225000000000001 0.0 173 188 198
2.475 10.925 0.0 247 247 247
0.07500000000000001 10.725000000000001 0.0 156 178 194
2.1750000000000003 11.075000000000001 0.0 131 162 183
3.0250000000000004 11.175 0.0 246 247 246
-1.075 10.225000000000001 0.0 138 167 185
-0.9750000000000001 10.275 0.0 137 166 185
-6.525 10.075000000000001 0.0 246 246 246
-5.9750000000000005 10.025 0.0 246 247 246
-2.225 11.425 0.0 247 247 247
-1.125 10.575000000000001 0.0 143 169 187
0.875 10.875 0.0 192 206 214
2.5250000000000004 10.925 0.0 247 246 247
-5.925000000000001 11.325000000000001 0.0 141 142 141
-0.675 10.375 0.0 136 165 184
2.5250000000000004 10.975000000000001 0.0 247 247 247
-6.575 9.725000000000001 0.0 18 44 66
2.9250000000000003 11.175 0.0 247 247 247
-6.525 10.225000000000001 0.0 246 246 246
-7.4750000000000005 10.575000000000001 0.0 118 155 179
-0.07500000000000001 10.675 0.0 149 174 191
-7.4750000000000005 10.525 0.0 112 151 175
-6.125 10.175 0.0 246 247 246
-2.1750000000000003 11.075000000000001 0.0 247 247 247
3.075 11.225000000000001 0.0 246 246 246
-6.2250000000000005 9.175 0.0 104 159 21
-6.075 9.825000000000001 0.0 246 246 246
-6.125 9.925 0.0 246 246 246
-1.175 10.925 0.0 141 168 186
-0.775 10.675 0.0 141 167 186
-6.425000000000001 10.325000000000001 0.0 247 247 247
-1.0250000000000001 10.175 0.0 116 116 116
1.375 10.425 0.0 126 126 126
1.7750000000000001 10.575000000000001 0.0 204 204 204
2.075 10.575000000000001 0.0 139 139 139
-6.525 10.275 0.0 247 247 247
-0.875 9.975000000000001 0.0 89 89 89
-0.675 10.125 0.0 188 188 188
1.125 10.925 0.0 147 174 191
-1.225 10.675 0.0 146 172 190
-1.3250000000000002 10.475000000000001 0.0 246 246 246
-2.325 11.325000000000001 0.0 247 247 247
-0.275 10.725000000000001 0.0 153 177 194
-5.625 11.425 0.0 208 208 208
1.075 10.825000000000001 0.0 166 187 200
-0.025 10.625 0.0 142 169 187
0.07500000000000001 10.675 0.0 163 183 198
-7.425000000000001 10.575000000000001 0.0 113 151 176
-5.625 10.225000000000001 0.0 198 199 199
-5.675000000000001 10.225000000000001 0.0 210 211 210
-5.9750000000000005 11.025 0.0 209 209 209
-5.825 11.075000000000001 0.0 215 215 215
-1.075 10.525 0.0 145 171 188
-7.425000000000001 10.525 0.0 111 149 173
-1.2750000000000001 10.425 0.0 192 203 210
-1.625 9.425 0.0 129 155 107
-1.5750000000000002 9.825000000000001 0.0 210 218 196
-6.325 9.575000000000001 0.0 246 246 246
-0.225 10.325000000000001 0.0 154 178 194
-1.725 9.575000000000001 0.0 133 149 115
-1.5250000000000001 10.225000000000001 0.0 247 247 247
-0.775 10.225000000000001 0.0 192 192 192
-0.275 10.275 0.0 215 215 215
-0.07500000000000001 10.175 0.0 153 153 153
0.42500000000000004 10.325000000000001 0.0 119 144 162
-6.175000000000001 9.325000000000001 0.0 236 238 234
-1.725 10.225000000000001 0.0 246 246 246
-1.075 10.075000000000001 0.0 131 161 181
-0.775 10.025 0.0 198 199 198
-8.875 10.075000000000001 0.0 93 139 168
-6.175000000000001 9.125 0.0 34 69 2
-5.625 10.275 0.0 191 192 191
-5.925000000000001 11.025 0.0 212 212 212
-8.725 10.075000000000001 0.0 97 145 173
2.475 11.025 0.0 246 246 246
0.675 10.875 0.0 144 171 188
-2.125 10.175 0.0 207 220 173
-1.975 10.675 0.0 246 246 246
-1.625 10.575000000000001 0.0 246 246 246
-1.2750000000000001 10.325000000000001 0.0 142 157 168
1.3250000000000002 10.975000000000001 0.0 147 173 190
-2.025 10.825000000000001 0.0 247 247 247
0.42500000000000004 10.875 0.0 158 180 196
-5.625 10.675 0.0 191 191 191
-1.7750000000000001 10.675 0.0 247 247 247
-2.225 11.175 0.0 247 247 247
1.875 11.175 0.0 137 165 185
-1.625 10.525 0.0 246 246 246
-1.175 10.325000000000001 0.0 134 164 184
-5.675000000000001 10.675 0.0 192 193 192
0.525 10.725000000000001 0.0 177 195 207
-5.625 10.525 0.0 190 191 190
-1.425 10.325000000000001 0.0 246 246 246
2.325 10.725000000000001 0.0 247 248 248
3.0250000000000004 11.225000000000001 0.0 247 247 247
-1.675 9.675 0.0 127 157 92
-5.9750000000000005 9.675 0.0 246 246 246
-5.775 11.475000000000001 0.0 156 156 156
-2.325 10.925 0.0 247 247 247
-1.2750000000000001 10.025 0.0 247 247 247
2.225 10.775 0.0 116 153 177
-2.375 10.925 0.0 247 247 247
0.5750000000000001 10.425 0.0 136 164 184
-1.675 9.425 0.0 223 227 215
-1.375 10.775 0.0 246 246 246
-0.225 10.225000000000001 0.0 172 187 196
0.225 10.375 0.0 150 150 150
-5.775 11.325000000000001 0.0 136 136 136
-1.625 9.975000000000001 0.0 246 246 246
-0.525 9.975000000000001 0.0 152 153 152
-0.42500000000000004 10.175 0.0 177 177 177
0.7250000000000001 5.4750000000000005 0.0 226 217 177
1.125 11.025 0.0 148 174 190
1.075 10.975000000000001 0.0 141 168 186
-1.2750000000000001 10.675 0.0 131 160 181
-1.125 10.225000000000001 0.0 143 168 186
0.025 10.775 0.0 140 168 186
0.125 10.775 0.0 141 169 188
-1.175 10.575000000000001 0.0 144 169 187
-1.875 10.725000000000001 0.0 247 247 247
-6.4750000000000005 9.625 0.0 26 55 65
-5.575 10.175 0.0 191 192 191
-6.275 9.925 0.0 246 246 246
-1.3250000000000002 10.575000000000001 0.0 247 247 247
-0.275 10.675 0.0 145 171 189
-6.4750000000000005 9.975000000000001 0.0 245 245 245
-1.3250000000000002 10.675 0.0 247 247 247
1.075 10.875 0.0 142 168 187
-0.7250000000000001 10.675 0.0 141 168 186
-0.625 10.675 0.0 141 168 186
-6.625 9.925 0.0 247 247 247
-5.7250000000000005 11.125 0.0 217 217 217
-1.2750000000000001 11.025 0.0 132 163 183
-1.5250000000000001 9.975000000000001 0.0 246 246 246
0.025 10.225000000000001 0.0 183 184 183
-0.8250000000000001 9.925 0.0 196 196 196
-5.775 10.975000000000001 0.0 166 167 166
-1.475 10.775 0.0 247 247 247
-2.075 11.025 0.0 246 247 246
-5.875 10.975000000000001 0.0 182 182 182
-2.275 11.275 0.0 246 246 246
-5.925000000000001 11.675 0.0 142 142 142
-2.225 11.025 0.0 247 247 247
-1.975 10.925 0.0 246 246 246
-6.375 9.925 0.0 246 246 245
-5.875 11.825000000000001 0.0 139 139 139
-1.625 10.125 0.0 229 236 202
-5.675000000000001 10.925 0.0 176 177 177
-1.2750000000000001 10.725000000000001 0.0 142 168 186
-1.725 9.825000000000001 0.0 172 195 127
-5.825 9.125 0.0 93 135 37
-5.2250000000000005 11.225000000000001 0.0 152 153 152
-1.975 10.075000000000001 0.0 230 235 220
-6.175000000000001 9.375 0.0 235 238 233
-5.7250000000000005 10.725000000000001 0.0 178 179 178
-5.7250000000000005 11.625 0.0 140 140 140
-5.2250000000000005 10.925 0.0 117 115 117
0.675 10.425 0.0 137 167 187
-0.8250000000000001 10.275 0.0 144 159 169
-0.42500000000000004 10.125 0.0 160 161 161
0.8250000000000001 10.275 0.0 31 32 31
-5.625 10.975000000000001 0.0 137 138 137
-1.125 10.325000000000001 0.0 133 163 183
-1.475 10.925 0.0 246 246 246
-5.425000000000001 9.925 0.0 203 204 203
-1.5750000000000002 10.425 0.0 246 246 246
-5.825 10.675 0.0 201 201 200
-5.825 10.725000000000001 0.0 205 205 205
-1.475 9.625 0.0 247 247 247
-1.425 9.625 0.0 172 196 136
-1.625 9.575000000000001 0.0 234 237 229
-1.075 10.325000000000001 0.0 131 161 181
-0.675 10.275 0.0 132 162 183
0.17500000000000002 10.225000000000001 0.0 176 176 175
1.075 10.475000000000001 0.0 136 136 136
-0.625 10.175 0.0 194 194 194
-1.075 10.175 0.0 86 111 128
-5.025 10.525 0.0 137 136 138
-1.7750000000000001 10.375 0.0 246 246 246
-2.025 10.575000000000001 0.0 246 246 246
-5.875 11.275 0.0 139 139 139
-5.825 11.225000000000001 0.0 156 156 156
-5.825 11.175 0.0 140 141 140
-5.925000000000001 12.025 0.0 137 137 138
-5.825 10.925 0.0 177 177 177
-5.925000000000001 11.925 0.0 139 140 140
-5.875 10.075000000000001 0.0 246 247 246
-5.9750000000000005 11.775 0.0 140 140 140
-5.9750000000000005 11.975000000000001 0.0 140 140 140
-5.875 10.725000000000001 0.0 159 161 159
-6.125 11.775 0.0 138 138 138
-5.425000000000001 11.675 0.0 151 151 151
-1.675 9.725000000000001 0.0 121 150 93
-1.375 9.875 0.0 228 234 210
-5.925000000000001 11.625 0.0 141 141 141
-1.725 10.025 0.0 213 229 177
-6.025 11.725000000000001 0.0 142 143 142
-0.925 10.225000000000001 0.0 109 109 109
-1.925 9.925 0.0 247 247 247
-5.875 10.825000000000001 0.0 179 179 179
0.7250000000000001 10.525 0.0 143 171 189
-1.8250000000000002 10.475000000000001 0.0 246 246 246
-5.525 10.675 0.0 206 207 206
-4.775 10.175 0.0 168 168 167
-2.275 11.025 0.0 247 247 247
-2.075 10.675 0.0 246 246 246
-5.575 10.625 0.0 205 205 205
-1.725 10.275 0.0 241 243 229
-5.875 11.675 0.0 203 204 203
-1.5250000000000001 10.075000000000001 0.0 246 246 246
-6.575 9.675 0.0 42 73 97
-2.025 10.175 0.0 243 244 240
-6.4750000000000005 9.925 0.0 246 246 246
-1.925 10.025 0.0 245 245 245
-6.175000000000001 9.825000000000001 0.0 246 246 246
-5.925000000000001 11.525 0.0 205 206 206
-1.5250000000000001 9.675 0.0 246 246 246
-0.625 10.325000000000001 0.0 139 165 182
-5.825 11.625 0.0 204 204 204
-2.125 10.375 0.0 246 246 246
-1.625 9.725000000000001 0.0 148 175 112
-1.3250000000000002 10.325000000000001 0.0 246 246 246
-6.325 9.275 0.0 88 136 134
-1.475 10.175 0.0 246 246 246
-1.375 10.175 0.0 246 246 246
-1.125 10.125 0.0 128 160 182
-1.0250000000000001 10.225000000000001 0.0 145 156 163
-0.8250000000000001 10.125 0.0 172 172 172
-5.675000000000001 10.325000000000001 0.0 189 189 189
-0.525 10.725000000000001 0.0 149 173 190
-0.925 10.675 0.0 138 166 185
-2.1750000000000003 10.775 0.0 246 246 246
-6.075 11.925 0.0 176 176 175
-5.875 10.925 0.0 203 204 203
-6.175000000000001 13.125 0.0 181 181 181
-5.925000000000001 11.775 0.0 197 197 197
-2.125 10.475000000000001 0.0 247 247 247
-2.025 10.475000000000001 0.0 246 246 246
-1.5250000000000001 9.875 0.0 233 237 220
-1.3250000000000002 10.375 0.0 246 246 246
-5.9750000000000005 11.325000000000001 0.0 190 190 190
-5.9750000000000005 11.625 0.0 187 187 187
-5.875 11.625 0.0 174 175 175
-1.875 9.625 0.0 185 210 103
-1.375 9.825000000000001 0.0 174 193 149
-1.2750000000000001 10.125 0.0 208 211 214
-1.425 9.725000000000001 0.0 160 178 139
-5.775 10.575000000000001 0.0 192 192 192
-5.825 11.775 0.0 195 195 195
-0.625 10.225000000000001 0.0 202 202 202
-5.925000000000001 8.875 0.0 54 92 95
-1.125 10.175 0.0 120 154 176
-0.525 10.125 0.0 175 175 175
-1.875 10.525 0.0 246 246 246
-4.825 10.125 0.0 169 169 168
-6.325 9.775 0.0 245 245 245
-6.9750000000000005 9.975000000000001 0.0 100 144 171
-5.625 10.425 0.0 215 215 215
-4.675 10.075000000000001 0.0 218 218 218
-7.425000000000001 10.025 0.0 91 138 169
-1.875 10.225000000000001 0.0 237 241 221
-5.925000000000001 10.925 0.0 216 216 216
-1.7750000000000001 10.275 0.0 212 228 177
-7.125 10.025 0.0 97 142 169
-1.7750000000000001 10.225000000000001 0.0 112 159 18
-1.725 9.875 0.0 153 185 123
-7.7250000000000005 9.975000000000001 0.0 88 138 168
-2.225 10.425 0.0 246 247 247
-1.725 9.475 0.0 138 152 122
-2.025 10.425 0.0 246 246 246
-0.7250000000000001 10.325000000000001 0.0 137 165 183
-5.4750000000000005 10.325000000000001 0.0 179 179 179
-4.7250000000000005 10.175 0.0 192 192 192
-4.7250000000000005 10.075000000000001 0.0 160 161 161
-6.175000000000001 13.325000000000001 0.0 196 196 196
-5.625 10.875 0.0 178 179 178
-6.275 13.425 0.0 175 176 175
-1.425 10.125 0.0 246 246 246
-1.8250000000000002 10.075000000000001 0.0 195 219 128
-1.2750000000000001 10.225000000000001 0.0 224 227 229
-1.8250000000000002 10.025 0.0 159 202 65
-1.7750000000000001 9.875 0.0 220 230 184
-1.3250000000000002 9.825000000000001 0.0 247 247 247
-5.775 10.525 0.0 201 201 201
-5.875 11.475000000000001 0.0 194 195 194
-5.925000000000001 11.725000000000001 0.0 178 179 179
-2.1750000000000003 10.325000000000001 0.0 245 245 245
-0.8250000000000001 10.175 0.0 132 133 132
-5.7250000000000005 10.625 0.0 192 192 192
-5.775 11.425 0.0 215 215 215
-6.125 13.025 0.0 192 192 192
-6.075 12.025 0.0 215 215 215
-6.025 11.875 0.0 215 215 215
-1.3250000000000002 9.875 0.0 243 244 243
-6.675000000000001 9.825000000000001 0.0 20 46 68
-1.625 9.675 0.0 174 196 146
-1.3250000000000002 9.975000000000001 0.0 246 247 246
-7.925000000000001 10.025 0.0 89 137 166
-6.175000000000001 8.725 0.0 112 166 79
-6.175000000000001 9.675 0.0 242 243 241
-5.9750000000000005 11.525 0.0 208 208 208
-1.5250000000000001 9.475 0.0 210 222 192
-8.025 9.975000000000001 0.0 91 138 167
-5.9750000000000005 11.675 0.0 208 209 208
-5.825 11.725000000000001 0.0 215 215 215
-5.875 11.725000000000001 0.0 211 211 211
-1.7750000000000001 9.425 0.0 248 248 248
-1.625 9.525 0.0 246 246 246
-1.675 9.325000000000001 0.0 150 165 133
-7.825 10.025 0.0 89 138 167
-6.675000000000001 9.875 0.0 28 54 25
-6.875 9.925 0.0 92 139 168
-5.625 10.825000000000001 0.0 213 214 213
-5.175000000000001 10.725000000000001 0.0 171 172 172
-4.775 10.225000000000001 0.0 208 208 208
0.625 10.525 0.0 238 237 234
-2.325 10.725000000000001 0.0 238 238 238
-6.325 13.475000000000001 0.0 201 201 201
-5.925000000000001 11.375 0.0 200 200 200
-1.925 10.075000000000001 0.0 246 246 246
-6.125 8.875 0.0 72 132 10
-6.375 9.575000000000001 0.0 101 144 42
-6.2250000000000005 8.925 0.0 71 114 56
-1.3250000000000002 10.075000000000001 0.0 246 246 246
-5.925000000000001 10.825000000000001 0.0 206 206 206
-1.875 9.775 0.0 246 246 246
-1.7750000000000001 9.475 0.0 218 223 213
-1.3250000000000002 10.175 0.0 246 246 246
-5.625 11.125 0.0 216 216 215
-5.675000000000001 11.175 0.0 214 214 214
-2.075 10.875 0.0 247 247 247
-1.375 10.225000000000001 0.0 247 247 247
-6.775 9.825000000000001 0.0 94 140 170
-1.475 9.375 0.0 244 245 244
-7.175000000000001 9.975000000000001 0.0 90 138 167
-1.5750000000000002 9.475 0.0 182 198 162
-6.9750000000000005 9.625 0.0 95 141 161
-6.375 13.575000000000001 0.0 215 215 215
-1.425 9.525 0.0 105 148 43
-6.575 9.575000000000001 0.0 110 168 55
-6.2250000000000005 9.625 0.0 233 237 226
-6.075 9.575000000000001 0.0 232 236 218
-5.875 11.225000000000001 0.0 191 192 191
-6.175000000000001 8.825000000000001 0.0 107 163 17
-6.175000000000001 9.025 0.0 91 152 14
-5.875 11.425 0.0 193 194 193
-6.275 8.975 0.0 77 130 15
-6.125 8.975 0.0 96 141 38
-6.125 9.225 0.0 85 133 13
-6.075 9.025 0.0 98 144 169
-5.875 11.175 0.0 188 188 188
-1.7750000000000001 9.725000000000001 0.0 170 194 140
-6.025 8.875 0.0 78 122 110
-2.225 10.575000000000001 0.0 246 246 246
-4.675 10.025 0.0 64 64 63
-6.275 13.275 0.0 170 170 170
-6.425000000000001 14.475000000000001 0.0 167 168 168
-2.225 10.925 0.0 247 247 247
-6.2250000000000005 13.225000000000001 0.0 168 168 168
-6.375 14.225000000000001 0.0 166 167 166
-1.875 10.175 0.0 247 247 247
-2.275 10.925 0.0 246 246 246
-1.975 9.925 0.0 246 246 246
-0.7250000000000001 10.225000000000001 0.0 153 154 154
-4.625 10.025 0.0 212 213 212
-8.025 10.075000000000001 0.0 83 133 164
-6.425000000000001 13.175 0.0 214 213 214
-2.325 10.975000000000001 0.0 239 239 239
-1.3250000000000002 10.225000000000001 0.0 245 245 245
-8.375 9.925 0.0 85 135 167
-8.275 9.975000000000001 0.0 81 133 165
-8.075000000000001 9.975000000000001 0.0 81 132 164
-5.575 9.825000000000001 0.0 246 246 246
-1.8250000000000002 9.775 0.0 86 141 15
-6.125 9.475 0.0 102 144 43
-8.075000000000001 9.925 0.0 86 136 166
-1.675 9.525 0.0 115 138 102
-8.475 9.725000000000001 0.0 74 130 164
-8.375 9.725000000000001 0.0 81 132 164
-6.375 14.125 0.0 180 181 180
-6.525 14.675 0.0 176 176 176
-1.975 10.325000000000001 0.0 247 247 247
-6.4750000000000005 14.475000000000001 0.0 175 175 175
-6.325 13.675 0.0 215 215 215
-6.275 13.225000000000001 0.0 214 215 214
-1.8250000000000002 10.175 0.0 236 241 215
-1.975 10.225000000000001 0.0 239 242 230
-6.075 8.825000000000001 0.0 89 140 32
-2.1750000000000003 10.675 0.0 246 246 246
-6.325 14.275 0.0 226 226 226
