ply
format ascii 1.0
element vertex 1186
property float x
property float y
property float z
property uchar red
property uchar green
property uchar blue
end_header
0.125 0.07500000000000001 0.0 0 0 0
0.125 0.025 0.0 12 12 12
0.125 -0.025 0.0 2 2 2
5.025 -0.17500000000000002 0.0 244 244 244
5.075 0.775 0.0 225 224 224
4.925000000000001 -0.17500000000000002 0.0 245 245 245
5.025 0.775 0.0 227 227 227
4.9750000000000005 0.525 0.0 246 246 246
4.9750000000000005 0.42500000000000004 0.0 246 246 246
5.025 0.325 0.0 245 246 245
4.9750000000000005 0.7250000000000001 0.0 245 245 245
4.925000000000001 0.7250000000000001 0.0 244 244 244
4.925000000000001 0.42500000000000004 0.0 245 245 245
4.9750000000000005 0.17500000000000002 0.0 245 245 245
4.925000000000001 0.775 0.0 178 177 177
4.875 0.42500000000000004 0.0 245 245 245
4.925000000000001 0.275 0.0 245 246 245
5.9750000000000005 -2.7750000000000004 0.0 53 51 51
4.925000000000001 0.17500000000000002 0.0 246 246 246
4.925000000000001 0.125 0.0 246 246 246
5.925000000000001 -2.7750000000000004 0.0 53 52 51
5.925000000000001 -2.875 0.0 198 198 198
4.875 0.07500000000000001 0.0 246 246 246
4.925000000000001 -0.07500000000000001 0.0 245 245 245
4.875 0.775 0.0 131 131 129
4.875 0.7250000000000001 0.0 246 247 247
4.875 0.625 0.0 245 245 245
5.075 0.625 0.0 246 246 246
5.075 0.675 0.0 246 247 246
5.025 0.675 0.0 246 246 246
4.9750000000000005 -0.025 0.0 246 246 246
4.9750000000000005 -0.07500000000000001 0.0 246 246 246
4.925000000000001 -2.6750000000000003 0.0 199 199 199
5.925000000000001 -3.125 0.0 198 198 198
4.925000000000001 0.625 0.0 245 245 245
4.925000000000001 -0.025 0.0 246 246 246
4.925000000000001 0.025 0.0 246 246 246
4.925000000000001 -2.825 0.0 229 229 229
4.925000000000001 0.675 0.0 246 246 246
6.125 -3.0250000000000004 0.0 198 199 198
6.075 -2.825 0.0 53 55 52
5.075 0.525 0.0 245 245 245
5.025 0.625 0.0 246 246 246
4.9750000000000005 0.07500000000000001 0.0 246 246 246
4.9750000000000005 0.025 0.0 246 246 246
4.925000000000001 0.47500000000000003 0.0 246 246 246
5.075 0.42500000000000004 0.0 246 246 246
5.075 0.325 0.0 246 246 246
5.075 0.07500000000000001 0.0 246 246 246
5.9750000000000005 -2.9250000000000003 0.0 197 197 197
5.925000000000001 -2.725 0.0 81 79 79
4.925000000000001 -2.625 0.0 199 199 199
4.875 -2.7750000000000004 0.0 198 198 198
4.875 -2.625 0.0 198 199 198
4.875 -2.725 0.0 200 201 200
5.9750000000000005 -2.6750000000000003 0.0 14 12 12
4.9750000000000005 -2.6750000000000003 0.0 199 200 199
5.9750000000000005 -2.975 0.0 197 197 197
4.9750000000000005 -2.625 0.0 197 197 197
4.9750000000000005 -2.7750000000000004 0.0 201 202 202
5.9750000000000005 -3.075 0.0 198 198 198
4.9750000000000005 -2.875 0.0 246 246 246
5.925000000000001 -2.975 0.0 199 200 199
4.925000000000001 -2.875 0.0 246 246 246
5.075 0.025 0.0 246 246 245
5.075 -0.07500000000000001 0.0 245 245 245
5.075 -0.17500000000000002 0.0 246 246 246
5.075 -0.025 0.0 245 245 245
5.075 0.7250000000000001 0.0 247 247 247
4.825 0.375 0.0 247 248 247
4.075 3.225 0.0 230 230 230
4.325 3.225 0.0 230 231 231
4.625 3.325 0.0 236 236 236
4.425 3.475 0.0 238 239 238
4.375 3.4250000000000003 0.0 237 237 237
4.4750000000000005 3.225 0.0 237 237 237
3.975 10.775 0.0 239 239 239
4.325 3.2750000000000004 0.0 238 238 238
1.7750000000000001 11.275 0.0 77 123 154
4.125 10.775 0.0 21 21 20
0.925 10.775 0.0 223 220 214
1.175 11.075000000000001 0.0 110 146 170
2.325 11.125 0.0 243 243 243
4.525 6.825 0.0 63 58 57
4.375 6.9750000000000005 0.0 244 244 244
2.725 11.225000000000001 0.0 244 244 244
0.875 11.125 0.0 104 143 169
0.9750000000000001 11.075000000000001 0.0 119 152 175
2.825 11.225000000000001 0.0 245 245 245
0.9750000000000001 11.025 0.0 96 135 162
1.075 11.125 0.0 119 152 175
2.9250000000000003 11.175 0.0 246 246 246
4.025 3.825 0.0 233 233 233
2.1750000000000003 10.625 0.0 235 238 239
2.9250000000000003 11.125 0.0 245 245 245
3.225 10.875 0.0 229 230 229
3.975 10.575000000000001 0.0 246 246 246
3.9250000000000003 3.7750000000000004 0.0 232 232 232
-1.3250000000000002 10.375 0.0 122 156 178
2.125 10.825000000000001 0.0 91 133 162
2.275 10.925 0.0 244 244 244
2.975 4.775 0.0 76 123 3
0.17500000000000002 10.475000000000001 0.0 149 147 142
0.275 10.625 0.0 237 235 230
-1.225 10.375 0.0 134 164 184
0.7250000000000001 10.875 0.0 156 177 190
3.9250000000000003 3.725 0.0 233 233 233
-1.3250000000000002 10.525 0.0 131 161 181
-1.2750000000000001 10.425 0.0 127 158 179
0.5750000000000001 10.825000000000001 0.0 119 153 176
-1.0250000000000001 10.475000000000001 0.0 135 163 183
1.925 5.675000000000001 0.0 215 205 162
3.825 7.9750000000000005 0.0 192 193 192
3.725 7.7250000000000005 0.0 191 191 192
3.075 11.025 0.0 243 243 243
2.025 11.025 0.0 119 154 178
2.975 11.225000000000001 0.0 246 246 246
2.025 11.075000000000001 0.0 128 160 182
2.825 11.175 0.0 246 246 246
3.975 10.275 0.0 132 131 131
-1.175 10.475000000000001 0.0 116 145 165
-0.925 10.475000000000001 0.0 137 165 184
0.07500000000000001 10.625 0.0 164 184 198
0.275 11.075000000000001 0.0 133 162 183
1.075 10.825000000000001 0.0 130 161 182
2.075 10.625 0.0 116 152 176
2.375 11.025 0.0 245 245 245
-1.675 10.475000000000001 0.0 245 245 245
-0.5750000000000001 10.475000000000001 0.0 137 165 185
0.925 10.725000000000001 0.0 219 217 209
2.1750000000000003 10.725000000000001 0.0 246 246 246
2.825 11.275 0.0 246 246 246
-1.975 10.575000000000001 0.0 246 246 246
-1.875 10.525 0.0 245 245 245
-1.625 10.525 0.0 246 245 246
-0.8250000000000001 10.475000000000001 0.0 135 164 183
-0.47500000000000003 10.525 0.0 137 165 185
-0.07500000000000001 10.425 0.0 237 236 233
0.025 10.475000000000001 0.0 173 173 169
2.475 11.075000000000001 0.0 246 246 245
3.575 6.625 0.0 239 239 239
-2.275 10.625 0.0 245 245 245
-1.875 10.575000000000001 0.0 245 245 245
-1.7750000000000001 10.525 0.0 245 245 245
-1.475 10.525 0.0 246 246 246
-1.375 10.475000000000001 0.0 238 240 241
-0.375 10.475000000000001 0.0 136 165 184
-0.025 10.625 0.0 160 181 195
2.7750000000000004 11.125 0.0 246 246 246
2.875 5.525 0.0 95 135 39
-1.7750000000000001 10.425 0.0 244 245 244
-1.475 10.375 0.0 247 247 247
-1.375 10.425 0.0 223 229 233
-0.17500000000000002 10.625 0.0 136 164 184
0.47500000000000003 10.775 0.0 162 175 180
0.7250000000000001 11.125 0.0 133 164 183
2.125 10.525 0.0 244 245 245
2.475 11.175 0.0 246 246 246
-1.675 10.425 0.0 245 245 245
0.9750000000000001 11.175 0.0 124 157 178
1.5750000000000002 11.625 0.0 124 158 179
2.725 11.175 0.0 245 245 245
3.575 10.325000000000001 0.0 244 244 244
3.825 10.725000000000001 0.0 246 246 246
-0.5750000000000001 10.575000000000001 0.0 129 159 180
1.375 11.425 0.0 125 159 181
3.1750000000000003 10.325000000000001 0.0 210 211 210
-2.125 10.575000000000001 0.0 246 246 246
-1.075 10.475000000000001 0.0 129 161 181
-0.07500000000000001 10.625 0.0 171 189 201
-1.125 10.425 0.0 140 168 186
0.025 10.575000000000001 0.0 136 164 184
-0.525 10.575000000000001 0.0 130 162 182
-1.725 9.725000000000001 0.0 205 210 200
-1.5750000000000002 9.575000000000001 0.0 28 51 6
-1.7750000000000001 9.725000000000001 0.0 186 196 178
-1.7750000000000001 10.125 0.0 246 246 246
-2.025 9.925 0.0 237 241 229
-1.875 9.975000000000001 0.0 183 207 127
3.225 11.175 0.0 169 169 170
3.1750000000000003 11.025 0.0 166 167 168
3.375 10.175 0.0 247 247 247
0.875 10.925 0.0 136 165 184
2.625 11.175 0.0 247 247 247
-0.07500000000000001 10.475000000000001 0.0 151 175 191
-1.975 10.525 0.0 245 245 245
-0.675 10.475000000000001 0.0 136 164 184
-0.225 10.525 0.0 154 176 191
-2.075 10.325000000000001 0.0 243 243 243
-1.075 10.425 0.0 134 163 183
-0.7250000000000001 10.525 0.0 136 164 184
0.17500000000000002 10.625 0.0 189 196 200
0.42500000000000004 10.525 0.0 224 224 221
2.6750000000000003 11.125 0.0 246 246 246
3.0250000000000004 11.225000000000001 0.0 246 246 246
-0.8250000000000001 10.425 0.0 140 168 186
-0.42500000000000004 10.575000000000001 0.0 139 168 186
0.525 10.925 0.0 139 166 186
0.625 11.075000000000001 0.0 139 168 187
0.9750000000000001 11.325000000000001 0.0 137 166 186
1.225 11.275 0.0 129 159 180
1.675 11.075000000000001 0.0 130 160 181
-1.125 10.475000000000001 0.0 138 166 185
-0.9750000000000001 10.425 0.0 138 167 185
-0.42500000000000004 10.425 0.0 184 190 194
0.125 10.775 0.0 145 172 189
0.275 10.725000000000001 0.0 133 162 182
-0.775 10.575000000000001 0.0 135 164 183
0.125 10.725000000000001 0.0 137 164 184
0.225 10.675 0.0 134 164 183
0.7250000000000001 10.975000000000001 0.0 136 163 184
1.075 11.175 0.0 128 158 179
1.875 10.825000000000001 0.0 128 159 179
2.6750000000000003 5.575 0.0 9 22 0
-0.325 10.525 0.0 135 164 183
-0.025 10.775 0.0 150 175 192
0.125 10.675 0.0 130 159 179
0.225 10.825000000000001 0.0 137 165 184
0.325 10.675 0.0 193 206 214
-0.925 10.425 0.0 135 165 184
-0.275 10.575000000000001 0.0 135 164 183
0.42500000000000004 10.725000000000001 0.0 130 161 182
-2.025 10.125 0.0 246 246 246
0.675 10.775 0.0 162 183 197
-1.625 9.725000000000001 0.0 245 245 245
-1.7750000000000001 9.775 0.0 138 166 101
-0.325 10.425 0.0 116 141 160
0.375 10.825000000000001 0.0 126 160 182
-1.5750000000000002 9.775 0.0 185 203 155
-1.5750000000000002 10.675 0.0 246 247 246
-0.775 10.275 0.0 198 198 198
-1.925 9.825000000000001 0.0 244 244 244
-1.8250000000000002 10.575000000000001 0.0 246 246 246
-1.0250000000000001 10.175 0.0 57 57 57
-1.475 10.625 0.0 247 247 247
-1.125 10.025 0.0 10 10 10
0.625 5.4750000000000005 0.0 101 94 81
-5.825 10.475000000000001 0.0 212 212 212
2.9250000000000003 11.275 0.0 246 246 246
3.225 11.125 0.0 188 188 188
3.375 10.275 0.0 246 246 246
3.725 10.375 0.0 246 246 246
1.3250000000000002 11.075000000000001 0.0 142 169 187
3.475 10.225000000000001 0.0 246 246 246
-2.225 10.375 0.0 244 244 244
-2.025 10.425 0.0 244 244 244
0.775 10.925 0.0 140 167 186
-0.625 10.425 0.0 140 167 186
2.975 11.175 0.0 246 246 246
3.2750000000000004 10.225000000000001 0.0 246 246 246
3.825 10.325000000000001 0.0 247 247 247
0.7250000000000001 10.725000000000001 0.0 242 241 238
3.825 10.425 0.0 246 246 246
3.6750000000000003 7.875 0.0 195 196 195
-0.025 10.525 0.0 189 203 212
-0.7250000000000001 10.425 0.0 134 154 169
2.625 11.025 0.0 247 247 247
3.6750000000000003 7.825 0.0 199 200 199
0.07500000000000001 10.475000000000001 0.0 204 205 205
3.2750000000000004 10.175 0.0 246 247 246
3.625 10.375 0.0 245 246 245
2.475 10.925 0.0 246 246 246
3.225 10.125 0.0 246 246 246
3.075 11.075000000000001 0.0 228 228 228
3.2750000000000004 10.125 0.0 246 246 246
-2.225 10.575000000000001 0.0 244 244 244
-1.475 10.275 0.0 247 247 247
2.375 10.825000000000001 0.0 245 245 245
2.875 11.225000000000001 0.0 245 245 245
2.975 11.125 0.0 247 247 247
3.1750000000000003 10.225000000000001 0.0 243 243 243
3.975 10.675 0.0 246 246 246
-1.725 9.925 0.0 163 198 109
-1.675 9.775 0.0 124 168 49
0.375 10.625 0.0 133 162 182
2.5250000000000004 11.125 0.0 246 246 246
2.6750000000000003 11.325000000000001 0.0 246 246 246
3.2750000000000004 10.875 0.0 190 191 190
3.5250000000000004 10.325000000000001 0.0 246 246 246
0.025 10.725000000000001 0.0 133 163 182
0.42500000000000004 10.875 0.0 132 162 183
1.225 10.775 0.0 130 161 182
1.875 10.725000000000001 0.0 128 161 181
-1.225 10.325000000000001 0.0 134 165 185
1.3250000000000002 10.775 0.0 125 157 177
1.675 10.825000000000001 0.0 49 58 65
2.025 10.925 0.0 193 193 192
-1.675 10.675 0.0 245 245 245
-0.225 10.725000000000001 0.0 84 84 85
-1.5750000000000002 10.625 0.0 247 247 247
-0.625 10.325000000000001 0.0 115 115 115
-1.675 10.575000000000001 0.0 246 246 246
-1.425 10.325000000000001 0.0 247 247 247
-1.125 10.125 0.0 12 13 12
-0.925 10.175 0.0 145 145 145
-0.8250000000000001 10.175 0.0 163 163 163
-0.7250000000000001 10.225000000000001 0.0 199 199 199
-0.525 10.225000000000001 0.0 204 204 204
-1.8250000000000002 9.675 0.0 165 177 124
3.2750000000000004 11.225000000000001 0.0 177 178 178
3.325 10.375 0.0 246 247 246
3.725 10.325000000000001 0.0 247 247 247
3.7750000000000004 10.225000000000001 0.0 246 246 246
3.875 10.225000000000001 0.0 246 246 246
2.625 11.125 0.0 246 246 246
3.375 10.125 0.0 246 246 246
3.575 10.225000000000001 0.0 246 246 246
1.425 11.125 0.0 129 160 181
1.675 11.225000000000001 0.0 128 158 180
3.075 11.225000000000001 0.0 246 246 246
3.325 10.275 0.0 246 246 246
0.625 10.925 0.0 138 166 186
1.3250000000000002 11.025 0.0 130 160 181
3.0250000000000004 11.125 0.0 246 246 246
0.42500000000000004 10.675 0.0 133 163 184
0.9750000000000001 10.775 0.0 239 238 235
0.775 10.775 0.0 242 241 238
2.375 11.075000000000001 0.0 246 246 246
3.0250000000000004 11.175 0.0 246 246 246
3.125 11.175 0.0 245 245 245
3.1750000000000003 10.175 0.0 246 246 246
-2.075 10.525 0.0 245 245 245
-0.675 10.425 0.0 128 158 180
1.175 11.025 0.0 135 165 185
3.5250000000000004 10.375 0.0 246 246 246
-2.125 10.375 0.0 243 243 243
4.075 10.475000000000001 0.0 85 81 81
-2.325 10.525 0.0 243 243 243
-2.225 10.525 0.0 244 244 244
-1.5750000000000002 10.425 0.0 246 246 246
0.925 10.975000000000001 0.0 127 159 180
3.6750000000000003 10.525 0.0 246 246 246
3.875 10.675 0.0 246 246 246
2.025 10.825000000000001 0.0 118 153 177
3.7750000000000004 10.575000000000001 0.0 246 246 246
1.925 10.975000000000001 0.0 120 154 176
2.125 10.425 0.0 246 246 246
3.875 10.575000000000001 0.0 246 246 246
3.825 10.525 0.0 246 246 246
-1.875 10.425 0.0 244 244 244
-1.2750000000000001 10.475000000000001 0.0 118 153 175
-1.975 10.325000000000001 0.0 243 243 243
-1.875 10.325000000000001 0.0 245 245 245
-1.725 10.175 0.0 228 236 190
1.425 10.775 0.0 124 158 180
1.7750000000000001 10.825000000000001 0.0 114 151 176
-1.725 10.025 0.0 172 202 93
1.625 10.825000000000001 0.0 196 196 196
2.075 10.925 0.0 92 92 92
-1.625 9.975000000000001 0.0 246 246 246
1.475 10.525 0.0 193 193 193
-1.875 9.575000000000001 0.0 221 230 190
-1.5750000000000002 10.075000000000001 0.0 229 235 217
-1.2750000000000001 10.325000000000001 0.0 125 159 181
0.47500000000000003 10.725000000000001 0.0 125 157 178
-1.7750000000000001 9.525 0.0 229 235 219
-1.5250000000000001 9.525 0.0 118 166 55
-1.975 9.675 0.0 212 225 189
-1.875 9.675 0.0 140 173 92
-1.875 9.925 0.0 197 216 171
-1.625 10.725000000000001 0.0 245 245 245
-0.525 10.275 0.0 131 132 131
-2.375 10.575000000000001 0.0 245 245 245
-1.7750000000000001 9.625 0.0 136 161 98
-1.5250000000000001 10.675 0.0 246 246 246
-0.7250000000000001 10.175 0.0 192 192 192
-2.275 10.325000000000001 0.0 223 229 212
-1.725 10.775 0.0 246 246 246
-1.725 9.625 0.0 159 183 127
0.675 5.4750000000000005 0.0 179 176 170
2.075 11.025 0.0 131 160 181
1.125 10.875 0.0 141 168 186
0.675 10.925 0.0 151 175 192
1.2750000000000001 11.075000000000001 0.0 138 167 186
1.075 10.975000000000001 0.0 141 170 189
2.5250000000000004 11.025 0.0 246 246 246
2.6750000000000003 11.025 0.0 246 246 246
1.925 10.875 0.0 137 165 184
0.525 10.625 0.0 244 244 241
1.675 10.875 0.0 134 164 184
1.8250000000000002 10.875 0.0 134 164 184
-0.025 10.425 0.0 244 243 240
1.125 10.975000000000001 0.0 144 171 189
1.2750000000000001 10.875 0.0 143 169 188
0.5750000000000001 10.625 0.0 244 243 240
1.625 10.925 0.0 136 166 186
1.725 11.025 0.0 132 161 181
0.675 10.725000000000001 0.0 146 173 190
1.5250000000000001 10.875 0.0 130 161 182
0.025 10.675 0.0 142 170 188
-1.675 10.275 0.0 246 246 246
-1.5750000000000002 10.325000000000001 0.0 246 247 246
-6.175000000000001 12.625 0.0 217 217 217
-1.925 10.125 0.0 206 226 159
-1.3250000000000002 10.325000000000001 0.0 177 196 208
-0.875 10.575000000000001 0.0 143 170 189
-0.325 10.675 0.0 148 174 192
-0.225 10.675 0.0 133 163 183
0.775 10.525 0.0 77 77 77
-0.525 10.425 0.0 209 209 209
-2.025 9.825000000000001 0.0 246 246 246
-1.675 9.675 0.0 187 203 167
-1.425 10.625 0.0 165 179 189
-5.625 10.075000000000001 0.0 212 212 212
-5.825 10.775 0.0 228 228 228
-5.775 10.025 0.0 243 243 243
-5.625 10.025 0.0 145 143 143
-6.2250000000000005 11.625 0.0 195 195 195
-5.925000000000001 10.025 0.0 243 243 243
-5.875 10.875 0.0 201 201 201
-5.875 10.775 0.0 220 220 220
-6.175000000000001 10.025 0.0 246 246 246
-5.825 10.075000000000001 0.0 244 244 244
-5.825 11.025 0.0 218 218 218
-6.125 10.025 0.0 244 245 244
-5.875 10.075000000000001 0.0 243 243 243
0.17500000000000002 10.925 0.0 134 164 184
-2.275 10.525 0.0 245 246 245
0.7250000000000001 10.775 0.0 241 240 237
-2.325 10.775 0.0 246 246 246
-2.1750000000000003 10.775 0.0 246 247 246
-5.675000000000001 10.075000000000001 0.0 119 117 117
-6.125 12.325000000000001 0.0 230 231 230
-5.675000000000001 10.025 0.0 189 188 188
-1.725 10.225000000000001 0.0 244 244 244
0.225 10.725000000000001 0.0 127 156 177
-1.625 9.875 0.0 245 245 246
-0.7250000000000001 10.575000000000001 0.0 117 152 175
-0.025 10.675 0.0 129 161 181
-6.4750000000000005 9.775 0.0 226 231 233
-1.625 9.675 0.0 82 132 14
0.275 10.825000000000001 0.0 133 163 183
-5.875 11.325000000000001 0.0 230 230 230
-1.5250000000000001 10.075000000000001 0.0 149 185 93
-1.975 9.725000000000001 0.0 224 233 203
-1.7750000000000001 9.975000000000001 0.0 236 239 234
-0.125 10.725000000000001 0.0 93 93 93
-8.075000000000001 9.975000000000001 0.0 78 128 160
-6.175000000000001 9.275 0.0 66 112 60
-5.825 10.425 0.0 223 223 223
-8.425 9.775 0.0 69 123 156
-8.075000000000001 9.925 0.0 72 126 159
-6.275 9.025 0.0 39 72 4
-8.325000000000001 9.775 0.0 64 118 152
-6.2250000000000005 8.925 0.0 57 105 53
-5.925000000000001 10.425 0.0 223 223 223
-5.925000000000001 10.575000000000001 0.0 223 223 223
-5.775 10.625 0.0 234 234 234
-8.425 9.375 0.0 7 8 7
-8.075000000000001 9.825000000000001 0.0 78 131 162
-8.375 9.875 0.0 65 120 155
-7.9750000000000005 9.875 0.0 76 128 161
-8.625 9.175 0.0 17 17 17
-8.325000000000001 9.125 0.0 3 3 3
-8.175 9.125 0.0 3 4 4
-8.025 9.175 0.0 4 5 4
-7.9750000000000005 9.825000000000001 0.0 73 126 159
-6.2250000000000005 9.075000000000001 0.0 56 80 39
-7.925000000000001 8.925 0.0 4 4 4
-7.875 9.275 0.0 2 2 2
0.675 5.425000000000001 0.0 40 32 12
-2.275 10.725000000000001 0.0 245 245 245
-2.275 10.675 0.0 245 245 245
-6.125 9.875 0.0 243 243 243
-4.825 10.175 0.0 119 118 118
-6.525 9.725000000000001 0.0 50 92 122
-6.175000000000001 9.875 0.0 243 243 243
-1.8250000000000002 9.875 0.0 162 190 110
-1.175 10.575000000000001 0.0 112 150 174
-6.625 9.775 0.0 45 91 117
-6.275 9.925 0.0 242 242 242
-5.9750000000000005 9.975000000000001 0.0 243 243 243
-6.675000000000001 9.775 0.0 42 89 123
-5.9750000000000005 9.925 0.0 243 243 243
-5.7250000000000005 10.375 0.0 235 235 235
-5.925000000000001 10.775 0.0 235 235 235
-2.4250000000000003 10.775 0.0 246 246 246
-6.2250000000000005 8.975 0.0 71 112 64
-6.325 9.225 0.0 97 155 15
-6.175000000000001 9.225 0.0 80 124 61
-6.125 8.875 0.0 71 82 55
-6.125 9.325000000000001 0.0 56 105 84
-5.925000000000001 10.125 0.0 244 244 244
-6.025 8.925 0.0 61 102 64
-6.2250000000000005 9.825000000000001 0.0 241 241 241
-5.925000000000001 9.925 0.0 242 242 242
-5.825 11.125 0.0 236 236 236
-9.225 9.125 0.0 9 10 9
-7.825 9.325000000000001 0.0 2 3 3
-6.275 9.075000000000001 0.0 118 117 60
-6.4750000000000005 9.875 0.0 243 243 243
-8.075000000000001 8.975 0.0 5 5 5
-8.125 9.325000000000001 0.0 4 4 4
-8.375 8.875 0.0 8 9 8
-8.125 8.825000000000001 0.0 2 3 3
-5.7250000000000005 10.525 0.0 238 238 238
-5.7250000000000005 10.625 0.0 236 236 236
-5.7250000000000005 10.825000000000001 0.0 238 238 238
-5.675000000000001 10.925 0.0 236 236 236
-6.375 13.775 0.0 237 236 237
-5.7250000000000005 10.275 0.0 235 236 235
-6.125 12.475000000000001 0.0 237 237 237
-6.275 13.325000000000001 0.0 237 237 237
-2.1750000000000003 10.325000000000001 0.0 243 243 243
-5.625 10.175 0.0 237 237 237
-5.7250000000000005 10.975000000000001 0.0 235 236 235
-6.425000000000001 13.475000000000001 0.0 236 236 236
-6.575 9.725000000000001 0.0 38 81 113
-6.275 12.775 0.0 237 237 237
-6.425000000000001 13.725000000000001 0.0 237 237 237
-7.025 9.825000000000001 0.0 60 112 146
-5.525 10.025 0.0 236 236 236
-6.525 13.275 0.0 237 237 237
-6.525 13.225000000000001 0.0 237 237 237
-6.375 13.575000000000001 0.0 237 237 237
-6.675000000000001 9.675 0.0 58 111 146
-6.325 13.475000000000001 0.0 237 237 237
-9.425 9.275 0.0 108 104 90
-6.375 9.825000000000001 0.0 243 243 243
-5.675000000000001 10.225000000000001 0.0 237 237 237
-5.775 10.675 0.0 238 238 238
-5.925000000000001 10.975000000000001 0.0 238 238 238
-6.625 9.475 0.0 65 116 144
-6.525 9.675 0.0 40 85 116
-6.375 13.225000000000001 0.0 237 237 237
-6.325 9.325000000000001 0.0 90 148 96
-5.075 10.975000000000001 0.0 176 176 176
-2.275 10.425 0.0 236 238 231
-9.575000000000001 9.825000000000001 0.0 57 111 146
-5.925000000000001 8.575000000000001 0.0 78 133 10
-5.875 10.025 0.0 241 242 242
-6.125 8.825000000000001 0.0 78 133 9
-6.375 9.725000000000001 0.0 243 243 243
-6.375 12.625 0.0 237 237 237
-6.375 9.875 0.0 243 243 243
-5.875 10.975000000000001 0.0 236 236 236
-6.325 9.775 0.0 243 243 243
-5.925000000000001 10.175 0.0 244 244 244
-5.825 10.725000000000001 0.0 238 238 238
-5.825 10.925 0.0 239 239 239
-6.675000000000001 9.625 0.0 62 111 144
-6.625 9.675 0.0 50 94 107
-6.675000000000001 9.875 0.0 105 133 154
-6.275 9.975000000000001 0.0 242 242 242
-9.125 9.225 0.0 15 16 15
-8.475 9.125 0.0 11 11 11
-9.675 8.625 0.0 61 62 61
-7.9750000000000005 8.925 0.0 7 7 7
-8.025 9.075000000000001 0.0 6 6 6
-8.175 9.325000000000001 0.0 5 6 5
-5.625 10.225000000000001 0.0 237 237 237
-4.925000000000001 10.275 0.0 103 102 102
-6.025 10.075000000000001 0.0 242 243 242
-7.525 9.975000000000001 0.0 60 112 146
-4.875 10.225000000000001 0.0 37 34 34
-6.525 12.925 0.0 238 238 238
-6.175000000000001 13.075000000000001 0.0 238 238 238
-6.275 13.425 0.0 238 238 238
-6.375 14.375 0.0 235 235 235
-6.325 14.575000000000001 0.0 238 238 238
-7.075 9.875 0.0 56 110 145
-6.425000000000001 14.175 0.0 238 238 238
-6.375 14.325000000000001 0.0 238 238 238
-9.675 9.425 0.0 233 231 224
-6.575 9.875 0.0 243 243 243
-4.9750000000000005 10.325000000000001 0.0 45 42 42
-3.075 11.075000000000001 0.0 26 26 27
-10.225000000000001 9.275 0.0 173 170 158
-9.825000000000001 9.225 0.0 224 221 212
-9.175 9.375 0.0 36 49 57
-5.525 10.075000000000001 0.0 235 235 235
-5.675000000000001 10.725000000000001 0.0 234 235 234
-6.2250000000000005 12.925 0.0 236 237 236
-9.125 9.325000000000001 0.0 29 28 27
-1.8250000000000002 10.325000000000001 0.0 243 243 243
-5.7250000000000005 10.675 0.0 236 236 236
-5.9750000000000005 8.575000000000001 0.0 83 143 45
-6.625 9.525 0.0 85 145 101
-6.2250000000000005 12.025 0.0 238 239 238
-5.875 9.075000000000001 0.0 37 78 2
-5.925000000000001 10.925 0.0 238 238 238
-6.175000000000001 11.925 0.0 239 239 239
-9.625 9.625 0.0 54 109 144
-8.175 9.875 0.0 59 113 148
-6.075 9.075000000000001 0.0 39 74 87
-5.875 9.925 0.0 242 242 242
-5.875 11.225000000000001 0.0 238 239 238
-9.475 9.675 0.0 55 109 145
-8.525 10.075000000000001 0.0 56 109 145
-6.125 8.975 0.0 70 118 114
-6.025 8.975 0.0 55 108 125
-8.675 9.175 0.0 6 7 6
-8.275 9.175 0.0 7 8 7
-8.325000000000001 9.375 0.0 6 7 6
-8.075000000000001 9.175 0.0 4 5 4
-1.875 9.725000000000001 0.0 224 229 212
-6.125 9.025 0.0 20 33 40
-4.825 10.225000000000001 0.0 238 238 238
-5.875 10.725000000000001 0.0 235 236 235
-5.875 10.575000000000001 0.0 236 237 236
-4.875 10.275 0.0 236 236 236
-6.175000000000001 12.275 0.0 237 237 237
-6.125 12.575000000000001 0.0 236 236 236
-6.125 12.775 0.0 236 236 236
-8.675 9.575000000000001 0.0 58 110 143
-8.375 9.675 0.0 59 112 147
-6.275 12.325000000000001 0.0 237 237 237
-6.2250000000000005 12.525 0.0 236 236 236
-2.325 10.625 0.0 220 228 199
-8.375 9.725000000000001 0.0 58 112 146
-5.675000000000001 10.175 0.0 239 239 239
-7.325 9.925 0.0 59 113 148
-7.075 9.825000000000001 0.0 63 117 151
-6.575 14.325000000000001 0.0 237 237 237
-6.575 14.575000000000001 0.0 235 235 235
-9.225 9.275 0.0 149 148 142
-6.825 9.725000000000001 0.0 61 115 149
-6.675000000000001 9.725000000000001 0.0 61 106 138
-6.675000000000001 14.475000000000001 0.0 236 236 236
-1.675 10.075000000000001 0.0 185 211 109
-7.7250000000000005 9.775 0.0 59 114 148
-6.275 12.075000000000001 0.0 236 236 236
-6.075 11.825000000000001 0.0 237 238 237
-5.125 11.075000000000001 0.0 202 202 202
-6.275 9.725000000000001 0.0 242 242 242
-9.225 9.975000000000001 0.0 58 112 147
-6.125 9.225 0.0 74 123 60
-5.775 10.325000000000001 0.0 235 235 234
-6.325 13.175 0.0 236 236 236
-9.225 9.925 0.0 58 111 146
-6.425000000000001 13.025 0.0 237 237 237
-9.325000000000001 9.725000000000001 0.0 57 110 144
-5.9750000000000005 9.075000000000001 0.0 61 114 148
-9.375 9.725000000000001 0.0 56 110 145
-6.275 8.875 0.0 74 125 107
-9.275 9.325000000000001 0.0 12 12 12
-8.975 9.525 0.0 9 10 9
-6.325 9.425 0.0 66 104 25
-8.975 9.125 0.0 12 13 12
-8.775 9.175 0.0 8 8 8
-5.9750000000000005 11.225000000000001 0.0 236 237 236
-7.925000000000001 8.975 0.0 5 6 5
-8.175 9.175 0.0 6 7 6
-8.025 9.325000000000001 0.0 4 4 4
-7.9750000000000005 9.425 0.0 5 5 5
-8.025 8.975 0.0 5 6 5
-6.175000000000001 9.025 0.0 47 76 41
-6.575 15.375 0.0 234 233 234
-6.625 15.675 0.0 234 234 234
-6.175000000000001 13.025 0.0 236 236 236
-5.575 10.875 0.0 233 234 234
-6.875 9.775 0.0 65 118 151
-5.625 10.825000000000001 0.0 239 239 239
-6.625 15.525 0.0 235 235 235
-7.325 9.825000000000001 0.0 64 119 153
-8.625 9.675 0.0 60 114 150
-8.525 9.725000000000001 0.0 61 115 150
-7.625 9.925 0.0 62 116 150
-5.825 9.925 0.0 243 243 243
-4.7250000000000005 10.075000000000001 0.0 109 106 106
-8.875 9.525 0.0 58 113 148
-8.775 9.625 0.0 59 113 148
-8.625 9.625 0.0 58 112 148
-7.775 9.875 0.0 62 117 152
-7.375 9.825000000000001 0.0 65 118 152
-6.925000000000001 9.725000000000001 0.0 65 118 152
-9.275 9.375 0.0 224 222 214
-6.275 13.825000000000001 0.0 238 238 238
-9.775 9.275 0.0 20 18 15
-7.675000000000001 9.875 0.0 69 122 155
-6.925000000000001 9.675 0.0 64 116 150
-6.525 15.475000000000001 0.0 235 235 235
-8.975 9.375 0.0 57 110 146
-6.625 9.425 0.0 83 138 115
-6.2250000000000005 13.375 0.0 234 234 234
-6.275 13.925 0.0 235 236 235
-9.975000000000001 9.375 0.0 57 110 145
-6.825 9.425 0.0 64 117 152
-9.525 9.575000000000001 0.0 58 112 147
-6.425000000000001 9.075000000000001 0.0 85 143 3
-9.925 9.525 0.0 58 112 147
-9.675 9.625 0.0 59 112 147
-9.775 9.625 0.0 58 112 147
-9.675 9.675 0.0 57 112 147
-9.325000000000001 9.825000000000001 0.0 57 112 147
-9.075000000000001 9.675 0.0 59 114 149
-8.825000000000001 9.775 0.0 61 116 151
-6.525 9.525 0.0 60 107 125
-9.525 9.675 0.0 60 110 145
-9.375 9.675 0.0 58 112 147
-9.175 9.825000000000001 0.0 59 113 149
-6.375 9.425 0.0 62 109 73
-9.025 9.475 0.0 33 60 78
-7.425000000000001 9.675 0.0 62 114 149
-9.325000000000001 9.175 0.0 13 14 13
-9.175 9.225 0.0 11 11 11
-8.425 9.225 0.0 9 10 9
-8.275 9.475 0.0 3 3 3
-9.275 9.125 0.0 16 17 16
-8.875 9.125 0.0 12 13 12
-6.625 9.625 0.0 62 114 148
-9.575000000000001 9.025 0.0 5 5 5
-8.125 9.125 0.0 5 5 5
-7.925000000000001 9.125 0.0 4 4 4
-7.9750000000000005 9.475 0.0 63 117 152
-6.325 8.975 0.0 16 16 16
-8.925 8.975 0.0 7 7 7
-7.775 8.775 0.0 4 4 4
-4.825 10.125 0.0 37 35 35
-8.575000000000001 9.725000000000001 0.0 60 113 147
-7.675000000000001 9.975000000000001 0.0 65 117 152
-6.625 16.225 0.0 236 236 236
-7.625 9.975000000000001 0.0 60 114 149
-6.325 14.375 0.0 235 235 235
-6.525 15.125 0.0 236 235 236
-6.7250000000000005 16.025000000000002 0.0 236 236 236
-6.575 14.975000000000001 0.0 236 236 236
-8.225 9.775 0.0 60 112 147
-6.525 14.375 0.0 236 236 236
-6.575 14.925 0.0 237 237 237
-8.475 9.675 0.0 57 114 150
-8.325000000000001 9.675 0.0 51 103 137
-8.225 9.725000000000001 0.0 60 113 148
-6.825 9.775 0.0 62 113 147
-6.7250000000000005 15.425 0.0 236 236 236
-1.8250000000000002 10.175 0.0 244 244 244
-8.425 9.625 0.0 59 113 148
-8.325000000000001 9.625 0.0 36 74 102
-7.925000000000001 9.825000000000001 0.0 60 115 150
-8.225 9.675 0.0 58 113 148
-7.775 9.825000000000001 0.0 59 115 150
-6.275 8.825000000000001 0.0 66 123 128
-6.575 15.225000000000001 0.0 237 237 237
-9.525 9.825000000000001 0.0 58 112 147
-8.375 9.525 0.0 60 113 147
-8.175 9.625 0.0 58 116 152
-9.575000000000001 9.725000000000001 0.0 56 112 148
-9.475 9.775 0.0 56 110 145
-6.425000000000001 9.025 0.0 86 143 9
-5.9750000000000005 9.175 0.0 67 127 25
-6.2250000000000005 13.225000000000001 0.0 238 238 238
-9.575000000000001 9.675 0.0 56 110 144
-9.375 9.825000000000001 0.0 61 112 146
-9.275 9.875 0.0 58 111 146
-6.325 13.075000000000001 0.0 236 237 237
-6.175000000000001 13.325000000000001 0.0 238 239 238
-9.475 9.625 0.0 58 111 147
-8.075000000000001 9.675 0.0 59 112 146
-6.125 13.225000000000001 0.0 236 236 236
-5.875 8.875 0.0 78 122 86
-6.025 11.975000000000001 0.0 236 236 236
-8.525 9.225 0.0 11 11 11
-8.475 9.275 0.0 8 8 8
-8.175 9.425 0.0 4 5 5
-7.925000000000001 9.375 0.0 58 111 146
-6.4750000000000005 9.575000000000001 0.0 48 95 116
-2.4250000000000003 10.875 0.0 202 202 202
-6.025 9.025 0.0 61 113 148
-8.575000000000001 9.025 0.0 0 1 1
-7.925000000000001 9.225 0.0 4 4 4
-6.275 12.025 0.0 234 234 234
-6.025 12.325000000000001 0.0 233 234 233
-6.025 9.825000000000001 0.0 244 244 244
-6.4750000000000005 14.325000000000001 0.0 230 230 230
-6.525 15.425 0.0 231 231 231
-6.275 13.025 0.0 232 232 232
-6.325 14.325000000000001 0.0 233 233 233
-5.325 11.125 0.0 228 228 228
-7.375 10.075000000000001 0.0 63 116 150
-7.375 10.025 0.0 66 118 152
-5.775 10.225000000000001 0.0 231 232 232
-6.675000000000001 16.075 0.0 232 232 232
-3.075 10.175 0.0 67 64 63
-6.375 9.325000000000001 0.0 72 129 138
-6.425000000000001 9.975000000000001 0.0 244 244 244
-1.5750000000000002 9.525 0.0 54 92 15
-2.075 9.775 0.0 107 168 12
-1.675 9.525 0.0 61 112 4
-6.675000000000001 9.975000000000001 0.0 244 244 244
-6.425000000000001 14.975000000000001 0.0 231 231 231
-4.7250000000000005 10.175 0.0 236 236 236
-6.175000000000001 13.675 0.0 237 237 236
-6.325 14.475000000000001 0.0 235 236 235
-6.7250000000000005 17.625 0.0 236 236 236
-4.675 10.075000000000001 0.0 232 233 233
-6.125 13.075000000000001 0.0 238 239 238
-6.325 14.175 0.0 237 238 237
-6.775 17.025000000000002 0.0 236 236 236
-5.7250000000000005 9.925 0.0 243 243 243
-6.375 13.975000000000001 0.0 237 238 237
-6.575 15.275 0.0 236 236 236
-2.125 9.975000000000001 0.0 233 236 222
-6.2250000000000005 8.825000000000001 0.0 74 137 54
-3.0250000000000004 10.175 0.0 212 212 212
-8.475 9.225 0.0 12 12 12
-6.075 12.925 0.0 240 240 240
-6.325 13.575000000000001 0.0 241 241 241
-6.175000000000001 13.525 0.0 241 241 241
-5.625 10.375 0.0 239 239 239
-5.625 10.275 0.0 240 240 240
-6.125 12.225000000000001 0.0 241 241 241
-4.7250000000000005 10.025 0.0 28 27 28
-6.125 13.025 0.0 241 241 241
-6.775 16.425 0.0 240 240 240
-6.675000000000001 16.475 0.0 240 241 240
-6.925000000000001 18.325 0.0 239 239 239
-6.325 14.075000000000001 0.0 241 241 241
-6.325 14.025 0.0 240 240 240
-6.525 14.925 0.0 240 240 240
-8.275 9.725000000000001 0.0 48 96 130
-6.425000000000001 14.525 0.0 239 239 239
-6.2250000000000005 13.975000000000001 0.0 240 240 240
-4.875 10.175 0.0 42 39 40
-6.075 12.675 0.0 241 241 241
-5.925000000000001 9.225 0.0 72 129 68
-9.025 9.425 0.0 8 8 8
-8.325000000000001 9.275 0.0 6 7 6
-6.825 9.575000000000001 0.0 55 108 143
-6.075 12.375 0.0 242 242 242
-6.175000000000001 12.125 0.0 241 242 241
-6.075 12.025 0.0 243 243 243
-6.525 9.975000000000001 0.0 238 238 238
-6.075 12.125 0.0 243 243 243
-8.075000000000001 9.425 0.0 11 13 13
-9.425 9.475 0.0 13 34 52
-5.925000000000001 3.075 0.0 69 39 39
-5.9750000000000005 3.125 0.0 84 48 49
-5.925000000000001 3.1750000000000003 0.0 82 47 48
-5.175000000000001 3.575 0.0 97 84 49
-5.175000000000001 3.5250000000000004 0.0 105 94 61
-5.875 3.075 0.0 13 5 5
-6.125 1.5250000000000001 0.0 217 217 217
-6.125 2.6750000000000003 0.0 192 192 191
-6.125 1.175 0.0 89 172 181
-6.175000000000001 1.3250000000000002 0.0 88 51 52
-5.825 3.075 0.0 70 39 39
-6.525 -0.925 0.0 87 52 51
-6.425000000000001 0.525 0.0 129 170 174
-6.125 1.375 0.0 80 45 46
-5.675000000000001 3.1750000000000003 0.0 90 52 53
-5.4750000000000005 3.225 0.0 86 60 63
-5.575 3.225 0.0 93 56 57
-5.825 3.1750000000000003 0.0 86 51 52
-6.175000000000001 2.975 0.0 69 39 41
-6.175000000000001 1.425 0.0 211 201 200
-5.275 3.375 0.0 123 106 78
-5.4750000000000005 3.325 0.0 91 59 61
-6.4750000000000005 2.6750000000000003 0.0 12 5 5
-6.2250000000000005 1.2750000000000001 0.0 108 64 66
-5.275 3.325 0.0 70 45 42
-5.425000000000001 2.9250000000000003 0.0 239 239 239
-5.375 3.125 0.0 225 226 225
-5.275 2.725 0.0 224 225 224
-5.575 3.2750000000000004 0.0 97 58 59
-5.375 3.225 0.0 179 166 166
-4.425 1.425 0.0 162 157 154
-4.4750000000000005 1.425 0.0 162 157 154
-4.825 1.3250000000000002 0.0 161 157 154
-4.325 1.425 0.0 162 158 154
-4.2250000000000005 1.425 0.0 164 159 156
-4.875 1.125 0.0 143 138 134
-6.775 0.7250000000000001 0.0 229 229 229
-13.875 2.025 0.0 225 238 241
-4.175 1.375 0.0 154 149 145
-6.2250000000000005 -1.3250000000000002 0.0 141 124 124
-6.575 -1.0250000000000001 0.0 79 45 45
-6.275 0.775 0.0 88 172 180
-6.125 1.5750000000000002 0.0 230 231 230
-6.525 1.625 0.0 78 76 79
-6.675000000000001 1.675 0.0 61 49 52
-6.375 -0.925 0.0 180 175 174
-6.125 1.3250000000000002 0.0 74 43 44
-4.125 1.425 0.0 165 160 157
-6.125 1.2750000000000001 0.0 83 47 48
-6.675000000000001 1.125 0.0 229 229 229
-5.675000000000001 3.0250000000000004 0.0 189 176 173
-5.825 2.975 0.0 79 44 46
-4.175 1.475 0.0 163 158 155
-4.125 1.475 0.0 163 158 155
-6.125 0.9750000000000001 0.0 103 63 63
-3.725 1.125 0.0 153 148 145
-4.025 1.425 0.0 167 163 160
-6.175000000000001 0.775 0.0 100 59 59
-6.175000000000001 1.225 0.0 62 37 38
-6.125 0.775 0.0 97 56 56
-5.525 2.825 0.0 193 194 193
-3.6750000000000003 3.5250000000000004 0.0 105 68 69
-5.275 2.625 0.0 229 229 229
-5.375 2.725 0.0 235 235 235
-5.375 3.0250000000000004 0.0 224 224 224
-3.625 3.5250000000000004 0.0 109 69 71
-3.725 3.575 0.0 104 64 64
-3.7750000000000004 3.5250000000000004 0.0 124 97 97
-5.325 2.875 0.0 226 226 226
-6.2250000000000005 2.875 0.0 47 25 26
-5.375 2.5250000000000004 0.0 224 221 220
-5.325 2.975 0.0 212 212 211
-5.325 2.825 0.0 226 226 226
-5.325 3.075 0.0 226 226 226
-5.375 3.325 0.0 127 90 84
-5.325 3.1750000000000003 0.0 224 225 224
-3.5250000000000004 3.5250000000000004 0.0 114 78 79
-3.4250000000000003 3.5250000000000004 0.0 126 89 90
-3.825 1.5250000000000001 0.0 162 158 154
-3.875 1.5250000000000001 0.0 163 159 156
-4.675 1.225 0.0 159 154 151
-4.825 1.225 0.0 160 155 152
-3.7750000000000004 1.5750000000000002 0.0 164 159 156
-3.9250000000000003 1.5750000000000002 0.0 162 158 155
-4.025 1.475 0.0 164 159 156
-4.375 1.3250000000000002 0.0 160 155 151
-4.825 1.2750000000000001 0.0 156 154 152
-4.775 1.375 0.0 161 157 153
-4.7250000000000005 1.375 0.0 163 158 155
-6.575 -1.375 0.0 114 77 77
-6.775 -1.475 0.0 88 50 51
-6.675000000000001 0.875 0.0 235 235 235
-6.775 0.925 0.0 234 235 234
-6.625 -0.5750000000000001 0.0 91 52 52
-6.325 0.7250000000000001 0.0 81 107 110
-6.675000000000001 0.9750000000000001 0.0 234 234 234
-6.4750000000000005 1.5250000000000001 0.0 158 157 159
-6.325 2.825 0.0 100 84 85
-6.175000000000001 -1.625 0.0 131 129 130
-6.175000000000001 -1.375 0.0 180 181 181
-5.675000000000001 3.075 0.0 84 50 49
-3.5250000000000004 -1.075 0.0 156 152 148
-6.275 -0.8250000000000001 0.0 189 190 189
-5.2250000000000005 3.4250000000000003 0.0 95 56 56
-6.075 -0.275 0.0 236 236 236
-6.125 0.875 0.0 92 53 54
-6.075 2.075 0.0 190 187 182
-5.675000000000001 2.475 0.0 192 192 192
-5.7250000000000005 3.2750000000000004 0.0 91 53 54
-6.025 1.075 0.0 91 52 53
-5.425000000000001 2.6750000000000003 0.0 216 216 216
-5.375 2.825 0.0 225 225 225
-5.375 2.9250000000000003 0.0 227 227 227
-5.2250000000000005 2.7750000000000004 0.0 231 232 231
-5.325 3.0250000000000004 0.0 225 225 225
-3.625 3.575 0.0 102 62 61
-3.5250000000000004 3.575 0.0 112 73 74
-3.825 3.4250000000000003 0.0 98 57 57
-4.275 1.475 0.0 162 157 154
-4.575 1.375 0.0 163 158 155
-4.7250000000000005 1.3250000000000002 0.0 162 157 154
-4.7250000000000005 1.2750000000000001 0.0 162 157 154
-4.7250000000000005 1.475 0.0 162 157 154
-4.2250000000000005 1.475 0.0 163 158 155
-4.675 1.3250000000000002 0.0 163 158 155
-3.725 1.5750000000000002 0.0 163 159 155
-4.675 1.375 0.0 162 158 154
-4.875 1.225 0.0 75 125 156
-6.875 1.125 0.0 199 200 199
-7.075 1.3250000000000002 0.0 195 194 191
-4.775 1.475 0.0 162 157 154
-6.7250000000000005 -1.075 0.0 234 234 234
-6.4750000000000005 1.425 0.0 149 149 149
-6.675000000000001 1.375 0.0 94 93 95
-6.425000000000001 2.5250000000000004 0.0 194 195 194
-6.4750000000000005 -0.17500000000000002 0.0 72 40 41
-6.025 3.0250000000000004 0.0 88 51 53
-6.375 -1.3250000000000002 0.0 156 140 141
-4.625 1.3250000000000002 0.0 163 158 155
-6.375 1.375 0.0 224 224 224
-6.625 1.475 0.0 47 45 49
-3.575 -0.925 0.0 103 120 77
-6.325 -1.075 0.0 196 197 196
-6.325 0.5750000000000001 0.0 188 188 188
-6.175000000000001 1.125 0.0 75 40 42
-5.425000000000001 3.2750000000000004 0.0 102 62 64
-5.875 3.1750000000000003 0.0 86 51 52
-6.325 0.225 0.0 221 221 221
-6.2250000000000005 0.7250000000000001 0.0 75 41 42
-6.125 2.975 0.0 80 45 46
-4.875 1.2750000000000001 0.0 190 187 185
-6.125 1.075 0.0 74 41 41
-6.325 -0.5750000000000001 0.0 238 237 238
-5.275 3.475 0.0 104 66 63
-3.2750000000000004 3.475 0.0 153 127 127
-3.1750000000000003 3.5250000000000004 0.0 143 116 117
-3.125 3.5250000000000004 0.0 146 119 120
-3.0250000000000004 3.475 0.0 135 107 108
-3.5250000000000004 -1.475 0.0 166 162 159
-3.725 -1.5750000000000002 0.0 167 163 160
-3.7750000000000004 -1.475 0.0 165 160 157
-4.375 1.475 0.0 162 157 154
-3.725 1.475 0.0 131 126 123
-3.575 -1.425 0.0 166 162 159
-3.6750000000000003 -1.475 0.0 166 161 158
-3.725 -1.425 0.0 164 160 156
-13.275 -1.5750000000000002 0.0 180 179 178
-3.4250000000000003 -1.425 0.0 165 160 157
-3.875 -1.5250000000000001 0.0 87 58 57
-3.725 1.425 0.0 123 119 115
-4.675 1.2750000000000001 0.0 161 157 153
-6.625 1.2750000000000001 0.0 238 238 238
-6.875 1.3250000000000002 0.0 206 203 201
-6.575 1.075 0.0 238 238 238
-6.625 1.675 0.0 75 74 76
-6.375 -1.425 0.0 71 39 41
-6.525 1.125 0.0 238 238 238
-6.575 1.425 0.0 108 109 109
-6.525 1.725 0.0 97 100 100
-6.325 -1.0250000000000001 0.0 73 41 40
-6.525 -0.275 0.0 74 41 41
-6.525 1.2750000000000001 0.0 222 223 222
-5.925000000000001 3.0250000000000004 0.0 96 55 55
-3.475 -0.925 0.0 162 158 154
-4.7250000000000005 1.225 0.0 164 159 156
-6.375 -0.42500000000000004 0.0 197 198 197
-6.375 0.375 0.0 196 196 196
-6.275 2.875 0.0 76 43 44
-6.2250000000000005 0.025 0.0 226 225 223
-6.275 1.3250000000000002 0.0 212 212 211
-6.025 -0.675 0.0 239 238 237
-6.2250000000000005 -0.5750000000000001 0.0 238 238 238
-6.375 -0.47500000000000003 0.0 237 238 237
-6.525 -0.525 0.0 237 238 237
-6.125 -0.675 0.0 238 238 238
-6.175000000000001 1.0250000000000001 0.0 73 41 41
-4.525 1.3250000000000002 0.0 163 158 155
-5.375 2.975 0.0 213 213 213
-3.725 1.225 0.0 127 122 119
-4.7250000000000005 1.125 0.0 163 158 154
-5.4750000000000005 3.375 0.0 110 67 66
-5.425000000000001 3.375 0.0 116 71 70
-2.9250000000000003 3.4250000000000003 0.0 132 96 97
-2.975 3.4250000000000003 0.0 133 97 98
-3.4250000000000003 3.575 0.0 121 84 83
-2.975 3.475 0.0 135 101 102
-3.725 1.3250000000000002 0.0 135 131 127
-4.825 1.125 0.0 159 155 152
-13.025 -1.675 0.0 245 244 243
-3.575 -1.475 0.0 164 159 156
-4.025 1.5750000000000002 0.0 164 159 156
-13.075000000000001 -1.8250000000000002 0.0 238 238 238
-3.575 -1.3250000000000002 0.0 165 161 158
-13.225000000000001 -1.925 0.0 239 239 240
-13.325000000000001 -1.875 0.0 246 246 246
-3.7750000000000004 -1.125 0.0 130 126 122
-3.575 -1.2750000000000001 0.0 164 160 156
-3.5250000000000004 -1.225 0.0 167 163 159
-3.625 -1.125 0.0 164 159 156
-3.375 -1.725 0.0 161 156 153
-6.825 1.0250000000000001 0.0 237 237 236
-12.975000000000001 -1.875 0.0 238 238 238
-6.2250000000000005 -1.725 0.0 99 176 184
-6.525 0.325 0.0 89 172 178
-6.825 1.375 0.0 79 54 54
-12.925 -1.8250000000000002 0.0 238 238 238
-3.575 -0.7250000000000001 0.0 46 85 3
-3.7750000000000004 -0.9750000000000001 0.0 123 129 95
-6.2250000000000005 -1.175 0.0 72 39 40
-6.375 -1.075 0.0 138 122 122
-6.775 1.5750000000000002 0.0 62 62 64
-6.325 2.475 0.0 200 199 199
-3.4250000000000003 -1.3250000000000002 0.0 164 160 157
-6.025 -1.925 0.0 150 151 151
-6.2250000000000005 -1.2750000000000001 0.0 75 42 43
-6.4750000000000005 -1.075 0.0 77 44 45
-6.175000000000001 1.475 0.0 237 237 237
-6.625 0.875 0.0 237 237 237
-6.575 1.3250000000000002 0.0 132 132 133
-6.025 -1.675 0.0 218 218 218
-6.075 -1.5250000000000001 0.0 177 178 177
-6.325 -0.47500000000000003 0.0 200 201 200
-6.375 -0.125 0.0 201 201 201
-6.4750000000000005 0.225 0.0 197 196 196
-6.425000000000001 0.5750000000000001 0.0 168 165 164
-5.7250000000000005 2.7750000000000004 0.0 201 202 201
-5.775 2.7750000000000004 0.0 201 201 201
-5.9750000000000005 2.975 0.0 95 56 54
-4.625 1.2750000000000001 0.0 160 155 152
-5.9750000000000005 -1.5250000000000001 0.0 237 237 237
-3.575 -0.9750000000000001 0.0 160 155 152
-6.025 -0.525 0.0 237 237 237
-6.175000000000001 -0.125 0.0 237 237 237
-5.375 3.375 0.0 103 61 64
-6.075 3.0250000000000004 0.0 80 46 47
-3.625 -0.775 0.0 242 242 242
-4.275 1.3250000000000002 0.0 163 159 155
-6.2250000000000005 1.625 0.0 237 237 237
-3.575 -1.225 0.0 220 220 219
-6.075 3.075 0.0 79 46 46
-5.2250000000000005 2.725 0.0 225 224 224
-13.525 -1.8250000000000002 0.0 246 247 246
-13.175 -1.725 0.0 246 246 246
-13.075000000000001 -1.925 0.0 238 238 238
-3.825 1.425 0.0 165 160 157
-13.125 -1.725 0.0 240 240 240
-6.675000000000001 1.5750000000000002 0.0 144 144 146
-3.625 -0.625 0.0 129 136 115
-6.125 -1.8250000000000002 0.0 127 170 174
-6.275 -1.375 0.0 76 42 42
-6.525 -0.9750000000000001 0.0 70 39 40
-6.575 -0.775 0.0 70 39 39
-6.625 -0.47500000000000003 0.0 71 39 40
-6.375 1.125 0.0 237 238 237
-6.525 1.3250000000000002 0.0 237 238 237
-6.275 2.5250000000000004 0.0 199 199 199
-6.2250000000000005 -1.0250000000000001 0.0 242 242 242
-6.275 -0.125 0.0 189 174 146
-6.075 2.9250000000000003 0.0 90 51 52
-3.575 -1.075 0.0 163 159 156
-6.2250000000000005 0.42500000000000004 0.0 205 203 201
-6.2250000000000005 0.5750000000000001 0.0 70 70 70
-6.4750000000000005 -0.625 0.0 237 236 237
-6.175000000000001 1.075 0.0 124 89 87
-3.9250000000000003 1.425 0.0 166 162 159
-4.575 1.175 0.0 161 156 153
-4.675 1.475 0.0 161 157 153
-13.175 -1.625 0.0 158 157 156
-6.4750000000000005 -2.625 0.0 89 172 180
-6.4750000000000005 0.42500000000000004 0.0 191 199 197
-13.075000000000001 -1.975 0.0 238 238 238
-6.075 -1.675 0.0 201 201 201
-6.125 -1.425 0.0 185 187 186
-6.525 1.875 0.0 66 67 69
-5.925000000000001 -1.975 0.0 237 237 237
-6.525 2.625 0.0 138 126 126
-13.275 -2.325 0.0 237 237 237
-13.075000000000001 -1.625 0.0 246 246 246
-13.625 -1.8250000000000002 0.0 246 246 246
-14.375 -1.925 0.0 245 245 245
-14.175 -1.925 0.0 246 246 246
-13.725000000000001 -1.875 0.0 246 246 246
-13.925 -1.875 0.0 245 246 245
-14.325000000000001 -1.8250000000000002 0.0 246 246 246
-13.375 -1.675 0.0 245 245 245
-13.025 -2.075 0.0 237 237 236
-14.125 -1.8250000000000002 0.0 246 246 246
-14.475000000000001 -1.7750000000000001 0.0 237 236 236
-13.025 -1.8250000000000002 0.0 239 239 239
-14.775 -1.7750000000000001 0.0 245 246 245
-6.075 -1.925 0.0 89 172 180
-6.325 -1.3250000000000002 0.0 73 40 41
-5.925000000000001 -2.075 0.0 237 237 237
-5.9750000000000005 -1.975 0.0 237 237 237
-6.075 -1.625 0.0 165 167 167
-6.575 -0.225 0.0 74 41 41
-6.575 1.8250000000000002 0.0 64 63 65
-6.125 -0.375 0.0 224 222 219
-6.2250000000000005 -0.42500000000000004 0.0 237 238 237
-4.875 1.3250000000000002 0.0 170 166 163
-5.425000000000001 3.225 0.0 107 66 68
-6.575 2.575 0.0 223 223 223
-12.975000000000001 -1.625 0.0 234 234 234
-12.775 -4.075 0.0 237 237 237
-13.375 -2.625 0.0 0 0 0
-13.425 -3.375 0.0 0 0 0
-13.175 -1.7750000000000001 0.0 235 234 235
-13.425 -3.1750000000000003 0.0 0 0 0
-13.675 -3.0250000000000004 0.0 0 0 0
-13.125 -3.625 0.0 0 0 0
-13.225000000000001 -3.325 0.0 0 0 0
-13.375 -3.2750000000000004 0.0 0 0 0
-13.375 -3.125 0.0 0 0 0
-13.625 -2.975 0.0 0 0 0
-13.575000000000001 -3.125 0.0 0 0 0
-13.325000000000001 -3.0250000000000004 0.0 0 0 0
-13.075000000000001 -3.5250000000000004 0.0 0 0 0
-13.275 -2.975 0.0 0 0 0
-5.825 -2.075 0.0 237 237 237
-6.375 -1.2750000000000001 0.0 72 40 40
-6.325 1.225 0.0 237 237 237
-6.325 1.2750000000000001 0.0 238 237 238
-6.575 1.875 0.0 86 84 87
-6.4750000000000005 -0.7250000000000001 0.0 202 202 202
-6.175000000000001 3.0250000000000004 0.0 71 41 43
-13.275 -3.375 0.0 0 0 0
-13.275 -3.325 0.0 0 0 0
-12.925 -1.975 0.0 236 235 236
-13.475000000000001 -3.1750000000000003 0.0 0 0 0
-13.325000000000001 -3.1750000000000003 0.0 0 0 0
-13.325000000000001 -3.125 0.0 0 0 0
-5.825 -2.375 0.0 238 238 238
-6.4750000000000005 -1.175 0.0 68 37 38
-12.875 -1.875 0.0 233 234 233
-5.825 -2.325 0.0 239 239 239
-5.875 -2.075 0.0 230 230 230
-6.325 -1.2750000000000001 0.0 238 238 238
-5.875 -1.925 0.0 218 215 211
-6.175000000000001 -0.275 0.0 204 202 199
-6.575 2.225 0.0 189 188 187
-6.525 2.225 0.0 210 210 211
