ply
format ascii 1.0
element vertex 804
property float x
property float y
property float z
property uchar red
property uchar green
property uchar blue
end_header
0.125 0.07500000000000001 0.0 8 8 8
0.125 0.025 0.0 9 9 9
0.125 -0.025 0.0 4 4 4
5.175000000000001 -0.17500000000000002 0.0 245 245 245
5.125 -0.17500000000000002 0.0 245 245 245
4.9750000000000005 0.7250000000000001 0.0 181 181 181
4.9750000000000005 -0.07500000000000001 0.0 246 246 246
5.025 -0.17500000000000002 0.0 246 246 246
4.9750000000000005 -0.275 0.0 236 236 237
4.9750000000000005 0.625 0.0 245 246 245
4.9750000000000005 0.325 0.0 246 246 246
4.9750000000000005 0.17500000000000002 0.0 246 246 246
4.9750000000000005 0.125 0.0 246 246 246
4.9750000000000005 0.375 0.0 245 245 245
4.9750000000000005 0.025 0.0 246 246 246
5.925000000000001 -2.7750000000000004 0.0 170 170 170
4.9750000000000005 -2.725 0.0 197 198 197
4.9750000000000005 -2.7750000000000004 0.0 198 198 198
4.925000000000001 0.7250000000000001 0.0 151 150 150
4.925000000000001 0.625 0.0 246 246 246
4.925000000000001 0.375 0.0 246 246 246
4.925000000000001 0.325 0.0 245 245 245
4.925000000000001 0.17500000000000002 0.0 245 245 245
4.925000000000001 0.125 0.0 246 246 246
4.925000000000001 0.025 0.0 246 246 246
4.925000000000001 -0.125 0.0 245 245 245
4.925000000000001 -0.17500000000000002 0.0 246 246 246
4.925000000000001 -0.275 0.0 244 244 244
4.925000000000001 -2.725 0.0 198 197 197
4.925000000000001 -2.7750000000000004 0.0 199 199 199
4.925000000000001 0.525 0.0 245 245 245
4.925000000000001 -0.025 0.0 246 246 246
5.175000000000001 -0.125 0.0 245 245 245
5.175000000000001 -0.275 0.0 247 247 247
5.175000000000001 0.07500000000000001 0.0 245 245 245
5.175000000000001 -0.025 0.0 245 245 245
5.125 -0.275 0.0 246 246 246
5.125 -0.07500000000000001 0.0 245 245 245
5.125 0.775 0.0 218 218 218
5.075 0.025 0.0 246 246 246
4.9750000000000005 0.675 0.0 245 245 245
4.875 0.375 0.0 245 245 245
4.925000000000001 0.675 0.0 242 243 242
4.875 0.07500000000000001 0.0 246 246 246
4.875 0.025 0.0 246 246 246
5.075 0.42500000000000004 0.0 246 246 246
5.075 -0.025 0.0 246 246 246
5.075 0.625 0.0 247 247 247
5.075 0.525 0.0 246 246 246
5.075 0.7250000000000001 0.0 224 224 224
5.025 -0.025 0.0 246 246 246
5.025 0.775 0.0 206 206 206
5.025 0.525 0.0 246 246 246
4.925000000000001 0.775 0.0 157 158 157
4.9750000000000005 -2.875 0.0 223 223 223
5.9750000000000005 -2.975 0.0 196 196 196
5.9750000000000005 -3.075 0.0 196 196 196
5.9750000000000005 -2.7750000000000004 0.0 33 32 31
5.9750000000000005 -2.9250000000000003 0.0 132 133 132
5.9750000000000005 -3.225 0.0 195 195 195
5.925000000000001 -2.9250000000000003 0.0 195 196 195
5.925000000000001 -2.975 0.0 196 197 196
5.925000000000001 -3.075 0.0 196 196 196
5.925000000000001 -3.225 0.0 198 198 198
4.925000000000001 -2.875 0.0 245 245 245
4.825 0.42500000000000004 0.0 246 246 246
5.075 -2.7750000000000004 0.0 197 197 197
5.075 -2.875 0.0 200 200 200
5.075 -2.725 0.0 197 197 197
6.075 -2.975 0.0 138 138 138
6.075 -3.0250000000000004 0.0 196 197 196
6.075 -3.1750000000000003 0.0 196 197 196
6.075 -3.125 0.0 196 196 196
6.075 -2.875 0.0 58 57 57
6.075 -2.7750000000000004 0.0 135 134 133
6.025 -3.0250000000000004 0.0 194 195 194
4.875 -0.025 0.0 246 246 246
4.875 0.525 0.0 245 245 245
4.825 0.47500000000000003 0.0 245 245 245
4.875 0.325 0.0 246 246 246
4.175 3.4250000000000003 0.0 246 245 246
4.125 3.475 0.0 247 247 247
4.875 0.17500000000000002 0.0 246 247 246
4.125 3.1750000000000003 0.0 246 246 246
4.125 3.125 0.0 191 192 192
4.875 -0.07500000000000001 0.0 246 247 246
4.825 0.325 0.0 247 247 247
3.875 6.875 0.0 230 230 230
3.875 6.825 0.0 228 228 228
3.9250000000000003 6.7250000000000005 0.0 229 229 229
3.475 5.325 0.0 99 151 13
5.9750000000000005 0.875 0.0 102 100 102
3.125 5.775 0.0 140 183 62
-0.275 -0.025 0.0 37 37 38
4.525 6.925000000000001 0.0 240 240 240
4.875 7.025 0.0 84 105 118
-2.125 10.325000000000001 0.0 246 246 246
0.07500000000000001 10.575000000000001 0.0 193 204 209
4.625 6.925000000000001 0.0 21 20 19
0.625 10.675 0.0 130 160 181
2.825 5.175000000000001 0.0 118 160 33
2.9250000000000003 5.075 0.0 140 192 52
3.225 4.9750000000000005 0.0 96 139 10
0.7250000000000001 10.425 0.0 101 113 120
3.875 5.825 0.0 79 129 15
2.975 4.9750000000000005 0.0 71 112 27
4.625 7.2250000000000005 0.0 244 244 244
4.675 7.175000000000001 0.0 244 245 244
2.9250000000000003 5.325 0.0 82 130 3
3.475 6.4750000000000005 0.0 197 209 174
-6.275 9.375 0.0 81 113 48
1.225 10.725000000000001 0.0 130 152 167
1.675 10.875 0.0 144 171 189
2.025 10.975000000000001 0.0 140 167 186
0.7250000000000001 10.625 0.0 172 190 202
0.875 10.675 0.0 184 200 209
0.9750000000000001 10.625 0.0 180 196 206
1.225 10.775 0.0 143 170 188
1.925 10.975000000000001 0.0 141 169 188
0.9750000000000001 10.675 0.0 167 186 198
1.075 10.725000000000001 0.0 141 169 187
1.175 10.675 0.0 143 170 188
1.5750000000000002 10.925 0.0 144 171 190
1.075 10.675 0.0 192 202 208
0.9750000000000001 10.725000000000001 0.0 197 207 214
1.075 10.625 0.0 244 243 241
-0.125 10.325000000000001 0.0 158 179 193
0.8250000000000001 10.625 0.0 164 184 197
0.925 10.625 0.0 160 178 190
1.2750000000000001 10.725000000000001 0.0 150 175 192
-0.375 10.325000000000001 0.0 155 176 190
0.925 10.525 0.0 141 169 187
-1.5750000000000002 9.825000000000001 0.0 240 242 237
0.07500000000000001 10.425 0.0 166 183 194
0.5750000000000001 10.475000000000001 0.0 142 170 188
1.2750000000000001 10.775 0.0 150 175 192
1.5250000000000001 10.825000000000001 0.0 139 167 187
-1.425 9.525 0.0 71 122 9
0.225 10.425 0.0 167 186 198
0.775 10.525 0.0 147 173 190
-0.275 10.225000000000001 0.0 142 142 142
-0.17500000000000002 10.375 0.0 158 178 192
1.125 10.475000000000001 0.0 149 163 172
0.675 5.325 0.0 137 121 74
-5.625 9.925 0.0 241 241 241
-5.925000000000001 9.975000000000001 0.0 246 246 246
-5.775 9.925 0.0 246 245 246
-5.825 9.975000000000001 0.0 245 246 245
-5.675000000000001 9.925 0.0 246 246 246
-5.575 9.975000000000001 0.0 116 115 115
-5.925000000000001 9.925 0.0 246 246 246
-5.7250000000000005 9.975000000000001 0.0 246 246 246
-6.075 9.925 0.0 246 246 246
-6.175000000000001 9.875 0.0 246 246 246
-5.525 9.875 0.0 121 121 120
-6.2250000000000005 9.775 0.0 245 245 245
-5.925000000000001 9.825000000000001 0.0 247 247 247
-5.775 9.825000000000001 0.0 246 246 246
-5.875 9.175 0.0 167 190 134
-5.925000000000001 9.225 0.0 246 246 246
-5.9750000000000005 9.625 0.0 246 246 246
1.475 10.875 0.0 140 168 187
1.625 10.975000000000001 0.0 142 169 188
1.725 10.975000000000001 0.0 142 169 187
1.925 10.875 0.0 141 168 187
-0.42500000000000004 10.425 0.0 135 163 182
-0.325 10.475000000000001 0.0 140 168 187
1.425 11.025 0.0 148 173 191
1.5250000000000001 11.075000000000001 0.0 139 166 185
-1.375 10.425 0.0 246 246 246
-0.875 10.525 0.0 149 174 191
-0.525 10.425 0.0 138 166 185
-0.07500000000000001 10.475000000000001 0.0 148 173 190
0.025 10.475000000000001 0.0 165 184 197
1.675 11.125 0.0 141 167 186
-0.875 10.375 0.0 133 163 183
-0.775 10.425 0.0 137 164 183
0.125 10.475000000000001 0.0 170 185 195
0.7250000000000001 10.725000000000001 0.0 179 196 206
0.8250000000000001 10.875 0.0 150 176 193
0.9750000000000001 10.875 0.0 145 174 192
1.425 11.075000000000001 0.0 144 171 189
-1.375 10.275 0.0 246 246 246
-0.675 10.325000000000001 0.0 134 161 179
-0.225 10.525 0.0 144 170 188
0.025 10.575000000000001 0.0 156 179 195
0.625 10.775 0.0 167 188 202
0.7250000000000001 10.825000000000001 0.0 199 212 220
1.125 10.725000000000001 0.0 141 168 187
-1.0250000000000001 10.475000000000001 0.0 146 171 189
-0.775 10.325000000000001 0.0 135 164 184
-0.07500000000000001 10.425 0.0 151 173 188
0.025 10.775 0.0 250 250 250
0.275 10.825000000000001 0.0 249 249 249
1.125 10.625 0.0 148 173 191
1.2750000000000001 10.925 0.0 144 172 190
0.375 10.675 0.0 156 179 195
0.47500000000000003 10.675 0.0 155 178 194
0.8250000000000001 10.775 0.0 207 215 221
0.925 10.725000000000001 0.0 195 208 216
-0.925 10.325000000000001 0.0 128 157 177
-0.5750000000000001 10.275 0.0 158 171 178
1.375 10.775 0.0 141 168 188
-1.2750000000000001 10.425 0.0 177 184 190
-0.675 10.425 0.0 137 165 185
-0.47500000000000003 10.275 0.0 156 180 195
-0.325 10.375 0.0 137 159 174
0.325 10.625 0.0 155 178 194
0.47500000000000003 10.625 0.0 188 202 211
1.0250000000000001 10.825000000000001 0.0 138 155 167
-0.5750000000000001 10.375 0.0 127 157 176
-0.025 10.425 0.0 181 190 196
0.125 10.675 0.0 150 174 191
0.225 10.575000000000001 0.0 146 169 185
0.5750000000000001 10.725000000000001 0.0 176 195 206
0.675 10.725000000000001 0.0 179 195 205
-1.5250000000000001 10.225000000000001 0.0 246 246 246
-1.075 10.525 0.0 143 169 188
0.225 10.675 0.0 174 193 205
0.775 10.675 0.0 141 168 186
-0.375 10.475000000000001 0.0 139 166 184
0.225 10.475000000000001 0.0 170 177 180
0.675 10.575000000000001 0.0 194 208 216
1.125 10.825000000000001 0.0 142 169 188
-0.7250000000000001 10.425 0.0 134 164 184
-0.125 10.575000000000001 0.0 149 173 191
-0.025 10.475000000000001 0.0 147 171 188
0.325 10.475000000000001 0.0 188 198 204
0.42500000000000004 10.475000000000001 0.0 164 178 185
0.525 10.475000000000001 0.0 139 167 185
0.675 10.525 0.0 141 169 187
1.225 10.625 0.0 153 178 194
1.3250000000000002 10.675 0.0 144 172 190
-6.075 8.775 0.0 71 122 3
-5.7250000000000005 9.075000000000001 0.0 247 247 247
-0.125 10.225000000000001 0.0 137 168 188
0.42500000000000004 10.375 0.0 118 140 156
0.525 10.375 0.0 130 161 182
1.3250000000000002 10.775 0.0 61 68 72
1.625 10.625 0.0 172 172 172
-1.475 9.825000000000001 0.0 172 192 140
-0.025 10.325000000000001 0.0 206 211 213
0.17500000000000002 10.175 0.0 149 149 149
1.175 10.475000000000001 0.0 164 164 164
-1.8250000000000002 9.775 0.0 170 195 135
-1.075 10.125 0.0 63 83 95
-6.325 9.825000000000001 0.0 246 246 246
-0.925 10.575000000000001 0.0 153 177 193
-0.525 10.525 0.0 142 169 187
-0.17500000000000002 10.575000000000001 0.0 147 172 190
0.42500000000000004 10.775 0.0 199 210 217
0.675 10.775 0.0 152 176 192
1.075 10.875 0.0 149 174 191
2.225 10.725000000000001 0.0 216 225 230
-0.675 10.525 0.0 147 171 189
-0.42500000000000004 10.575000000000001 0.0 145 171 189
-6.025 9.875 0.0 246 246 246
-0.5750000000000001 10.475000000000001 0.0 139 167 185
-0.325 10.325000000000001 0.0 164 175 182
-6.375 9.775 0.0 247 247 247
0.42500000000000004 10.625 0.0 194 206 213
-6.275 9.725000000000001 0.0 245 245 245
-6.125 9.725000000000001 0.0 246 246 246
-5.875 9.775 0.0 246 246 246
-5.875 9.875 0.0 247 247 247
-5.525 10.025 0.0 187 188 187
1.2750000000000001 10.675 0.0 140 168 187
1.425 10.725000000000001 0.0 140 167 187
1.5750000000000002 10.775 0.0 145 172 190
-6.125 9.275 0.0 241 242 238
-5.875 9.275 0.0 243 243 242
-5.7250000000000005 10.075000000000001 0.0 237 238 238
1.5750000000000002 10.725000000000001 0.0 130 161 182
1.675 10.775 0.0 134 163 183
1.8250000000000002 10.775 0.0 139 168 187
-6.025 9.325000000000001 0.0 247 247 247
-5.825 9.225 0.0 220 228 202
-5.875 10.025 0.0 246 246 246
-5.625 10.125 0.0 162 163 163
-1.175 10.325000000000001 0.0 129 160 181
-1.075 10.425 0.0 139 166 185
-0.5750000000000001 10.175 0.0 127 159 180
-0.42500000000000004 10.225000000000001 0.0 162 173 181
1.425 10.675 0.0 150 175 192
1.5250000000000001 10.675 0.0 135 164 184
1.675 10.725000000000001 0.0 138 166 186
-6.125 9.825000000000001 0.0 246 246 246
-1.175 10.425 0.0 136 165 185
-1.0250000000000001 10.225000000000001 0.0 89 107 118
-0.925 10.125 0.0 114 126 134
1.0250000000000001 10.425 0.0 123 151 170
-0.325 10.175 0.0 195 195 195
0.875 10.275 0.0 43 43 43
1.475 10.375 0.0 187 188 187
1.725 10.375 0.0 210 210 210
-5.9750000000000005 9.775 0.0 246 246 246
-0.025 10.625 0.0 159 181 195
0.625 10.625 0.0 177 193 203
0.7250000000000001 10.675 0.0 143 169 187
1.475 10.975000000000001 0.0 145 171 189
1.625 11.125 0.0 142 170 188
-1.175 10.475000000000001 0.0 143 170 188
-1.0250000000000001 10.325000000000001 0.0 130 161 182
0.275 10.675 0.0 163 184 198
-1.675 10.725000000000001 0.0 246 246 246
-1.425 10.525 0.0 246 246 246
-1.0250000000000001 10.375 0.0 132 161 180
-0.7250000000000001 10.475000000000001 0.0 143 169 187
1.175 10.925 0.0 142 165 180
1.125 10.675 0.0 149 163 172
-1.5750000000000002 10.625 0.0 246 246 246
-1.175 10.575000000000001 0.0 163 184 198
-1.075 10.325000000000001 0.0 129 160 181
1.375 10.875 0.0 144 171 189
-1.5750000000000002 10.725000000000001 0.0 247 246 246
-0.17500000000000002 10.275 0.0 152 176 193
-1.725 10.775 0.0 247 247 247
-1.675 10.625 0.0 247 247 247
-1.475 10.575000000000001 0.0 246 246 246
0.025 10.375 0.0 182 198 208
-1.975 10.625 0.0 246 246 246
-1.675 10.525 0.0 246 246 246
0.925 10.775 0.0 203 213 220
-1.125 10.425 0.0 135 164 184
1.2750000000000001 10.625 0.0 136 165 184
1.375 10.625 0.0 143 170 188
-0.775 10.475000000000001 0.0 146 172 189
1.2750000000000001 10.525 0.0 142 169 189
1.475 10.625 0.0 135 166 185
-1.675 9.475 0.0 113 157 45
-0.675 10.575000000000001 0.0 143 170 188
0.625 10.375 0.0 147 173 190
1.5750000000000002 10.475000000000001 0.0 131 164 185
-0.875 10.225000000000001 0.0 136 159 175
0.325 10.425 0.0 124 131 135
0.8250000000000001 10.425 0.0 95 96 96
0.925 10.425 0.0 106 106 106
-1.2750000000000001 10.525 0.0 140 161 176
-0.675 10.225000000000001 0.0 156 173 184
0.07500000000000001 10.325000000000001 0.0 186 186 186
1.8250000000000002 10.925 0.0 144 170 189
-1.125 10.325000000000001 0.0 131 162 182
1.3250000000000002 10.875 0.0 142 169 188
2.875 11.075000000000001 0.0 246 246 246
3.0250000000000004 11.175 0.0 246 247 246
-1.875 10.825000000000001 0.0 247 247 247
-1.375 10.625 0.0 247 247 246
-6.2250000000000005 10.025 0.0 246 246 246
-5.9750000000000005 10.075000000000001 0.0 247 247 247
-5.775 10.075000000000001 0.0 245 246 245
-2.025 10.875 0.0 247 247 247
-1.875 10.875 0.0 247 247 247
-1.7750000000000001 10.875 0.0 246 247 246
-5.9750000000000005 9.975000000000001 0.0 246 246 246
0.17500000000000002 10.825000000000001 0.0 246 245 244
0.875 10.875 0.0 206 206 205
2.5250000000000004 10.925 0.0 247 246 247
3.1750000000000003 11.175 0.0 247 247 247
-6.625 9.775 0.0 24 51 73
0.7250000000000001 10.525 0.0 181 195 205
2.5250000000000004 10.975000000000001 0.0 247 247 247
2.7750000000000004 11.075000000000001 0.0 247 247 247
-6.575 9.725000000000001 0.0 18 43 64
2.9250000000000003 11.175 0.0 247 247 247
-6.525 9.775 0.0 246 246 246
-6.525 10.225000000000001 0.0 245 245 245
-6.175000000000001 10.075000000000001 0.0 246 246 246
-1.625 10.775 0.0 247 247 247
-1.125 10.475000000000001 0.0 143 169 187
-6.075 10.125 0.0 247 247 247
-1.7750000000000001 10.725000000000001 0.0 247 247 247
1.3250000000000002 10.725000000000001 0.0 148 172 190
-6.125 10.175 0.0 246 247 246
-1.625 10.675 0.0 247 247 247
3.075 11.225000000000001 0.0 246 246 246
-6.025 9.425 0.0 172 195 115
3.075 11.175 0.0 246 246 246
-5.825 9.275 0.0 246 246 246
-1.5250000000000001 9.525 0.0 153 180 103
-6.425000000000001 9.375 0.0 93 135 50
-6.075 9.975000000000001 0.0 246 246 246
2.275 10.775 0.0 243 244 244
-6.275 10.275 0.0 247 247 247
-0.775 10.225000000000001 0.0 171 180 186
-0.525 10.225000000000001 0.0 206 206 205
-0.225 10.225000000000001 0.0 205 205 205
0.025 10.325000000000001 0.0 185 194 201
0.275 10.325000000000001 0.0 164 165 164
1.075 10.475000000000001 0.0 109 110 109
1.3250000000000002 10.525 0.0 117 117 117
1.7750000000000001 10.575000000000001 0.0 204 204 204
2.075 10.575000000000001 0.0 139 139 139
-5.925000000000001 10.125 0.0 247 247 247
-1.625 9.525 0.0 200 212 183
-1.5750000000000002 10.175 0.0 246 246 246
-1.0250000000000001 10.125 0.0 132 132 132
1.125 10.925 0.0 147 174 191
-2.125 9.775 0.0 247 247 247
-1.7750000000000001 10.475000000000001 0.0 246 246 246
-1.8250000000000002 10.575000000000001 0.0 246 246 246
-1.475 10.375 0.0 246 246 246
-0.7250000000000001 10.325000000000001 0.0 137 163 180
-1.475 10.475000000000001 0.0 246 246 246
0.9750000000000001 10.525 0.0 150 174 191
-1.875 10.725000000000001 0.0 246 247 246
-1.975 10.775 0.0 245 245 245
-2.025 10.975000000000001 0.0 247 247 247
-1.2750000000000001 10.575000000000001 0.0 91 118 139
-1.2750000000000001 10.325000000000001 0.0 159 168 174
-1.925 10.075000000000001 0.0 244 245 243
-1.7750000000000001 9.925 0.0 172 203 119
-1.8250000000000002 9.475 0.0 79 129 25
0.225 10.325000000000001 0.0 124 131 137
-0.775 10.175 0.0 193 194 193
-6.2250000000000005 9.425 0.0 236 238 234
-1.3250000000000002 10.425 0.0 246 246 246
-1.075 9.925 0.0 131 161 181
-0.875 10.025 0.0 147 147 147
2.475 11.025 0.0 246 246 246
-1.5750000000000002 10.375 0.0 246 246 246
2.275 10.725000000000001 0.0 247 247 247
-1.875 10.575000000000001 0.0 246 246 246
-0.47500000000000003 10.575000000000001 0.0 147 172 189
0.42500000000000004 10.875 0.0 158 180 196
1.125 10.975000000000001 0.0 148 149 149
1.3250000000000002 10.975000000000001 0.0 141 169 188
-1.7750000000000001 10.675 0.0 247 247 247
-1.625 10.525 0.0 246 246 246
-5.575 10.175 0.0 177 178 178
1.075 10.825000000000001 0.0 243 242 239
1.875 11.175 0.0 137 165 185
-2.075 10.925 0.0 247 247 247
-1.3250000000000002 10.525 0.0 246 246 246
-5.625 10.525 0.0 139 139 139
-2.1750000000000003 10.825000000000001 0.0 247 247 247
2.225 10.775 0.0 126 160 181
2.325 10.725000000000001 0.0 247 248 248
3.0250000000000004 11.225000000000001 0.0 247 247 247
-2.225 10.875 0.0 149 180 85
-1.5750000000000002 9.675 0.0 189 211 148
-1.375 10.025 0.0 228 233 220
-1.175 10.175 0.0 118 154 177
-1.675 9.525 0.0 91 127 47
-1.5250000000000001 9.325000000000001 0.0 247 247 247
-1.675 9.425 0.0 221 226 216
-1.225 10.225000000000001 0.0 119 154 178
0.47500000000000003 10.325000000000001 0.0 138 167 185
-1.725 9.825000000000001 0.0 184 207 140
-1.075 10.225000000000001 0.0 119 155 178
0.7250000000000001 5.4750000000000005 0.0 226 217 177
0.42500000000000004 10.725000000000001 0.0 148 173 191
0.525 10.725000000000001 0.0 188 200 204
1.075 10.975000000000001 0.0 141 168 186
-0.275 10.575000000000001 0.0 152 175 192
0.325 10.725000000000001 0.0 146 171 189
0.525 10.775 0.0 144 170 188
0.925 10.975000000000001 0.0 144 169 188
-2.075 10.775 0.0 246 246 246
-1.875 10.675 0.0 247 247 247
-1.425 10.675 0.0 246 246 246
-2.325 11.225000000000001 0.0 247 247 247
-6.275 9.925 0.0 246 246 246
-1.3250000000000002 10.625 0.0 247 247 247
-6.325 9.975000000000001 0.0 246 246 246
-6.4750000000000005 9.725000000000001 0.0 218 224 216
-2.325 11.025 0.0 246 246 246
-5.875 10.075000000000001 0.0 246 246 246
-1.8250000000000002 10.175 0.0 163 201 103
-2.125 10.475000000000001 0.0 246 246 246
-1.125 10.225000000000001 0.0 120 155 178
0.42500000000000004 10.325000000000001 0.0 67 80 90
-1.625 9.475 0.0 243 244 243
-0.7250000000000001 10.225000000000001 0.0 177 177 177
-5.525 10.125 0.0 207 208 207
-0.8250000000000001 10.025 0.0 196 196 196
0.675 10.675 0.0 158 180 195
-2.075 9.725000000000001 0.0 246 246 246
-1.3250000000000002 10.325000000000001 0.0 246 246 246
-1.975 10.475000000000001 0.0 246 246 246
0.8250000000000001 10.725000000000001 0.0 155 179 195
-1.675 10.675 0.0 247 247 247
-1.8250000000000002 10.775 0.0 247 247 247
-2.225 11.075000000000001 0.0 246 246 246
-5.7250000000000005 10.425 0.0 194 195 195
-5.825 10.875 0.0 162 162 163
-2.075 10.975000000000001 0.0 247 247 247
-5.775 11.175 0.0 192 193 192
-5.825 10.975000000000001 0.0 188 188 188
-5.7250000000000005 11.075000000000001 0.0 135 137 135
-1.7750000000000001 10.325000000000001 0.0 246 246 246
-5.775 10.675 0.0 189 190 189
-1.8250000000000002 10.025 0.0 230 238 205
-1.5250000000000001 10.025 0.0 246 246 246
-1.5250000000000001 9.725000000000001 0.0 193 204 183
-1.425 9.825000000000001 0.0 163 189 122
-1.0250000000000001 10.575000000000001 0.0 141 169 188
-1.675 9.575000000000001 0.0 115 144 81
-5.125 10.775 0.0 117 115 117
-1.975 10.125 0.0 244 245 242
0.675 10.375 0.0 130 163 184
-5.7250000000000005 10.675 0.0 186 187 186
-0.625 10.575000000000001 0.0 146 172 189
-1.5750000000000002 10.875 0.0 247 247 247
-0.7250000000000001 10.575000000000001 0.0 143 170 188
-5.575 10.225000000000001 0.0 199 199 199
-5.775 10.725000000000001 0.0 196 196 196
-5.625 10.775 0.0 206 207 206
-1.475 10.675 0.0 246 246 246
-0.8250000000000001 10.575000000000001 0.0 146 171 189
0.025 10.675 0.0 151 176 193
-6.425000000000001 9.725000000000001 0.0 245 245 245
-1.475 10.325000000000001 0.0 246 246 246
-2.1750000000000003 10.675 0.0 246 246 246
-1.725 10.075000000000001 0.0 109 157 24
-1.625 9.975000000000001 0.0 152 182 100
-1.075 10.575000000000001 0.0 146 172 189
-1.875 9.575000000000001 0.0 216 225 196
-1.5250000000000001 9.925 0.0 149 167 130
1.075 10.425 0.0 136 136 136
-1.875 9.975000000000001 0.0 244 245 237
-1.5250000000000001 9.675 0.0 246 246 246
-0.9750000000000001 10.175 0.0 80 80 80
-0.42500000000000004 10.175 0.0 176 176 176
-0.9750000000000001 9.975000000000001 0.0 110 110 110
-5.825 10.225000000000001 0.0 243 243 243
-1.975 10.675 0.0 246 246 246
-1.425 10.725000000000001 0.0 247 247 247
-2.325 11.425 0.0 247 247 247
-1.8250000000000002 10.125 0.0 243 244 238
-1.5250000000000001 10.125 0.0 246 246 246
-5.925000000000001 11.225000000000001 0.0 139 139 139
-1.8250000000000002 9.575000000000001 0.0 242 244 239
-5.825 11.625 0.0 161 162 162
-5.875 11.025 0.0 162 163 162
-1.625 9.425 0.0 242 242 241
-4.7250000000000005 10.225000000000001 0.0 146 146 146
-5.4750000000000005 10.175 0.0 205 205 205
-4.7250000000000005 10.075000000000001 0.0 138 138 138
-2.275 11.075000000000001 0.0 247 247 246
-6.425000000000001 9.925 0.0 245 245 245
-6.4750000000000005 9.925 0.0 246 246 246
-1.625 9.875 0.0 195 214 160
-1.3250000000000002 10.025 0.0 246 246 245
-1.925 9.875 0.0 212 222 200
-1.5750000000000002 9.575000000000001 0.0 190 205 171
-6.575 9.675 0.0 97 134 158
-1.675 9.675 0.0 115 148 80
-1.625 9.725000000000001 0.0 201 220 159
-1.3250000000000002 9.875 0.0 245 245 244
-6.025 8.825000000000001 0.0 111 172 16
-0.8250000000000001 10.075000000000001 0.0 181 181 181
-2.075 10.225000000000001 0.0 246 246 246
-1.475 10.175 0.0 246 246 246
-1.375 10.225000000000001 0.0 246 246 246
-1.3250000000000002 10.225000000000001 0.0 246 246 246
-0.925 10.175 0.0 75 75 75
-6.175000000000001 8.975 0.0 104 152 31
-7.325 9.925 0.0 102 145 172
-6.175000000000001 8.925 0.0 50 91 9
-6.525 9.975000000000001 0.0 245 245 245
-2.075 10.425 0.0 245 245 245
-2.1750000000000003 10.375 0.0 246 246 246
-6.625 10.025 0.0 246 246 246
-5.7250000000000005 10.925 0.0 188 189 188
-2.125 10.725000000000001 0.0 246 246 246
-2.025 10.725000000000001 0.0 246 246 246
-1.925 10.525 0.0 246 246 246
-5.675000000000001 10.325000000000001 0.0 196 197 196
-1.925 10.425 0.0 244 245 240
-6.625 9.875 0.0 165 186 145
-2.025 10.375 0.0 246 246 246
-1.125 10.575000000000001 0.0 141 167 186
-5.775 10.825000000000001 0.0 202 202 202
-1.975 9.675 0.0 197 213 153
-1.5250000000000001 9.625 0.0 246 246 246
-5.775 10.625 0.0 197 198 197
-5.825 11.275 0.0 202 202 202
-1.2750000000000001 10.175 0.0 246 246 246
-1.725 9.875 0.0 172 199 124
-1.5750000000000002 10.225000000000001 0.0 246 246 246
-5.4750000000000005 10.225000000000001 0.0 217 218 217
-2.1750000000000003 10.975000000000001 0.0 247 247 246
-7.275 10.125 0.0 99 146 173
-7.175000000000001 10.175 0.0 102 145 172
-1.675 10.175 0.0 240 242 226
-7.175000000000001 10.125 0.0 99 142 169
-2.125 10.675 0.0 247 247 247
-1.875 10.175 0.0 244 245 239
-7.075 10.125 0.0 98 141 169
-5.625 10.325000000000001 0.0 208 208 208
-1.3250000000000002 10.175 0.0 247 247 247
-1.2750000000000001 10.125 0.0 237 238 239
-7.125 9.975000000000001 0.0 105 146 160
-6.175000000000001 8.775 0.0 104 166 44
-6.025 8.675 0.0 53 98 45
-6.425000000000001 9.975000000000001 0.0 246 246 246
-5.675000000000001 10.975000000000001 0.0 190 190 190
-5.675000000000001 10.725000000000001 0.0 196 197 197
-5.7250000000000005 10.775 0.0 209 210 209
-5.925000000000001 11.725000000000001 0.0 179 179 179
-5.9750000000000005 11.775 0.0 182 183 182
-1.425 9.875 0.0 246 246 246
-5.925000000000001 11.575000000000001 0.0 182 182 182
-5.875 11.275 0.0 179 179 179
-1.2750000000000001 10.225000000000001 0.0 147 155 162
-5.875 11.225000000000001 0.0 193 194 193
-2.1750000000000003 10.525 0.0 246 246 246
-5.825 11.125 0.0 205 205 205
-5.9750000000000005 11.625 0.0 176 177 176
-1.875 9.775 0.0 234 239 226
-0.5750000000000001 10.225000000000001 0.0 165 165 165
-2.125 10.175 0.0 245 246 245
-1.925 10.325000000000001 0.0 246 246 246
-1.7750000000000001 10.375 0.0 246 246 246
-1.675 10.425 0.0 246 246 246
-1.625 10.325000000000001 0.0 246 246 246
-6.4750000000000005 9.675 0.0 26 58 66
-1.425 10.125 0.0 246 246 246
-1.675 9.975000000000001 0.0 199 219 164
-5.675000000000001 10.625 0.0 214 214 214
-1.425 9.725000000000001 0.0 155 182 111
-6.125 9.625 0.0 242 243 241
-1.7750000000000001 9.675 0.0 210 224 178
-5.7250000000000005 11.325000000000001 0.0 215 216 215
-2.125 10.625 0.0 246 246 246
-1.975 10.025 0.0 246 246 246
-7.875 10.075000000000001 0.0 89 138 167
-2.075 10.125 0.0 245 245 245
-5.525 10.825000000000001 0.0 202 202 202
-2.025 10.325000000000001 0.0 245 245 245
-5.625 10.725000000000001 0.0 212 212 212
-5.625 10.425 0.0 203 203 203
-5.525 10.275 0.0 206 206 206
-5.825 11.425 0.0 187 187 187
-6.625 10.075000000000001 0.0 246 246 246
-1.875 10.225000000000001 0.0 244 245 241
-6.4750000000000005 9.475 0.0 110 155 139
-5.775 11.225000000000001 0.0 209 209 209
-1.3250000000000002 10.075000000000001 0.0 240 242 236
-1.975 9.925 0.0 240 242 234
-6.075 8.975 0.0 94 138 90
-6.425000000000001 9.025 0.0 83 133 137
-6.125 8.925 0.0 59 105 50
-6.025 8.925 0.0 95 137 154
-6.125 9.125 0.0 81 131 150
-2.025 10.225000000000001 0.0 245 246 245
-1.725 10.325000000000001 0.0 246 246 246
-5.7250000000000005 10.525 0.0 213 214 213
-4.775 10.125 0.0 124 124 123
-4.625 10.025 0.0 213 214 213
-1.625 10.075000000000001 0.0 163 197 51
-1.425 10.175 0.0 246 246 246
-2.025 9.625 0.0 172 196 129
-6.125 12.075000000000001 0.0 215 215 215
-5.875 11.175 0.0 204 205 204
-6.375 9.625 0.0 246 246 246
-5.875 11.425 0.0 172 172 172
-4.825 10.225000000000001 0.0 102 103 101
-6.025 12.075000000000001 0.0 152 152 152
-5.9750000000000005 11.475000000000001 0.0 198 198 198
-6.125 12.175 0.0 173 173 173
-1.8250000000000002 10.225000000000001 0.0 241 243 231
-5.775 10.525 0.0 180 182 180
-5.925000000000001 11.175 0.0 192 193 192
-5.875 11.575000000000001 0.0 195 196 195
-6.075 12.025 0.0 173 174 174
-5.675000000000001 11.925 0.0 169 170 169
-5.925000000000001 11.325000000000001 0.0 170 171 170
-2.1750000000000003 10.125 0.0 246 246 246
-5.7250000000000005 11.175 0.0 213 214 213
-4.675 10.075000000000001 0.0 205 205 205
-4.675 10.025 0.0 210 210 211
-6.025 11.725000000000001 0.0 217 218 217
-1.925 9.675 0.0 146 174 116
-5.925000000000001 11.675 0.0 216 216 216
-1.725 9.725000000000001 0.0 178 198 151
-5.325 11.225000000000001 0.0 195 195 195
-6.025 8.975 0.0 96 145 97
-6.575 9.625 0.0 46 81 4
-2.1750000000000003 10.325000000000001 0.0 246 246 246
-4.7250000000000005 10.025 0.0 75 73 73
-6.125 13.025 0.0 179 179 179
-2.225 10.575000000000001 0.0 247 247 247
-5.925000000000001 11.475000000000001 0.0 196 196 196
-5.9750000000000005 11.675 0.0 177 178 178
-6.2250000000000005 13.275 0.0 178 179 178
-5.875 11.675 0.0 180 181 181
-5.9750000000000005 11.325000000000001 0.0 185 185 185
-2.075 10.025 0.0 246 246 246
-5.925000000000001 11.425 0.0 195 195 194
-5.875 11.525 0.0 184 184 184
-5.775 10.425 0.0 185 186 186
-2.275 10.775 0.0 246 246 246
-6.025 12.425 0.0 189 190 189
-6.175000000000001 13.075000000000001 0.0 196 196 196
-5.875 11.125 0.0 206 206 206
-2.025 10.175 0.0 246 246 246
-5.425000000000001 9.925 0.0 210 210 209
-2.275 10.675 0.0 247 247 247
-5.675000000000001 10.225000000000001 0.0 213 213 213
-1.8250000000000002 9.725000000000001 0.0 119 150 89
-2.1750000000000003 10.175 0.0 246 246 246
-4.775 10.175 0.0 52 52 51
-6.275 13.725000000000001 0.0 187 187 187
-6.125 13.175 0.0 188 189 188
-1.475 9.425 0.0 209 221 182
-6.125 13.075000000000001 0.0 188 189 189
-1.625 9.325000000000001 0.0 212 221 200
-1.075 10.175 0.0 70 94 110
-1.725 9.275 0.0 182 200 153
-6.325 12.825000000000001 0.0 221 221 221
-6.175000000000001 12.775 0.0 220 221 220
-2.075 9.925 0.0 184 207 140
-1.3250000000000002 9.825000000000001 0.0 247 247 247
-6.075 12.775 0.0 174 173 174
-0.125 10.825000000000001 0.0 138 165 184
-5.875 10.825000000000001 0.0 214 215 214
-6.125 12.325000000000001 0.0 203 203 203
-6.025 12.325000000000001 0.0 200 200 199
-6.275 13.275 0.0 199 199 199
-6.325 14.425 0.0 198 198 198
-6.275 13.225000000000001 0.0 202 203 202
-6.175000000000001 13.225000000000001 0.0 201 201 201
-1.125 10.175 0.0 113 150 175
-1.175 10.125 0.0 112 150 175
-5.875 10.625 0.0 208 208 209
-5.875 10.725000000000001 0.0 202 203 203
-1.125 10.075000000000001 0.0 110 148 173
-1.175 9.975000000000001 0.0 121 154 177
-1.125 9.975000000000001 0.0 117 152 174
-6.4750000000000005 15.175 0.0 138 138 138
-1.725 10.225000000000001 0.0 247 247 247
-6.4750000000000005 14.375 0.0 138 139 138
-1.875 9.725000000000001 0.0 100 157 21
-2.1750000000000003 10.225000000000001 0.0 241 241 241
-1.3250000000000002 10.875 0.0 247 247 247
-1.075 9.975000000000001 0.0 141 172 191
-2.275 10.625 0.0 244 244 244
2.575 10.875 0.0 239 239 239
2.575 11.125 0.0 235 236 236
2.5250000000000004 11.075000000000001 0.0 184 200 209
4.375 10.475000000000001 0.0 69 63 64
4.375 10.675 0.0 234 234 234
4.325 10.675 0.0 234 234 234
4.375 10.575000000000001 0.0 30 30 30
4.375 10.425 0.0 56 50 50
4.325 10.625 0.0 234 234 234
4.325 10.525 0.0 84 81 82
0.775 10.325000000000001 0.0 5 5 5
0.775 10.225000000000001 0.0 5 4 5
0.7250000000000001 10.275 0.0 7 7 7
5.425000000000001 4.075 0.0 70 70 70
5.375 4.075 0.0 99 98 99
5.325 4.075 0.0 55 55 54
1.8250000000000002 6.925000000000001 0.0 233 226 189
4.175 6.875 0.0 246 247 246
2.1750000000000003 5.175000000000001 0.0 82 131 7
3.9250000000000003 4.075 0.0 245 245 245
4.575 3.375 0.0 244 244 244
2.875 7.025 0.0 239 238 238
3.975 3.825 0.0 246 246 246
4.025 3.875 0.0 246 246 246
3.975 3.975 0.0 245 245 245
5.325 4.025 0.0 136 137 136
2.1750000000000003 5.325 0.0 59 114 2
2.125 5.275 0.0 90 145 17
4.675 3.4250000000000003 0.0 244 244 244
2.025 5.625 0.0 221 226 227
3.975 4.075 0.0 244 244 244
5.425000000000001 4.025 0.0 42 40 39
3.975 4.2250000000000005 0.0 236 236 236
4.575 3.325 0.0 244 244 244
4.625 3.475 0.0 245 245 245
3.875 4.2250000000000005 0.0 245 245 245
4.825 3.975 0.0 235 236 235
4.775 3.875 0.0 235 235 235
2.125 5.2250000000000005 0.0 81 130 6
4.575 3.6750000000000003 0.0 245 245 245
4.575 3.575 0.0 245 245 245
3.125 4.875 0.0 72 123 4
3.075 5.025 0.0 26 70 8
2.975 5.125 0.0 101 114 96
0.925 5.375 0.0 90 75 38
4.175 4.175 0.0 238 239 238
4.625 3.225 0.0 244 245 244
4.675 3.2750000000000004 0.0 245 245 245
4.575 3.0250000000000004 0.0 222 224 224
4.625 3.125 0.0 244 244 244
3.9250000000000003 3.975 0.0 244 244 244
4.675 3.1750000000000003 0.0 244 244 244
3.9250000000000003 3.9250000000000003 0.0 245 245 245
4.525 3.075 0.0 245 245 245
4.4750000000000005 3.1750000000000003 0.0 244 244 244
4.775 3.5250000000000004 0.0 245 245 245
4.675 3.475 0.0 244 243 244
4.375 3.125 0.0 240 241 241
4.375 3.1750000000000003 0.0 243 243 243
4.525 3.325 0.0 245 245 245
4.525 3.4250000000000003 0.0 245 245 245
4.325 3.1750000000000003 0.0 236 237 237
0.125 5.775 0.0 54 47 30
-0.625 6.2250000000000005 0.0 5 5 5
-0.675 6.175000000000001 0.0 35 36 36
4.325 3.125 0.0 116 128 134
