ply
format ascii 1.0
element vertex 1119
property float x
property float y
property float z
property uchar red
property uchar green
property uchar blue
end_header
0.125 0.07500000000000001 0.0 0 0 0
0.125 0.025 0.0 7 7 7
0.125 -0.025 0.0 3 3 3
5.125 -2.625 0.0 199 199 199
5.125 -2.725 0.0 199 199 199
5.125 -2.7750000000000004 0.0 200 201 200
5.075 0.775 0.0 222 221 222
6.125 -2.875 0.0 63 63 61
6.125 -3.0250000000000004 0.0 201 202 201
6.125 -3.125 0.0 200 200 200
5.075 -0.125 0.0 246 246 246
4.9750000000000005 -0.125 0.0 245 246 245
6.075 -2.7750000000000004 0.0 57 56 56
5.025 -2.725 0.0 197 197 197
5.025 -2.7750000000000004 0.0 197 198 197
4.9750000000000005 0.5750000000000001 0.0 246 246 246
4.9750000000000005 0.275 0.0 245 245 245
4.9750000000000005 0.17500000000000002 0.0 245 245 245
5.025 -0.17500000000000002 0.0 246 246 246
6.025 -2.7750000000000004 0.0 73 72 72
6.025 -2.875 0.0 93 93 92
6.025 -3.0250000000000004 0.0 195 195 195
4.9750000000000005 0.525 0.0 246 246 246
4.9750000000000005 0.42500000000000004 0.0 245 245 245
4.9750000000000005 0.07500000000000001 0.0 245 246 245
4.925000000000001 0.17500000000000002 0.0 246 246 246
4.925000000000001 0.325 0.0 246 246 246
4.925000000000001 0.775 0.0 176 175 175
4.825 0.5750000000000001 0.0 246 246 246
4.925000000000001 0.375 0.0 246 246 246
4.925000000000001 0.125 0.0 246 246 246
5.925000000000001 -2.7750000000000004 0.0 53 51 51
5.925000000000001 -2.875 0.0 184 184 183
5.925000000000001 -3.0250000000000004 0.0 195 195 195
4.875 0.625 0.0 246 246 246
4.875 0.525 0.0 246 246 246
4.925000000000001 0.47500000000000003 0.0 246 246 246
4.925000000000001 -2.6750000000000003 0.0 197 197 197
4.925000000000001 -2.7750000000000004 0.0 199 200 200
4.875 0.42500000000000004 0.0 246 246 246
4.925000000000001 -0.17500000000000002 0.0 245 245 245
4.125 0.5750000000000001 0.0 246 246 246
4.125 0.525 0.0 246 246 246
4.125 0.42500000000000004 0.0 246 246 246
4.125 0.325 0.0 245 245 245
5.125 0.125 0.0 246 246 246
5.125 0.17500000000000002 0.0 246 246 246
5.125 -0.225 0.0 246 246 246
5.125 0.325 0.0 246 246 246
5.125 -0.025 0.0 245 245 245
5.075 0.375 0.0 246 246 246
5.025 0.8250000000000001 0.0 223 223 223
6.025 -2.975 0.0 196 196 196
4.9750000000000005 -0.025 0.0 245 246 245
5.9750000000000005 -2.725 0.0 143 143 143
5.925000000000001 -2.975 0.0 196 196 196
5.925000000000001 -2.725 0.0 194 195 194
4.925000000000001 -0.125 0.0 246 246 246
4.925000000000001 -2.625 0.0 198 198 198
4.925000000000001 0.7250000000000001 0.0 247 247 247
4.925000000000001 0.5750000000000001 0.0 246 246 246
4.925000000000001 -0.025 0.0 245 246 246
5.075 0.525 0.0 246 246 246
5.075 0.625 0.0 245 246 245
5.025 0.675 0.0 246 246 246
5.025 0.7250000000000001 0.0 246 246 246
5.9750000000000005 -3.125 0.0 197 197 197
5.925000000000001 -3.125 0.0 195 195 195
6.075 -2.975 0.0 196 197 196
4.9750000000000005 -2.625 0.0 196 197 196
4.925000000000001 0.675 0.0 246 246 246
5.125 0.025 0.0 245 245 245
5.125 0.7250000000000001 0.0 246 246 246
5.075 0.675 0.0 246 246 246
5.025 0.025 0.0 246 247 246
4.575 0.675 0.0 247 247 247
4.825 0.025 0.0 247 247 247
4.875 -0.07500000000000001 0.0 246 246 246
5.7250000000000005 -2.9250000000000003 0.0 197 197 197
4.925000000000001 0.025 0.0 246 246 246
4.875 -0.025 0.0 246 246 246
4.675 0.7250000000000001 0.0 177 176 176
4.4750000000000005 0.5750000000000001 0.0 246 246 246
4.4750000000000005 0.525 0.0 246 246 246
4.425 0.47500000000000003 0.0 246 246 246
5.575 0.925 0.0 164 164 164
4.375 0.5750000000000001 0.0 245 245 245
4.525 0.675 0.0 211 211 210
4.125 3.475 0.0 244 245 245
4.325 0.47500000000000003 0.0 244 244 244
4.325 0.42500000000000004 0.0 244 244 244
5.075 3.5250000000000004 0.0 48 48 47
4.275 0.5750000000000001 0.0 246 246 246
4.175 3.225 0.0 228 229 228
4.025 3.1750000000000003 0.0 228 228 228
4.075 3.2750000000000004 0.0 229 229 229
4.325 3.7750000000000004 0.0 244 244 244
4.375 3.725 0.0 243 243 242
4.825 3.375 0.0 236 236 236
4.825 3.325 0.0 32 31 31
4.325 3.6750000000000003 0.0 244 244 244
4.325 3.625 0.0 244 244 244
4.375 3.625 0.0 244 244 244
4.575 3.375 0.0 239 239 239
4.2250000000000005 3.6750000000000003 0.0 244 244 244
4.175 3.6750000000000003 0.0 244 244 244
4.2250000000000005 3.625 0.0 242 243 242
4.125 3.625 0.0 244 244 244
4.075 3.6750000000000003 0.0 244 244 244
5.025 3.5250000000000004 0.0 96 97 96
4.175 3.2750000000000004 0.0 238 238 238
4.025 3.625 0.0 244 245 244
5.275 3.575 0.0 24 23 23
5.2250000000000005 3.5250000000000004 0.0 51 45 46
5.275 3.475 0.0 85 84 84
3.075 4.9750000000000005 0.0 191 210 151
4.325 6.675000000000001 0.0 26 25 25
1.5250000000000001 10.925 0.0 50 51 50
4.175 6.825 0.0 245 245 245
3.875 7.025 0.0 244 244 244
4.575 6.875 0.0 53 65 75
3.825 6.825 0.0 245 245 245
3.125 4.925000000000001 0.0 94 156 18
3.075 4.775 0.0 126 180 51
-1.3250000000000002 10.325000000000001 0.0 136 165 184
2.475 5.275 0.0 51 75 46
2.625 5.025 0.0 64 116 4
3.0250000000000004 5.025 0.0 73 134 4
-1.475 10.925 0.0 127 159 180
3.625 6.875 0.0 207 207 207
4.175 6.875 0.0 245 245 245
3.975 6.775 0.0 244 244 244
3.9250000000000003 6.825 0.0 245 245 245
4.625 7.325 0.0 173 174 173
2.875 4.625 0.0 94 140 6
2.975 4.7250000000000005 0.0 110 159 35
2.7750000000000004 4.675 0.0 53 96 8
2.875 4.775 0.0 101 144 41
2.875 4.7250000000000005 0.0 120 158 61
3.5250000000000004 5.525 0.0 54 98 12
0.42500000000000004 10.475000000000001 0.0 244 244 241
0.775 10.725000000000001 0.0 238 237 234
0.925 10.975000000000001 0.0 241 240 237
-1.875 9.975000000000001 0.0 246 246 246
2.1750000000000003 11.375 0.0 136 166 186
-1.125 10.925 0.0 143 169 186
-0.625 10.975000000000001 0.0 154 177 193
0.875 10.775 0.0 238 237 235
-1.375 10.325000000000001 0.0 245 245 245
-0.875 10.625 0.0 145 171 189
-1.625 10.775 0.0 246 246 246
-1.375 11.025 0.0 123 154 176
-1.625 10.725000000000001 0.0 246 246 246
-2.275 2.575 0.0 194 194 193
-6.125 2.875 0.0 96 55 56
-1.475 1.875 0.0 215 215 213
-1.625 1.5750000000000002 0.0 192 192 191
-2.225 2.5250000000000004 0.0 89 50 51
-1.625 1.5250000000000001 0.0 193 177 178
-1.675 1.5750000000000002 0.0 238 237 235
-2.1750000000000003 2.475 0.0 90 52 55
-2.225 2.4250000000000003 0.0 96 56 57
-1.675 1.5250000000000001 0.0 131 99 100
-1.675 1.425 0.0 111 71 72
-1.475 1.8250000000000002 0.0 105 63 63
-1.475 1.725 0.0 97 67 70
-1.725 1.3250000000000002 0.0 116 75 75
-3.875 0.875 0.0 170 166 163
-6.575 2.7750000000000004 0.0 100 59 59
-6.275 3.0250000000000004 0.0 57 30 32
-6.575 1.425 0.0 242 241 240
-5.2250000000000005 2.9250000000000003 0.0 239 239 239
-1.7750000000000001 1.5250000000000001 0.0 122 82 87
-1.7750000000000001 1.125 0.0 124 87 88
-1.7750000000000001 1.175 0.0 126 88 90
-1.725 1.125 0.0 104 71 73
-1.7750000000000001 1.2750000000000001 0.0 115 82 84
-1.725 1.2750000000000001 0.0 115 77 79
-1.7750000000000001 1.3250000000000002 0.0 121 81 83
-1.7750000000000001 1.425 0.0 126 99 104
-1.7750000000000001 1.075 0.0 126 96 97
-1.725 1.175 0.0 128 85 83
-3.825 1.075 0.0 179 175 172
-3.825 1.125 0.0 179 175 172
-3.9250000000000003 0.9750000000000001 0.0 171 167 164
-3.875 1.125 0.0 172 168 164
-3.825 1.0250000000000001 0.0 172 167 164
-4.125 0.775 0.0 236 235 235
-3.9250000000000003 1.075 0.0 170 165 161
-3.975 0.925 0.0 174 170 167
-3.975 1.075 0.0 177 173 170
-3.975 1.125 0.0 175 170 167
-3.7750000000000004 -1.075 0.0 144 131 131
-3.7750000000000004 -1.0250000000000001 0.0 72 63 63
-4.2250000000000005 0.375 0.0 215 210 210
-3.9250000000000003 0.8250000000000001 0.0 108 103 101
-3.825 0.925 0.0 175 171 168
-4.125 0.5750000000000001 0.0 198 188 189
-6.275 2.975 0.0 57 30 31
-4.025 0.525 0.0 190 178 178
-4.025 0.675 0.0 248 250 251
-3.975 0.8250000000000001 0.0 181 177 175
-6.075 2.075 0.0 235 234 233
-4.025 0.625 0.0 181 166 165
-3.825 1.175 0.0 175 171 168
-3.725 1.225 0.0 176 171 169
-4.125 -1.8250000000000002 0.0 109 72 73
-1.925 0.675 0.0 76 71 70
-4.175 -1.875 0.0 133 95 94
-1.875 0.7250000000000001 0.0 196 196 196
-1.8250000000000002 0.775 0.0 197 196 195
-1.725 0.7250000000000001 0.0 128 96 98
-1.725 0.775 0.0 123 96 97
-1.7750000000000001 0.875 0.0 136 105 106
-1.725 0.875 0.0 133 99 99
-1.7750000000000001 0.9750000000000001 0.0 136 102 103
-1.725 0.625 0.0 130 93 94
-1.725 0.675 0.0 126 90 90
-3.875 -0.275 0.0 127 101 101
-4.175 0.275 0.0 200 191 191
-6.775 2.025 0.0 97 58 61
-6.825 2.125 0.0 96 55 57
-4.125 0.325 0.0 143 116 115
-4.125 0.375 0.0 149 121 120
-3.4250000000000003 -1.425 0.0 235 235 235
-2.025 0.625 0.0 112 112 111
-1.5750000000000002 -0.5750000000000001 0.0 227 227 227
-1.5250000000000001 -0.5750000000000001 0.0 110 70 71
-1.5750000000000002 -0.525 0.0 112 70 71
-1.725 0.525 0.0 126 85 84
-3.7750000000000004 -1.125 0.0 102 66 68
-3.825 -0.875 0.0 116 74 69
-3.875 -0.8250000000000001 0.0 116 77 78
-3.725 -1.3250000000000002 0.0 108 67 68
-3.7750000000000004 -1.175 0.0 156 128 128
-3.825 -1.425 0.0 113 70 74
-3.725 -1.175 0.0 87 59 59
-3.875 -0.9750000000000001 0.0 99 68 70
-3.7750000000000004 -1.3250000000000002 0.0 106 67 67
-3.875 -0.875 0.0 118 81 84
-3.6750000000000003 -1.125 0.0 171 154 154
-3.9250000000000003 -0.525 0.0 221 224 224
-4.4750000000000005 0.325 0.0 133 99 97
-3.725 -1.075 0.0 110 67 68
-3.7750000000000004 -0.8250000000000001 0.0 115 74 76
-3.725 -0.925 0.0 105 106 44
-3.825 -0.625 0.0 117 79 79
-3.7750000000000004 -0.675 0.0 123 80 79
-4.2250000000000005 -1.875 0.0 113 72 74
-4.125 -1.925 0.0 95 57 55
-4.9750000000000005 -4.325 0.0 90 53 55
-4.775 -4.2250000000000005 0.0 113 71 70
-3.575 -0.925 0.0 189 189 189
-3.625 -0.8250000000000001 0.0 190 190 190
-3.6750000000000003 -0.525 0.0 242 245 245
-3.5250000000000004 -1.125 0.0 238 238 238
-3.625 -0.7250000000000001 0.0 238 238 238
-1.675 -0.17500000000000002 0.0 230 229 230
-1.7750000000000001 -0.07500000000000001 0.0 214 214 214
-1.725 -0.025 0.0 227 227 227
-1.8250000000000002 0.125 0.0 217 217 217
-1.8250000000000002 0.225 0.0 219 218 219
-1.675 -0.125 0.0 202 190 191
-1.625 -0.125 0.0 140 112 113
-1.625 -0.17500000000000002 0.0 154 128 129
-1.625 0.025 0.0 160 140 140
-1.675 0.07500000000000001 0.0 123 84 85
-1.625 -0.025 0.0 136 107 109
-1.675 0.025 0.0 113 74 74
-1.675 0.17500000000000002 0.0 93 66 67
-3.7750000000000004 -1.2750000000000001 0.0 105 64 62
-3.875 -1.175 0.0 103 59 58
-3.375 -1.675 0.0 141 136 132
-3.625 -1.675 0.0 141 136 133
-3.7750000000000004 -1.5250000000000001 0.0 105 64 62
-3.5250000000000004 -1.625 0.0 141 136 133
-3.725 -1.2750000000000001 0.0 103 64 65
-3.5250000000000004 -1.675 0.0 141 136 133
-3.975 -0.875 0.0 109 67 69
-3.325 -1.675 0.0 157 152 148
-3.875 -1.075 0.0 99 59 64
-4.325 -1.925 0.0 103 62 63
-3.6750000000000003 -0.9750000000000001 0.0 105 69 71
-4.2250000000000005 -1.725 0.0 104 64 64
-3.375 -1.625 0.0 140 135 132
-3.325 -1.625 0.0 140 135 131
-4.025 -1.925 0.0 149 144 141
-4.525 -3.975 0.0 237 236 236
-4.125 -1.625 0.0 105 61 57
-4.175 -1.7750000000000001 0.0 99 60 57
-4.025 -1.7750000000000001 0.0 132 115 114
-3.625 -0.525 0.0 46 46 46
-3.875 -1.875 0.0 184 181 179
-3.5250000000000004 -1.175 0.0 212 212 211
-3.5250000000000004 -1.075 0.0 197 197 196
-3.575 -0.9750000000000001 0.0 188 188 188
-3.6750000000000003 -0.5750000000000001 0.0 237 245 244
-3.4250000000000003 -1.2750000000000001 0.0 234 234 234
-1.625 -0.275 0.0 216 215 216
-1.675 -0.275 0.0 216 215 216
-1.8250000000000002 -0.025 0.0 214 213 214
-1.475 -0.42500000000000004 0.0 29 29 29
-1.5250000000000001 -0.325 0.0 200 185 185
-1.5250000000000001 -0.225 0.0 178 156 155
-3.325 -2.025 0.0 148 143 139
-4.025 -1.3250000000000002 0.0 88 53 53
-4.075 -1.3250000000000002 0.0 100 62 63
-4.025 -1.375 0.0 95 54 57
-1.8250000000000002 -1.625 0.0 13 13 12
-1.7750000000000001 -1.675 0.0 13 13 13
-1.8250000000000002 -1.5250000000000001 0.0 18 18 17
-3.475 -1.5250000000000001 0.0 149 145 142
-1.3250000000000002 -2.225 0.0 90 51 53
-1.2750000000000001 -2.225 0.0 53 31 33
-1.5750000000000002 -0.42500000000000004 0.0 96 56 56
-4.275 -2.075 0.0 58 59 64
-4.175 -1.975 0.0 76 42 45
-4.125 -1.975 0.0 119 99 98
-2.4250000000000003 -3.825 0.0 202 202 200
-4.675 -4.375 0.0 69 39 38
-4.625 -4.2250000000000005 0.0 79 45 45
-2.225 -3.875 0.0 116 83 84
-4.575 -3.7750000000000004 0.0 224 224 224
-1.875 -1.625 0.0 10 10 10
-1.725 -1.675 0.0 36 36 36
-0.225 -9.075000000000001 0.0 15 15 15
-1.225 -2.025 0.0 206 203 200
-1.8250000000000002 -1.7750000000000001 0.0 214 214 214
-1.375 -1.8250000000000002 0.0 112 84 84
-1.5750000000000002 -1.7750000000000001 0.0 195 195 195
-1.2750000000000001 -2.125 0.0 113 96 95
-1.2750000000000001 -1.975 0.0 226 227 226
-1.2750000000000001 -1.875 0.0 230 228 226
-1.375 -1.725 0.0 229 227 224
-1.225 -0.875 0.0 125 102 102
-1.3250000000000002 -1.875 0.0 236 237 236
-1.2750000000000001 -0.875 0.0 114 87 84
-1.375 -1.875 0.0 236 236 235
-1.2750000000000001 -0.8250000000000001 0.0 81 46 47
-1.425 -0.675 0.0 241 240 241
-1.3250000000000002 -1.8250000000000002 0.0 236 236 235
-1.225 -0.8250000000000001 0.0 86 49 51
-1.475 -1.725 0.0 81 44 46
-1.475 -1.625 0.0 81 46 46
-1.425 -0.7250000000000001 0.0 240 240 240
-1.425 -1.625 0.0 81 46 47
-1.425 -1.5250000000000001 0.0 44 44 47
-5.2250000000000005 -4.375 0.0 138 103 104
-0.7250000000000001 -8.025 0.0 6 7 6
-1.5750000000000002 -3.0250000000000004 0.0 193 193 193
-1.2750000000000001 -2.325 0.0 44 23 24
-1.3250000000000002 -2.075 0.0 213 213 213
-1.225 -2.1750000000000003 0.0 46 24 25
-0.7250000000000001 -7.825 0.0 8 8 8
-1.425 -8.475 0.0 109 109 109
-0.8250000000000001 -7.825 0.0 69 69 69
-1.3250000000000002 -2.275 0.0 129 119 115
0.875 -5.175000000000001 0.0 120 121 120
1.475 -5.025 0.0 89 89 89
0.375 -5.2250000000000005 0.0 109 109 109
0.275 -5.175000000000001 0.0 68 68 68
1.375 -5.125 0.0 151 151 151
1.2750000000000001 -5.075 0.0 73 74 74
1.175 -5.075 0.0 123 123 123
1.125 -5.125 0.0 108 108 108
1.075 -5.125 0.0 138 139 138
2.7750000000000004 -5.075 0.0 92 93 93
1.7750000000000001 -5.025 0.0 51 52 52
-0.325 -9.275 0.0 1 1 1
-0.525 -7.875 0.0 99 99 99
-0.625 -7.825 0.0 0 0 0
-0.625 -7.675000000000001 0.0 30 31 31
-1.475 -8.225 0.0 151 151 151
0.675 -5.175000000000001 0.0 135 135 135
0.525 -5.275 0.0 131 131 131
1.425 -5.025 0.0 83 83 83
0.7250000000000001 -5.075 0.0 103 103 104
0.675 -5.325 0.0 137 138 137
0.42500000000000004 -5.275 0.0 76 76 76
2.5250000000000004 -4.875 0.0 82 82 82
2.225 -5.075 0.0 100 100 100
2.075 -5.025 0.0 63 63 63
1.675 -5.075 0.0 123 123 123
1.0250000000000001 -5.125 0.0 107 107 107
0.775 -5.075 0.0 131 131 131
2.6750000000000003 -4.775 0.0 80 80 80
-0.625 -10.725000000000001 0.0 145 169 187
-1.175 -10.725000000000001 0.0 136 165 184
-0.625 -10.625 0.0 139 166 184
-1.075 -10.975000000000001 0.0 141 167 185
2.125 -9.975000000000001 0.0 62 62 62
1.925 -10.225000000000001 0.0 247 247 247
0.9750000000000001 -10.375 0.0 143 169 187
0.025 -10.675 0.0 147 173 189
0.525 -10.725000000000001 0.0 150 174 191
0.17500000000000002 -10.675 0.0 148 173 190
-0.07500000000000001 -10.725000000000001 0.0 143 169 187
-0.275 -10.825000000000001 0.0 148 173 190
0.375 -10.625 0.0 142 168 186
0.025 -10.575000000000001 0.0 144 169 187
-0.07500000000000001 -10.575000000000001 0.0 139 166 184
-0.17500000000000002 -10.725000000000001 0.0 147 173 190
-0.325 -10.725000000000001 0.0 141 168 186
0.9750000000000001 -10.525 0.0 143 169 186
0.775 -10.675 0.0 145 170 188
0.275 -10.525 0.0 138 165 184
-0.17500000000000002 -10.775 0.0 142 168 186
-0.525 -10.725000000000001 0.0 144 169 187
0.8250000000000001 -10.325000000000001 0.0 143 168 186
0.7250000000000001 -10.425 0.0 140 168 187
0.125 -10.625 0.0 143 170 188
-0.42500000000000004 -10.575000000000001 0.0 145 174 177
0.375 -10.675 0.0 143 169 188
0.025 -10.475000000000001 0.0 147 173 190
0.47500000000000003 -10.625 0.0 140 167 186
0.125 -10.525 0.0 145 171 188
-0.525 -9.925 0.0 87 128 67
0.7250000000000001 -10.475000000000001 0.0 141 167 185
-0.42500000000000004 -10.225000000000001 0.0 122 159 117
-0.325 -10.075000000000001 0.0 114 147 115
-0.625 -9.725000000000001 0.0 143 169 186
-1.125 -10.925 0.0 145 170 188
0.225 -10.425 0.0 136 165 184
0.925 -10.225000000000001 0.0 133 164 184
0.8250000000000001 -10.125 0.0 139 167 185
-0.775 -9.725000000000001 0.0 31 36 41
0.125 -10.375 0.0 135 163 182
-0.025 -10.325000000000001 0.0 131 159 178
-0.42500000000000004 -9.425 0.0 0 1 0
-1.125 -9.625 0.0 132 132 131
0.925 -10.175 0.0 133 162 183
0.07500000000000001 -9.825000000000001 0.0 159 159 159
-0.8250000000000001 -8.025 0.0 146 147 147
-0.525 -7.675000000000001 0.0 15 15 15
-0.925 -7.825 0.0 122 125 127
0.525 -5.2250000000000005 0.0 84 84 84
0.325 -5.275 0.0 122 122 122
1.125 -5.2250000000000005 0.0 107 107 107
0.5750000000000001 -5.125 0.0 94 94 94
0.275 -5.4750000000000005 0.0 5 5 5
1.675 -5.025 0.0 67 67 67
1.675 -5.325 0.0 77 77 78
1.125 -5.025 0.0 81 81 81
1.075 -5.025 0.0 108 108 108
0.925 -4.9750000000000005 0.0 99 99 99
0.8250000000000001 -5.2250000000000005 0.0 101 101 101
0.675 -5.125 0.0 98 98 98
0.5750000000000001 -5.175000000000001 0.0 97 97 97
0.42500000000000004 -5.125 0.0 88 88 88
0.17500000000000002 -5.2250000000000005 0.0 84 85 85
2.575 -4.875 0.0 54 54 54
1.975 -5.325 0.0 5 5 5
1.725 -4.925000000000001 0.0 6 6 6
0.775 -5.275 0.0 119 119 120
2.7750000000000004 -4.7250000000000005 0.0 40 40 40
3.4250000000000003 -9.825000000000001 0.0 246 246 246
0.5750000000000001 -10.425 0.0 147 171 189
4.275 -9.975000000000001 0.0 246 246 246
2.275 -10.225000000000001 0.0 4 4 4
0.925 -10.575000000000001 0.0 145 171 189
0.325 -10.625 0.0 141 167 186
0.17500000000000002 -10.525 0.0 145 171 189
-0.17500000000000002 -10.675 0.0 135 169 161
-0.42500000000000004 -10.725000000000001 0.0 141 168 186
-1.725 -10.525 0.0 246 246 246
4.425 -9.675 0.0 245 245 245
4.2250000000000005 -9.575000000000001 0.0 246 246 246
4.2250000000000005 -9.875 0.0 246 246 246
3.9250000000000003 -10.075000000000001 0.0 247 247 247
3.825 -10.175 0.0 246 246 246
0.675 -10.575000000000001 0.0 145 170 188
-0.525 -10.625 0.0 138 166 185
-0.675 -10.875 0.0 143 168 187
-0.775 -10.675 0.0 138 166 185
3.825 -10.125 0.0 246 246 246
0.925 -10.525 0.0 139 166 185
-0.675 -10.675 0.0 139 166 184
-1.625 -10.475000000000001 0.0 229 229 229
4.4750000000000005 -9.775 0.0 246 246 246
4.275 -9.875 0.0 246 246 246
-0.42500000000000004 -10.525 0.0 134 163 184
-1.625 -10.575000000000001 0.0 242 242 242
3.475 -9.925 0.0 165 165 165
3.325 -9.825000000000001 0.0 3 3 3
4.275 -9.575000000000001 0.0 246 246 246
3.125 -10.025 0.0 123 123 123
2.975 -9.975000000000001 0.0 244 244 244
1.0250000000000001 -10.325000000000001 0.0 192 205 215
-0.325 -10.525 0.0 150 175 187
-1.8250000000000002 -10.825000000000001 0.0 247 247 247
4.925000000000001 -8.925 0.0 108 159 71
3.1750000000000003 -9.825000000000001 0.0 246 246 246
3.0250000000000004 -10.025 0.0 246 246 246
-2.875 -11.075000000000001 0.0 247 247 247
-3.825 -11.125 0.0 246 246 246
4.825 -8.925 0.0 164 193 92
-0.225 -10.525 0.0 139 167 186
-0.325 -9.975000000000001 0.0 133 171 120
-0.5750000000000001 -9.875 0.0 98 142 41
4.4750000000000005 -9.725000000000001 0.0 175 195 208
4.325 -9.675 0.0 246 246 246
-0.47500000000000003 -9.975000000000001 0.0 136 164 183
-0.625 -10.125 0.0 143 169 188
5.025 -9.425 0.0 72 109 74
0.9750000000000001 -10.175 0.0 240 242 242
-3.325 -10.775 0.0 246 246 246
-1.375 -10.475000000000001 0.0 135 164 184
4.875 -7.775 0.0 1 2 1
0.17500000000000002 -9.325000000000001 0.0 92 93 92
-0.925 -7.925000000000001 0.0 64 64 64
-3.225 -9.975000000000001 0.0 62 63 63
-3.375 -9.725000000000001 0.0 0 0 0
-0.375 -8.575000000000001 0.0 28 28 28
-0.625 -7.9750000000000005 0.0 0 0 0
-0.9750000000000001 -8.275 0.0 59 59 59
2.325 -4.925000000000001 0.0 70 70 70
1.5750000000000002 -4.9750000000000005 0.0 69 69 69
1.3250000000000002 -4.9750000000000005 0.0 98 98 98
1.2750000000000001 -4.9750000000000005 0.0 113 114 114
1.175 -5.025 0.0 84 84 84
0.925 -5.125 0.0 101 101 100
2.475 -5.175000000000001 0.0 64 64 64
1.8250000000000002 -5.075 0.0 6 6 6
1.3250000000000002 -5.175000000000001 0.0 104 104 104
1.2750000000000001 -5.175000000000001 0.0 89 90 90
0.9750000000000001 -5.175000000000001 0.0 87 87 87
0.875 -5.275 0.0 102 101 101
0.5750000000000001 -5.325 0.0 111 111 111
2.6750000000000003 -4.7250000000000005 0.0 54 47 33
1.875 -5.025 0.0 21 21 21
1.5250000000000001 -5.075 0.0 78 78 78
1.075 -5.175000000000001 0.0 90 91 91
1.0250000000000001 -5.275 0.0 113 113 113
0.5750000000000001 -5.425000000000001 0.0 120 120 120
0.275 -5.125 0.0 75 75 75
-0.9750000000000001 -10.725000000000001 0.0 144 170 188
-1.5250000000000001 -10.725000000000001 0.0 135 163 183
-1.675 -10.575000000000001 0.0 246 246 246
-0.225 -10.625 0.0 141 167 186
-0.325 -10.575000000000001 0.0 149 172 190
-1.075 -10.675 0.0 136 164 184
-1.2750000000000001 -10.625 0.0 132 161 180
-1.375 -10.625 0.0 172 191 204
-1.475 -10.575000000000001 0.0 203 213 221
1.3250000000000002 -10.325000000000001 0.0 246 246 246
1.075 -10.275 0.0 247 247 247
0.675 -10.375 0.0 140 168 186
0.325 -10.725000000000001 0.0 139 166 185
0.225 -10.725000000000001 0.0 143 170 187
-0.325 -10.675 0.0 141 167 185
-0.675 -10.575000000000001 0.0 139 166 185
-0.775 -10.575000000000001 0.0 140 167 186
-0.9750000000000001 -10.625 0.0 137 164 184
-1.175 -10.675 0.0 135 164 184
2.325 -10.475000000000001 0.0 219 219 219
1.475 -10.525 0.0 246 247 247
1.375 -10.525 0.0 246 246 246
1.125 -10.375 0.0 246 246 246
0.5750000000000001 -10.525 0.0 145 170 188
0.125 -10.675 0.0 150 175 192
-0.025 -10.725000000000001 0.0 136 164 184
-0.125 -10.675 0.0 138 165 184
-0.875 -10.675 0.0 137 165 184
-1.075 -10.625 0.0 135 165 184
-1.175 -10.575000000000001 0.0 135 164 184
-1.5250000000000001 -10.675 0.0 145 172 190
2.875 -10.225000000000001 0.0 4 4 4
1.625 -10.625 0.0 246 246 246
1.375 -10.575000000000001 0.0 247 247 247
0.925 -10.675 0.0 142 168 186
0.775 -10.625 0.0 148 174 190
0.675 -10.675 0.0 144 169 188
0.5750000000000001 -10.675 0.0 141 168 186
-2.1750000000000003 -10.875 0.0 247 247 247
-2.275 -10.875 0.0 246 246 246
4.625 -9.775 0.0 123 157 179
4.075 -9.725000000000001 0.0 245 245 245
3.725 -9.825000000000001 0.0 246 246 246
3.1750000000000003 -9.625 0.0 4 4 4
3.0250000000000004 -9.575000000000001 0.0 4 4 4
2.375 -10.175 0.0 4 4 4
0.675 -10.725000000000001 0.0 146 171 189
0.5750000000000001 -10.775 0.0 144 170 188
0.225 -10.625 0.0 140 167 186
-2.025 -10.775 0.0 246 247 246
-2.1750000000000003 -10.825000000000001 0.0 247 247 247
4.175 -9.675 0.0 246 246 246
3.975 -9.775 0.0 246 246 246
3.4250000000000003 -9.925 0.0 187 188 187
2.075 -10.825000000000001 0.0 246 246 246
1.925 -10.775 0.0 246 246 246
1.675 -10.775 0.0 246 246 246
1.2750000000000001 -10.525 0.0 246 246 246
-0.525 -10.525 0.0 135 163 182
-0.675 -10.525 0.0 140 166 185
-1.675 -10.425 0.0 246 246 246
-1.925 -10.725000000000001 0.0 246 246 246
3.575 -10.025 0.0 246 246 246
1.8250000000000002 -10.825000000000001 0.0 246 246 246
1.125 -10.475000000000001 0.0 246 247 247
0.5750000000000001 -10.625 0.0 147 173 190
4.925000000000001 -9.925 0.0 119 153 177
2.325 -10.225000000000001 0.0 64 65 64
1.7750000000000001 -10.675 0.0 247 247 247
1.5750000000000002 -10.675 0.0 246 246 246
0.925 -10.325000000000001 0.0 138 166 185
4.2250000000000005 -9.825000000000001 0.0 245 245 245
4.025 -9.725000000000001 0.0 246 246 246
3.2750000000000004 -9.725000000000001 0.0 3 3 3
1.925 -10.675 0.0 246 246 246
1.2750000000000001 -10.375 0.0 245 245 245
-0.875 -10.475000000000001 0.0 128 159 180
4.175 -9.775 0.0 246 246 246
3.875 -9.925 0.0 246 246 246
3.1750000000000003 -9.725000000000001 0.0 245 246 245
3.1750000000000003 -10.125 0.0 246 246 246
2.975 -10.325000000000001 0.0 246 246 246
2.9250000000000003 -10.425 0.0 246 246 246
1.125 -10.325000000000001 0.0 203 214 221
-0.325 -10.225000000000001 0.0 143 177 111
-0.525 -10.225000000000001 0.0 136 165 183
-1.3250000000000002 -10.725000000000001 0.0 137 166 185
-1.425 -10.775 0.0 137 166 185
-1.8250000000000002 -10.525 0.0 246 246 246
4.9750000000000005 -9.925 0.0 116 152 176
4.775 -9.825000000000001 0.0 113 149 174
4.7250000000000005 -9.925 0.0 120 154 177
4.375 -9.875 0.0 246 246 246
3.5250000000000004 -9.975000000000001 0.0 246 246 246
2.6750000000000003 -10.475000000000001 0.0 246 246 246
2.025 -10.425 0.0 246 246 246
0.925 -10.375 0.0 139 165 185
0.8250000000000001 -10.475000000000001 0.0 136 165 183
0.7250000000000001 -10.675 0.0 136 164 183
0.125 -10.775 0.0 140 167 185
-0.325 -9.875 0.0 144 171 192
-1.8250000000000002 -10.625 0.0 246 246 246
4.025 -9.875 0.0 246 246 246
2.975 -10.225000000000001 0.0 246 246 246
0.8250000000000001 -10.425 0.0 137 166 185
-0.42500000000000004 -10.075000000000001 0.0 80 107 63
-0.525 -9.775 0.0 128 159 182
-1.475 -10.875 0.0 123 156 178
3.7750000000000004 -9.925 0.0 246 246 246
3.125 -10.175 0.0 246 246 246
2.4250000000000003 -10.425 0.0 246 246 246
1.8250000000000002 -10.475000000000001 0.0 245 245 245
1.675 -10.475000000000001 0.0 247 247 247
1.425 -10.375 0.0 246 247 246
1.0250000000000001 -10.125 0.0 246 246 246
0.025 -10.775 0.0 133 163 183
-0.42500000000000004 -9.525 0.0 10 10 10
4.9750000000000005 -8.975 0.0 65 116 3
4.275 -9.775 0.0 246 246 246
4.075 -9.875 0.0 247 247 247
2.625 -10.175 0.0 246 246 246
2.275 -10.275 0.0 246 246 246
1.5750000000000002 -10.475000000000001 0.0 246 246 246
3.2750000000000004 -10.175 0.0 246 246 246
1.925 -10.325000000000001 0.0 247 247 247
1.675 -10.425 0.0 246 246 246
0.8250000000000001 -10.175 0.0 136 165 185
-0.47500000000000003 -8.525 0.0 0 0 0
-0.5750000000000001 -7.875 0.0 110 111 111
-0.675 -7.825 0.0 30 30 30
-0.8250000000000001 -7.875 0.0 204 204 204
4.425 -9.725000000000001 0.0 244 244 245
3.125 -10.075000000000001 0.0 246 246 246
2.625 -10.075000000000001 0.0 246 246 246
2.4250000000000003 -10.225000000000001 0.0 247 247 247
-0.125 -8.625 0.0 5 6 5
-0.525 -7.775 0.0 114 114 114
-1.075 -8.075000000000001 0.0 73 83 87
-0.275 -7.925000000000001 0.0 98 103 104
-0.325 -7.7250000000000005 0.0 124 124 125
-0.8250000000000001 -7.675000000000001 0.0 97 97 98
-0.875 -7.7250000000000005 0.0 108 109 108
-0.9750000000000001 -7.775 0.0 99 99 100
4.525 -7.275 0.0 2 2 2
0.7250000000000001 -5.175000000000001 0.0 106 107 106
0.675 -4.9750000000000005 0.0 119 119 119
0.5750000000000001 -4.9750000000000005 0.0 119 119 119
1.725 -5.525 0.0 91 91 90
1.375 -5.275 0.0 103 104 104
0.775 -5.025 0.0 106 106 105
0.47500000000000003 -5.125 0.0 90 90 90
0.225 -5.275 0.0 115 115 115
0.125 -5.2250000000000005 0.0 61 65 65
2.625 -4.675 0.0 6 5 4
1.0250000000000001 -5.025 0.0 115 115 116
2.475 -4.875 0.0 50 51 51
2.275 -4.9750000000000005 0.0 65 64 65
1.925 -5.125 0.0 4 4 4
1.875 -5.175000000000001 0.0 4 4 4
1.3250000000000002 -5.075 0.0 81 81 81
3.375 -5.075 0.0 50 51 50
2.6750000000000003 -4.875 0.0 50 50 50
2.575 -4.925000000000001 0.0 42 43 42
2.125 -4.925000000000001 0.0 76 76 76
2.875 -4.775 0.0 56 56 56
2.7750000000000004 -4.775 0.0 138 129 98
5.775 -10.075000000000001 0.0 111 150 175
4.675 -9.775 0.0 148 174 192
4.325 -9.525 0.0 245 245 245
4.275 -9.725000000000001 0.0 246 246 246
3.875 -9.775 0.0 246 246 246
3.625 -9.825000000000001 0.0 246 247 246
3.575 -9.875 0.0 246 246 246
4.175 -9.725000000000001 0.0 246 246 246
4.075 -9.775 0.0 246 246 246
3.6750000000000003 -9.875 0.0 246 246 246
2.275 -9.625 0.0 4 4 4
2.025 -9.875 0.0 247 247 247
1.975 -10.225000000000001 0.0 247 247 247
1.425 -10.225000000000001 0.0 246 247 246
0.525 -10.475000000000001 0.0 139 167 186
0.275 -10.675 0.0 141 168 187
-0.025 -10.625 0.0 150 174 191
4.525 -9.675 0.0 113 151 175
3.5250000000000004 -9.825000000000001 0.0 246 246 246
3.125 -9.625 0.0 63 63 63
2.825 -9.775 0.0 3 3 3
0.47500000000000003 -10.325000000000001 0.0 155 178 194
-0.9750000000000001 -10.675 0.0 137 165 184
-1.125 -10.625 0.0 132 161 182
-1.2750000000000001 -10.725000000000001 0.0 147 173 190
-1.425 -10.675 0.0 139 166 185
5.2250000000000005 -10.025 0.0 116 153 177
4.875 -9.925 0.0 116 151 175
4.375 -9.625 0.0 246 247 246
2.125 -9.925 0.0 3 3 3
1.5750000000000002 -10.325000000000001 0.0 246 246 246
-0.025 -10.675 0.0 144 170 188
-0.875 -10.625 0.0 140 167 186
-1.5250000000000001 -10.525 0.0 167 189 202
-1.675 -10.675 0.0 246 247 246
-2.075 -10.825000000000001 0.0 246 246 246
6.375 -10.175 0.0 102 143 170
6.275 -10.175 0.0 103 144 171
6.125 -10.175 0.0 106 145 172
4.375 -9.775 0.0 246 246 246
3.0250000000000004 -9.675 0.0 3 3 3
2.375 -10.125 0.0 4 4 4
-1.2750000000000001 -10.675 0.0 136 165 184
-1.875 -10.675 0.0 246 246 246
-2.275 -10.825000000000001 0.0 246 246 246
2.1750000000000003 -10.175 0.0 3 3 3
-0.775 -10.525 0.0 154 178 193
-0.875 -10.725000000000001 0.0 140 167 185
1.3250000000000002 -10.425 0.0 246 246 246
0.925 -10.775 0.0 139 167 186
0.375 -10.525 0.0 149 173 190
4.825 -9.925 0.0 179 198 210
4.675 -9.925 0.0 112 149 173
-0.5750000000000001 -10.525 0.0 137 165 184
-1.125 -10.675 0.0 134 164 183
-1.3250000000000002 -10.675 0.0 135 156 171
-2.5250000000000004 -11.075000000000001 0.0 247 247 247
5.625 -10.375 0.0 109 148 173
-0.375 -10.375 0.0 180 203 145
-0.7250000000000001 -10.575000000000001 0.0 139 166 185
-1.8250000000000002 -10.725000000000001 0.0 246 247 246
4.9750000000000005 -8.825000000000001 0.0 102 155 28
3.325 -9.875 0.0 245 245 245
-0.275 -10.375 0.0 141 173 161
-0.625 -10.375 0.0 135 164 175
-2.4250000000000003 -11.025 0.0 247 247 247
4.925000000000001 -9.275 0.0 102 144 163
5.025 -9.625 0.0 106 138 57
4.7250000000000005 -9.975000000000001 0.0 111 149 174
4.175 -9.625 0.0 246 246 246
0.525 -10.675 0.0 137 165 184
-0.675 -9.875 0.0 149 174 191
4.925000000000001 -9.025 0.0 98 142 169
4.875 -9.575000000000001 0.0 104 146 172
3.2750000000000004 -9.975000000000001 0.0 246 247 246
0.42500000000000004 -10.775 0.0 138 165 184
0.325 -10.825000000000001 0.0 137 164 183
-0.025 -10.775 0.0 139 169 168
-0.225 -9.875 0.0 66 93 36
0.225 -10.775 0.0 137 166 185
-0.125 -11.025 0.0 137 166 185
-0.8250000000000001 -10.225000000000001 0.0 133 162 183
-2.275 -10.975000000000001 0.0 246 246 246
1.175 -10.475000000000001 0.0 219 226 230
0.07500000000000001 -10.725000000000001 0.0 132 163 182
-0.925 -11.175 0.0 131 160 181
-1.125 -10.725000000000001 0.0 133 162 183
5.275 -9.325000000000001 0.0 89 131 140
2.725 -10.125 0.0 246 245 246
-0.925 -10.975000000000001 0.0 139 167 186
-1.5250000000000001 -10.775 0.0 137 167 186
2.9250000000000003 -10.075000000000001 0.0 246 246 246
0.675 -10.275 0.0 132 162 182
0.5750000000000001 -10.325000000000001 0.0 137 165 184
0.17500000000000002 -10.225000000000001 0.0 130 160 181
0.025 -10.325000000000001 0.0 129 160 180
-2.5250000000000004 -11.025 0.0 246 246 246
-0.47500000000000003 -8.875 0.0 0 0 0
-1.875 -10.625 0.0 247 247 247
-0.47500000000000003 -8.475 0.0 0 0 0
-0.325 -8.575000000000001 0.0 3 3 3
-0.9750000000000001 -7.925000000000001 0.0 70 70 70
-1.0250000000000001 -8.075000000000001 0.0 4 4 4
-0.07500000000000001 -7.425000000000001 0.0 124 124 124
-0.47500000000000003 -7.625 0.0 96 98 98
-0.5750000000000001 -7.625 0.0 94 97 98
-1.175 -7.875 0.0 64 78 84
-0.7250000000000001 -7.625 0.0 0 0 0
2.4250000000000003 -4.925000000000001 0.0 45 45 45
1.225 -5.175000000000001 0.0 79 79 78
0.375 -5.4750000000000005 0.0 118 118 118
0.275 -5.825 0.0 4 4 4
2.6750000000000003 -4.675 0.0 231 223 182
2.575 -4.825 0.0 71 70 71
2.475 -4.925000000000001 0.0 49 50 50
2.325 -4.9750000000000005 0.0 42 42 42
2.225 -4.9750000000000005 0.0 39 39 39
0.275 -4.9750000000000005 0.0 4 4 4
5.525 -10.275 0.0 121 158 181
5.425000000000001 -10.225000000000001 0.0 121 155 178
5.275 -10.175 0.0 120 154 177
4.575 -9.725000000000001 0.0 185 202 212
2.725 -9.825000000000001 0.0 246 246 246
2.275 -9.875 0.0 247 247 247
2.1750000000000003 -9.975000000000001 0.0 246 246 246
5.2250000000000005 -10.125 0.0 120 156 178
5.025 -9.975000000000001 0.0 120 156 179
4.675 -9.725000000000001 0.0 117 151 174
3.6750000000000003 -9.975000000000001 0.0 84 84 84
2.975 -9.675 0.0 4 4 4
1.925 -9.775 0.0 247 247 247
1.875 -10.075000000000001 0.0 246 246 246
1.5250000000000001 -10.225000000000001 0.0 246 246 246
0.525 -10.375 0.0 141 169 187
-0.07500000000000001 -10.775 0.0 147 171 189
5.525 -10.225000000000001 0.0 117 154 178
5.075 -9.975000000000001 0.0 118 154 177
1.975 -9.975000000000001 0.0 246 246 246
1.7750000000000001 -10.375 0.0 246 246 246
1.5250000000000001 -10.175 0.0 246 246 246
1.425 -10.275 0.0 246 246 246
-0.375 -10.675 0.0 137 165 184
-2.125 -10.725000000000001 0.0 246 246 246
2.225 -10.225000000000001 0.0 5 5 5
1.8250000000000002 -10.275 0.0 246 246 246
1.675 -10.325000000000001 0.0 246 247 247
1.5250000000000001 -10.275 0.0 246 246 246
-1.3250000000000002 -10.625 0.0 137 159 173
4.4750000000000005 -9.625 0.0 114 150 175
3.4250000000000003 -9.725000000000001 0.0 246 246 246
3.125 -9.525 0.0 4 4 4
3.075 -9.725000000000001 0.0 4 4 4
2.9250000000000003 -10.025 0.0 153 153 153
2.325 -10.125 0.0 125 125 125
0.525 -10.775 0.0 142 169 187
-2.375 -10.825000000000001 0.0 246 246 246
1.225 -10.275 0.0 246 246 246
1.0250000000000001 -10.225000000000001 0.0 220 227 231
0.42500000000000004 -10.725000000000001 0.0 140 167 185
2.375 -10.275 0.0 125 125 125
0.775 -10.775 0.0 144 171 188
-0.525 -10.675 0.0 135 164 183
4.7250000000000005 -9.825000000000001 0.0 116 152 176
3.125 -9.675 0.0 27 27 27
2.125 -10.125 0.0 224 225 224
2.075 -10.325000000000001 0.0 246 246 246
-0.42500000000000004 -10.775 0.0 140 168 186
-1.8250000000000002 -10.675 0.0 246 246 246
3.9250000000000003 -9.725000000000001 0.0 246 246 246
3.125 -9.775 0.0 4 4 4
2.975 -9.925 0.0 4 4 4
2.825 -9.975000000000001 0.0 3 3 3
2.725 -10.025 0.0 4 4 4
-0.8250000000000001 -10.725000000000001 0.0 138 167 185
3.125 -9.925 0.0 246 246 246
2.9250000000000003 -9.925 0.0 247 247 247
1.225 -10.375 0.0 246 246 246
-0.025 -10.475000000000001 0.0 137 164 184
-0.9750000000000001 -10.875 0.0 135 165 185
3.225 -9.925 0.0 246 246 246
-0.325 -10.175 0.0 145 174 182
-0.525 -10.275 0.0 134 165 110
-0.625 -10.175 0.0 106 148 65
-1.5250000000000001 -10.425 0.0 133 163 183
4.825 -9.625 0.0 125 160 173
3.225 -9.975000000000001 0.0 246 246 246
2.975 -10.075000000000001 0.0 246 246 246
-0.5750000000000001 -9.825000000000001 0.0 137 168 136
-1.075 -10.725000000000001 0.0 137 166 185
2.025 -10.175 0.0 246 246 246
-0.275 -9.775 0.0 115 152 101
-0.7250000000000001 -10.175 0.0 78 122 22
-0.9750000000000001 -10.825000000000001 0.0 125 157 178
4.875 -9.125 0.0 117 153 170
3.0250000000000004 -10.175 0.0 247 247 247
2.7750000000000004 -10.175 0.0 246 246 246
2.6750000000000003 -10.175 0.0 246 246 246
-0.125 -10.875 0.0 131 161 183
-0.42500000000000004 -9.975000000000001 0.0 124 157 159
-2.125 -10.675 0.0 246 246 246
4.7250000000000005 -8.925 0.0 79 131 16
2.325 -10.375 0.0 246 246 246
-1.875 -10.475000000000001 0.0 246 246 246
3.4250000000000003 -10.075000000000001 0.0 245 245 245
1.075 -10.775 0.0 247 247 247
0.7250000000000001 -10.575000000000001 0.0 133 163 183
-0.325 -10.275 0.0 131 163 183
-1.225 -10.775 0.0 136 164 185
-2.025 -10.525 0.0 247 247 247
-2.125 -10.625 0.0 246 247 246
-2.225 -10.675 0.0 246 246 246
3.225 -10.175 0.0 246 247 246
0.07500000000000001 -10.275 0.0 139 168 187
-0.125 -10.425 0.0 134 163 183
-1.2750000000000001 -10.275 0.0 123 155 177
0.275 -10.025 0.0 88 111 129
0.07500000000000001 -10.225000000000001 0.0 110 140 161
-0.025 -10.025 0.0 99 127 146
-0.125 -10.175 0.0 84 109 126
-0.375 -9.225 0.0 1 1 1
-0.47500000000000003 -8.125 0.0 0 0 0
-0.42500000000000004 -7.675000000000001 0.0 41 41 41
-0.675 -7.875 0.0 1 1 1
-1.225 -8.025 0.0 147 147 147
-1.2750000000000001 -7.9750000000000005 0.0 142 142 142
-0.375 -7.525 0.0 106 106 106
-0.42500000000000004 -7.625 0.0 105 104 104
-0.7250000000000001 -7.675000000000001 0.0 1 1 1
-1.175 -7.825 0.0 100 100 101
-1.5250000000000001 -8.025 0.0 153 153 153
0.225 -5.675000000000001 0.0 95 96 96
0.525 -5.025 0.0 91 91 91
1.875 -4.925000000000001 0.0 0 0 0
-1.725 -10.725000000000001 0.0 246 246 246
-1.375 -10.725000000000001 0.0 131 161 182
-1.625 -10.675 0.0 143 143 143
1.875 -9.975000000000001 0.0 246 246 246
0.9750000000000001 -10.675 0.0 146 173 190
0.025 -10.725000000000001 0.0 143 169 187
-0.7250000000000001 -10.675 0.0 134 164 184
3.7750000000000004 -9.825000000000001 0.0 246 246 246
2.125 -9.825000000000001 0.0 5 5 5
-1.5750000000000002 -10.725000000000001 0.0 132 162 183
4.925000000000001 -10.025 0.0 121 154 177
4.125 -9.625 0.0 246 246 246
2.975 -9.625 0.0 4 4 4
2.5250000000000004 -9.875 0.0 5 5 5
5.125 -10.075000000000001 0.0 119 153 176
2.825 -9.875 0.0 4 4 4
4.075 -9.675 0.0 246 246 246
3.125 -9.475 0.0 3 3 3
2.475 -10.275 0.0 166 165 165
-0.7250000000000001 -10.525 0.0 137 165 184
4.2250000000000005 -9.725000000000001 0.0 246 247 246
2.125 -10.175 0.0 246 246 246
2.5250000000000004 -10.125 0.0 4 4 4
1.8250000000000002 -10.175 0.0 247 247 247
1.625 -10.225000000000001 0.0 247 247 247
-1.625 -10.825000000000001 0.0 146 152 154
2.275 -9.975000000000001 0.0 247 247 247
5.4750000000000005 -10.075000000000001 0.0 115 154 178
1.925 -10.175 0.0 246 246 246
-1.2750000000000001 -10.775 0.0 134 151 162
4.875 -9.675 0.0 110 146 171
2.275 -10.125 0.0 246 247 246
5.125 -8.975 0.0 95 148 29
2.825 -10.125 0.0 247 247 247
1.925 -10.425 0.0 247 247 247
-0.125 -10.525 0.0 128 159 180
4.9750000000000005 -9.225 0.0 99 143 159
3.475 -10.075000000000001 0.0 246 247 246
3.075 -10.225000000000001 0.0 246 246 246
2.5250000000000004 -10.275 0.0 245 245 245
-0.47500000000000003 -9.425 0.0 5 6 5
4.2250000000000005 -9.525 0.0 246 246 246
1.5750000000000002 -10.425 0.0 246 246 246
0.375 -10.025 0.0 124 157 180
-0.17500000000000002 -10.325000000000001 0.0 4 4 4
2.975 -10.175 0.0 246 246 246
-0.9750000000000001 -7.9750000000000005 0.0 5 5 5
4.925000000000001 -9.075000000000001 0.0 131 122 77
4.9750000000000005 -8.475 0.0 41 53 62
-0.07500000000000001 -7.525 0.0 95 104 107
-0.325 -7.525 0.0 103 103 103
-0.675 -7.675000000000001 0.0 0 0 0
-1.075 -7.825 0.0 101 101 101
0.225 -5.125 0.0 55 54 55
2.275 -4.825 0.0 36 36 36
2.125 -5.075 0.0 1 1 1
2.325 -4.825 0.0 34 34 34
2.5250000000000004 -10.025 0.0 246 246 246
2.325 -10.025 0.0 246 246 246
3.325 -9.625 0.0 246 246 246
2.375 -9.775 0.0 6 6 6
3.1750000000000003 -9.525 0.0 3 3 3
2.325 -10.175 0.0 126 126 126
-2.025 -10.675 0.0 246 246 246
-2.375 -10.875 0.0 246 246 246
0.8250000000000001 -10.725000000000001 0.0 140 168 187
0.7250000000000001 -10.825000000000001 0.0 144 169 188
-0.675 -10.375 0.0 133 163 183
4.375 -9.525 0.0 197 210 219
-0.5750000000000001 -10.275 0.0 128 169 65
-0.42500000000000004 -9.875 0.0 100 141 91
4.625 -9.925 0.0 110 146 171
3.0250000000000004 -10.075000000000001 0.0 246 246 246
2.325 -10.325000000000001 0.0 247 247 247
3.375 -10.175 0.0 246 246 246
0.275 -10.375 0.0 134 164 184
4.2250000000000005 -9.675 0.0 245 245 245
3.7750000000000004 -9.975000000000001 0.0 245 245 245
2.575 -10.225000000000001 0.0 246 247 246
2.025 -10.325000000000001 0.0 246 247 246
-1.975 -10.625 0.0 246 246 246
-2.725 -10.775 0.0 245 245 245
-0.325 -9.175 0.0 2 2 2
-0.17500000000000002 -7.525 0.0 99 99 99
-0.42500000000000004 -7.775 0.0 92 92 93
-0.875 -7.625 0.0 80 80 80
-1.125 -7.775 0.0 80 80 80
-1.2750000000000001 -7.925000000000001 0.0 73 73 73
0.225 -5.775 0.0 3 3 3
1.625 -5.075 0.0 54 54 54
1.975 -9.775 0.0 246 247 246
2.6750000000000003 -9.725000000000001 0.0 5 5 5
2.325 -9.775 0.0 239 239 239
-0.5750000000000001 -10.675 0.0 136 163 183
4.825 -9.975000000000001 0.0 246 246 246
2.625 -10.775 0.0 173 173 173
3.725 -10.075000000000001 0.0 246 246 246
3.625 -10.075000000000001 0.0 246 246 246
3.4250000000000003 -10.025 0.0 246 246 246
-0.125 -9.675 0.0 63 89 6
-1.625 -10.425 0.0 247 247 247
4.7250000000000005 -9.125 0.0 112 151 175
-0.775 -10.125 0.0 122 154 176
2.6750000000000003 -10.225000000000001 0.0 246 246 246
2.575 -10.325000000000001 0.0 246 246 246
2.225 -10.525 0.0 246 246 246
1.5250000000000001 -10.575000000000001 0.0 246 246 246
2.475 -10.225000000000001 0.0 246 246 246
2.075 -10.425 0.0 246 246 246
-2.275 -10.625 0.0 246 247 246
1.3250000000000002 -10.175 0.0 246 247 246
-1.5250000000000001 -10.175 0.0 246 246 246
-0.375 -8.725 0.0 0 0 0
-0.275 -7.375 0.0 99 99 99
1.8250000000000002 -4.925000000000001 0.0 4 4 4
2.575 -9.425 0.0 6 6 6
2.325 -9.525 0.0 6 6 6
0.7250000000000001 -10.725000000000001 0.0 154 179 195
5.025 -10.075000000000001 0.0 247 247 247
4.925000000000001 -10.075000000000001 0.0 246 246 246
0.42500000000000004 -10.925 0.0 142 168 187
-0.525 -10.775 0.0 135 163 182
0.625 -10.875 0.0 144 171 189
0.025 -10.925 0.0 142 170 187
-1.225 -10.525 0.0 127 159 180
-1.3250000000000002 -10.525 0.0 245 245 245
3.325 -10.075000000000001 0.0 246 246 246
2.275 -10.625 0.0 247 247 247
0.07500000000000001 -10.875 0.0 129 160 180
-0.525 -10.175 0.0 131 161 181
2.4250000000000003 -10.525 0.0 246 246 246
5.175000000000001 -10.325000000000001 0.0 246 246 246
3.2750000000000004 -10.225000000000001 0.0 246 246 246
5.175000000000001 -9.675 0.0 111 149 174
-1.075 -10.775 0.0 122 155 177
0.42500000000000004 -10.425 0.0 127 161 182
-0.17500000000000002 -9.375 0.0 1 1 1
-0.42500000000000004 -8.025 0.0 73 74 73
-1.075 -7.925000000000001 0.0 86 86 86
0.275 -5.7250000000000005 0.0 219 220 219
2.1750000000000003 -9.925 0.0 246 246 246
3.875 -10.025 0.0 246 246 246
4.125 -9.975000000000001 0.0 246 247 246
-0.17500000000000002 -10.975000000000001 0.0 135 163 183
2.725 -9.925 0.0 5 5 5
2.625 -9.925 0.0 5 5 5
0.875 -10.725000000000001 0.0 144 170 188
0.675 -10.825000000000001 0.0 146 172 190
-0.025 -10.925 0.0 138 166 186
-0.275 -10.875 0.0 135 164 184
0.9750000000000001 -10.625 0.0 136 164 182
2.325 -10.625 0.0 246 246 246
1.3250000000000002 -11.075000000000001 0.0 131 161 181
0.9750000000000001 -10.725000000000001 0.0 135 164 184
1.2750000000000001 -11.025 0.0 130 160 181
1.375 -10.975000000000001 0.0 246 246 246
0.5750000000000001 -10.725000000000001 0.0 139 167 187
0.7250000000000001 -10.325000000000001 0.0 134 162 183
1.125 -10.825000000000001 0.0 128 159 180
-0.525 -9.325000000000001 0.0 0 0 0
-0.5750000000000001 -9.175 0.0 0 0 0
-0.375 -8.775 0.0 2 2 2
-0.47500000000000003 -7.9750000000000005 0.0 1 1 1
-0.7250000000000001 -7.925000000000001 0.0 7 7 7
-1.175 -8.675 0.0 246 246 246
-0.42500000000000004 -7.875 0.0 58 58 58
-1.425 -8.275 0.0 58 58 58
-0.275 -7.575 0.0 98 98 98
-1.3250000000000002 -7.925000000000001 0.0 66 66 66
0.775 -4.775 0.0 5 6 5
0.7250000000000001 -4.9750000000000005 0.0 6 6 6
0.525 -4.825 0.0 53 52 53
0.325 -4.825 0.0 5 5 5
0.5750000000000001 -4.825 0.0 88 88 88
0.375 -4.925000000000001 0.0 71 71 71
0.325 -4.875 0.0 3 3 3
0.625 -4.925000000000001 0.0 69 69 69
0.375 -5.025 0.0 13 13 13
1.475 -4.825 0.0 48 48 48
1.3250000000000002 -4.825 0.0 52 52 52
1.2750000000000001 -4.775 0.0 57 57 57
1.0250000000000001 -4.775 0.0 53 53 53
0.925 -4.825 0.0 55 55 55
0.5750000000000001 -4.875 0.0 59 59 59
0.225 -4.825 0.0 220 220 220
