ply
format ascii 1.0
element vertex 128
property float x
property float y
property float z
property uchar red
property uchar green
property uchar blue
end_header
4.4750000000000005 0.5750000000000001 0.0 1 1 1
4.625 0.5750000000000001 0.0 71 72 71
4.575 0.125 0.0 136 135 135
4.575 0.275 0.0 139 140 139
4.625 -0.225 0.0 136 137 136
4.575 0.42500000000000004 0.0 134 135 134
4.525 0.325 0.0 156 156 156
4.575 0.225 0.0 135 135 135
4.625 0.47500000000000003 0.0 134 135 134
4.525 0.42500000000000004 0.0 139 140 139
4.525 0.17500000000000002 0.0 136 136 136
4.925000000000001 -0.325 0.0 137 138 137
5.875 -3.1750000000000003 0.0 147 152 155
4.9750000000000005 -2.825 0.0 140 144 147
4.4750000000000005 0.125 0.0 136 136 136
4.4750000000000005 -0.125 0.0 137 138 137
5.925000000000001 -3.225 0.0 146 150 155
4.4750000000000005 -0.225 0.0 137 137 137
5.9750000000000005 -3.0250000000000004 0.0 1 1 1
4.9750000000000005 -2.875 0.0 143 146 149
4.775 0.625 0.0 1 1 1
4.925000000000001 -2.825 0.0 141 144 148
4.425 0.325 0.0 139 139 139
5.025 -0.125 0.0 134 135 134
4.2250000000000005 0.125 0.0 135 135 135
4.175 0.375 0.0 136 137 136
4.675 0.025 0.0 132 133 133
5.675000000000001 -3.0250000000000004 0.0 137 139 142
4.275 0.325 0.0 136 137 136
4.575 -0.07500000000000001 0.0 137 137 137
4.675 -0.025 0.0 136 137 136
5.175000000000001 0.7250000000000001 0.0 1 1 1
4.7250000000000005 0.47500000000000003 0.0 135 135 135
5.875 -2.975 0.0 1 1 1
4.675 0.225 0.0 135 135 135
5.175000000000001 -2.875 0.0 141 144 148
4.925000000000001 0.625 0.0 12 12 12
4.775 0.525 0.0 138 139 138
4.675 0.42500000000000004 0.0 135 135 135
4.625 -0.025 0.0 136 137 136
5.9750000000000005 -2.9250000000000003 0.0 14 14 16
4.675 -0.07500000000000001 0.0 136 135 136
6.075 -3.325 0.0 140 143 146
4.525 -0.025 0.0 137 138 137
4.675 -0.17500000000000002 0.0 139 140 139
5.9750000000000005 -2.975 0.0 2 2 2
4.7250000000000005 0.5750000000000001 0.0 140 141 140
4.875 0.625 0.0 1 1 1
4.675 0.525 0.0 136 136 136
6.025 -3.1750000000000003 0.0 136 139 142
4.7250000000000005 -0.17500000000000002 0.0 139 139 139
4.175 0.325 0.0 134 135 134
4.925000000000001 -0.07500000000000001 0.0 136 136 136
4.9750000000000005 -0.17500000000000002 0.0 133 133 133
4.925000000000001 -0.025 0.0 136 137 136
5.925000000000001 -2.975 0.0 2 2 2
5.075 -0.225 0.0 138 140 139
4.775 -0.07500000000000001 0.0 135 135 135
5.025 0.675 0.0 1 1 1
4.875 -0.275 0.0 136 136 136
5.9750000000000005 -3.325 0.0 142 145 149
4.525 -0.275 0.0 139 141 139
4.775 -0.325 0.0 134 135 135
4.775 0.275 0.0 136 137 136
4.825 0.225 0.0 134 135 134
4.775 0.125 0.0 133 133 133
4.7250000000000005 0.025 0.0 132 132 133
4.925000000000001 -2.875 0.0 142 144 147
4.925000000000001 0.675 0.0 1 1 1
5.925000000000001 -3.0250000000000004 0.0 1 1 1
4.575 0.025 0.0 136 137 136
5.875 -3.0250000000000004 0.0 142 143 144
4.875 -0.025 0.0 136 137 136
5.575 -3.125 0.0 144 147 150
4.775 -0.025 0.0 135 135 135
4.925000000000001 -0.17500000000000002 0.0 136 137 137
5.075 -2.875 0.0 142 144 146
4.9750000000000005 0.625 0.0 1 1 1
4.9750000000000005 -0.375 0.0 140 147 150
5.875 -2.875 0.0 18 19 22
4.375 0.375 0.0 161 161 161
4.7250000000000005 -0.07500000000000001 0.0 137 138 137
5.925000000000001 -3.075 0.0 86 87 88
5.775 -3.225 0.0 139 143 146
4.7250000000000005 -0.275 0.0 137 138 137
4.575 -0.275 0.0 139 141 139
5.825 -3.0250000000000004 0.0 1 1 1
4.525 0.025 0.0 134 136 135
5.875 -3.2750000000000004 0.0 142 145 149
4.875 -2.9250000000000003 0.0 142 144 147
4.825 -2.875 0.0 143 146 149
4.375 -0.17500000000000002 0.0 137 138 137
4.875 -2.7750000000000004 0.0 141 144 146
4.7250000000000005 0.125 0.0 134 133 134
5.7250000000000005 -3.075 0.0 143 145 150
4.9750000000000005 -0.325 0.0 140 140 140
4.875 0.525 0.0 134 134 134
5.825 -3.075 0.0 143 145 147
5.925000000000001 -2.9250000000000003 0.0 5 5 5
5.7250000000000005 -2.9250000000000003 0.0 1 1 1
4.7250000000000005 0.375 0.0 131 131 131
5.825 -2.975 0.0 1 1 1
4.875 -0.375 0.0 167 168 169
4.925000000000001 -0.375 0.0 72 75 80
5.925000000000001 -3.325 0.0 141 144 148
4.425 -0.025 0.0 134 135 134
4.825 3.0250000000000004 0.0 213 215 217
4.425 0.025 0.0 190 190 190
4.375 0.07500000000000001 0.0 134 135 134
4.175 0.47500000000000003 0.0 192 192 192
4.375 -0.125 0.0 135 136 135
4.425 0.47500000000000003 0.0 244 244 244
4.425 0.225 0.0 244 245 244
4.175 3.4250000000000003 0.0 246 246 246
4.125 3.4250000000000003 0.0 245 245 245
4.025 3.475 0.0 245 245 245
5.025 3.2750000000000004 0.0 85 81 82
4.025 6.925000000000001 0.0 232 233 232
5.075 3.375 0.0 37 37 35
5.125 3.2750000000000004 0.0 74 70 69
1.875 5.525 0.0 219 153 153
4.525 4.075 0.0 236 236 236
4.525 4.025 0.0 236 236 236
3.125 5.325 0.0 92 125 72
4.825 7.125 0.0 45 43 42
4.675 7.025 0.0 104 104 103
4.275 6.9750000000000005 0.0 244 244 244
0.675 5.425000000000001 0.0 174 158 103
