ply
format ascii 1.0
element vertex 812
property float x
property float y
property float z
property uchar red
property uchar green
property uchar blue
end_header
5.025 0.07500000000000001 0.0 202 202 202
5.025 0.025 0.0 191 191 191
4.9750000000000005 -0.07500000000000001 0.0 231 231 231
5.075 0.125 0.0 133 133 133
5.075 0.17500000000000002 0.0 191 191 191
4.9750000000000005 0.275 0.0 219 219 219
4.9750000000000005 0.17500000000000002 0.0 239 239 239
5.025 -0.275 0.0 241 241 241
5.075 -0.325 0.0 229 229 229
4.925000000000001 0.17500000000000002 0.0 202 202 202
4.925000000000001 0.125 0.0 233 233 233
4.925000000000001 0.325 0.0 209 209 209
4.875 0.275 0.0 209 210 209
4.925000000000001 0.375 0.0 232 232 232
4.875 0.375 0.0 218 218 218
4.7250000000000005 0.375 0.0 208 208 208
4.925000000000001 0.025 0.0 232 233 232
4.825 0.325 0.0 191 191 191
4.875 0.125 0.0 227 227 227
4.7250000000000005 0.325 0.0 210 210 210
4.875 0.025 0.0 191 191 191
4.875 -0.17500000000000002 0.0 219 219 219
4.875 -0.07500000000000001 0.0 220 220 220
4.925000000000001 0.47500000000000003 0.0 240 240 240
4.925000000000001 -0.375 0.0 210 211 212
4.825 -0.07500000000000001 0.0 139 140 139
0.07500000000000001 0.07500000000000001 0.0 25 25 25
0.07500000000000001 0.025 0.0 12 12 12
0.07500000000000001 -0.025 0.0 4 4 4
0.07500000000000001 -0.07500000000000001 0.0 15 16 17
5.125 0.025 0.0 246 246 246
5.125 -0.025 0.0 245 245 245
5.125 -0.125 0.0 245 246 245
5.125 -0.17500000000000002 0.0 245 246 245
5.025 -0.225 0.0 245 246 245
5.025 -0.375 0.0 243 243 243
5.9750000000000005 -3.225 0.0 188 189 188
5.9750000000000005 -3.2750000000000004 0.0 192 193 192
5.9750000000000005 -3.125 0.0 188 187 187
4.9750000000000005 -0.025 0.0 246 246 246
5.9750000000000005 -2.9250000000000003 0.0 96 95 95
4.925000000000001 -0.07500000000000001 0.0 245 246 245
4.925000000000001 -0.17500000000000002 0.0 246 246 246
5.925000000000001 0.7250000000000001 0.0 171 170 170
4.925000000000001 -0.025 0.0 246 246 246
4.875 0.17500000000000002 0.0 246 246 246
4.875 -0.025 0.0 246 246 246
6.175000000000001 -3.325 0.0 190 190 190
5.075 0.375 0.0 246 246 246
5.075 0.325 0.0 247 247 247
5.025 0.47500000000000003 0.0 245 245 245
5.025 0.375 0.0 246 245 246
5.9750000000000005 0.775 0.0 176 176 176
4.925000000000001 -0.275 0.0 246 246 246
5.925000000000001 0.775 0.0 206 206 206
4.875 -0.375 0.0 222 222 223
4.7250000000000005 -0.17500000000000002 0.0 245 245 245
4.675 -0.225 0.0 246 246 246
5.075 0.675 0.0 232 232 232
5.025 0.675 0.0 227 228 227
5.075 0.525 0.0 245 246 245
4.825 -0.025 0.0 246 245 246
4.825 0.125 0.0 245 245 245
4.775 0.025 0.0 246 246 246
5.925000000000001 -3.225 0.0 191 191 191
5.925000000000001 -3.325 0.0 185 185 185
4.925000000000001 -2.825 0.0 192 193 192
5.925000000000001 -2.9250000000000003 0.0 90 88 89
4.825 0.225 0.0 246 246 246
5.925000000000001 -3.125 0.0 193 193 193
4.675 0.325 0.0 245 245 245
5.925000000000001 -3.0250000000000004 0.0 56 54 54
5.875 -3.125 0.0 191 191 191
5.875 -3.2750000000000004 0.0 190 191 191
5.875 -2.975 0.0 56 54 52
4.625 0.375 0.0 246 246 246
5.875 -2.9250000000000003 0.0 58 58 58
5.875 -3.225 0.0 196 197 196
4.875 -2.825 0.0 194 194 194
4.875 0.525 0.0 247 247 247
5.025 -2.875 0.0 193 194 193
6.025 -3.0250000000000004 0.0 54 55 53
5.025 -2.825 0.0 194 195 194
6.025 -2.975 0.0 70 69 69
4.9750000000000005 0.5750000000000001 0.0 246 246 246
5.875 0.675 0.0 216 216 216
4.825 -0.17500000000000002 0.0 245 246 245
5.075 7.275 0.0 34 33 32
5.075 7.2250000000000005 0.0 36 36 33
4.325 3.975 0.0 244 244 244
4.925000000000001 3.075 0.0 73 69 68
5.325 3.475 0.0 240 240 240
5.425000000000001 3.325 0.0 89 85 84
2.975 5.2250000000000005 0.0 166 199 92
3.2750000000000004 4.675 0.0 160 183 130
0.8250000000000001 11.125 0.0 74 120 151
5.275 3.325 0.0 27 28 27
5.375 3.325 0.0 33 31 32
-0.17500000000000002 10.725000000000001 0.0 129 159 180
-1.225 10.425 0.0 246 246 246
-0.9750000000000001 10.375 0.0 142 169 187
-0.07500000000000001 10.675 0.0 117 134 144
2.725 4.7250000000000005 0.0 89 137 3
2.225 7.425000000000001 0.0 237 237 236
4.625 7.075 0.0 106 145 90
-1.625 10.825000000000001 0.0 246 246 246
4.125 6.775 0.0 245 245 245
-1.7750000000000001 10.975000000000001 0.0 246 246 246
4.125 6.7250000000000005 0.0 245 245 245
3.9250000000000003 6.825 0.0 219 219 219
-1.5750000000000002 10.475000000000001 0.0 239 241 242
-1.625 9.875 0.0 197 210 173
-1.175 10.575000000000001 0.0 246 246 246
3.975 6.7250000000000005 0.0 246 246 246
2.7750000000000004 4.825 0.0 74 133 4
4.2250000000000005 6.675000000000001 0.0 245 245 245
-6.325 9.775 0.0 106 126 123
-1.625 10.875 0.0 247 247 247
-0.8250000000000001 10.425 0.0 144 171 189
-0.42500000000000004 10.375 0.0 170 182 190
0.7250000000000001 10.625 0.0 143 171 189
1.425 10.875 0.0 143 172 190
-6.2250000000000005 10.225000000000001 0.0 246 246 246
0.775 10.725000000000001 0.0 145 171 189
1.0250000000000001 10.725000000000001 0.0 149 172 187
1.5750000000000002 10.925 0.0 147 174 191
2.5250000000000004 10.775 0.0 246 246 246
-2.025 10.775 0.0 247 247 247
-0.275 10.475000000000001 0.0 145 171 189
0.625 10.575000000000001 0.0 155 176 190
1.175 10.625 0.0 165 185 197
1.2750000000000001 10.675 0.0 157 179 193
1.3250000000000002 10.825000000000001 0.0 137 164 184
1.425 10.775 0.0 136 166 185
-6.075 9.575000000000001 0.0 197 212 175
-1.0250000000000001 10.475000000000001 0.0 146 172 189
-0.875 10.425 0.0 142 168 186
-0.225 10.525 0.0 145 171 189
-0.125 10.425 0.0 151 174 190
0.775 10.575000000000001 0.0 161 182 196
1.175 10.775 0.0 142 169 188
-5.575 10.225000000000001 0.0 245 245 245
-1.2750000000000001 10.525 0.0 246 246 246
-0.47500000000000003 10.475000000000001 0.0 141 167 186
0.525 10.525 0.0 146 169 184
0.925 10.625 0.0 154 176 191
0.42500000000000004 10.575000000000001 0.0 157 180 195
0.925 10.675 0.0 153 178 194
-0.07500000000000001 10.525 0.0 151 175 192
0.675 10.625 0.0 156 178 193
-0.17500000000000002 10.675 0.0 156 179 195
3.475 10.825000000000001 0.0 147 148 149
-0.8250000000000001 10.075000000000001 0.0 121 122 121
1.475 10.525 0.0 115 122 126
1.625 10.625 0.0 100 123 140
-2.5250000000000004 3.1750000000000003 0.0 110 111 110
-2.275 2.625 0.0 112 110 109
-2.225 2.625 0.0 147 147 147
-2.1750000000000003 2.5250000000000004 0.0 109 108 109
-2.125 2.5250000000000004 0.0 148 148 148
-2.075 2.575 0.0 132 133 132
-2.025 2.375 0.0 110 111 110
-1.7750000000000001 10.725000000000001 0.0 246 247 246
-0.525 10.425 0.0 144 169 186
-1.125 10.525 0.0 229 233 235
-0.325 10.375 0.0 157 177 190
-1.075 10.475000000000001 0.0 188 203 214
0.225 10.375 0.0 206 206 206
-6.125 9.375 0.0 101 152 56
-1.875 11.125 0.0 247 247 247
-0.625 10.625 0.0 159 180 195
-1.075 10.575000000000001 0.0 141 167 185
-0.375 10.475000000000001 0.0 146 172 190
-1.5250000000000001 10.325000000000001 0.0 241 243 236
-1.075 10.675 0.0 148 173 190
-0.7250000000000001 10.575000000000001 0.0 127 149 164
-1.725 10.075000000000001 0.0 246 246 246
-1.7750000000000001 9.775 0.0 245 246 245
-1.125 10.325000000000001 0.0 237 239 241
-0.325 10.675 0.0 152 176 192
-1.425 9.675 0.0 163 185 139
-1.3250000000000002 9.925 0.0 240 242 238
-1.0250000000000001 10.325000000000001 0.0 143 170 188
-0.875 10.325000000000001 0.0 140 166 184
-0.42500000000000004 10.625 0.0 153 174 189
-1.375 10.625 0.0 247 247 247
-1.125 10.375 0.0 230 233 235
-3.575 3.2750000000000004 0.0 121 78 77
-3.2750000000000004 3.325 0.0 114 69 70
0.925 10.525 0.0 136 156 170
-3.375 3.375 0.0 109 68 69
-3.225 3.2750000000000004 0.0 112 70 69
-3.6750000000000003 3.325 0.0 126 81 82
-3.2750000000000004 3.375 0.0 111 69 69
-3.075 3.2750000000000004 0.0 113 69 68
-6.2250000000000005 10.425 0.0 246 246 246
-5.375 10.125 0.0 181 182 182
-6.325 9.925 0.0 246 246 246
-5.375 9.925 0.0 133 133 133
-1.175 10.675 0.0 247 247 247
-0.875 10.775 0.0 147 171 188
-0.625 10.875 0.0 149 173 190
-1.425 10.875 0.0 247 247 247
-0.875 10.725000000000001 0.0 142 168 186
-6.625 9.975000000000001 0.0 116 153 175
-6.375 10.025 0.0 246 247 246
-0.625 10.975000000000001 0.0 144 169 188
0.525 10.625 0.0 166 187 200
-1.675 10.775 0.0 246 246 246
-0.9750000000000001 10.575000000000001 0.0 145 170 188
-6.075 9.325000000000001 0.0 93 151 25
-5.7250000000000005 9.475 0.0 200 217 164
0.775 10.475000000000001 0.0 184 200 209
2.4250000000000003 10.825000000000001 0.0 134 165 186
-0.9750000000000001 10.725000000000001 0.0 145 171 188
-0.8250000000000001 10.825000000000001 0.0 148 173 190
0.5750000000000001 10.675 0.0 181 197 208
0.7250000000000001 10.675 0.0 235 234 232
2.575 10.825000000000001 0.0 246 246 246
-6.2250000000000005 9.425 0.0 96 135 83
-6.125 9.475 0.0 79 131 18
-1.5250000000000001 9.925 0.0 152 185 90
-0.675 10.675 0.0 152 175 192
-0.42500000000000004 10.725000000000001 0.0 150 174 190
0.47500000000000003 10.675 0.0 159 181 196
1.125 10.775 0.0 159 180 195
1.925 11.175 0.0 139 167 186
2.075 11.225000000000001 0.0 139 167 186
2.225 11.275 0.0 139 167 186
-1.375 9.575000000000001 0.0 206 221 163
-0.675 10.775 0.0 150 174 191
-1.475 9.625 0.0 183 199 169
-0.775 10.625 0.0 145 170 188
-0.525 10.725000000000001 0.0 146 171 189
-0.42500000000000004 10.675 0.0 150 174 190
1.5250000000000001 10.925 0.0 146 172 190
1.8250000000000002 11.075000000000001 0.0 144 170 189
1.925 11.075000000000001 0.0 141 170 188
-0.675 10.525 0.0 144 170 189
-0.025 10.525 0.0 147 173 190
-1.175 10.525 0.0 246 246 246
-0.775 10.175 0.0 145 172 189
-0.525 10.575000000000001 0.0 149 174 190
1.675 10.875 0.0 137 167 186
-1.5750000000000002 9.675 0.0 204 214 196
0.275 10.675 0.0 147 172 189
2.325 11.025 0.0 135 166 186
3.0250000000000004 11.225000000000001 0.0 247 247 247
1.425 10.625 0.0 144 171 189
1.5250000000000001 10.725000000000001 0.0 135 162 181
2.025 10.675 0.0 119 146 164
2.325 10.825000000000001 0.0 127 160 181
1.975 10.475000000000001 0.0 203 203 203
2.275 10.625 0.0 180 180 180
-6.175000000000001 10.025 0.0 246 246 246
-6.075 10.125 0.0 246 246 246
-5.775 10.075000000000001 0.0 246 246 246
-6.775 10.275 0.0 128 160 182
0.17500000000000002 10.525 0.0 159 181 196
0.925 10.775 0.0 148 174 192
-6.325 10.025 0.0 247 247 247
-6.175000000000001 10.275 0.0 246 246 246
-5.575 10.275 0.0 241 241 241
-2.025 10.925 0.0 247 247 247
-1.875 10.925 0.0 247 247 247
-1.725 10.675 0.0 246 247 246
1.2750000000000001 10.825000000000001 0.0 140 168 187
-5.7250000000000005 10.325000000000001 0.0 246 246 246
-5.325 10.025 0.0 183 183 183
-1.875 10.975000000000001 0.0 246 247 247
0.225 10.675 0.0 167 185 197
0.325 10.375 0.0 193 195 196
-1.5750000000000002 10.625 0.0 247 247 247
-1.725 10.725000000000001 0.0 247 247 247
-0.025 10.625 0.0 145 166 181
1.125 10.575000000000001 0.0 170 177 180
1.5250000000000001 10.825000000000001 0.0 136 166 186
-5.925000000000001 10.375 0.0 246 246 246
-5.525 10.175 0.0 238 239 238
-1.725 10.575000000000001 0.0 246 246 246
-1.8250000000000002 10.575000000000001 0.0 247 248 247
-1.425 10.325000000000001 0.0 220 227 231
-1.3250000000000002 10.275 0.0 247 247 247
0.025 10.575000000000001 0.0 148 172 189
2.025 11.075000000000001 0.0 128 160 181
-5.875 9.675 0.0 240 242 238
-0.7250000000000001 10.425 0.0 139 165 184
-0.5750000000000001 10.475000000000001 0.0 142 169 187
-0.325 10.625 0.0 145 170 188
-6.275 9.225 0.0 64 110 22
-6.125 9.175 0.0 61 107 15
-1.8250000000000002 10.375 0.0 245 245 244
0.375 10.525 0.0 156 177 191
1.175 10.675 0.0 150 174 190
-5.825 10.375 0.0 246 247 246
1.875 10.675 0.0 136 162 179
-6.125 9.875 0.0 247 247 247
-5.4750000000000005 10.375 0.0 204 204 204
-0.07500000000000001 10.575000000000001 0.0 152 175 190
0.125 10.575000000000001 0.0 150 175 191
2.275 11.025 0.0 125 158 179
0.375 10.675 0.0 149 174 191
0.625 10.525 0.0 155 175 188
1.3250000000000002 10.625 0.0 156 174 187
1.425 10.675 0.0 140 168 187
1.7750000000000001 10.725000000000001 0.0 130 161 182
-0.675 10.625 0.0 140 162 176
1.725 10.625 0.0 135 152 162
0.8250000000000001 10.325000000000001 0.0 112 132 148
1.625 10.425 0.0 187 187 187
-2.975 3.1750000000000003 0.0 111 66 68
-1.975 2.275 0.0 167 167 167
-6.175000000000001 9.825000000000001 0.0 246 246 246
-6.175000000000001 10.075000000000001 0.0 246 246 246
-2.025 10.725000000000001 0.0 210 223 175
-1.8250000000000002 11.125 0.0 246 246 246
-1.8250000000000002 11.175 0.0 246 246 246
-0.47500000000000003 10.925 0.0 150 174 190
-0.375 11.025 0.0 159 181 196
-6.125 9.775 0.0 246 246 246
-1.075 10.425 0.0 152 176 193
-0.875 10.625 0.0 149 173 190
-0.5750000000000001 10.725000000000001 0.0 150 174 190
-1.3250000000000002 10.925 0.0 247 247 247
-0.875 10.525 0.0 147 173 190
-0.675 10.725000000000001 0.0 147 173 190
-5.775 9.975000000000001 0.0 246 246 246
-1.875 10.825000000000001 0.0 247 246 246
-0.325 10.925 0.0 151 175 192
-1.375 10.425 0.0 230 235 237
-0.42500000000000004 10.875 0.0 142 169 187
-6.025 9.325000000000001 0.0 243 243 240
-1.7750000000000001 10.275 0.0 246 246 246
-1.2750000000000001 10.575000000000001 0.0 246 246 246
-6.125 9.525 0.0 137 163 104
-1.425 9.725000000000001 0.0 107 148 43
-1.175 10.925 0.0 247 247 247
-0.625 10.425 0.0 142 167 185
-0.325 10.775 0.0 142 169 187
-6.175000000000001 9.625 0.0 186 197 185
-1.475 9.525 0.0 85 128 35
-1.225 10.175 0.0 243 244 242
-1.3250000000000002 9.975000000000001 0.0 246 246 246
-0.675 10.175 0.0 149 162 171
-1.5750000000000002 9.775 0.0 172 184 146
-0.775 10.275 0.0 90 96 99
-0.675 10.325000000000001 0.0 134 150 162
-0.5750000000000001 10.275 0.0 114 119 123
-0.17500000000000002 10.575000000000001 0.0 144 170 189
-3.225 3.375 0.0 111 67 68
-1.8250000000000002 2.4250000000000003 0.0 170 167 163
-6.425000000000001 9.875 0.0 24 54 77
-6.375 9.775 0.0 25 52 75
-6.175000000000001 10.175 0.0 246 246 246
-6.075 10.225000000000001 0.0 247 247 247
-5.9750000000000005 10.325000000000001 0.0 246 246 246
-5.775 10.225000000000001 0.0 246 246 246
-5.375 9.975000000000001 0.0 166 165 165
-6.175000000000001 9.725000000000001 0.0 246 246 246
-6.325 10.225000000000001 0.0 246 246 246
-6.075 10.275 0.0 246 246 246
-2.075 10.375 0.0 246 246 246
-6.325 9.725000000000001 0.0 28 57 81
2.075 11.175 0.0 140 168 187
0.9750000000000001 10.675 0.0 156 179 194
1.075 10.675 0.0 161 182 196
1.175 10.725000000000001 0.0 154 178 194
1.2750000000000001 10.725000000000001 0.0 145 170 188
-5.9750000000000005 8.975 0.0 111 154 141
-5.9750000000000005 10.175 0.0 246 246 246
-1.925 10.525 0.0 246 246 246
-5.775 9.825000000000001 0.0 246 246 246
-5.575 10.175 0.0 246 246 246
-0.925 10.675 0.0 146 171 188
0.225 10.325000000000001 0.0 213 213 213
-6.025 9.125 0.0 98 148 26
-5.825 9.425 0.0 161 185 125
-2.025 10.425 0.0 246 246 246
0.275 10.525 0.0 151 175 192
0.9750000000000001 10.625 0.0 149 169 182
-6.175000000000001 9.525 0.0 136 160 110
-6.025 10.225000000000001 0.0 246 247 246
-1.0250000000000001 10.675 0.0 141 168 186
1.3250000000000002 10.725000000000001 0.0 145 172 189
-6.2250000000000005 9.875 0.0 245 245 245
-5.875 10.225000000000001 0.0 246 246 246
-5.625 10.025 0.0 246 246 246
-1.5750000000000002 9.975000000000001 0.0 98 146 12
-1.3250000000000002 9.725000000000001 0.0 246 246 246
-1.225 10.075000000000001 0.0 211 221 214
1.8250000000000002 10.875 0.0 136 166 185
-7.7250000000000005 9.525 0.0 1 1 1
-6.275 9.475 0.0 69 106 79
-5.675000000000001 10.125 0.0 246 246 246
0.325 10.575000000000001 0.0 161 184 198
2.1750000000000003 11.225000000000001 0.0 141 169 187
1.875 10.875 0.0 132 162 183
-1.625 9.725000000000001 0.0 195 209 177
-1.425 9.875 0.0 144 176 91
-1.125 10.575000000000001 0.0 182 194 202
-0.875 10.175 0.0 144 171 189
0.07500000000000001 10.525 0.0 142 169 188
-1.675 9.975000000000001 0.0 247 247 247
-1.5250000000000001 9.775 0.0 111 141 84
0.675 10.475000000000001 0.0 205 213 216
1.625 10.725000000000001 0.0 133 164 184
1.725 10.725000000000001 0.0 128 159 179
1.875 10.775 0.0 128 160 182
-0.225 10.425 0.0 149 173 189
-0.025 10.425 0.0 148 173 189
0.675 10.425 0.0 131 163 184
-2.275 2.6750000000000003 0.0 153 152 151
-2.025 2.5250000000000004 0.0 155 156 155
-6.525 9.925 0.0 112 149 174
-5.4750000000000005 10.225000000000001 0.0 218 218 218
-1.725 11.025 0.0 247 247 247
-0.625 10.775 0.0 149 173 190
-1.125 10.775 0.0 247 247 247
-0.7250000000000001 10.675 0.0 151 175 191
-0.8250000000000001 10.675 0.0 148 173 190
-1.125 10.725000000000001 0.0 247 247 247
-6.675000000000001 9.725000000000001 0.0 123 166 126
-5.425000000000001 10.175 0.0 220 220 220
-1.5750000000000002 10.725000000000001 0.0 247 247 247
-6.275 9.375 0.0 117 175 21
-5.7250000000000005 9.425 0.0 246 246 246
-1.625 10.425 0.0 243 245 240
-1.2750000000000001 10.025 0.0 246 247 246
-0.675 10.425 0.0 142 169 187
-1.5750000000000002 10.175 0.0 187 214 129
-1.375 9.975000000000001 0.0 242 244 238
-1.2750000000000001 9.725000000000001 0.0 220 227 209
-1.175 10.325000000000001 0.0 236 239 241
-0.125 10.825000000000001 0.0 155 178 193
-8.025 9.325000000000001 0.0 17 18 17
-1.3250000000000002 9.525 0.0 61 98 15
-1.425 9.825000000000001 0.0 189 210 154
-1.375 10.675 0.0 247 247 247
-0.7250000000000001 10.225000000000001 0.0 157 157 157
-0.625 10.175 0.0 188 189 188
-2.9250000000000003 3.225 0.0 112 66 65
-2.125 2.475 0.0 154 153 154
-2.025 2.575 0.0 155 155 155
-2.075 2.4250000000000003 0.0 155 155 155
-2.025 2.475 0.0 155 156 155
-1.925 2.5250000000000004 0.0 146 142 137
-7.175000000000001 10.275 0.0 116 153 177
-7.025 10.225000000000001 0.0 113 151 176
-6.625 10.125 0.0 112 150 175
-6.025 10.025 0.0 246 246 246
-7.875 10.275 0.0 112 151 177
-5.925000000000001 10.075000000000001 0.0 246 246 246
-5.425000000000001 10.125 0.0 113 111 111
-6.925000000000001 10.325000000000001 0.0 114 152 177
-0.42500000000000004 10.825000000000001 0.0 149 174 191
-0.025 10.825000000000001 0.0 155 179 194
0.07500000000000001 10.825000000000001 0.0 151 176 193
0.275 10.725000000000001 0.0 152 176 192
-6.875 10.225000000000001 0.0 114 152 177
-1.2750000000000001 10.725000000000001 0.0 246 246 246
1.0250000000000001 10.775 0.0 153 177 194
-5.675000000000001 10.875 0.0 170 170 170
-1.225 10.775 0.0 247 247 247
1.7750000000000001 11.025 0.0 140 168 187
-5.675000000000001 10.975000000000001 0.0 174 174 174
-1.5750000000000002 10.325000000000001 0.0 232 236 238
-1.3250000000000002 10.675 0.0 247 247 247
-5.875 9.325000000000001 0.0 146 180 77
-1.425 10.125 0.0 246 246 246
0.125 10.725000000000001 0.0 148 173 191
1.375 10.725000000000001 0.0 134 165 185
2.1750000000000003 11.175 0.0 136 166 186
-7.375 10.175 0.0 107 146 172
-6.175000000000001 9.275 0.0 96 140 100
-5.675000000000001 10.175 0.0 246 246 246
-0.125 10.875 0.0 149 174 191
-7.4750000000000005 10.125 0.0 110 150 175
-5.675000000000001 10.425 0.0 247 247 247
-1.8250000000000002 9.725000000000001 0.0 241 242 238
-0.47500000000000003 10.675 0.0 142 169 187
-0.225 10.825000000000001 0.0 151 175 191
-1.725 9.575000000000001 0.0 170 197 134
-0.7250000000000001 10.475000000000001 0.0 141 168 187
-1.2750000000000001 10.075000000000001 0.0 246 246 246
0.125 10.675 0.0 152 176 193
-0.925 10.225000000000001 0.0 92 113 127
2.575 11.125 0.0 134 166 186
-1.475 9.725000000000001 0.0 210 220 197
-0.8250000000000001 10.025 0.0 88 88 88
-0.675 10.225000000000001 0.0 137 137 137
0.125 10.275 0.0 174 174 174
-1.925 10.425 0.0 246 246 246
0.025 10.475000000000001 0.0 154 177 192
-5.425000000000001 9.975000000000001 0.0 243 243 243
-5.375 10.175 0.0 215 216 215
-0.775 10.475000000000001 0.0 143 170 188
0.225 10.575000000000001 0.0 148 174 191
-6.375 10.075000000000001 0.0 247 247 247
-6.375 10.325000000000001 0.0 246 246 246
-5.4750000000000005 10.025 0.0 244 244 244
-1.2750000000000001 10.775 0.0 247 247 247
-6.4750000000000005 10.275 0.0 246 246 246
-6.275 10.425 0.0 246 246 246
-5.925000000000001 10.325000000000001 0.0 246 246 246
-5.4750000000000005 10.075000000000001 0.0 245 245 245
-1.075 10.725000000000001 0.0 154 178 193
-0.125 10.725000000000001 0.0 147 173 190
-1.075 10.775 0.0 145 171 189
-0.8250000000000001 10.725000000000001 0.0 154 177 193
-0.7250000000000001 10.825000000000001 0.0 151 176 192
-0.625 10.675 0.0 151 175 191
0.025 10.375 0.0 162 179 192
-1.475 10.625 0.0 247 247 247
-1.2750000000000001 10.675 0.0 247 247 247
-5.875 9.775 0.0 228 233 210
-1.7750000000000001 10.175 0.0 246 246 246
-1.5250000000000001 10.075000000000001 0.0 216 230 175
-0.025 10.675 0.0 143 171 189
-5.9750000000000005 9.425 0.0 124 166 58
-1.7750000000000001 10.125 0.0 247 247 247
0.025 10.775 0.0 149 173 190
-1.725 9.775 0.0 246 246 246
-0.275 10.725000000000001 0.0 151 176 192
0.025 10.675 0.0 147 172 190
0.225 10.775 0.0 145 171 188
-6.125 9.725000000000001 0.0 246 246 246
0.225 10.725000000000001 0.0 144 171 189
-9.325000000000001 9.225 0.0 109 110 110
-1.875 10.275 0.0 246 246 246
0.42500000000000004 10.775 0.0 141 168 187
-1.3250000000000002 10.175 0.0 246 246 246
-0.375 10.175 0.0 172 173 172
-0.275 10.275 0.0 193 194 193
0.375 10.375 0.0 149 149 149
-5.4750000000000005 10.475000000000001 0.0 171 172 171
-8.275 10.425 0.0 110 150 175
-8.125 10.525 0.0 113 152 177
-5.925000000000001 10.025 0.0 245 245 245
-5.825 10.175 0.0 246 246 246
-5.575 10.125 0.0 246 246 246
-8.325000000000001 10.325000000000001 0.0 108 147 173
-7.275 10.725000000000001 0.0 121 158 181
-8.175 10.375 0.0 109 151 177
-2.075 10.725000000000001 0.0 247 247 247
-0.9750000000000001 10.775 0.0 147 172 190
-6.075 9.125 0.0 92 150 6
2.6750000000000003 11.075000000000001 0.0 247 247 247
-1.125 10.875 0.0 36 59 78
-1.8250000000000002 9.925 0.0 213 223 191
-8.125 10.325000000000001 0.0 107 146 172
-8.025 10.375 0.0 104 147 174
-7.525 10.475000000000001 0.0 111 151 176
-5.625 11.375 0.0 174 175 174
0.125 10.425 0.0 190 201 208
-6.275 9.625 0.0 51 79 66
-6.025 10.075000000000001 0.0 246 246 246
-5.525 11.275 0.0 176 177 177
-1.5750000000000002 9.575000000000001 0.0 242 244 240
0.42500000000000004 10.725000000000001 0.0 143 169 187
-0.525 10.275 0.0 164 172 178
2.375 10.675 0.0 158 175 186
1.5250000000000001 10.675 0.0 130 155 172
-7.325 10.375 0.0 113 152 176
-5.875 10.025 0.0 246 246 246
-1.3250000000000002 10.825000000000001 0.0 246 246 246
-2.075 10.625 0.0 247 246 247
-5.325 10.075000000000001 0.0 181 182 182
-1.8250000000000002 10.775 0.0 247 247 247
-1.625 10.675 0.0 247 247 246
-5.7250000000000005 9.975000000000001 0.0 246 246 246
-1.2750000000000001 10.325000000000001 0.0 246 247 246
-1.3250000000000002 9.625 0.0 247 247 247
-1.3250000000000002 9.825000000000001 0.0 194 206 176
0.025 10.725000000000001 0.0 145 170 188
-1.225 9.875 0.0 227 234 214
-1.5250000000000001 9.675 0.0 113 141 59
-1.725 9.875 0.0 247 247 247
-6.675000000000001 10.125 0.0 116 154 177
-5.7250000000000005 11.175 0.0 175 175 174
-5.675000000000001 11.725000000000001 0.0 173 174 173
-1.725 10.525 0.0 246 246 246
-1.475 10.475000000000001 0.0 225 231 234
-1.375 10.475000000000001 0.0 212 221 227
-5.675000000000001 10.825000000000001 0.0 178 178 178
-5.875 11.525 0.0 175 175 174
0.9750000000000001 10.525 0.0 163 169 171
1.125 10.725000000000001 0.0 164 185 198
-1.725 10.375 0.0 246 246 246
2.475 11.325000000000001 0.0 137 166 186
-1.925 10.225000000000001 0.0 246 246 246
-1.5750000000000002 10.225000000000001 0.0 246 246 246
-1.2750000000000001 10.425 0.0 227 232 235
-5.9750000000000005 9.475 0.0 168 196 107
-1.675 10.275 0.0 246 246 245
2.125 11.075000000000001 0.0 133 165 186
2.225 11.125 0.0 123 157 179
-5.875 10.075000000000001 0.0 246 246 246
-5.925000000000001 11.375 0.0 174 175 175
-5.675000000000001 11.525 0.0 155 156 155
0.7250000000000001 10.525 0.0 144 171 188
1.2750000000000001 10.625 0.0 180 197 207
1.625 10.825000000000001 0.0 137 167 186
1.975 10.925 0.0 130 162 183
2.475 11.225000000000001 0.0 128 162 184
-5.875 9.875 0.0 246 246 246
-5.925000000000001 11.675 0.0 178 179 178
-5.7250000000000005 11.575000000000001 0.0 174 174 174
-1.725 9.725000000000001 0.0 222 231 201
-5.825 11.475000000000001 0.0 175 176 175
-1.3250000000000002 9.675 0.0 70 113 14
-1.225 9.975000000000001 0.0 242 243 240
1.725 10.775 0.0 132 163 184
-1.875 10.075000000000001 0.0 246 246 246
0.775 10.675 0.0 151 176 193
1.975 10.825000000000001 0.0 133 164 185
2.075 10.875 0.0 128 161 182
2.1750000000000003 10.875 0.0 128 160 182
2.075 10.775 0.0 129 161 182
1.075 10.625 0.0 152 172 185
1.625 10.675 0.0 124 152 170
1.8250000000000002 10.775 0.0 131 162 183
2.1750000000000003 10.775 0.0 131 160 180
-1.8250000000000002 10.525 0.0 246 246 246
-1.125 10.675 0.0 247 247 247
-5.525 11.775 0.0 214 215 214
-1.3250000000000002 10.475000000000001 0.0 234 237 239
-6.325 10.175 0.0 246 246 246
-1.3250000000000002 10.425 0.0 246 246 246
-6.075 10.175 0.0 246 246 246
-1.675 10.175 0.0 243 244 237
-1.675 10.225000000000001 0.0 245 246 245
-1.875 9.975000000000001 0.0 246 246 246
-1.125 10.225000000000001 0.0 246 246 246
-1.7750000000000001 10.025 0.0 248 248 248
-1.7750000000000001 10.225000000000001 0.0 246 246 246
-1.0250000000000001 10.075000000000001 0.0 57 68 76
2.275 10.825000000000001 0.0 151 177 193
-5.925000000000001 10.175 0.0 246 246 246
-2.025 10.625 0.0 246 247 246
1.725 10.675 0.0 136 162 180
2.375 10.625 0.0 120 157 180
-5.525 11.625 0.0 166 166 166
-5.425000000000001 11.725000000000001 0.0 166 166 166
1.3250000000000002 10.675 0.0 135 165 185
-1.975 10.325000000000001 0.0 246 246 246
-1.475 10.425 0.0 246 246 246
-5.625 12.075000000000001 0.0 164 165 164
1.125 10.675 0.0 147 173 191
1.875 10.725000000000001 0.0 132 163 184
-1.875 10.175 0.0 247 248 247
0.925 10.725000000000001 0.0 153 177 193
1.075 10.725000000000001 0.0 155 178 194
-5.775 9.325000000000001 0.0 81 123 35
-5.675000000000001 9.325000000000001 0.0 236 239 233
-1.875 9.725000000000001 0.0 119 163 48
1.975 10.725000000000001 0.0 128 160 182
1.075 10.775 0.0 141 168 187
1.5250000000000001 10.625 0.0 135 165 186
2.225 10.675 0.0 122 157 180
1.475 10.425 0.0 66 66 66
2.1750000000000003 10.725000000000001 0.0 125 147 161
-0.42500000000000004 10.325000000000001 0.0 192 192 192
1.075 10.325000000000001 0.0 46 46 46
1.2750000000000001 10.425 0.0 119 120 120
-2.025 10.525 0.0 246 246 246
3.575 10.525 0.0 189 190 189
3.6750000000000003 10.525 0.0 231 232 231
0.7250000000000001 10.725000000000001 0.0 139 165 184
-1.625 10.075000000000001 0.0 243 244 238
-1.375 10.175 0.0 228 233 236
2.4250000000000003 10.725000000000001 0.0 120 155 178
-1.2750000000000001 10.225000000000001 0.0 246 247 246
2.575 10.875 0.0 246 246 246
-1.7750000000000001 9.625 0.0 81 127 24
-1.075 10.325000000000001 0.0 173 192 205
2.475 10.925 0.0 144 173 191
-4.7250000000000005 10.725000000000001 0.0 146 147 146
-1.2750000000000001 10.175 0.0 246 246 246
2.725 10.975000000000001 0.0 246 246 246
-5.675000000000001 11.375 0.0 139 139 139
0.47500000000000003 10.725000000000001 0.0 181 181 181
-1.975 10.125 0.0 246 246 246
-1.3250000000000002 10.575000000000001 0.0 246 246 246
1.625 10.475000000000001 0.0 147 147 147
2.075 10.725000000000001 0.0 124 159 181
-1.5250000000000001 10.175 0.0 231 237 203
-1.3250000000000002 10.225000000000001 0.0 246 246 246
-1.3250000000000002 10.125 0.0 247 247 247
-1.2750000000000001 9.875 0.0 245 245 244
-4.575 10.225000000000001 0.0 98 99 98
2.025 10.625 0.0 202 202 202
0.7250000000000001 10.425 0.0 144 172 192
0.675 10.675 0.0 137 165 184
2.5250000000000004 10.875 0.0 202 214 222
2.1750000000000003 10.975000000000001 0.0 138 165 185
-5.875 12.225000000000001 0.0 96 95 94
-1.475 10.225000000000001 0.0 246 246 246
2.325 10.925 0.0 131 162 183
2.5250000000000004 10.975000000000001 0.0 135 165 186
2.825 11.025 0.0 246 246 246
2.6750000000000003 10.925 0.0 246 246 246
0.47500000000000003 10.425 0.0 201 210 216
2.275 10.875 0.0 143 171 190
2.475 10.825000000000001 0.0 124 158 181
2.375 10.875 0.0 153 179 196
-1.475 10.025 0.0 192 215 146
-1.225 10.225000000000001 0.0 247 247 247
2.325 10.725000000000001 0.0 119 153 176
3.5250000000000004 11.175 0.0 178 179 179
-1.225 9.775 0.0 170 194 137
-1.425 10.225000000000001 0.0 247 247 247
2.275 10.675 0.0 165 184 196
0.5750000000000001 10.425 0.0 148 148 148
1.675 10.525 0.0 97 98 97
3.825 10.475000000000001 0.0 247 247 247
-0.225 10.325000000000001 0.0 172 180 185
-0.125 10.325000000000001 0.0 209 209 209
-0.025 10.325000000000001 0.0 218 218 218
1.125 10.425 0.0 49 49 49
1.3250000000000002 10.425 0.0 102 102 102
1.425 10.475000000000001 0.0 167 167 167
0.8250000000000001 5.375 0.0 141 130 94
0.875 5.425000000000001 0.0 41 36 26
-5.875 11.125 0.0 177 177 176
2.575 10.975000000000001 0.0 246 246 246
-1.975 10.225000000000001 0.0 114 149 53
-1.175 9.675 0.0 216 227 193
2.075 10.675 0.0 129 162 183
2.325 10.675 0.0 121 157 180
-0.7250000000000001 10.275 0.0 142 142 142
2.075 10.625 0.0 195 196 195
2.275 10.725000000000001 0.0 231 231 231
0.025 10.275 0.0 210 210 210
0.8250000000000001 5.425000000000001 0.0 55 50 36
2.975 11.025 0.0 229 229 229
3.5250000000000004 11.225000000000001 0.0 219 220 219
4.525 10.725000000000001 0.0 8 8 8
3.075 11.075000000000001 0.0 236 236 236
3.475 11.275 0.0 246 246 246
3.6750000000000003 10.625 0.0 190 189 190
3.1750000000000003 11.125 0.0 246 246 246
3.325 11.175 0.0 246 246 246
3.4250000000000003 11.225000000000001 0.0 245 245 245
3.725 10.925 0.0 196 196 196
3.625 10.225000000000001 0.0 246 246 246
2.9250000000000003 11.025 0.0 247 247 247
3.625 11.375 0.0 188 188 188
3.225 11.175 0.0 247 247 247
4.525 10.875 0.0 246 246 246
3.575 10.375 0.0 208 208 208
4.325 10.125 0.0 158 159 158
3.625 11.325000000000001 0.0 196 197 197
-1.675 9.675 0.0 194 212 176
2.4250000000000003 10.975000000000001 0.0 130 162 184
2.7750000000000004 11.075000000000001 0.0 246 246 246
3.5250000000000004 11.375 0.0 246 246 246
1.7750000000000001 10.625 0.0 82 81 81
1.875 10.575000000000001 0.0 177 177 177
-0.925 10.125 0.0 9 10 12
-0.775 10.225000000000001 0.0 37 37 37
0.42500000000000004 10.325000000000001 0.0 212 212 212
0.5750000000000001 10.325000000000001 0.0 158 158 158
1.075 10.425 0.0 25 25 25
1.175 10.425 0.0 63 63 63
3.975 10.575000000000001 0.0 247 247 247
1.925 6.775 0.0 78 74 62
0.8250000000000001 5.4750000000000005 0.0 215 204 153
0.875 5.375 0.0 58 51 36
0.8250000000000001 5.325 0.0 220 211 171
-1.875 10.575000000000001 0.0 247 247 247
1.8250000000000002 10.675 0.0 130 161 182
-1.125 9.775 0.0 247 246 247
-1.125 10.175 0.0 246 246 246
-2.075 10.475000000000001 0.0 246 246 246
2.975 10.875 0.0 246 246 246
-0.47500000000000003 10.225000000000001 0.0 191 192 191
3.325 11.225000000000001 0.0 247 247 247
3.625 10.325000000000001 0.0 246 246 246
3.7750000000000004 10.375 0.0 247 247 247
3.575 10.575000000000001 0.0 196 196 196
3.0250000000000004 11.075000000000001 0.0 247 247 247
3.575 10.975000000000001 0.0 193 193 194
3.6750000000000003 10.325000000000001 0.0 246 246 246
2.9250000000000003 11.075000000000001 0.0 246 246 246
3.625 11.075000000000001 0.0 191 191 191
4.175 10.625 0.0 246 246 246
3.1750000000000003 11.225000000000001 0.0 246 246 246
4.025 10.525 0.0 245 246 245
0.275 10.325000000000001 0.0 205 205 204
1.975 6.825 0.0 141 136 125
2.975 11.075000000000001 0.0 246 246 246
3.4250000000000003 11.275 0.0 246 246 246
3.2750000000000004 11.125 0.0 246 246 246
3.575 11.175 0.0 160 161 163
3.375 11.175 0.0 246 246 246
3.575 11.225000000000001 0.0 202 203 204
2.7750000000000004 10.925 0.0 219 219 219
2.475 10.975000000000001 0.0 132 165 186
2.875 10.925 0.0 247 247 247
1.175 10.525 0.0 83 83 83
1.3250000000000002 10.525 0.0 158 158 158
2.225 10.625 0.0 216 216 216
0.875 5.4750000000000005 0.0 221 210 162
3.5250000000000004 11.025 0.0 199 200 199
1.975 6.675000000000001 0.0 163 163 163
0.7250000000000001 4.7250000000000005 0.0 72 65 46
3.6750000000000003 11.325000000000001 0.0 205 205 206
2.7750000000000004 11.175 0.0 247 247 247
0.47500000000000003 10.325000000000001 0.0 156 156 156
0.675 10.275 0.0 148 176 193
0.775 4.7250000000000005 0.0 144 67 63
0.775 4.675 0.0 238 34 34
