ply
format ascii 1.0
element vertex 632
property float x
property float y
property float z
property uchar red
property uchar green
property uchar blue
end_header
0.125 0.07500000000000001 0.0 18 18 18
0.125 0.025 0.0 10 10 10
0.125 -0.025 0.0 3 3 3
4.275 0.47500000000000003 0.0 246 246 246
4.325 0.42500000000000004 0.0 246 246 246
5.075 0.775 0.0 217 217 217
5.075 0.7250000000000001 0.0 237 237 237
5.025 0.625 0.0 246 246 246
5.025 -0.275 0.0 138 139 140
5.025 -2.725 0.0 197 198 197
4.9750000000000005 -2.7750000000000004 0.0 198 199 198
5.025 0.7250000000000001 0.0 223 223 223
4.925000000000001 0.5750000000000001 0.0 246 246 246
5.9750000000000005 -2.7750000000000004 0.0 67 65 65
5.9750000000000005 -2.875 0.0 55 55 54
5.9750000000000005 -3.0250000000000004 0.0 198 198 198
5.9750000000000005 -3.125 0.0 199 200 199
5.9750000000000005 -3.1750000000000003 0.0 198 198 198
4.925000000000001 -2.725 0.0 196 197 197
4.925000000000001 -2.7750000000000004 0.0 197 197 197
5.125 -0.17500000000000002 0.0 246 246 246
5.125 -0.125 0.0 245 245 245
6.025 -2.975 0.0 196 196 196
5.025 -0.125 0.0 245 246 245
5.025 -0.17500000000000002 0.0 246 246 246
5.025 0.775 0.0 213 213 213
4.925000000000001 0.17500000000000002 0.0 246 246 246
4.925000000000001 0.125 0.0 246 246 246
4.925000000000001 -0.07500000000000001 0.0 246 246 246
4.925000000000001 -0.17500000000000002 0.0 245 246 246
5.125 0.375 0.0 247 248 248
5.125 0.325 0.0 246 246 246
5.125 0.225 0.0 245 245 245
5.125 -0.025 0.0 246 246 246
5.025 0.675 0.0 246 246 246
4.9750000000000005 0.07500000000000001 0.0 246 246 246
4.9750000000000005 -0.025 0.0 246 246 246
4.9750000000000005 0.375 0.0 246 246 246
4.9750000000000005 0.325 0.0 246 247 246
4.9750000000000005 0.225 0.0 246 246 246
4.9750000000000005 0.525 0.0 245 246 245
4.925000000000001 0.775 0.0 159 158 159
4.925000000000001 0.7250000000000001 0.0 246 246 246
5.075 0.675 0.0 246 246 246
5.075 0.5750000000000001 0.0 245 245 245
4.875 0.275 0.0 246 246 246
4.875 0.125 0.0 246 246 246
4.825 0.07500000000000001 0.0 245 245 245
4.575 0.375 0.0 246 246 246
4.9750000000000005 0.025 0.0 246 246 246
4.775 0.525 0.0 246 246 245
4.825 0.225 0.0 246 246 246
4.9750000000000005 -2.875 0.0 246 246 246
4.7250000000000005 0.275 0.0 245 246 245
4.7250000000000005 0.375 0.0 246 246 246
4.925000000000001 -0.025 0.0 245 245 245
4.825 0.275 0.0 246 246 246
4.875 0.225 0.0 246 246 246
4.925000000000001 0.025 0.0 246 246 246
4.825 0.375 0.0 246 246 246
4.875 -0.125 0.0 246 246 246
5.925000000000001 -3.075 0.0 202 201 202
5.925000000000001 -2.7750000000000004 0.0 86 85 85
5.925000000000001 -2.9250000000000003 0.0 197 197 197
5.925000000000001 -2.975 0.0 199 199 199
4.925000000000001 -2.875 0.0 246 246 246
4.675 0.525 0.0 245 246 245
4.7250000000000005 0.525 0.0 246 246 246
5.075 -2.6750000000000003 0.0 196 197 197
5.075 -2.7750000000000004 0.0 198 199 198
5.075 -2.875 0.0 204 204 204
6.075 -2.825 0.0 104 102 102
6.075 -2.875 0.0 60 58 58
6.075 -2.975 0.0 196 197 195
6.075 -3.0250000000000004 0.0 198 198 197
6.075 -3.125 0.0 200 201 201
4.875 0.625 0.0 247 247 247
4.875 -0.025 0.0 246 246 246
4.7250000000000005 0.17500000000000002 0.0 246 246 246
4.825 0.5750000000000001 0.0 246 246 246
4.675 0.42500000000000004 0.0 246 246 246
4.575 0.525 0.0 247 247 247
4.825 0.025 0.0 246 246 246
6.075 -3.1750000000000003 0.0 199 199 199
4.925000000000001 0.275 0.0 246 246 246
4.875 0.025 0.0 246 246 246
4.925000000000001 0.675 0.0 246 246 246
4.7250000000000005 0.5750000000000001 0.0 246 246 246
4.675 0.17500000000000002 0.0 246 246 246
4.7250000000000005 0.125 0.0 246 246 246
4.675 0.325 0.0 246 246 246
4.7250000000000005 3.225 0.0 94 95 94
4.775 -0.025 0.0 246 247 246
4.625 0.225 0.0 246 246 246
4.575 3.4250000000000003 0.0 137 137 137
4.525 3.4250000000000003 0.0 135 136 135
4.675 -0.025 0.0 245 246 245
4.7250000000000005 0.025 0.0 246 246 246
5.7250000000000005 0.925 0.0 133 133 133
4.275 4.125 0.0 243 243 243
4.775 3.5250000000000004 0.0 241 241 241
-1.175 10.575000000000001 0.0 124 155 177
-1.175 10.525 0.0 139 167 185
3.725 7.925000000000001 0.0 238 238 238
4.375 3.5250000000000004 0.0 238 238 238
-2.325 11.125 0.0 246 246 246
-2.025 10.975000000000001 0.0 246 246 246
-1.5750000000000002 11.025 0.0 245 245 244
3.125 5.175000000000001 0.0 175 204 96
1.7750000000000001 7.025 0.0 49 41 22
2.875 5.525 0.0 111 156 54
3.375 10.525 0.0 246 246 246
0.9750000000000001 10.375 0.0 124 158 180
-5.675000000000001 9.925 0.0 121 121 121
-5.875 10.025 0.0 246 246 246
-5.7250000000000005 10.125 0.0 181 181 181
-0.8250000000000001 10.275 0.0 166 177 186
-0.125 10.475000000000001 0.0 178 191 199
0.8250000000000001 10.675 0.0 170 185 193
1.5250000000000001 10.825000000000001 0.0 138 167 186
1.975 10.775 0.0 134 164 184
2.075 10.775 0.0 136 165 185
2.1750000000000003 10.825000000000001 0.0 247 247 247
2.325 10.825000000000001 0.0 247 247 247
-0.025 10.475000000000001 0.0 173 191 203
0.7250000000000001 10.725000000000001 0.0 156 179 195
1.425 10.875 0.0 144 171 189
1.7750000000000001 10.875 0.0 139 167 186
1.875 10.875 0.0 138 166 185
2.475 10.975000000000001 0.0 247 247 247
-1.125 10.525 0.0 140 167 186
-0.47500000000000003 10.375 0.0 149 174 191
-0.375 10.425 0.0 140 164 180
0.225 10.625 0.0 165 186 200
0.675 10.625 0.0 192 202 208
1.625 10.875 0.0 140 168 186
-0.625 10.425 0.0 133 160 179
-0.275 10.425 0.0 143 170 188
-0.125 10.425 0.0 204 214 219
1.075 10.675 0.0 151 175 192
1.2750000000000001 10.775 0.0 139 167 186
1.7750000000000001 10.825000000000001 0.0 146 173 190
1.975 10.875 0.0 136 166 185
0.925 10.725000000000001 0.0 150 174 190
1.175 10.825000000000001 0.0 141 169 188
1.3250000000000002 10.825000000000001 0.0 139 168 187
2.475 11.075000000000001 0.0 246 246 246
2.725 11.625 0.0 247 247 246
-1.2750000000000001 10.525 0.0 139 167 186
-0.775 10.675 0.0 147 171 189
-0.525 10.575000000000001 0.0 138 167 186
-0.375 10.675 0.0 136 165 184
-0.275 10.625 0.0 141 169 187
0.125 10.625 0.0 164 184 198
0.925 10.675 0.0 156 179 194
1.075 10.825000000000001 0.0 144 170 188
1.425 10.725000000000001 0.0 136 164 183
2.075 10.725000000000001 0.0 130 162 183
-0.275 10.675 0.0 139 167 185
-0.025 10.675 0.0 153 177 193
0.325 10.675 0.0 142 169 187
0.5750000000000001 10.725000000000001 0.0 152 177 193
0.8250000000000001 10.725000000000001 0.0 165 186 200
-1.0250000000000001 10.625 0.0 102 114 123
-0.775 10.575000000000001 0.0 138 166 185
-0.375 10.625 0.0 138 166 186
-0.275 10.525 0.0 139 167 186
0.125 10.725000000000001 0.0 148 173 190
0.5750000000000001 10.675 0.0 178 195 206
0.675 10.675 0.0 154 176 191
1.175 10.725000000000001 0.0 141 168 187
1.5250000000000001 10.875 0.0 142 170 189
2.325 10.875 0.0 247 247 246
0.47500000000000003 10.625 0.0 198 207 211
1.425 10.775 0.0 132 163 183
1.625 10.825000000000001 0.0 134 164 184
-1.0250000000000001 10.725000000000001 0.0 148 174 190
-0.125 10.575000000000001 0.0 154 174 188
-0.025 10.575000000000001 0.0 164 186 200
0.225 10.675 0.0 145 171 189
0.47500000000000003 10.725000000000001 0.0 151 175 191
0.5750000000000001 10.825000000000001 0.0 152 176 192
1.0250000000000001 10.675 0.0 141 169 187
1.2750000000000001 10.675 0.0 139 169 188
1.5250000000000001 10.725000000000001 0.0 110 136 151
-0.375 10.475000000000001 0.0 141 167 184
0.925 10.525 0.0 113 128 138
0.675 5.525 0.0 90 83 64
-5.7250000000000005 10.025 0.0 130 129 129
-5.275 10.925 0.0 169 169 168
-2.075 10.825000000000001 0.0 247 247 247
-1.725 10.875 0.0 247 247 247
-0.925 10.425 0.0 134 163 183
0.47500000000000003 10.675 0.0 139 167 186
0.7250000000000001 10.775 0.0 156 179 194
0.9750000000000001 10.775 0.0 151 171 185
1.125 10.775 0.0 148 173 191
-2.225 10.875 0.0 247 247 247
-1.0250000000000001 10.325000000000001 0.0 149 172 187
1.125 10.725000000000001 0.0 144 171 188
-1.975 10.825000000000001 0.0 247 247 247
-1.5750000000000002 10.875 0.0 247 247 247
-1.175 10.375 0.0 139 164 181
-1.0250000000000001 10.425 0.0 136 165 185
0.375 10.625 0.0 193 205 212
0.875 10.775 0.0 185 199 207
-1.7750000000000001 10.525 0.0 246 246 246
0.775 10.775 0.0 150 176 193
1.125 10.875 0.0 153 177 193
-1.725 10.825000000000001 0.0 247 247 247
-1.0250000000000001 10.475000000000001 0.0 137 166 185
-5.625 9.975000000000001 0.0 182 183 182
-1.875 10.175 0.0 65 110 12
-0.525 10.475000000000001 0.0 134 162 180
-5.775 10.025 0.0 186 186 185
-5.575 9.925 0.0 167 167 167
-1.975 10.125 0.0 176 196 136
-1.5750000000000002 10.625 0.0 246 246 246
-0.925 10.625 0.0 142 170 188
2.075 10.875 0.0 131 162 183
-1.075 10.725000000000001 0.0 149 175 192
2.1750000000000003 10.725000000000001 0.0 246 246 246
1.725 7.025 0.0 46 41 30
1.8250000000000002 11.075000000000001 0.0 140 167 185
-0.225 10.475000000000001 0.0 140 168 187
0.675 10.725000000000001 0.0 186 197 203
1.0250000000000001 10.875 0.0 145 171 190
1.675 10.925 0.0 142 169 188
-1.375 10.525 0.0 150 171 185
0.125 10.675 0.0 168 188 201
-1.8250000000000002 10.825000000000001 0.0 247 247 247
1.975 11.125 0.0 140 169 187
-2.075 10.975000000000001 0.0 247 247 247
-0.775 10.425 0.0 134 163 183
-0.675 10.375 0.0 145 171 188
-0.42500000000000004 10.275 0.0 168 188 201
-0.225 10.425 0.0 140 162 177
0.025 10.625 0.0 168 188 201
0.225 10.725000000000001 0.0 195 208 216
1.875 11.225000000000001 0.0 142 169 188
-1.975 10.925 0.0 247 247 247
-0.675 10.475000000000001 0.0 132 162 182
-0.225 10.625 0.0 141 169 188
0.025 10.675 0.0 123 139 151
0.375 10.775 0.0 139 167 186
1.0250000000000001 10.725000000000001 0.0 140 168 187
1.2750000000000001 10.975000000000001 0.0 146 172 189
2.125 10.975000000000001 0.0 139 168 187
-2.325 10.875 0.0 247 247 247
-2.1750000000000003 10.775 0.0 248 248 248
-2.075 10.875 0.0 247 247 247
-1.7750000000000001 10.575000000000001 0.0 246 246 246
-1.5750000000000002 10.825000000000001 0.0 247 247 247
-0.5750000000000001 10.475000000000001 0.0 136 165 184
0.375 10.725000000000001 0.0 145 171 189
1.875 11.175 0.0 136 165 185
-1.625 10.475000000000001 0.0 246 246 246
0.375 10.675 0.0 139 166 185
1.2750000000000001 10.875 0.0 146 173 190
-1.675 9.925 0.0 247 247 247
-1.425 10.675 0.0 155 176 190
1.3250000000000002 10.725000000000001 0.0 130 157 175
-1.175 10.325000000000001 0.0 135 162 180
-0.8250000000000001 10.525 0.0 142 168 185
-0.675 10.575000000000001 0.0 139 167 186
0.325 10.525 0.0 139 167 186
0.5750000000000001 10.625 0.0 208 217 223
0.775 10.625 0.0 178 195 205
1.125 10.625 0.0 143 169 187
1.975 10.725000000000001 0.0 110 127 137
-1.5250000000000001 10.425 0.0 246 247 246
-1.375 10.275 0.0 128 160 181
-1.2750000000000001 10.275 0.0 148 174 191
-0.675 10.225000000000001 0.0 204 205 204
-4.875 10.075000000000001 0.0 114 114 114
-8.225 9.025 0.0 18 19 18
-0.525 10.275 0.0 150 175 191
-0.275 10.325000000000001 0.0 143 169 188
1.875 10.775 0.0 140 168 186
-1.8250000000000002 11.125 0.0 246 246 246
-1.125 10.375 0.0 136 165 184
-0.875 10.325000000000001 0.0 144 170 188
2.275 10.825000000000001 0.0 246 246 246
-5.9750000000000005 11.275 0.0 175 176 175
-1.975 11.225000000000001 0.0 247 247 247
-0.875 10.525 0.0 134 164 184
0.925 10.625 0.0 167 187 200
2.4250000000000003 10.925 0.0 246 246 246
-5.875 10.075000000000001 0.0 246 246 246
-2.225 11.225000000000001 0.0 247 247 247
-2.125 11.225000000000001 0.0 247 247 247
-2.375 11.225000000000001 0.0 247 248 247
0.675 10.775 0.0 145 171 189
1.675 10.975000000000001 0.0 145 173 191
-2.075 11.075000000000001 0.0 246 246 246
-5.775 10.425 0.0 180 181 180
-5.825 10.075000000000001 0.0 223 224 223
2.275 10.875 0.0 247 246 247
-1.975 10.275 0.0 188 209 150
0.07500000000000001 10.525 0.0 157 175 187
0.325 10.775 0.0 142 169 186
1.2750000000000001 10.725000000000001 0.0 143 170 189
1.5250000000000001 10.675 0.0 135 166 187
-0.675 10.325000000000001 0.0 175 187 195
0.7250000000000001 10.625 0.0 247 246 245
-1.7750000000000001 10.875 0.0 246 246 246
-1.125 10.325000000000001 0.0 140 168 187
1.3250000000000002 10.925 0.0 149 174 191
0.7250000000000001 10.675 0.0 179 193 203
1.225 10.925 0.0 149 174 192
-2.125 11.275 0.0 247 247 247
-5.675000000000001 10.175 0.0 165 166 165
1.075 10.725000000000001 0.0 143 170 188
-1.875 10.425 0.0 231 238 213
-1.375 10.425 0.0 144 164 178
0.325 10.625 0.0 205 214 220
-6.425000000000001 10.175 0.0 246 246 246
-5.925000000000001 10.075000000000001 0.0 246 246 246
-6.275 10.125 0.0 246 246 246
-0.7250000000000001 10.425 0.0 136 165 185
1.175 10.675 0.0 136 165 184
-6.425000000000001 10.125 0.0 246 246 246
-1.725 10.125 0.0 49 85 11
0.275 10.725000000000001 0.0 139 167 186
1.7750000000000001 10.625 0.0 133 166 187
-6.2250000000000005 8.825000000000001 0.0 88 144 6
-1.625 9.425 0.0 246 246 246
0.07500000000000001 10.775 0.0 138 166 184
-6.025 10.125 0.0 246 246 246
-1.875 9.525 0.0 240 241 240
-1.5250000000000001 10.475000000000001 0.0 246 247 246
-0.8250000000000001 10.075000000000001 0.0 185 185 185
0.625 5.425000000000001 0.0 77 65 38
-1.075 10.475000000000001 0.0 139 166 186
0.025 10.725000000000001 0.0 174 191 203
-5.7250000000000005 10.275 0.0 170 171 171
-5.775 10.575000000000001 0.0 137 137 137
-5.7250000000000005 10.725000000000001 0.0 139 141 139
-1.2750000000000001 10.575000000000001 0.0 142 169 187
-5.775 10.725000000000001 0.0 140 140 139
-0.17500000000000002 10.675 0.0 182 199 209
-5.775 9.925 0.0 246 246 246
-5.625 10.075000000000001 0.0 138 139 140
-5.7250000000000005 10.625 0.0 140 141 140
-5.875 11.325000000000001 0.0 139 139 139
-0.07500000000000001 10.725000000000001 0.0 136 166 185
-6.125 10.075000000000001 0.0 246 246 246
-5.825 11.025 0.0 139 140 139
-1.925 10.925 0.0 246 246 246
0.47500000000000003 10.775 0.0 141 168 187
-5.925000000000001 11.425 0.0 137 137 137
-6.075 10.025 0.0 246 246 246
-5.9750000000000005 10.025 0.0 245 246 245
-5.925000000000001 10.675 0.0 202 202 202
-1.3250000000000002 10.525 0.0 133 163 183
-1.075 10.375 0.0 133 162 182
-0.625 10.575000000000001 0.0 134 163 183
-6.2250000000000005 10.025 0.0 246 246 246
-1.625 10.175 0.0 178 198 148
-1.475 10.075000000000001 0.0 216 226 193
-1.075 10.325000000000001 0.0 134 163 182
2.4250000000000003 11.075000000000001 0.0 246 246 247
-6.025 11.525 0.0 158 159 158
-1.2750000000000001 10.225000000000001 0.0 139 169 188
-0.07500000000000001 10.675 0.0 135 164 184
1.0250000000000001 10.625 0.0 128 162 183
1.125 10.675 0.0 140 168 187
-6.525 10.175 0.0 246 246 246
-6.175000000000001 10.075000000000001 0.0 246 246 246
-5.875 10.525 0.0 137 138 137
-6.025 10.975000000000001 0.0 137 138 137
-0.7250000000000001 10.125 0.0 121 121 120
-0.625 10.275 0.0 142 142 141
0.775 10.425 0.0 76 77 76
-1.8250000000000002 9.475 0.0 209 217 205
0.17500000000000002 10.525 0.0 190 203 213
-1.975 10.725000000000001 0.0 247 247 246
-1.875 10.625 0.0 246 246 246
-0.025 10.425 0.0 245 245 244
-1.875 10.725000000000001 0.0 247 247 247
-1.7750000000000001 10.725000000000001 0.0 247 247 247
-1.3250000000000002 10.625 0.0 149 174 191
-1.125 10.625 0.0 147 172 189
-1.875 10.775 0.0 247 247 247
-1.7750000000000001 10.675 0.0 246 246 246
-6.625 9.775 0.0 246 246 246
-6.425000000000001 9.925 0.0 246 246 246
-0.7250000000000001 10.475000000000001 0.0 131 159 178
-6.575 9.725000000000001 0.0 233 235 237
-6.4750000000000005 9.875 0.0 246 246 246
-6.325 9.925 0.0 246 246 246
-6.2250000000000005 9.925 0.0 246 246 246
-5.925000000000001 9.975000000000001 0.0 245 246 245
-1.675 10.575000000000001 0.0 247 247 247
0.025 10.525 0.0 182 198 208
-6.575 9.675 0.0 148 162 173
-5.4750000000000005 11.025 0.0 209 210 210
-0.7250000000000001 10.575000000000001 0.0 136 165 185
-6.525 9.725000000000001 0.0 246 246 246
-2.025 10.225000000000001 0.0 245 245 244
-6.325 9.625 0.0 176 197 141
-1.675 9.725000000000001 0.0 223 230 214
0.675 10.525 0.0 150 176 193
-6.4750000000000005 10.225000000000001 0.0 247 247 247
-1.475 10.625 0.0 247 247 247
-6.4750000000000005 8.925 0.0 96 142 170
-1.125 10.125 0.0 196 196 196
-6.175000000000001 8.875 0.0 90 133 152
-6.4750000000000005 10.075000000000001 0.0 246 246 246
-6.525 9.975000000000001 0.0 246 246 246
-6.425000000000001 10.025 0.0 246 246 246
-1.425 10.725000000000001 0.0 161 177 189
-1.3250000000000002 10.825000000000001 0.0 143 168 186
-1.925 10.975000000000001 0.0 247 247 247
-1.225 10.675 0.0 141 167 185
-2.275 11.075000000000001 0.0 246 247 246
-6.325 10.175 0.0 246 246 246
-1.075 10.575000000000001 0.0 142 169 187
-5.925000000000001 11.025 0.0 172 173 173
-5.875 11.175 0.0 167 167 167
-6.425000000000001 10.225000000000001 0.0 246 246 246
-6.125 10.175 0.0 245 245 245
-1.375 10.175 0.0 203 212 219
-0.025 10.725000000000001 0.0 135 164 183
-2.275 10.325000000000001 0.0 246 247 246
-1.725 9.525 0.0 185 209 140
-6.375 9.375 0.0 17 42 61
-5.9750000000000005 11.075000000000001 0.0 164 166 164
-1.975 10.525 0.0 246 246 246
0.025 10.425 0.0 248 248 247
-4.925000000000001 10.275 0.0 203 203 203
-6.7250000000000005 9.725000000000001 0.0 35 67 92
-2.225 11.075000000000001 0.0 247 247 247
-7.575 10.325000000000001 0.0 105 147 172
-6.275 10.025 0.0 246 246 246
-1.5750000000000002 10.125 0.0 246 246 246
-6.575 9.625 0.0 43 71 68
-1.725 9.625 0.0 155 181 125
-1.675 10.175 0.0 247 247 247
-1.5250000000000001 9.725000000000001 0.0 203 218 168
-1.375 10.125 0.0 248 248 248
-1.3250000000000002 10.425 0.0 133 163 184
-1.475 10.175 0.0 247 247 247
-1.3250000000000002 10.325000000000001 0.0 139 167 186
-5.825 10.875 0.0 206 207 206
-1.925 9.725000000000001 0.0 134 166 93
0.8250000000000001 10.325000000000001 0.0 111 111 111
-5.825 10.825000000000001 0.0 206 206 206
-5.325 11.275 0.0 171 171 171
-2.125 10.275 0.0 245 245 244
-1.0250000000000001 10.225000000000001 0.0 124 124 124
-6.275 8.925 0.0 92 138 43
-5.775 10.325000000000001 0.0 204 205 204
-1.8250000000000002 9.775 0.0 218 223 215
-6.575 9.875 0.0 246 246 246
-5.9750000000000005 10.175 0.0 246 246 246
-1.975 10.575000000000001 0.0 247 247 247
-1.675 10.725000000000001 0.0 246 246 246
-1.375 10.625 0.0 149 174 191
-6.675000000000001 10.075000000000001 0.0 246 246 246
-5.9750000000000005 11.575000000000001 0.0 168 169 169
-2.075 10.575000000000001 0.0 247 247 247
-6.075 11.325000000000001 0.0 190 190 190
-5.9750000000000005 11.375 0.0 175 176 175
-6.575 10.025 0.0 246 246 246
-5.825 10.525 0.0 169 169 169
-2.225 10.625 0.0 246 246 246
-1.2750000000000001 10.675 0.0 146 172 190
-6.825 10.175 0.0 246 247 246
-6.7250000000000005 10.225000000000001 0.0 246 246 246
-2.375 10.925 0.0 247 247 247
-6.775 10.075000000000001 0.0 246 246 246
-5.325 10.825000000000001 0.0 113 110 112
-2.1750000000000003 10.475000000000001 0.0 246 246 246
-1.725 10.275 0.0 242 243 238
-1.675 10.475000000000001 0.0 246 246 246
-5.875 10.725000000000001 0.0 198 198 198
-6.075 11.475000000000001 0.0 192 192 192
-6.075 11.625 0.0 173 173 173
-6.625 10.325000000000001 0.0 246 246 246
-5.925000000000001 10.575000000000001 0.0 192 193 192
-2.025 9.575000000000001 0.0 76 124 28
-1.8250000000000002 9.625 0.0 112 154 48
-1.725 9.425 0.0 69 114 7
-1.5750000000000002 9.725000000000001 0.0 180 198 154
-1.975 9.675 0.0 196 216 158
-1.5250000000000001 9.925 0.0 246 247 246
-6.075 10.225000000000001 0.0 246 246 246
-1.875 9.775 0.0 144 173 96
-6.2250000000000005 10.225000000000001 0.0 245 245 245
-5.025 10.425 0.0 189 189 188
-5.925000000000001 11.125 0.0 217 218 217
-1.7750000000000001 10.425 0.0 247 247 247
-1.675 10.425 0.0 246 246 246
-6.125 9.925 0.0 247 247 247
-1.7750000000000001 10.275 0.0 245 245 244
-1.675 10.225000000000001 0.0 246 246 246
-1.3250000000000002 10.675 0.0 154 179 194
-1.875 9.975000000000001 0.0 198 220 131
-1.475 10.225000000000001 0.0 245 245 245
-1.5250000000000001 10.025 0.0 246 246 246
-6.525 9.525 0.0 96 140 45
-6.175000000000001 11.175 0.0 216 216 216
-6.025 11.225000000000001 0.0 217 218 217
-1.625 9.775 0.0 203 215 178
-1.7750000000000001 9.675 0.0 192 208 175
-0.7250000000000001 10.325000000000001 0.0 147 173 190
-2.275 10.375 0.0 246 246 246
-6.025 11.175 0.0 200 201 200
-2.225 10.275 0.0 246 246 246
-1.075 10.225000000000001 0.0 158 158 158
-1.725 10.675 0.0 246 246 246
-1.625 10.725000000000001 0.0 246 246 246
-1.5250000000000001 10.675 0.0 247 247 247
-5.875 10.675 0.0 201 202 201
-5.925000000000001 10.925 0.0 207 207 207
-1.625 10.675 0.0 247 247 247
-5.875 10.425 0.0 204 204 204
-6.125 11.675 0.0 211 211 211
-8.075000000000001 10.375 0.0 92 138 167
-6.525 9.675 0.0 246 246 246
-5.925000000000001 10.725000000000001 0.0 208 208 208
-6.425000000000001 9.025 0.0 92 154 7
-6.575 9.425 0.0 103 157 52
-6.025 10.825000000000001 0.0 200 201 200
-6.325 9.025 0.0 93 151 12
-6.375 9.325000000000001 0.0 122 173 33
-6.425000000000001 9.525 0.0 95 138 34
-5.925000000000001 9.925 0.0 245 245 245
-1.7750000000000001 9.725000000000001 0.0 116 154 65
-1.2750000000000001 10.375 0.0 135 165 184
-6.2250000000000005 9.025 0.0 86 134 102
-1.675 9.675 0.0 167 193 127
-6.375 8.875 0.0 90 138 168
-6.175000000000001 8.975 0.0 57 104 10
-4.825 10.075000000000001 0.0 202 203 203
-2.275 10.475000000000001 0.0 246 246 246
-6.125 8.875 0.0 61 86 56
-1.475 10.725000000000001 0.0 246 247 246
-2.325 10.375 0.0 246 246 246
-2.225 10.375 0.0 246 246 246
-6.2250000000000005 9.825000000000001 0.0 245 245 245
-6.075 9.825000000000001 0.0 246 246 246
-5.875 9.875 0.0 246 246 246
-5.925000000000001 10.775 0.0 212 212 212
-5.925000000000001 11.225000000000001 0.0 187 187 187
-5.875 11.625 0.0 215 215 215
-6.925000000000001 9.825000000000001 0.0 94 138 167
-2.275 10.575000000000001 0.0 247 248 247
-6.025 9.875 0.0 247 247 247
-1.925 10.525 0.0 245 245 245
-5.875 10.825000000000001 0.0 214 215 214
-6.075 11.375 0.0 215 216 215
-5.425000000000001 11.025 0.0 64 63 64
-2.075 10.425 0.0 246 246 246
-1.7750000000000001 10.075000000000001 0.0 175 210 82
-1.625 10.275 0.0 247 246 247
-1.5750000000000002 10.425 0.0 247 247 247
-1.675 9.775 0.0 207 220 164
-6.675000000000001 9.625 0.0 52 90 89
-6.525 9.625 0.0 243 243 243
-6.4750000000000005 9.025 0.0 90 147 6
-1.975 9.825000000000001 0.0 173 199 131
-1.7750000000000001 9.375 0.0 125 159 92
-1.7750000000000001 9.875 0.0 245 245 245
-1.625 9.875 0.0 123 162 72
-7.925000000000001 10.275 0.0 87 138 167
-2.225 10.175 0.0 246 246 246
-6.675000000000001 9.825000000000001 0.0 246 246 246
-5.9750000000000005 10.725000000000001 0.0 209 209 209
-1.925 10.675 0.0 247 247 247
-5.025 10.275 0.0 183 183 183
-6.675000000000001 9.675 0.0 21 49 73
-2.075 10.525 0.0 247 247 247
-6.075 11.725000000000001 0.0 199 200 199
-1.975 10.375 0.0 245 245 245
-1.925 10.275 0.0 181 211 107
-6.325 9.425 0.0 87 133 28
-1.625 9.675 0.0 246 246 246
-6.4750000000000005 9.375 0.0 87 135 165
-2.325 10.275 0.0 246 246 246
-6.7250000000000005 10.175 0.0 246 246 246
-6.775 9.825000000000001 0.0 24 52 74
-0.17500000000000002 10.325000000000001 0.0 240 240 238
-4.775 9.975000000000001 0.0 71 71 70
-6.025 11.675 0.0 210 210 210
-1.475 10.325000000000001 0.0 247 247 247
-6.075 12.075000000000001 0.0 208 209 208
-1.875 9.875 0.0 197 220 143
-2.075 10.125 0.0 217 228 180
-1.975 9.975000000000001 0.0 246 246 246
-1.625 9.575000000000001 0.0 64 104 20
-6.075 11.225000000000001 0.0 197 197 197
-1.8250000000000002 9.525 0.0 61 108 12
0.925 10.875 0.0 121 155 177
-5.775 11.375 0.0 190 191 191
-5.925000000000001 11.675 0.0 185 185 185
-6.425000000000001 13.625 0.0 179 179 179
-6.2250000000000005 12.425 0.0 178 178 178
-6.4750000000000005 13.725000000000001 0.0 180 181 180
-6.075 11.175 0.0 185 185 185
-6.375 13.025 0.0 180 181 180
-1.5750000000000002 10.225000000000001 0.0 247 247 247
-2.075 9.775 0.0 158 192 92
-2.275 10.175 0.0 246 246 246
-6.375 13.175 0.0 219 219 219
-1.975 9.875 0.0 246 246 246
-1.5250000000000001 9.625 0.0 246 246 246
-2.4250000000000003 10.625 0.0 186 186 186
-5.875 10.625 0.0 205 206 206
-6.325 13.025 0.0 204 204 204
-6.2250000000000005 12.575000000000001 0.0 209 210 210
-5.9750000000000005 10.675 0.0 209 210 209
-2.025 10.175 0.0 246 246 246
-6.175000000000001 11.725000000000001 0.0 202 203 202
-5.925000000000001 10.525 0.0 206 206 206
-5.9750000000000005 10.525 0.0 208 208 208
-1.7750000000000001 9.975000000000001 0.0 215 224 200
-6.425000000000001 13.275 0.0 152 153 152
-6.425000000000001 13.425 0.0 150 151 150
-6.525 14.225000000000001 0.0 147 148 147
-6.625 14.175 0.0 148 148 148
-6.325 13.375 0.0 152 153 152
-6.575 14.075000000000001 0.0 146 145 146
-5.925000000000001 11.175 0.0 160 162 160
-2.325 10.825000000000001 0.0 247 247 247
-2.275 10.725000000000001 0.0 246 246 246
-0.275 10.725000000000001 0.0 129 161 182
-0.225 10.725000000000001 0.0 131 162 184
-0.07500000000000001 10.825000000000001 0.0 130 163 184
-2.375 10.525 0.0 247 247 247
0.325 10.425 0.0 128 162 182
