ply
format ascii 1.0
element vertex 170
property float x
property float y
property float z
property uchar red
property uchar green
property uchar blue
end_header
0.125 0.07500000000000001 0.0 13 12 12
0.125 0.025 0.0 10 10 10
0.125 -0.025 0.0 4 4 4
5.125 -2.7750000000000004 0.0 200 201 200
5.075 0.775 0.0 233 233 233
5.125 -2.725 0.0 198 199 198
4.9750000000000005 -0.125 0.0 246 246 246
5.025 -2.725 0.0 197 197 197
5.025 -2.7750000000000004 0.0 198 198 198
4.9750000000000005 0.625 0.0 246 246 246
4.925000000000001 0.5750000000000001 0.0 246 246 246
5.025 0.275 0.0 246 246 246
4.9750000000000005 0.17500000000000002 0.0 245 245 245
4.925000000000001 0.525 0.0 246 246 246
4.925000000000001 0.17500000000000002 0.0 246 246 246
4.925000000000001 -0.125 0.0 246 246 246
4.925000000000001 0.325 0.0 246 246 246
4.9750000000000005 0.125 0.0 246 246 246
4.875 0.5750000000000001 0.0 246 246 246
4.875 0.42500000000000004 0.0 245 245 245
4.825 0.5750000000000001 0.0 246 246 246
4.825 0.42500000000000004 0.0 246 246 246
4.875 0.275 0.0 245 245 245
4.925000000000001 0.07500000000000001 0.0 246 246 246
4.825 0.525 0.0 245 245 245
4.925000000000001 0.42500000000000004 0.0 245 245 245
4.875 0.025 0.0 246 246 246
4.9750000000000005 0.775 0.0 184 184 183
4.925000000000001 -2.6750000000000003 0.0 197 198 197
4.925000000000001 -2.7750000000000004 0.0 199 200 200
4.925000000000001 -0.17500000000000002 0.0 246 246 246
4.125 0.5750000000000001 0.0 246 246 246
5.175000000000001 0.775 0.0 240 240 240
4.125 0.525 0.0 246 246 246
5.125 0.17500000000000002 0.0 246 246 246
5.125 0.125 0.0 246 246 246
5.125 0.025 0.0 245 245 245
5.125 0.325 0.0 246 246 246
5.125 -0.025 0.0 245 245 245
5.125 -0.07500000000000001 0.0 245 245 245
5.075 0.375 0.0 246 246 246
5.075 -0.225 0.0 246 246 246
5.025 0.375 0.0 245 246 245
4.9750000000000005 0.025 0.0 246 246 246
5.025 -0.025 0.0 246 246 246
4.9750000000000005 0.47500000000000003 0.0 246 246 246
4.875 0.47500000000000003 0.0 246 246 246
5.9750000000000005 -3.075 0.0 194 194 194
4.9750000000000005 -0.225 0.0 234 235 235
5.9750000000000005 -2.875 0.0 145 145 144
4.875 0.07500000000000001 0.0 245 246 245
4.825 -0.07500000000000001 0.0 246 246 246
4.875 -0.025 0.0 245 246 245
4.925000000000001 0.775 0.0 190 190 190
4.875 -0.125 0.0 245 246 245
4.875 0.225 0.0 246 246 246
5.925000000000001 -2.9250000000000003 0.0 197 197 197
5.775 -2.975 0.0 194 195 194
4.825 0.07500000000000001 0.0 246 246 246
5.825 -2.825 0.0 193 193 193
5.875 -2.9250000000000003 0.0 195 195 195
4.7250000000000005 0.525 0.0 245 245 245
4.7250000000000005 0.42500000000000004 0.0 246 246 246
5.075 0.47500000000000003 0.0 246 246 246
5.075 0.5750000000000001 0.0 246 246 246
4.925000000000001 0.025 0.0 246 246 246
4.925000000000001 -0.025 0.0 246 246 246
4.875 0.675 0.0 245 246 246
4.825 -0.025 0.0 246 246 246
4.775 0.675 0.0 246 245 246
5.025 0.675 0.0 246 246 246
5.2250000000000005 0.875 0.0 233 233 233
4.9750000000000005 -2.625 0.0 196 196 196
5.025 -2.875 0.0 209 209 209
4.925000000000001 0.675 0.0 247 247 247
4.125 0.375 0.0 246 246 246
4.125 0.325 0.0 245 245 245
5.125 0.7250000000000001 0.0 246 246 246
5.025 0.7250000000000001 0.0 247 246 247
4.925000000000001 0.7250000000000001 0.0 231 231 230
4.875 0.7250000000000001 0.0 245 246 245
5.9750000000000005 -3.0250000000000004 0.0 198 197 197
5.925000000000001 -3.075 0.0 197 197 197
4.7250000000000005 0.675 0.0 247 247 247
5.925000000000001 -3.0250000000000004 0.0 199 199 198
5.9750000000000005 -2.975 0.0 196 196 196
5.875 -2.975 0.0 196 196 196
5.9750000000000005 -2.725 0.0 189 189 189
5.925000000000001 -2.7750000000000004 0.0 59 56 57
4.775 0.7250000000000001 0.0 225 225 225
5.9750000000000005 -2.825 0.0 50 51 50
4.625 0.625 0.0 246 246 246
5.925000000000001 -2.975 0.0 193 194 193
4.825 0.025 0.0 246 246 246
4.675 0.7250000000000001 0.0 186 186 186
4.4750000000000005 0.625 0.0 172 187 196
4.425 0.47500000000000003 0.0 246 246 246
5.075 -2.625 0.0 199 199 199
5.275 0.8250000000000001 0.0 160 159 159
4.4750000000000005 0.42500000000000004 0.0 246 246 246
4.4750000000000005 0.325 0.0 246 245 246
4.525 0.225 0.0 245 245 245
4.525 0.07500000000000001 0.0 245 245 245
4.925000000000001 -2.625 0.0 198 199 198
4.525 0.025 0.0 246 246 246
5.375 0.875 0.0 147 146 147
4.325 0.525 0.0 188 192 195
4.325 0.42500000000000004 0.0 243 243 243
4.275 0.5750000000000001 0.0 199 202 204
4.325 -0.025 0.0 245 246 245
4.375 -0.07500000000000001 0.0 245 245 245
4.175 0.5750000000000001 0.0 201 209 213
4.275 0.125 0.0 245 245 245
4.375 -0.025 0.0 245 245 245
4.2250000000000005 0.5750000000000001 0.0 173 174 174
4.375 0.025 0.0 245 245 245
4.2250000000000005 0.525 0.0 134 134 136
4.325 0.025 0.0 245 245 245
4.325 -0.07500000000000001 0.0 245 245 245
4.2250000000000005 0.17500000000000002 0.0 245 245 245
4.7250000000000005 3.625 0.0 181 182 181
4.675 3.5250000000000004 0.0 188 188 188
4.625 3.475 0.0 182 183 183
4.925000000000001 3.375 0.0 55 54 53
4.9750000000000005 3.475 0.0 87 88 86
4.825 0.775 0.0 79 80 77
4.575 0.525 0.0 187 191 193
4.575 0.42500000000000004 0.0 203 203 203
4.575 0.325 0.0 245 245 245
4.625 0.225 0.0 246 246 246
4.625 0.125 0.0 246 246 246
4.625 0.025 0.0 245 246 245
4.675 -0.025 0.0 246 247 246
4.675 -0.07500000000000001 0.0 245 245 245
4.675 -0.17500000000000002 0.0 246 246 246
4.525 0.525 0.0 133 147 155
4.625 -0.025 0.0 245 246 245
4.625 -0.07500000000000001 0.0 245 246 245
4.625 -0.17500000000000002 0.0 245 245 245
4.425 0.5750000000000001 0.0 161 162 161
5.025 3.4250000000000003 0.0 183 183 183
4.525 -0.025 0.0 245 245 245
4.925000000000001 3.575 0.0 245 245 245
4.525 -0.07500000000000001 0.0 246 246 246
4.525 -0.17500000000000002 0.0 245 246 245
4.425 0.375 0.0 246 246 246
4.425 0.325 0.0 245 245 245
4.425 0.225 0.0 245 245 245
4.425 0.125 0.0 245 245 245
4.875 3.5250000000000004 0.0 245 245 245
4.9750000000000005 3.325 0.0 238 238 238
4.425 -0.17500000000000002 0.0 245 245 245
4.825 3.475 0.0 187 188 188
4.325 0.325 0.0 245 245 245
4.7250000000000005 3.4250000000000003 0.0 188 189 188
4.325 0.225 0.0 245 245 245
4.825 3.4250000000000003 0.0 177 177 177
4.675 3.375 0.0 177 177 176
4.825 3.225 0.0 188 189 189
4.7250000000000005 3.5250000000000004 0.0 246 246 246
4.325 -0.17500000000000002 0.0 245 245 245
4.2250000000000005 0.42500000000000004 0.0 246 246 246
4.825 3.325 0.0 180 180 180
4.2250000000000005 0.325 0.0 245 245 245
4.175 0.525 0.0 82 84 85
4.175 0.42500000000000004 0.0 245 245 245
4.2250000000000005 0.125 0.0 245 245 245
4.175 0.325 0.0 245 246 246
4.2250000000000005 0.025 0.0 246 246 246
4.275 0.675 0.0 230 234 238
